<svg width="1034.000000" height="555.000000" viewBox="0 0 1034 555" fill="none" xmlns="http://www.w3.org/2000/svg" xmlns:xlink="http://www.w3.org/1999/xlink">
	<desc>
			Created with Pixso.
	</desc>
	<defs>
		<clipPath id="clip513_4546">
			<rect id="_Layer_" rx="-1.094071" width="501.084656" height="1205.666626" transform="translate(494.781097 52.273270)" fill="white" fill-opacity="0"/>
		</clipPath>
		<linearGradient x1="517.000061" y1="0.000000" x2="517.000061" y2="555.000000" id="paint_linear_513_4541_0" gradientUnits="userSpaceOnUse">
			<stop stop-color="#97CAFF"/>
			<stop offset="1.000000" stop-color="#D9EDFF"/>
		</linearGradient>
		<linearGradient x1="517.000061" y1="0.000000" x2="517.000061" y2="555.000000" id="paint_linear_513_4543_0" gradientUnits="userSpaceOnUse">
			<stop stop-color="#9DCDFF"/>
			<stop offset="1.000000" stop-color="#F6FBFF"/>
		</linearGradient>
		<linearGradient x1="1000.927856" y1="335.072632" x2="185.510834" y2="642.899414" id="paint_linear_513_4544_0" gradientUnits="userSpaceOnUse">
			<stop stop-color="#FF6699"/>
			<stop offset="1.000000" stop-color="#5EA1FF"/>
		</linearGradient>
	</defs>
	<rect id="Rectangle 152" width="1034.000000" height="555.000000" fill="url(#paint_linear_513_4541_0)" fill-opacity="1.000000"/>
	<mask id="mask513_4543" mask-type="alpha" maskUnits="userSpaceOnUse" x="0.000000" y="0.000000" width="1034.000000" height="555.000000">
		<rect id="Rectangle 153" width="1034.000000" height="555.000000" fill="url(#paint_linear_513_4543_0)" fill-opacity="1.000000"/>
	</mask>
	<g mask="url(#mask513_4543)">
		<path id="Vector 2709" d="M969.43 684.82C946.9 589.06 872.82 367.77 756.75 248.66C611.65 99.77 580.74 173.77 625.39 354.25C670.03 534.72 584.9 680.3 486.88 521.45C388.87 362.6 242.69 241.51 250.92 378.32C259.15 515.13 34.99 537.09 -45.17 450.44" stroke="url(#paint_linear_513_4544_0)" stroke-opacity="0.800000" stroke-width="161.234238" stroke-linecap="round"/>
	</g>
	<g mask="url(#mask513_4543)">
		<rect id="_Layer_" rx="-1.094071" width="501.084656" height="1205.666626" transform="translate(494.781097 52.273270)" fill="#FFFFFF" fill-opacity="0"/>
		<g clip-path="url(#clip513_4546)">
			<path id="Vector" d="M759.74 127.14C759.71 126.92 759.69 126.7 759.66 126.48C756.19 99.31 665.87 30.51 626.5 83.13C626.5 83.13 623.89 86.22 620.32 92.51C615.33 97.35 606.84 106.79 603.18 118.02C599.77 128.46 602.87 134.4 605.57 137.35C603.74 156.39 607 174.57 610.06 179.8C614.11 186.73 623.04 187.04 623.04 187.04C623.04 187.04 632.29 202.8 647.93 207.42C663.55 212.05 686.71 216.09 702.34 213.2C717.96 210.31 725.78 201.93 725.78 201.93C725.78 201.93 731.29 202.8 742.28 193.56C745.96 190.46 749.49 184.98 752.47 178.05C757.16 177.24 762.82 171.94 763.6 153.87C764.07 143.25 762.16 134.2 759.72 127.15L759.74 127.14Z" fill="#1A1A1A" fill-opacity="1.000000" fill-rule="nonzero"/>
			<path id="Vector" d="M711.55 218.54C706.17 217.62 707.95 196.18 705.66 188.34C701.86 175.3 652.59 192.7 652.59 192.7C652.59 192.7 643.16 230.64 635.12 236.85C629.17 239.16 623.31 241.75 617.63 244.68C620.17 247.45 622.86 250.07 625.84 252.46C631.88 257.29 638.81 261.29 645.93 264.3C672.83 275.68 705.78 271.34 729.91 255.37C736.36 251.1 742.24 246.06 747.71 240.62C751.84 236.52 740.77 227.52 744.4 222.9C726.33 222.32 721.53 222.48 711.58 218.54L711.55 218.54Z" fill="#FCC49A" fill-opacity="1.000000" fill-rule="nonzero"/>
			<path id="Vector" d="M707.19 209.85L647.47 197.64C642.84 240.83 691.55 256.7 707.19 209.85Z" fill="#1A1A1A" fill-opacity="1.000000" fill-rule="nonzero"/>
			<path id="Vector" d="M641.64 85.62C646.58 75.25 657.62 59.75 694.91 66.41C732.2 73.06 746.35 96.59 748.35 111.57C750.35 126.56 745.32 139.68 745.32 139.68L744.93 141.26C744.93 141.26 744.88 141.26 744.82 141.26C737.42 163.54 722.05 197.25 708.56 209.15C693.6 222.37 672.07 229.43 646.96 212.05C622.42 195.08 626.62 137.76 629.78 125.24C630.32 123.13 630.91 120.79 631.52 118.33C632.77 110.13 637.2 95.02 641.65 85.65L641.64 85.62Z" fill="#FCC49A" fill-opacity="1.000000" fill-rule="nonzero"/>
			<path id="Vector" d="M736.03 154.75C736.03 154.75 746.84 153.67 748.26 165.43C749.68 177.21 732.27 197.86 721.53 195.14C711.05 192.5 736.04 154.74 736.04 154.74L736.03 154.75Z" fill="#FCC49A" fill-opacity="1.000000" fill-rule="nonzero"/>
			<g opacity="0.600000">
				<path id="Vector" d="M669.96 165.25C670.54 163.81 672.26 163.05 673.72 163.64C675.14 164.22 676.56 164.81 677.99 165.39C679.43 165.98 680.18 167.68 679.6 169.14C679.02 170.57 677.3 171.34 675.84 170.74C674.42 170.17 673 169.57 671.57 169C670.14 168.4 669.38 166.7 669.96 165.25Z" fill="#C8513A" fill-opacity="1.000000" fill-rule="nonzero"/>
			</g>
			<path id="Vector" d="M661.77 122C662.86 121.54 663.68 120.54 663.77 119.41C663.91 117.85 662.63 116.6 660.91 116.63C660.5 116.63 650.83 116.83 641.51 121.24C639.92 121.99 639.17 123.71 639.84 125.1C640.5 126.47 642.33 127.03 643.94 126.24C651.85 122.53 660.31 122.32 660.39 122.32C660.88 122.32 661.35 122.21 661.77 122.02L661.77 122Z" fill="#1A1A1A" fill-opacity="1.000000" fill-rule="nonzero"/>
			<path id="Vector" d="M712.04 137.98C711.32 137.03 711.1 135.78 711.55 134.73C712.19 133.29 713.91 132.84 715.4 133.7C715.76 133.9 724.08 138.81 730.04 147.21C731.05 148.64 730.87 150.52 729.61 151.39C728.36 152.27 726.49 151.86 725.49 150.38C720.4 143.27 713.13 138.95 713.07 138.9C712.65 138.65 712.3 138.34 712.02 137.96L712.04 137.98Z" fill="#1A1A1A" fill-opacity="1.000000" fill-rule="nonzero"/>
			<g opacity="0.710000">
				<path id="Vector" d="M734.37 167.65C736.17 168.11 736.59 173.92 736.15 175.71C735.7 177.51 728.97 181.52 728.97 181.52C728.97 181.52 732.59 167.22 734.39 167.65L734.37 167.65Z" fill="#D76A3C" fill-opacity="1.000000" fill-rule="nonzero"/>
			</g>
			<path id="Vector" d="M632.91 128.2C632.91 128.2 623.92 122.13 617.07 131.83C610.22 141.52 615.68 166.07 626.42 168.77C636.9 171.41 632.91 128.2 632.91 128.2Z" fill="#FCC49A" fill-opacity="1.000000" fill-rule="nonzero"/>
			<g opacity="0.710000">
				<path id="Vector" d="M628.27 140.36C626.47 139.9 623.32 144.82 622.87 146.6C622.42 148.38 626.44 155.11 626.44 155.11C626.44 155.11 630.05 140.81 628.27 140.36Z" fill="#D76A3C" fill-opacity="1.000000" fill-rule="nonzero"/>
			</g>
			<path id="Vector" d="M711.07 162.52C713.22 164.37 717.24 163.53 717.68 160.97C718.18 158.08 714.49 154.07 711.91 152.46C708.02 150.04 703.18 148.83 700.74 149.33C696.47 150.21 694.92 154.1 697.38 154.63C707.56 156.88 709.52 161.16 711.07 162.52Z" fill="#1A1A1A" fill-opacity="1.000000" fill-rule="nonzero"/>
			<path id="Vector" d="M646.58 145.71C643.73 146.1 640.87 143.13 641.95 140.71C643.17 137.98 648.5 136.62 651.55 136.68C656.15 136.79 660.86 138.45 662.6 140.23C665.65 143.35 664.74 147.51 662.39 146.62C652.66 142.87 648.63 145.43 646.57 145.71L646.58 145.71Z" fill="#1A1A1A" fill-opacity="1.000000" fill-rule="nonzero"/>
			<path id="Vector" d="M658.36 179.66L693.68 187.75C693.68 187.75 685.57 201.04 672.83 201.62C660.1 202.2 658.36 179.65 658.36 179.65L658.36 179.66Z" fill="#FFFFFF" fill-opacity="1.000000" fill-rule="nonzero"/>
			<path id="Vector" d="M740.27 78.5C740.27 78.5 746.93 80.24 726.96 63.76C706.98 47.29 675.72 49.02 667.9 57.41C667.9 57.41 653.71 47.86 635.2 64.06C621.82 75.74 609.72 97.01 621.89 90.65C621.89 90.65 618.41 136.9 629.99 126.78C629.99 126.78 636.07 120.7 645.91 105.96C653.67 94.34 661.78 79.66 665.72 73.83C671.56 91.73 678.75 109.79 694.58 121.16C696.07 122.23 698.37 121.42 699.24 119.94C700.24 118.22 699.52 116.36 698.02 115.28C686.09 106.72 679.71 93.37 674.87 79.77C683.04 90.84 696.44 109.55 704.95 116.08C717.4 125.62 719.14 120.12 719.14 120.12C719.14 120.12 727.24 130.82 730.13 138.33C733.03 145.85 729.83 166.37 737.08 160.88C744.32 155.39 756.47 142.38 761.1 131.12C765.73 119.84 763.71 94.7 740.25 78.52L740.27 78.5Z" fill="#1A1A1A" fill-opacity="1.000000" fill-rule="nonzero"/>
			<path id="Vector" d="M996.96 1246.31C996.96 1253.32 884.3 1259.03 745.32 1259.03C606.34 1259.03 493.68 1253.32 493.68 1246.31C493.68 1239.28 607.2 1240.53 746.18 1240.53C885.16 1240.53 996.96 1239.28 996.96 1246.31Z" fill="#6A516B" fill-opacity="1.000000" fill-rule="nonzero"/>
			<path id="Vector" d="M867.47 1043.93C867.47 1043.93 895.5 1159.81 899.22 1173.3C901.27 1180.72 905.54 1198.35 902.43 1212.97C899.88 1224.91 890.07 1234 889.4 1240.78C887.91 1255.82 958.64 1247.92 976.51 1246.31C994.38 1244.75 982.47 1209.87 972.79 1190.06C963.11 1170.27 939.7 1033.64 935.22 999.55C930.75 965.48 867.47 1043.93 867.47 1043.93Z" fill="#FCC49A" fill-opacity="1.000000" fill-rule="nonzero"/>
			<path id="Vector" d="M968.99 1179.48C965.85 1183.39 962.34 1184.81 959.29 1183.6C954.13 1181.54 956.07 1181.54 950.25 1169.86C944.44 1158.18 924.42 1155.43 916.68 1167.8C908.92 1180.17 906.99 1189.12 901.82 1182.92C901.21 1182.19 900.57 1181.98 899.89 1182.12C899.55 1190.35 902.18 1201.42 899.91 1211.94C897.44 1223.41 890.06 1234.25 889.41 1240.78C887.93 1255.82 958.65 1247.92 976.53 1246.31C994.39 1244.75 982.49 1209.87 972.81 1190.06C971.49 1187.38 970.23 1183.78 969.01 1179.5L968.99 1179.48Z" fill="#6168AC" fill-opacity="1.000000" fill-rule="nonzero"/>
			<path id="Vector" d="M598.39 1066.31C598.39 1066.31 581.85 1160.04 578.56 1173.62C575.28 1187.21 588.57 1225.75 590.54 1240.75C592.51 1255.75 532.08 1249.93 514.17 1248.91C496.26 1247.9 496.53 1212.84 505.57 1192.72C514.61 1172.61 525.89 1058.31 529.25 1024.14C532.63 989.93 598.39 1066.31 598.39 1066.31Z" fill="#FCC49A" fill-opacity="1.000000" fill-rule="nonzero"/>
			<path id="Vector" d="M509.04 1182.04C512.31 1185.84 515.86 1187.16 518.86 1185.85C523.96 1183.62 522.02 1183.68 527.47 1171.82C532.91 1159.96 560.03 1158.41 568.16 1170.53C576.31 1182.65 572.64 1190.22 578.2 1182.48C579 1193.29 583.05 1208.68 586.35 1221.68C588.28 1229.32 603.71 1229.22 599.16 1241.34C593.84 1255.5 532.11 1249.93 514.2 1248.91C496.3 1247.9 496.56 1212.84 505.6 1192.72C506.82 1190.01 507.98 1186.35 509.07 1182.03L509.04 1182.04Z" fill="#6168AC" fill-opacity="1.000000" fill-rule="nonzero"/>
			<path id="Vector" d="M588.35 547.77C586.84 552.31 523.12 1050.73 523.12 1050.73C523.12 1050.73 533.74 1068.91 586.84 1071.93C639.94 1074.97 656.62 1070.43 656.62 1070.43C656.62 1070.43 702.14 749.26 712.76 699.27C712.76 699.27 806.82 1056.79 817.44 1067.4C828.06 1078 929.7 1059.81 944.87 1052.25C960.05 1044.68 849.3 682.6 843.23 635.64C837.16 588.68 834.13 552.33 818.95 499.31C803.78 446.29 588.34 547.78 588.34 547.78L588.35 547.77Z" fill="#EA4550" fill-opacity="1.000000" fill-rule="nonzero"/>
			<path id="Vector" d="M699.29 671.94C693.64 706.69 688 741.44 682.35 776.17C676.71 810.92 671.06 845.66 665.41 880.4C662.24 899.93 659.06 919.47 655.89 939.01C655.54 941.15 658.81 942.07 659.17 939.91C664.82 905.16 670.47 870.42 676.11 835.68C681.76 800.94 687.4 766.19 693.05 731.46L702.58 672.85C702.92 670.71 699.65 669.78 699.29 671.94Z" fill="#C22327" fill-opacity="1.000000" fill-rule="nonzero"/>
			<path id="Vector" d="M661.99 1032.9C656.62 1033.49 651.24 1033.92 645.85 1034.17C648.43 1014.22 650.6 994.23 652.26 974.19C652.45 972.02 649.04 972.02 648.86 974.19C647.19 994.27 645.03 1014.32 642.42 1034.31C613.96 1035.19 585.38 1031.31 558.25 1022.67C547.97 1019.41 537.94 1015.44 528.23 1010.83C528.08 1012.04 527.93 1013.21 527.78 1014.36C548.77 1024.17 571.13 1031 594.01 1034.62C609.87 1037.13 625.95 1038.16 642 1037.68C640.92 1045.86 639.78 1054.01 638.53 1062.15C638.2 1064.29 641.48 1065.21 641.81 1063.06C643.11 1054.57 644.3 1046.07 645.42 1037.56C650.79 1037.34 656.15 1036.91 661.5 1036.35C661.66 1035.23 661.83 1034.09 661.99 1032.92L661.99 1032.9Z" fill="#C22327" fill-opacity="1.000000" fill-rule="nonzero"/>
			<path id="Vector" d="M939.63 1005.43C939.4 1004.34 939.15 1003.23 938.9 1002.1C929.7 1004.96 920.44 1007.58 911.11 1009.93C883.6 1016.86 855.54 1021.59 827.27 1024.03C819.08 1024.73 810.85 1025.25 802.64 1025.56C802.99 1026.68 803.33 1027.81 803.66 1028.9C824.16 1028.04 844.62 1026.03 864.9 1022.83C890.2 1018.83 915.19 1013 939.63 1005.43Z" fill="#C22327" fill-opacity="1.000000" fill-rule="nonzero"/>
			<path id="Vector" d="M721.23 730.16C715.57 706.79 702.18 654.62 696.52 631.26C695.49 627.01 688.94 628.8 689.97 633.07C695.63 656.43 709.02 708.61 714.68 731.97C715.71 736.22 722.26 734.42 721.23 730.16Z" fill="#FFFFFF" fill-opacity="1.000000" fill-rule="nonzero"/>
			<path id="Vector" d="M899.5 849.46C898.25 849.3 897 849.16 895.73 848.99C891.82 848.47 887.54 848.32 883.74 847.21C880.45 846.25 879.9 841.07 879.01 838.27C873.96 822.3 868.89 806.32 863.84 790.34C861.14 781.77 858.41 773.21 855.71 764.64C857.27 764.31 858.82 763.95 860.37 763.64C865.26 762.66 870.16 761.69 875.07 760.7C874.62 759.05 874.16 757.41 873.71 755.78L866.72 757.17C862.29 758.06 857.85 758.94 853.42 759.83C852.71 759.97 851.36 760.48 850.84 760.05C850.31 759.59 850.16 758.17 849.95 757.55C849.26 755.36 848.59 753.18 847.95 750.97C845.48 742.57 843.31 734.09 841.46 725.53C840.52 721.19 839.66 716.84 838.9 712.46C838.57 710.64 838.08 708.54 839.54 707.07C840.65 705.95 842.35 705.4 843.82 704.95C848.76 703.4 853.74 701.94 858.71 700.48C858.27 698.81 857.84 697.17 857.4 695.55C852.38 697 847.37 698.5 842.4 700.08C838.97 701.17 835.27 702.84 833.95 706.48C833.17 708.67 833.47 710.98 833.84 713.21C834.28 715.87 834.81 718.51 835.33 721.15C837.28 730.92 839.65 740.6 842.4 750.18C843.07 752.5 843.76 754.83 844.48 757.14C845.12 759.2 845.59 761.7 846.98 763.42C847.94 764.59 849.19 765.17 850.58 765.29C855.85 781.94 861.12 798.59 866.39 815.24C869.07 823.7 871.74 832.15 874.41 840.62C875.49 844.04 876.24 848.28 879.25 850.61C882.16 852.86 886.58 852.84 890.09 853.33C893.7 853.83 897.31 854.28 900.92 854.72C900.44 852.95 899.95 851.19 899.49 849.42L899.5 849.46Z" fill="#C22327" fill-opacity="1.000000" fill-rule="nonzero"/>
			<path id="Vector" d="M575.3 715.56C576.3 715.66 579 715.65 579.77 716.45C580.46 717.15 579.85 719.44 579.74 720.29C578.67 728.39 577.56 736.48 576.44 744.57C575.9 748.46 575.36 752.33 574.81 756.22C574.51 758.3 574.23 760.38 573.93 762.45C573.79 763.42 573.65 764.39 573.53 765.36C573.43 766 573.5 767.5 573.11 768.04C572.82 768.43 572.81 768.29 572.06 768.14C571.06 767.93 569.96 767.95 568.95 767.9C567.12 767.83 565.3 767.84 563.47 767.95C562.09 768.03 560.73 768.18 559.37 768.37C559.15 770.11 558.92 771.85 558.7 773.59C560.4 773.31 562.13 773.1 563.86 773.03C565.05 772.96 566.26 772.95 567.46 772.96C565.97 786.69 563.96 800.36 561.41 813.94C560.11 820.88 558.67 827.79 557.09 834.67C556.42 837.6 555.95 840.84 554.54 843.52C553.32 845.86 551.22 847.19 549.03 848.49C548.75 850.67 548.47 852.86 548.19 855.03C548.99 854.52 549.75 853.97 550.58 853.5C553.05 852.05 555.6 850.61 557.43 848.35C559.4 845.91 560.36 842.94 561.08 839.95C564.53 825.75 567.22 811.33 569.43 796.89C570.62 789.05 571.64 781.18 572.5 773.29C573.01 773.29 573.51 773.29 574.01 773.21C577.22 772.68 577.99 769.93 578.38 767.14C578.91 763.39 579.44 759.66 579.97 755.91C581 748.57 582.02 741.21 583.02 733.87C583.52 730.19 584.02 726.49 584.51 722.8C584.88 719.99 585.77 716.66 584.26 714.04C582.52 711.04 578.77 710.89 575.7 710.53C572.78 710.18 569.85 710.03 566.91 710.01C566.69 711.7 566.47 713.4 566.26 715.1C569.27 715.09 572.29 715.23 575.31 715.57L575.3 715.56Z" fill="#C22327" fill-opacity="1.000000" fill-rule="nonzero"/>
			<path id="Vector" d="M840.96 617.56C840.66 615.19 840.38 612.83 840.08 610.49C828.18 608.19 816.28 605.9 804.38 603.6C801.59 603.07 798.81 602.52 796.04 601.99C794.65 601.73 793.26 601.46 791.87 601.18C790.99 601.01 790.08 601.01 789.57 600.4C789.02 599.76 788.94 598.12 788.71 597.26C788.33 595.9 787.97 594.54 787.6 593.2L785.16 584.25C782.12 573.13 779.09 562.03 776.05 550.91L765.84 513.5C764.7 509.29 758.13 511.08 759.29 515.32C765.57 538.35 771.86 561.39 778.15 584.44C779.7 590.12 781.15 595.85 782.81 601.51C783.51 603.91 784.61 605.9 787.02 606.91C789.72 608.07 793.02 608.3 795.89 608.85C807.57 611.09 819.25 613.36 830.92 615.61C834.27 616.25 837.6 616.9 840.94 617.55L840.96 617.56Z" fill="#C22327" fill-opacity="1.000000" fill-rule="nonzero"/>
			<path id="Vector" d="M605.92 587.07C605.15 591.59 604.37 596.1 603.54 600.6C602.85 604.38 602.46 608.58 600.47 611.94C598.57 615.15 594.97 617.07 591.95 619.07L580.77 626.49C579.67 627.22 578.56 627.94 577.47 628.68C577.09 631.6 576.7 634.57 576.31 637.59L594 625.85C597.39 623.6 601.16 621.48 603.98 618.48C606.89 615.39 608.33 611.48 609.19 607.39C610.12 602.88 610.86 598.32 611.66 593.77C613.3 584.34 614.82 574.88 616.21 565.41C617.77 554.81 619.18 544.19 620.45 533.55C620.45 533.54 620.45 533.51 620.45 533.49C617.93 534.57 615.54 535.6 613.27 536.58C611.2 553.45 608.78 570.28 605.93 587.04L605.92 587.07Z" fill="#C22327" fill-opacity="1.000000" fill-rule="nonzero"/>
			<path id="Vector" d="M675.8 583.95C673.62 582.97 671.47 581.98 669.29 581C667.73 580.28 666.15 579.61 664.6 578.86C663.32 578.25 663.29 577.66 662.86 576.32C660.67 569.44 658.52 562.57 656.33 555.7C652.87 544.78 649.41 533.87 645.96 522.95C643.81 523.81 641.7 524.67 639.64 525.51C643.27 536.99 646.91 548.45 650.54 559.93C651.7 563.57 652.84 567.21 654 570.85C655.07 574.24 655.84 578.02 657.44 581.2C658.95 584.25 662.22 585.22 665.12 586.54C668.57 588.12 672.03 589.68 675.47 591.26C676.36 591.67 677.33 591.76 678.21 591.53C679.18 594.51 680.15 597.49 681.13 600.47C682.51 604.6 689.08 602.83 687.68 598.66C678.64 571.44 670.45 543.97 663.07 516.27C660.92 517.08 658.81 517.91 656.72 518.72C662.57 540.61 668.9 562.38 675.78 583.98L675.8 583.95Z" fill="#C22327" fill-opacity="1.000000" fill-rule="nonzero"/>
			<path id="Vector" d="M587.73 343.84C587.73 343.84 581.64 526.37 581.64 541.12C581.64 555.86 762.27 571.04 835.22 530.28C843.38 525.72 800.48 427.95 794.4 341.25C788.31 254.54 587.71 343.86 587.71 343.86L587.73 343.84Z" fill="#4D4D4D" fill-opacity="1.000000" fill-rule="nonzero"/>
			<path id="Vector" d="M828.27 261.46C817.58 237.43 767.18 229.76 744.74 222.4C740.09 230.6 734.46 238.19 727.43 244.61C715.98 255.04 701.59 261.79 686.25 264.02C671.87 266.12 656.94 264.55 643.69 258.43C635.68 254.73 628.14 249.22 622.4 242.3C607.81 249.28 580.49 263.18 571.23 276.19C552.11 303.07 538.34 359.44 538.34 359.44L757.67 375.65L763.45 325.26L834.48 346.72C834.48 346.72 842.23 292.76 828.27 261.45L828.27 261.46Z" fill="#4D4D4D" fill-opacity="1.000000" fill-rule="nonzero"/>
			<path id="Vector" d="M757.44 281.04C756.27 285.34 755.81 289.9 755.12 294.29C754.45 298.58 753.8 302.89 753.15 307.19C751.84 315.84 750.7 324.51 749.57 333.19C749.29 335.33 752.97 335.83 753.37 333.7C754.98 325.04 756.58 316.37 758 307.66C758.71 303.36 759.41 299.08 760.08 294.79C760.77 290.46 761.71 286.04 761.91 281.65C762.04 279.06 758.1 278.59 757.42 281.04L757.44 281.04Z" fill="#414141" fill-opacity="1.000000" fill-rule="nonzero"/>
			<path id="Vector" d="M697.47 507.77C693.74 507.3 690.28 505.15 685.63 503.52C689.4 501.95 692.28 500.42 693.69 499.26C698.54 495.26 627.28 466.68 627.28 466.68C627.28 466.68 599.71 445.24 593.81 440.09C587.91 434.93 607.29 365.69 607.29 365.69C607.29 365.69 549.06 337.01 537.99 359.11C537.99 359.11 518.06 417.32 521.76 461.53C525.28 503.65 593.26 509.58 611.17 510.05L611.17 510.08C611.17 510.08 632.11 511.44 648.77 511.5C655.48 513.77 669.87 518.34 676.17 518.03C684.52 517.61 692.64 517.44 700.16 515.77C707.69 514.1 707.48 509.02 697.46 507.77L697.47 507.77Z" fill="#FCC49A" fill-opacity="1.000000" fill-rule="nonzero"/>
			<path id="Vector" d="M654.14 296.53C654.14 296.53 651.7 287.99 640.65 284.74C629.61 281.51 607.56 314.56 603.01 318.44C598.46 322.33 609.5 330.75 618.59 330.75C627.67 330.75 632.01 309.85 636.54 309.85C641.08 309.85 651.35 313.1 652.65 309.22C653.95 305.33 654.14 296.52 654.14 296.52L654.14 296.53Z" fill="#F6F1F0" fill-opacity="1.000000" fill-rule="nonzero"/>
			<path id="Vector" d="M652.86 305.39C652.86 305.39 636.07 355.68 639.55 375.34C643.02 395 643.02 398.47 636.65 411.76C630.29 425.05 625.94 424.47 625.94 424.47C625.94 424.47 624.48 409.44 611.17 403.07C597.86 396.72 589.75 436.6 589.75 436.6C589.75 436.6 579.91 421.58 572.39 425.05C564.86 428.51 570.65 443.55 575.86 456.84C581.07 470.13 579.33 486.91 589.75 488.06C600.16 489.22 608.28 486.91 614.07 490.95C619.85 495 594.96 542.39 627.96 559.74C650.24 571.46 666.46 568.66 674.63 565.62C676 565.1 675.6 563.04 674.13 563.12C666.01 563.48 649.93 561.32 641.34 556.65C628.61 549.72 623.33 541.25 624.48 523.9C625.64 506.57 635.48 493.84 637.21 493.84C638.95 493.84 659.22 504.24 672.53 505.4C672.53 505.4 670.8 515.8 685.84 514.06C700.89 512.33 720 499.04 732.15 485.73C744.3 472.44 721.74 469.56 714.79 473.6C714.79 473.6 722.06 459.06 724.05 444.69C726.37 427.94 708.43 433.14 704.36 430.82C700.31 428.51 707.83 388.63 718.83 381.12C729.82 373.6 735.61 353.94 735.61 353.94C735.61 353.94 735.03 367.23 739.66 370.12C744.29 373.01 747.76 367.81 754.71 349.3C761.65 330.8 759.33 322.71 752.97 317.51C746.6 312.31 739.66 315.77 736.19 315.77C732.71 315.77 736.19 305.95 741.97 290.33C747.76 274.73 711.29 265.47 711.29 265.47C711.29 265.47 673.08 301.31 652.81 305.36L652.86 305.39Z" fill="#F6F1F0" fill-opacity="1.000000" fill-rule="nonzero"/>
			<path id="Vector" d="M824.66 337C824.66 337 834.31 342.12 834.47 346.73C834.63 351.33 816.97 352.5 809.45 349.32C801.92 346.13 824.66 337 824.66 337Z" fill="#000000" fill-opacity="1.000000" fill-rule="nonzero"/>
			<path id="Vector" d="M689 334.19C689 334.19 678.93 322.46 673.06 304.03C667.2 285.6 662.16 280.57 657.13 285.6C652.09 290.63 654.61 308.21 650.42 309.89C646.22 311.56 639.51 309.04 635.32 309.89C631.13 310.73 618.54 335.86 625.25 342.56C631.96 349.26 624.4 361.83 634.48 366.84C644.55 371.87 638.67 377.73 644.55 381.08C650.43 384.44 655.45 381.93 667.2 384.44C678.94 386.96 746.67 430.81 768.47 432.49C790.27 434.17 808.73 404.02 814.61 382.24C820.47 360.47 824.68 337.01 824.68 337.01C824.68 337.01 763.82 299.48 757.65 325.52C754.35 339.43 754.22 346.23 750.86 352.1C747.49 357.95 689.02 334.2 689.02 334.2L689 334.19Z" fill="#FCC49A" fill-opacity="1.000000" fill-rule="nonzero"/>
			<path id="Vector" d="M757.94 324.24C757.94 324.24 759.8 331.17 759.1 340.78C758.05 355.22 753.38 374.01 747.01 374.37C730.12 375.37 736.2 348.68 737.08 339.14C737.96 329.59 757.94 324.24 757.94 324.24Z" fill="#F6F1F0" fill-opacity="1.000000" fill-rule="nonzero"/>
			<path id="Vector" d="M737.31 335.61C737.27 334.42 736.34 333.4 735.11 333.4C733.81 333.4 733.04 334.42 732.9 335.61C732.56 338.53 732.53 341.49 732.48 344.45C732.42 347.38 732.37 350.33 732.5 353.29C732.54 354.33 733.36 355.22 734.44 355.22C735.59 355.22 736.25 354.33 736.37 353.29C736.73 350.35 736.89 347.4 737.06 344.45C737.22 341.51 737.42 338.56 737.3 335.61L737.31 335.61Z" fill="#DCC2A9" fill-opacity="1.000000" fill-rule="nonzero"/>
			<path id="Vector" d="M642.75 297.52C641.96 297.19 640.74 297.43 640.36 298.3C640.09 298.92 639.89 299.42 639.69 299.88C639.45 300.41 639.22 300.92 638.97 301.44C638.48 302.45 638.06 303.47 637.56 304.47C636.54 306.5 635.42 308.48 634.15 310.34C633.57 311.2 633.96 312.56 634.85 313.04C635.89 313.59 636.9 313.23 637.56 312.34C640.19 308.78 642.74 304.36 643.88 299.78C644.11 298.85 643.66 297.89 642.77 297.52L642.75 297.52Z" fill="#DCC2A9" fill-opacity="1.000000" fill-rule="nonzero"/>
			<path id="Vector" d="M724.72 482.5C724.72 482.5 724.72 482.47 724.72 482.45C724.72 482.2 724.72 481.94 724.66 481.69C724.5 481.11 724.14 480.58 723.74 480.14C723.22 479.58 722.45 479.14 721.72 478.97C720.33 478.64 718.72 478.89 717.53 479.74C716.86 480.22 716.21 480.78 715.85 481.55C715.42 482.44 715.17 483.45 715.26 484.44C715.37 485.58 715.67 486.59 716.21 487.61C716.65 488.42 717.25 489.17 717.89 489.83C718.48 490.43 719.61 490.83 720.44 490.5C721.2 490.2 721.73 489.9 722.36 489.36C722.77 489 723.11 488.54 723.41 488.08C723.91 487.3 724.24 486.39 724.49 485.52C724.66 484.94 724.78 484.36 724.85 483.75C724.89 483.33 724.85 482.91 724.75 482.49L724.72 482.5Z" fill="#EA7674" fill-opacity="1.000000" fill-rule="nonzero"/>
			<path id="Vector" d="M716.71 468.41C710.88 469.45 705.34 472.21 700.18 475.04C697.65 476.43 695.19 477.93 692.82 479.57C690.34 481.25 687.61 483.05 685.59 485.28C684.04 487 686.01 489.81 688.12 488.56C690.58 487.11 692.8 485.19 695.16 483.59C697.56 481.99 700.01 480.47 702.53 479.08C707.56 476.29 712.95 474.27 718.06 471.65C719.95 470.68 718.56 468.1 716.7 468.43L716.71 468.41Z" fill="#4D4D4D" fill-opacity="1.000000" fill-rule="nonzero"/>
			<path id="Vector" d="M596.27 453.01C595.69 450.7 595.09 448.39 594.5 446.08C593.34 441.54 592.14 437.04 590.69 432.57C589.96 430.34 586.79 431.26 587.2 433.52C588.04 438.15 589.11 442.69 590.26 447.25L591.94 453.94C592.5 456.17 592.86 458.75 593.97 460.78C594.92 462.54 597.68 461.7 597.68 459.78C597.68 457.54 596.8 455.19 596.25 453.03L596.27 453.01Z" fill="#DCC2A9" fill-opacity="1.000000" fill-rule="nonzero"/>
			<path id="Vector" d="M577.58 445.58C577.42 444.25 577.06 442.96 576.3 441.85C575.94 441.32 575.53 440.79 575.05 440.36C574.45 439.85 573.67 439.22 572.89 439.02C572.23 438.85 571.59 438.88 570.98 439.11C570.84 439.15 570.7 439.15 570.56 439.21C569.85 439.51 569.43 440.16 569.38 440.89C569.31 441.18 569.23 441.47 569.2 441.77C569.07 442.93 569.42 444.08 570.24 444.89C570.35 445 570.48 445.06 570.59 445.14C571.17 446.64 571.84 448.11 572.68 449.48C573.14 450.22 573.92 450.69 574.78 450.69C575.55 450.69 576.55 450.25 576.88 449.48C577.41 448.24 577.72 446.94 577.55 445.58L577.58 445.58Z" fill="#EA7674" fill-opacity="1.000000" fill-rule="nonzero"/>
			<path id="Vector" d="M578.19 432.29L578.27 432.89C578.22 432.4 578.21 432 577.92 431.58C577.81 431.43 577.7 431.29 577.59 431.15C577.41 430.95 577.17 430.79 576.91 430.72C576.74 430.62 576.56 430.58 576.38 430.58C576.09 430.51 575.81 430.53 575.53 430.61C575.34 430.69 575.11 430.76 574.94 430.87C574.58 431.09 574.34 431.37 574.11 431.72C574.22 431.56 574.34 431.42 574.45 431.26C574.42 431.29 574.4 431.33 574.37 431.34C574.15 431.54 574 431.79 573.9 432.08C573.84 432.23 573.78 432.37 573.72 432.53C573.67 432.65 573.62 432.76 573.58 432.89C573.48 433.15 573.37 433.42 573.31 433.68C573.23 433.95 573.17 434.23 573.09 434.5C573.01 434.78 572.98 435.04 572.93 435.32C572.84 435.62 572.83 435.9 572.9 436.2C572.9 436.5 573 436.76 573.17 437.01C573.28 437.15 573.4 437.31 573.51 437.45C573.72 437.67 573.95 437.81 574.22 437.9C574.39 437.99 574.58 438.04 574.76 438.06C575.06 438.12 575.34 438.1 575.64 438.03C576.17 437.85 576.67 437.53 576.95 437.03C577.3 436.37 577.55 435.7 577.81 435.01C577.91 434.75 578 434.48 578.06 434.21C578.09 434.09 578.13 433.96 578.16 433.84C578.17 433.78 578.19 433.72 578.21 433.65C578.31 433.17 578.33 432.81 578.21 432.33L578.19 432.29Z" fill="#EA7674" fill-opacity="1.000000" fill-rule="nonzero"/>
			<path id="Vector" d="M571.39 434.84C571.31 434.65 571.28 434.46 571.23 434.28C571.23 434.1 571.2 433.95 571.15 433.78C571.12 433.65 571.09 433.53 571.07 433.4C571.07 433.49 571.1 433.57 571.1 433.67C571.1 433.43 571.06 433.21 570.96 433.03C570.88 432.79 570.76 432.6 570.59 432.43C570.46 432.34 570.34 432.25 570.21 432.15C570.01 432.01 569.77 431.95 569.52 431.93C569.37 431.89 569.2 431.89 569.04 431.93C568.79 431.93 568.57 432.01 568.35 432.15C568.23 432.25 568.1 432.34 567.98 432.43C567.74 432.67 567.58 432.93 567.51 433.25C567.46 433.39 567.43 433.51 567.4 433.65C567.35 433.89 567.32 434.12 567.3 434.35C567.29 434.57 567.35 434.82 567.4 435.06C567.43 435.2 567.48 435.34 567.52 435.46C567.63 435.74 567.74 436.02 567.9 436.29C568.02 436.51 568.18 436.68 568.38 436.82C568.57 436.99 568.77 437.1 569.02 437.16C569.2 437.18 569.35 437.21 569.52 437.23C569.79 437.23 570.02 437.18 570.26 437.07C570.42 437.02 570.56 436.95 570.68 436.82C570.88 436.68 571.06 436.51 571.17 436.29C571.23 436.13 571.29 435.99 571.35 435.84C571.45 435.51 571.45 435.17 571.35 434.84L571.39 434.84Z" fill="#EA7674" fill-opacity="1.000000" fill-rule="nonzero"/>
			<path id="Vector" d="M724.38 473.49C724.32 473.22 724.19 472.99 724.02 472.8C723.88 472.58 723.69 472.41 723.44 472.27C723.13 472.08 722.78 471.99 722.41 471.99C722.14 471.99 721.92 471.99 721.63 472.07C721.58 472.07 721.55 472.1 721.5 472.12L721.35 472.12C721.16 472.21 720.99 472.29 720.8 472.37C720.64 472.49 720.48 472.6 720.33 472.72C720.3 472.76 720.27 472.79 720.23 472.82C720.17 472.88 720.13 472.96 720.06 473.02L719.72 473.46C719.56 473.71 719.47 473.97 719.45 474.27C719.41 474.46 719.41 474.66 719.45 474.85C719.45 475.15 719.55 475.41 719.72 475.66C719.83 475.8 719.95 475.96 720.06 476.1C720.2 476.21 720.36 476.33 720.5 476.44C720.75 476.6 721.02 476.69 721.31 476.71C721.61 476.77 721.89 476.75 722.19 476.68C722.22 476.68 722.27 476.66 722.3 476.64C722.53 476.58 722.71 476.49 722.94 476.38C722.99 476.36 723.02 476.35 723.07 476.33C723.07 476.33 723.08 476.33 723.1 476.33C723.13 476.33 723.55 475.99 723.57 475.97C723.64 475.91 723.71 475.83 723.75 475.74C723.75 475.74 723.75 475.72 723.75 475.71C723.88 475.58 723.99 475.46 724.08 475.29C724.19 475.1 724.29 474.82 724.36 474.6C724.46 474.24 724.46 473.88 724.36 473.51L724.38 473.49Z" fill="#EA7674" fill-opacity="1.000000" fill-rule="nonzero"/>
			<path id="Vector" d="M732.12 476.19C731.93 475.86 731.67 475.61 731.35 475.43C731.31 475.4 731.24 475.38 731.2 475.35C731.09 475.3 730.98 475.26 730.85 475.21C730.74 475.16 730.65 475.11 730.54 475.08C730.34 475.05 730.13 475.02 729.93 475.01C729.68 475.01 729.41 475.07 729.15 475.11C729.09 475.11 729.01 475.15 728.95 475.16C728.82 475.21 728.69 475.26 728.57 475.3C728.34 475.4 728.1 475.49 727.88 475.6C727.65 475.71 727.47 475.86 727.27 476.04C727.43 475.93 727.57 475.8 727.73 475.69C727.63 475.75 727.54 475.82 727.44 475.88C727.27 476 727.04 476.16 726.91 476.29C726.77 476.43 726.66 476.58 726.55 476.75C726.47 476.85 726.4 476.93 726.35 477.02C726.3 477.1 726.29 477.16 726.26 477.24C726.22 477.3 726.16 477.35 726.15 477.41C726.04 477.63 725.97 477.86 725.99 478.13C726 478.3 726.04 478.46 726.05 478.63C726.11 478.86 726.22 479.08 726.38 479.25C726.46 479.39 726.57 479.5 726.71 479.58C726.88 479.74 727.1 479.86 727.33 479.91C727.49 479.92 727.66 479.96 727.82 479.97C727.98 479.97 728.12 479.96 728.26 479.91C728.32 479.91 728.38 479.89 728.44 479.88C728.76 479.86 729.07 479.78 729.37 479.72C729.18 479.75 728.98 479.77 728.79 479.8C729.09 479.77 729.38 479.72 729.68 479.66C729.76 479.64 729.84 479.63 729.91 479.63C730.35 479.58 730.74 479.55 731.12 479.28C731.2 479.24 731.26 479.19 731.34 479.14C731.98 478.74 732.4 478.07 732.4 477.3C732.4 476.91 732.31 476.55 732.1 476.22L732.12 476.19Z" fill="#EA7674" fill-opacity="1.000000" fill-rule="nonzero"/>
			<path id="Vector" d="M733.59 481.25C733.39 480.91 733.11 480.63 732.75 480.41C732.73 480.39 732.7 480.38 732.68 480.36C732.5 480.28 732.31 480.2 732.1 480.13C732.1 480.13 732.07 480.13 732.06 480.11L731.42 480.02C731.42 480.02 731.37 480.02 731.34 480.02C731.31 480.02 731.28 480.02 731.24 480.02C731.1 480.02 730.98 480.02 730.84 480.02C730.51 480.02 730.2 480.1 729.87 480.14C729.81 480.14 729.73 480.17 729.66 480.17C729.59 480.17 729.52 480.22 729.45 480.24L729.51 480.2C729.41 480.22 729.3 480.24 729.21 480.25C729.13 480.25 729.07 480.3 729.01 480.33C728.91 480.36 728.82 480.41 728.71 480.44C728.68 480.44 728.65 480.45 728.6 480.47C728.57 480.47 728.54 480.5 728.51 480.5C728.46 480.52 728.41 480.53 728.37 480.56C728.29 480.6 728.21 480.63 728.13 480.67C727.9 480.8 727.71 480.97 727.57 481.19C727.44 481.31 727.37 481.47 727.3 481.63C727.18 481.86 727.12 482.13 727.13 482.41C727.16 482.58 727.18 482.77 727.21 482.94C727.27 483.09 727.35 483.25 727.41 483.42C727.6 483.77 727.93 484.02 728.29 484.19C728.38 484.25 728.48 484.3 728.57 484.33C728.57 484.33 728.6 484.33 728.6 484.34C728.63 484.34 728.66 484.36 728.69 484.37C728.8 484.42 728.91 484.47 729.02 484.52C729.07 484.52 729.13 484.55 729.18 484.55C729.27 484.56 729.38 484.58 729.48 484.59C729.46 484.59 729.45 484.59 729.43 484.58C729.49 484.59 729.55 484.62 729.62 484.64C729.68 484.64 729.76 484.67 729.82 484.67C730.15 484.73 730.48 484.8 730.81 484.81C730.93 484.81 731.06 484.81 731.18 484.81C731.35 484.81 731.53 484.78 731.7 484.77C732.09 484.72 731.98 484.73 732.35 484.58C732.56 484.5 732.59 484.5 732.71 484.41C733.06 484.2 733.34 483.92 733.56 483.56C733.78 483.2 733.87 482.81 733.87 482.39C733.87 481.97 733.76 481.58 733.56 481.22L733.59 481.25Z" fill="#EA7674" fill-opacity="1.000000" fill-rule="nonzero"/>
			<path id="Vector" d="M730.6 488.62C730.6 488.62 730.6 488.59 730.6 488.58C730.57 488.47 730.56 488.44 730.48 488.28C730.46 488.17 730.42 488.09 730.37 488.02C730.34 487.98 730.32 487.95 730.29 487.91C730.29 487.91 730.29 487.87 730.27 487.87C730.12 487.62 729.91 487.42 729.7 487.25C729.68 487.23 729.66 487.22 729.65 487.2C729.65 487.17 729.62 487.14 729.6 487.09C729.48 486.86 729.29 486.66 729.07 486.52C728.95 486.39 728.79 486.3 728.62 486.25C728.37 486.13 728.1 486.06 727.82 486.08L727.27 486.16C727.1 486.22 726.94 486.3 726.77 486.36C726.54 486.48 726.33 486.67 726.19 486.89C726 487.09 725.88 487.33 725.82 487.59C725.79 487.81 725.72 488.11 725.74 488.34C725.74 488.41 725.75 488.48 725.77 488.55C725.77 488.81 725.61 488.37 725.85 489.19C725.91 489.39 726 489.58 726.1 489.76C726.13 489.81 726.15 489.87 726.18 489.92C726.3 490.12 726.46 490.31 726.61 490.5C726.65 490.55 726.69 490.58 726.74 490.62C726.9 490.75 727.04 490.86 727.19 490.98C727.46 491.15 727.73 491.23 728.04 491.25C728.05 491.25 728.08 491.25 728.1 491.25C728.43 491.31 728.79 491.33 729.09 491.23C729.26 491.15 729.43 491.09 729.6 491.01C729.6 491.01 729.62 491.01 729.63 491.01C729.65 491.01 729.66 491 729.68 490.98C729.82 490.87 729.96 490.76 730.09 490.67C730.29 490.48 730.43 490.26 730.51 490.01C730.6 489.86 730.65 489.69 730.65 489.5C730.71 489.23 730.7 488.95 730.62 488.69L730.6 488.62Z" fill="#EA7674" fill-opacity="1.000000" fill-rule="nonzero"/>
			<path id="Vector" d="M788.75 207.72C779.81 200.07 751.06 221.76 742.75 218.56C734.45 215.37 721.03 205.16 714.01 203.25C706.98 201.33 706.34 173.91 695.49 169.44C684.63 164.97 686.67 203.22 682.07 205.8C675.28 209.61 668.92 222.24 665.77 233.16C663.68 236.11 660.36 237.48 659.27 240.61C658.02 244.22 659.58 245.95 659.58 245.95C659.58 245.95 661.47 247.84 662.41 252.07C662.82 253.93 663.18 255.94 663.44 257.61C662.27 262.74 659.81 266.67 657.8 271.51C657.8 271.51 653.14 277.06 666.74 293.21C682.52 311.92 694.5 297.19 700.89 300.39C707.27 303.57 714.01 300.23 738.28 287.47C762.55 274.72 760.63 264.52 765.1 254.3C769.58 244.11 797.68 215.4 788.74 207.75L788.75 207.72Z" fill="#F6F1F0" fill-opacity="1.000000" fill-rule="nonzero"/>
			<path id="Vector" d="M678.16 274.34C677.72 272.31 676.05 271 674.19 270.34C673.38 270.04 669.37 269.51 668.25 269.45C666.29 269.33 664.29 269.34 662.33 269.59C660.64 269.79 659.61 271 659.94 272.73C659.94 272.73 660.63 277.43 663.6 281.21C665.2 283.23 667.24 283.19 669.28 282.57C671 282.04 677.13 278.74 677.69 277.71C678.27 276.68 678.4 275.51 678.15 274.35L678.16 274.34Z" fill="#EA7674" fill-opacity="1.000000" fill-rule="nonzero"/>
			<path id="Vector" d="M668.88 245.2C668.15 243.95 666.91 243.08 665.55 242.61C665.04 242.44 664.46 242.37 663.9 242.37C663.72 242.37 663.57 242.37 663.4 242.39C663.21 242.4 663.02 242.45 662.85 242.5C662.38 242.61 661.91 242.76 661.52 243.03C659.91 244.09 659.27 245.89 659.33 247.76C659.38 249.23 659.63 250.76 660.17 252.13C660.47 252.87 660.77 253.65 661.21 254.32C661.96 255.44 663.05 256.19 664.44 256.19C666.32 256.19 667.48 254.66 668.01 253.02C668.15 252.81 668.31 252.57 668.43 252.32C668.81 251.59 669.17 250.81 669.37 250.01C669.78 248.42 669.73 246.62 668.88 245.18L668.88 245.2Z" fill="#343434" fill-opacity="1.000000" fill-rule="nonzero"/>
			<path id="Vector" d="M722.52 256.86C721.55 254.8 719.07 253.6 716.84 253.74C712.43 254 709.06 257.92 707.45 261.74C706.92 263.02 706.66 264.25 706.89 265.64C707.11 266.9 708.02 268.12 709.14 268.73C711.04 269.76 713.24 269.31 715.09 268.4C715.79 268.25 716.46 267.97 717.07 267.64C717.98 267.14 718.81 266.47 719.62 265.83C720.45 265.17 721.15 264.45 721.8 263.59C723.24 261.64 723.53 259.05 722.5 256.86L722.52 256.86Z" fill="#343434" fill-opacity="1.000000" fill-rule="nonzero"/>
			<path id="Vector" d="M703.28 288.68C697.38 292.83 691.3 297.84 683.59 296.92C681.99 296.74 680.4 296.28 678.99 295.5C677.5 294.67 676.36 293.32 674.78 292.66C673.55 292.14 672.2 292.07 670.89 292.08C669.54 292.08 667.79 292.47 666.77 291.38C665.3 289.79 663.87 291.14 665.23 292.77C667.62 295.61 670.15 294.85 673.14 295.92C674.84 296.55 676.19 298.33 677.86 299.17C679.58 300.03 681.41 300.55 683.32 300.78C691.69 301.81 699.68 297.17 705.78 291.91C707.53 290.39 705.2 287.32 703.28 288.68Z" fill="#DCC2A9" fill-opacity="1.000000" fill-rule="nonzero"/>
			<path id="Vector" d="M698.34 198.11C695.49 198.47 692.64 199.47 689.98 200.53C687.29 201.63 684.68 202.89 682.19 204.39C680.05 205.69 681.99 209.01 684.17 207.75C686.42 206.44 688.75 205.28 691.17 204.34C692.41 203.88 693.64 203.44 694.91 203.05C696.21 202.64 697.55 202.38 698.85 201.95C699.77 201.66 700.42 200.78 700.26 199.8C700.13 198.94 699.31 197.97 698.34 198.1L698.34 198.11Z" fill="#DCC2A9" fill-opacity="1.000000" fill-rule="nonzero"/>
			<path id="Vector" d="M783.65 216.64C782.75 215.09 779.54 216.73 777.98 217.71C769.75 222.88 762.84 226.21 755.19 232.21C753.78 233.31 753.97 235.88 755.19 237.02C756.85 238.56 758.04 240 759.16 241.86C760.12 243.42 762.21 244.01 763.82 243.08C765.39 242.15 766 240 765.04 238.42C764.32 237.23 763.51 236.09 762.62 235.02C769 230.14 772.69 226.27 779.49 221.99C781.04 221.02 784.59 218.26 783.64 216.64L783.65 216.64Z" fill="#DCC2A9" fill-opacity="1.000000" fill-rule="nonzero"/>
			<path id="Vector" d="M637.23 493.84C637.23 493.84 643.05 489.12 649.32 479.74C655.59 470.35 662.88 482.78 659.7 488.22C651.09 503.01 660.78 502.29 660.78 502.29C660.78 502.29 627.34 511.05 637.23 493.84Z" fill="#FCC49A" fill-opacity="1.000000" fill-rule="nonzero"/>
			<path id="Vector" d="M609.61 338.31C607.45 344.51 605.95 350.98 604.49 357.38C603.07 363.63 601.32 370.17 601.02 376.59C600.93 378.65 603.84 378.84 604.46 377.06C606.59 371.03 607.57 364.47 609.03 358.25C610.48 351.96 612.14 345.7 613.33 339.34C613.78 336.92 610.44 335.97 609.61 338.33L609.61 338.31Z" fill="#FCC49A" fill-opacity="1.000000" fill-rule="nonzero"/>
			<path id="Vector" d="M588.54 1220.49C576.75 1218.76 564.86 1218.39 553.01 1219.54C549.77 1219.85 549.74 1224.93 553.01 1224.63C564.38 1223.54 575.89 1223.74 587.2 1225.41C588.57 1225.62 589.92 1225.06 590.34 1223.63C590.68 1222.43 589.92 1220.69 588.56 1220.49L588.54 1220.49Z" fill="#333A74" fill-opacity="1.000000" fill-rule="nonzero"/>
		</g>
		<path id="Vector" d="M481.37 304.55C481.37 304.55 505.28 272.91 473.63 234.06C456.64 213.21 356.53 189.61 356.53 189.61C356.53 189.61 347.24 193.53 336.5 207.8C328.33 214.79 321.31 223.52 315.82 233.37C311.73 240.7 308.5 248.71 306.28 257.01C305.2 261.08 304.36 265.24 303.8 269.46C303.22 273.82 303.6 279.17 301.12 282.83C299.96 284.55 298.49 286 297.2 287.61C295.83 289.31 294.55 291.09 293.33 292.91C291.07 296.28 289.06 299.88 287.34 303.65C283.87 311.26 281.46 319.52 280.28 328C279.08 336.63 279.06 345.31 280.28 353.92C280.88 358.11 281.79 362.24 283.03 366.25C284.4 370.66 286.63 374.79 286.7 379.56C286.8 385.75 286.23 391.95 286.36 398.15C286.48 404.1 286.95 410.09 288.06 415.9C290.04 426.35 294.32 436.48 301.34 443.72C304.07 446.54 308.15 441.93 305.4 439.09C292.17 425.44 291.59 403.77 292.3 384.88C292.49 379.74 292.41 375.2 290.64 370.4C289.2 366.47 287.87 362.56 286.95 358.42C285.2 350.54 284.72 342.39 285.34 334.31C286.59 317.95 292.72 302.21 302.77 290.43C305.83 286.84 307.98 283.4 308.6 278.33C309.13 274.04 309.44 269.77 310.26 265.52C311.79 257.57 314.28 249.9 317.66 242.71C318.53 240.88 319.45 239.08 320.42 237.32C307.96 269.37 314.32 289.74 314.32 289.74C314.32 289.74 292.86 308.56 292.51 334.6C292.17 360.64 299.2 372.25 299.2 372.25C299.2 372.25 285.56 421.17 331.9 444.74C368.12 463.16 404.35 439.53 404.35 439.53C404.35 439.53 427.31 453.46 448.65 442.34C477.83 427.12 476.78 383.47 476.78 383.47C476.78 383.47 492.23 373.88 496.04 349.44C501.42 314.92 481.34 304.56 481.34 304.56L481.37 304.55Z" fill="#F1404C" fill-opacity="1.000000" fill-rule="nonzero"/>
		<path id="Vector" d="M542.57 653.85C544.1 659.04 594.18 809.45 606.32 856.14C618.46 902.82 572.93 1096.46 572.93 1096.46C572.93 1096.46 579.05 1116.75 592.71 1151.32C606.37 1185.9 542.61 1204.92 536.55 1189.36C530.47 1173.8 529.47 1117.97 532.02 1098.85C541 1031.66 528.27 932.61 540.81 900.96C542.82 895.87 495.52 838.84 483.38 754.13C471.24 669.42 542.59 653.85 542.59 653.85L542.57 653.85Z" fill="#FCC49A" fill-opacity="1.000000" fill-rule="nonzero"/>
		<path id="Vector" d="M572.94 1096.44C572.94 1096.44 579.63 1068 587.2 1030.31C580.65 1032.31 573.85 1033.28 567 1032.92C558.07 1032.47 549 1029.97 540.81 1025.91C539.01 1025.03 537.23 1024.02 535.52 1022.87C535.65 1049.28 535.1 1075.92 532.05 1098.86C529.49 1117.96 530.5 1173.8 536.57 1189.36C542.65 1204.92 606.4 1185.91 592.74 1151.32C579.07 1116.75 572.96 1096.46 572.96 1096.46L572.94 1096.44Z" fill="#E3EBF4" fill-opacity="1.000000" fill-rule="nonzero"/>
		<path id="Vector" d="M592.71 1151.31C579.05 1116.74 572.93 1096.43 572.93 1096.43C572.93 1096.43 573.86 1102.25 574.49 1109.68C571.38 1103.22 568.28 1100.87 564.26 1100.56C558.69 1100.18 543.04 1096.61 541.65 1110.87C540.8 1119.66 538.34 1120.78 536.6 1120.34C534.76 1110.19 533.21 1099.81 532.5 1094.8C532.34 1096.15 532.2 1097.52 532.02 1098.84C529.47 1117.93 530.47 1173.78 536.55 1189.34C542.63 1204.9 606.37 1185.89 592.71 1151.31Z" fill="#882229" fill-opacity="1.000000" fill-rule="nonzero"/>
		<path id="Vector" d="M371.53 746.16C394.09 938.93 429.65 1164.69 430.69 1173.03C431.74 1181.38 419.51 1204.61 411.13 1220.1C402.76 1235.59 406.05 1239.1 441.69 1239.25C484.57 1239.42 485.69 1237.56 485.1 1225.44C484.76 1218.68 479.29 1196.37 475.67 1164.98C473 1141.94 475.06 1113.19 474.18 1089.01C472.09 1031.81 474.88 969.71 460.01 928.76C460.01 928.76 457.92 770.29 442.23 735.73C426.54 701.17 368.78 722.46 371.55 746.15L371.53 746.16Z" fill="#FCC49A" fill-opacity="1.000000" fill-rule="nonzero"/>
		<path id="Vector" d="M475.67 1164.99C473.59 1147.02 474.38 1125.56 474.42 1105.49C474.19 1105.63 473.95 1105.77 473.72 1105.9C461.4 1112.62 447.07 1115.04 433.51 1114.09C429.53 1113.81 425.51 1113.24 421.53 1112.28C426.89 1147.89 430.38 1170.5 430.71 1173.03C431.75 1181.38 419.52 1204.61 411.15 1220.1C402.78 1235.57 406.06 1239.1 441.7 1239.24C484.58 1239.42 485.71 1237.56 485.11 1225.43C484.78 1218.68 479.31 1196.36 475.68 1164.98L475.67 1164.99Z" fill="#E3EBF4" fill-opacity="1.000000" fill-rule="nonzero"/>
		<path id="Vector" d="M485.1 1225.46C484.8 1219.47 480.48 1201.23 476.96 1175.29C475.17 1178.81 473.42 1183.41 470.59 1187.65C469.89 1188.69 468.91 1189.87 467.73 1191.12C463.21 1193.68 462.26 1179.6 461.62 1176.67C460.92 1173.5 452.58 1170.72 442.47 1172.71C434.55 1174.27 431.62 1176.22 430.73 1177C430.73 1176.97 430.73 1176.93 430.73 1176.93L430.5 1177.19C430.42 1177.29 430.38 1177.34 430.38 1177.34C428.38 1187.71 418.35 1206.77 411.14 1220.1C402.76 1235.59 406.05 1239.1 441.69 1239.24C484.57 1239.42 485.69 1237.56 485.1 1225.44L485.1 1225.46Z" fill="#882229" fill-opacity="1.000000" fill-rule="nonzero"/>
		<path id="Vector" d="M552.03 596.03C541.04 571.81 531.81 547.94 526.53 534.37C526.53 534.34 526.55 534.31 526.55 534.27C524.59 528.14 522.99 516.86 529.11 520.53C533.52 523.17 536.76 528.98 553.26 534.8C578.75 543.79 590.89 522.56 593.82 505.29C596.75 488.04 588.93 456.86 570.36 436.81C554.78 420 531.63 397.7 524.59 390.97C509.47 370.98 492.92 351.92 483.77 350.38C452.79 345.18 431.47 341.26 431.47 341.26L357.67 358.24C357.67 358.24 323.94 378.48 314.05 385.58C305.25 391.89 266.96 474.17 258.6 492.29C258.35 492.57 258.16 492.83 258.06 493.05C254.15 501.4 247.31 513.65 240.46 524.78C233.62 535.91 219.18 590.51 227.49 616.66C235.8 642.83 254.15 649.47 275.16 637.78C296.18 626.08 307.91 593.24 307.91 593.24C307.91 593.24 326.89 551.02 340.73 550.24C344.79 562.79 348.38 579.06 350.34 600C356.88 670 345.14 859.8 345.14 859.8C345.14 859.8 392.22 885.12 472 871.72C551.77 858.31 615.58 811.57 637.83 805.6C637.83 805.6 574.89 646.32 552.06 596.02L552.03 596.03Z" fill="#FF6699" fill-opacity="1.000000" fill-rule="nonzero"/>
		<path id="Vector" d="M466.33 849.95C521.58 840.67 569.18 815.47 600.66 798.8C612.78 792.38 622.69 787.14 629.51 784.71C629.12 783.74 628.73 782.76 628.32 781.73C621.31 784.27 611.48 789.47 599.44 795.83C568.11 812.42 520.76 837.51 465.9 846.72C404.2 857.1 361.85 843.99 346.38 837.83C346.32 838.99 346.25 840.12 346.2 841.21C358.17 845.88 383.98 853.85 420.8 853.85C434.5 853.85 449.72 852.75 466.33 849.95Z" fill="#3E1A62" fill-opacity="1.000000" fill-rule="nonzero"/>
		<path id="Vector" d="M328.49 519.78C320.79 509.02 309.43 501.6 297.34 499.65C284.56 497.58 271.28 501.25 260.84 509.98C259.59 511.02 258.97 512.81 259.81 514.46C260.53 515.86 262.48 516.68 263.75 515.64C273.06 507.85 284.89 504.13 296.39 506.06C307.41 507.91 317.42 514.61 324.44 524.41C325.42 525.78 327.48 525.57 328.5 524.41C329.69 523.06 329.48 521.16 328.5 519.78L328.49 519.78Z" fill="#3E1A62" fill-opacity="1.000000" fill-rule="nonzero"/>
		<path id="Vector" d="M335.84 448.28C335.79 444.07 330.05 444.06 330.1 448.28C330.38 473.21 331.11 498.13 332.25 523.03C332.45 527.21 338.19 527.24 337.99 523.03C336.85 498.13 336.12 473.2 335.84 448.28Z" fill="#3E1A62" fill-opacity="1.000000" fill-rule="nonzero"/>
		<path id="Vector" d="M486.92 351.45C485.8 350.92 484.75 350.56 483.78 350.38C480.4 354.2 477.15 358.17 474.04 362.27C469.82 367.84 465.88 373.64 462.17 379.67C461.11 381.4 463.6 383.03 464.65 381.31C471.24 370.6 478.71 360.59 486.92 351.44L486.92 351.45Z" fill="#3E1A62" fill-opacity="1.000000" fill-rule="nonzero"/>
		<path id="Vector" d="M347.21 412.7C348.86 413.64 350.32 410.82 348.65 409.88C336.51 403 324.8 393.99 312.44 387.13C311.87 387.81 311.22 388.64 310.54 389.63C323.09 396.49 334.96 405.76 347.21 412.7Z" fill="#3E1A62" fill-opacity="1.000000" fill-rule="nonzero"/>
		<path id="Vector" d="M373.69 380.46C364.74 376.86 355.52 371.92 349.86 362.94C349.06 363.43 348.23 363.94 347.34 364.47C353.37 374.18 362.99 379.62 372.69 383.52C374.43 384.22 375.44 381.15 373.69 380.44L373.69 380.46Z" fill="#3E1A62" fill-opacity="1.000000" fill-rule="nonzero"/>
		<path id="Vector" d="M439.5 342.71C437 352.79 431.41 361.52 424.13 367.96C420 371.62 415.33 374.5 410.48 376.72C405.29 379.08 399.55 381.17 393.91 381.01C392.06 380.95 391.97 384.22 393.83 384.27C399.72 384.44 405.6 382.37 411.03 379.96C416.24 377.64 421.17 374.6 425.63 370.75C433.6 363.89 439.77 354.22 442.37 343.23C441.35 343.05 440.41 342.87 439.52 342.71L439.5 342.71Z" fill="#3E1A62" fill-opacity="1.000000" fill-rule="nonzero"/>
		<path id="Vector" d="M368.66 368.75C382.87 375.73 400.22 373.89 413.6 365.47C421.44 360.54 428.54 353.19 431.06 343.12C431.21 342.51 431.35 341.89 431.48 341.26C429.37 340.67 427.24 339.88 424.76 338.76C419.77 337.77 421.42 315.12 419.29 306.81C415.75 293.03 362.56 310.4 362.56 310.4C362.56 310.4 369.41 349.66 357.75 358.27C359.41 362.49 365.32 367.12 368.65 368.75L368.66 368.75Z" fill="#FCC49A" fill-opacity="1.000000" fill-rule="nonzero"/>
		<path id="Vector" d="M420.72 329.56L365.35 316.64C361.05 362.33 406.22 379.11 420.72 329.56Z" fill="#1A1A1A" fill-opacity="1.000000" fill-rule="nonzero"/>
		<path id="Vector" d="M359.94 198.16C364.52 187.2 374.75 170.8 409.33 177.84C443.91 184.88 457.03 209.75 458.88 225.61C460.74 241.46 456.07 255.34 456.07 255.34L455.7 257C455.7 257 455.66 257 455.59 257C448.74 280.57 434.47 316.2 421.97 328.79C408.09 342.78 388.15 350.25 364.84 331.87C342.09 313.91 346 253.28 348.92 240.04C349.41 237.81 349.97 235.34 350.54 232.74C351.7 224.05 355.8 208.08 359.93 198.16L359.94 198.16Z" fill="#FCC49A" fill-opacity="1.000000" fill-rule="nonzero"/>
		<path id="Vector" d="M447.47 271.28C447.47 271.28 457.49 270.13 458.81 282.58C460.12 295.03 443.98 316.86 434.02 314C424.31 311.21 447.48 271.27 447.48 271.27L447.47 271.28Z" fill="#FCC49A" fill-opacity="1.000000" fill-rule="nonzero"/>
		<g opacity="0.600000">
			<path id="Vector" d="M396.79 288C397.07 287.08 397.81 286.41 398.63 286.19C400.04 285.81 401.43 285.44 402.84 285.06C403.5 284.89 404.22 284.96 404.79 285.37C407.1 287.09 406.13 290.44 404.09 290.98C402.7 291.35 401.32 291.73 399.92 292.1C398.03 292.62 395.99 290.6 396.79 287.99L396.79 288Z" fill="#C8513A" fill-opacity="1.000000" fill-rule="nonzero"/>
		</g>
		<path id="Vector" d="M386.43 244.96C387.43 244.46 388.2 243.42 388.29 242.21C388.42 240.55 387.23 239.25 385.64 239.28C385.27 239.28 376.3 239.48 367.66 244.15C366.17 244.95 365.48 246.77 366.1 248.22C366.71 249.68 368.4 250.27 369.89 249.43C377.23 245.51 385.07 245.29 385.15 245.29C385.6 245.29 386.03 245.17 386.42 244.96L386.43 244.96Z" fill="#F1404C" fill-opacity="1.000000" fill-rule="nonzero"/>
		<path id="Vector" d="M430.18 255.61C429.52 254.61 429.3 253.28 429.74 252.19C430.33 250.68 431.93 250.19 433.31 251.1C433.64 251.32 441.36 256.51 446.89 265.38C447.83 266.9 447.66 268.88 446.49 269.81C445.32 270.73 443.6 270.31 442.67 268.74C437.96 261.23 431.21 256.64 431.15 256.6C430.76 256.35 430.44 256 430.18 255.61Z" fill="#F1404C" fill-opacity="1.000000" fill-rule="nonzero"/>
		<g opacity="0.710000">
			<path id="Vector" d="M445.92 284.92C447.58 285.39 447.98 291.54 447.57 293.44C447.16 295.34 440.91 299.58 440.91 299.58C440.91 299.58 444.27 284.45 445.93 284.92L445.92 284.92Z" fill="#D76A3C" fill-opacity="1.000000" fill-rule="nonzero"/>
		</g>
		<path id="Vector" d="M351.85 243.2C351.85 243.2 343.5 236.77 337.17 247.03C330.82 257.29 335.88 283.25 345.84 286.12C355.55 288.91 351.85 243.2 351.85 243.2Z" fill="#FCC49A" fill-opacity="1.000000" fill-rule="nonzero"/>
		<g opacity="0.710000">
			<path id="Vector" d="M347.53 256.04C345.86 255.57 342.95 260.76 342.54 262.65C342.12 264.55 345.84 271.65 345.84 271.65C345.84 271.65 349.19 256.51 347.53 256.03L347.53 256.04Z" fill="#D76A3C" fill-opacity="1.000000" fill-rule="nonzero"/>
		</g>
		<path id="Vector" d="M382.76 301.39L415.51 309.95C415.51 309.95 407.99 324.02 396.18 324.63C384.38 325.25 382.76 301.4 382.76 301.4L382.76 301.39Z" fill="#FFFFFF" fill-opacity="1.000000" fill-rule="nonzero"/>
		<path id="Vector" d="M385.77 265.48C385.76 265.34 385.72 265.2 385.68 265.06C385.68 265.03 385.68 265.01 385.65 264.98C385.65 264.95 385.65 264.92 385.64 264.89C385.56 264.64 385.47 264.37 385.37 264.12C385.33 264.02 385.31 263.92 385.25 263.8C385.07 263.42 384.84 263.07 384.57 262.79C384.08 262.26 383.61 261.96 382.98 261.71C382.04 261.35 380.93 261.58 380.08 262.12C379.76 262.33 379.45 262.6 379.2 262.92C378.78 263.48 378.51 263.96 378.3 264.68C378.3 264.71 378.29 264.73 378.27 264.76C378.21 265.05 378.17 265.4 378.16 265.7C378.16 265.87 378.16 266.06 378.18 266.25C377.99 266.75 377.9 267.19 377.89 267.81C377.89 267.84 377.89 267.87 377.89 267.89C377.9 268.14 377.95 268.55 377.99 268.8C378.04 269.12 378.24 269.54 378.33 269.77C378.48 270.12 378.71 270.43 378.93 270.71C378.97 270.76 379.02 270.81 379.07 270.85C379.29 271.06 379.53 271.29 379.78 271.47C380.09 271.68 380.43 271.84 380.78 271.94C381.06 272.03 381.38 272.06 381.68 272.09C381.76 272.09 381.83 272.09 381.91 272.09C382.62 272.03 383 271.93 383.63 271.56C383.96 271.37 384.26 271.09 384.53 270.79C384.58 270.74 384.63 270.68 384.67 270.6C384.85 270.34 385.06 270.09 385.2 269.79C385.4 269.43 385.54 269 385.65 268.59C385.77 268.18 385.8 267.69 385.85 267.28C385.86 267.11 385.87 266.93 385.87 266.74C385.87 266.31 385.8 265.86 385.73 265.45L385.77 265.48Z" fill="#1A1A1A" fill-opacity="1.000000" fill-rule="nonzero"/>
		<path id="Vector" d="M431.36 276.66C431.35 276.57 431.31 276.47 431.29 276.36C431.26 276.25 431.25 276.13 431.21 276.03C431.11 275.63 430.94 275.22 430.8 274.85C430.73 274.7 430.68 274.54 430.6 274.41C430.25 273.78 429.93 273.43 429.4 273C428.94 272.63 428.27 272.43 427.7 272.43C427.03 272.43 426.62 272.6 426.02 272.91C425.97 272.94 425.92 272.97 425.87 273C425.67 273.15 425.43 273.37 425.25 273.54C425.21 273.57 425.18 273.62 425.15 273.65C424.9 273.93 424.67 274.25 424.51 274.6C424.44 274.76 424.37 274.97 424.31 275.13C424.24 275.32 424.15 275.51 424.1 275.72C424 276.11 423.97 276.56 423.93 276.95C423.91 277.25 423.96 277.51 423.98 277.8C423.98 277.89 424.01 278 424.02 278.08C424.02 278.16 424.02 278.23 424.02 278.29C424.05 278.7 424.09 279.19 424.22 279.6C424.32 279.89 424.41 280.21 424.55 280.49C424.68 280.76 424.98 281.14 425.07 281.26C425.27 281.55 425.58 281.79 425.86 281.99C426.42 282.46 427.12 282.61 427.79 282.68C428.4 282.74 429.18 282.51 429.7 282.11C430.2 281.73 430.59 281.32 430.9 280.73C431.05 280.45 431.14 280.11 431.25 279.8C431.27 279.71 431.3 279.64 431.31 279.54C431.39 279.14 431.43 278.72 431.45 278.3C431.45 278.13 431.45 277.97 431.45 277.79C431.45 277.77 431.45 277.76 431.45 277.75C431.45 277.38 431.43 277 431.36 276.63L431.36 276.66Z" fill="#1A1A1A" fill-opacity="1.000000" fill-rule="nonzero"/>
		<path id="Vector" d="M330.53 256.09C330.53 256.09 341.78 260.1 359.36 241.27C376.95 222.45 375.54 205.62 380.45 206.43C385.38 207.24 387.49 232.06 404.01 237.28C420.54 242.48 427.22 239.69 427.22 239.69C427.22 239.69 436.37 254.91 448.32 258.51C448.32 258.51 449.03 282.14 458.16 291.35C467.31 300.57 477.15 260.92 473.98 236.48C470.82 212.05 458.51 189.62 435.3 176.81C412.09 163.99 388.53 173.6 388.53 173.6C388.53 173.6 372.66 169.42 361.1 176.81C332.27 195.23 330.51 256.1 330.51 256.1L330.53 256.09Z" fill="#F1404C" fill-opacity="1.000000" fill-rule="nonzero"/>
		<path id="Vector" d="M400.46 385.6C400.46 385.6 351.08 411.73 341.12 418.55C331.16 425.35 316.72 471.28 308.75 479.23C300.77 487.17 321.2 493.41 331.65 484.33C342.1 475.25 350.07 446.33 354.06 444.63C358.04 442.92 379.91 442.19 390.86 432.55C401.82 422.91 400.45 385.6 400.45 385.6L400.46 385.6Z" fill="#5E6466" fill-opacity="1.000000" fill-rule="nonzero"/>
		<path id="Vector" d="M373.66 439.28C372.75 437.56 371.69 435.96 370.64 434.36C370.08 433.52 369.53 432.69 368.97 431.85C368.42 431 367.86 429.6 367.15 428.92C366.41 428.22 365.35 428.78 364.48 427.92C363.37 426.84 363.22 424.3 363.52 422.77C364.13 419.61 366.71 417.58 368.25 414.96C365.58 414.35 362.9 413.69 360.35 412.54C359.5 412.16 359.19 411.29 359.57 410.34C360.1 408.97 360.82 407.73 361.64 406.57C352.55 411.61 344.52 416.21 341.11 418.54C331.15 425.34 316.71 471.27 308.74 479.22C300.76 487.16 321.19 493.4 331.64 484.32C342.09 475.24 350.06 446.32 354.05 444.62C356.43 443.6 365.21 442.93 374.22 440.49C374.03 440.08 373.85 439.67 373.63 439.27L373.66 439.28Z" fill="#2A2D2E" fill-opacity="1.000000" fill-rule="nonzero"/>
		<path id="Vector" d="M509.61 499.99C496.23 498.38 502.88 502.98 498.72 455.95C494.57 408.91 496.1 380.09 506.86 352.98C517.62 325.87 520.93 354.28 525.93 336.63C528.05 329.19 528.67 322.05 528.13 315.29C533.31 299.54 545.65 271.46 534.61 269.68C525.8 268.27 510.31 276 502.68 280.21C492.16 277.57 479.07 276.83 468.7 277.51C464.22 266.28 457.05 256.91 452.83 264.92C449.12 271.99 444.99 281.01 442.24 286.81C437.74 290.75 434.85 295.19 430.99 298.61C423.22 305.5 425.66 315.42 428.34 328.19C431.04 340.95 432.36 352.42 428.02 362.37C428.02 362.37 420.99 363.9 400.45 385.6C379.91 407.31 371.65 425.6 375.09 455.09C377.02 471.68 382.83 495.95 387.86 516.97C366.65 508.01 379.76 547.19 374.6 546.08C371.26 545.38 367.66 545.91 363.81 547.3C354.02 550.86 352.25 567.86 354.53 573.27C356.82 578.68 363.5 572.52 368.36 584.58C373.23 596.65 383.98 639.95 395.47 647.08C406.98 654.21 408.86 634.35 419.64 624.35C430.41 614.34 433.62 623.05 445.52 620.83C457.4 618.62 442.39 679.7 437.1 695.29C431.82 710.88 424.68 763.02 430.65 791.83C436.63 820.65 448.12 819.23 453.22 825.6C458.31 831.98 465.22 812 467.86 799.52C470.52 787.04 473.47 784.75 470.51 760.99C467.55 737.23 462.92 693.01 467.57 666.8C472.21 640.58 476.27 628.59 476.27 628.59C476.27 628.59 483.28 640.77 494.67 624.27C506.06 607.78 517.73 567.29 520.45 562.14C523.16 557 522 559.38 522 559.38C522 559.38 527.84 556.43 528.28 545.47C528.55 538.97 524.34 534.37 519.58 532.15C516.32 530.62 522.96 501.62 509.59 500L509.61 499.99Z" fill="#5E6466" fill-opacity="1.000000" fill-rule="nonzero"/>
		<path id="Vector" d="M467.59 666.78C470.65 649.52 473.45 638.45 475.01 632.9C471.99 631.05 467.67 629.03 465.51 633.09C464.82 634.41 463.2 634.35 462.5 633.09C461.19 630.78 459.81 628.43 457.99 626.61C457.17 625.79 456.01 624.77 454.83 624.98C453.44 625.23 452.41 626.95 451.74 628.2C451.04 629.47 450.48 630.83 449.98 632.21C449.54 650.19 440.89 684.23 437.13 695.31C431.84 710.9 424.71 763.03 430.68 791.85C436.65 820.67 448.15 819.24 453.25 825.62C458.34 832 465.24 812.01 467.89 799.54C470.55 787.06 473.5 784.77 470.53 761.01C467.58 737.25 462.95 693.03 467.59 666.81L467.59 666.78Z" fill="#2A2D2E" fill-opacity="1.000000" fill-rule="nonzero"/>
		<path id="Vector" d="M534.64 269.69C525.83 268.28 510.33 276.01 502.71 280.23C492.18 277.58 479.1 276.85 468.73 277.52C464.25 266.3 457.08 256.92 452.86 264.93C449.14 272 445.01 281.02 442.27 286.82C437.76 290.76 434.87 295.2 431.02 298.63C423.25 305.52 425.69 315.44 428.37 328.21C431.07 340.96 432.38 352.44 428.05 362.39C428.05 362.39 421.02 363.91 400.48 385.62C379.94 407.32 371.68 425.62 375.11 455.11C377.05 471.7 382.85 495.96 387.89 516.99C366.68 508.02 379.78 547.2 374.62 546.1C371.28 545.39 367.68 545.92 363.84 547.32C354.04 550.87 352.28 567.87 354.56 573.28C356.84 578.69 363.53 572.53 368.39 584.6C373.26 596.66 384 639.96 395.5 647.09C407.01 654.22 408.89 634.37 419.66 624.36C430.43 614.35 433.65 623.07 445.54 620.85C447.98 620.39 449.28 622.6 449.77 626.53C450.83 624.26 452.26 622.39 454.33 621.82C458.29 620.71 461.7 625.05 464.07 628.74C467.17 625.31 471.76 626.26 476.25 628.81C476.29 628.68 476.31 628.61 476.31 628.61C476.31 628.61 476.4 628.77 476.57 629.02C478.4 630.09 480.21 631.41 481.89 632.81C485.02 633.46 489.4 632 494.71 624.3C506.1 607.81 517.77 567.32 520.49 562.17C523.2 557.03 522.04 559.41 522.04 559.41C522.04 559.41 527.88 556.46 528.32 545.49C528.59 539 524.38 534.4 519.62 532.18C516.36 530.65 523 501.65 509.62 500.03C496.25 498.43 502.89 503.03 498.74 455.99C494.58 408.95 493.64 415.39 504.4 388.28C515.16 361.17 520.94 354.32 525.96 336.67C528.07 329.23 528.69 322.09 528.15 315.33C533.34 299.58 545.67 271.5 534.64 269.72L534.64 269.69Z" fill="#5E6466" fill-opacity="1.000000" fill-rule="nonzero"/>
		<path id="Vector" d="M470.13 757.76C469.27 758.01 468.39 758.2 467.46 758.32C459.4 759.23 452.16 753.67 446.79 747.31C443.09 750.66 438.99 748.13 436 744.43C434.03 746.63 431.42 748.04 429.05 746.34C427.96 762.64 428.09 779.42 430.67 791.83C436.64 820.65 448.14 819.22 453.23 825.6C458.33 831.98 465.23 811.99 467.88 799.52C470.53 787.04 473.49 784.75 470.52 760.99C470.39 759.96 470.26 758.87 470.12 757.77L470.13 757.76Z" fill="#1A1A1A" fill-opacity="1.000000" fill-rule="nonzero"/>
		<path id="Vector" d="M439.43 375.15C439.43 375.15 457.84 378.65 473.93 385.56C488.5 391.82 496.72 398.24 497.42 398.52C498.13 398.78 510.54 410.96 512.18 438.77C513.82 466.57 484.71 448.13 473.91 433.15C463.11 418.18 453.26 408.82 448.33 408.02C443.4 407.23 431.9 374.36 439.41 375.15L439.43 375.15Z" fill="#2A2D2E" fill-opacity="1.000000" fill-rule="nonzero"/>
		<path id="Vector" d="M435.65 348.1C435.65 348.1 425.71 326.19 426.02 312.31C426.34 298.44 436.6 288.93 445.26 286.02C453.91 283.1 456.48 295.15 462.89 295.88C469.31 296.61 474.12 288.21 486.62 290.77C499.12 293.32 499.12 324.73 494.63 336.79C490.14 348.84 451.35 371.48 435.63 348.1L435.65 348.1Z" fill="#2A2D2E" fill-opacity="1.000000" fill-rule="nonzero"/>
		<path id="Vector" d="M438.95 318.53C438.95 318.53 428.62 309.31 431.56 305.21C434.5 301.12 451.7 305.47 455.84 309.47C459.98 313.45 438.96 318.53 438.96 318.53L438.95 318.53Z" fill="#1A1A1A" fill-opacity="1.000000" fill-rule="nonzero"/>
		<path id="Vector" d="M442.87 291.79C442.59 291.4 442.19 291.18 441.79 291C441.67 290.96 441.57 290.91 441.45 290.9C441.22 290.85 440.99 290.81 440.76 290.82C440.28 290.87 439.81 291.01 439.4 291.31C438.72 291.81 438.23 292.56 437.81 293.35C437.62 293.73 437.43 294.14 437.35 294.59C437.21 295.36 437.32 296.14 437.83 296.73C438.69 297.73 440.03 297.3 440.99 296.73C441.36 296.51 441.7 296.23 441.99 295.92C442.03 295.91 442.08 295.89 442.12 295.88C442.92 295.45 443.45 294.51 443.46 293.51C443.46 292.87 443.25 292.29 442.88 291.81L442.87 291.79Z" fill="#2C4A5F" fill-opacity="1.000000" fill-rule="nonzero"/>
		<path id="Vector" d="M487.64 301.96C487.43 300.8 486.34 300.04 485.41 299.74C484.56 299.48 483.69 299.57 482.88 299.92C482.48 299.86 482.08 299.98 481.76 300.33C481.2 300.96 480.61 301.64 480.26 302.46C479.86 303.4 479.69 304.45 479.98 305.46C480.27 306.49 480.94 307.4 481.9 307.68C482.89 307.96 483.93 307.55 484.79 306.99C485.45 306.56 486.07 305.99 486.53 305.3C487.18 304.37 487.85 303.2 487.63 301.95L487.64 301.96Z" fill="#2C4A5F" fill-opacity="1.000000" fill-rule="nonzero"/>
		<path id="Vector" d="M534.64 269.69C525.83 268.28 510.33 276.01 502.71 280.23C512.76 294.67 532.29 279.21 532.76 281.02C534.16 286.44 528.29 317.21 528.15 315.3C533.34 299.55 545.67 271.47 534.64 269.69Z" fill="#2A2D2E" fill-opacity="1.000000" fill-rule="nonzero"/>
		<path id="Vector" d="M520.44 287.41C519.48 285.71 515.7 288.94 516.66 290.66C521 298.45 525.43 306.49 526.65 315.79C526.91 317.79 529.57 316.93 529.31 314.95C528.06 305.41 524.9 295.41 520.44 287.41Z" fill="#1A1A1A" fill-opacity="1.000000" fill-rule="nonzero"/>
		<path id="Vector" d="M452.86 264.92C449.85 270.63 446.59 277.6 444 283.14C445.47 282.51 448.5 277.69 449.43 276.08C459.15 259.32 457.94 279.05 461.71 278.44C465.83 277.76 468.73 277.5 468.73 277.5C464.25 266.27 457.08 256.89 452.86 264.9L452.86 264.92Z" fill="#2A2D2E" fill-opacity="1.000000" fill-rule="nonzero"/>
		<path id="Vector" d="M477 276.23C467.95 275.07 461.46 274.23 452.7 277.04C451 277.58 450.36 281.36 452.07 280.8C460.61 278.07 469.49 277.26 478.3 278.39C480.06 278.61 478.74 276.45 477 276.23Z" fill="#1A1A1A" fill-opacity="1.000000" fill-rule="nonzero"/>
		<path id="Vector" d="M385.69 406.15C376.49 418.73 371.96 435.3 373.6 451.61C373.9 454.6 375.86 454.8 375.55 451.79C374.04 436.76 380.08 421.14 388.61 409.48C390.3 407.16 387.38 403.81 385.68 406.15L385.69 406.15Z" fill="#1A1A1A" fill-opacity="1.000000" fill-rule="nonzero"/>
		<path id="Vector" d="M463.28 613.75C463.18 613.35 463.01 613 462.75 612.71L460.6 610.36C460.41 610.12 460.19 609.96 459.93 609.87C459.68 609.72 459.41 609.65 459.13 609.67C458.84 609.67 458.57 609.72 458.33 609.87C458.07 609.96 457.85 610.14 457.66 610.36C457.3 610.81 457.03 611.4 457.05 612.02C457.08 612.22 457.1 612.43 457.13 612.65C457.23 613.05 457.4 613.4 457.66 613.69C458.38 614.47 459.1 615.26 459.81 616.04C460.01 616.28 460.23 616.44 460.48 616.53C460.73 616.67 461 616.75 461.28 616.73C461.57 616.73 461.84 616.67 462.08 616.53C462.34 616.44 462.56 616.26 462.75 616.04C463.12 615.59 463.39 615 463.36 614.38C463.33 614.18 463.31 613.97 463.28 613.75Z" fill="#1A1A1A" fill-opacity="1.000000" fill-rule="nonzero"/>
		<path id="Vector" d="M510.31 531.07C504.14 533.18 501.68 541.19 501.68 541.19C501.68 541.19 501.73 539.59 501.77 536.68C498.89 542.76 495.66 550.39 491.45 559.32C479.33 584.94 470.54 611.18 476.16 629.02C476.25 628.75 476.3 628.58 476.3 628.58C476.3 628.58 483.3 640.76 494.7 624.26C506.09 607.77 517.75 567.27 520.47 562.13C523.18 556.99 522.02 559.37 522.02 559.37C522.02 559.37 527.87 556.41 528.31 545.45C528.76 534.49 516.47 528.95 510.31 531.07Z" fill="#2A2D2E" fill-opacity="1.000000" fill-rule="nonzero"/>
		<path id="Vector" d="M406.64 643.98C406.59 640.53 405.84 636.38 404.09 631.37C394.45 603.92 389.05 584.7 390.26 570.98C391.28 559.34 385.14 550.33 377.28 546.95C373.2 545.16 368.73 545.54 363.84 547.32C354.04 550.88 352.28 567.88 354.56 573.28C356.84 578.69 363.53 572.54 368.39 584.6C373.26 596.66 384 639.97 395.5 647.1C400.55 650.23 403.74 648.15 406.66 644L406.64 643.98Z" fill="#2A2D2E" fill-opacity="1.000000" fill-rule="nonzero"/>
		<path id="Vector" d="M500.48 537.34C491.93 552.84 481.24 569.09 476.7 586.78C475.95 589.69 481.32 590.61 482.39 587.83C488.81 571.27 494.45 554.1 502.82 538.91C504.24 536.34 501.89 534.78 500.48 537.34Z" fill="#1A1A1A" fill-opacity="1.000000" fill-rule="nonzero"/>
		<path id="Vector" d="M377.05 564.33C376.53 563.33 375.11 562.71 374.22 563.48C373.47 564.12 372.85 564.8 372.27 565.65C371.69 566.49 371.47 566.93 370.89 567.61C370.56 568 370.53 568.03 370.24 568.21C370.2 568.22 370.2 568.22 370.18 568.24C370.12 568.25 370.05 568.28 370 568.3C369.85 568.33 369.8 568.34 369.76 568.36C369.72 568.36 369.65 568.36 369.55 568.36C368.66 568.42 367.77 568.24 366.87 568.33C365.69 568.45 364.62 568.84 363.72 569.74C362.98 570.47 362.53 571.47 362.06 572.43C361.71 573.12 361.32 573.62 360.73 574.01C360.53 574.15 360.33 574.25 359.99 574.32C359.99 574.32 359.77 574.32 359.66 574.32C359.75 574.31 359.32 574.23 359.53 574.32C358.5 573.82 357.31 573.97 356.7 575.18C356.2 576.17 356.37 576.45 357.4 576.95C359.66 578.06 361.95 579 363.84 577.25C364.67 576.47 365.29 575.48 365.81 574.41C365.99 574.04 366.21 573.56 366.38 573.35C366.55 573.13 366.71 573.04 367.01 573.02C367.8 572.91 368.89 573.13 369.78 573.06C370.96 572.96 372.02 572.57 372.94 571.77C373.74 571.08 374.34 570.22 374.94 569.31C375.25 568.86 375.29 568.75 375.58 568.39C375.69 568.22 375.82 568.06 375.95 567.92C376 567.86 376.47 567.37 376.27 567.55C377.16 566.78 377.63 565.51 377.02 564.33L377.05 564.33Z" fill="#1A1A1A" fill-opacity="1.000000" fill-rule="nonzero"/>
		<path id="Vector" d="M519.26 556.52C519.14 555.41 518.78 554.43 518.07 553.71C518.25 553.06 518.23 552.33 517.92 551.77C517.29 550.64 516.12 550.33 515.09 550.92C513.83 551.65 512.64 552.59 511.6 553.68C510.58 554.72 509.58 555.99 508.91 557.35C508.4 558.38 508.15 559.6 508.49 560.75C508.8 561.78 509.49 562.6 510.36 563.04C511.79 563.77 513.36 564.2 514.87 564.73C515.92 565.1 516.95 565.54 518.01 564.89C519.14 564.2 519.28 562.82 519.3 561.51C519.3 560.64 519.3 559.79 519.31 558.93C519.31 558.12 519.36 557.29 519.28 556.5L519.26 556.52Z" fill="#1A1A1A" fill-opacity="1.000000" fill-rule="nonzero"/>
		<path id="Vector" d="M526.42 551.01C526.27 550.83 526.1 550.68 525.91 550.55C525.82 550.49 525.69 550.43 525.6 550.4C525.51 550.36 525.39 550.29 525.27 550.26C525.25 550.26 525.22 550.26 525.2 550.24C525 550.2 524.78 550.17 524.59 550.15C524.54 550.15 524.49 550.15 524.44 550.15C523.88 550.21 523.62 550.27 523.12 550.57C523.09 550.57 523.07 550.59 523.04 550.61C523.04 550.61 523.02 550.62 523 550.64C522.86 550.76 522.69 550.89 522.56 551.02C522.4 551.18 522.26 551.42 522.14 551.62C522.09 551.71 522.06 551.83 522.02 551.93C521.98 551.98 521.93 552.01 521.89 552.06C521.71 552.28 521.58 552.56 521.52 552.87C521.49 553.08 521.47 553.28 521.44 553.51C521.44 553.93 521.53 554.33 521.73 554.7C521.83 554.86 521.95 555.02 522.05 555.17C522.31 555.46 522.62 555.66 522.96 555.77C523.04 555.8 523.11 555.81 523.18 555.83C523.39 555.87 523.61 555.9 523.82 555.91C523.85 555.91 523.91 555.91 523.95 555.91C524.19 555.91 524.45 555.86 524.69 555.81C524.77 555.8 524.85 555.77 524.93 555.74C525.16 555.65 525.38 555.55 525.6 555.42C525.74 555.33 525.87 555.21 526 555.09C526.13 554.99 526.25 554.87 526.36 554.74C526.53 554.53 526.68 554.31 526.81 554.08C527.36 553.09 527.09 551.77 526.38 550.99L526.42 551.01Z" fill="#1A1A1A" fill-opacity="1.000000" fill-rule="nonzero"/>
		<path id="Vector" d="M524.82 544.16C524.76 543.85 524.63 543.59 524.45 543.35C524.31 543.1 524.11 542.9 523.87 542.75C523.7 542.68 523.53 542.59 523.38 542.51C523.3 542.48 523.22 542.48 523.13 542.47C523.12 542.47 523.11 542.47 523.09 542.45C522.73 542.34 522.36 542.34 522 542.45C521.83 542.53 521.66 542.62 521.51 542.69C521.2 542.9 520.95 543.17 520.76 543.54C520.53 543.95 520.31 544.35 520.08 544.76C519.92 545.03 519.84 545.32 519.83 545.64C519.77 545.95 519.78 546.28 519.87 546.58C519.93 546.89 520.06 547.16 520.24 547.39C520.39 547.64 520.58 547.85 520.82 547.99L521.31 548.23C521.52 548.29 521.73 548.32 521.95 548.3C522.17 548.32 522.4 548.3 522.63 548.24C522.8 548.17 522.96 548.08 523.12 548.01C523.43 547.8 523.68 547.52 523.87 547.16C524.13 546.76 524.37 546.38 524.63 545.98C524.78 545.72 524.86 545.42 524.87 545.1C524.94 544.79 524.93 544.47 524.84 544.16L524.82 544.16Z" fill="#1A1A1A" fill-opacity="1.000000" fill-rule="nonzero"/>
		<path id="Vector" d="M518.96 543.58C518.94 543.35 518.91 543.11 518.89 542.88C518.89 542.81 518.86 542.75 518.85 542.67C518.78 542.36 518.65 542.1 518.47 541.86C518.33 541.61 518.14 541.41 517.89 541.26C517.66 541.09 517.4 541 517.12 540.98C516.85 540.91 516.56 540.92 516.29 541.03C516.13 541.1 515.96 541.19 515.8 541.26C515.58 541.41 515.42 541.6 515.26 541.82C515.2 541.88 515.12 541.94 515.06 542C514.95 542.16 514.84 542.32 514.73 542.47C514.54 542.83 514.45 543.23 514.45 543.66C514.47 544 514.51 544.35 514.54 544.69C514.56 544.89 514.59 545.1 514.62 545.32L514.82 545.88L515.15 546.35C515.34 546.58 515.56 546.74 515.82 546.83C515.97 546.93 516.15 546.99 516.33 546.99C516.51 547.05 516.69 547.05 516.89 546.99C517.07 546.99 517.25 546.93 517.4 546.83C517.66 546.74 517.88 546.57 518.07 546.35C518.2 546.17 518.32 545.99 518.44 545.8C518.45 545.77 518.47 545.74 518.49 545.71C518.51 545.65 518.55 545.6 518.56 545.54C518.68 545.26 518.82 544.94 518.87 544.63C518.87 544.6 518.87 544.57 518.89 544.54C518.91 544.3 518.95 544.07 518.96 543.83C518.96 543.77 518.96 543.7 518.96 543.64C518.96 543.61 518.96 543.58 518.96 543.54L518.96 543.58Z" fill="#1A1A1A" fill-opacity="1.000000" fill-rule="nonzero"/>
		<path id="Vector" d="M513.77 545.42C513.69 545.13 513.53 544.88 513.34 544.66C513.15 544.42 512.93 544.26 512.67 544.17C512.42 544.03 512.15 543.95 511.87 543.97C511.69 544 511.51 544.03 511.31 544.05C510.97 544.17 510.66 544.36 510.4 544.66C510.29 544.82 510.18 544.98 510.08 545.13C509.88 545.5 509.79 545.89 509.79 546.32L509.79 548.48C509.79 548.8 509.84 549.11 509.97 549.39C510.05 549.68 510.2 549.93 510.4 550.15C510.59 550.39 510.81 550.55 511.07 550.64C511.31 550.78 511.58 550.86 511.87 550.84C512.05 550.81 512.23 550.78 512.42 550.76C512.77 550.64 513.08 550.45 513.34 550.15C513.44 549.99 513.56 549.83 513.66 549.68C513.86 549.32 513.95 548.92 513.95 548.49L513.95 546.33C513.95 546.01 513.89 545.7 513.77 545.42Z" fill="#1A1A1A" fill-opacity="1.000000" fill-rule="nonzero"/>
		<path id="Vector" d="M521.97 503.44C525.07 509.94 551.05 531.88 570.07 526.46C589.08 521.03 593.69 487.88 578.32 460.98C567.89 442.7 521.97 503.44 521.97 503.44Z" fill="#1A1A1A" fill-opacity="1.000000" fill-rule="nonzero"/>
		<path id="Vector" d="M550.7 430.91C550.7 430.91 480.93 407.68 468.6 400.35C456.25 393.01 450.01 368.94 447.8 367.27C441.94 362.79 439.44 379.82 438.76 388.75C438.14 396.92 411.71 378.97 404.19 378.97C396.67 378.97 398.83 388.14 405.81 393.03C412.79 397.92 425.12 400.98 421.37 403.42C417.61 405.86 393.46 396.69 386.48 399.74C379.5 402.8 382.72 410.75 388.62 413.81C394.53 416.86 415.46 421.76 415.46 425.42C415.46 429.08 394.53 421.74 390.23 425.42C385.94 429.09 391.3 435.2 405.26 438.26C405.26 438.26 398.83 444.99 408.49 448.05C418.15 451.1 441.22 452.94 457.86 453.54C474.51 454.16 505.95 505.37 550.7 515.89C598.76 527.19 590.41 450.48 550.7 430.93L550.7 430.91Z" fill="#FCC49A" fill-opacity="1.000000" fill-rule="nonzero"/>
		<path id="Vector" d="M440.46 375.16C440.46 375.16 431.26 369.72 417.6 382.73C411 389 408.85 419.7 405.03 432.57C403.48 435.19 400.82 439.65 399.75 441.23C398.19 443.5 399.53 449.09 402.21 449.59C404.88 450.09 402.88 453.64 407.09 454.66C411.33 455.67 412.66 452.63 415.11 454.14C417.56 455.67 424.23 456.93 427.12 448.31C427.25 447.91 427.31 447.53 427.34 447.13C431.18 440.17 431.23 428.18 434.98 417.33C440.68 400.8 440.46 375.16 440.46 375.16Z" fill="#2A2D2E" fill-opacity="1.000000" fill-rule="nonzero"/>
		<path id="Vector" d="M267.57 527.96C265.11 529.51 227.48 557.37 234.96 605.33C242.43 653.3 291.34 628.55 304.26 591.4C317.16 554.27 279.8 520.22 267.58 527.95L267.57 527.96Z" fill="#1A1A1A" fill-opacity="1.000000" fill-rule="nonzero"/>
		<path id="Vector" d="M416.98 514.12C416.98 514.12 423.97 520.09 414.62 524.22C405.26 528.35 382.47 532.76 365.97 535.24C349.47 537.71 327.09 596.75 278.97 607.71C230.85 618.68 233.79 547.08 271.62 523.16C271.62 523.16 339.03 492.21 350.68 483.53C362.33 474.84 375.07 456.15 381.91 454.15C388.75 452.16 386.42 463.24 382.26 467.19C376.73 472.43 405.45 455.84 412.92 455.01C420.4 454.17 419.04 463.53 412.53 469.17C406.01 474.82 393.99 479.25 397.94 481.27C401.88 483.28 422.38 466.47 429.6 468.73C436.81 471 433.8 478.74 428.19 482.44C428.19 482.44 430.85 487.78 428.19 492.23C425.53 496.68 400.22 509.85 398.97 512.52C397.72 515.2 411.86 511.13 416.98 514.14L416.98 514.12Z" fill="#FCC49A" fill-opacity="1.000000" fill-rule="nonzero"/>
	</g>
</svg>
