<svg width="133.732178" height="101.864746" viewBox="0 0 133.732 101.865" fill="none" xmlns="http://www.w3.org/2000/svg" xmlns:xlink="http://www.w3.org/1999/xlink">
	<desc>
			Created with Pixso.
	</desc>
	<defs/>
	<path id="Vector" d="M104.62 97.73C104.57 97.96 104.55 98.1 104.55 98.12C104.63 98.58 98.24 99.04 99.04 97.98C99.04 97.98 99.04 97.98 99.04 97.98C99.34 97.86 99.61 97.75 99.82 97.65C99.83 97.65 99.85 97.64 99.86 97.63C100.06 97.52 100.09 97.39 100.15 97.08C100.21 96.74 100.3 95.69 100.3 95.69L102.64 74.14L110.27 74.73C110.27 74.73 106.84 88.37 105.29 94.82C105.1 95.64 104.93 96.34 104.81 96.88L104.81 96.88C104.72 97.23 104.66 97.52 104.62 97.73L104.62 97.73L104.62 97.73Z" fill="#FCC49A" fill-opacity="1.000000" fill-rule="nonzero"/>
	<path id="Vector" d="M104.02 101.72C104.02 101.72 95.92 101.72 93.64 101.72C92.89 101.72 92.24 100.49 93.7 99.95C94.6 99.62 98.65 98.14 99.04 97.98C99.04 97.98 99.04 97.98 99.04 97.98C99.73 98.15 101.1 98.34 102.78 98.18C102.93 98.17 104.17 98.04 104.62 97.73C104.62 97.73 104.62 97.73 104.62 97.73L104.62 97.73C104.81 98.51 104.89 99.26 104.94 99.82C105.01 100.55 105.14 101.72 104.02 101.72Z" fill="#371D15" fill-opacity="1.000000" fill-rule="nonzero"/>
	<path id="Vector" d="M126.03 99.36L125.38 97.25L125.95 74.97L118.33 69.51L120.74 97.3L120.63 99.43L126.03 99.36Z" fill="#FCC49A" fill-opacity="1.000000" fill-rule="nonzero"/>
	<path id="Vector" d="M120.5 94.88C120.52 94.88 120.7 96.92 120.7 96.92L125.69 95.73L120.5 94.88Z" fill="#371D15" fill-opacity="1.000000" fill-rule="nonzero"/>
	<path id="Vector" d="M120.7 98.37C121.75 97.58 123.59 97.45 125.49 97.64C125.49 97.64 126.32 99.35 126.55 99.75C127.14 100.8 126.37 101.85 125.56 101.85L121.35 101.85C120.89 101.85 120.51 101.38 120.51 100.79C120.51 100.33 120.64 98.83 120.7 98.37Z" fill="#371D15" fill-opacity="1.000000" fill-rule="nonzero"/>
	<path id="Vector" d="M97.43 95.62L107.22 95.88L112.88 67.23L114.79 57.89L114.8 57.83L118.35 95.82C118.33 95.8 127.59 95.8 127.61 95.82C127.61 95.82 126.85 63.26 126.02 54.72C125.89 53.36 125.76 51.31 125.57 49.33C125.46 48.19 125.33 47.08 125.17 46.14C125.08 45.64 124.98 45.18 124.88 44.8C124.29 42.71 123.69 40.96 123.36 40.03C123.19 39.56 123.09 39.3 123.09 39.3C118.47 38.69 111.43 39.81 106.65 40.46C106.45 40.48 105.1 39.63 104.91 39.65L97.43 95.62Z" fill="#B4D940" fill-opacity="1.000000" fill-rule="nonzero"/>
	<path id="Vector" d="M104.19 30.59C104.19 30.59 91.78 31.94 90.36 29.8C90.36 29.8 97.85 21.19 98.64 20.33C102.53 16.12 106.21 15.8 110.33 15.73C113.1 15.68 114.64 15.26 118.05 15.71C120.55 16.03 124.16 16.95 125.48 19.06C126.1 20.05 122.95 22.54 123.36 29.02L127.78 47.48C126.66 47.81 113.91 50.08 103.59 47.78C103.72 41.73 103.4 40.71 104.19 30.59Z" fill="#00679D" fill-opacity="1.000000" fill-rule="nonzero"/>
	<path id="Vector" d="M110.06 15.82L110.37 13.9L113.86 13.86L113.79 15.23L110.06 15.82Z" fill="#371D15" fill-opacity="1.000000" fill-rule="nonzero"/>
	<path id="Vector" d="M107.82 6.03C107.56 1.48 112.33 -0.13 115.82 1.77C116.73 2.27 117.85 3.15 118.12 4.6C118.41 6.21 117.68 8.05 117.34 8.89C117.2 9.24 117.45 11.41 117.02 11.34C116.98 11.67 117.55 16.52 117.55 16.52C116.5 17.77 110.76 17.68 109.9 16.62L110.07 15.83C110.07 15.83 112.2 15.28 113.22 14.82C113.24 14.81 113.26 14.8 113.27 14.8C112.04 15.34 110.45 14.81 109.71 14.27C108.69 13.52 108.15 12.14 107.96 11.1C107.95 11.04 107.94 10.98 107.93 10.93C107.91 10.84 107.92 10.76 107.89 10.69C107.82 10.56 107.69 9.9 107.72 9.1C107.76 8.13 107.89 7.14 107.82 6.03Z" fill="#FCC49A" fill-opacity="1.000000" fill-rule="nonzero"/>
	<path id="Vector" d="M117.61 8.59C118.27 8.85 118.86 4.77 117.84 4.77C116.83 4.77 115.75 5.06 115.31 6.09C114.79 7.34 116.23 8.79 116.89 8.33C117.11 8.18 117.42 8.68 117.61 8.59Z" fill="#7A7777" fill-opacity="1.000000" fill-rule="nonzero"/>
	<path id="Vector" d="M116.61 8.44C116.63 8.43 116.66 8.43 116.68 8.43C116.78 8.4 116.89 8.33 117.01 8.22C117.1 8.13 117.19 8.03 117.31 7.93C117.5 7.77 117.71 7.72 117.91 7.77C118.37 7.9 118.78 8.57 118.62 9.65C118.44 10.81 117.78 11.48 117.01 11.36C116.97 11.68 116.15 8.48 116.61 8.44Z" fill="#FCC49A" fill-opacity="1.000000" fill-rule="nonzero"/>
	<path id="Vector" d="M108.99 6.85C109.57 6.8 110.04 7.08 110.05 7.09C110.09 7.11 110.11 7.17 110.08 7.21C110.05 7.25 110 7.27 109.95 7.24C109.92 7.22 109.03 6.7 108.23 7.35C108.19 7.38 108.14 7.37 108.11 7.33C108.07 7.29 108.08 7.24 108.12 7.2C108.41 6.97 108.71 6.87 108.99 6.85Z" fill="#5E6466" fill-opacity="1.000000" fill-rule="nonzero"/>
	<path id="Vector" d="M113.46 6.77C112.88 6.7 112.4 6.97 112.4 6.98C112.35 7 112.34 7.06 112.36 7.1C112.39 7.14 112.44 7.16 112.49 7.13C112.52 7.11 113.42 6.61 114.2 7.28C114.24 7.31 114.3 7.31 114.33 7.27C114.37 7.23 114.36 7.17 114.32 7.14C114.04 6.9 113.74 6.8 113.46 6.77Z" fill="#5E6466" fill-opacity="1.000000" fill-rule="nonzero"/>
	<path id="Vector" d="M110.98 10.3C110.78 10.28 110.6 10.2 110.47 10.07C110.32 9.93 110.27 9.74 110.33 9.56C110.43 9.23 110.52 8.92 110.59 8.65C110.64 8.52 110.81 8.58 110.77 8.71C110.7 8.97 110.61 9.29 110.5 9.62C110.47 9.73 110.5 9.85 110.6 9.94C110.72 10.07 110.98 10.18 111.31 10.08C111.36 10.06 111.41 10.09 111.43 10.14C111.44 10.19 111.41 10.24 111.37 10.25C111.24 10.29 111.11 10.31 110.98 10.3Z" fill="#371D15" fill-opacity="1.000000" fill-rule="nonzero"/>
	<path id="Vector" d="M113.73 8.38C113.76 8.38 113.78 8.36 113.8 8.34C113.83 8.29 113.82 8.22 113.77 8.19C113.75 8.18 113.28 7.88 112.67 8.19C112.62 8.21 112.6 8.27 112.63 8.33C112.65 8.38 112.72 8.4 112.77 8.37C113.27 8.12 113.65 8.37 113.65 8.37C113.68 8.38 113.7 8.39 113.73 8.38Z" fill="#371D15" fill-opacity="1.000000" fill-rule="nonzero"/>
	<path id="Vector" d="M109.62 8.37C109.65 8.36 109.68 8.35 109.69 8.32C109.72 8.27 109.7 8.2 109.65 8.17C109.63 8.16 109.12 7.88 108.56 8.2C108.51 8.23 108.49 8.3 108.52 8.35C108.55 8.4 108.61 8.41 108.66 8.38C109.12 8.12 109.53 8.35 109.55 8.36C109.57 8.37 109.6 8.37 109.62 8.37Z" fill="#371D15" fill-opacity="1.000000" fill-rule="nonzero"/>
	<path id="Vector" d="M107.62 11.07C107.72 13.45 108.6 16.2 111.63 16.2C114.85 16.2 116.15 13.46 116.1 11.03C116.07 9.87 113.08 10.48 110.97 10.5C108.95 10.53 107.56 9.88 107.62 11.07Z" fill="#7A7777" fill-opacity="1.000000" fill-rule="nonzero"/>
	<path id="Vector" d="M110.76 11.57C110.54 11.55 110.3 11.48 110.06 11.34C110.01 11.31 110 11.25 110.03 11.2C110.05 11.16 110.11 11.14 110.16 11.17C110.96 11.65 111.81 11.11 111.82 11.11C111.87 11.08 111.93 11.09 111.96 11.14C111.99 11.18 111.98 11.24 111.93 11.27C111.9 11.29 111.39 11.62 110.76 11.57Z" fill="#371D15" fill-opacity="1.000000" fill-rule="nonzero"/>
	<path id="Vector" d="M107.96 7.69L114.73 7.69C114.79 7.69 114.83 7.64 114.83 7.59C114.83 7.53 114.79 7.49 114.73 7.49L107.96 7.5C107.91 7.5 107.86 7.54 107.86 7.6C107.86 7.65 107.91 7.69 107.96 7.69Z" fill="#371D15" fill-opacity="1.000000" fill-rule="nonzero"/>
	<path id="Vector" d="M108.82 9.8C109.24 9.8 109.64 9.6 109.93 9.23C110.25 8.83 110.43 8.27 110.43 7.59C110.43 7.54 110.38 7.49 110.33 7.49C110.27 7.49 110.23 7.54 110.23 7.59C110.23 8.97 109.5 9.6 108.82 9.6C108.14 9.6 107.4 8.97 107.4 7.59C107.4 7.54 107.36 7.49 107.3 7.49C107.25 7.49 107.21 7.54 107.21 7.59C107.21 9.11 108.04 9.8 108.82 9.8Z" fill="#371D15" fill-opacity="1.000000" fill-rule="nonzero"/>
	<path id="Vector" d="M113.22 9.79C113.65 9.79 114.04 9.6 114.34 9.23C114.66 8.83 114.83 8.26 114.83 7.59C114.83 7.54 114.79 7.49 114.73 7.49C114.68 7.49 114.63 7.54 114.63 7.59C114.63 8.97 113.9 9.6 113.22 9.6C112.54 9.6 111.81 8.97 111.81 7.59C111.81 7.54 111.76 7.49 111.71 7.49C111.65 7.49 111.61 7.54 111.61 7.59C111.61 9.11 112.44 9.79 113.22 9.79Z" fill="#371D15" fill-opacity="1.000000" fill-rule="nonzero"/>
	<path id="Vector" d="M117.29 11.44C116.99 11.44 116.81 11.31 116.8 11.31C116.76 11.27 116.75 11.21 116.78 11.17C116.81 11.12 116.88 11.12 116.92 11.15C116.93 11.15 117.15 11.31 117.54 11.21C117.59 11.2 117.64 11.23 117.66 11.28C117.67 11.33 117.64 11.39 117.59 11.4C117.48 11.43 117.38 11.44 117.29 11.44Z" fill="#371D15" fill-opacity="1.000000" fill-rule="nonzero"/>
	<path id="Vector" d="M129.25 23.74C130.44 26.48 131.69 29.44 132.73 32.1C135.47 39.12 132.46 43.94 124.84 43.01L123.01 31.6L117.81 15.71C124.57 16.31 126.91 18.32 129.25 23.74Z" fill="#00679D" fill-opacity="1.000000" fill-rule="nonzero"/>
	<path id="Vector" d="M64.13 97.86C64.09 98.09 64.06 98.23 64.07 98.25C64.14 98.71 57.75 99.18 58.55 98.11C58.55 98.11 58.55 98.11 58.55 98.11C58.86 97.99 59.13 97.88 59.33 97.78C59.35 97.78 59.36 97.77 59.37 97.76C59.57 97.65 59.6 97.53 59.66 97.21C59.73 96.87 59.81 95.82 59.81 95.82L62.16 74.25L69.79 74.84C69.79 74.84 66.36 88.49 64.81 94.95C64.61 95.77 64.45 96.47 64.32 97.01L64.32 97.01C64.24 97.37 64.18 97.65 64.13 97.86L64.13 97.86Z" fill="#FCC49A" fill-opacity="1.000000" fill-rule="nonzero"/>
	<path id="Vector" d="M63.54 101.86C63.54 101.86 55.43 101.86 53.14 101.86C52.39 101.86 51.74 100.63 53.21 100.08C54.1 99.75 58.16 98.27 58.55 98.11C58.55 98.11 58.55 98.11 58.55 98.11C59.24 98.29 60.62 98.47 62.29 98.32C62.44 98.31 63.68 98.17 64.13 97.86C64.13 97.86 64.13 97.86 64.13 97.86L64.13 97.86C64.32 98.64 64.41 99.39 64.46 99.95C64.52 100.69 64.65 101.86 63.54 101.86Z" fill="#371D15" fill-opacity="1.000000" fill-rule="nonzero"/>
	<path id="Vector" d="M64.81 94.94C64.61 95.76 64.45 96.46 64.32 97.01L64.32 97.01L59.81 95.82L64.81 94.94Z" fill="#371D15" fill-opacity="1.000000" fill-rule="nonzero"/>
	<path id="Vector" d="M87.54 99.37L86.88 97.26L87.39 74.96L79.76 69.5L82.17 97.31L82.06 99.44L87.54 99.37Z" fill="#FCC49A" fill-opacity="1.000000" fill-rule="nonzero"/>
	<path id="Vector" d="M81.94 94.88C81.96 94.88 82.13 96.92 82.13 96.92L87.13 95.73L81.94 94.88Z" fill="#371D15" fill-opacity="1.000000" fill-rule="nonzero"/>
	<path id="Vector" d="M82.13 98.37C83.18 97.58 85.09 97.45 87 97.65C87 97.65 87.82 99.35 88.05 99.75C88.64 100.81 87.87 101.86 87.06 101.86L82.79 101.86C82.33 101.86 81.95 101.39 81.94 100.8C81.94 100.34 82.07 98.84 82.13 98.37Z" fill="#371D15" fill-opacity="1.000000" fill-rule="nonzero"/>
	<path id="Vector" d="M57.42 95.82L66.77 95.82L74.27 65.56L76.7 55.77L79.79 95.69C79.77 95.67 89.04 95.67 89.05 95.69C89.05 95.69 89.23 61.02 88.4 52.48C87.98 48.12 87.02 43 86.53 40.55C86.34 39.63 67.15 40.35 66.96 40.37L66.17 44.7L57.42 95.82Z" fill="#00679D" fill-opacity="1.000000" fill-rule="nonzero"/>
	<path id="Vector" d="M66.42 24.73C66.85 24.01 62.06 22.7 63.35 20.35C65.27 16.81 69.86 16.27 73.61 16C75.41 16.86 77.01 17.76 79.51 16.05C84.92 16.6 88.59 17.4 90.17 21.02C91.16 23.29 88.06 23.58 85.87 23.95C86.4 29.22 88.13 45.52 88.13 45.52C86.29 45.72 75.41 47.74 65.09 45.43C65.09 45.43 66.22 26.71 66.42 24.73Z" fill="#EAE0B5" fill-opacity="1.000000" fill-rule="nonzero"/>
	<path id="Vector" d="M49.29 46.91C47.96 47.34 45.91 42.04 47.29 41.32C48.39 40.72 51.5 46.38 49.29 46.91Z" fill="#371D15" fill-opacity="1.000000" fill-rule="nonzero"/>
	<path id="Vector" d="M67.95 17.06C71.91 15.91 72.16 21.78 71.71 25.3C70.97 31.11 70.46 34.81 69.87 37.7C69.21 40.95 67.46 42.1 63.95 43.23C61.56 44 49.52 46.85 49.29 46.91C51.17 46.45 48.34 40.79 47.29 41.32C47.56 41.17 57.41 36.55 59.88 35.27C59.88 35.27 61.47 25.54 61.9 23.77C63.15 18.64 65.91 17.65 67.95 17.06Z" fill="#EAE0B5" fill-opacity="1.000000" fill-rule="nonzero"/>
	<path id="Vector" d="M85.28 17.06C81.33 15.91 79.12 22.7 81.52 25.3C81.55 25.33 85.15 33.74 86.42 36.32C88.26 40.07 88.46 41.78 92.08 43.02C94.46 43.85 95.46 35.46 95.43 35.46C95.43 35.46 93 25.6 92.01 23.36C90.09 19.02 87.32 17.65 85.28 17.06Z" fill="#EAE0B5" fill-opacity="1.000000" fill-rule="nonzero"/>
	<path id="Vector" d="M107.91 43.96C109.11 45.17 105.37 51.46 103.59 50.22C101.59 48.82 106.09 42.12 107.91 43.96Z" fill="#371D15" fill-opacity="1.000000" fill-rule="nonzero"/>
	<path id="Vector" d="M100.27 39.52L109.61 44.89C109.61 44.89 110.79 49.44 109.62 49.62C106.74 50.08 104.89 47.93 104.89 47.93L97.7 44.76L100.27 39.52Z" fill="#FCC49A" fill-opacity="1.000000" fill-rule="nonzero"/>
	<path id="Vector" d="M112 44.5C112.39 44.6 112.1 45.64 111.01 45.72C110 45.79 109.32 45.9 109.25 45.89C108.73 45.86 107.14 44.63 107.14 44.63C107.19 44.64 108.57 43.97 109.62 44.11C110.61 44.24 111.03 44.24 112 44.5Z" fill="#FCC49A" fill-opacity="1.000000" fill-rule="nonzero"/>
	<path id="Vector" d="M94.91 34.3C94.91 34.3 100.19 38.81 107.7 43.81C106.17 42.79 103.05 48.6 103.59 50.21L91.68 44.89C85.87 42.03 85.49 38.87 87.44 33.03L94.91 34.3Z" fill="#EAE0B5" fill-opacity="1.000000" fill-rule="nonzero"/>
	<path id="Vector" d="M71.86 46.56C71.91 46.56 71.96 46.52 71.96 46.47C71.97 46.42 71.93 46.37 71.87 46.36C68.21 45.95 65.7 45.51 65.2 45.42L67.03 30.71C67.04 30.66 67 30.61 66.94 30.6C66.89 30.6 66.84 30.63 66.83 30.69L64.99 45.48C64.98 45.54 65.02 45.58 65.07 45.59C65.1 45.6 67.75 46.1 71.85 46.56C71.86 46.56 71.86 46.56 71.86 46.56Z" fill="#371D15" fill-opacity="1.000000" fill-rule="nonzero"/>
	<path id="Vector" d="M82.7 46.31C82.65 46.31 82.61 46.28 82.61 46.23C82.6 46.17 82.64 46.12 82.69 46.12L87.99 45.4L86.29 31.03C86.28 30.98 86.32 30.93 86.37 30.92C86.43 30.92 86.48 30.96 86.48 31.01L88.19 45.48C88.2 45.53 88.16 45.58 88.11 45.59L82.72 46.31C82.71 46.31 82.71 46.31 82.7 46.31Z" fill="#371D15" fill-opacity="1.000000" fill-rule="nonzero"/>
	<path id="Vector" d="M79.77 2.61C79.39 2.55 79.26 2.52 79.06 2.2C77.33 -0.59 74.4 0.37 73.97 0.25C70.86 -0.61 68.53 0.83 67.68 2.96C66.42 6.14 68.95 9.75 70.62 9.7C72.31 9.92 74.77 8.69 76.62 7.05C77.64 8.85 79.17 11.67 79.17 11.67C79.17 11.67 78.64 12.83 79.85 12.57C81.47 12.22 80.12 9.69 79.85 9.74L80.29 8.43C80.29 8.43 81.67 7.11 80.93 5.5C80.82 5.25 81.76 2.94 79.77 2.61Z" fill="#1A1A1A" fill-opacity="1.000000" fill-rule="nonzero"/>
	<path id="Vector" d="M73.15 16.14L73.51 14.22L76.75 14.17L76.8 15.53L73.15 16.14Z" fill="#1A1A1A" fill-opacity="1.000000" fill-rule="nonzero"/>
	<path id="Vector" d="M81.11 9.51C81.05 10.55 80.56 11.32 79.83 11.37C79.86 11.65 80.65 17.12 80.65 17.12C79.33 18.47 73.73 18.25 72.97 17.17L73.14 16.14C73.14 16.14 75.71 15.55 76.47 15C75.28 15.86 73.48 15.45 72.64 14.94C71.55 14.29 70.89 12.96 70.6 11.94C70.57 11.8 70.53 11.67 70.5 11.55C70.4 11.13 70.3 10.69 70.23 10.23C70.08 9.29 70.01 8.25 70.15 7.03C70.34 5.36 71.34 4.55 71.82 4.25C72.11 4.06 72.29 4 72.48 4.25C73.09 5.05 73.92 5.78 76.44 5.67C78.09 5.6 78.04 6.17 78.24 7.61C78.29 7.99 78.42 8.6 79 8.49C79.12 8.47 79.25 8.39 79.37 8.23C79.45 8.14 79.54 8.04 79.65 7.92C80.2 7.34 81.2 7.95 81.11 9.51Z" fill="#FCC49A" fill-opacity="1.000000" fill-rule="nonzero"/>
	<path id="Vector" d="M71.27 7.49C71.82 7.3 72.35 7.46 72.36 7.46C72.41 7.48 72.43 7.53 72.42 7.58C72.4 7.63 72.35 7.65 72.3 7.64C72.26 7.62 71.28 7.33 70.66 8.15C70.63 8.19 70.57 8.2 70.53 8.17C70.49 8.14 70.48 8.08 70.51 8.04C70.74 7.75 71 7.58 71.27 7.49Z" fill="#1A1A1A" fill-opacity="1.000000" fill-rule="nonzero"/>
	<path id="Vector" d="M75.93 7.32C75.35 7.23 74.86 7.48 74.85 7.48C74.81 7.5 74.79 7.56 74.81 7.6C74.84 7.65 74.89 7.67 74.94 7.64C74.98 7.62 75.9 7.16 76.65 7.87C76.68 7.9 76.74 7.9 76.78 7.86C76.81 7.82 76.81 7.77 76.77 7.73C76.5 7.48 76.21 7.36 75.93 7.32Z" fill="#1A1A1A" fill-opacity="1.000000" fill-rule="nonzero"/>
	<path id="Vector" d="M73.75 10.99C73.55 11 73.36 10.93 73.21 10.82C73.06 10.68 72.99 10.5 73.03 10.32C73.1 9.98 73.16 9.66 73.21 9.39C73.24 9.25 73.42 9.29 73.39 9.43C73.34 9.7 73.28 10.02 73.21 10.36C73.18 10.47 73.23 10.59 73.33 10.68C73.47 10.79 73.74 10.87 74.06 10.74C74.1 10.73 74.16 10.75 74.18 10.79C74.19 10.84 74.17 10.89 74.13 10.91C74 10.96 73.87 10.99 73.75 10.99Z" fill="#1A1A1A" fill-opacity="1.000000" fill-rule="nonzero"/>
	<path id="Vector" d="M78.4 10.15C78.45 10.68 78.03 11.15 77.47 11.2C76.91 11.25 76.42 10.86 76.37 10.33C76.33 9.8 76.74 9.33 77.3 9.28C77.86 9.23 78.36 9.62 78.4 10.15Z" fill="#DD7F60" fill-opacity="1.000000" fill-rule="nonzero"/>
	<path id="Vector" d="M71.85 10.92C71.89 11.45 71.48 11.92 70.92 11.97C70.81 11.98 70.71 11.97 70.61 11.95C70.57 11.81 70.3 10.7 70.23 10.24C70.38 10.13 70.55 10.06 70.75 10.05C71.31 10 71.8 10.39 71.85 10.92Z" fill="#DD7F60" fill-opacity="1.000000" fill-rule="nonzero"/>
	<path id="Vector" d="M75.1 8.93C75.12 9.23 75.34 9.46 75.6 9.44C75.85 9.43 76.05 9.17 76.03 8.87C76.01 8.57 75.78 8.34 75.53 8.36C75.27 8.38 75.08 8.63 75.1 8.93Z" fill="#1A1A1A" fill-opacity="1.000000" fill-rule="nonzero"/>
	<path id="Vector" d="M71.35 9.15C71.37 9.45 71.59 9.67 71.85 9.66C72.11 9.64 72.3 9.38 72.28 9.09C72.26 8.79 72.04 8.56 71.78 8.58C71.52 8.59 71.33 8.85 71.35 9.15Z" fill="#1A1A1A" fill-opacity="1.000000" fill-rule="nonzero"/>
	<path id="Vector" d="M79.91 11.56C79.55 11.59 79.37 11.49 79.27 11.41C79.23 11.37 79.22 11.31 79.25 11.27C79.29 11.22 79.35 11.22 79.39 11.25C79.45 11.3 79.61 11.44 80.14 11.32C80.2 11.31 80.25 11.34 80.26 11.4C80.27 11.45 80.24 11.5 80.19 11.52C80.08 11.54 79.99 11.55 79.91 11.56Z" fill="#1A1A1A" fill-opacity="1.000000" fill-rule="nonzero"/>
	<path id="Vector" d="M73.8 12.17C73.33 12.17 73.03 11.96 73.03 11.96C72.99 11.92 72.99 11.86 73.02 11.82C73.06 11.78 73.12 11.77 73.16 11.81C73.17 11.82 73.83 12.26 74.75 11.67C74.8 11.64 74.86 11.65 74.89 11.7C74.92 11.75 74.9 11.81 74.86 11.84C74.46 12.09 74.1 12.17 73.8 12.17Z" fill="#371D15" fill-opacity="1.000000" fill-rule="nonzero"/>
	<path id="Vector" d="M50.04 51.71C49.99 53.13 44.4 52.66 44.76 51.65C45.51 49.86 49.81 47.72 50.04 51.71Z" fill="#371D15" fill-opacity="1.000000" fill-rule="nonzero"/>
	<path id="Vector" d="M51.19 38.01C50.78 34.76 49.93 28.76 48.38 26.21C46.6 23.3 43.99 22 38.47 21.86L44.18 37.89L44.45 51.42C44.26 50.11 50.11 50.28 50.07 51.7C50.14 49.32 51.73 42.24 51.19 38.01Z" fill="#8CAACF" fill-opacity="1.000000" fill-rule="nonzero"/>
	<path id="Vector" d="M34.89 69.04C34.91 69.02 33.34 75.2 31.61 82C31.39 82.85 31.17 83.72 30.95 84.59C29.07 91.99 27.24 99.27 27.25 99.38C27.33 99.84 27.42 100.34 27.41 100.78C27.41 101.37 26.93 101.83 26.35 101.83L17.53 101.81C17.06 101.81 16.27 100.6 17.72 100.02C18.22 99.83 19.04 99.58 19.89 99.33C20.91 99.03 21.98 98.73 22.56 98.53C22.79 98.45 22.95 98.23 22.95 97.99L24.17 82.77L34.89 69.04Z" fill="#FCC49A" fill-opacity="1.000000" fill-rule="nonzero"/>
	<path id="Vector" d="M17.54 101.81L26.35 101.83C26.93 101.84 27.41 101.37 27.42 100.79C27.42 100.34 27.33 99.84 27.26 99.38C26.93 99.31 26.55 99.3 26.1 99.42C24.46 99.86 22.59 100.3 22.13 100.26C21.39 100.19 20.46 99.59 19.89 99.33C19.04 99.58 18.22 99.83 17.72 100.03C16.27 100.6 17.07 101.81 17.54 101.81Z" fill="#B2502B" fill-opacity="1.000000" fill-rule="nonzero"/>
	<path id="Vector" d="M53.01 101.81L44.19 101.83C43.61 101.83 43.13 101.37 43.13 100.79C43.13 100.34 43.21 99.84 43.29 99.38C43.3 99.31 42.37 91.04 41.65 84.63C41.55 83.73 41.45 82.85 41.36 82.05C41.05 79.25 40.83 77.25 40.85 77.25L48.41 79.51L47.6 97.99C47.57 98.34 47.75 98.45 47.98 98.53C48.56 98.73 49.63 99.03 50.66 99.33C51.5 99.58 52.32 99.83 52.82 100.02C54.27 100.6 53.48 101.81 53.01 101.81Z" fill="#FCC49A" fill-opacity="1.000000" fill-rule="nonzero"/>
	<path id="Vector" d="M53.01 101.81L44.14 101.83C43.56 101.83 43.05 101.38 43.04 100.8C43.04 100.35 43.21 99.84 43.29 99.38C43.61 99.31 44 99.3 44.44 99.42C46.09 99.86 47.95 100.3 48.41 100.26C49.15 100.19 50.08 99.59 50.66 99.33C51.5 99.58 52.32 99.83 52.82 100.03C54.27 100.6 53.48 101.81 53.01 101.81Z" fill="#B2502B" fill-opacity="1.000000" fill-rule="nonzero"/>
	<path id="Vector" d="M48.26 82.74L41.65 84.63C41.55 83.72 41.45 82.85 41.36 82.04L48.26 82.74Z" fill="#371D15" fill-opacity="1.000000" fill-rule="nonzero"/>
	<path id="Vector" d="M24.78 54.67C25.14 46.67 30.97 38.15 30.97 38.15C37.87 32.24 43.78 46.31 48.7 46.95C49.99 49.86 50.48 51.63 50.28 58.47C50.16 62.48 48.9 82.79 48.88 82.79C48.35 82.79 23.15 82.79 23.15 82.79C23.15 82.79 24.56 59.77 24.78 54.67Z" fill="#5E6466" fill-opacity="1.000000" fill-rule="nonzero"/>
	<path id="Vector" d="M27.5 24.61C28.75 23.37 30.88 22.3 34.35 22.01C34.36 22.01 38.19 23.57 40.79 22.01C44.83 22.71 45.97 23.79 46.92 25.06C48.14 26.68 49.96 31.51 51.11 37.69C51.62 40.42 50.29 43.59 49.02 45.37C47.76 47.13 46.39 30.65 46.39 30.65C48.14 34.4 47.17 35.8 47.14 36.47C47.04 38.14 48.83 41.07 48.7 46.96C46.91 47.74 38.08 46.8 26.83 44.73C26.83 44.73 30.25 32.22 30.33 31.5C34.23 45.37 22.9 38.56 23.14 37.37C23.47 35.72 24.32 32.18 24.85 30C25.62 26.89 26.31 25.8 27.5 24.61Z" fill="#8CAACF" fill-opacity="1.000000" fill-rule="nonzero"/>
	<path id="Vector" d="M48.73 47.21C48.68 47.21 48.64 47.17 48.64 47.12C48.53 43.36 47.84 41.5 47.33 40.14C46.9 39 46.6 38.18 46.8 36.88C47.34 33.41 45.57 31.26 45.55 31.24C45.52 31.2 45.52 31.14 45.56 31.11C45.6 31.08 45.66 31.08 45.7 31.12C45.71 31.14 47.54 33.35 46.99 36.91C46.79 38.16 47.09 38.96 47.51 40.07C48.02 41.44 48.72 43.33 48.83 47.11C48.83 47.16 48.79 47.21 48.74 47.21C48.73 47.21 48.73 47.21 48.73 47.21Z" fill="#371D15" fill-opacity="1.000000" fill-rule="nonzero"/>
	<path id="Vector" d="M34.35 8.33C31.12 7.39 29.58 11.1 29.97 15.35C30.33 19.41 32.61 21.27 36.02 21.15C36.02 21.15 39.62 16.98 42.65 16.55C43.17 15.11 44.21 13.85 44.88 11.49C45.54 9.19 43.83 7.41 40.41 7.08C38.08 6.86 35.42 5.05 34.35 8.33Z" fill="#7A7676" fill-opacity="1.000000" fill-rule="nonzero"/>
	<path id="Vector" d="M43.51 10.39C43.51 10.38 43.51 10.37 43.51 10.36C43.26 8.79 41.48 8.72 41.46 8.72C41.4 8.72 41.35 8.76 41.35 8.82C41.35 8.88 41.4 8.93 41.46 8.93C41.52 8.93 43.08 9 43.3 10.39C43.31 10.45 43.36 10.49 43.42 10.48C43.47 10.47 43.5 10.44 43.51 10.39Z" fill="#BDAD9C" fill-opacity="1.000000" fill-rule="nonzero"/>
	<path id="Vector" d="M31.49 12.77C31.53 12.76 31.56 12.73 31.57 12.69C32.3 9.56 34.34 9.84 34.42 9.86C34.48 9.87 34.54 9.83 34.54 9.77C34.55 9.71 34.52 9.66 34.46 9.65C34.43 9.64 32.14 9.31 31.37 12.64C31.35 12.7 31.39 12.75 31.44 12.77C31.46 12.77 31.47 12.77 31.49 12.77Z" fill="#BDAD9C" fill-opacity="1.000000" fill-rule="nonzero"/>
	<path id="Vector" d="M41.02 22.12L40.69 20.17L37.05 20.47L37.09 21.18L41.02 22.12Z" fill="#371D15" fill-opacity="1.000000" fill-rule="nonzero"/>
	<path id="Vector" d="M43.04 13.59C43.11 17.21 42.78 19.25 44.55 20.69C44.92 21 42.91 20.96 41.46 20.23C40.73 19.87 37.78 18.2 39.23 15.1C40.74 11.86 43.04 13.59 43.04 13.59Z" fill="#7A7676" fill-opacity="1.000000" fill-rule="nonzero"/>
	<path id="Vector" d="M43.15 15.43C43.15 15.48 43.15 15.53 43.15 15.57C43.15 15.59 43.15 15.6 43.15 15.62C43.14 15.73 43.14 15.85 43.13 15.96C43.12 16.22 43.1 16.49 43.06 16.76C43.04 16.91 43.02 17.05 42.99 17.19C42.99 17.2 42.99 17.2 42.98 17.21C42.97 17.3 42.95 17.39 42.93 17.48C42.91 17.55 42.9 17.62 42.88 17.69C42.58 18.87 42 20.02 40.85 20.72C40.12 21.16 38.98 21.47 37.45 21.02L41.02 22.12L41.15 22.82C40.69 23.76 34.93 23.93 34.12 22.85C34.12 22.85 34.58 19.27 34.52 19.13C34.32 18.67 34.22 18.2 34.18 17.93C33.44 18.06 32.86 17.46 32.67 16.34C32.41 14.85 33.28 14.41 33.87 14.91C33.99 15.01 34.08 15.1 34.17 15.18C34.31 15.31 34.44 15.39 34.56 15.38C34.73 15.38 34.82 14.58 34.89 14.18C35.02 13.39 35.05 12.14 36.6 11.74C39.04 11.12 38.71 10.11 39.94 9.94C41.16 9.77 42.44 11.1 42.9 12.78C43.05 13.34 43.12 13.77 43.15 15.07C43.15 15.19 43.15 15.31 43.15 15.43Z" fill="#FCC49A" fill-opacity="1.000000" fill-rule="nonzero"/>
	<path id="Vector" d="M41.95 13.59C41.33 13.5 40.8 13.77 40.79 13.77C40.75 13.8 40.73 13.86 40.75 13.91C40.78 13.95 40.84 13.97 40.88 13.95C40.93 13.93 41.91 13.43 42.72 14.18C42.76 14.21 42.83 14.21 42.86 14.17C42.9 14.13 42.9 14.07 42.86 14.03C42.56 13.76 42.25 13.64 41.95 13.59Z" fill="#7A7676" fill-opacity="1.000000" fill-rule="nonzero"/>
	<path id="Vector" d="M37.22 13.61C37.84 13.49 38.38 13.74 38.39 13.74C38.44 13.77 38.46 13.82 38.43 13.87C38.41 13.92 38.35 13.94 38.3 13.92C38.26 13.9 37.26 13.44 36.47 14.22C36.44 14.26 36.37 14.26 36.34 14.22C36.3 14.18 36.3 14.12 36.34 14.08C36.62 13.8 36.93 13.66 37.22 13.61Z" fill="#7A7676" fill-opacity="1.000000" fill-rule="nonzero"/>
	<path id="Vector" d="M39.76 17.02C39.98 17.02 40.18 16.96 40.33 16.83C40.5 16.69 40.57 16.49 40.53 16.3C40.45 15.93 40.38 15.58 40.33 15.29C40.3 15.15 40.11 15.19 40.14 15.34C40.19 15.63 40.26 15.97 40.34 16.34C40.37 16.46 40.32 16.58 40.21 16.68C40.06 16.8 39.77 16.89 39.43 16.75C39.38 16.73 39.32 16.76 39.3 16.81C39.28 16.86 39.3 16.92 39.35 16.94C39.49 16.99 39.63 17.02 39.76 17.02Z" fill="#371D15" fill-opacity="1.000000" fill-rule="nonzero"/>
	<path id="Vector" d="M42.04 14.95C42.05 15.04 42.03 15.12 42 15.19C41.98 15.25 41.95 15.3 41.9 15.35L41.49 15.45C41.48 15.45 41.48 15.46 41.47 15.46L41.46 15.46C41.44 15.45 41.41 15.43 41.39 15.42C41.26 15.33 41.17 15.18 41.16 14.99C41.15 14.71 41.33 14.47 41.58 14.46C41.82 14.45 42.03 14.67 42.04 14.95Z" fill="#371D15" fill-opacity="1.000000" fill-rule="nonzero"/>
	<path id="Vector" d="M38.05 14.95C38.05 15.16 37.94 15.34 37.78 15.42C37.77 15.43 37.75 15.43 37.74 15.44L37.74 15.44C37.73 15.44 37.73 15.44 37.72 15.44C37.71 15.44 37.7 15.44 37.69 15.43L37.32 15.33C37.26 15.27 37.22 15.2 37.2 15.12C37.18 15.07 37.17 15.01 37.17 14.94C37.17 14.66 37.37 14.43 37.61 14.43C37.86 14.43 38.05 14.66 38.05 14.95Z" fill="#371D15" fill-opacity="1.000000" fill-rule="nonzero"/>
	<path id="Vector" d="M41.95 15.34L41.91 15.35L41.5 15.46C41.49 15.46 41.48 15.46 41.47 15.46L41.47 15.46C41.44 15.46 41.41 15.44 41.39 15.42C41.39 15.41 41.38 15.4 41.38 15.38C41.36 15.33 41.4 15.28 41.45 15.26L41.9 15.15C41.94 15.14 41.99 15.16 42.01 15.2C42.01 15.2 42.02 15.21 42.02 15.22C42.03 15.27 42 15.33 41.95 15.34Z" fill="#371D15" fill-opacity="1.000000" fill-rule="nonzero"/>
	<path id="Vector" d="M37.82 15.37C37.81 15.39 37.8 15.41 37.78 15.42C37.77 15.43 37.75 15.44 37.74 15.44L37.74 15.44C37.73 15.44 37.73 15.44 37.72 15.44C37.71 15.44 37.7 15.44 37.69 15.44L37.23 15.3C37.17 15.29 37.14 15.23 37.16 15.18C37.16 15.16 37.18 15.14 37.2 15.13C37.22 15.11 37.25 15.1 37.28 15.11L37.75 15.24C37.8 15.26 37.83 15.31 37.82 15.37Z" fill="#371D15" fill-opacity="1.000000" fill-rule="nonzero"/>
	<path id="Vector" d="M39.45 18.31C39.81 18.31 40.13 18.2 40.37 18.07C40.42 18.04 40.43 17.98 40.41 17.93C40.38 17.88 40.32 17.87 40.27 17.89C39.88 18.12 39.25 18.23 38.64 17.89C38.59 17.87 38.53 17.88 38.5 17.93C38.47 17.98 38.49 18.04 38.54 18.07C38.85 18.24 39.16 18.31 39.45 18.31Z" fill="#371D15" fill-opacity="1.000000" fill-rule="nonzero"/>
	<path id="Vector" d="M37.83 16.57C37.88 17.1 37.46 17.57 36.9 17.62C36.34 17.67 35.85 17.28 35.8 16.75C35.76 16.22 36.17 15.75 36.73 15.7C37.29 15.65 37.78 16.04 37.83 16.57Z" fill="#DD7F60" fill-opacity="1.000000" fill-rule="nonzero"/>
	<path id="Vector" d="M43.15 15.62C43.14 15.73 43.14 15.85 43.13 15.96C43.12 16.23 43.09 16.5 43.06 16.77C43.04 16.91 43.02 17.05 42.99 17.19C42.99 17.2 42.99 17.21 42.98 17.21C42.97 17.3 42.95 17.39 42.93 17.48C42.91 17.49 42.9 17.49 42.88 17.49C42.33 17.54 41.83 17.15 41.79 16.62C41.74 16.09 42.16 15.62 42.72 15.57C42.87 15.56 43.01 15.57 43.15 15.62Z" fill="#DD7F60" fill-opacity="1.000000" fill-rule="nonzero"/>
	<path id="Vector" d="M34.95 13.66C34.75 15.37 34.03 20.21 36.4 21.29C36.83 21.48 34.75 21.55 33.31 20.83C32.58 20.46 29.62 18.79 31.07 15.7C32.59 12.46 34.95 13.66 34.95 13.66Z" fill="#7A7676" fill-opacity="1.000000" fill-rule="nonzero"/>
	<path id="Vector" d="M37.03 101.79L45.87 101.82C46.46 101.82 46.94 101.48 46.94 100.9C46.94 100.45 46.86 99.95 46.78 99.49C46.71 99.08 50.07 83.79 50.85 74.94L44.25 75.02L42.46 98.1C42.46 98.34 42.31 98.56 42.07 98.64C41.49 98.84 40.42 99.14 39.39 99.44C38.54 99.69 37.72 99.94 37.22 100.14C35.76 100.71 36.56 101.79 37.03 101.79Z" fill="#FCC49A" fill-opacity="1.000000" fill-rule="nonzero"/>
	<path id="Vector" d="M37.03 101.79L45.87 101.81C46.46 101.81 46.94 101.48 46.94 100.89C46.94 100.44 46.86 99.95 46.78 99.49C46.45 99.41 46.07 99.41 45.62 99.53C43.97 99.96 42.1 100.41 41.64 100.37C40.9 100.3 39.97 99.69 39.39 99.43C38.54 99.68 37.72 99.93 37.22 100.13C35.76 100.71 36.56 101.79 37.03 101.79Z" fill="#D3C1AE" fill-opacity="1.000000" fill-rule="nonzero"/>
	<path id="Vector" d="M42.52 97.31L42.66 95.44L47.56 95.82L42.52 97.31Z" fill="#371D15" fill-opacity="1.000000" fill-rule="nonzero"/>
	<path id="Vector" d="M65.2 89.53L64.57 97.42L65.22 99.5L59.89 99.57L59.99 97.47L59.79 87.68L65.2 89.53Z" fill="#FCC49A" fill-opacity="1.000000" fill-rule="nonzero"/>
	<path id="Vector" d="M59.9 99.5C61.12 98.58 63.2 98.36 65.23 99.5C65.23 99.5 65.55 100.45 65.55 100.9C65.55 101.49 64.99 101.82 64.54 101.82L60.6 101.82C60.15 101.82 59.78 101.49 59.78 100.9C59.77 100.45 59.84 99.96 59.9 99.5Z" fill="#D3C1AE" fill-opacity="1.000000" fill-rule="nonzero"/>
	<path id="Vector" d="M59.95 95.83L64.57 97.41L64.74 95.69L59.95 95.83Z" fill="#371D15" fill-opacity="1.000000" fill-rule="nonzero"/>
	<path id="Vector" d="M67.31 95.82C67.31 95.82 69.03 61.73 68.41 53.31C68.02 47.89 63.8 41.74 63.8 41.74C58.86 41.09 53.57 41.29 48.67 41.94C48.67 41.94 45.99 47.72 45.07 51.87C43.79 57.61 39.83 95.82 39.83 95.82L50.1 95.82L56.5 60.06L57.36 95.82C57.44 95.82 67.31 95.82 67.31 95.82Z" fill="#C6F432" fill-opacity="1.000000" fill-rule="nonzero"/>
	<path id="Vector" d="M63.38 8.29C63.38 8.29 66.82 8.09 66.35 13.7C66.2 15.51 66.48 20.08 61.38 22.47C58.67 23.74 55.9 28.27 55.41 28.06C44.89 23.49 56.81 18.91 53.02 14.37C47.44 7.69 57.71 1.85 63.38 8.29Z" fill="#1A1A1A" fill-opacity="1.000000" fill-rule="nonzero"/>
	<path id="Vector" d="M62.36 16.28C62.11 17.32 61.46 17.89 60.84 17.67C60.77 18 60.58 18.65 60.23 19.15L61.26 23.46C57.78 26.08 54.49 23.86 54.49 23.86L54.49 21.49L57.59 20.37C56.13 20.69 55.08 20.33 54.42 19.87C53.39 19.14 52.92 18.03 52.71 16.9C52.68 16.74 52.66 16.59 52.64 16.43C52.63 16.3 52.61 16.16 52.6 16.03C52.59 15.77 52.58 15.52 52.58 15.27C52.58 15.1 52.59 14.94 52.6 14.78C52.61 14.66 52.62 14.55 52.62 14.44C52.73 13.22 52.99 12.85 53 12.31C53.03 10.93 54.38 8.5 57.02 9.31C58.42 9.74 60.1 10.92 60.41 14.74C60.43 15.09 60.49 15.25 60.65 15.27C60.75 15.28 60.89 15.22 61.02 15.1C61.11 15.03 61.21 14.95 61.32 14.86C61.9 14.43 62.69 14.9 62.36 16.28Z" fill="#FCC49A" fill-opacity="1.000000" fill-rule="nonzero"/>
	<path id="Vector" d="M53.98 12.49C54.57 12.44 55.04 12.73 55.05 12.73C55.09 12.76 55.1 12.81 55.08 12.86C55.05 12.9 55 12.91 54.95 12.89C54.91 12.86 54.02 12.33 53.21 12.98C53.17 13.02 53.12 13.01 53.08 12.97C53.05 12.93 53.06 12.87 53.1 12.84C53.39 12.6 53.7 12.51 53.98 12.49Z" fill="#1A1A1A" fill-opacity="1.000000" fill-rule="nonzero"/>
	<path id="Vector" d="M58.61 12.9C58.05 12.71 57.52 12.87 57.51 12.87C57.47 12.88 57.44 12.93 57.45 12.98C57.47 13.03 57.52 13.06 57.57 13.04C57.61 13.03 58.61 12.74 59.23 13.57C59.26 13.61 59.31 13.62 59.36 13.59C59.4 13.56 59.4 13.5 59.37 13.46C59.15 13.16 58.88 12.99 58.61 12.9Z" fill="#1A1A1A" fill-opacity="1.000000" fill-rule="nonzero"/>
	<path id="Vector" d="M54.48 14.03C54.45 14.31 54.24 14.52 54 14.5C53.76 14.48 53.58 14.23 53.61 13.95C53.63 13.67 53.85 13.47 54.09 13.49C54.33 13.51 54.5 13.75 54.48 14.03Z" fill="#1A1A1A" fill-opacity="1.000000" fill-rule="nonzero"/>
	<path id="Vector" d="M58.42 14.44C58.39 14.72 58.18 14.93 57.94 14.91C57.7 14.89 57.52 14.64 57.55 14.36C57.57 14.08 57.79 13.88 58.03 13.9C58.27 13.92 58.44 14.16 58.42 14.44Z" fill="#1A1A1A" fill-opacity="1.000000" fill-rule="nonzero"/>
	<path id="Vector" d="M55.79 16.23C55.59 16.2 55.42 16.11 55.3 15.96C55.16 15.8 55.13 15.61 55.2 15.44C55.34 15.11 55.45 14.8 55.55 14.54C55.6 14.42 55.77 14.49 55.72 14.62C55.62 14.88 55.51 15.18 55.37 15.51C55.33 15.62 55.35 15.74 55.44 15.85C55.55 15.98 55.81 16.12 56.15 16.04C56.2 16.03 56.24 16.06 56.26 16.11C56.27 16.16 56.23 16.21 56.18 16.22C56.05 16.25 55.92 16.25 55.79 16.23Z" fill="#1A1A1A" fill-opacity="1.000000" fill-rule="nonzero"/>
	<path id="Vector" d="M59.84 16.41C59.8 16.89 59.35 17.24 58.84 17.2C58.34 17.15 57.96 16.72 58.01 16.24C58.05 15.76 58.5 15.41 59 15.46C59.51 15.51 59.88 15.93 59.84 16.41Z" fill="#DD7F60" fill-opacity="1.000000" fill-rule="nonzero"/>
	<path id="Vector" d="M52.6 14.77C52.59 14.93 52.58 15.09 52.58 15.26C52.58 15.51 52.58 15.76 52.6 16.02C52.61 16.15 52.62 16.29 52.64 16.42C52.7 16.44 52.77 16.45 52.83 16.46C53.34 16.51 53.78 16.15 53.83 15.68C53.87 15.2 53.5 14.77 52.99 14.72C52.85 14.71 52.72 14.73 52.6 14.77Z" fill="#DD7F60" fill-opacity="1.000000" fill-rule="nonzero"/>
	<path id="Vector" d="M57 16.93C57.14 16.89 56.91 17.82 56.09 17.82C55.2 17.82 54.99 16.82 55.19 16.9C55.83 17.26 56.49 17.17 57 16.93Z" fill="#EADED5" fill-opacity="1.000000" fill-rule="nonzero"/>
	<path id="Vector" d="M58.2 14.19C58.22 14.19 58.24 14.18 58.26 14.17C58.3 14.14 58.31 14.08 58.28 14.03C58.27 14.01 58.1 13.79 57.6 13.86C57.54 13.87 57.5 13.92 57.51 13.97C57.52 14.03 57.57 14.06 57.62 14.06C58.01 14 58.12 14.14 58.12 14.15C58.14 14.17 58.17 14.19 58.2 14.19Z" fill="#1A1A1A" fill-opacity="1.000000" fill-rule="nonzero"/>
	<path id="Vector" d="M54.32 13.86C54.35 13.86 54.37 13.85 54.39 13.83C54.43 13.79 54.43 13.73 54.39 13.69C54.38 13.68 54.38 13.67 54.37 13.66C54.3 13.57 54.16 13.4 53.65 13.46C53.6 13.47 53.56 13.52 53.57 13.57C53.57 13.63 53.62 13.67 53.68 13.66C54.08 13.61 54.16 13.72 54.22 13.79C54.23 13.8 54.24 13.82 54.25 13.83C54.27 13.85 54.3 13.86 54.32 13.86Z" fill="#1A1A1A" fill-opacity="1.000000" fill-rule="nonzero"/>
	<path id="Vector" d="M61.08 17.9C60.85 17.9 60.68 17.81 60.57 17.64C60.54 17.59 60.55 17.54 60.59 17.51C60.63 17.48 60.69 17.5 60.71 17.54C60.83 17.71 60.99 17.75 61.28 17.7C61.33 17.69 61.37 17.72 61.38 17.77C61.39 17.81 61.36 17.86 61.31 17.87C61.23 17.89 61.15 17.9 61.08 17.9Z" fill="#1A1A1A" fill-opacity="1.000000" fill-rule="nonzero"/>
	<path id="Vector" d="M49.55 33.45L48.5 41.36C48.68 41.48 59.15 42.5 66.03 41.6L65.6 34.36L69.07 36.32L71.16 36.56C71.23 34.39 71.46 28.21 69.65 25.68C67.86 23.2 64.75 22.38 60.69 22.21C58.82 23.15 55.94 23.21 54.55 22.16C51.78 22.45 47.75 22.61 46.01 25.76C44.27 28.9 43.24 34.37 43.2 34.45C43.3 34.37 49.55 33.45 49.55 33.45Z" fill="#FF6699" fill-opacity="1.000000" fill-rule="nonzero"/>
	<path id="Vector" d="M51.3 22.59C48.47 23.18 45.13 24.39 42.1 30.44C39.77 35.1 38.36 37.21 37.96 39.65C37.48 42.54 42.3 45.6 47.42 45.08C50.64 44.75 58.97 44.06 58.97 44.06C59.09 44.04 51.42 42.22 51.42 42.22C51.42 42.22 51.42 41.57 51.43 40.51C51.46 35.92 51.53 23.65 51.3 22.59Z" fill="#FF6699" fill-opacity="1.000000" fill-rule="nonzero"/>
	<path id="Vector" d="M60.87 17.69C60.41 18.76 59.71 19.76 59.22 20.92C57.71 24.48 59.98 27.29 61.92 28.22C62.57 28.52 62.65 27.6 62.7 27.24C63.12 23.75 67.51 23.55 68.04 24.07C69.61 23.02 68.82 20.31 68.04 18.54C67.43 17.16 66.33 15.18 66.39 12.88C66.43 11.36 63.99 18.81 60.87 17.69Z" fill="#1A1A1A" fill-opacity="1.000000" fill-rule="nonzero"/>
	<path id="Vector" d="M52.29 29.49C51.91 28.24 49.92 26.01 48.67 24.34L47.92 25.21L53.7 21.5L52.21 19.19C52.21 19.19 47.93 20.42 45.65 22.16C44.17 23.29 44.76 24.74 45.19 27.16C45.61 29.52 46.5 33.6 46.5 33.6C46.5 33.6 52.1 31.31 52.29 29.49Z" fill="#FBFBFB" fill-opacity="1.000000" fill-rule="nonzero"/>
	<path id="Vector" d="M62.08 54.46L60.44 52.31L63.03 51.66L64.55 54.46L62.08 54.46Z" fill="#FCC49A" fill-opacity="1.000000" fill-rule="nonzero"/>
	<path id="Vector" d="M64.55 54.46C64.55 54.46 66.19 55.04 67.06 55.46C67.5 55.68 67.45 56.36 67.07 56.36C67.07 56.36 63.14 56.36 62.4 56.36C61.34 56.36 62.08 54.46 62.08 54.46L64.55 54.46Z" fill="#371D15" fill-opacity="1.000000" fill-rule="nonzero"/>
	<path id="Vector" d="M45.32 39L54.2 39.67L54 42.15C54 42.15 56.72 42.76 57.55 42.94C60 43.47 60.55 43.94 61.59 46.49C62.48 48.67 64.5 52.99 64.5 52.99L61.34 54.32L55.59 48.05C53.5 48.02 51.96 47.81 49.33 47.74C45.81 47.65 45.32 45.37 45.32 41.89C45.32 41.17 45.32 39 45.32 39Z" fill="#00679D" fill-opacity="1.000000" fill-rule="nonzero"/>
	<path id="Vector" d="M53.41 17.17C52.27 16.56 50.68 15.83 48.94 17.5C45.81 17.08 45.65 24.79 48.74 25.26C49.46 26.04 54.84 25.43 53.65 24.68C53.87 24.4 54.15 22.82 54.62 22.6C55.94 22 56.03 18.56 53.41 17.17Z" fill="#1A1A1A" fill-opacity="1.000000" fill-rule="nonzero"/>
	<path id="Vector" d="M54.9 23.03C54.89 23.1 54.88 23.18 54.87 23.26C54.87 23.31 54.86 23.35 54.85 23.4C54.84 23.47 54.83 23.54 54.81 23.6C54.78 23.77 54.74 23.95 54.69 24.12C54.66 24.21 54.63 24.3 54.6 24.39C54.59 24.44 54.57 24.49 54.55 24.53C54.53 24.59 54.51 24.65 54.48 24.7C54.17 25.45 53.66 26.16 52.79 26.52C52.23 26.75 51.4 26.86 50.37 26.46L51.77 26.44L51.77 27.95C51.77 27.95 49.77 29.73 47.56 27.49C47.56 27.49 48.54 24.8 48.57 24.8C48.47 24.54 48.42 24.31 48.41 24.2C48.02 24.34 47.6 24.03 47.56 23.28C47.51 22.3 48.02 22.06 48.39 22.43C48.47 22.51 48.53 22.57 48.58 22.63C48.67 22.73 48.75 22.79 48.83 22.8C48.95 22.81 49.05 22.71 49.09 22.47C49.24 21.56 49.46 20.49 50.58 20.36C52.36 20.14 52.21 19.46 53.1 19.44C53.97 19.42 54.75 20.39 54.93 21.52C54.98 21.89 55 22.17 54.9 23.03Z" fill="#FCC49A" fill-opacity="1.000000" fill-rule="nonzero"/>
	<path id="Vector" d="M53.54 22.7C53.52 22.9 53.64 23.07 53.81 23.08C53.98 23.1 54.13 22.96 54.15 22.76C54.17 22.57 54.05 22.4 53.88 22.38C53.71 22.37 53.56 22.51 53.54 22.7Z" fill="#371D15" fill-opacity="1.000000" fill-rule="nonzero"/>
	<path id="Vector" d="M50.93 22.52C50.91 22.72 51.03 22.89 51.2 22.9C51.37 22.92 51.52 22.78 51.54 22.58C51.56 22.39 51.44 22.22 51.27 22.2C51.1 22.18 50.95 22.33 50.93 22.52Z" fill="#371D15" fill-opacity="1.000000" fill-rule="nonzero"/>
	<path id="Vector" d="M49.58 23.49C49.55 23.83 49.81 24.13 50.16 24.16C50.52 24.2 50.83 23.95 50.86 23.62C50.89 23.28 50.63 22.99 50.28 22.95C49.93 22.92 49.61 23.16 49.58 23.49Z" fill="#DD7F60" fill-opacity="1.000000" fill-rule="nonzero"/>
	<path id="Vector" d="M54.85 23.39C54.84 23.46 54.83 23.53 54.81 23.6C54.78 23.77 54.74 23.94 54.69 24.11C54.66 24.2 54.63 24.29 54.6 24.38C54.59 24.43 54.57 24.48 54.55 24.53C54.53 24.53 54.5 24.53 54.48 24.52C54.12 24.49 53.86 24.19 53.9 23.86C53.93 23.52 54.24 23.28 54.59 23.31C54.69 23.32 54.77 23.35 54.85 23.39Z" fill="#DD7F60" fill-opacity="1.000000" fill-rule="nonzero"/>
	<path id="Vector" d="M48.21 24.41C48.14 24.41 48.08 24.4 48.02 24.38C47.98 24.37 47.95 24.32 47.97 24.27C47.98 24.22 48.03 24.2 48.08 24.21C48.23 24.26 48.39 24.22 48.51 24.1C48.55 24.07 48.6 24.07 48.64 24.1C48.67 24.14 48.67 24.19 48.64 24.23C48.52 24.35 48.36 24.41 48.21 24.41Z" fill="#371D15" fill-opacity="1.000000" fill-rule="nonzero"/>
	<path id="Vector" d="M54.55 22.25C54.51 22.25 54.48 22.23 54.46 22.19C54.46 22.17 54.31 21.76 53.61 21.82C53.56 21.82 53.52 21.79 53.52 21.74C53.51 21.69 53.55 21.64 53.6 21.64C54.45 21.57 54.63 22.12 54.63 22.14C54.65 22.19 54.62 22.24 54.57 22.25C54.57 22.25 54.56 22.25 54.55 22.25Z" fill="#371D15" fill-opacity="1.000000" fill-rule="nonzero"/>
	<path id="Vector" d="M50.5 21.82C50.47 21.82 50.44 21.81 50.43 21.78C50.4 21.74 50.41 21.69 50.44 21.66C51.02 21.24 51.71 21.49 51.73 21.5C51.78 21.52 51.8 21.57 51.79 21.62C51.77 21.66 51.72 21.69 51.67 21.67C51.66 21.66 51.04 21.44 50.55 21.8C50.53 21.81 50.52 21.82 50.5 21.82Z" fill="#371D15" fill-opacity="1.000000" fill-rule="nonzero"/>
	<path id="Vector" d="M52.41 23.88C52.26 23.88 52.13 23.83 52.12 23.82C52.07 23.81 52.05 23.75 52.07 23.71C52.09 23.66 52.14 23.64 52.19 23.66C52.19 23.66 52.47 23.77 52.6 23.64C52.74 23.49 52.71 23.36 52.55 22.87L52.55 22.85C52.53 22.8 52.56 22.75 52.6 22.73C52.65 22.72 52.7 22.75 52.72 22.79L52.72 22.82C52.87 23.29 52.95 23.53 52.73 23.76C52.64 23.85 52.52 23.88 52.41 23.88Z" fill="#371D15" fill-opacity="1.000000" fill-rule="nonzero"/>
	<path id="Vector" d="M52.33 24.75C52.14 24.75 51.91 24.68 51.67 24.48C51.63 24.45 51.62 24.39 51.66 24.36C51.69 24.32 51.74 24.31 51.78 24.35C52.28 24.77 52.7 24.47 52.71 24.46C52.75 24.43 52.81 24.43 52.84 24.47C52.87 24.51 52.86 24.57 52.82 24.6C52.82 24.6 52.62 24.75 52.33 24.75Z" fill="#371D15" fill-opacity="1.000000" fill-rule="nonzero"/>
	<path id="Vector" d="M60.27 28.86C60.38 28.39 60.47 28.13 60.84 27.83C61.06 27.65 61.35 27.43 61.57 27.09C61.68 26.91 61.82 26.82 61.95 26.9C62.08 26.98 62.04 27.09 61.99 27.24C61.93 27.46 61.62 27.98 61.61 28C61.66 28.01 62.4 27.37 62.4 27.37L62.91 26.79C62.97 26.7 63.1 26.68 63.2 26.75C63.24 26.79 63.27 26.83 63.27 26.88C63.27 26.88 63.4 26.72 63.58 26.83C63.79 26.95 63.55 27.27 63.54 27.29C63.59 27.19 63.72 27.13 63.81 27.19C63.91 27.24 63.93 27.35 63.9 27.46C63.88 27.54 63.75 27.78 63.7 27.87C63.75 27.83 63.82 27.82 63.88 27.84C63.97 27.87 64.05 27.99 64 28.09C63.83 28.45 63.63 28.8 63.41 29.08C62.98 29.61 61.64 30.15 61.64 30.15L59.59 32.23L56.79 31.55C56.79 31.55 60.17 29.31 60.27 28.86Z" fill="#FCC49A" fill-opacity="1.000000" fill-rule="nonzero"/>
	<path id="Vector" d="M51.17 26.83C52.25 27.56 53.78 30.14 54.99 31.83L53.94 32.29L59.84 28.71L61.6 30.83C59.85 32.49 56.36 36.24 54.84 36.44C52.88 36.69 51.83 35.02 49.53 33.47C47.61 32.18 49.38 26.46 51.17 26.83Z" fill="#FBFBFB" fill-opacity="1.000000" fill-rule="nonzero"/>
	<path id="Vector" d="M52.16 27.55C51.22 26.38 48.43 25.31 47.56 25.84C43.68 28.21 45.32 39.52 45.32 39.52L54.2 39.67C54.26 38.62 55.15 31.29 52.16 27.55Z" fill="#FBFBFB" fill-opacity="1.000000" fill-rule="nonzero"/>
	<path id="Vector" d="M53.04 26.4C52.22 26.83 51.28 26.83 50.32 26.5C49.39 26.2 48.64 25.43 48.44 24.42C48.43 24.35 53.04 26.4 53.04 26.4Z" fill="#FCC49A" fill-opacity="1.000000" fill-rule="nonzero"/>
	<path id="Vector" d="M54.33 36.63C53.38 36.63 52.05 35.82 50.36 34.23C50.32 34.2 50.32 34.14 50.35 34.1C50.39 34.07 50.44 34.07 50.48 34.1C52.21 35.73 53.59 36.54 54.49 36.44C54.53 36.44 54.58 36.47 54.58 36.52C54.59 36.57 54.55 36.62 54.51 36.62C54.45 36.63 54.39 36.63 54.33 36.63Z" fill="#371D15" fill-opacity="1.000000" fill-rule="nonzero"/>
	<path id="Vector" d="M45.42 29.51C45.41 29.51 45.41 29.51 45.4 29.51C45.35 29.5 45.32 29.45 45.33 29.4C45.51 28.67 45.77 28.02 46.07 27.54C46.09 27.5 46.15 27.48 46.19 27.51C46.23 27.53 46.25 27.59 46.22 27.63C45.93 28.1 45.68 28.73 45.51 29.45C45.5 29.49 45.46 29.51 45.42 29.51Z" fill="#371D15" fill-opacity="1.000000" fill-rule="nonzero"/>
	<path id="Vector" d="M53.15 48.79C54 48.85 54.82 45.79 53.95 45.04C51.59 45.38 49.7 47.91 52.03 48.39C52.05 48.4 52.41 48.73 53.15 48.79Z" fill="#371D15" fill-opacity="1.000000" fill-rule="nonzero"/>
	<path id="Vector" d="M59.02 43.44C59.5 43.4 59.8 43.43 59.84 43.61C59.9 43.83 59.6 44.15 58.96 44.27C57.84 44.5 57.12 44.68 57.08 44.75C57.07 44.76 53.15 44.12 53.15 44.12C53.2 44.11 54.6 43.64 55.83 43.39C56.98 43.16 57.82 43.55 59.02 43.44Z" fill="#FCC49A" fill-opacity="1.000000" fill-rule="nonzero"/>
	<path id="Vector" d="M51.96 43.39C52.3 43.48 54.1 43.75 54.18 43.75C54.23 43.75 57.76 44.12 58.03 44.18C58.03 44.18 59.37 44.25 60.45 44.24C60.98 44.24 61.55 44.33 61.54 44.58C61.54 44.8 61.28 44.95 61.07 44.98C61.12 44.98 61.17 44.99 61.23 44.99C61.66 45.02 61.97 45.14 61.98 45.36C62.01 45.82 61.17 45.9 61.09 45.89C61.11 45.9 61.58 45.96 61.51 46.3C61.47 46.51 61.05 46.59 60.5 46.73C60.26 46.78 59.81 46.82 59.81 46.82C60.13 46.87 60.31 47.03 60.33 47.15C60.37 47.39 60.14 47.56 59.43 47.63C58.61 47.7 57.55 47.72 56.89 47.74C55.69 47.79 54.42 47.71 53.49 47.37C53.32 47.31 47.53 47.13 47.53 47.13C46.31 46.8 50.9 43.19 51.96 43.39Z" fill="#FCC49A" fill-opacity="1.000000" fill-rule="nonzero"/>
	<path id="Vector" d="M57.25 46.81C57.25 46.86 57.3 46.91 57.37 46.91C58.23 46.91 59.5 46.87 59.51 46.87C59.58 46.87 59.63 46.82 59.63 46.76C59.63 46.7 59.57 46.66 59.51 46.66C59.49 46.66 58.23 46.7 57.37 46.7C57.3 46.7 57.25 46.75 57.25 46.8C57.25 46.8 57.25 46.81 57.25 46.81Z" fill="#371D15" fill-opacity="1.000000" fill-rule="nonzero"/>
	<path id="Vector" d="M57.87 45.14C57.87 45.19 57.91 45.22 57.97 45.23C58.74 45.3 60.82 45.16 60.9 45.15C60.97 45.15 61.02 45.1 61.02 45.04C61.01 44.98 60.95 44.94 60.89 44.95C60.87 44.95 59.11 45.07 58 45.02C57.94 45.02 57.88 45.06 57.87 45.12C57.87 45.12 57.87 45.13 57.87 45.14Z" fill="#371D15" fill-opacity="1.000000" fill-rule="nonzero"/>
	<path id="Vector" d="M38.75 37.15C36.58 41.69 39.07 45.57 42.43 46.36C46.27 47.26 52.99 48.82 53.15 48.79C52.16 48.66 51.8 43.31 53.81 43.66L44.53 38.01C44.53 38.01 39.75 35.06 38.75 37.15Z" fill="#FF6699" fill-opacity="1.000000" fill-rule="nonzero"/>
	<path id="Vector" d="M55.32 45.42C54.04 45.19 55.15 40.96 56.26 40.65C58.25 41.95 58 45.94 55.69 45.39C55.67 45.38 55.34 45.42 55.32 45.42Z" fill="#371D15" fill-opacity="1.000000" fill-rule="nonzero"/>
	<path id="Vector" d="M50.46 38.76C50.02 38.59 49.72 38.53 49.63 38.69C49.51 38.89 49.72 39.28 50.29 39.58C51.31 40.11 51.94 40.48 51.96 40.56C51.97 40.58 55.91 41.06 55.91 41.06C55.86 41.04 54.66 40.2 53.55 39.62C52.5 39.07 51.59 39.2 50.46 38.76Z" fill="#FCC49A" fill-opacity="1.000000" fill-rule="nonzero"/>
	<path id="Vector" d="M57.26 40.7C56.91 40.69 55.07 40.43 54.99 40.41C54.94 40.4 51.49 39.77 51.21 39.75C51.21 39.75 49.91 39.43 48.87 39.13C48.36 38.97 47.79 38.9 47.73 39.14C47.67 39.35 47.87 39.57 48.07 39.65C48.02 39.65 47.97 39.63 47.91 39.62C47.49 39.53 47.17 39.56 47.09 39.77C46.93 40.2 47.72 40.51 47.8 40.53C47.77 40.52 47.31 40.45 47.28 40.8C47.26 41.01 47.63 41.21 48.12 41.49C48.34 41.62 48.76 41.78 48.76 41.78C48.44 41.73 48.22 41.84 48.17 41.95C48.06 42.17 48.24 42.4 48.9 42.66C49.67 42.96 50.68 43.28 51.31 43.49C52.44 43.87 53.68 44.16 54.67 44.09C54.85 44.08 60.45 45.54 60.45 45.54C61.72 45.56 58.33 40.81 57.26 40.7Z" fill="#FCC49A" fill-opacity="1.000000" fill-rule="nonzero"/>
	<path id="Vector" d="M51.22 42.5C51.2 42.55 51.14 42.57 51.08 42.56C50.25 42.32 49.04 41.92 49.03 41.91C48.97 41.89 48.93 41.83 48.95 41.78C48.96 41.73 49.03 41.7 49.09 41.72C49.1 41.72 50.31 42.12 51.13 42.36C51.2 42.38 51.23 42.44 51.22 42.49C51.22 42.49 51.22 42.5 51.22 42.5Z" fill="#371D15" fill-opacity="1.000000" fill-rule="nonzero"/>
	<path id="Vector" d="M50.93 41.53C50.91 41.57 50.86 41.59 50.8 41.58C50.04 41.45 48.08 40.74 48 40.71C47.94 40.69 47.9 40.63 47.92 40.57C47.94 40.52 48.01 40.49 48.07 40.52C48.09 40.52 49.68 41.1 50.83 41.38C50.89 41.39 50.94 41.45 50.93 41.5C50.93 41.51 50.93 41.52 50.93 41.53Z" fill="#371D15" fill-opacity="1.000000" fill-rule="nonzero"/>
	<path id="Vector" d="M51.1 40.71C51.08 40.75 51.03 40.78 50.97 40.77C50.22 40.62 48.26 39.9 48.18 39.87C48.12 39.84 48.08 39.78 48.1 39.73C48.12 39.67 48.19 39.65 48.25 39.67C48.27 39.68 49.93 40.29 51 40.56C51.06 40.58 51.11 40.63 51.1 40.69C51.1 40.7 51.1 40.7 51.1 40.71Z" fill="#371D15" fill-opacity="1.000000" fill-rule="nonzero"/>
	<path id="Vector" d="M72.17 43.03C71.12 46.58 71.87 47.64 66.18 46.91C61.82 46.35 56.48 45.57 55.32 45.4C56.44 45.53 57.16 40.6 55.75 40.52L67.06 39.39C67.06 39.39 72.83 40.81 72.17 43.03Z" fill="#FF6699" fill-opacity="1.000000" fill-rule="nonzero"/>
	<path id="Vector" d="M68.24 24.16C69.86 25.31 71.31 27.32 72.17 31.07C73.47 36.8 73.8 38.7 74.21 41.14C74.69 44.03 73.27 47.64 68.16 47.12C64.93 46.79 56.54 45.51 56.54 45.51C56.42 45.49 65.15 41.96 65.15 41.96C65.15 41.96 64.99 39.65 64.79 34.98C64.72 33.37 66.76 30.03 66.69 28.21C66.57 24.78 67.01 23.29 68.24 24.16Z" fill="#FF6699" fill-opacity="1.000000" fill-rule="nonzero"/>
	<path id="Vector" d="M64.79 34.96L65.68 39.53L64.56 39.66L64.79 34.96Z" fill="#371D15" fill-opacity="1.000000" fill-rule="nonzero"/>
	<path id="Vector" d="M39.82 50.27C41.27 50.84 42.24 45.87 41.38 45.3C39.49 45.11 36.12 48.6 39.82 50.27Z" fill="#1A1A1A" fill-opacity="1.000000" fill-rule="nonzero"/>
	<path id="Vector" d="M35.84 47.82C36.1 47.88 36 43.58 36.76 42.96C36.76 42.96 40.85 45.23 41.36 45.26C41.91 45.29 42.67 45 43.28 45.01C43.93 45.02 44.94 45.47 45.36 45.64C45.89 45.84 46.74 46.24 47.12 46.38C47.5 46.52 47.1 46.97 46.84 46.97C45.92 46.94 44.74 46.76 44.73 46.76C45.18 47.16 48.96 47.77 49.05 47.77C49.26 47.76 49.71 47.96 49.44 48.29C49.19 48.75 47.21 49.22 45.54 48.94C44.38 48.74 42.32 48.42 42.28 48.41C41.03 48.28 35.84 47.82 35.84 47.82Z" fill="#FCC49A" fill-opacity="1.000000" fill-rule="nonzero"/>
	<path id="Vector" d="M23.47 35.79C24.19 33.2 30.46 38.44 30.46 38.44L41.4 45.24C40.09 45.18 38.66 49.75 39.82 50.27C39.82 50.27 30.02 46.53 27.78 45.68C22.92 43.84 22.23 40.33 23.47 35.79Z" fill="#8CAACF" fill-opacity="1.000000" fill-rule="nonzero"/>
	<path id="Vector" d="M46.45 47.06C46.06 47.05 45.68 46.99 45.6 46.98C45.55 46.97 45.52 46.92 45.52 46.87C45.53 46.82 45.58 46.78 45.63 46.79C46.1 46.87 46.92 46.93 47.11 46.78C47.26 46.66 47.16 46.5 47.14 46.47C47.11 46.43 47.12 46.37 47.16 46.34C47.21 46.31 47.26 46.32 47.29 46.36C47.38 46.48 47.47 46.74 47.23 46.93C47.08 47.04 46.77 47.07 46.45 47.06Z" fill="#1A1A1A" fill-opacity="1.000000" fill-rule="nonzero"/>
	<path id="Vector" d="M109.62 60.38C109.39 61.38 105.4 60.74 105.19 59.87C106.45 57.79 109.68 58.95 109.62 60.38Z" fill="#371D15" fill-opacity="1.000000" fill-rule="nonzero"/>
	<path id="Vector" d="M104.4 61.85C104.65 61.2 105.23 60.53 105.21 60.38C105.21 59.88 105.03 55.8 105.33 55.34C106.26 53.91 108.69 55.45 108.7 56.15C108.71 57.38 107.87 61.08 107.89 61.22C108.1 62.59 108.14 62.86 108.02 63.8C107.9 64.66 107.81 64.86 107.65 65.48C107.52 66.02 107.34 66.18 107.16 66.11C107.07 66.08 106.97 65.92 106.97 65.66C106.97 65.66 106.86 66.2 106.81 66.39C106.73 66.78 106.61 66.99 106.36 67C106.08 67.02 106.08 66.55 106.08 66.53C106.07 66.59 106.06 66.66 106.05 66.73C105.99 67.06 105.75 67.26 105.54 67.15C105.39 67.06 105.32 66.85 105.35 66.51C105.36 66.46 105.36 66.42 105.37 66.39C105.32 66.55 105.17 66.7 105 66.7C104.83 66.7 104.65 66.52 104.72 66.11C104.9 64.99 105 64.35 104.99 63.82C104.99 63.74 105.02 63.33 105.06 62.87C104.94 63.09 104.52 63.89 104.41 64.15C104.32 64.4 104.19 64.57 103.95 64.5C103.81 64.46 103.69 64.29 103.81 63.87C103.95 63.37 104.12 62.54 104.4 61.85Z" fill="#FCC49A" fill-opacity="1.000000" fill-rule="nonzero"/>
	<path id="Vector" d="M107.23 63.79C107.27 63.8 107.3 63.85 107.29 63.89C107.2 64.57 107.02 65.56 107.02 65.57C107.01 65.62 106.97 65.66 106.93 65.65C106.88 65.64 106.85 65.59 106.86 65.54C106.86 65.53 107.03 64.55 107.13 63.87C107.13 63.82 107.18 63.79 107.22 63.79C107.22 63.79 107.22 63.79 107.23 63.79Z" fill="#371D15" fill-opacity="1.000000" fill-rule="nonzero"/>
	<path id="Vector" d="M106.47 64.02C106.5 64.03 106.53 64.06 106.53 64.11C106.51 64.71 106.19 66.33 106.18 66.4C106.17 66.45 106.12 66.48 106.08 66.48C106.03 66.47 106.01 66.42 106.02 66.37C106.02 66.35 106.28 65.04 106.37 64.11C106.37 64.06 106.4 64.02 106.45 64.02C106.46 64.02 106.46 64.02 106.47 64.02Z" fill="#371D15" fill-opacity="1.000000" fill-rule="nonzero"/>
	<path id="Vector" d="M105.7 63.91C105.74 63.91 105.77 63.95 105.76 63.99C105.75 64.6 105.43 66.22 105.41 66.29C105.4 66.34 105.36 66.37 105.31 66.36C105.27 66.35 105.24 66.3 105.25 66.25C105.26 66.24 105.53 64.87 105.6 64C105.6 63.95 105.64 63.9 105.68 63.9C105.69 63.9 105.7 63.9 105.7 63.91Z" fill="#371D15" fill-opacity="1.000000" fill-rule="nonzero"/>
	<path id="Vector" d="M104.65 52.11L105.19 59.87C106.1 59.06 109.77 59.72 109.63 60.38C109.63 60.38 109.96 56.86 110.56 52.88C111.01 49.89 110.8 47.93 107.67 47.59C107.67 47.59 104.61 50.55 104.65 52.11Z" fill="#FBFBFB" fill-opacity="1.000000" fill-rule="nonzero"/>
	<path id="Vector" d="M92.67 84.12C92.68 84.12 94.08 78.97 94.29 78.38L88.13 76.98L87.51 81.16L87.29 82.72L87.08 84.12L92.67 84.12Z" fill="#FCC49A" fill-opacity="1.000000" fill-rule="nonzero"/>
	<path id="Vector" d="M88.51 99.66C88.51 99.66 88.51 99.66 88.51 99.65C88.51 99.64 88.52 99.63 88.52 99.61C88.52 99.61 88.52 99.61 88.52 99.61C88.65 98.8 91.01 90.14 92.67 84.13L87.08 84.13L85.36 95.86L85.15 97.3L84.98 98.52C84.98 98.73 84.85 98.9 84.66 98.97C84.18 99.13 83.3 99.37 82.46 99.62C82.42 99.63 82.37 99.65 82.33 99.66C82.2 99.7 82.08 99.73 81.96 99.77C81.95 99.77 81.95 99.77 81.94 99.78C81.91 99.79 81.88 99.8 81.85 99.81C81.8 99.82 81.75 99.84 81.7 99.85C81.45 99.93 81.22 100 81.02 100.07C81.01 100.07 81.01 100.08 81 100.08C80.97 100.09 80.94 100.1 80.91 100.11C80.9 100.11 80.89 100.12 80.88 100.12C80.86 100.13 80.83 100.14 80.81 100.15C80.8 100.15 80.79 100.16 80.78 100.16C80.75 100.17 80.71 100.18 80.68 100.19C79.49 100.67 80.14 101.66 80.53 101.66L81.7 101.66L87.77 101.68C88.25 101.68 88.64 101.3 88.65 100.82C88.65 100.45 88.58 100.04 88.51 99.67C88.51 99.66 88.51 99.66 88.51 99.66Z" fill="#FF6699" fill-opacity="1.000000" fill-rule="nonzero"/>
	<path id="Vector" d="M80.53 101.66L87.77 101.68C88.25 101.68 88.65 101.3 88.65 100.82C88.65 100.45 88.58 100.04 88.52 99.67C88.25 99.61 87.93 99.6 87.57 99.7C86.22 100.06 84.69 100.42 84.31 100.39C83.7 100.33 82.94 99.83 82.46 99.62C81.77 99.83 81.1 100.03 80.69 100.19C79.49 100.67 80.14 101.66 80.53 101.66Z" fill="#B2502B" fill-opacity="1.000000" fill-rule="nonzero"/>
	<path id="Vector" d="M106.81 75.86L106.38 81.19L106.26 82.69L106.14 84.14L100.9 84.14L100.87 82.75L100.86 82.49L100.83 81.18L100.7 76.17L106.81 75.86Z" fill="#FCC49A" fill-opacity="1.000000" fill-rule="nonzero"/>
	<path id="Vector" d="M101.24 98.01L101.15 99.72L105.52 99.67L104.99 97.96L105.04 97.41L105.17 96L106.14 84.13L100.9 84.13L101.24 98.01Z" fill="#FF6699" fill-opacity="1.000000" fill-rule="nonzero"/>
	<path id="Vector" d="M101.17 99.69C102.17 98.93 103.87 98.75 105.53 99.69C105.53 99.69 105.79 100.47 105.79 100.84C105.79 101.31 105.34 101.7 104.97 101.7L101.74 101.7C101.37 101.7 101.07 101.31 101.06 100.84C101.06 100.47 101.12 100.06 101.17 99.69Z" fill="#B2502B" fill-opacity="1.000000" fill-rule="nonzero"/>
	<path id="Vector" d="M85.8 81.19L108.52 81.19C108.64 75.58 108.58 68.34 108.4 65.99C108.27 64.28 107.85 62.63 107.33 61.16C106.15 57.85 104.47 55.48 104.47 55.48C99.85 54.88 96.38 54.94 91.81 55.55C91.81 55.55 91.66 55.9 91.42 56.51C91.23 57.02 90.97 57.7 90.69 58.51C90.42 59.29 90.12 60.19 89.82 61.16C89.42 62.5 89.03 63.97 88.74 65.44C88.29 67.66 86.94 75.25 85.8 81.19Z" fill="#FFB3CC" fill-opacity="1.000000" fill-rule="nonzero"/>
	<path id="Vector" d="M93.83 27.65C94.13 31.78 90.92 34.67 92.05 37.3L97.07 37.3C98.34 35.68 96.49 31.71 97.07 29.13L93.83 27.65Z" fill="#1A1A1A" fill-opacity="1.000000" fill-rule="nonzero"/>
	<path id="Vector" d="M97.46 23.85C99.02 23.62 101.65 24.21 102.47 26.16C105.41 26.82 104.86 31.58 103.54 35.26C103.54 35.26 100.76 35.76 99.55 35.73C98.38 36.34 92.46 33.31 94.14 32.95C94.01 32.52 94.35 30.55 93.9 30.09C92.64 28.81 93.86 24.36 97.46 23.85Z" fill="#1A1A1A" fill-opacity="1.000000" fill-rule="nonzero"/>
	<path id="Vector" d="M93.17 32.19C93.17 32.07 93.18 31.95 93.19 31.83C93.2 31.61 93.23 31.39 93.26 31.18C93.27 31.09 93.29 31.01 93.3 30.92C93.31 30.86 93.33 30.81 93.34 30.75C93.36 30.65 93.38 30.56 93.4 30.46C93.65 29.42 93.79 29.1 94.01 28.68C94.69 27.44 96 26.64 96.99 27.04C98 27.44 97.55 28.18 99.5 29.19C100.73 29.83 100.7 30.93 100.66 32.23C100.65 32.53 100.3 34.77 100.24 34.86C100.24 34.87 100.24 34.87 100.24 34.87C100.15 35.02 100.69 37.82 100.69 37.82C97.2 39.5 95.62 37.82 95.62 37.82L95.65 37.3L97.18 36.51C96.68 36.49 96.22 36.42 95.78 36.28C95.76 36.27 95.73 36.26 95.7 36.25C95.46 36.17 95.24 36.07 95.02 35.95C95.02 35.94 95.02 35.94 95.01 35.94C94.99 35.93 94.97 35.92 94.94 35.9C94.92 35.89 94.89 35.87 94.87 35.86C94.86 35.85 94.84 35.84 94.83 35.83C94.81 35.82 94.79 35.8 94.76 35.79C94.76 35.78 94.75 35.78 94.74 35.77C94.6 35.67 94.47 35.57 94.36 35.46C94.35 35.46 94.35 35.45 94.34 35.44C94.29 35.4 94.24 35.35 94.2 35.3C94.17 35.27 94.15 35.25 94.13 35.23C94.13 35.22 94.12 35.22 94.12 35.22C93.46 34.45 93.22 33.52 93.18 32.61C93.17 32.53 93.17 32.46 93.17 32.38C93.17 32.31 93.17 32.25 93.17 32.19Z" fill="#FCC49A" fill-opacity="1.000000" fill-rule="nonzero"/>
	<path id="Vector" d="M95.1 30.46C95.04 30.7 94.83 30.84 94.63 30.79C94.43 30.74 94.32 30.51 94.38 30.27C94.44 30.03 94.65 29.89 94.85 29.94C95.05 29.99 95.16 30.22 95.1 30.46Z" fill="#1A1A1A" fill-opacity="1.000000" fill-rule="nonzero"/>
	<path id="Vector" d="M98.01 31.35C97.95 31.58 97.74 31.73 97.54 31.68C97.34 31.63 97.23 31.39 97.29 31.16C97.35 30.92 97.56 30.77 97.76 30.82C97.96 30.88 98.07 31.11 98.01 31.35Z" fill="#1A1A1A" fill-opacity="1.000000" fill-rule="nonzero"/>
	<path id="Vector" d="M99.32 33.3C99.22 33.71 98.79 33.94 98.37 33.83C97.95 33.72 97.7 33.3 97.8 32.89C97.9 32.49 98.33 32.25 98.75 32.36C99.17 32.47 99.43 32.89 99.32 33.3Z" fill="#DD7F60" fill-opacity="1.000000" fill-rule="nonzero"/>
	<path id="Vector" d="M93.31 30.92C93.29 31.01 93.28 31.09 93.26 31.18C93.23 31.39 93.2 31.61 93.19 31.84C93.18 31.95 93.17 32.07 93.17 32.19C93.17 32.25 93.17 32.32 93.17 32.38C93.2 32.39 93.23 32.4 93.26 32.41C93.68 32.52 94.11 32.28 94.21 31.88C94.31 31.47 94.06 31.05 93.64 30.94C93.52 30.91 93.41 30.91 93.31 30.92Z" fill="#DD7F60" fill-opacity="1.000000" fill-rule="nonzero"/>
	<path id="Vector" d="M95.66 32.46C95.84 32.52 96.01 32.52 96.02 32.52C96.08 32.51 96.13 32.46 96.13 32.4C96.12 32.34 96.07 32.29 96.01 32.29C96.01 32.29 95.64 32.3 95.55 32.09C95.45 31.86 95.54 31.72 95.92 31.21L95.94 31.19C95.98 31.14 95.97 31.07 95.92 31.03C95.88 30.99 95.81 31 95.77 31.05L95.75 31.08C95.38 31.57 95.19 31.82 95.35 32.18C95.41 32.33 95.54 32.41 95.66 32.46Z" fill="#1A1A1A" fill-opacity="1.000000" fill-rule="nonzero"/>
	<path id="Vector" d="M98.94 31.15C98.96 31.15 98.97 31.15 98.98 31.14C99.04 31.12 99.07 31.05 99.04 31C98.65 30.04 97.73 29.95 97.69 29.95C97.63 29.94 97.58 29.99 97.57 30.05C97.57 30.11 97.61 30.17 97.67 30.17C97.71 30.18 98.5 30.26 98.84 31.08C98.86 31.13 98.9 31.15 98.94 31.15Z" fill="#1A1A1A" fill-opacity="1.000000" fill-rule="nonzero"/>
	<path id="Vector" d="M94.05 29.42C94.07 29.42 94.09 29.42 94.11 29.4C94.78 29 95.37 29.39 95.4 29.4C95.45 29.44 95.52 29.42 95.55 29.37C95.59 29.32 95.57 29.25 95.52 29.21C95.49 29.19 94.79 28.73 94 29.21C93.95 29.24 93.93 29.31 93.96 29.37C93.98 29.4 94.02 29.42 94.05 29.42Z" fill="#1A1A1A" fill-opacity="1.000000" fill-rule="nonzero"/>
	<path id="Vector" d="M94.93 32.77C94.8 32.71 94.86 33.68 95.53 33.84C96.2 34 96.71 33.08 96.5 33.14C95.87 33.28 95.38 33.14 94.93 32.77Z" fill="#EADED5" fill-opacity="1.000000" fill-rule="nonzero"/>
	<path id="Vector" d="M88.13 50.52C88.39 50.38 90.82 48.15 90.82 48.15C90.84 48.15 90 57.14 90 57.14C90.17 57.42 99.1 57.86 105.51 57.02C105.51 57.02 105.5 54.78 105.28 53.05C106.11 53.1 110.53 53.26 110.69 51.8C111.08 48.21 109.76 45.53 108.45 42.56C106.96 39.17 105.05 38.06 102.05 37.83C101.61 37.8 101.15 37.78 100.66 37.78C98.92 38.65 97.11 38.57 95.62 37.82C95.1 37.82 94.62 37.84 94.17 37.88C89.55 38.32 88.57 41.33 84.31 46.31C84.03 46.64 88.13 50.52 88.13 50.52Z" fill="#FBFBFB" fill-opacity="1.000000" fill-rule="nonzero"/>
	<path id="Vector" d="M103.94 57.29C103.89 57.29 103.85 57.25 103.85 57.2C103.84 57.14 103.88 57.1 103.94 57.09L105.74 56.97L104.57 49.05C104.56 49 104.6 48.95 104.65 48.94C104.71 48.93 104.76 48.97 104.76 49.02L105.95 57.05C105.95 57.07 105.94 57.1 105.93 57.12C105.91 57.14 105.89 57.16 105.86 57.16L103.95 57.29C103.95 57.29 103.95 57.29 103.94 57.29Z" fill="#1A1A1A" fill-opacity="1.000000" fill-rule="nonzero"/>
	<path id="Vector" d="M100.67 31.15C100.67 32.88 100.45 33.85 99.88 34.89C99.13 36.26 98.28 37.71 98.8 39.12L105.78 39.12C106.77 37.65 106.33 36.19 105.6 34.07C105.18 32.88 104.6 31.87 104.59 30.07L100.67 31.15Z" fill="#1A1A1A" fill-opacity="1.000000" fill-rule="nonzero"/>
	<path id="Vector" d="M75.44 46.73C74.61 46.15 75.96 42.8 77.23 42.72C78.11 42.95 76.55 47.21 75.44 46.73Z" fill="#371D15" fill-opacity="1.000000" fill-rule="nonzero"/>
	<path id="Vector" d="M78.33 42.82C78.29 42.62 78.72 46.38 78.72 46.38C76.62 45.19 75.68 45.06 74.87 44.22C74.55 43.89 74.26 43.29 74.19 42.57C74.16 42.16 74.05 41.11 73.92 40.83C73.72 40.4 72.84 39.21 73.06 38.85C73.08 38.84 73.09 38.86 73.05 38.8C72.98 38.68 72.92 38.23 73.13 38.2C73.56 38.23 75.04 39.75 75.55 41.03C76.01 42.2 76.07 42.21 76.07 42.21L78.33 42.82Z" fill="#FCC49A" fill-opacity="1.000000" fill-rule="nonzero"/>
	<path id="Vector" d="M73.07 40.98C72.87 40.45 73.35 40.38 73.66 40.85C73.92 41.25 74.18 42.03 74.83 42.27C74.84 42.27 75.88 44.92 75.88 44.92C75.86 44.89 74.82 44.43 74.23 43.66C73.67 42.94 73.33 41.71 73.07 40.98Z" fill="#FCC49A" fill-opacity="1.000000" fill-rule="nonzero"/>
	<path id="Vector" d="M74.81 42.69C74.78 42.69 74.74 42.67 74.72 42.64C74.57 42.32 74.46 42.21 74.35 42.1C74.22 41.97 74.09 41.84 73.9 41.47C73.87 41.42 73.89 41.36 73.94 41.34C73.99 41.31 74.05 41.33 74.07 41.38C74.25 41.72 74.37 41.84 74.49 41.96C74.61 42.08 74.73 42.21 74.9 42.55C74.92 42.6 74.9 42.66 74.86 42.68C74.84 42.69 74.83 42.69 74.81 42.69Z" fill="#371D15" fill-opacity="1.000000" fill-rule="nonzero"/>
	<path id="Vector" d="M74.42 40.39C74.39 40.39 74.35 40.37 74.34 40.35L74.22 40.17C73.68 39.36 73.36 38.88 73.1 38.88C73.05 38.88 73 38.83 73 38.78C73 38.72 73.05 38.68 73.1 38.68C73.46 38.68 73.77 39.14 74.38 40.06L74.5 40.24C74.53 40.28 74.52 40.34 74.47 40.37C74.46 40.38 74.44 40.39 74.42 40.39Z" fill="#371D15" fill-opacity="1.000000" fill-rule="nonzero"/>
	<path id="Vector" d="M90.5 50.53C88.5 52.63 86.74 52.75 84 51.53C82.33 50.78 76.24 47.13 75.44 46.72C76.27 47.1 78.5 42.88 76.88 42.43C78.07 42.76 84.8 44.47 86.75 44.99C86.75 44.99 94.9 45.38 93.74 46.88C92.74 48.17 91.09 49.9 90.5 50.53Z" fill="#FBFBFB" fill-opacity="1.000000" fill-rule="nonzero"/>
	<path id="Vector" d="M107.82 32.56C106.42 31.62 109.04 26.38 110.91 26.91C112.11 28.96 110.78 34.34 107.82 32.56Z" fill="#1A1A1A" fill-opacity="1.000000" fill-rule="nonzero"/>
	<path id="Vector" d="M112.61 27.37L112.15 32.3C112.15 32.3 110.34 31.17 109.33 30.39C107.16 30 106.34 29.31 105.81 28.81C105.22 28.25 104.99 27.43 104.54 26.72C104.18 26.15 103.67 25.72 103.36 25.54C102.78 25.19 100.69 24.93 100.3 24.64C100.03 24.44 100.02 24.1 100.1 23.96C100.12 23.94 100.13 23.92 100.05 23.89C99.88 23.84 99.67 23.43 99.85 23.24C100.26 22.93 103.13 23.23 104.6 24C105.94 24.7 108.05 25.54 108.77 26C109.48 26.45 112.61 27.37 112.61 27.37Z" fill="#FCC49A" fill-opacity="1.000000" fill-rule="nonzero"/>
	<path id="Vector" d="M100.17 24.02C100.15 24 100.14 23.98 100.14 23.96C100.13 23.91 100.17 23.86 100.22 23.85C100.99 23.78 101.68 23.84 102.29 24.05C102.34 24.07 102.36 24.12 102.35 24.17C102.33 24.22 102.28 24.24 102.23 24.23C101.65 24.03 100.98 23.96 100.24 24.04C100.21 24.04 100.19 24.03 100.17 24.02Z" fill="#1A1A1A" fill-opacity="1.000000" fill-rule="nonzero"/>
	<path id="Vector" d="M129.17 38.03C130.22 36.23 124.36 30.75 124.36 30.75C124.36 30.75 113.19 27.52 110.19 26.58C112.29 27.24 109.79 33.62 107.82 32.55C107.82 32.55 116.13 38.48 119.74 40.54C122.68 42.22 127.17 41.5 129.17 38.03Z" fill="#00679D" fill-opacity="1.000000" fill-rule="nonzero"/>
	<path id="Vector" d="M121.69 26.74L123.36 30.49L121.82 29.82L121.69 26.74Z" fill="#1A1A1A" fill-opacity="1.000000" fill-rule="nonzero"/>
	<path id="Vector" d="M127.46 43.09C124.28 43.09 121.17 41.2 114.22 36.98C113.01 36.25 111.64 35.42 110.15 34.52C110.1 34.5 110.09 34.43 110.11 34.39C110.14 34.34 110.2 34.32 110.25 34.35C111.74 35.25 113.11 36.08 114.32 36.81C122.61 41.84 125.4 43.53 129.36 42.67C129.42 42.66 129.47 42.69 129.48 42.74C129.49 42.8 129.46 42.85 129.41 42.86C128.73 43.01 128.1 43.09 127.46 43.09Z" fill="#1A1A1A" fill-opacity="1.000000" fill-rule="nonzero"/>
	<path id="Vector" d="M107.78 47.5C107.8 47.66 107.96 47.82 108.12 47.87C107.83 47.88 107.55 48.11 107.59 48.38C107.62 48.66 107.93 48.83 108.2 48.85C109.02 48.92 109.65 48.94 109.67 48.98C109.74 49.03 109.08 49.06 108.81 49.14C108.56 49.21 108.4 49.44 108.45 49.67C108.49 49.89 108.7 50.08 109.18 50.04C109.69 50 110.02 49.94 110.4 49.85C111.11 49.69 111.34 49.34 111.59 48.98C111.89 48.55 112.35 46.75 112.3 46.17C112.24 45.35 111.28 44.99 110.87 45.61C110.87 45.61 109.78 45.74 109.13 45.88C108.81 45.95 108.44 46.13 108.49 46.45C108.53 46.7 108.74 46.8 108.91 46.83C108.91 46.83 108.51 46.86 108.24 46.93C107.99 47 107.75 47.23 107.78 47.5Z" fill="#FCC49A" fill-opacity="1.000000" fill-rule="nonzero"/>
	<path id="Vector" d="M110.36 47.76C110.34 47.74 110.32 47.73 110.29 47.74C109.38 47.81 108.43 47.77 108.42 47.77C108.37 47.77 108.32 47.81 108.32 47.87C108.31 47.92 108.36 47.97 108.41 47.97C108.42 47.97 109.39 48.02 110.31 47.94C110.36 47.93 110.4 47.88 110.4 47.83C110.4 47.8 110.38 47.77 110.36 47.76Z" fill="#371D15" fill-opacity="1.000000" fill-rule="nonzero"/>
	<path id="Vector" d="M111.06 46.74C111.04 46.72 111.01 46.72 110.98 46.72C110.23 46.81 109.16 46.79 109.15 46.79C109.09 46.79 109.04 46.83 109.04 46.89C109.04 46.95 109.09 46.99 109.14 46.99C109.15 46.99 110.24 47.01 111.01 46.92C111.06 46.91 111.1 46.86 111.1 46.81C111.09 46.78 111.08 46.76 111.06 46.74Z" fill="#371D15" fill-opacity="1.000000" fill-rule="nonzero"/>
	<path id="Vector" d="M110.49 45.5C110.51 45.53 110.53 45.54 110.56 45.54C111.1 45.58 111.68 45.43 111.7 45.43C111.75 45.41 111.78 45.36 111.77 45.31C111.75 45.26 111.7 45.23 111.65 45.24C111.65 45.25 111.09 45.39 110.57 45.36C110.52 45.35 110.48 45.39 110.47 45.44C110.47 45.47 110.48 45.49 110.49 45.5Z" fill="#371D15" fill-opacity="1.000000" fill-rule="nonzero"/>
	<path id="Vector" d="M18.99 96.45L19.08 96.96L19.1 97.06L19.27 98.04L19.55 99.59L23.33 99.23L23.23 97.93L23.16 97.07L22.87 93.43L18.99 96.45Z" fill="#EAE0B5" fill-opacity="1.000000" fill-rule="nonzero"/>
	<path id="Vector" d="M18.56 96.94L19.1 97.06L19.27 98.04L23.16 97.07L19.08 96.96L18.56 96.94Z" fill="#EAE0B5" fill-opacity="1.000000" fill-rule="nonzero"/>
	<path id="Vector" d="M23.27 98.83C23.27 98.83 25.82 99.74 27.17 100.39C27.86 100.72 27.78 101.79 27.19 101.79C27.19 101.79 21.08 101.79 19.93 101.79C18.28 101.79 19.42 98.83 19.42 98.83L23.27 98.83Z" fill="#EAE0B5" fill-opacity="1.000000" fill-rule="nonzero"/>
	<path id="Vector" d="M8.67 96.46L8.58 96.96L8.56 97.06L8.11 99.59L4.33 99.23L4.43 97.93L4.5 97.07L4.78 93.43L8.67 96.46Z" fill="#EAE0B5" fill-opacity="1.000000" fill-rule="nonzero"/>
	<path id="Vector" d="M9.09 96.95L8.56 97.06L8.4 97.92L4.5 97.07L8.58 96.96L9.09 96.95Z" fill="#EAE0B5" fill-opacity="1.000000" fill-rule="nonzero"/>
	<path id="Vector" d="M4.39 98.84C4.39 98.84 1.83 99.74 0.48 100.4C-0.2 100.73 -0.12 101.8 0.46 101.8C0.46 101.8 6.58 101.8 7.73 101.8C9.38 101.8 8.23 98.84 8.23 98.84L4.39 98.84Z" fill="#EAE0B5" fill-opacity="1.000000" fill-rule="nonzero"/>
	<path id="Vector" d="M25.35 97.08L17.26 97.08L14.09 65.37L10.62 97.08C10.56 97.08 2.36 97.08 2.36 97.08L7.3 52.56C11.1 52.06 18.14 54.21 21.91 54.71L25.35 97.08Z" fill="#EAE0B5" fill-opacity="1.000000" fill-rule="nonzero"/>
	<path id="Vector" d="M16.08 21.01C14.53 20.47 11.95 20.05 10.06 22.5C6.02 22.58 5.56 31.59 11.32 32.38C12.4 33.24 19.09 31.42 17.45 30.7C17.66 30.3 17.71 28.24 18.27 27.88C19.83 26.85 19.67 22.28 16.08 21.01Z" fill="#1A1A1A" fill-opacity="1.000000" fill-rule="nonzero"/>
	<path id="Vector" d="M9.44 30.11C9.63 31.05 10.23 31.36 10.7 31.11C10.73 31.25 10.84 31.53 11.01 31.83C10.98 31.84 10.62 35.18 10.62 35.18C11.52 38.3 16.59 35.46 16.59 35.46L16.45 34.42L16.24 33.45C16.24 33.44 16.38 33.38 16.38 33.38C16.38 33.38 16.61 33.25 16.7 33.2C17.73 32.57 18.24 31.57 18.5 30.57C18.52 30.49 18.54 30.41 18.55 30.33C18.57 30.27 18.58 30.21 18.59 30.14C18.61 30.02 18.63 29.9 18.65 29.78C18.68 29.55 18.7 29.33 18.7 29.1C18.71 29.02 18.71 28.93 18.71 28.84C18.71 28.78 18.71 28.72 18.71 28.66C18.71 28.56 18.71 28.46 18.7 28.36C18.66 27.26 18.59 26.9 18.44 26.44C18 25.04 16.87 24.78 15.76 24.89C14.84 24.99 13.72 25.04 12.71 25.81C11.55 26.69 11.23 27.59 11.22 28.78C11.22 29.09 11.11 29.23 10.96 29.24C10.86 29.25 10.74 29.2 10.61 29.09C10.53 29.02 10.44 28.95 10.33 28.87C9.79 28.47 9.18 28.87 9.44 30.11Z" fill="#FCC49A" fill-opacity="1.000000" fill-rule="nonzero"/>
	<path id="Vector" d="M16.92 28.23C16.93 28.48 17.11 28.67 17.33 28.66C17.55 28.65 17.71 28.44 17.7 28.19C17.68 27.94 17.5 27.74 17.28 27.75C17.07 27.77 16.9 27.98 16.92 28.23Z" fill="#1A1A1A" fill-opacity="1.000000" fill-rule="nonzero"/>
	<path id="Vector" d="M13.57 28.49C13.59 28.74 13.77 28.94 13.99 28.93C14.2 28.91 14.37 28.7 14.35 28.45C14.34 28.2 14.15 28.01 13.94 28.02C13.72 28.03 13.56 28.24 13.57 28.49Z" fill="#1A1A1A" fill-opacity="1.000000" fill-rule="nonzero"/>
	<path id="Vector" d="M12.05 29.99C12.07 30.42 12.46 30.74 12.91 30.72C13.37 30.69 13.72 30.32 13.69 29.89C13.67 29.46 13.28 29.13 12.83 29.16C12.37 29.19 12.02 29.55 12.05 29.99Z" fill="#DD7F60" fill-opacity="1.000000" fill-rule="nonzero"/>
	<path id="Vector" d="M18.71 28.84C18.71 28.93 18.71 29.02 18.7 29.11C18.7 29.33 18.68 29.56 18.65 29.79C18.63 29.91 18.61 30.03 18.59 30.15C18.58 30.21 18.57 30.28 18.55 30.34C18.52 30.34 18.49 30.35 18.46 30.35C18 30.38 17.61 30.05 17.59 29.62C17.57 29.19 17.92 28.82 18.37 28.79C18.49 28.78 18.61 28.8 18.71 28.84Z" fill="#DD7F60" fill-opacity="1.000000" fill-rule="nonzero"/>
	<path id="Vector" d="M10.48 31.42C10.4 31.44 10.32 31.44 10.24 31.42C10.18 31.41 10.14 31.35 10.15 31.29C10.16 31.23 10.22 31.19 10.28 31.2C10.48 31.23 10.68 31.15 10.81 30.97C10.85 30.92 10.92 30.91 10.97 30.95C11.02 30.99 11.03 31.06 11 31.11C10.87 31.28 10.68 31.39 10.48 31.42Z" fill="#1A1A1A" fill-opacity="1.000000" fill-rule="nonzero"/>
	<path id="Vector" d="M18.22 27.34C18.17 27.35 18.12 27.34 18.09 27.3C18.08 27.28 17.73 26.83 16.9 27.19C16.84 27.22 16.78 27.19 16.75 27.13C16.73 27.07 16.75 27.01 16.81 26.98C17.81 26.55 18.26 27.14 18.27 27.16C18.31 27.21 18.3 27.28 18.25 27.32C18.24 27.33 18.23 27.33 18.22 27.34Z" fill="#1A1A1A" fill-opacity="1.000000" fill-rule="nonzero"/>
	<path id="Vector" d="M12.89 27.69C12.85 27.7 12.81 27.69 12.79 27.66C12.74 27.61 12.74 27.54 12.79 27.5C13.44 26.86 14.35 27.04 14.39 27.05C14.45 27.06 14.49 27.12 14.48 27.18C14.47 27.25 14.41 27.28 14.35 27.27C14.33 27.27 13.51 27.11 12.95 27.66C12.93 27.68 12.91 27.69 12.89 27.69Z" fill="#1A1A1A" fill-opacity="1.000000" fill-rule="nonzero"/>
	<path id="Vector" d="M15.85 29.93C15.66 29.96 15.48 29.92 15.47 29.92C15.41 29.9 15.37 29.84 15.39 29.78C15.4 29.72 15.46 29.68 15.52 29.7C15.53 29.7 15.91 29.78 16.05 29.59C16.2 29.38 16.13 29.22 15.84 28.62L15.82 28.6C15.79 28.54 15.82 28.47 15.87 28.44C15.93 28.42 16 28.44 16.03 28.5L16.04 28.52C16.32 29.1 16.47 29.39 16.23 29.72C16.14 29.85 15.99 29.91 15.85 29.93Z" fill="#1A1A1A" fill-opacity="1.000000" fill-rule="nonzero"/>
	<path id="Vector" d="M13.96 33.6C14.59 33.75 15.9 34.27 16.45 34.42L16.24 33.45C15.42 33.78 14.66 33.73 13.96 33.6Z" fill="#1A1A1A" fill-opacity="1.000000" fill-rule="nonzero"/>
	<path id="Vector" d="M9.95 22.93C9.95 22.93 9.95 22.93 9.95 22.93C10.01 22.93 10.05 22.89 10.06 22.84C10.08 22.54 10.01 22.25 9.85 22.01C9.68 21.74 9.41 21.57 9.08 21.51C9.02 21.5 8.97 21.53 8.97 21.59C8.96 21.64 8.99 21.69 9.04 21.7C9.66 21.81 9.91 22.36 9.87 22.82C9.86 22.87 9.9 22.92 9.95 22.93Z" fill="#1A1A1A" fill-opacity="1.000000" fill-rule="nonzero"/>
	<path id="Vector" d="M10.06 22.8C10.11 22.81 10.15 22.79 10.17 22.74C10.18 22.72 10.43 22.1 10.07 21.52C10.04 21.48 9.98 21.46 9.94 21.49C9.89 21.52 9.88 21.58 9.91 21.62C10.22 22.12 9.99 22.66 9.99 22.67C9.97 22.72 9.99 22.77 10.04 22.8C10.05 22.8 10.06 22.8 10.06 22.8Z" fill="#1A1A1A" fill-opacity="1.000000" fill-rule="nonzero"/>
	<path id="Vector" d="M14.78 30.48C14.78 30.62 15 31.38 15.83 31.37C16.59 31.35 16.87 30.35 16.66 30.43C16.54 30.47 16.12 30.59 15.87 30.59C15.16 30.6 14.77 30.36 14.78 30.48Z" fill="#EADED5" fill-opacity="1.000000" fill-rule="nonzero"/>
	<path id="Vector" d="M32.78 37.64C33.02 36.57 29.48 34.91 28.42 35.78C27.88 36.61 32.25 38.83 32.78 37.64Z" fill="#1A1A1A" fill-opacity="1.000000" fill-rule="nonzero"/>
	<path id="Vector" d="M25.16 41.96C25.16 41.96 27.38 37.58 28.04 36.26C28.27 35.79 28.48 35.29 28.52 35.15C28.52 35.11 28.19 33.75 28.24 33.28C28.29 32.79 28.65 32.13 28.82 31.47C28.91 31.11 29.02 31.01 29.15 31.05C29.33 31.09 29.46 31.38 29.45 31.63C29.42 31.92 29.38 32.29 29.34 32.57C29.32 32.73 29.35 32.88 29.39 32.96L30.5 30C30.66 29.69 30.84 29.59 30.97 29.65C31.1 29.7 31.23 29.89 31.15 30.14C30.97 30.69 30.57 31.79 30.65 31.8C30.67 31.81 30.63 31.83 30.64 31.81C30.78 31.48 31.61 29.7 31.61 29.7C31.74 29.46 31.94 29.39 32.06 29.46C32.21 29.55 32.26 29.74 32.2 29.93C32.12 30.15 31.37 31.76 31.33 32.05C31.33 32.08 31.29 32.12 31.31 32.1C31.5 31.87 32.34 30.22 32.34 30.22C32.49 29.92 32.66 29.9 32.79 29.97C32.91 30.03 32.97 30.27 32.87 30.53C32.63 31.12 31.87 32.48 31.93 32.52C31.94 32.52 31.91 32.49 31.93 32.47C32.09 32.34 32.43 31.55 32.6 31.24C32.72 31.01 32.94 30.93 33.07 30.99C33.2 31.05 33.25 31.24 33.14 31.49C32.96 31.93 32.75 32.57 32.58 32.97C32.52 33.11 32.53 33.28 32.5 33.43C32.21 34.84 31.61 35.64 31.11 36.38C30.97 36.59 29.75 41.21 28.87 43.35C28.42 44.44 24.75 43.34 25.16 41.96Z" fill="#FCC49A" fill-opacity="1.000000" fill-rule="nonzero"/>
	<path id="Vector" d="M30.1 34.97C30.15 34.97 30.18 34.94 30.2 34.9C30.5 34.18 29.93 33.35 29.91 33.31C29.87 33.26 29.81 33.25 29.76 33.28C29.71 33.32 29.7 33.38 29.73 33.43C29.74 33.44 30.26 34.21 30.01 34.82C29.98 34.88 30.01 34.94 30.06 34.96C30.08 34.97 30.09 34.97 30.1 34.97Z" fill="#1A1A1A" fill-opacity="1.000000" fill-rule="nonzero"/>
	<path id="Vector" d="M32.78 37.64C32.44 38.55 30.05 46.04 29.18 48.09C28.36 50.06 26.87 51.73 24.18 51.73C24 51.73 23.82 51.72 23.64 51.71C23.38 51.69 22.99 51.67 22.52 51.63C21.33 51.55 19.64 51.41 18.39 51.2C16.36 50.87 22.54 44.57 22.54 44.57C23.7 42.73 27.78 36.43 28.48 35.3C27.53 36.84 32.4 38.54 32.78 37.64Z" fill="#00679D" fill-opacity="1.000000" fill-rule="nonzero"/>
	<path id="Vector" d="M24.31 47.29C24.28 47.29 21.9 47.62 21.9 47.62C21.88 47.62 23.23 57.07 23.23 57.07C23.06 57.34 11.82 57.64 5.36 56.79C5.36 56.79 5.79 51.61 6 49.87C5.17 49.92 0.83 51.14 0.72 49.66C0.66 48.73 1.41 43.77 2.52 40.93C3.73 37.84 4.47 34.59 10.7 34.46C11.83 35.32 15.17 35.28 16.44 34.42C22.87 34.42 23.82 38.16 27.26 44.45C27.47 44.83 24.31 47.29 24.31 47.29Z" fill="#00679D" fill-opacity="1.000000" fill-rule="nonzero"/>
	<path id="Vector" d="M2 61.79C2.29 63 7.21 62.45 7.12 61.29C6.06 59.44 1.64 59.82 2 61.79Z" fill="#1A1A1A" fill-opacity="1.000000" fill-rule="nonzero"/>
	<path id="Vector" d="M7.22 61.46C7.81 62.01 8.15 62.46 8.23 63.25C8.27 63.72 8.32 64.32 8.6 64.95C8.74 65.27 8.75 65.54 8.52 65.65C8.29 65.76 8.16 65.6 7.99 65.41C7.74 65.11 7.3 64.22 7.28 64.18C7.22 64.25 7.44 65.3 7.44 65.3L7.85 67.03C7.92 67.21 7.85 67.45 7.58 67.53C7.49 67.56 7.4 67.56 7.32 67.52C7.32 67.52 7.44 67.85 7.13 68C6.76 68.18 6.53 67.56 6.52 67.52C6.6 67.69 6.57 67.91 6.4 68C6.24 68.08 6.07 68.01 5.95 67.88C5.85 67.77 5.64 67.36 5.54 67.22C5.57 67.33 5.51 67.43 5.42 67.5C5.3 67.6 5.06 67.59 4.97 67.43C4.62 66.86 4.34 65.95 4.25 65.37C4.08 64.22 4.12 62.18 4.12 62.18L3.2 57.49L6.72 54.2C6.72 54.2 6.98 61.24 7.22 61.46Z" fill="#FCC49A" fill-opacity="1.000000" fill-rule="nonzero"/>
	<path id="Vector" d="M5.54 67.27C5.55 67.27 5.56 67.27 5.57 67.26C5.62 67.24 5.65 67.19 5.63 67.14C5.46 66.72 5.26 66.15 5.16 65.46C5.15 65.4 5.1 65.36 5.05 65.37C5 65.38 4.96 65.43 4.97 65.49C5.07 66.2 5.28 66.78 5.44 67.21C5.46 67.25 5.5 67.27 5.54 67.27Z" fill="#1A1A1A" fill-opacity="1.000000" fill-rule="nonzero"/>
	<path id="Vector" d="M6.55 67.69C6.56 67.69 6.58 67.69 6.59 67.68C6.64 67.66 6.66 67.6 6.63 67.55C6.29 66.92 5.89 65.36 5.88 65.35C5.87 65.3 5.82 65.26 5.76 65.28C5.71 65.29 5.68 65.35 5.69 65.4C5.71 65.46 6.1 66.99 6.46 67.64C6.48 67.68 6.51 67.7 6.55 67.69Z" fill="#1A1A1A" fill-opacity="1.000000" fill-rule="nonzero"/>
	<path id="Vector" d="M7.33 67.56C7.34 67.56 7.35 67.56 7.36 67.55C7.41 67.53 7.44 67.47 7.41 67.42C6.93 66.37 6.68 65.2 6.68 65.19C6.66 65.13 6.61 65.1 6.56 65.11C6.5 65.12 6.47 65.17 6.48 65.23C6.48 65.24 6.74 66.43 7.23 67.5C7.25 67.54 7.29 67.56 7.33 67.56Z" fill="#1A1A1A" fill-opacity="1.000000" fill-rule="nonzero"/>
	<path id="Vector" d="M0.71 48.68C0.63 50.64 0.87 55.8 2 61.79C1.78 60.51 6.88 60.39 7.16 61.23C7.15 60.91 7.63 52.57 8.46 48.6C8.46 48.6 9.48 43.87 11.26 41.39C13.55 38.21 7.46 33.62 4.62 36.72C2.34 39.2 0.8 46.29 0.71 48.68Z" fill="#00679D" fill-opacity="1.000000" fill-rule="nonzero"/>
	<path id="Vector" d="M7.47 57.94C7.53 57.94 7.58 57.89 7.58 57.83C7.65 56.08 7.85 51.44 7.94 51.08C8.05 50.65 9.58 45.67 9.59 45.62C9.61 45.56 9.58 45.5 9.52 45.48C9.46 45.46 9.4 45.49 9.38 45.55C9.32 45.76 7.84 50.59 7.73 51.03C7.61 51.48 7.37 57.57 7.36 57.83C7.36 57.89 7.41 57.94 7.47 57.94C7.47 57.94 7.47 57.94 7.47 57.94Z" fill="#1A1A1A" fill-opacity="1.000000" fill-rule="nonzero"/>
	<path id="Vector" d="M23.75 42.59C23.79 42.59 23.83 42.57 23.85 42.54L25.19 40.45C25.23 40.4 25.21 40.32 25.15 40.29C25.1 40.25 25.03 40.27 24.99 40.32L23.65 42.41C23.62 42.46 23.63 42.54 23.69 42.57C23.71 42.59 23.73 42.59 23.75 42.59Z" fill="#1A1A1A" fill-opacity="1.000000" fill-rule="nonzero"/>
</svg>
