<svg width="350.000000" height="254.000000" viewBox="0 0 350 254" fill="none" xmlns="http://www.w3.org/2000/svg" xmlns:xlink="http://www.w3.org/1999/xlink">
	<desc>
			Created with Pixso.
	</desc>
	<defs>
		<linearGradient x1="174.999985" y1="0.000000" x2="174.999985" y2="254.000000" id="paint_linear_580_363_0" gradientUnits="userSpaceOnUse">
			<stop stop-color="#97CAFF"/>
			<stop offset="1.000000" stop-color="#D9EDFF"/>
		</linearGradient>
		<linearGradient x1="174.999985" y1="0.000000" x2="174.999985" y2="254.000000" id="paint_linear_580_365_0" gradientUnits="userSpaceOnUse">
			<stop stop-color="#9DCDFF"/>
			<stop offset="1.000000" stop-color="#F6FBFF"/>
		</linearGradient>
		<linearGradient x1="397.025116" y1="114.789185" x2="-109.864044" y2="261.798828" id="paint_linear_580_366_0" gradientUnits="userSpaceOnUse">
			<stop offset="0.204000" stop-color="#FF6699"/>
			<stop offset="0.771869" stop-color="#5EA1FF"/>
		</linearGradient>
	</defs>
	<rect id="Rectangle 152" width="350.000000" height="254.000000" fill="url(#paint_linear_580_363_0)" fill-opacity="1.000000"/>
	<mask id="mask580_365" mask-type="alpha" maskUnits="userSpaceOnUse" x="0.000000" y="0.000000" width="350.000000" height="254.000000">
		<rect id="Rectangle 153" width="350.000000" height="254.000000" fill="url(#paint_linear_580_365_0)" fill-opacity="1.000000"/>
	</mask>
	<g mask="url(#mask580_365)">
		<path id="Vector 2710" d="M350.32 287.32C333.74 247.03 285.79 155.47 226.67 111.54C152.76 56.62 144.44 91.15 176.64 166.94C208.85 242.72 181.85 312.36 127.83 249.78C73.81 187.21 1.38 144.53 14.59 203.78C27.79 263.02 -68.68 288.38 -109.82 256.11" stroke="url(#paint_linear_580_366_0)" stroke-opacity="0.800000" stroke-width="66.157158" stroke-linecap="round"/>
	</g>
	<g mask="url(#mask580_365)">
		<path id="Vector" d="M260.61 259.64C260.5 260.16 260.45 260.47 260.46 260.53C260.63 261.57 246.15 262.62 247.96 260.21C247.96 260.21 247.96 260.21 247.96 260.21C248.66 259.93 249.26 259.67 249.73 259.46C249.76 259.45 249.8 259.43 249.83 259.42C250.27 259.17 250.34 258.88 250.48 258.16C250.62 257.4 250.82 255.02 250.82 255.02L256.14 206.14L273.42 207.48C273.42 207.48 265.65 238.41 262.14 253.04C261.7 254.89 261.32 256.48 261.04 257.71L261.04 257.71C260.85 258.52 260.71 259.17 260.61 259.64L260.61 259.64L260.61 259.64Z" fill="#FCC49A" fill-opacity="1.000000" fill-rule="nonzero"/>
		<path id="Vector" d="M259.25 268.7C259.25 268.7 240.88 268.7 235.71 268.7C234.01 268.7 232.53 265.91 235.86 264.68C237.88 263.93 247.08 260.58 247.96 260.21C247.96 260.21 247.96 260.21 247.96 260.21C249.53 260.61 252.64 261.02 256.44 260.68C256.77 260.65 259.59 260.34 260.61 259.64C260.61 259.64 260.61 259.64 260.61 259.64L260.61 259.64C261.04 261.41 261.23 263.11 261.34 264.38C261.49 266.04 261.79 268.7 259.25 268.7Z" fill="#371D15" fill-opacity="1.000000" fill-rule="nonzero"/>
		<path id="Vector" d="M309.17 263.35L307.68 258.56L308.99 208.03L291.71 195.66L297.16 258.68L296.92 263.49L309.17 263.35Z" fill="#FCC49A" fill-opacity="1.000000" fill-rule="nonzero"/>
		<path id="Vector" d="M296.63 253.18C296.68 253.18 297.07 257.8 297.07 257.8L308.4 255.12L296.63 253.18Z" fill="#371D15" fill-opacity="1.000000" fill-rule="nonzero"/>
		<path id="Vector" d="M297.07 261.08C299.46 259.29 303.63 258.99 307.95 259.44C307.95 259.44 309.83 263.31 310.33 264.21C311.68 266.59 309.94 268.98 308.1 268.98L298.56 268.98C297.52 268.98 296.66 267.91 296.65 266.57C296.65 265.54 296.94 262.13 297.07 261.08Z" fill="#371D15" fill-opacity="1.000000" fill-rule="nonzero"/>
		<path id="Vector" d="M244.31 254.87L266.51 255.46L279.35 190.48L283.68 169.32L283.71 169.18L291.75 255.32C291.7 255.27 312.72 255.27 312.75 255.32C312.75 255.32 311.03 181.49 309.15 162.13C308.85 159.04 308.56 154.39 308.13 149.9C307.88 147.32 307.58 144.8 307.21 142.67C307.01 141.53 306.8 140.5 306.55 139.64C305.22 134.89 303.87 130.93 303.12 128.82C302.74 127.75 302.51 127.16 302.51 127.16C292.02 125.77 276.07 128.31 265.23 129.78C264.76 129.85 261.71 127.9 261.27 127.96L244.31 254.87Z" fill="#B4D940" fill-opacity="1.000000" fill-rule="nonzero"/>
		<path id="Vector" d="M259.64 107.39C259.64 107.39 231.5 110.45 228.28 105.61C228.28 105.61 245.27 86.08 247.07 84.14C255.86 74.59 264.22 73.85 273.56 73.69C279.84 73.59 283.34 72.62 291.07 73.64C296.73 74.39 304.93 76.47 307.91 81.24C309.31 83.49 302.19 89.15 303.11 103.82L313.14 145.7C310.6 146.44 281.68 151.58 258.28 146.37C258.58 132.66 257.85 130.34 259.64 107.39Z" fill="#00679D" fill-opacity="1.000000" fill-rule="nonzero"/>
		<path id="Vector" d="M272.97 73.92L273.67 69.57L281.57 69.49L281.42 72.57L272.97 73.92Z" fill="#371D15" fill-opacity="1.000000" fill-rule="nonzero"/>
		<path id="Vector" d="M267.88 51.7C267.29 41.39 278.1 37.73 286 42.05C288.09 43.19 290.62 45.18 291.22 48.46C291.88 52.11 290.23 56.28 289.46 58.2C289.14 58.98 289.72 63.9 288.74 63.75C288.65 64.49 289.94 75.49 289.94 75.49C287.56 78.32 274.53 78.12 272.59 75.73L272.97 73.94C272.97 73.94 277.81 72.68 280.13 71.64C280.16 71.62 280.2 71.6 280.23 71.59C277.43 72.83 273.84 71.62 272.17 70.39C269.84 68.68 268.63 65.56 268.18 63.2C268.16 63.07 268.14 62.94 268.12 62.81C268.08 62.63 268.1 62.43 268.03 62.28C267.88 61.98 267.58 60.49 267.65 58.67C267.73 56.47 268.02 54.22 267.88 51.7Z" fill="#FCC49A" fill-opacity="1.000000" fill-rule="nonzero"/>
		<path id="Vector" d="M290.08 57.51C291.57 58.11 292.91 48.86 290.6 48.86C288.29 48.86 285.84 49.52 284.86 51.85C283.67 54.68 286.95 57.96 288.44 56.91C288.92 56.57 289.63 57.72 290.08 57.51Z" fill="#7A7777" fill-opacity="1.000000" fill-rule="nonzero"/>
		<path id="Vector" d="M287.81 57.16C287.86 57.16 287.91 57.15 287.96 57.14C288.19 57.08 288.45 56.93 288.71 56.66C288.91 56.47 289.13 56.25 289.4 56.01C289.81 55.65 290.29 55.54 290.75 55.66C291.8 55.94 292.73 57.45 292.36 59.9C291.96 62.55 290.47 64.06 288.72 63.79C288.62 64.52 286.76 57.26 287.81 57.16Z" fill="#FCC49A" fill-opacity="1.000000" fill-rule="nonzero"/>
		<path id="Vector" d="M270.51 53.56C271.84 53.45 272.91 54.08 272.93 54.09C273.02 54.15 273.05 54.28 273 54.38C272.94 54.48 272.81 54.51 272.71 54.45C272.63 54.4 270.62 53.22 268.81 54.68C268.72 54.75 268.59 54.74 268.52 54.65C268.45 54.56 268.46 54.43 268.55 54.36C269.2 53.83 269.89 53.61 270.51 53.56Z" fill="#5E6466" fill-opacity="1.000000" fill-rule="nonzero"/>
		<path id="Vector" d="M280.67 53.38C279.35 53.24 278.26 53.85 278.25 53.86C278.15 53.92 278.11 54.04 278.17 54.14C278.23 54.24 278.35 54.28 278.45 54.22C278.54 54.17 280.57 53.04 282.35 54.55C282.43 54.62 282.56 54.61 282.64 54.53C282.71 54.44 282.7 54.31 282.62 54.23C281.97 53.69 281.29 53.45 280.67 53.38Z" fill="#5E6466" fill-opacity="1.000000" fill-rule="nonzero"/>
		<path id="Vector" d="M275.04 61.39C274.59 61.36 274.17 61.19 273.88 60.89C273.55 60.56 273.43 60.14 273.56 59.73C273.8 58.98 274 58.27 274.17 57.66C274.26 57.37 274.66 57.5 274.56 57.79C274.4 58.39 274.19 59.1 273.96 59.86C273.88 60.11 273.96 60.38 274.17 60.6C274.45 60.88 275.05 61.13 275.79 60.9C275.9 60.87 276.02 60.93 276.05 61.04C276.09 61.15 276.03 61.26 275.92 61.29C275.62 61.38 275.33 61.41 275.04 61.39Z" fill="#371D15" fill-opacity="1.000000" fill-rule="nonzero"/>
		<path id="Vector" d="M281.27 57.04C281.33 57.03 281.39 56.99 281.43 56.93C281.5 56.82 281.47 56.68 281.36 56.6C281.32 56.57 280.26 55.9 278.88 56.59C278.76 56.64 278.72 56.79 278.77 56.9C278.83 57.02 278.97 57.07 279.09 57.01C280.23 56.44 281.09 57 281.1 57C281.15 57.03 281.21 57.04 281.27 57.04Z" fill="#371D15" fill-opacity="1.000000" fill-rule="nonzero"/>
		<path id="Vector" d="M271.95 57C272.02 56.99 272.08 56.95 272.12 56.88C272.18 56.77 272.14 56.62 272.03 56.56C271.98 56.53 270.82 55.9 269.54 56.63C269.43 56.69 269.39 56.84 269.45 56.95C269.52 57.06 269.66 57.1 269.78 57.04C270.81 56.45 271.76 56.95 271.8 56.98C271.85 57 271.9 57.01 271.95 57Z" fill="#371D15" fill-opacity="1.000000" fill-rule="nonzero"/>
		<path id="Vector" d="M267.42 63.12C267.66 68.53 269.65 74.75 276.51 74.75C283.82 74.75 286.77 68.55 286.65 63.03C286.59 60.39 279.81 61.78 275.03 61.84C270.43 61.9 267.3 60.42 267.42 63.12Z" fill="#7A7777" fill-opacity="1.000000" fill-rule="nonzero"/>
		<path id="Vector" d="M274.54 64.26C274.03 64.22 273.49 64.07 272.95 63.74C272.84 63.68 272.81 63.54 272.87 63.43C272.94 63.33 273.07 63.29 273.18 63.36C274.99 64.46 276.93 63.23 276.95 63.22C277.05 63.15 277.19 63.18 277.26 63.29C277.32 63.39 277.29 63.53 277.19 63.6C277.13 63.64 275.97 64.37 274.54 64.26Z" fill="#371D15" fill-opacity="1.000000" fill-rule="nonzero"/>
		<path id="Vector" d="M268.19 55.47L283.54 55.46C283.66 55.46 283.76 55.36 283.76 55.23C283.76 55.11 283.66 55.01 283.54 55.01L268.19 55.03C268.07 55.03 267.97 55.13 267.97 55.25C267.97 55.37 268.07 55.47 268.19 55.47Z" fill="#371D15" fill-opacity="1.000000" fill-rule="nonzero"/>
		<path id="Vector" d="M270.13 60.24C271.1 60.24 272 59.79 272.66 58.97C273.39 58.06 273.78 56.77 273.78 55.25C273.78 55.12 273.68 55.02 273.56 55.02C273.43 55.02 273.33 55.12 273.33 55.25C273.33 58.37 271.67 59.79 270.13 59.79C268.59 59.79 266.93 58.37 266.93 55.25C266.93 55.12 266.83 55.02 266.7 55.02C266.58 55.02 266.48 55.12 266.48 55.25C266.48 58.68 268.37 60.24 270.13 60.24Z" fill="#371D15" fill-opacity="1.000000" fill-rule="nonzero"/>
		<path id="Vector" d="M280.11 60.24C281.08 60.24 281.98 59.79 282.64 58.97C283.38 58.06 283.76 56.77 283.76 55.25C283.76 55.12 283.67 55.02 283.54 55.02C283.42 55.02 283.32 55.12 283.32 55.25C283.32 58.37 281.66 59.79 280.11 59.79C278.57 59.79 276.91 58.37 276.91 55.25C276.91 55.12 276.81 55.02 276.69 55.02C276.56 55.02 276.46 55.12 276.46 55.25C276.46 58.68 278.35 60.24 280.11 60.24Z" fill="#371D15" fill-opacity="1.000000" fill-rule="nonzero"/>
		<path id="Vector" d="M289.34 63.97C288.66 63.97 288.26 63.68 288.24 63.66C288.14 63.59 288.12 63.45 288.19 63.35C288.27 63.25 288.41 63.23 288.51 63.31C288.53 63.32 289.04 63.68 289.91 63.45C290.03 63.42 290.15 63.49 290.18 63.61C290.21 63.73 290.14 63.85 290.02 63.88C289.77 63.95 289.55 63.97 289.34 63.97Z" fill="#371D15" fill-opacity="1.000000" fill-rule="nonzero"/>
		<path id="Vector" d="M316.47 91.85C319.16 98.07 322 104.78 324.36 110.82C330.58 126.75 323.75 137.67 306.46 135.55L302.32 109.69L290.53 73.64C305.85 75.01 311.16 79.56 316.47 91.85Z" fill="#00679D" fill-opacity="1.000000" fill-rule="nonzero"/>
		<path id="Vector" d="M168.81 259.94C168.7 260.46 168.65 260.76 168.66 260.82C168.83 261.86 154.34 262.91 156.15 260.5C156.15 260.5 156.15 260.5 156.15 260.5C156.84 260.22 157.45 259.97 157.92 259.76C157.95 259.74 157.99 259.73 158.02 259.71C158.46 259.46 158.53 259.17 158.67 258.45C158.81 257.69 159.01 255.31 159.01 255.31L164.33 206.39L181.63 207.73C181.63 207.73 173.85 238.69 170.34 253.33C169.89 255.18 169.52 256.77 169.24 258L169.24 258.01C169.05 258.81 168.91 259.46 168.81 259.94L168.81 259.94Z" fill="#FCC49A" fill-opacity="1.000000" fill-rule="nonzero"/>
		<path id="Vector" d="M167.45 269C167.45 269 149.07 269 143.89 269C142.19 269 140.71 266.21 144.04 264.97C146.06 264.22 155.27 260.87 156.15 260.5C156.15 260.5 156.15 260.5 156.15 260.5C157.71 260.9 160.83 261.31 164.63 260.97C164.96 260.94 167.78 260.63 168.81 259.92C168.81 259.93 168.81 259.93 168.81 259.93L168.81 259.93C169.23 261.7 169.42 263.41 169.54 264.67C169.69 266.33 169.98 269 167.45 269Z" fill="#371D15" fill-opacity="1.000000" fill-rule="nonzero"/>
		<path id="Vector" d="M170.34 253.32C169.89 255.17 169.52 256.76 169.24 258L169.24 258L159.01 255.3L170.34 253.32Z" fill="#371D15" fill-opacity="1.000000" fill-rule="nonzero"/>
		<path id="Vector" d="M221.88 263.34L220.39 258.54L221.55 207.98L204.25 195.6L209.7 258.66L209.47 263.48L221.88 263.34Z" fill="#FCC49A" fill-opacity="1.000000" fill-rule="nonzero"/>
		<path id="Vector" d="M209.17 253.17C209.23 253.17 209.62 257.79 209.62 257.79L220.95 255.11L209.17 253.17Z" fill="#371D15" fill-opacity="1.000000" fill-rule="nonzero"/>
		<path id="Vector" d="M209.62 261.08C212 259.29 216.33 258.99 220.65 259.44C220.65 259.44 222.53 263.31 223.04 264.21C224.38 266.6 222.65 268.99 220.8 268.99L211.11 268.99C210.06 268.99 209.2 267.92 209.2 266.58C209.2 265.54 209.48 262.13 209.62 261.08Z" fill="#371D15" fill-opacity="1.000000" fill-rule="nonzero"/>
		<path id="Vector" d="M153.58 255.31L174.78 255.31L191.79 186.7L197.29 164.5L204.3 255.02C204.25 254.97 225.28 254.97 225.31 255.02C225.31 255.02 225.71 176.4 223.84 157.04C222.88 147.15 220.7 135.54 219.58 129.97C219.17 127.89 175.65 129.52 175.21 129.58L173.42 139.38L153.58 255.31Z" fill="#00679D" fill-opacity="1.000000" fill-rule="nonzero"/>
		<path id="Vector" d="M173.99 94.11C174.97 92.47 164.11 89.5 167.03 84.16C171.39 76.14 181.79 74.91 190.29 74.32C194.39 76.26 198 78.31 203.67 74.43C215.94 75.66 224.27 77.49 227.84 85.69C230.09 90.84 223.07 91.51 218.1 92.34C219.29 104.27 223.22 141.26 223.22 141.26C219.05 141.7 194.39 146.27 170.97 141.05C170.97 141.05 173.54 98.59 173.99 94.11Z" fill="#EAE0B5" fill-opacity="1.000000" fill-rule="nonzero"/>
		<path id="Vector" d="M135.15 144.4C132.14 145.38 127.48 133.35 130.62 131.71C133.11 130.37 140.16 143.2 135.15 144.4Z" fill="#371D15" fill-opacity="1.000000" fill-rule="nonzero"/>
		<path id="Vector" d="M177.46 76.7C186.44 74.1 187.02 87.42 186 95.39C184.32 108.58 183.17 116.96 181.82 123.52C180.32 130.89 176.34 133.5 168.4 136.05C162.97 137.79 135.67 144.25 135.15 144.39C139.41 143.34 133 130.52 130.62 131.71C131.24 131.39 153.57 120.89 159.16 118C159.16 118 162.76 95.94 163.75 91.91C166.58 80.28 172.84 78.04 177.46 76.7Z" fill="#EAE0B5" fill-opacity="1.000000" fill-rule="nonzero"/>
		<path id="Vector" d="M216.77 76.7C207.8 74.1 202.78 89.49 208.23 95.39C208.31 95.47 216.48 114.53 219.35 120.38C223.52 128.88 223.97 132.75 232.17 135.59C237.57 137.45 239.85 118.43 239.78 118.44C239.78 118.44 234.26 96.07 232.02 91C227.67 81.14 221.39 78.04 216.77 76.7Z" fill="#EAE0B5" fill-opacity="1.000000" fill-rule="nonzero"/>
		<path id="Vector" d="M268.08 137.72C270.79 140.45 262.31 154.71 258.27 151.9C253.75 148.73 263.94 133.53 268.08 137.72Z" fill="#371D15" fill-opacity="1.000000" fill-rule="nonzero"/>
		<path id="Vector" d="M250.75 127.65L271.93 139.82C271.93 139.82 274.6 150.14 271.95 150.56C265.43 151.58 261.23 146.73 261.23 146.73L244.92 139.53L250.75 127.65Z" fill="#FCC49A" fill-opacity="1.000000" fill-rule="nonzero"/>
		<path id="Vector" d="M277.35 138.93C278.23 139.16 277.58 141.51 275.1 141.69C272.82 141.86 271.27 142.11 271.1 142.09C269.94 142.01 266.33 139.22 266.33 139.22C266.43 139.25 269.58 137.74 271.96 138.05C274.2 138.33 275.15 138.35 277.35 138.93Z" fill="#FCC49A" fill-opacity="1.000000" fill-rule="nonzero"/>
		<path id="Vector" d="M238.61 115.8C238.61 115.8 250.57 126.03 267.6 137.36C264.13 135.05 257.05 148.23 258.28 151.9L231.26 139.82C218.1 133.35 217.23 126.17 221.66 112.94L238.61 115.8Z" fill="#EAE0B5" fill-opacity="1.000000" fill-rule="nonzero"/>
		<path id="Vector" d="M186.34 143.6C186.45 143.6 186.55 143.52 186.56 143.4C186.57 143.28 186.48 143.17 186.36 143.16C178.04 142.23 172.35 141.22 171.22 141.02L175.37 107.67C175.39 107.55 175.3 107.44 175.18 107.42C175.06 107.41 174.95 107.49 174.93 107.62L170.75 141.17C170.74 141.29 170.82 141.39 170.93 141.42C170.99 141.43 177.02 142.57 186.31 143.6C186.32 143.6 186.33 143.6 186.34 143.6Z" fill="#371D15" fill-opacity="1.000000" fill-rule="nonzero"/>
		<path id="Vector" d="M210.92 143.04C210.81 143.04 210.71 142.96 210.7 142.85C210.68 142.73 210.77 142.61 210.89 142.6L222.9 140.99L219.05 108.4C219.03 108.28 219.12 108.16 219.24 108.15C219.37 108.14 219.48 108.22 219.49 108.35L223.37 141.15C223.38 141.27 223.3 141.39 223.18 141.4L210.95 143.04C210.94 143.04 210.93 143.04 210.92 143.04Z" fill="#371D15" fill-opacity="1.000000" fill-rule="nonzero"/>
		<path id="Vector" d="M204.27 43.92C203.4 43.78 203.11 43.72 202.65 42.99C198.72 36.68 192.09 38.84 191.11 38.57C184.05 36.62 178.77 39.88 176.85 44.72C173.99 51.93 179.71 60.1 183.52 59.99C187.34 60.5 192.93 57.72 197.12 53.98C199.44 58.06 202.9 64.48 202.9 64.48C202.9 64.48 201.69 67.1 204.43 66.51C208.12 65.71 205.05 59.98 204.44 60.09L205.44 57.12C205.44 57.12 208.57 54.13 206.89 50.47C206.64 49.91 208.77 44.68 204.27 43.92Z" fill="#1A1A1A" fill-opacity="1.000000" fill-rule="nonzero"/>
		<path id="Vector" d="M189.24 74.61L190.07 70.27L197.4 70.16L197.53 73.25L189.24 74.61Z" fill="#1A1A1A" fill-opacity="1.000000" fill-rule="nonzero"/>
		<path id="Vector" d="M207.31 59.58C207.17 61.93 206.06 63.68 204.42 63.79C204.47 64.43 206.28 76.83 206.28 76.83C203.28 79.89 190.58 79.38 188.86 76.95L189.25 74.61C189.25 74.61 195.07 73.27 196.8 72.01C194.1 73.97 190.01 73.04 188.11 71.9C185.64 70.41 184.14 67.41 183.49 65.09C183.4 64.77 183.32 64.47 183.25 64.19C183.01 63.24 182.8 62.25 182.63 61.21C182.29 59.07 182.15 56.71 182.46 53.95C182.89 50.17 185.15 48.32 186.24 47.64C186.91 47.22 187.31 47.07 187.75 47.65C189.12 49.46 191.02 51.11 196.72 50.86C200.47 50.7 200.36 51.99 200.8 55.27C200.92 56.13 201.21 57.5 202.53 57.26C202.79 57.21 203.09 57.03 203.37 56.68C203.56 56.47 203.76 56.23 204.01 55.96C205.25 54.64 207.52 56.03 207.31 59.58Z" fill="#FCC49A" fill-opacity="1.000000" fill-rule="nonzero"/>
		<path id="Vector" d="M184.98 55.01C186.24 54.58 187.43 54.94 187.45 54.95C187.56 54.98 187.62 55.1 187.59 55.2C187.56 55.31 187.44 55.37 187.33 55.34C187.24 55.31 185 54.65 183.6 56.51C183.53 56.6 183.4 56.62 183.31 56.55C183.22 56.48 183.2 56.35 183.27 56.26C183.77 55.59 184.39 55.21 184.98 55.01Z" fill="#1A1A1A" fill-opacity="1.000000" fill-rule="nonzero"/>
		<path id="Vector" d="M195.55 54.61C194.24 54.41 193.13 54.97 193.11 54.98C193.01 55.03 192.97 55.16 193.02 55.26C193.07 55.36 193.2 55.4 193.3 55.35C193.39 55.3 195.47 54.26 197.18 55.85C197.26 55.93 197.39 55.93 197.47 55.84C197.55 55.76 197.54 55.63 197.46 55.55C196.84 54.98 196.18 54.71 195.55 54.61Z" fill="#1A1A1A" fill-opacity="1.000000" fill-rule="nonzero"/>
		<path id="Vector" d="M190.61 62.93C190.15 62.93 189.72 62.8 189.4 62.53C189.04 62.23 188.89 61.82 188.98 61.41C189.14 60.63 189.28 59.9 189.39 59.29C189.46 58.99 189.86 59.08 189.8 59.38C189.69 60 189.55 60.72 189.38 61.49C189.32 61.75 189.43 62.01 189.66 62.21C189.97 62.47 190.58 62.66 191.31 62.36C191.41 62.32 191.53 62.37 191.58 62.48C191.62 62.58 191.57 62.7 191.46 62.75C191.18 62.86 190.89 62.92 190.61 62.93Z" fill="#1A1A1A" fill-opacity="1.000000" fill-rule="nonzero"/>
		<path id="Vector" d="M201.16 61.05C201.26 62.25 200.32 63.32 199.05 63.43C197.78 63.54 196.66 62.66 196.56 61.45C196.45 60.25 197.4 59.19 198.67 59.07C199.94 58.96 201.05 59.85 201.16 61.05Z" fill="#DD7F60" fill-opacity="1.000000" fill-rule="nonzero"/>
		<path id="Vector" d="M186.3 62.76C186.41 63.96 185.46 65.03 184.19 65.14C183.95 65.16 183.71 65.15 183.49 65.1C183.4 64.78 182.8 62.26 182.63 61.22C182.96 60.98 183.37 60.82 183.81 60.79C185.08 60.67 186.19 61.56 186.3 62.76Z" fill="#DD7F60" fill-opacity="1.000000" fill-rule="nonzero"/>
		<path id="Vector" d="M193.67 58.28C193.72 58.96 194.22 59.48 194.81 59.44C195.39 59.4 195.83 58.82 195.78 58.14C195.74 57.46 195.23 56.95 194.65 56.98C194.06 57.02 193.63 57.6 193.67 58.28Z" fill="#1A1A1A" fill-opacity="1.000000" fill-rule="nonzero"/>
		<path id="Vector" d="M185.17 58.75C185.22 59.43 185.73 59.95 186.31 59.91C186.89 59.87 187.33 59.29 187.29 58.61C187.24 57.94 186.73 57.42 186.15 57.46C185.57 57.49 185.13 58.07 185.17 58.75Z" fill="#1A1A1A" fill-opacity="1.000000" fill-rule="nonzero"/>
		<path id="Vector" d="M204.58 64.21C203.75 64.29 203.36 64.06 203.12 63.87C203.03 63.79 203.02 63.65 203.09 63.55C203.17 63.46 203.31 63.44 203.41 63.52C203.53 63.62 203.91 63.94 205.11 63.68C205.23 63.65 205.35 63.73 205.37 63.85C205.4 63.97 205.32 64.09 205.2 64.11C204.97 64.16 204.77 64.2 204.58 64.21Z" fill="#1A1A1A" fill-opacity="1.000000" fill-rule="nonzero"/>
		<path id="Vector" d="M190.74 65.63C189.65 65.63 188.98 65.15 188.97 65.14C188.88 65.05 188.88 64.91 188.96 64.82C189.05 64.73 189.19 64.73 189.28 64.81C189.3 64.83 190.8 65.83 192.88 64.49C192.99 64.42 193.13 64.45 193.19 64.55C193.26 64.66 193.23 64.8 193.13 64.86C192.21 65.45 191.4 65.63 190.74 65.63Z" fill="#371D15" fill-opacity="1.000000" fill-rule="nonzero"/>
		<path id="Vector" d="M136.86 155.29C136.74 158.51 124.06 157.45 124.88 155.16C126.59 151.1 136.32 146.25 136.86 155.29Z" fill="#371D15" fill-opacity="1.000000" fill-rule="nonzero"/>
		<path id="Vector" d="M139.46 124.22C138.52 116.86 136.61 103.24 133.08 97.47C129.04 90.88 123.13 87.92 110.62 87.62L123.55 123.96L124.17 154.63C123.74 151.67 137.02 152.06 136.92 155.28C137.08 149.87 140.68 133.82 139.46 124.22Z" fill="#8CAACF" fill-opacity="1.000000" fill-rule="nonzero"/>
		<path id="Vector" d="M102.51 194.57C102.54 194.53 98.97 208.56 95.06 223.96C94.56 225.91 94.06 227.88 93.56 229.84C89.31 246.62 85.14 263.13 85.18 263.39C85.35 264.42 85.55 265.55 85.54 266.56C85.54 267.88 84.45 268.94 83.13 268.94L63.14 268.89C62.07 268.89 60.28 266.14 63.57 264.84C64.7 264.39 66.55 263.82 68.47 263.26C70.8 262.58 73.22 261.9 74.54 261.45C75.07 261.28 75.42 260.78 75.41 260.23L78.18 225.72L102.51 194.57Z" fill="#FCC49A" fill-opacity="1.000000" fill-rule="nonzero"/>
		<path id="Vector" d="M63.14 268.89L83.14 268.94C84.45 268.95 85.54 267.89 85.54 266.57C85.55 265.55 85.35 264.42 85.18 263.39C84.45 263.22 83.58 263.21 82.57 263.48C78.83 264.47 74.61 265.47 73.56 265.37C71.89 265.22 69.78 263.85 68.47 263.26C66.55 263.83 64.7 264.4 63.57 264.84C60.28 266.14 62.07 268.89 63.14 268.89Z" fill="#B2502B" fill-opacity="1.000000" fill-rule="nonzero"/>
		<path id="Vector" d="M143.58 268.88L123.59 268.94C122.27 268.94 121.18 267.88 121.18 266.56C121.17 265.54 121.37 264.42 121.54 263.38C121.57 263.22 119.45 244.47 117.83 229.94C117.59 227.88 117.37 225.9 117.17 224.07C116.47 217.73 115.97 213.2 116 213.2L133.16 218.33L131.31 260.23C131.25 261.01 131.65 261.28 132.18 261.45C133.5 261.9 135.92 262.58 138.25 263.26C140.17 263.82 142.02 264.39 143.15 264.84C146.44 266.14 144.65 268.88 143.58 268.88Z" fill="#FCC49A" fill-opacity="1.000000" fill-rule="nonzero"/>
		<path id="Vector" d="M143.58 268.89L123.48 268.93C122.16 268.94 120.99 267.91 120.99 266.59C120.98 265.57 121.37 264.42 121.54 263.39C122.27 263.22 123.15 263.21 124.16 263.48C127.89 264.47 132.11 265.47 133.16 265.37C134.83 265.22 136.94 263.85 138.25 263.26C140.17 263.83 142.02 264.4 143.15 264.84C146.45 266.14 144.65 268.89 143.58 268.89Z" fill="#B2502B" fill-opacity="1.000000" fill-rule="nonzero"/>
		<path id="Vector" d="M132.82 225.66L117.83 229.94C117.6 227.87 117.37 225.9 117.17 224.07L132.82 225.66Z" fill="#371D15" fill-opacity="1.000000" fill-rule="nonzero"/>
		<path id="Vector" d="M79.58 162.01C80.38 143.85 93.61 124.54 93.61 124.54C109.26 111.14 122.65 143.03 133.81 144.5C136.75 151.1 137.86 155.11 137.39 170.61C137.12 179.71 134.27 225.76 134.22 225.76C133.03 225.76 75.86 225.76 75.86 225.76C75.86 225.76 79.06 173.56 79.58 162.01Z" fill="#5E6466" fill-opacity="1.000000" fill-rule="nonzero"/>
		<path id="Vector" d="M85.74 93.83C88.57 91.01 93.41 88.59 101.28 87.94C101.3 87.93 109.98 91.47 115.89 87.94C125.03 89.52 127.62 91.97 129.78 94.85C132.54 98.52 136.68 109.49 139.28 123.49C140.43 129.68 137.41 136.87 134.53 140.9C131.67 144.91 128.57 107.52 128.57 107.52C132.56 116.04 130.36 119.2 130.27 120.72C130.05 124.52 134.11 131.16 133.81 144.5C129.75 146.29 109.74 144.16 84.22 139.46C84.22 139.46 91.97 111.1 92.15 109.44C101 140.9 75.32 125.47 75.86 122.76C76.61 119.03 78.53 111.01 79.74 106.06C81.47 99 83.05 96.53 85.74 93.83Z" fill="#8CAACF" fill-opacity="1.000000" fill-rule="nonzero"/>
		<path id="Vector" d="M133.89 145.08C133.77 145.08 133.67 144.99 133.67 144.87C133.43 136.36 131.85 132.13 130.7 129.04C129.74 126.46 129.04 124.6 129.5 121.66C130.72 113.78 126.71 108.93 126.67 108.88C126.59 108.79 126.6 108.65 126.7 108.57C126.79 108.5 126.92 108.51 127 108.6C127.04 108.65 131.18 113.66 129.93 121.73C129.49 124.55 130.17 126.37 131.1 128.89C132.27 132.01 133.86 136.28 134.1 144.86C134.11 144.98 134.01 145.08 133.89 145.08C133.89 145.08 133.89 145.08 133.89 145.08Z" fill="#371D15" fill-opacity="1.000000" fill-rule="nonzero"/>
		<path id="Vector" d="M101.28 56.91C93.94 54.79 90.46 63.19 91.33 72.82C92.16 82.04 97.32 86.26 105.06 85.97C105.06 85.97 113.21 76.52 120.08 75.56C121.27 72.28 123.62 69.43 125.15 64.07C126.64 58.85 122.77 54.83 115.01 54.08C109.72 53.57 103.7 49.48 101.28 56.91Z" fill="#7A7676" fill-opacity="1.000000" fill-rule="nonzero"/>
		<path id="Vector" d="M122.03 61.58C122.04 61.56 122.04 61.54 122.03 61.51C121.48 57.95 117.44 57.79 117.4 57.79C117.26 57.78 117.15 57.89 117.15 58.02C117.15 58.15 117.25 58.26 117.38 58.27C117.53 58.27 121.07 58.42 121.56 61.58C121.58 61.72 121.7 61.81 121.83 61.79C121.94 61.77 122.02 61.69 122.03 61.58Z" fill="#BDAD9C" fill-opacity="1.000000" fill-rule="nonzero"/>
		<path id="Vector" d="M94.78 66.97C94.87 66.96 94.95 66.89 94.97 66.79C96.63 59.69 101.24 60.34 101.44 60.37C101.57 60.39 101.69 60.3 101.71 60.17C101.74 60.04 101.65 59.92 101.52 59.9C101.46 59.89 96.27 59.12 94.5 66.68C94.47 66.81 94.55 66.94 94.68 66.97C94.71 66.98 94.75 66.98 94.78 66.97Z" fill="#BDAD9C" fill-opacity="1.000000" fill-rule="nonzero"/>
		<path id="Vector" d="M116.4 88.19L115.64 83.75L107.4 84.44L107.5 86.05L116.4 88.19Z" fill="#371D15" fill-opacity="1.000000" fill-rule="nonzero"/>
		<path id="Vector" d="M120.97 68.85C121.12 77.05 120.38 81.67 124.4 84.96C125.25 85.64 120.68 85.55 117.4 83.91C115.75 83.09 109.04 79.29 112.33 72.28C115.77 64.93 120.97 68.85 120.97 68.85Z" fill="#7A7676" fill-opacity="1.000000" fill-rule="nonzero"/>
		<path id="Vector" d="M121.22 73.02C121.22 73.12 121.22 73.23 121.22 73.33C121.22 73.37 121.22 73.4 121.22 73.43C121.21 73.69 121.2 73.95 121.19 74.22C121.16 74.81 121.1 75.42 121.02 76.04C120.97 76.36 120.92 76.68 120.86 77C120.86 77.02 120.85 77.03 120.85 77.05C120.81 77.26 120.77 77.46 120.72 77.66C120.69 77.82 120.65 77.97 120.61 78.12C119.93 80.8 118.61 83.42 116.01 85C114.34 86.01 111.77 86.71 108.3 85.7L116.4 88.18L116.68 89.76C115.64 91.9 102.59 92.29 100.75 89.83C100.75 89.83 101.78 81.71 101.65 81.39C101.21 80.36 100.98 79.28 100.88 78.67C99.19 78.97 97.89 77.61 97.45 75.06C96.87 71.69 98.85 70.69 100.18 71.82C100.45 72.05 100.67 72.25 100.87 72.44C101.18 72.74 101.48 72.91 101.74 72.9C102.12 72.89 102.34 71.08 102.49 70.18C102.78 68.39 102.86 65.54 106.37 64.65C111.91 63.25 111.16 60.95 113.95 60.56C116.71 60.17 119.62 63.19 120.65 67C120.99 68.27 121.16 69.24 121.22 72.2C121.23 72.47 121.23 72.74 121.22 73.02Z" fill="#FCC49A" fill-opacity="1.000000" fill-rule="nonzero"/>
		<path id="Vector" d="M118.51 68.86C117.09 68.65 115.9 69.26 115.88 69.27C115.77 69.32 115.73 69.46 115.79 69.57C115.84 69.68 115.98 69.72 116.09 69.66C116.18 69.61 118.42 68.48 120.26 70.18C120.35 70.27 120.49 70.26 120.57 70.17C120.66 70.08 120.65 69.94 120.56 69.86C119.9 69.24 119.18 68.96 118.51 68.86Z" fill="#7A7676" fill-opacity="1.000000" fill-rule="nonzero"/>
		<path id="Vector" d="M107.78 68.87C109.19 68.61 110.4 69.17 110.42 69.18C110.53 69.23 110.58 69.36 110.53 69.47C110.48 69.58 110.34 69.63 110.23 69.58C110.14 69.53 107.86 68.49 106.08 70.25C106 70.34 105.85 70.34 105.77 70.25C105.68 70.17 105.68 70.03 105.77 69.94C106.41 69.3 107.12 68.99 107.78 68.87Z" fill="#7A7676" fill-opacity="1.000000" fill-rule="nonzero"/>
		<path id="Vector" d="M113.54 76.62C114.04 76.62 114.5 76.47 114.84 76.18C115.22 75.86 115.39 75.42 115.29 74.97C115.11 74.14 114.95 73.36 114.83 72.7C114.76 72.38 114.32 72.48 114.4 72.8C114.52 73.46 114.67 74.24 114.85 75.07C114.92 75.35 114.81 75.63 114.55 75.84C114.23 76.12 113.57 76.33 112.79 76.02C112.67 75.97 112.54 76.02 112.5 76.14C112.45 76.25 112.51 76.38 112.62 76.43C112.92 76.55 113.24 76.61 113.54 76.62Z" fill="#371D15" fill-opacity="1.000000" fill-rule="nonzero"/>
		<path id="Vector" d="M118.72 71.92C118.73 72.12 118.69 72.31 118.63 72.48C118.57 72.61 118.5 72.73 118.4 72.83L117.47 73.07C117.45 73.07 117.43 73.07 117.41 73.07L117.41 73.07C117.34 73.05 117.29 73.02 117.23 72.99C116.94 72.79 116.74 72.44 116.72 72.02C116.68 71.38 117.11 70.84 117.66 70.81C118.21 70.79 118.68 71.28 118.72 71.92Z" fill="#371D15" fill-opacity="1.000000" fill-rule="nonzero"/>
		<path id="Vector" d="M109.68 71.92C109.67 72.41 109.42 72.83 109.05 73C109.02 73.01 108.99 73.02 108.96 73.04L108.96 73.04C108.95 73.04 108.94 73.04 108.92 73.04C108.9 73.04 108.88 73.04 108.86 73.03L108 72.78C107.88 72.66 107.79 72.5 107.73 72.32C107.69 72.2 107.67 72.06 107.67 71.92C107.67 71.28 108.12 70.76 108.68 70.76C109.23 70.76 109.68 71.28 109.68 71.92Z" fill="#371D15" fill-opacity="1.000000" fill-rule="nonzero"/>
		<path id="Vector" d="M118.49 72.82L118.41 72.84L117.48 73.07C117.46 73.08 117.44 73.08 117.42 73.08L117.41 73.08C117.35 73.08 117.28 73.04 117.24 72.99C117.22 72.97 117.21 72.94 117.2 72.91C117.17 72.79 117.25 72.67 117.37 72.64L118.38 72.38C118.48 72.35 118.58 72.4 118.63 72.48C118.64 72.5 118.65 72.52 118.66 72.54C118.69 72.66 118.61 72.79 118.49 72.82Z" fill="#371D15" fill-opacity="1.000000" fill-rule="nonzero"/>
		<path id="Vector" d="M109.14 72.87C109.12 72.92 109.09 72.97 109.04 73C109.02 73.01 108.99 73.03 108.95 73.03L108.95 73.03C108.94 73.03 108.93 73.03 108.92 73.03C108.9 73.03 108.88 73.03 108.85 73.03L107.8 72.72C107.68 72.69 107.61 72.56 107.64 72.44C107.66 72.39 107.69 72.35 107.73 72.32C107.78 72.28 107.85 72.27 107.92 72.29L108.98 72.59C109.1 72.62 109.17 72.75 109.14 72.87Z" fill="#371D15" fill-opacity="1.000000" fill-rule="nonzero"/>
		<path id="Vector" d="M112.84 79.53C113.65 79.53 114.38 79.3 114.92 78.99C115.03 78.93 115.07 78.79 115.01 78.68C114.95 78.58 114.81 78.54 114.7 78.6C113.82 79.1 112.38 79.37 110.99 78.6C110.89 78.54 110.75 78.58 110.69 78.69C110.63 78.79 110.67 78.93 110.77 78.99C111.47 79.38 112.18 79.53 112.84 79.53Z" fill="#371D15" fill-opacity="1.000000" fill-rule="nonzero"/>
		<path id="Vector" d="M109.16 75.6C109.27 76.81 108.32 77.87 107.05 77.98C105.78 78.09 104.67 77.21 104.56 76.01C104.46 74.8 105.4 73.74 106.67 73.63C107.94 73.52 109.06 74.4 109.16 75.6Z" fill="#DD7F60" fill-opacity="1.000000" fill-rule="nonzero"/>
		<path id="Vector" d="M121.22 73.44C121.21 73.7 121.2 73.96 121.19 74.23C121.15 74.82 121.1 75.43 121.01 76.04C120.97 76.37 120.92 76.69 120.86 77.01C120.85 77.03 120.85 77.04 120.85 77.06C120.81 77.26 120.77 77.47 120.72 77.67C120.69 77.68 120.66 77.68 120.62 77.68C119.35 77.79 118.24 76.91 118.13 75.71C118.03 74.5 118.97 73.44 120.24 73.33C120.58 73.3 120.91 73.34 121.22 73.44Z" fill="#DD7F60" fill-opacity="1.000000" fill-rule="nonzero"/>
		<path id="Vector" d="M102.63 69C102.19 72.88 100.53 83.86 105.91 86.3C106.9 86.75 102.19 86.9 98.91 85.25C97.26 84.43 90.55 80.63 93.83 73.62C97.27 66.27 102.63 69 102.63 69Z" fill="#7A7676" fill-opacity="1.000000" fill-rule="nonzero"/>
		<path id="Vector" d="M107.34 268.86L127.4 268.92C128.72 268.92 129.81 268.16 129.81 266.83C129.82 265.81 129.62 264.68 129.45 263.65C129.29 262.7 136.91 228.05 138.69 207.97L123.71 208.15L119.65 260.48C119.66 261.03 119.3 261.53 118.78 261.71C117.45 262.16 115.02 262.84 112.69 263.52C110.76 264.09 108.9 264.65 107.77 265.1C104.47 266.41 106.27 268.86 107.34 268.86Z" fill="#FCC49A" fill-opacity="1.000000" fill-rule="nonzero"/>
		<path id="Vector" d="M107.34 268.86L127.4 268.91C128.72 268.92 129.81 268.15 129.81 266.83C129.82 265.81 129.62 264.68 129.45 263.64C128.71 263.47 127.84 263.46 126.83 263.73C123.08 264.72 118.85 265.73 117.79 265.63C116.11 265.48 114 264.1 112.69 263.52C110.76 264.08 108.9 264.65 107.77 265.1C104.47 266.41 106.27 268.86 107.34 268.86Z" fill="#D3C1AE" fill-opacity="1.000000" fill-rule="nonzero"/>
		<path id="Vector" d="M119.8 258.69L120.13 254.46L131.22 255.32L119.8 258.69Z" fill="#371D15" fill-opacity="1.000000" fill-rule="nonzero"/>
		<path id="Vector" d="M171.22 241.03L169.8 258.92L171.27 263.65L159.18 263.79L159.41 259.04L158.95 236.85L171.22 241.03Z" fill="#FCC49A" fill-opacity="1.000000" fill-rule="nonzero"/>
		<path id="Vector" d="M159.21 263.65C161.97 261.57 166.69 261.07 171.28 263.65C171.28 263.65 172.02 265.82 172.01 266.84C172.01 268.16 170.76 268.92 169.73 268.92L160.8 268.92C159.77 268.92 158.93 268.16 158.92 266.84C158.92 265.82 159.07 264.69 159.21 263.65Z" fill="#D3C1AE" fill-opacity="1.000000" fill-rule="nonzero"/>
		<path id="Vector" d="M159.33 255.32L169.8 258.92L170.17 255.03L159.33 255.32Z" fill="#371D15" fill-opacity="1.000000" fill-rule="nonzero"/>
		<path id="Vector" d="M176.02 255.32C176.02 255.32 179.91 178.02 178.51 158.93C177.61 146.63 168.05 132.68 168.05 132.68C156.85 131.21 144.84 131.66 133.75 133.13C133.75 133.13 127.66 146.25 125.57 155.65C122.68 168.66 113.68 255.32 113.68 255.32L136.98 255.32L151.49 174.23L153.45 255.32C153.63 255.32 176.02 255.32 176.02 255.32Z" fill="#C6F432" fill-opacity="1.000000" fill-rule="nonzero"/>
		<path id="Vector" d="M167.09 56.83C167.09 56.83 174.89 56.38 173.83 69.1C173.49 73.21 174.12 83.57 162.55 88.99C156.41 91.87 150.14 102.16 149.02 101.67C125.18 91.32 152.19 80.92 143.6 70.63C130.95 55.47 154.23 42.23 167.09 56.83Z" fill="#1A1A1A" fill-opacity="1.000000" fill-rule="nonzero"/>
		<path id="Vector" d="M164.78 74.94C164.21 77.3 162.75 78.59 161.35 78.1C161.18 78.84 160.75 80.31 159.96 81.45L162.3 91.23C154.39 97.16 146.94 92.13 146.94 92.13L146.94 86.76L153.97 84.21C150.65 84.94 148.28 84.12 146.79 83.07C144.45 81.44 143.38 78.9 142.91 76.35C142.85 76 142.79 75.64 142.75 75.28C142.71 74.98 142.69 74.67 142.66 74.37C142.62 73.79 142.61 73.21 142.62 72.66C142.62 72.27 142.63 71.9 142.66 71.53C142.67 71.27 142.69 71.02 142.71 70.77C142.95 67.99 143.55 67.16 143.57 65.93C143.64 62.82 146.7 57.3 152.69 59.14C155.85 60.12 159.66 62.79 160.35 71.46C160.42 72.24 160.55 72.61 160.91 72.64C161.14 72.67 161.44 72.53 161.75 72.27C161.95 72.11 162.17 71.93 162.43 71.73C163.75 70.75 165.54 71.82 164.78 74.94Z" fill="#FCC49A" fill-opacity="1.000000" fill-rule="nonzero"/>
		<path id="Vector" d="M145.78 66.35C147.12 66.24 148.19 66.89 148.21 66.9C148.31 66.96 148.34 67.09 148.28 67.19C148.22 67.29 148.09 67.32 147.99 67.26C147.91 67.2 145.88 66 144.05 67.48C143.96 67.55 143.83 67.53 143.76 67.44C143.68 67.35 143.7 67.22 143.79 67.15C144.45 66.62 145.14 66.4 145.78 66.35Z" fill="#1A1A1A" fill-opacity="1.000000" fill-rule="nonzero"/>
		<path id="Vector" d="M156.29 67.29C155.02 66.86 153.81 67.21 153.79 67.22C153.68 67.25 153.62 67.37 153.66 67.48C153.69 67.59 153.81 67.65 153.92 67.62C154.01 67.59 156.27 66.93 157.68 68.82C157.75 68.91 157.88 68.93 157.97 68.86C158.06 68.79 158.08 68.66 158.01 68.57C157.5 67.88 156.89 67.5 156.29 67.29Z" fill="#1A1A1A" fill-opacity="1.000000" fill-rule="nonzero"/>
		<path id="Vector" d="M146.91 69.86C146.85 70.49 146.37 70.96 145.82 70.91C145.28 70.86 144.88 70.31 144.94 69.68C145 69.05 145.48 68.57 146.03 68.62C146.57 68.67 146.97 69.22 146.91 69.86Z" fill="#1A1A1A" fill-opacity="1.000000" fill-rule="nonzero"/>
		<path id="Vector" d="M155.85 70.78C155.79 71.41 155.3 71.88 154.76 71.83C154.21 71.79 153.82 71.23 153.88 70.6C153.93 69.97 154.42 69.5 154.96 69.55C155.51 69.6 155.9 70.15 155.85 70.78Z" fill="#1A1A1A" fill-opacity="1.000000" fill-rule="nonzero"/>
		<path id="Vector" d="M149.9 74.83C149.44 74.76 149.04 74.55 148.77 74.22C148.47 73.86 148.39 73.43 148.55 73.03C148.86 72.29 149.13 71.6 149.35 71.01C149.47 70.72 149.85 70.88 149.73 71.17C149.51 71.76 149.24 72.45 148.94 73.19C148.84 73.44 148.89 73.72 149.09 73.96C149.35 74.27 149.92 74.57 150.7 74.4C150.81 74.38 150.92 74.45 150.94 74.56C150.97 74.68 150.89 74.79 150.78 74.81C150.48 74.88 150.18 74.88 149.9 74.83Z" fill="#1A1A1A" fill-opacity="1.000000" fill-rule="nonzero"/>
		<path id="Vector" d="M159.07 75.25C158.97 76.34 157.96 77.14 156.81 77.03C155.66 76.93 154.81 75.96 154.91 74.87C155.01 73.78 156.02 72.99 157.17 73.09C158.32 73.2 159.17 74.16 159.07 75.25Z" fill="#DD7F60" fill-opacity="1.000000" fill-rule="nonzero"/>
		<path id="Vector" d="M142.66 71.53C142.63 71.89 142.62 72.27 142.62 72.65C142.61 73.21 142.62 73.78 142.66 74.36C142.69 74.67 142.71 74.97 142.75 75.28C142.89 75.32 143.03 75.35 143.18 75.36C144.33 75.47 145.34 74.67 145.44 73.58C145.54 72.5 144.69 71.53 143.54 71.42C143.23 71.39 142.93 71.43 142.66 71.53Z" fill="#DD7F60" fill-opacity="1.000000" fill-rule="nonzero"/>
		<path id="Vector" d="M152.63 76.42C152.94 76.35 152.42 78.46 150.58 78.45C148.56 78.45 148.07 76.17 148.53 76.37C149.99 77.19 151.48 76.98 152.63 76.42Z" fill="#EADED5" fill-opacity="1.000000" fill-rule="nonzero"/>
		<path id="Vector" d="M155.36 70.2C155.4 70.2 155.44 70.19 155.48 70.16C155.58 70.09 155.61 69.96 155.54 69.86C155.5 69.8 155.13 69.3 153.98 69.46C153.86 69.48 153.77 69.59 153.79 69.71C153.81 69.84 153.92 69.92 154.04 69.9C154.91 69.78 155.17 70.11 155.17 70.11C155.22 70.17 155.29 70.2 155.36 70.2Z" fill="#1A1A1A" fill-opacity="1.000000" fill-rule="nonzero"/>
		<path id="Vector" d="M146.56 69.45C146.62 69.45 146.67 69.43 146.72 69.39C146.8 69.3 146.8 69.16 146.72 69.07C146.7 69.06 146.69 69.04 146.67 69.02C146.51 68.81 146.2 68.41 145.04 68.56C144.92 68.58 144.83 68.69 144.85 68.81C144.86 68.93 144.97 69.02 145.1 69C146 68.89 146.2 69.14 146.32 69.29C146.35 69.33 146.38 69.36 146.4 69.39C146.44 69.43 146.5 69.45 146.56 69.45Z" fill="#1A1A1A" fill-opacity="1.000000" fill-rule="nonzero"/>
		<path id="Vector" d="M161.87 78.62C161.36 78.62 160.98 78.42 160.72 78.02C160.66 77.93 160.68 77.81 160.77 77.74C160.87 77.68 160.99 77.71 161.05 77.8C161.31 78.19 161.68 78.29 162.34 78.16C162.45 78.14 162.55 78.21 162.57 78.32C162.6 78.43 162.52 78.53 162.42 78.56C162.22 78.59 162.04 78.62 161.87 78.62Z" fill="#1A1A1A" fill-opacity="1.000000" fill-rule="nonzero"/>
		<path id="Vector" d="M135.75 113.89L133.35 131.82C133.77 132.08 157.5 134.42 173.11 132.37L172.14 115.95L180 120.4L184.74 120.94C184.89 116.02 185.43 101.99 181.31 96.27C177.25 90.65 170.2 88.79 160.99 88.41C156.75 90.53 150.23 90.67 147.07 88.29C140.79 88.95 131.65 89.32 127.71 96.44C123.76 103.58 121.43 115.97 121.34 116.16C121.56 115.98 135.75 113.89 135.75 113.89Z" fill="#FF6699" fill-opacity="1.000000" fill-rule="nonzero"/>
		<path id="Vector" d="M139.7 89.25C133.29 90.59 125.72 93.33 118.84 107.06C113.55 117.64 110.36 122.42 109.45 127.94C108.36 134.5 119.3 141.43 130.91 140.25C138.21 139.5 157.09 137.95 157.09 137.95C157.37 137.9 139.96 133.77 139.96 133.77C139.96 133.77 139.98 132.3 139.99 129.89C140.07 119.49 140.22 91.66 139.7 89.25Z" fill="#FF6699" fill-opacity="1.000000" fill-rule="nonzero"/>
		<path id="Vector" d="M161.41 78.14C160.37 80.55 158.78 82.83 157.67 85.44C154.24 93.53 159.4 99.89 163.8 102C165.26 102.7 165.45 100.6 165.55 99.78C166.52 91.88 176.46 91.41 177.66 92.6C181.24 90.22 179.45 84.07 177.66 80.05C176.27 76.94 173.78 72.44 173.93 67.22C174.03 63.78 168.48 80.67 161.41 78.14Z" fill="#1A1A1A" fill-opacity="1.000000" fill-rule="nonzero"/>
		<path id="Vector" d="M141.95 104.89C141.1 102.07 136.58 96.99 133.75 93.22L132.04 95.18L145.15 86.79L141.77 81.53C141.77 81.53 132.06 84.33 126.89 88.28C123.54 90.84 124.87 94.12 125.85 99.61C126.8 104.97 128.83 114.22 128.83 114.22C128.83 114.22 141.52 109.01 141.95 104.89Z" fill="#FBFBFB" fill-opacity="1.000000" fill-rule="nonzero"/>
		<path id="Vector" d="M164.14 161.52L160.44 156.65L166.3 155.19L169.74 161.52L164.14 161.52Z" fill="#FCC49A" fill-opacity="1.000000" fill-rule="nonzero"/>
		<path id="Vector" d="M169.74 161.52C169.74 161.52 173.47 162.84 175.44 163.79C176.44 164.27 176.32 165.84 175.46 165.84C175.46 165.84 166.56 165.84 164.88 165.84C162.47 165.84 164.14 161.52 164.14 161.52L169.74 161.52Z" fill="#371D15" fill-opacity="1.000000" fill-rule="nonzero"/>
		<path id="Vector" d="M126.15 126.45L146.27 127.98L145.83 133.61C145.83 133.61 151.99 134.99 153.88 135.4C159.44 136.6 160.68 137.67 163.04 143.45C165.06 148.39 169.64 158.2 169.64 158.2L162.47 161.21L149.44 146.98C144.69 146.91 141.21 146.43 135.24 146.29C127.26 146.09 126.15 140.92 126.15 133.01C126.15 131.37 126.15 126.45 126.15 126.45Z" fill="#00679D" fill-opacity="1.000000" fill-rule="nonzero"/>
		<path id="Vector" d="M144.49 76.95C141.92 75.57 138.3 73.92 134.35 77.69C127.27 76.75 126.89 94.24 133.9 95.29C135.54 97.08 147.73 95.68 145.04 94C145.53 93.36 146.17 89.77 147.24 89.28C150.23 87.91 150.42 80.11 144.49 76.95Z" fill="#1A1A1A" fill-opacity="1.000000" fill-rule="nonzero"/>
		<path id="Vector" d="M147.87 90.24C147.85 90.41 147.83 90.59 147.8 90.77C147.79 90.87 147.77 90.97 147.75 91.08C147.73 91.23 147.7 91.39 147.67 91.54C147.6 91.93 147.5 92.32 147.39 92.71C147.33 92.92 147.27 93.12 147.19 93.33C147.16 93.44 147.12 93.54 147.08 93.65C147.03 93.78 146.98 93.91 146.92 94.04C146.2 95.73 145.04 97.33 143.08 98.15C141.82 98.68 139.94 98.94 137.59 98.01L140.76 97.97L140.76 101.4C140.76 101.4 136.24 105.44 131.22 100.36C131.22 100.36 133.46 94.25 133.5 94.25C133.29 93.67 133.17 93.15 133.16 92.9C132.26 93.2 131.3 92.51 131.22 90.82C131.11 88.58 132.27 88.05 133.11 88.89C133.28 89.06 133.42 89.21 133.54 89.34C133.73 89.57 133.93 89.7 134.11 89.71C134.38 89.74 134.61 89.51 134.69 88.97C135.02 86.9 135.53 84.49 138.08 84.18C142.1 83.7 141.77 82.15 143.77 82.11C145.75 82.07 147.53 84.25 147.93 86.81C148.06 87.66 148.09 88.3 147.87 90.24Z" fill="#FCC49A" fill-opacity="1.000000" fill-rule="nonzero"/>
		<path id="Vector" d="M144.79 89.51C144.74 89.96 145.01 90.34 145.39 90.38C145.77 90.42 146.12 90.09 146.16 89.65C146.2 89.21 145.93 88.82 145.55 88.79C145.17 88.75 144.83 89.07 144.79 89.51Z" fill="#371D15" fill-opacity="1.000000" fill-rule="nonzero"/>
		<path id="Vector" d="M138.87 89.1C138.83 89.54 139.1 89.93 139.48 89.96C139.86 90 140.2 89.67 140.25 89.23C140.29 88.79 140.02 88.41 139.64 88.37C139.26 88.33 138.92 88.66 138.87 89.1Z" fill="#371D15" fill-opacity="1.000000" fill-rule="nonzero"/>
		<path id="Vector" d="M135.81 91.29C135.74 92.05 136.33 92.73 137.13 92.81C137.93 92.88 138.64 92.33 138.71 91.57C138.78 90.82 138.19 90.14 137.39 90.06C136.59 89.98 135.88 90.54 135.81 91.29Z" fill="#DD7F60" fill-opacity="1.000000" fill-rule="nonzero"/>
		<path id="Vector" d="M147.75 91.07C147.73 91.23 147.7 91.38 147.67 91.54C147.59 91.92 147.5 92.32 147.38 92.71C147.33 92.91 147.26 93.12 147.19 93.32C147.15 93.43 147.11 93.54 147.07 93.65C147.02 93.65 146.96 93.64 146.9 93.64C146.1 93.56 145.51 92.88 145.59 92.13C145.66 91.37 146.37 90.82 147.17 90.89C147.38 90.91 147.58 90.98 147.75 91.07Z" fill="#DD7F60" fill-opacity="1.000000" fill-rule="nonzero"/>
		<path id="Vector" d="M132.69 93.39C132.55 93.39 132.41 93.37 132.27 93.32C132.17 93.28 132.11 93.17 132.14 93.06C132.18 92.96 132.29 92.9 132.4 92.94C132.74 93.05 133.12 92.96 133.39 92.69C133.47 92.61 133.59 92.61 133.67 92.69C133.75 92.77 133.75 92.89 133.67 92.97C133.4 93.24 133.05 93.39 132.69 93.39Z" fill="#371D15" fill-opacity="1.000000" fill-rule="nonzero"/>
		<path id="Vector" d="M147.07 88.5C146.99 88.5 146.91 88.45 146.88 88.36C146.87 88.32 146.54 87.38 144.95 87.51C144.84 87.52 144.74 87.44 144.73 87.33C144.72 87.22 144.8 87.12 144.91 87.11C146.84 86.95 147.25 88.19 147.26 88.24C147.3 88.35 147.24 88.46 147.13 88.49C147.11 88.5 147.09 88.5 147.07 88.5Z" fill="#371D15" fill-opacity="1.000000" fill-rule="nonzero"/>
		<path id="Vector" d="M137.88 87.51C137.82 87.51 137.76 87.48 137.72 87.43C137.66 87.34 137.67 87.21 137.77 87.15C139.07 86.2 140.62 86.76 140.69 86.79C140.79 86.83 140.85 86.94 140.81 87.05C140.77 87.15 140.65 87.21 140.55 87.17C140.52 87.16 139.12 86.66 138 87.47C137.97 87.5 137.92 87.51 137.88 87.51Z" fill="#371D15" fill-opacity="1.000000" fill-rule="nonzero"/>
		<path id="Vector" d="M142.23 92.18C141.88 92.18 141.59 92.06 141.57 92.05C141.46 92.01 141.41 91.89 141.45 91.79C141.5 91.69 141.61 91.64 141.72 91.68C141.72 91.68 142.36 91.93 142.65 91.63C142.97 91.3 142.89 91 142.55 89.89L142.53 89.83C142.5 89.73 142.56 89.62 142.66 89.58C142.77 89.55 142.88 89.61 142.92 89.71L142.93 89.77C143.27 90.85 143.44 91.4 142.94 91.91C142.74 92.12 142.47 92.18 142.23 92.18Z" fill="#371D15" fill-opacity="1.000000" fill-rule="nonzero"/>
		<path id="Vector" d="M142.03 94.14C141.6 94.14 141.08 94 140.53 93.54C140.45 93.47 140.44 93.34 140.51 93.26C140.58 93.17 140.71 93.16 140.79 93.23C141.93 94.19 142.87 93.51 142.91 93.48C143 93.42 143.12 93.43 143.19 93.52C143.26 93.61 143.24 93.74 143.15 93.8C143.14 93.81 142.69 94.14 142.03 94.14Z" fill="#371D15" fill-opacity="1.000000" fill-rule="nonzero"/>
		<path id="Vector" d="M160.06 103.47C160.3 102.41 160.5 101.81 161.34 101.14C161.84 100.74 162.49 100.24 163 99.45C163.25 99.06 163.55 98.84 163.85 99.02C164.14 99.2 164.06 99.47 163.96 99.8C163.81 100.31 163.12 101.47 163.09 101.52C163.21 101.54 164.87 100.09 164.87 100.09L166.03 98.79C166.18 98.58 166.48 98.54 166.68 98.7C166.78 98.77 166.84 98.88 166.86 98.99C166.86 98.99 167.14 98.62 167.55 98.86C168.02 99.15 167.48 99.87 167.46 99.91C167.59 99.68 167.86 99.56 168.09 99.69C168.3 99.81 168.35 100.06 168.28 100.29C168.23 100.48 167.93 101.03 167.83 101.24C167.95 101.13 168.1 101.12 168.25 101.17C168.45 101.24 168.61 101.51 168.5 101.74C168.12 102.55 167.67 103.34 167.17 103.97C166.19 105.19 163.15 106.4 163.15 106.4L158.51 111.12L152.16 109.58C152.16 109.58 159.82 104.49 160.06 103.47Z" fill="#FCC49A" fill-opacity="1.000000" fill-rule="nonzero"/>
		<path id="Vector" d="M139.42 98.87C141.85 100.53 145.33 106.37 148.07 110.2L145.68 111.24L159.08 103.14L163.07 107.94C159.1 111.69 151.18 120.2 147.74 120.65C143.3 121.23 140.9 117.44 135.69 113.93C131.34 110.99 135.35 98.03 139.42 98.87Z" fill="#FBFBFB" fill-opacity="1.000000" fill-rule="nonzero"/>
		<path id="Vector" d="M141.66 100.51C139.53 97.85 133.2 95.42 131.22 96.63C122.42 102 126.15 127.65 126.15 127.65L146.27 127.99C146.42 125.6 148.44 108.99 141.66 100.51Z" fill="#FBFBFB" fill-opacity="1.000000" fill-rule="nonzero"/>
		<path id="Vector" d="M143.64 97.88C141.8 98.87 139.66 98.85 137.48 98.12C135.39 97.42 133.68 95.68 133.23 93.38C133.2 93.23 143.64 97.88 143.64 97.88Z" fill="#FCC49A" fill-opacity="1.000000" fill-rule="nonzero"/>
		<path id="Vector" d="M146.58 121.08C144.42 121.08 141.39 119.26 137.57 115.64C137.48 115.56 137.48 115.44 137.56 115.36C137.63 115.27 137.76 115.27 137.84 115.35C141.76 119.05 144.9 120.89 146.93 120.66C147.04 120.65 147.14 120.73 147.15 120.84C147.16 120.95 147.08 121.05 146.97 121.06C146.84 121.08 146.71 121.08 146.58 121.08Z" fill="#371D15" fill-opacity="1.000000" fill-rule="nonzero"/>
		<path id="Vector" d="M126.37 104.96C126.36 104.96 126.34 104.95 126.33 104.95C126.22 104.92 126.15 104.81 126.18 104.71C126.58 103.03 127.16 101.57 127.84 100.47C127.9 100.38 128.03 100.35 128.12 100.41C128.21 100.47 128.24 100.59 128.18 100.68C127.52 101.75 126.96 103.17 126.57 104.8C126.55 104.89 126.46 104.96 126.37 104.96Z" fill="#371D15" fill-opacity="1.000000" fill-rule="nonzero"/>
		<path id="Vector" d="M143.89 148.67C145.83 148.82 147.68 141.89 145.7 140.19C140.36 140.95 136.07 146.7 141.36 147.78C141.4 147.79 142.21 148.55 143.89 148.67Z" fill="#371D15" fill-opacity="1.000000" fill-rule="nonzero"/>
		<path id="Vector" d="M157.21 136.55C158.3 136.45 158.97 136.52 159.07 136.92C159.2 137.42 158.52 138.14 157.07 138.43C154.52 138.93 152.9 139.34 152.81 139.5C152.79 139.53 143.89 138.07 143.89 138.07C144.01 138.06 147.17 137 149.96 136.43C152.59 135.9 154.48 136.78 157.21 136.55Z" fill="#FCC49A" fill-opacity="1.000000" fill-rule="nonzero"/>
		<path id="Vector" d="M141.19 136.4C141.96 136.61 146.05 137.22 146.23 137.22C146.35 137.22 154.35 138.07 154.96 138.2C154.96 138.2 158 138.36 160.44 138.35C161.66 138.34 162.94 138.54 162.93 139.12C162.92 139.61 162.33 139.96 161.86 140.01C161.96 140.02 162.08 140.03 162.22 140.04C163.2 140.11 163.88 140.38 163.92 140.88C163.99 141.91 162.07 142.1 161.89 142.09C161.96 142.1 163 142.23 162.85 143.01C162.76 143.48 161.82 143.67 160.56 143.97C160.02 144.11 158.99 144.18 158.99 144.18C159.73 144.3 160.13 144.66 160.17 144.93C160.26 145.49 159.74 145.87 158.14 146.02C156.27 146.19 153.86 146.22 152.37 146.28C149.65 146.39 146.77 146.22 144.67 145.44C144.29 145.3 131.15 144.89 131.15 144.89C128.37 144.13 138.8 135.96 141.19 136.4Z" fill="#FCC49A" fill-opacity="1.000000" fill-rule="nonzero"/>
		<path id="Vector" d="M153.19 144.16C153.2 144.29 153.31 144.39 153.46 144.39C155.41 144.39 158.3 144.3 158.33 144.3C158.47 144.29 158.59 144.18 158.59 144.06C158.59 143.93 158.46 143.83 158.31 143.83C158.28 143.83 155.41 143.92 153.46 143.92C153.32 143.92 153.19 144.02 153.19 144.15C153.19 144.16 153.19 144.16 153.19 144.16Z" fill="#371D15" fill-opacity="1.000000" fill-rule="nonzero"/>
		<path id="Vector" d="M154.6 140.37C154.61 140.48 154.7 140.57 154.83 140.58C156.57 140.75 161.28 140.42 161.48 140.4C161.63 140.39 161.74 140.28 161.73 140.15C161.73 140.02 161.6 139.92 161.45 139.94C161.4 139.94 157.4 140.22 154.9 140.11C154.75 140.11 154.62 140.19 154.6 140.32C154.6 140.34 154.6 140.36 154.6 140.37Z" fill="#371D15" fill-opacity="1.000000" fill-rule="nonzero"/>
		<path id="Vector" d="M111.23 122.28C106.31 132.56 111.98 141.36 119.58 143.15C128.3 145.2 143.53 148.74 143.89 148.67C141.66 148.37 140.83 136.25 145.38 137.04L124.36 124.21C124.36 124.21 113.5 117.54 111.23 122.28Z" fill="#FF6699" fill-opacity="1.000000" fill-rule="nonzero"/>
		<path id="Vector" d="M148.83 141C145.93 140.49 148.45 130.9 150.96 130.2C155.48 133.14 154.91 142.18 149.66 140.93C149.62 140.92 148.87 141.01 148.83 141Z" fill="#371D15" fill-opacity="1.000000" fill-rule="nonzero"/>
		<path id="Vector" d="M137.81 125.94C136.79 125.55 136.13 125.42 135.92 125.78C135.66 126.22 136.11 127.11 137.42 127.79C139.72 128.99 141.16 129.84 141.2 130.02C141.21 130.05 150.17 131.16 150.17 131.16C150.05 131.12 147.32 129.21 144.8 127.88C142.43 126.63 140.37 126.93 137.81 125.94Z" fill="#FCC49A" fill-opacity="1.000000" fill-rule="nonzero"/>
		<path id="Vector" d="M153.22 130.32C152.43 130.3 148.25 129.71 148.08 129.67C147.96 129.64 140.13 128.21 139.5 128.16C139.5 128.16 136.54 127.45 134.2 126.75C133.04 126.41 131.75 126.24 131.6 126.8C131.47 127.27 131.94 127.77 132.38 127.95C132.28 127.93 132.16 127.91 132.02 127.88C131.06 127.67 130.33 127.74 130.16 128.2C129.8 129.18 131.58 129.89 131.76 129.94C131.7 129.93 130.66 129.76 130.58 130.55C130.54 131.03 131.38 131.48 132.5 132.12C132.99 132.4 133.95 132.77 133.95 132.77C133.21 132.67 132.73 132.91 132.61 133.15C132.36 133.66 132.76 134.17 134.25 134.76C136 135.45 138.3 136.17 139.72 136.64C142.29 137.51 145.1 138.16 147.34 138.01C147.75 137.98 160.46 141.29 160.46 141.29C163.34 141.35 155.64 130.56 153.22 130.32Z" fill="#FCC49A" fill-opacity="1.000000" fill-rule="nonzero"/>
		<path id="Vector" d="M139.52 134.4C139.48 134.52 139.34 134.58 139.2 134.54C137.32 133.99 134.58 133.09 134.55 133.08C134.41 133.03 134.33 132.9 134.37 132.77C134.41 132.65 134.56 132.59 134.7 132.64C134.72 132.64 137.46 133.54 139.33 134.09C139.47 134.13 139.56 134.26 139.52 134.39C139.52 134.39 139.52 134.39 139.52 134.4Z" fill="#371D15" fill-opacity="1.000000" fill-rule="nonzero"/>
		<path id="Vector" d="M138.85 132.2C138.81 132.3 138.7 132.36 138.57 132.33C136.86 132.02 132.41 130.42 132.22 130.35C132.08 130.3 132 130.16 132.05 130.04C132.09 129.91 132.24 129.86 132.38 129.91C132.42 129.93 136.04 131.24 138.63 131.87C138.78 131.9 138.88 132.02 138.87 132.15C138.86 132.17 138.86 132.18 138.85 132.2Z" fill="#371D15" fill-opacity="1.000000" fill-rule="nonzero"/>
		<path id="Vector" d="M139.25 130.35C139.2 130.45 139.09 130.51 138.96 130.48C137.25 130.16 132.82 128.51 132.63 128.44C132.49 128.39 132.42 128.25 132.46 128.13C132.51 128 132.66 127.95 132.79 128C132.84 128.02 136.6 129.41 139.03 130.02C139.17 130.05 139.28 130.17 139.26 130.3C139.26 130.32 139.25 130.34 139.25 130.35Z" fill="#371D15" fill-opacity="1.000000" fill-rule="nonzero"/>
		<path id="Vector" d="M187.02 135.63C184.64 143.68 186.36 146.08 173.45 144.42C163.56 143.15 151.45 141.38 148.83 141C151.36 141.29 153 130.11 149.8 129.92L175.43 127.36C175.43 127.36 188.52 130.59 187.02 135.63Z" fill="#FF6699" fill-opacity="1.000000" fill-rule="nonzero"/>
		<path id="Vector" d="M178.13 92.81C181.79 95.42 185.09 99.99 187.03 108.49C189.99 121.47 190.73 125.79 191.65 131.31C192.74 137.86 189.54 146.07 177.93 144.88C170.62 144.14 151.6 141.24 151.6 141.24C151.33 141.19 171.11 133.18 171.11 133.18C171.11 133.18 170.75 127.93 170.29 117.36C170.13 113.7 174.76 106.12 174.61 102C174.34 94.23 175.34 90.83 178.13 92.81Z" fill="#FF6699" fill-opacity="1.000000" fill-rule="nonzero"/>
		<path id="Vector" d="M170.3 117.29L172.3 127.66L169.77 127.96L170.3 117.29Z" fill="#371D15" fill-opacity="1.000000" fill-rule="nonzero"/>
		<path id="Vector" d="M113.69 152.01C116.96 153.32 119.15 142.05 117.22 140.75C112.93 140.32 105.3 148.22 113.69 152.01Z" fill="#1A1A1A" fill-opacity="1.000000" fill-rule="nonzero"/>
		<path id="Vector" d="M104.65 146.48C105.23 146.6 105.01 136.86 106.73 135.44C106.73 135.44 116.01 140.6 117.17 140.66C118.41 140.73 120.15 140.08 121.53 140.1C122.99 140.12 125.3 141.14 126.25 141.52C127.43 141.99 129.38 142.89 130.23 143.2C131.1 143.52 130.19 144.55 129.6 144.54C127.52 144.48 124.84 144.07 124.8 144.06C125.82 144.98 134.41 146.37 134.61 146.35C135.08 146.33 136.12 146.8 135.5 147.53C134.92 148.57 130.44 149.64 126.64 149C124.03 148.57 119.35 147.83 119.26 147.82C116.43 147.52 104.65 146.48 104.65 146.48Z" fill="#FCC49A" fill-opacity="1.000000" fill-rule="nonzero"/>
		<path id="Vector" d="M76.61 119.19C78.23 113.31 92.46 125.2 92.46 125.2L117.27 140.61C114.3 140.49 111.05 150.83 113.69 152.01C113.69 152.01 91.46 143.54 86.37 141.62C75.36 137.45 73.78 129.47 76.61 119.19Z" fill="#8CAACF" fill-opacity="1.000000" fill-rule="nonzero"/>
		<path id="Vector" d="M128.71 144.74C127.83 144.72 126.95 144.58 126.79 144.55C126.67 144.53 126.59 144.42 126.61 144.3C126.63 144.19 126.74 144.11 126.86 144.13C127.92 144.3 129.77 144.45 130.21 144.1C130.55 143.84 130.32 143.47 130.27 143.4C130.21 143.31 130.23 143.17 130.33 143.1C130.42 143.03 130.56 143.06 130.63 143.15C130.81 143.42 131.02 144.02 130.48 144.44C130.14 144.7 129.43 144.76 128.71 144.74Z" fill="#1A1A1A" fill-opacity="1.000000" fill-rule="nonzero"/>
		<path id="Vector" d="M271.96 174.96C271.44 177.24 262.38 175.78 261.91 173.81C264.76 169.08 272.09 171.71 271.96 174.96Z" fill="#371D15" fill-opacity="1.000000" fill-rule="nonzero"/>
		<path id="Vector" d="M260.11 178.28C260.69 176.81 262.01 175.29 261.95 174.96C261.95 173.83 261.55 164.57 262.23 163.52C264.34 160.27 269.84 163.78 269.86 165.36C269.89 168.15 267.98 176.53 268.03 176.85C268.52 179.96 268.6 180.57 268.32 182.7C268.06 184.67 267.85 185.12 267.5 186.52C267.19 187.74 266.79 188.1 266.37 187.95C266.17 187.87 265.94 187.51 265.95 186.92C265.95 186.92 265.69 188.16 265.59 188.59C265.39 189.46 265.12 189.94 264.55 189.97C263.93 190 263.92 188.94 263.92 188.89C263.9 189.03 263.88 189.19 263.85 189.34C263.71 190.1 263.17 190.55 262.7 190.3C262.35 190.11 262.2 189.63 262.28 188.86C262.29 188.75 262.3 188.66 262.31 188.58C262.2 188.94 261.85 189.29 261.47 189.28C261.09 189.28 260.68 188.89 260.84 187.94C261.25 185.41 261.47 183.95 261.45 182.76C261.45 182.57 261.52 181.65 261.62 180.6C261.33 181.1 260.39 182.91 260.15 183.51C259.93 184.07 259.65 184.45 259.1 184.29C258.78 184.2 258.5 183.82 258.77 182.87C259.1 181.72 259.49 179.85 260.11 178.28Z" fill="#FCC49A" fill-opacity="1.000000" fill-rule="nonzero"/>
		<path id="Vector" d="M266.53 182.7C266.62 182.72 266.68 182.82 266.67 182.93C266.46 184.46 266.07 186.71 266.06 186.73C266.04 186.85 265.95 186.93 265.85 186.91C265.74 186.89 265.68 186.78 265.7 186.67C265.7 186.65 266.09 184.41 266.3 182.89C266.32 182.77 266.41 182.69 266.51 182.7C266.52 182.7 266.52 182.7 266.53 182.7Z" fill="#371D15" fill-opacity="1.000000" fill-rule="nonzero"/>
		<path id="Vector" d="M264.81 183.2C264.89 183.22 264.95 183.3 264.94 183.4C264.91 184.78 264.18 188.44 264.15 188.6C264.13 188.71 264.03 188.79 263.93 188.77C263.82 188.75 263.76 188.64 263.79 188.52C263.79 188.49 264.39 185.51 264.57 183.41C264.58 183.29 264.66 183.2 264.76 183.19C264.78 183.19 264.79 183.19 264.81 183.2Z" fill="#371D15" fill-opacity="1.000000" fill-rule="nonzero"/>
		<path id="Vector" d="M263.07 182.95C263.15 182.97 263.21 183.06 263.21 183.16C263.17 184.54 262.45 188.2 262.42 188.35C262.39 188.47 262.29 188.55 262.19 188.53C262.09 188.51 262.03 188.4 262.05 188.28C262.06 188.24 262.67 185.14 262.84 183.17C262.85 183.05 262.93 182.95 263.03 182.95C263.04 182.95 263.06 182.95 263.07 182.95Z" fill="#371D15" fill-opacity="1.000000" fill-rule="nonzero"/>
		<path id="Vector" d="M260.68 156.21L261.91 173.81C263.96 171.97 272.29 173.47 271.97 174.96C271.97 174.96 272.71 166.99 274.07 157.96C275.09 151.18 274.62 146.75 267.52 145.96C267.52 145.96 260.6 152.67 260.68 156.21Z" fill="#FBFBFB" fill-opacity="1.000000" fill-rule="nonzero"/>
		<path id="Vector" d="M233.53 228.79C233.54 228.79 236.72 217.1 237.18 215.76L223.21 212.6L221.82 222.06L221.31 225.6L220.84 228.79L233.53 228.79Z" fill="#FCC49A" fill-opacity="1.000000" fill-rule="nonzero"/>
		<path id="Vector" d="M224.1 264.01C224.1 264.01 224.1 264.01 224.1 264.01C224.1 263.98 224.1 263.95 224.11 263.91C224.11 263.91 224.11 263.91 224.11 263.9C224.41 262.06 229.76 242.42 233.53 228.8L220.84 228.8L216.94 255.4L216.47 258.67L216.07 261.44C216.08 261.9 215.79 262.3 215.36 262.45C214.27 262.81 212.28 263.37 210.37 263.93C210.27 263.96 210.17 263.99 210.07 264.02C209.79 264.1 209.51 264.19 209.23 264.27C209.22 264.28 209.21 264.28 209.2 264.28C209.12 264.31 209.05 264.33 208.98 264.35C208.87 264.38 208.76 264.42 208.65 264.45C208.09 264.62 207.56 264.79 207.1 264.95C207.09 264.96 207.08 264.96 207.06 264.96C206.99 264.99 206.93 265.01 206.86 265.04C206.83 265.05 206.81 265.06 206.79 265.06C206.73 265.08 206.68 265.1 206.62 265.12C206.6 265.13 206.58 265.14 206.55 265.15C206.48 265.18 206.41 265.2 206.34 265.23C203.64 266.3 205.11 268.55 205.99 268.55L208.65 268.56L222.42 268.6C223.5 268.6 224.39 267.73 224.39 266.65C224.4 265.81 224.24 264.89 224.1 264.04C224.1 264.03 224.1 264.02 224.1 264.01Z" fill="#FF6699" fill-opacity="1.000000" fill-rule="nonzero"/>
		<path id="Vector" d="M205.99 268.56L222.42 268.6C223.5 268.6 224.39 267.73 224.4 266.65C224.4 265.81 224.24 264.89 224.1 264.04C223.5 263.9 222.78 263.89 221.95 264.11C218.88 264.92 215.41 265.75 214.55 265.67C213.18 265.54 211.45 264.42 210.37 263.94C208.8 264.4 207.27 264.87 206.34 265.23C203.64 266.3 205.12 268.56 205.99 268.56Z" fill="#B2502B" fill-opacity="1.000000" fill-rule="nonzero"/>
		<path id="Vector" d="M265.59 210.03L264.61 222.13L264.33 225.51L264.07 228.82L252.18 228.82L252.11 225.66L252.09 225.06L252.02 222.09L251.74 210.74L265.59 210.03Z" fill="#FCC49A" fill-opacity="1.000000" fill-rule="nonzero"/>
		<path id="Vector" d="M252.95 260.26L252.76 264.16L262.66 264.04L261.46 260.17L261.58 258.91L261.88 255.73L264.06 228.8L252.18 228.8L252.95 260.26Z" fill="#FF6699" fill-opacity="1.000000" fill-rule="nonzero"/>
		<path id="Vector" d="M252.78 264.06C255.05 262.35 258.92 261.95 262.67 264.06C262.67 264.06 263.27 265.84 263.27 266.67C263.27 267.76 262.24 268.62 261.4 268.62L254.09 268.62C253.25 268.62 252.56 267.76 252.55 266.67C252.55 265.84 252.67 264.91 252.78 264.06Z" fill="#B2502B" fill-opacity="1.000000" fill-rule="nonzero"/>
		<path id="Vector" d="M217.93 222.13L269.46 222.13C269.73 209.4 269.6 192.97 269.19 187.66C268.89 183.77 267.93 180.02 266.76 176.7C264.09 169.19 260.27 163.83 260.27 163.83C249.8 162.45 241.93 162.59 231.56 163.97C231.56 163.97 231.22 164.77 230.69 166.15C230.25 167.3 229.67 168.85 229.03 170.68C228.4 172.46 227.72 174.5 227.06 176.7C226.15 179.74 225.26 183.08 224.59 186.4C223.59 191.44 220.52 208.65 217.93 222.13Z" fill="#FFB3CC" fill-opacity="1.000000" fill-rule="nonzero"/>
		<path id="Vector" d="M236.14 100.74C236.82 110.1 229.56 116.66 232.11 122.62L243.49 122.62C246.37 118.94 242.17 109.94 243.5 104.09L236.14 100.74Z" fill="#1A1A1A" fill-opacity="1.000000" fill-rule="nonzero"/>
		<path id="Vector" d="M244.38 92.12C247.92 91.61 253.87 92.94 255.73 97.35C262.41 98.87 261.15 109.65 258.17 118C258.17 118 251.87 119.14 249.12 119.05C246.47 120.44 233.04 113.57 236.85 112.75C236.56 111.79 237.33 107.31 236.31 106.28C233.45 103.38 236.22 93.28 244.38 92.12Z" fill="#1A1A1A" fill-opacity="1.000000" fill-rule="nonzero"/>
		<path id="Vector" d="M234.65 111.04C234.66 110.77 234.67 110.5 234.69 110.23C234.72 109.73 234.78 109.22 234.86 108.74C234.89 108.55 234.92 108.35 234.96 108.16C234.98 108.03 235.01 107.9 235.03 107.78C235.08 107.56 235.13 107.34 235.18 107.13C235.75 104.77 236.05 104.03 236.56 103.09C238.09 100.26 241.07 98.47 243.33 99.36C245.61 100.27 244.58 101.94 249 104.24C251.8 105.7 251.72 108.18 251.64 111.13C251.62 111.81 250.83 116.89 250.68 117.1C250.69 117.11 250.69 117.11 250.69 117.11C250.49 117.45 251.7 123.81 251.7 123.81C243.78 127.61 240.22 123.81 240.22 123.81L240.28 122.62L243.74 120.83C242.62 120.79 241.56 120.62 240.58 120.31C240.52 120.29 240.46 120.27 240.4 120.25C239.85 120.07 239.34 119.84 238.85 119.56C238.85 119.56 238.84 119.55 238.84 119.55C238.78 119.52 238.73 119.49 238.67 119.46C238.62 119.42 238.56 119.39 238.51 119.36C238.48 119.34 238.45 119.32 238.42 119.3C238.37 119.27 238.32 119.23 238.27 119.2C238.25 119.19 238.23 119.17 238.22 119.16C237.89 118.94 237.6 118.7 237.35 118.46C237.34 118.45 237.32 118.43 237.31 118.42C237.19 118.31 237.08 118.2 236.98 118.09C236.93 118.03 236.88 117.98 236.84 117.93C236.83 117.92 236.82 117.91 236.81 117.9C235.31 116.17 234.77 114.05 234.67 111.99C234.66 111.81 234.65 111.64 234.65 111.47C234.65 111.32 234.65 111.18 234.65 111.04Z" fill="#FCC49A" fill-opacity="1.000000" fill-rule="nonzero"/>
		<path id="Vector" d="M239.03 107.1C238.9 107.64 238.42 107.98 237.97 107.86C237.52 107.74 237.26 107.21 237.4 106.67C237.53 106.14 238.01 105.8 238.46 105.92C238.91 106.04 239.17 106.57 239.03 107.1Z" fill="#1A1A1A" fill-opacity="1.000000" fill-rule="nonzero"/>
		<path id="Vector" d="M245.63 109.12C245.5 109.65 245.02 109.99 244.57 109.87C244.12 109.75 243.86 109.22 244 108.68C244.13 108.15 244.61 107.81 245.06 107.93C245.51 108.05 245.77 108.58 245.63 109.12Z" fill="#1A1A1A" fill-opacity="1.000000" fill-rule="nonzero"/>
		<path id="Vector" d="M248.61 113.55C248.37 114.47 247.41 115.01 246.45 114.75C245.5 114.5 244.92 113.55 245.15 112.63C245.39 111.71 246.35 111.17 247.31 111.42C248.26 111.68 248.84 112.63 248.61 113.55Z" fill="#DD7F60" fill-opacity="1.000000" fill-rule="nonzero"/>
		<path id="Vector" d="M234.96 108.16C234.92 108.35 234.89 108.54 234.86 108.74C234.79 109.22 234.73 109.72 234.69 110.23C234.67 110.5 234.66 110.77 234.66 111.04C234.65 111.18 234.65 111.32 234.65 111.46C234.72 111.49 234.79 111.51 234.85 111.53C235.81 111.78 236.77 111.24 237.01 110.32C237.24 109.4 236.66 108.45 235.71 108.2C235.45 108.13 235.2 108.12 234.96 108.16Z" fill="#DD7F60" fill-opacity="1.000000" fill-rule="nonzero"/>
		<path id="Vector" d="M240.3 111.64C240.7 111.78 241.09 111.77 241.12 111.77C241.25 111.77 241.36 111.65 241.35 111.51C241.35 111.38 241.24 111.27 241.1 111.27C241.09 111.27 240.25 111.28 240.04 110.81C239.81 110.29 240.03 109.97 240.9 108.82L240.94 108.76C241.02 108.65 241 108.49 240.89 108.41C240.79 108.32 240.63 108.34 240.55 108.45L240.51 108.51C239.66 109.64 239.23 110.2 239.59 111.01C239.74 111.35 240.02 111.53 240.3 111.64Z" fill="#1A1A1A" fill-opacity="1.000000" fill-rule="nonzero"/>
		<path id="Vector" d="M247.74 108.68C247.77 108.68 247.8 108.67 247.83 108.66C247.96 108.61 248.02 108.46 247.97 108.33C247.08 106.16 245 105.96 244.91 105.95C244.77 105.94 244.65 106.04 244.64 106.18C244.62 106.32 244.73 106.45 244.86 106.46C244.94 106.47 246.74 106.65 247.5 108.52C247.54 108.62 247.64 108.68 247.74 108.68Z" fill="#1A1A1A" fill-opacity="1.000000" fill-rule="nonzero"/>
		<path id="Vector" d="M236.66 104.75C236.7 104.75 236.75 104.74 236.79 104.71C238.3 103.79 239.65 104.67 239.7 104.71C239.82 104.79 239.98 104.75 240.05 104.64C240.13 104.52 240.1 104.36 239.98 104.28C239.92 104.24 238.32 103.18 236.53 104.27C236.41 104.35 236.37 104.51 236.44 104.63C236.49 104.71 236.57 104.75 236.66 104.75Z" fill="#1A1A1A" fill-opacity="1.000000" fill-rule="nonzero"/>
		<path id="Vector" d="M238.64 112.35C238.35 112.21 238.49 114.42 240 114.78C241.52 115.13 242.69 113.06 242.2 113.19C240.77 113.5 239.66 113.19 238.64 112.35Z" fill="#EADED5" fill-opacity="1.000000" fill-rule="nonzero"/>
		<path id="Vector" d="M223.22 152.59C223.82 152.29 229.33 147.22 229.33 147.22C229.36 147.22 227.47 167.62 227.47 167.62C227.85 168.24 248.09 169.25 262.64 167.34C262.64 167.34 262.6 162.26 262.11 158.34C264 158.44 274.01 158.82 274.38 155.5C275.26 147.37 272.27 141.29 269.3 134.55C265.91 126.87 261.6 124.34 254.78 123.82C253.79 123.75 252.74 123.72 251.64 123.72C247.69 125.69 243.58 125.5 240.22 123.81C239.04 123.8 237.95 123.84 236.93 123.93C226.44 124.94 224.22 131.76 214.57 143.05C213.93 143.8 223.22 152.59 223.22 152.59Z" fill="#FBFBFB" fill-opacity="1.000000" fill-rule="nonzero"/>
		<path id="Vector" d="M259.08 167.95C258.97 167.95 258.87 167.86 258.86 167.74C258.85 167.62 258.94 167.51 259.07 167.5L263.15 167.22L260.5 149.27C260.48 149.14 260.57 149.03 260.69 149.01C260.81 148.99 260.93 149.08 260.94 149.2L263.63 167.4C263.64 167.46 263.62 167.52 263.58 167.57C263.54 167.62 263.48 167.65 263.42 167.65L259.1 167.95C259.09 167.95 259.09 167.95 259.08 167.95Z" fill="#1A1A1A" fill-opacity="1.000000" fill-rule="nonzero"/>
		<path id="Vector" d="M251.67 108.67C251.67 112.6 251.16 114.78 249.86 117.15C248.16 120.26 246.23 123.54 247.41 126.74L263.24 126.74C265.5 123.39 264.5 120.09 262.83 115.28C261.89 112.59 260.56 110.29 260.56 106.21L251.67 108.67Z" fill="#1A1A1A" fill-opacity="1.000000" fill-rule="nonzero"/>
		<path id="Vector" d="M194.46 143.99C192.56 142.69 195.63 135.08 198.5 134.91C200.5 135.42 196.96 145.08 194.46 143.99Z" fill="#371D15" fill-opacity="1.000000" fill-rule="nonzero"/>
		<path id="Vector" d="M201 135.14C200.9 134.68 201.89 143.19 201.89 143.19C197.12 140.51 194.98 140.2 193.16 138.31C192.44 137.55 191.77 136.2 191.62 134.56C191.54 133.62 191.29 131.24 191 130.62C190.55 129.64 188.54 126.95 189.06 126.13C189.08 126.1 189.12 126.16 189.04 126.02C188.86 125.73 188.73 124.72 189.22 124.66C190.19 124.73 193.54 128.16 194.7 131.08C195.75 133.73 195.88 133.75 195.88 133.75L201 135.14Z" fill="#FCC49A" fill-opacity="1.000000" fill-rule="nonzero"/>
		<path id="Vector" d="M189.07 130.97C188.63 129.77 189.7 129.61 190.41 130.67C191.01 131.56 191.6 133.35 193.06 133.88C193.08 133.89 195.44 139.91 195.44 139.91C195.39 139.83 193.04 138.78 191.71 137.05C190.45 135.41 189.67 132.61 189.07 130.97Z" fill="#FCC49A" fill-opacity="1.000000" fill-rule="nonzero"/>
		<path id="Vector" d="M193.02 134.84C192.94 134.84 192.86 134.79 192.82 134.72C192.47 134.01 192.22 133.76 191.96 133.5C191.68 133.21 191.38 132.91 190.95 132.07C190.89 131.96 190.93 131.83 191.04 131.77C191.15 131.71 191.29 131.75 191.34 131.87C191.75 132.64 192.02 132.92 192.28 133.18C192.55 133.46 192.84 133.74 193.22 134.52C193.28 134.63 193.23 134.76 193.12 134.82C193.09 134.83 193.05 134.84 193.02 134.84Z" fill="#371D15" fill-opacity="1.000000" fill-rule="nonzero"/>
		<path id="Vector" d="M192.13 129.62C192.05 129.62 191.98 129.59 191.94 129.52L191.68 129.13C190.46 127.3 189.72 126.19 189.14 126.19C189.02 126.19 188.92 126.09 188.92 125.97C188.92 125.84 189.02 125.74 189.14 125.74C189.96 125.74 190.66 126.79 192.05 128.88L192.31 129.27C192.38 129.38 192.35 129.52 192.25 129.58C192.21 129.61 192.17 129.62 192.13 129.62Z" fill="#371D15" fill-opacity="1.000000" fill-rule="nonzero"/>
		<path id="Vector" d="M228.59 152.61C224.06 157.38 220.07 157.66 213.87 154.88C210.08 153.19 196.26 144.9 194.46 143.98C196.33 144.83 201.38 135.26 197.72 134.25C200.4 134.99 215.68 138.86 220.09 140.06C220.09 140.06 238.59 140.93 235.94 144.34C233.69 147.26 229.94 151.19 228.59 152.61Z" fill="#FBFBFB" fill-opacity="1.000000" fill-rule="nonzero"/>
		<path id="Vector" d="M267.87 111.85C264.69 109.73 270.64 97.86 274.87 99.06C277.61 103.7 274.57 115.91 267.87 111.85Z" fill="#1A1A1A" fill-opacity="1.000000" fill-rule="nonzero"/>
		<path id="Vector" d="M278.75 100.1L277.7 111.28C277.7 111.28 273.6 108.72 271.29 106.95C266.37 106.06 264.51 104.51 263.32 103.38C261.98 102.1 261.45 100.24 260.43 98.63C259.62 97.33 258.46 96.36 257.75 95.94C256.44 95.17 251.69 94.58 250.81 93.92C250.2 93.46 250.18 92.69 250.37 92.37C250.4 92.33 250.44 92.28 250.25 92.22C249.87 92.1 249.4 91.17 249.8 90.72C250.74 90.03 257.23 90.7 260.57 92.46C263.61 94.05 268.4 95.96 270.03 96.99C271.64 98 278.75 100.1 278.75 100.1Z" fill="#FCC49A" fill-opacity="1.000000" fill-rule="nonzero"/>
		<path id="Vector" d="M250.52 92.49C250.48 92.46 250.45 92.41 250.45 92.35C250.44 92.24 250.52 92.13 250.64 92.12C252.38 91.94 253.96 92.09 255.33 92.57C255.44 92.6 255.5 92.73 255.46 92.84C255.42 92.95 255.3 93 255.19 92.97C253.88 92.51 252.36 92.37 250.68 92.54C250.62 92.55 250.57 92.53 250.52 92.49Z" fill="#1A1A1A" fill-opacity="1.000000" fill-rule="nonzero"/>
		<path id="Vector" d="M316.29 124.28C318.66 120.19 305.38 107.77 305.38 107.77C305.38 107.77 280.04 100.44 273.23 98.31C278.01 99.8 272.34 114.27 267.87 111.85C267.87 111.85 286.71 125.3 294.89 129.97C301.56 133.77 311.75 132.14 316.29 124.28Z" fill="#00679D" fill-opacity="1.000000" fill-rule="nonzero"/>
		<path id="Vector" d="M299.31 98.67L303.11 107.16L299.62 105.65L299.31 98.67Z" fill="#1A1A1A" fill-opacity="1.000000" fill-rule="nonzero"/>
		<path id="Vector" d="M312.41 135.74C305.19 135.74 298.14 131.46 282.38 121.9C279.64 120.24 276.53 118.35 273.15 116.32C273.04 116.26 273.01 116.12 273.07 116.01C273.14 115.9 273.28 115.87 273.39 115.93C276.77 117.96 279.88 119.85 282.61 121.51C301.41 132.91 307.74 136.75 316.72 134.79C316.85 134.76 316.97 134.84 316.99 134.96C317.02 135.09 316.94 135.21 316.82 135.23C315.29 135.57 313.85 135.74 312.41 135.74Z" fill="#1A1A1A" fill-opacity="1.000000" fill-rule="nonzero"/>
		<path id="Vector" d="M267.79 145.74C267.83 146.11 268.19 146.47 268.54 146.58C267.89 146.59 267.26 147.13 267.34 147.72C267.43 148.38 268.11 148.75 268.74 148.81C270.59 148.97 272.02 149.01 272.06 149.09C272.22 149.21 270.73 149.27 270.1 149.45C269.55 149.61 269.19 150.15 269.29 150.65C269.4 151.16 269.87 151.59 270.97 151.5C272.12 151.41 272.85 151.28 273.73 151.08C275.33 150.71 275.85 149.92 276.41 149.1C277.09 148.12 278.14 144.03 278.04 142.72C277.89 140.85 275.72 140.04 274.8 141.46C274.8 141.46 272.31 141.74 270.85 142.06C270.11 142.21 269.29 142.63 269.39 143.35C269.48 143.94 269.95 144.16 270.35 144.23C270.35 144.23 269.43 144.29 268.83 144.45C268.27 144.6 267.72 145.13 267.79 145.74Z" fill="#FCC49A" fill-opacity="1.000000" fill-rule="nonzero"/>
		<path id="Vector" d="M273.63 146.32C273.59 146.29 273.53 146.27 273.47 146.27C271.42 146.45 269.26 146.35 269.24 146.35C269.11 146.35 269 146.44 269 146.57C268.99 146.7 269.09 146.81 269.22 146.81C269.24 146.82 271.43 146.91 273.51 146.73C273.64 146.72 273.73 146.61 273.72 146.48C273.71 146.42 273.68 146.36 273.63 146.32Z" fill="#371D15" fill-opacity="1.000000" fill-rule="nonzero"/>
		<path id="Vector" d="M275.22 144.01C275.17 143.97 275.11 143.95 275.04 143.96C273.34 144.17 270.91 144.12 270.88 144.12C270.76 144.12 270.65 144.22 270.65 144.35C270.64 144.48 270.75 144.58 270.87 144.58C270.9 144.59 273.36 144.63 275.1 144.42C275.23 144.41 275.32 144.29 275.3 144.16C275.29 144.1 275.26 144.05 275.22 144.01Z" fill="#371D15" fill-opacity="1.000000" fill-rule="nonzero"/>
		<path id="Vector" d="M273.93 141.21C273.96 141.26 274.02 141.3 274.09 141.3C275.32 141.39 276.62 141.05 276.67 141.03C276.79 141 276.86 140.89 276.83 140.77C276.8 140.66 276.68 140.59 276.57 140.62C276.55 140.63 275.28 140.95 274.12 140.88C274 140.87 273.9 140.96 273.89 141.07C273.89 141.13 273.9 141.17 273.93 141.21Z" fill="#371D15" fill-opacity="1.000000" fill-rule="nonzero"/>
		<path id="Vector" d="M66.43 256.75L66.64 257.89L66.68 258.12L67.08 260.35L67.7 263.85L76.28 263.05L76.05 260.09L75.89 258.14L75.25 249.88L66.43 256.75Z" fill="#EAE0B5" fill-opacity="1.000000" fill-rule="nonzero"/>
		<path id="Vector" d="M65.47 257.86L66.68 258.12L67.08 260.35L75.89 258.14L66.64 257.89L65.47 257.86Z" fill="#EAE0B5" fill-opacity="1.000000" fill-rule="nonzero"/>
		<path id="Vector" d="M76.14 262.15C76.14 262.15 81.94 264.2 85 265.68C86.55 266.43 86.37 268.86 85.04 268.86C85.04 268.86 71.18 268.86 68.56 268.86C64.83 268.86 67.42 262.15 67.42 262.15L76.14 262.15Z" fill="#EAE0B5" fill-opacity="1.000000" fill-rule="nonzero"/>
		<path id="Vector" d="M43.04 256.75L42.84 257.9L42.8 258.13L41.77 263.85L33.19 263.06L33.43 260.1L33.58 258.14L34.23 249.89L43.04 256.75Z" fill="#EAE0B5" fill-opacity="1.000000" fill-rule="nonzero"/>
		<path id="Vector" d="M44 257.87L42.79 258.12L42.44 260.07L33.58 258.14L42.83 257.9L44 257.87Z" fill="#EAE0B5" fill-opacity="1.000000" fill-rule="nonzero"/>
		<path id="Vector" d="M33.33 262.16C33.33 262.16 27.54 264.21 24.47 265.69C22.92 266.44 23.1 268.87 24.43 268.87C24.43 268.87 38.3 268.87 40.91 268.87C44.65 268.87 42.05 262.16 42.05 262.16L33.33 262.16Z" fill="#EAE0B5" fill-opacity="1.000000" fill-rule="nonzero"/>
		<path id="Vector" d="M80.86 258.16L62.51 258.16L55.33 186.27L47.46 258.17C47.32 258.17 28.72 258.17 28.72 258.17L39.93 157.22C48.55 156.09 64.51 160.96 73.06 162.09L80.86 258.16Z" fill="#EAE0B5" fill-opacity="1.000000" fill-rule="nonzero"/>
		<path id="Vector" d="M59.84 85.68C56.31 84.44 50.47 83.5 46.2 89.05C37.03 89.24 35.98 109.65 49.05 111.46C51.48 113.41 66.67 109.27 62.93 107.65C63.43 106.75 63.54 102.07 64.8 101.24C68.34 98.92 67.99 88.54 59.84 85.68Z" fill="#1A1A1A" fill-opacity="1.000000" fill-rule="nonzero"/>
		<path id="Vector" d="M44.78 106.31C45.21 108.44 46.56 109.13 47.64 108.58C47.7 108.89 47.96 109.52 48.34 110.22C48.28 110.23 47.46 117.81 47.46 117.81C49.51 124.88 61 118.43 61 118.43L60.67 116.07L60.2 113.87C60.2 113.87 60.53 113.72 60.53 113.72C60.53 113.72 61.05 113.43 61.25 113.31C63.58 111.88 64.74 109.62 65.33 107.34C65.37 107.17 65.41 106.99 65.45 106.82C65.48 106.67 65.51 106.53 65.54 106.39C65.58 106.11 65.62 105.84 65.66 105.57C65.73 105.05 65.77 104.53 65.79 104.03C65.8 103.83 65.81 103.62 65.81 103.42C65.81 103.29 65.81 103.15 65.81 103.02C65.81 102.79 65.8 102.56 65.79 102.33C65.69 99.84 65.52 99.03 65.19 97.98C64.2 94.8 61.64 94.22 59.11 94.48C57.03 94.7 54.48 94.82 52.19 96.55C49.56 98.54 48.84 100.6 48.82 103.29C48.82 103.99 48.58 104.32 48.24 104.35C48 104.36 47.72 104.24 47.43 103.99C47.25 103.84 47.05 103.68 46.8 103.5C45.58 102.6 44.2 103.49 44.78 106.31Z" fill="#FCC49A" fill-opacity="1.000000" fill-rule="nonzero"/>
		<path id="Vector" d="M61.74 102.04C61.77 102.6 62.19 103.04 62.68 103.02C63.16 102.99 63.54 102.51 63.51 101.94C63.48 101.37 63.05 100.94 62.57 100.96C62.08 100.99 61.71 101.47 61.74 102.04Z" fill="#1A1A1A" fill-opacity="1.000000" fill-rule="nonzero"/>
		<path id="Vector" d="M54.16 102.64C54.19 103.2 54.61 103.64 55.09 103.62C55.58 103.59 55.95 103.11 55.92 102.54C55.89 101.97 55.47 101.54 54.98 101.56C54.5 101.59 54.12 102.07 54.16 102.64Z" fill="#1A1A1A" fill-opacity="1.000000" fill-rule="nonzero"/>
		<path id="Vector" d="M50.69 106.02C50.75 107 51.63 107.74 52.66 107.68C53.69 107.63 54.48 106.79 54.43 105.81C54.37 104.83 53.49 104.09 52.46 104.15C51.43 104.2 50.64 105.04 50.69 106.02Z" fill="#DD7F60" fill-opacity="1.000000" fill-rule="nonzero"/>
		<path id="Vector" d="M65.81 103.43C65.81 103.63 65.8 103.83 65.79 104.03C65.77 104.54 65.73 105.05 65.66 105.57C65.63 105.85 65.58 106.12 65.54 106.39C65.51 106.54 65.48 106.68 65.45 106.82C65.38 106.84 65.3 106.84 65.23 106.85C64.2 106.91 63.32 106.16 63.27 105.18C63.21 104.21 64 103.37 65.03 103.31C65.31 103.3 65.57 103.34 65.81 103.43Z" fill="#DD7F60" fill-opacity="1.000000" fill-rule="nonzero"/>
		<path id="Vector" d="M47.15 109.29C46.97 109.31 46.79 109.31 46.6 109.28C46.46 109.26 46.37 109.12 46.39 108.98C46.42 108.84 46.55 108.75 46.69 108.77C47.15 108.85 47.61 108.65 47.89 108.26C47.98 108.15 48.14 108.12 48.26 108.21C48.37 108.29 48.4 108.45 48.31 108.57C48.02 108.96 47.6 109.22 47.15 109.29Z" fill="#1A1A1A" fill-opacity="1.000000" fill-rule="nonzero"/>
		<path id="Vector" d="M64.69 100.02C64.59 100.06 64.47 100.02 64.4 99.93C64.37 99.88 63.58 98.87 61.7 99.69C61.57 99.75 61.42 99.69 61.36 99.55C61.31 99.42 61.37 99.27 61.5 99.21C63.77 98.23 64.78 99.57 64.82 99.62C64.9 99.74 64.88 99.9 64.76 99.99C64.74 100 64.72 100.01 64.69 100.02Z" fill="#1A1A1A" fill-opacity="1.000000" fill-rule="nonzero"/>
		<path id="Vector" d="M52.59 100.83C52.51 100.84 52.43 100.81 52.37 100.75C52.27 100.65 52.27 100.49 52.37 100.39C53.84 98.93 55.92 99.35 56.01 99.37C56.15 99.4 56.24 99.53 56.21 99.67C56.18 99.81 56.04 99.9 55.91 99.87C55.87 99.87 54 99.5 52.74 100.75C52.7 100.79 52.65 100.82 52.59 100.83Z" fill="#1A1A1A" fill-opacity="1.000000" fill-rule="nonzero"/>
		<path id="Vector" d="M59.33 105.9C58.89 105.97 58.49 105.88 58.46 105.87C58.32 105.84 58.24 105.7 58.27 105.56C58.3 105.42 58.44 105.33 58.58 105.37C58.59 105.37 59.45 105.56 59.76 105.12C60.1 104.64 59.95 104.27 59.29 102.93L59.26 102.87C59.2 102.74 59.25 102.59 59.38 102.52C59.51 102.46 59.66 102.51 59.72 102.64L59.75 102.71C60.39 104.02 60.72 104.67 60.18 105.42C59.97 105.72 59.64 105.85 59.33 105.9Z" fill="#1A1A1A" fill-opacity="1.000000" fill-rule="nonzero"/>
		<path id="Vector" d="M55.04 114.23C56.47 114.57 59.44 115.75 60.67 116.08L60.2 113.88C58.35 114.63 56.63 114.52 55.04 114.23Z" fill="#1A1A1A" fill-opacity="1.000000" fill-rule="nonzero"/>
		<path id="Vector" d="M45.93 90.02C45.93 90.02 45.94 90.02 45.95 90.02C46.07 90.03 46.17 89.94 46.18 89.82C46.24 89.15 46.08 88.48 45.72 87.94C45.32 87.33 44.71 86.94 43.96 86.81C43.84 86.79 43.73 86.87 43.71 86.98C43.68 87.1 43.76 87.21 43.88 87.23C45.29 87.48 45.84 88.73 45.75 89.79C45.74 89.9 45.82 90 45.93 90.02Z" fill="#1A1A1A" fill-opacity="1.000000" fill-rule="nonzero"/>
		<path id="Vector" d="M46.2 89.73C46.3 89.75 46.4 89.7 46.44 89.6C46.46 89.54 47.03 88.15 46.21 86.83C46.15 86.73 46.01 86.7 45.91 86.76C45.81 86.82 45.78 86.96 45.84 87.06C46.55 88.19 46.04 89.42 46.04 89.43C45.99 89.54 46.04 89.67 46.15 89.72C46.17 89.72 46.18 89.73 46.2 89.73Z" fill="#1A1A1A" fill-opacity="1.000000" fill-rule="nonzero"/>
		<path id="Vector" d="M56.89 107.16C56.89 107.47 57.39 109.19 59.28 109.16C61.01 109.13 61.64 106.86 61.16 107.04C60.89 107.13 59.93 107.4 59.36 107.4C57.76 107.41 56.88 106.88 56.89 107.16Z" fill="#EADED5" fill-opacity="1.000000" fill-rule="nonzero"/>
		<path id="Vector" d="M97.7 123.38C98.25 120.96 90.21 117.19 87.82 119.17C86.61 121.04 96.51 126.08 97.7 123.38Z" fill="#1A1A1A" fill-opacity="1.000000" fill-rule="nonzero"/>
		<path id="Vector" d="M80.43 133.18C80.43 133.18 85.46 123.24 86.96 120.24C87.49 119.18 87.96 118.05 88.04 117.72C88.06 117.64 87.31 114.55 87.41 113.49C87.53 112.37 88.35 110.89 88.73 109.39C88.94 108.57 89.18 108.34 89.48 108.42C89.88 108.53 90.19 109.19 90.15 109.74C90.1 110.4 89.99 111.24 89.92 111.87C89.87 112.25 89.92 112.58 90.02 112.77L92.55 106.05C92.89 105.35 93.3 105.12 93.61 105.25C93.9 105.37 94.2 105.8 94.02 106.37C93.6 107.62 92.7 110.11 92.89 110.14C92.91 110.15 92.82 110.21 92.85 110.16C93.18 109.4 95.05 105.37 95.05 105.37C95.36 104.82 95.8 104.67 96.08 104.84C96.43 105.04 96.52 105.46 96.38 105.89C96.22 106.39 94.52 110.03 94.42 110.71C94.41 110.78 94.32 110.86 94.36 110.82C94.81 110.3 96.72 106.55 96.72 106.55C97.06 105.86 97.43 105.84 97.73 105.98C98.01 106.11 98.14 106.67 97.9 107.26C97.36 108.6 95.64 111.68 95.79 111.76C95.81 111.77 95.74 111.69 95.79 111.66C96.14 111.37 96.92 109.57 97.29 108.87C97.57 108.34 98.07 108.15 98.37 108.3C98.65 108.43 98.76 108.87 98.53 109.43C98.1 110.42 97.63 111.88 97.26 112.79C97.13 113.11 97.14 113.49 97.08 113.83C96.42 117.03 95.05 118.85 93.93 120.51C93.6 121 90.83 131.48 88.83 136.32C87.82 138.8 79.5 136.3 80.43 133.18Z" fill="#FCC49A" fill-opacity="1.000000" fill-rule="nonzero"/>
		<path id="Vector" d="M91.64 117.32C91.73 117.32 91.82 117.27 91.86 117.17C92.54 115.54 91.25 113.64 91.19 113.56C91.12 113.45 90.97 113.43 90.86 113.5C90.75 113.58 90.72 113.73 90.8 113.84C90.81 113.85 91.99 115.6 91.42 116.99C91.37 117.11 91.42 117.25 91.55 117.3C91.58 117.32 91.61 117.32 91.64 117.32Z" fill="#1A1A1A" fill-opacity="1.000000" fill-rule="nonzero"/>
		<path id="Vector" d="M97.7 123.39C96.94 125.44 91.51 142.42 89.55 147.07C87.68 151.54 84.3 155.32 78.2 155.33C77.8 155.33 77.4 155.31 76.98 155.28C76.39 155.24 75.5 155.19 74.45 155.12C71.74 154.92 67.91 154.61 65.08 154.14C60.47 153.37 74.5 139.1 74.5 139.1C77.11 134.92 86.37 120.64 87.95 118.08C85.8 121.57 96.84 125.43 97.7 123.39Z" fill="#00679D" fill-opacity="1.000000" fill-rule="nonzero"/>
		<path id="Vector" d="M78.51 145.27C78.44 145.27 73.03 146.02 73.03 146.02C73 146.02 76.04 167.43 76.04 167.43C75.66 168.05 50.18 168.72 35.53 166.8C35.53 166.8 36.5 155.06 36.99 151.12C35.09 151.22 25.25 153.99 25.01 150.63C24.86 148.53 26.58 137.28 29.09 130.84C31.83 123.83 33.52 116.47 47.64 116.17C50.2 118.12 57.79 118.03 60.66 116.08C75.23 116.08 77.39 124.57 85.2 138.82C85.67 139.69 78.51 145.27 78.51 145.27Z" fill="#00679D" fill-opacity="1.000000" fill-rule="nonzero"/>
		<path id="Vector" d="M27.9 178.14C28.56 180.89 39.72 179.64 39.52 177C37.11 172.81 27.08 173.67 27.9 178.14Z" fill="#1A1A1A" fill-opacity="1.000000" fill-rule="nonzero"/>
		<path id="Vector" d="M39.76 177.41C41.08 178.65 41.85 179.68 42.03 181.46C42.14 182.53 42.23 183.89 42.87 185.32C43.19 186.05 43.21 186.66 42.69 186.91C42.17 187.16 41.88 186.79 41.5 186.35C40.93 185.68 39.93 183.65 39.88 183.57C39.75 183.72 40.24 186.11 40.24 186.11L41.18 190.04C41.33 190.45 41.18 190.98 40.56 191.17C40.36 191.23 40.16 191.23 39.98 191.15C39.98 191.15 40.25 191.88 39.53 192.23C38.71 192.63 38.19 191.22 38.16 191.15C38.35 191.53 38.27 192.03 37.88 192.23C37.52 192.41 37.13 192.25 36.87 191.95C36.65 191.72 36.16 190.79 35.95 190.46C36 190.71 35.88 190.93 35.67 191.1C35.39 191.32 34.86 191.3 34.64 190.93C33.86 189.66 33.22 187.58 33.02 186.27C32.62 183.65 32.72 179.02 32.72 179.02L30.64 168.4L38.61 160.93C38.61 160.93 39.21 176.9 39.76 177.41Z" fill="#FCC49A" fill-opacity="1.000000" fill-rule="nonzero"/>
		<path id="Vector" d="M35.94 190.57C35.97 190.57 35.99 190.56 36.02 190.56C36.13 190.51 36.19 190.38 36.14 190.26C35.77 189.32 35.31 188.03 35.08 186.46C35.06 186.33 34.95 186.25 34.83 186.27C34.7 186.28 34.62 186.4 34.64 186.52C34.87 188.14 35.34 189.46 35.72 190.43C35.76 190.52 35.85 190.58 35.94 190.57Z" fill="#1A1A1A" fill-opacity="1.000000" fill-rule="nonzero"/>
		<path id="Vector" d="M38.23 191.53C38.26 191.53 38.3 191.52 38.33 191.51C38.44 191.45 38.48 191.31 38.42 191.2C37.63 189.77 36.73 186.25 36.72 186.22C36.69 186.09 36.57 186.02 36.45 186.05C36.33 186.08 36.25 186.21 36.28 186.33C36.32 186.47 37.21 189.93 38.02 191.42C38.06 191.49 38.15 191.54 38.23 191.53Z" fill="#1A1A1A" fill-opacity="1.000000" fill-rule="nonzero"/>
		<path id="Vector" d="M39.99 191.22C40.02 191.22 40.05 191.21 40.08 191.2C40.19 191.15 40.24 191.02 40.19 190.9C39.09 188.52 38.52 185.87 38.52 185.84C38.49 185.72 38.37 185.64 38.25 185.67C38.13 185.69 38.05 185.81 38.08 185.93C38.08 185.96 38.66 188.66 39.78 191.09C39.82 191.18 39.9 191.23 39.99 191.22Z" fill="#1A1A1A" fill-opacity="1.000000" fill-rule="nonzero"/>
		<path id="Vector" d="M24.98 148.41C24.81 152.85 25.36 164.55 27.9 178.14C27.42 175.24 38.97 174.96 39.6 176.87C39.6 176.14 40.68 157.22 42.57 148.24C42.57 148.24 44.87 137.51 48.91 131.89C54.1 124.66 40.3 114.26 33.86 121.29C28.69 126.93 25.19 143 24.98 148.41Z" fill="#00679D" fill-opacity="1.000000" fill-rule="nonzero"/>
		<path id="Vector" d="M40.32 169.41C40.45 169.4 40.56 169.3 40.56 169.17C40.72 165.18 41.17 154.66 41.37 153.86C41.63 152.88 45.09 141.58 45.13 141.46C45.17 141.33 45.1 141.19 44.96 141.15C44.83 141.11 44.69 141.19 44.65 141.32C44.51 141.78 41.15 152.74 40.89 153.74C40.63 154.75 40.09 168.56 40.06 169.15C40.06 169.29 40.17 169.4 40.3 169.41C40.31 169.41 40.32 169.41 40.32 169.41Z" fill="#1A1A1A" fill-opacity="1.000000" fill-rule="nonzero"/>
		<path id="Vector" d="M77.24 134.61C77.32 134.61 77.41 134.57 77.46 134.49L80.49 129.76C80.57 129.63 80.54 129.47 80.41 129.39C80.29 129.31 80.12 129.34 80.04 129.47L77.01 134.2C76.93 134.32 76.97 134.49 77.09 134.57C77.14 134.6 77.19 134.61 77.24 134.61Z" fill="#1A1A1A" fill-opacity="1.000000" fill-rule="nonzero"/>
	</g>
</svg>
