<svg width="350.000000" height="254.000000" viewBox="0 0 350 254" fill="none" xmlns="http://www.w3.org/2000/svg" xmlns:xlink="http://www.w3.org/1999/xlink">
	<desc>
			Created with Pixso.
	</desc>
	<defs>
		<linearGradient x1="174.999985" y1="0.000000" x2="174.999985" y2="254.000000" id="paint_linear_580_3013_0" gradientUnits="userSpaceOnUse">
			<stop stop-color="#97CAFF"/>
			<stop offset="1.000000" stop-color="#D9EDFF"/>
		</linearGradient>
		<linearGradient x1="174.999985" y1="0.000000" x2="174.999985" y2="254.000000" id="paint_linear_580_3015_0" gradientUnits="userSpaceOnUse">
			<stop stop-color="#9DCDFF"/>
			<stop offset="1.000000" stop-color="#F6FBFF"/>
		</linearGradient>
		<linearGradient x1="66.000031" y1="80.000000" x2="309.000031" y2="132.499985" id="paint_linear_580_3016_0" gradientUnits="userSpaceOnUse">
			<stop offset="0.155991" stop-color="#FF6699"/>
			<stop offset="0.940507" stop-color="#5EA1FF"/>
		</linearGradient>
	</defs>
	<rect id="Rectangle 152" width="350.000000" height="254.000000" fill="url(#paint_linear_580_3013_0)" fill-opacity="1.000000"/>
	<mask id="mask580_3015" mask-type="alpha" maskUnits="userSpaceOnUse" x="0.000000" y="0.000000" width="350.000000" height="254.000000">
		<rect id="Rectangle 153" width="350.000000" height="254.000000" fill="url(#paint_linear_580_3015_0)" fill-opacity="1.000000"/>
	</mask>
	<g mask="url(#mask580_3015)">
		<path id="Vector 2710" d="M265.44 376.44C282.47 336.33 313.94 237.89 303.66 164.95C290.82 73.77 260.4 92.11 229.1 168.27C197.79 244.43 129.26 274.14 135.84 191.74C142.42 109.33 121.91 27.8 89.03 78.83C56.15 129.85 -29.68 79.01 -35.62 27.07" stroke="url(#paint_linear_580_3016_0)" stroke-opacity="0.800000" stroke-width="66.157158" stroke-linecap="round"/>
	</g>
	<g mask="url(#mask580_3015)">
		<path id="Vector" d="M45.98 193.52C45.74 193.56 45.32 193.62 44.79 193.02C43.96 192.07 42.71 190.43 42.26 189.75C40.61 187.23 39.34 184.43 39.45 181.36C39.69 174.14 46.76 167.8 50.42 162.05C51.51 160.34 52.49 158.49 53.19 156.57C53.24 156.44 53.35 155.88 53.53 156.02C56.73 158.47 58.74 165.49 59.01 167.49C60.26 176.71 57.18 191.77 45.98 193.52Z" fill="#C6F432" fill-opacity="1.000000" fill-rule="evenodd"/>
		<path id="Vector" d="M53.41 157.65C53.55 158.83 53.68 159.6 53.75 160.79C53.92 163.63 53.9 166.49 53.44 169.29C52.12 177.3 48.42 185.02 45.21 192.46C45.11 192.71 45.22 192.99 45.47 193.1C45.72 193.21 46 193.09 46.11 192.85C49.35 185.34 53.07 177.54 54.4 169.45C54.88 166.58 54.9 163.64 54.73 160.73C54.66 159.52 54.52 158.74 54.38 157.53C54.35 157.27 54.1 157.07 53.84 157.11C53.57 157.14 53.38 157.38 53.41 157.65Z" fill="#00679D" fill-opacity="1.000000" fill-rule="evenodd"/>
		<path id="Vector" d="M40.78 177.51C40.84 177.85 41.36 180.38 41.64 181.29C42.59 184.39 44.57 187.35 46.91 189.43C47.11 189.61 47.42 189.6 47.6 189.39C47.78 189.19 47.76 188.88 47.56 188.7C45.35 186.73 43.47 183.94 42.57 181C42.31 180.13 41.8 177.69 41.75 177.36C41.71 177.09 41.45 176.91 41.19 176.95C40.92 177 40.74 177.25 40.78 177.51Z" fill="#00679D" fill-opacity="1.000000" fill-rule="evenodd"/>
		<path id="Vector" d="M43.82 171.71C43.94 173.06 44.12 174.05 44.35 175.09C44.78 177.07 46.47 181.75 49.1 183.97C49.31 184.14 49.62 184.12 49.79 183.91C49.96 183.7 49.94 183.39 49.73 183.22C47.26 181.14 45.71 176.73 45.3 174.88C45.08 173.88 44.91 172.93 44.79 171.62C44.77 171.35 44.53 171.15 44.26 171.18C43.99 171.2 43.8 171.44 43.82 171.71Z" fill="#00679D" fill-opacity="1.000000" fill-rule="evenodd"/>
		<path id="Vector" d="M47.66 166.86C47.68 167.11 47.6 168.58 47.99 171.01C48.44 173.82 50.34 176.15 51.67 177.15C51.88 177.32 52.19 177.27 52.35 177.06C52.52 176.84 52.47 176.54 52.26 176.37C51.07 175.47 49.36 173.38 48.95 170.85C48.58 168.48 48.65 167.04 48.64 166.79C48.62 166.52 48.38 166.32 48.12 166.33C47.85 166.35 47.64 166.59 47.66 166.86Z" fill="#00679D" fill-opacity="1.000000" fill-rule="evenodd"/>
		<path id="Vector" d="M50.55 162.7C50.43 164.81 50.66 166.15 51.16 167.17C51.67 168.2 52.46 168.91 53.53 169.74C53.74 169.91 54.05 169.87 54.22 169.66C54.38 169.44 54.34 169.14 54.13 168.97C53.2 168.24 52.48 167.64 52.04 166.74C51.59 165.83 51.42 164.63 51.52 162.75C51.54 162.48 51.33 162.25 51.06 162.24C50.79 162.22 50.56 162.43 50.55 162.7Z" fill="#00679D" fill-opacity="1.000000" fill-rule="evenodd"/>
		<path id="Vector" d="M54.39 169.75C56.96 168.01 57.36 166.54 57.67 163.86C57.7 163.59 57.51 163.35 57.24 163.32C56.97 163.28 56.73 163.48 56.7 163.75C56.43 166.1 56.1 167.41 53.85 168.93C53.62 169.09 53.56 169.39 53.71 169.61C53.87 169.84 54.17 169.9 54.39 169.75Z" fill="#00679D" fill-opacity="1.000000" fill-rule="evenodd"/>
		<path id="Vector" d="M52.46 177.33C53.76 176.88 57.4 174.93 58.87 170.88C58.96 170.63 58.83 170.35 58.58 170.26C58.33 170.16 58.05 170.3 57.95 170.55C56.62 174.22 53.32 176 52.14 176.4C51.89 176.49 51.75 176.77 51.84 177.02C51.93 177.28 52.21 177.42 52.46 177.33Z" fill="#00679D" fill-opacity="1.000000" fill-rule="evenodd"/>
		<path id="Vector" d="M49.82 184.28C53.42 183.68 55.57 181.51 58.17 178.42C58.34 178.22 58.31 177.91 58.11 177.73C57.9 177.56 57.59 177.59 57.42 177.79C55 180.68 53.02 182.75 49.65 183.31C49.39 183.36 49.21 183.61 49.25 183.87C49.3 184.14 49.55 184.32 49.82 184.28Z" fill="#00679D" fill-opacity="1.000000" fill-rule="evenodd"/>
		<path id="Vector" d="M47.53 189.58C48.21 189.46 49.18 189.52 50.52 189.01C53.35 187.94 54.23 187.21 56 185.58C56.2 185.39 56.21 185.08 56.03 184.88C55.85 184.69 55.54 184.67 55.34 184.86C53.67 186.39 52.84 187.08 50.18 188.09C48.91 188.57 48 188.5 47.37 188.61C47.1 188.66 46.92 188.91 46.97 189.18C47.01 189.44 47.27 189.62 47.53 189.58Z" fill="#00679D" fill-opacity="1.000000" fill-rule="evenodd"/>
		<path id="Vector" d="M243.86 64.66C243.74 66.7 243.75 73.11 243.85 73.18C244.46 73.59 257.85 82.74 260.45 84.46C266.15 88.24 299.78 110.69 313.01 119.78C318.04 123.24 329.46 131.28 329.59 131.1C330.15 130.32 330.33 122.93 330.23 122.64C330.16 122.43 284.51 92.5 267.47 80.72C265.14 79.11 246.22 65.93 243.86 64.66Z" fill="#CBCBCB" fill-opacity="1.000000" fill-rule="evenodd"/>
		<path id="Vector" d="M288.45 10.5C288.26 10.5 278.52 21.99 277.62 23.07C269.36 32.97 243.2 64.19 243.85 64.68C246.42 66.62 260.62 76.32 266.17 80.14C279.73 89.47 293.25 98.19 306.94 107.31C313.59 111.73 325.73 120.05 330.46 123.11C330.78 123.32 357.51 88.64 360.63 84.61C362.43 82.27 374.39 68.51 374.34 67.99C374.3 67.64 371.86 66.05 369.54 64.6C368.35 63.86 342.39 46.42 334.6 41.27C326.06 35.64 295 15.08 288.45 10.5Z" fill="#FFFFFF" fill-opacity="1.000000" fill-rule="evenodd"/>
		<path id="Vector" d="M330.15 122.87C330.18 123.99 329.55 131.2 329.6 131.13C333.65 126.09 341.14 117.43 344.2 113.62C354.79 100.42 356.22 98.12 366.37 86.23C369.63 82.42 372.12 79.48 374.07 76.97C374.23 76.76 374.31 71.64 374.32 68.02C374.32 67.96 362.26 82.5 358.46 87.18C351.42 95.86 347.67 100.64 340.17 110.16C338.1 112.79 331.62 121.01 330.15 122.87Z" fill="#000000" fill-opacity="1.000000" fill-rule="evenodd"/>
		<path id="Vector" d="M319.32 37.02C318.01 38.53 315.23 41.99 313.41 44.02C309.46 48.45 306.13 52.58 301.6 58.16C301.44 58.36 301.47 58.65 301.67 58.81C301.86 58.97 302.15 58.94 302.31 58.74C306.83 53.17 310.16 49.05 314.1 44.64C315.92 42.6 318.71 39.13 320.02 37.63C320.18 37.43 320.16 37.14 319.97 36.98C319.78 36.81 319.49 36.83 319.32 37.02Z" fill="#000000" fill-opacity="1.000000" fill-rule="evenodd"/>
		<path id="Vector" d="M288.35 15.65C288.38 15.68 280.68 24.54 276.7 29.4C276.18 30.03 269.83 37.8 269.86 37.83C275.05 41.84 278.98 44.66 280.55 45.72C280.58 45.75 285.05 40.29 286.89 38.21C290 34.69 299.65 23.03 299.63 22.93C299.32 21.16 297.27 21.16 297.2 21.06C296.94 20.69 296.86 20.17 296.14 19.44C295.69 18.98 294.29 18.89 294.29 18.89C294.29 18.89 293.99 17.82 293.18 17.33C292.52 16.94 291.45 17.02 291.43 16.96C291.16 15.97 289.66 14.3 288.35 15.65Z" fill="#FCA442" fill-opacity="1.000000" fill-rule="evenodd"/>
		<path id="Vector" d="M267.85 40.92C267.88 40.95 260.19 49.8 256.2 54.67C255.68 55.3 249.34 63.07 249.37 63.09C254.56 67.11 258.49 69.93 260.06 70.99C260.09 71.01 264.56 65.56 266.39 63.48C269.51 59.96 279.15 48.3 279.14 48.2C278.83 46.43 276.78 46.43 276.71 46.33C276.44 45.96 276.37 45.44 275.65 44.71C275.19 44.25 273.79 44.16 273.79 44.16C273.79 44.16 273.5 43.09 272.69 42.6C272.03 42.21 270.95 42.29 270.94 42.23C270.66 41.24 269.17 39.57 267.85 40.92Z" fill="#96553A" fill-opacity="1.000000" fill-rule="evenodd"/>
		<path id="Vector" d="M301.19 24.7C301.22 24.73 293.52 33.58 289.54 38.44C289.02 39.08 282.67 46.85 282.7 46.87C287.89 50.89 291.82 53.71 293.39 54.77C293.42 54.79 297.89 49.33 299.73 47.26C302.84 43.74 312.49 32.07 312.47 31.97C312.16 30.21 310.11 30.21 310.04 30.1C309.78 29.73 309.7 29.22 308.98 28.49C308.53 28.03 307.13 27.94 307.13 27.94C307.13 27.94 306.83 26.87 306.02 26.38C305.36 25.98 304.29 26.06 304.27 26.01C304 25.02 302.5 23.35 301.19 24.7Z" fill="#D47C1D" fill-opacity="1.000000" fill-rule="evenodd"/>
		<path id="Vector" d="M280.89 49.73C280.92 49.77 273.42 58.78 269.55 63.73C269.04 64.38 262.87 72.28 262.9 72.31C268.17 76.21 272.17 78.94 273.76 79.97C273.79 79.99 278.14 74.43 279.93 72.32C282.96 68.73 292.35 56.86 292.33 56.76C291.98 55 289.94 55.05 289.86 54.94C289.59 54.58 289.5 54.06 288.77 53.35C288.3 52.9 286.9 52.84 286.9 52.84C286.9 52.84 286.58 51.78 285.76 51.31C285.1 50.93 284.02 51.03 284 50.97C283.71 49.99 282.18 48.35 280.89 49.73Z" fill="#FF6699" fill-opacity="1.000000" fill-rule="evenodd"/>
		<path id="Vector" d="M314.52 33.21C314.55 33.24 306.85 42.09 302.87 46.95C302.35 47.58 296 55.36 296.03 55.38C301.22 59.39 305.16 62.21 306.72 63.28C306.75 63.3 311.23 57.84 313.06 55.77C316.17 52.25 325.82 40.58 325.8 40.48C325.49 38.72 323.45 38.72 323.37 38.61C323.11 38.24 323.03 37.72 322.31 36.99C321.86 36.53 320.46 36.44 320.46 36.44C320.46 36.44 320.17 35.37 319.35 34.89C318.69 34.49 317.62 34.57 317.6 34.51C317.33 33.53 315.84 31.85 314.52 33.21Z" fill="#FD9680" fill-opacity="1.000000" fill-rule="evenodd"/>
		<path id="Vector" d="M293.63 58.49C293.66 58.53 286.29 67.65 282.48 72.65C281.99 73.31 275.93 81.3 275.96 81.33C281.29 85.15 285.32 87.82 286.93 88.83C286.96 88.85 291.23 83.23 292.99 81.09C295.97 77.46 305.19 65.46 305.17 65.36C304.79 63.61 302.75 63.68 302.67 63.58C302.4 63.22 302.3 62.7 301.56 62C301.08 61.55 299.68 61.52 299.68 61.52C299.68 61.52 299.35 60.46 298.52 60C297.85 59.63 296.78 59.75 296.76 59.69C296.45 58.71 294.9 57.1 293.63 58.49Z" fill="#00679D" fill-opacity="1.000000" fill-rule="evenodd"/>
		<path id="Vector" d="M328.07 42.22C328.1 42.25 320.4 51.1 316.42 55.96C315.9 56.6 309.55 64.37 309.58 64.39C314.77 68.41 318.7 71.23 320.27 72.29C320.3 72.31 324.78 66.85 326.61 64.78C329.72 61.26 339.37 49.59 339.35 49.49C339.04 47.73 336.99 47.73 336.92 47.62C336.66 47.25 336.58 46.74 335.86 46.01C335.41 45.55 334.01 45.46 334.01 45.46C334.01 45.46 333.71 44.39 332.9 43.9C332.24 43.5 331.17 43.58 331.15 43.53C330.88 42.54 329.38 40.87 328.07 42.22Z" fill="#EF5D3F" fill-opacity="1.000000" fill-rule="evenodd"/>
		<path id="Vector" d="M306.97 67.69C307 67.72 299.63 76.85 295.82 81.85C295.33 82.5 289.27 90.5 289.3 90.52C294.63 94.34 298.67 97.02 300.27 98.03C300.3 98.04 304.57 92.43 306.33 90.29C309.31 86.66 318.53 74.65 318.51 74.55C318.14 72.8 316.09 72.87 316.01 72.77C315.74 72.41 315.64 71.9 314.9 71.19C314.43 70.75 313.03 70.71 313.03 70.71C313.03 70.71 312.69 69.65 311.86 69.2C311.19 68.82 310.12 68.94 310.1 68.89C309.79 67.91 308.24 66.29 306.97 67.69Z" fill="#83BEB6" fill-opacity="1.000000" fill-rule="evenodd"/>
		<path id="Vector" d="M342.01 51.62C342.04 51.66 334.35 60.51 330.36 65.37C329.84 66 323.5 73.77 323.53 73.8C328.72 77.81 332.65 80.63 334.22 81.7C334.25 81.72 338.72 76.26 340.56 74.18C343.67 70.66 353.31 59 353.3 58.9C352.99 57.13 350.94 57.13 350.87 57.03C350.6 56.66 350.53 56.14 349.81 55.41C349.35 54.95 347.96 54.86 347.96 54.86C347.96 54.86 347.66 53.79 346.85 53.3C346.19 52.91 345.11 52.99 345.1 52.93C344.82 51.95 343.33 50.27 342.01 51.62Z" fill="#DDAC8F" fill-opacity="1.000000" fill-rule="evenodd"/>
		<path id="Vector" d="M321.07 76.89C321.11 76.92 313.64 85.96 309.78 90.92C309.27 91.57 303.13 99.5 303.16 99.52C308.45 103.4 312.45 106.12 314.04 107.15C314.07 107.17 318.41 101.6 320.19 99.48C323.21 95.88 332.56 83.97 332.54 83.87C332.18 82.12 330.14 82.17 330.06 82.07C329.79 81.7 329.7 81.19 328.96 80.48C328.5 80.03 327.1 79.97 327.1 79.97C327.1 79.97 326.77 78.91 325.95 78.45C325.28 78.07 324.21 78.17 324.19 78.12C323.89 77.14 322.36 75.5 321.07 76.89Z" fill="#439184" fill-opacity="1.000000" fill-rule="evenodd"/>
		<path id="Vector" d="M355.79 61.41C355.83 61.45 348.13 70.3 344.15 75.16C343.63 75.79 337.28 83.56 337.31 83.59C342.5 87.6 346.43 90.42 348 91.49C348.03 91.51 352.5 86.05 354.34 83.97C357.45 80.45 367.1 68.79 367.08 68.69C366.77 66.92 364.72 66.92 364.65 66.82C364.39 66.45 364.31 65.93 363.59 65.2C363.14 64.74 361.74 64.65 361.74 64.65C361.74 64.65 361.44 63.58 360.63 63.1C359.97 62.7 358.9 62.78 358.88 62.72C358.6 61.74 357.11 60.06 355.79 61.41Z" fill="#FCC49A" fill-opacity="1.000000" fill-rule="evenodd"/>
		<path id="Vector" d="M335.03 86.46C335.06 86.49 327.59 95.54 323.73 100.5C323.23 101.14 317.08 109.07 317.11 109.1C322.4 112.98 326.4 115.7 328 116.72C328.03 116.74 332.36 111.17 334.14 109.05C337.16 105.45 346.51 93.55 346.49 93.45C346.14 91.69 344.09 91.74 344.02 91.64C343.74 91.28 343.65 90.76 342.91 90.05C342.45 89.6 341.05 89.55 341.05 89.55C341.05 89.55 340.73 88.49 339.9 88.02C339.23 87.64 338.16 87.75 338.14 87.69C337.84 86.71 336.31 85.08 335.03 86.46Z" fill="#C6F432" fill-opacity="1.000000" fill-rule="evenodd"/>
		<path id="Vector" d="M290.45 17.46C289.14 18.96 286.36 22.43 284.54 24.46C280.59 28.89 277.25 33.02 272.73 38.6C272.57 38.8 272.6 39.09 272.79 39.25C272.99 39.41 273.28 39.38 273.44 39.18C277.96 33.61 281.29 29.49 285.23 25.08C287.05 23.04 289.84 19.57 291.15 18.06C291.31 17.87 291.29 17.58 291.1 17.41C290.91 17.25 290.62 17.27 290.45 17.46Z" fill="#000000" fill-opacity="1.000000" fill-rule="evenodd"/>
		<path id="Vector" d="M269.96 42.73C268.65 44.23 265.86 47.7 264.05 49.73C260.09 54.16 256.76 58.29 252.23 63.87C252.07 64.07 252.1 64.36 252.3 64.52C252.5 64.68 252.79 64.65 252.95 64.45C257.47 58.88 260.79 54.76 264.74 50.34C266.55 48.31 269.34 44.84 270.65 43.33C270.82 43.14 270.8 42.85 270.61 42.68C270.41 42.51 270.12 42.54 269.96 42.73Z" fill="#000000" fill-opacity="1.000000" fill-rule="evenodd"/>
		<path id="Vector" d="M303.29 26.51C301.98 28.01 299.2 31.48 297.38 33.51C293.43 37.94 290.1 42.06 285.57 47.65C285.41 47.84 285.44 48.14 285.64 48.3C285.83 48.46 286.12 48.43 286.29 48.23C290.8 42.66 294.13 38.54 298.07 34.12C299.89 32.09 302.68 28.62 303.99 27.11C304.16 26.92 304.13 26.63 303.94 26.46C303.75 26.29 303.46 26.31 303.29 26.51Z" fill="#000000" fill-opacity="1.000000" fill-rule="evenodd"/>
		<path id="Vector" d="M283.03 51.5C281.76 53.03 279.05 56.56 277.28 58.63C273.43 63.14 270.18 67.34 265.78 73.02C265.62 73.22 265.66 73.51 265.86 73.67C266.06 73.82 266.35 73.79 266.51 73.59C270.9 67.92 274.14 63.73 277.98 59.23C279.76 57.15 282.47 53.62 283.74 52.09C283.91 51.89 283.88 51.6 283.68 51.44C283.49 51.27 283.2 51.3 283.03 51.5Z" fill="#000000" fill-opacity="1.000000" fill-rule="evenodd"/>
		<path id="Vector" d="M316.62 35.01C315.32 36.52 312.53 39.98 310.72 42.02C306.76 46.44 303.43 50.57 298.9 56.15C298.74 56.35 298.77 56.64 298.97 56.8C299.17 56.96 299.46 56.93 299.62 56.73C304.13 51.16 307.46 47.05 311.4 42.63C313.22 40.59 316.01 37.12 317.32 35.62C317.49 35.42 317.47 35.13 317.27 34.97C317.08 34.8 316.79 34.82 316.62 35.01Z" fill="#000000" fill-opacity="1.000000" fill-rule="evenodd"/>
		<path id="Vector" d="M319.11 37.03C317.8 38.54 315.02 42 313.2 44.03C309.25 48.46 305.91 52.59 301.39 58.17C301.22 58.37 301.26 58.66 301.45 58.82C301.65 58.98 301.94 58.95 302.1 58.75C306.62 53.18 309.95 49.06 313.89 44.65C315.71 42.61 318.5 39.14 319.81 37.64C319.97 37.44 319.95 37.15 319.76 36.99C319.57 36.82 319.28 36.84 319.11 37.03Z" fill="#000000" fill-opacity="1.000000" fill-rule="evenodd"/>
		<path id="Vector" d="M295.8 60.23C294.54 61.78 291.89 65.34 290.15 67.44C286.36 72 283.18 76.25 278.85 82C278.7 82.2 278.74 82.49 278.94 82.64C279.15 82.79 279.44 82.75 279.59 82.55C283.9 76.82 287.07 72.58 290.86 68.03C292.6 65.93 295.26 62.36 296.51 60.8C296.67 60.61 296.64 60.32 296.45 60.16C296.25 60 295.96 60.03 295.8 60.23Z" fill="#000000" fill-opacity="1.000000" fill-rule="evenodd"/>
		<path id="Vector" d="M330.17 44.03C328.86 45.53 326.08 49 324.26 51.03C320.31 55.45 316.98 59.58 312.45 65.17C312.29 65.36 312.32 65.65 312.51 65.81C312.71 65.98 313 65.95 313.16 65.75C317.68 60.18 321.01 56.06 324.95 51.64C326.77 49.61 329.56 46.14 330.87 44.63C331.03 44.44 331.01 44.15 330.82 43.98C330.63 43.81 330.34 43.83 330.17 44.03Z" fill="#000000" fill-opacity="1.000000" fill-rule="evenodd"/>
		<path id="Vector" d="M309.14 69.42C307.89 70.97 305.23 74.54 303.49 76.64C299.7 81.2 296.52 85.45 292.19 91.19C292.04 91.4 292.08 91.69 292.28 91.84C292.49 91.99 292.78 91.95 292.93 91.75C297.24 86.02 300.42 81.78 304.2 77.23C305.94 75.13 308.6 71.56 309.86 70C310.02 69.8 309.99 69.51 309.79 69.35C309.59 69.19 309.3 69.23 309.14 69.42Z" fill="#000000" fill-opacity="1.000000" fill-rule="evenodd"/>
		<path id="Vector" d="M344.12 53.43C342.81 54.94 340.02 58.4 338.21 60.43C334.26 64.86 330.92 68.99 326.39 74.57C326.23 74.77 326.26 75.06 326.46 75.22C326.66 75.38 326.95 75.35 327.11 75.15C331.63 69.58 334.95 65.46 338.9 61.05C340.71 59.01 343.5 55.54 344.81 54.04C344.98 53.84 344.96 53.55 344.77 53.39C344.57 53.22 344.28 53.24 344.12 53.43Z" fill="#000000" fill-opacity="1.000000" fill-rule="evenodd"/>
		<path id="Vector" d="M323.22 78.64C321.95 80.18 319.26 83.71 317.49 85.79C313.65 90.32 310.43 94.53 306.04 100.23C305.89 100.43 305.92 100.72 306.13 100.87C306.33 101.03 306.62 100.99 306.77 100.79C311.15 95.11 314.37 90.9 318.2 86.39C319.96 84.31 322.66 80.77 323.93 79.23C324.1 79.03 324.07 78.74 323.87 78.58C323.68 78.42 323.38 78.45 323.22 78.64Z" fill="#000000" fill-opacity="1.000000" fill-rule="evenodd"/>
		<path id="Vector" d="M357.9 63.22C356.59 64.72 353.81 68.19 351.99 70.22C348.04 74.65 344.7 78.78 340.18 84.36C340.02 84.56 340.05 84.85 340.24 85.01C340.44 85.17 340.73 85.14 340.89 84.94C345.41 79.37 348.74 75.25 352.68 70.84C354.5 68.8 357.29 65.33 358.6 63.82C358.76 63.63 358.74 63.34 358.55 63.17C358.36 63.01 358.07 63.03 357.9 63.22Z" fill="#000000" fill-opacity="1.000000" fill-rule="evenodd"/>
		<path id="Vector" d="M337.18 88.22C335.91 89.75 333.21 93.29 331.45 95.37C327.61 99.89 324.38 104.1 319.99 109.8C319.84 110 319.88 110.29 320.08 110.45C320.28 110.6 320.57 110.56 320.73 110.36C325.1 104.68 328.32 100.48 332.15 95.96C333.92 93.88 336.62 90.34 337.89 88.8C338.05 88.61 338.02 88.32 337.83 88.15C337.63 87.99 337.34 88.02 337.18 88.22Z" fill="#000000" fill-opacity="1.000000" fill-rule="evenodd"/>
		<path id="Vector" d="M293.15 19.47C291.84 20.97 289.06 24.44 287.24 26.47C283.29 30.9 279.95 35.03 275.42 40.61C275.26 40.81 275.29 41.1 275.49 41.26C275.69 41.42 275.98 41.39 276.14 41.19C280.66 35.62 283.98 31.5 287.93 27.09C289.75 25.05 292.54 21.58 293.84 20.07C294.01 19.88 293.99 19.59 293.8 19.42C293.6 19.26 293.31 19.28 293.15 19.47Z" fill="#000000" fill-opacity="1.000000" fill-rule="evenodd"/>
		<path id="Vector" d="M272.65 44.74C271.35 46.24 268.56 49.71 266.75 51.74C262.79 56.16 259.46 60.29 254.93 65.88C254.77 66.07 254.8 66.37 255 66.53C255.2 66.69 255.49 66.66 255.65 66.46C260.16 60.89 263.49 56.77 267.43 52.35C269.25 50.32 272.04 46.85 273.35 45.34C273.52 45.15 273.5 44.86 273.3 44.69C273.11 44.52 272.82 44.54 272.65 44.74Z" fill="#000000" fill-opacity="1.000000" fill-rule="evenodd"/>
		<path id="Vector" d="M305.99 28.52C304.68 30.02 301.9 33.49 300.08 35.52C296.13 39.94 292.79 44.07 288.26 49.66C288.1 49.85 288.13 50.14 288.33 50.3C288.53 50.47 288.82 50.43 288.98 50.24C293.5 44.67 296.82 40.55 300.77 36.13C302.59 34.1 305.38 30.63 306.68 29.12C306.85 28.93 306.83 28.64 306.64 28.47C306.45 28.3 306.15 28.32 305.99 28.52Z" fill="#000000" fill-opacity="1.000000" fill-rule="evenodd"/>
		<path id="Vector" d="M285.77 53.44C284.5 54.98 281.79 58.5 280.02 60.57C276.17 65.09 272.92 69.29 268.52 74.97C268.36 75.17 268.4 75.46 268.6 75.61C268.8 75.77 269.09 75.73 269.25 75.53C273.64 69.87 276.88 65.67 280.72 61.17C282.5 59.1 285.21 55.57 286.48 54.03C286.65 53.84 286.62 53.55 286.42 53.38C286.23 53.22 285.94 53.25 285.77 53.44Z" fill="#000000" fill-opacity="1.000000" fill-rule="evenodd"/>
		<path id="Vector" d="M298.56 62.13C297.31 63.68 294.66 67.25 292.92 69.35C289.12 73.91 285.94 78.16 281.62 83.9C281.47 84.11 281.51 84.4 281.71 84.55C281.91 84.7 282.2 84.66 282.36 84.46C286.67 78.73 289.84 74.49 293.63 69.94C295.37 67.84 298.03 64.27 299.28 62.71C299.44 62.51 299.41 62.22 299.21 62.06C299.01 61.9 298.72 61.94 298.56 62.13Z" fill="#000000" fill-opacity="1.000000" fill-rule="evenodd"/>
		<path id="Vector" d="M332.87 46.03C331.56 47.54 328.78 51 326.96 53.04C323.01 57.46 319.67 61.59 315.14 67.17C314.98 67.37 315.01 67.66 315.21 67.82C315.41 67.98 315.7 67.95 315.86 67.76C320.38 62.19 323.7 58.07 327.65 53.65C329.47 51.62 332.26 48.15 333.56 46.64C333.73 46.45 333.71 46.16 333.52 45.99C333.33 45.82 333.03 45.84 332.87 46.03Z" fill="#000000" fill-opacity="1.000000" fill-rule="evenodd"/>
		<path id="Vector" d="M311.91 71.33C310.65 72.88 308 76.45 306.26 78.54C302.47 83.11 299.28 87.36 294.96 93.1C294.81 93.3 294.85 93.59 295.05 93.75C295.26 93.9 295.54 93.86 295.7 93.66C300.01 87.93 303.19 83.69 306.97 79.13C308.71 77.03 311.37 73.46 312.62 71.91C312.78 71.71 312.75 71.42 312.55 71.26C312.36 71.1 312.07 71.13 311.91 71.33Z" fill="#000000" fill-opacity="1.000000" fill-rule="evenodd"/>
		<path id="Vector" d="M346.81 55.44C345.51 56.94 342.72 60.41 340.91 62.44C336.95 66.87 333.62 71 329.09 76.58C328.93 76.78 328.96 77.07 329.16 77.23C329.36 77.39 329.65 77.36 329.81 77.16C334.32 71.59 337.65 67.47 341.59 63.06C343.41 61.02 346.2 57.55 347.51 56.04C347.68 55.85 347.66 55.56 347.46 55.39C347.27 55.23 346.98 55.25 346.81 55.44Z" fill="#000000" fill-opacity="1.000000" fill-rule="evenodd"/>
		<path id="Vector" d="M325.97 80.58C324.7 82.12 322 85.65 320.24 87.73C316.4 92.26 313.17 96.47 308.79 102.16C308.63 102.37 308.67 102.66 308.87 102.81C309.07 102.97 309.36 102.93 309.52 102.73C313.89 97.04 317.11 92.84 320.95 88.33C322.71 86.25 325.41 82.71 326.68 81.17C326.84 80.97 326.82 80.68 326.62 80.52C326.42 80.36 326.13 80.38 325.97 80.58Z" fill="#000000" fill-opacity="1.000000" fill-rule="evenodd"/>
		<path id="Vector" d="M360.6 65.23C359.29 66.73 356.5 70.2 354.69 72.23C350.74 76.66 347.4 80.79 342.87 86.37C342.71 86.57 342.74 86.86 342.94 87.02C343.14 87.18 343.43 87.15 343.59 86.95C348.11 81.38 351.43 77.26 355.38 72.85C357.2 70.81 359.99 67.34 361.29 65.83C361.46 65.64 361.44 65.35 361.25 65.18C361.06 65.02 360.76 65.04 360.6 65.23Z" fill="#000000" fill-opacity="1.000000" fill-rule="evenodd"/>
		<path id="Vector" d="M339.92 90.15C338.66 91.69 335.96 95.23 334.2 97.3C330.36 101.83 327.13 106.04 322.74 111.74C322.59 111.94 322.62 112.23 322.83 112.38C323.03 112.54 323.32 112.5 323.47 112.3C327.85 106.62 331.07 102.42 334.9 97.9C336.67 95.82 339.37 92.28 340.64 90.74C340.8 90.54 340.77 90.25 340.57 90.09C340.38 89.93 340.09 89.96 339.92 90.15Z" fill="#000000" fill-opacity="1.000000" fill-rule="evenodd"/>
		<path id="Vector" d="M295.88 21.62C294.58 23.13 291.79 26.59 289.98 28.63C286.02 33.05 282.69 37.18 278.16 42.76C278 42.96 278.03 43.25 278.23 43.41C278.43 43.58 278.72 43.54 278.88 43.35C283.39 37.78 286.72 33.66 290.66 29.24C292.48 27.21 295.27 23.74 296.58 22.23C296.75 22.04 296.73 21.75 296.53 21.58C296.34 21.41 296.05 21.43 295.88 21.62Z" fill="#000000" fill-opacity="1.000000" fill-rule="evenodd"/>
		<path id="Vector" d="M275.39 46.89C274.08 48.4 271.3 51.86 269.48 53.9C265.53 58.32 262.19 62.45 257.67 68.03C257.51 68.23 257.54 68.52 257.73 68.68C257.93 68.84 258.22 68.81 258.38 68.61C262.9 63.04 266.23 58.93 270.17 54.51C271.99 52.47 274.78 49 276.09 47.5C276.25 47.3 276.23 47.01 276.04 46.85C275.85 46.68 275.56 46.7 275.39 46.89Z" fill="#000000" fill-opacity="1.000000" fill-rule="evenodd"/>
		<path id="Vector" d="M308.72 30.67C307.42 32.17 304.63 35.64 302.82 37.67C298.86 42.1 295.53 46.23 291 51.81C290.84 52.01 290.87 52.3 291.07 52.46C291.27 52.62 291.56 52.59 291.72 52.39C296.24 46.82 299.56 42.7 303.5 38.29C305.32 36.25 308.11 32.78 309.42 31.27C309.59 31.08 309.57 30.79 309.37 30.62C309.18 30.46 308.89 30.48 308.72 30.67Z" fill="#000000" fill-opacity="1.000000" fill-rule="evenodd"/>
		<path id="Vector" d="M288.56 55.54C287.28 57.07 284.57 60.6 282.81 62.67C278.95 67.18 275.71 71.38 271.3 77.06C271.15 77.26 271.18 77.55 271.38 77.71C271.59 77.87 271.88 77.83 272.03 77.63C276.43 71.96 279.66 67.77 283.51 63.27C285.28 61.19 287.99 57.66 289.27 56.13C289.43 55.93 289.4 55.64 289.21 55.48C289.01 55.31 288.72 55.34 288.56 55.54Z" fill="#000000" fill-opacity="1.000000" fill-rule="evenodd"/>
		<path id="Vector" d="M322.06 39.18C320.75 40.68 317.96 44.15 316.15 46.18C312.2 50.61 308.86 54.74 304.33 60.32C304.17 60.52 304.2 60.81 304.4 60.97C304.6 61.13 304.89 61.1 305.05 60.9C309.57 55.33 312.89 51.21 316.84 46.79C318.66 44.76 321.44 41.29 322.75 39.78C322.92 39.59 322.9 39.3 322.71 39.13C322.51 38.96 322.22 38.99 322.06 39.18Z" fill="#000000" fill-opacity="1.000000" fill-rule="evenodd"/>
		<path id="Vector" d="M301.38 64.19C300.13 65.74 297.47 69.3 295.73 71.4C291.94 75.97 288.75 80.21 284.43 85.96C284.28 86.16 284.32 86.45 284.52 86.6C284.73 86.76 285.02 86.72 285.17 86.51C289.48 80.78 292.66 76.55 296.44 71.99C298.18 69.89 300.84 66.32 302.09 64.77C302.25 64.57 302.22 64.28 302.03 64.12C301.83 63.96 301.54 63.99 301.38 64.19Z" fill="#000000" fill-opacity="1.000000" fill-rule="evenodd"/>
		<path id="Vector" d="M335.6 48.19C334.3 49.69 331.51 53.16 329.7 55.19C325.74 59.62 322.41 63.75 317.88 69.33C317.72 69.53 317.75 69.82 317.95 69.98C318.15 70.14 318.44 70.11 318.6 69.91C323.12 64.34 326.44 60.22 330.39 55.81C332.2 53.77 334.99 50.3 336.3 48.79C336.47 48.6 336.45 48.31 336.26 48.14C336.06 47.98 335.77 48 335.6 48.19Z" fill="#000000" fill-opacity="1.000000" fill-rule="evenodd"/>
		<path id="Vector" d="M314.89 72.92C313.64 74.47 310.98 78.04 309.24 80.13C305.45 84.7 302.27 88.95 297.94 94.69C297.79 94.89 297.83 95.18 298.04 95.34C298.24 95.49 298.53 95.45 298.68 95.25C303 89.52 306.17 85.28 309.95 80.72C311.69 78.62 314.35 75.05 315.61 73.5C315.77 73.3 315.74 73.01 315.54 72.85C315.34 72.69 315.05 72.72 314.89 72.92Z" fill="#000000" fill-opacity="1.000000" fill-rule="evenodd"/>
		<path id="Vector" d="M349.55 57.59C348.24 59.1 345.46 62.56 343.64 64.6C339.69 69.02 336.36 73.15 331.83 78.74C331.67 78.93 331.7 79.22 331.89 79.38C332.09 79.54 332.38 79.51 332.54 79.32C337.06 73.75 340.39 69.63 344.33 65.21C346.15 63.18 348.94 59.71 350.25 58.2C350.41 58.01 350.39 57.72 350.2 57.55C350.01 57.38 349.72 57.4 349.55 57.59Z" fill="#000000" fill-opacity="1.000000" fill-rule="evenodd"/>
		<path id="Vector" d="M328.76 82.67C327.49 84.21 324.79 87.74 323.03 89.82C319.19 94.34 315.96 98.56 311.58 104.25C311.42 104.45 311.46 104.74 311.66 104.9C311.86 105.05 312.15 105.02 312.31 104.81C316.68 99.13 319.9 94.93 323.74 90.41C325.5 88.33 328.2 84.79 329.47 83.25C329.63 83.06 329.61 82.77 329.41 82.61C329.21 82.44 328.92 82.47 328.76 82.67Z" fill="#000000" fill-opacity="1.000000" fill-rule="evenodd"/>
		<path id="Vector" d="M363.33 67.39C362.03 68.89 359.24 72.36 357.43 74.39C353.47 78.82 350.14 82.94 345.61 88.53C345.45 88.72 345.48 89.02 345.68 89.18C345.88 89.34 346.17 89.31 346.33 89.11C350.84 83.54 354.17 79.42 358.11 75C359.93 72.97 362.72 69.5 364.03 67.99C364.2 67.8 364.18 67.51 363.98 67.34C363.79 67.17 363.5 67.19 363.33 67.39Z" fill="#000000" fill-opacity="1.000000" fill-rule="evenodd"/>
		<path id="Vector" d="M342.71 92.24C341.45 93.78 338.75 97.31 336.99 99.39C333.15 103.92 329.92 108.13 325.53 113.83C325.38 114.03 325.41 114.32 325.62 114.47C325.82 114.63 326.11 114.59 326.26 114.39C330.64 108.71 333.86 104.5 337.69 99.99C339.46 97.91 342.16 94.37 343.43 92.83C343.59 92.63 343.56 92.34 343.36 92.18C343.17 92.02 342.88 92.05 342.71 92.24Z" fill="#000000" fill-opacity="1.000000" fill-rule="evenodd"/>
		<path id="Vector" d="M173 37.54C172.8 37.79 176.83 42.33 177.39 42.59C178.43 43.07 181.21 44.3 182.27 44.74C185.52 46.08 188.73 47.51 191.94 48.92C197.26 51.25 230.85 65.54 230.94 65.37C231.64 64.14 232.78 61.01 232.65 60.94C232.15 60.69 225.25 57.58 222.19 56.23C211.31 51.44 181.35 37.96 179.38 37.21C178.87 37.02 173.31 37.16 173 37.54Z" fill="#FFFFFF" fill-opacity="1.000000" fill-rule="evenodd"/>
		<path id="Vector" d="M178.14 42.18C178.27 41.92 179.4 39.11 179.79 38.05C179.88 37.81 179.76 37.54 179.52 37.46C179.28 37.37 179.01 37.49 178.92 37.73C178.54 38.77 177.44 41.52 177.32 41.77C177.2 42 177.3 42.28 177.52 42.39C177.75 42.5 178.03 42.41 178.14 42.18Z" fill="#010101" fill-opacity="1.000000" fill-rule="evenodd"/>
		<path id="Vector" d="M178.76 40.42C178.69 40.39 178.63 40.36 178.57 40.3C178.47 40.2 178.46 40.09 178.45 40.03C178.44 39.91 178.47 39.8 178.53 39.71C178.54 39.7 178.73 39.42 179.09 39.56C179.15 39.58 179.53 39.75 180.18 40.03C186.56 42.79 219.27 57.12 231.43 62.42C231.66 62.53 231.77 62.8 231.67 63.03C231.56 63.26 231.29 63.37 231.06 63.27C218.9 57.96 186.19 43.64 179.81 40.87C179.22 40.62 178.81 40.44 178.76 40.42ZM179.31 40.21L179.3 40.22L179.31 40.22L179.31 40.21ZM179.37 39.95C179.37 40.04 179.36 40.13 179.31 40.21C179.35 40.13 179.38 40.05 179.37 39.95ZM179.37 39.93L179.37 39.95L179.37 39.94L179.37 39.93ZM179.37 39.92C179.36 39.86 179.34 39.76 179.24 39.67C179.31 39.74 179.35 39.83 179.37 39.92Z" fill="#010101" fill-opacity="1.000000" fill-rule="evenodd"/>
		<path id="Vector" d="M157.34 54.5C155.36 58.16 151.65 65.69 149.8 69.42C142.75 83.58 135.19 97.43 127.88 111.45C127.04 113.05 121.17 123.96 121.38 124.06C133.71 130.1 215.92 172.7 223.01 175.77C223.02 175.77 239.92 143.05 242.39 137.99C248.22 126.05 251.59 119.74 259.26 103.89C259.29 103.83 240.52 94.87 233.39 91.59C208.35 80.06 182.66 65.45 157.34 54.5Z" fill="#00679D" fill-opacity="1.000000" fill-rule="evenodd"/>
		<path id="Vector" d="M94.84 119.56C95.75 127.38 96.83 134.66 97.84 141.14C100.91 160.76 105.06 180.07 108.11 199.68C108.4 201.56 111.45 217.13 112.16 217.57C113.32 218.3 140.64 212.18 144.28 211.44C168.67 206.45 242.75 194.07 248.81 192.69C248.82 192.68 239.74 153.1 237.04 140.18C234.6 128.52 229.28 96.73 228.16 96.91C207.75 100.22 199.85 101.7 189.65 103.61C162.55 108.68 105.43 117.64 94.84 119.56Z" fill="#FFFFFF" fill-opacity="1.000000" fill-rule="evenodd"/>
		<path id="Vector" d="M162.56 180.04C149.25 182.24 120.39 187.56 120.45 187.88C121.22 192.19 122.28 198.7 122.51 198.65C137.04 195.88 177.72 188.39 193.69 185.74C200.68 184.58 211.68 182.42 218.53 181.09C218.83 181.03 216.62 172.67 216.22 170.86C216.16 170.59 202.04 173.07 188.92 175.4C180.34 176.93 171.2 178.61 162.56 180.04Z" fill="#C6F432" fill-opacity="1.000000" fill-rule="evenodd"/>
		<path id="Vector" d="M87.85 285.88C88.19 286.55 59.89 284.18 60.77 282.11C67.74 265.59 68.56 263.78 75.63 245.34C77.52 240.43 76.62 234.84 77.11 229.69C77.8 222.42 80.78 215.16 83.91 208.7C86.3 203.79 89.89 196.23 94 192.37C96.79 189.75 98.16 192.89 98.7 191.83C100.91 187.48 102.88 183.88 105.68 183.8C107.29 183.76 108.5 185.15 108.91 185.58C109.36 186.05 111.43 182.85 114.25 184.32C116.86 185.69 116.45 188.15 116 190.62C115.84 191.52 119.37 191.28 119.05 196.56C118.66 202.95 109.76 224.58 111.13 225.01C111.17 225.02 116.59 221.08 117.56 220.28C120.57 217.78 128.67 215.88 129.08 219.98C129.17 220.96 128.37 221.91 124.61 224.42C120.94 226.87 118.49 229.61 117.31 231.26C113.94 235.97 111.9 241.45 108.35 246.07C105.09 250.31 99.52 251.18 96.95 255.92C93.67 261.95 86.77 283.71 87.85 285.88Z" fill="#FCC49A" fill-opacity="1.000000" fill-rule="evenodd"/>
		<path id="Vector" d="M104.2 220.83C105.51 216.96 106.41 214.24 107.33 211.35C109.5 204.58 112.13 198.61 114.67 192.58C114.77 192.35 114.66 192.08 114.43 191.98C114.19 191.88 113.92 191.99 113.82 192.22C111.27 198.27 108.63 204.27 106.45 211.06C105.53 213.95 104.63 216.67 103.33 220.54C103.25 220.78 103.38 221.04 103.62 221.12C103.86 221.2 104.12 221.07 104.2 220.83Z" fill="#292929" fill-opacity="1.000000" fill-rule="evenodd"/>
		<path id="Vector" d="M96.33 218.48C97.19 216.56 98.99 211.9 99.87 209.99C102.99 203.18 106.03 194.8 109 187.95C109.1 187.72 108.99 187.45 108.76 187.35C108.52 187.24 108.25 187.35 108.15 187.59C105.19 194.43 102.14 202.8 99.03 209.6C98.15 211.51 96.34 216.19 95.49 218.11C95.38 218.34 95.49 218.61 95.72 218.72C95.95 218.82 96.22 218.72 96.33 218.48Z" fill="#292929" fill-opacity="1.000000" fill-rule="evenodd"/>
		<path id="Vector" d="M88.92 216.47C89.77 214.46 90.98 210.67 91.62 209.07C93.51 204.35 96.25 198.95 97.95 194.18C98.04 193.94 97.91 193.67 97.67 193.59C97.43 193.5 97.17 193.63 97.08 193.87C95.38 198.63 92.64 204.02 90.76 208.72C90.12 210.32 88.91 214.11 88.07 216.11C87.97 216.34 88.08 216.61 88.32 216.71C88.55 216.81 88.82 216.7 88.92 216.47Z" fill="#292929" fill-opacity="1.000000" fill-rule="evenodd"/>
		<path id="Vector" d="M123.47 222.98C123.49 222.92 123.64 222.57 123.65 222.55C123.82 222.19 124 221.83 124.24 221.46C124.85 220.52 125.88 219.54 126.93 219.03C127.16 218.91 127.43 219.01 127.55 219.24C127.66 219.47 127.56 219.74 127.33 219.86C126.43 220.3 125.54 221.15 125.01 221.97C124.8 222.29 124.63 222.62 124.48 222.94C124.47 222.97 124.32 223.36 124.27 223.44C124.18 223.61 124.05 223.65 124.01 223.66C123.77 223.75 123.51 223.62 123.42 223.38C123.37 223.24 123.39 223.1 123.47 222.98Z" fill="#292929" fill-opacity="1.000000" fill-rule="evenodd"/>
		<path id="Vector" d="M114.06 187.88C113.74 188.57 113.26 189.51 112.71 190.1C112.45 190.37 112.2 190.58 111.92 190.51C111.62 190.43 111.4 190.3 111.27 190.12C111.05 189.82 111.02 189.43 111.06 189.01C111.15 188.16 111.55 187.25 111.75 186.71C111.84 186.47 111.72 186.2 111.49 186.11C111.25 186.02 110.98 186.14 110.89 186.38C110.61 187.1 110.06 188.44 110.13 189.52C110.19 190.39 110.6 191.12 111.69 191.4C112.26 191.55 112.86 191.28 113.38 190.73C114 190.08 114.54 189.04 114.9 188.27C115 188.04 114.9 187.76 114.67 187.65C114.44 187.55 114.17 187.65 114.06 187.88Z" fill="#292929" fill-opacity="1.000000" fill-rule="evenodd"/>
		<path id="Vector" d="M106.67 186.55C106.07 187.88 105.66 188.64 105.04 189.22C104.75 189.49 104.39 189.48 104.1 189.31C103.57 188.99 103.24 188.18 103.61 187.32C103.71 187.08 103.6 186.81 103.37 186.71C103.13 186.61 102.86 186.72 102.76 186.96C102.28 188.09 102.61 189.15 103.21 189.77C103.89 190.45 104.89 190.62 105.67 189.89C106.36 189.25 106.84 188.42 107.51 186.92C107.62 186.69 107.52 186.42 107.28 186.31C107.05 186.21 106.78 186.31 106.67 186.55Z" fill="#292929" fill-opacity="1.000000" fill-rule="evenodd"/>
		<path id="Vector" d="M95.3 193.33C95.35 193.16 95.49 193.03 95.67 193.01C95.83 192.98 95.97 193.03 96.09 193.16C96.1 193.18 96.25 193.31 96.19 193.57C96.19 193.57 96.18 193.61 96.16 193.66C96.06 193.93 95.5 195.35 94.38 196.33C93.97 196.69 93.53 196.87 93.09 196.88C92.64 196.89 92.19 196.73 91.76 196.36C91.56 196.2 91.54 195.91 91.7 195.72C91.86 195.52 92.15 195.49 92.35 195.66C92.58 195.85 92.83 195.96 93.07 195.95C93.31 195.95 93.55 195.83 93.77 195.64C94.73 194.8 95.21 193.58 95.29 193.35L95.3 193.33Z" fill="#292929" fill-opacity="1.000000" fill-rule="evenodd"/>
		<path id="Vector" d="M117.3 195.83C117.12 196.57 116.81 197.1 116.35 197.21C116.07 197.28 115.76 197.16 115.42 196.89C115.11 196.63 115.13 196.23 115.21 195.83C115.33 195.3 115.6 194.75 115.8 194.37C115.92 194.15 115.83 193.87 115.61 193.75C115.38 193.63 115.1 193.72 114.99 193.94C114.7 194.48 114.31 195.3 114.25 196.04C114.2 196.65 114.35 197.21 114.84 197.6C115.47 198.11 116.06 198.23 116.57 198.11C117.29 197.94 117.91 197.21 118.2 196.06C118.26 195.82 118.11 195.56 117.86 195.5C117.62 195.44 117.37 195.59 117.3 195.83Z" fill="#292929" fill-opacity="1.000000" fill-rule="evenodd"/>
		<path id="Vector" d="M124.08 128.09C123.06 129.5 122.29 132.99 122.27 133.27C121.92 137.02 122.79 140.83 125.43 143.6C131.24 149.73 140.75 148.54 145.37 141.66C149.84 135 147.35 127.93 142.29 124.72C136.8 121.25 128.8 121.58 124.08 128.09Z" fill="#C6F432" fill-opacity="1.000000" fill-rule="evenodd"/>
		<path id="Vector" d="M145.94 166.9C145.1 163.43 144.53 160.07 144.27 156.9C143.19 155.86 141.67 153.54 140.91 152.26C138.12 147.6 136.97 142.06 138.36 136.76C138.44 136.43 139.05 133.85 139.5 133.78C139.92 133.72 144.16 138.06 144.76 138.92C148.52 144.32 148.18 149.35 146.3 156.18C145.93 157.51 146.25 158.94 146.4 160.33C146.64 162.54 147.68 167.33 147.81 167.35C148.16 167.4 149.07 166.43 149.32 166.23C154.03 162.46 149.81 160.15 150.95 154.46C151.73 150.56 154.78 148.29 157.71 145.93C158.25 145.49 162.77 141.92 163.2 142.11C163.48 142.23 162.85 148.11 162.74 149.41C162.34 154.09 160.8 158.92 156.94 161.94C155.22 163.29 147.76 167.86 148.06 169.38C148.39 171.11 149.46 174.05 150.82 177.31C152.76 176.6 154.1 174.52 154.14 173.97C154.36 170.82 155.88 166.77 157.6 165.38C158.65 164.52 159.89 163.93 160.96 163.08C162.79 161.6 164.26 159.9 165.8 158.16C165.95 157.99 166.29 157.64 166.42 158.18C166.83 159.83 166.82 162.13 166.68 163.62C165.96 171.08 162.24 174.7 155 176.15C153.69 176.42 152.24 178.34 151.58 179.12C152.75 181.81 154.04 184.6 155.24 187.02C156.31 186.23 158.11 185.83 158.71 184.56C158.83 184.3 157.73 181.33 160.12 179.27C161.73 177.88 163.97 177.93 165.56 176.57C166.45 175.8 166.96 174.83 167.46 173.79C167.57 173.57 167.83 172.71 168.15 172.71C168.54 172.71 168.49 174.42 168.5 174.63C168.56 176.73 168.5 179.04 167.96 181.08C167.27 183.66 164.93 186.06 162.13 185.94C161.38 185.91 160.01 185.34 159.88 185.47C158.75 186.47 156.78 187.17 155.71 187.95C156.37 189.24 156.98 190.4 157.52 191.35C159.74 195.26 161.32 196.49 163.23 199.1C163.42 199.35 161.85 200.26 160.89 200.48C160.33 200.6 156.68 193.69 155.25 190.98C154.8 190.12 154.35 189.25 153.92 188.38C152.91 188.35 151.49 188.31 151.19 188.61C147.38 192.41 143.11 192.11 138.62 188.8C137.72 188.14 136.44 186.99 135.72 185.96C135.48 185.61 135.84 185.6 136 185.6C137.71 185.62 138.9 185.95 140.62 185.88C142.81 185.79 143.35 184.53 145.28 184.19C148.24 183.66 149.22 185.48 150.39 187.05C150.6 187.33 152.13 186.98 153.24 186.99C152.06 184.53 150.97 182.04 149.99 179.55C148.34 179.29 146.03 179.3 144.44 178.73C144.21 178.65 142.81 179.95 141.91 180.34C138.56 181.79 134.64 180.08 132.64 177.4C131.06 175.28 129.96 172.6 129.09 170.13C129 169.88 128.17 167.91 128.65 167.72C129.04 167.57 129.73 168.45 129.96 168.66C131.05 169.64 132.1 170.53 133.53 171.01C136.07 171.86 138.76 170.75 141.34 171.61C145.18 172.9 145.18 176.88 145.45 177.13C146.43 178.03 148.02 178.04 149.45 178.17C148.31 175.14 147.32 172.12 146.52 169.17C145.74 168.68 143.48 166.83 142.78 166.94C136.18 168.01 132.07 164.79 129.89 158.51C129.46 157.26 128.98 155.27 129 153.78C129 153.28 129.38 153.52 129.54 153.63C131.26 154.82 132.91 155.99 134.83 156.89C135.94 157.41 137.16 157.67 138.26 158.19C140.07 159.05 142.25 162.22 143.09 164.89C143.23 165.31 144.96 166.07 145.94 166.9Z" fill="#FF6699" fill-opacity="1.000000" fill-rule="evenodd"/>
		<path id="Vector" d="M119.31 130.34C115.75 130.78 107.99 131.69 108.03 132.02C108.22 133.34 108.5 135.59 108.56 135.58C111.4 135.35 123.08 133.51 127.35 132.98C129.22 132.75 132.17 132.49 134 131.98C134.28 131.9 134 128.57 133.66 128.33C133.46 128.19 127.16 129.08 126.21 129.26C123.92 129.69 121.62 130.05 119.31 130.34Z" fill="#00679D" fill-opacity="1.000000" fill-rule="evenodd"/>
		<path id="Vector" d="M120.36 137.04C116.8 137.48 109.04 138.39 109.08 138.72C109.27 140.04 109.55 142.29 109.61 142.28C112.45 142.06 124.13 140.22 128.4 139.68C130.27 139.45 133.22 139.19 135.05 138.68C135.33 138.6 135.04 135.27 134.71 135.03C134.51 134.89 128.21 135.78 127.26 135.96C124.97 136.39 122.67 136.75 120.36 137.04Z" fill="#00679D" fill-opacity="1.000000" fill-rule="evenodd"/>
		<path id="Vector" d="M231.31 212C231.82 211.43 231.77 210.48 230.37 210.74C229.22 210.95 228.31 211 227.31 211.27C224.56 212 219.32 213.67 218.9 213.16C218.7 212.92 219.34 212.06 219.4 211.97C219.79 211.39 220.71 210.36 221.22 209.73C221.45 209.43 221.66 209.03 220.92 208.88C218.34 208.36 213.24 210.04 212.25 210.38C207.69 211.91 204.77 214.61 204.27 214.17C203.87 213.82 205.15 211.02 206.07 209.83C206.27 209.57 206.09 209.21 205.49 209.38C200.92 210.66 195.87 214.41 193.62 217.48C192.65 218.81 190.23 222.79 189.64 222.65C189.1 222.53 190.67 216.04 188.6 216.09C187.45 216.12 185.66 218.2 183.49 222.39C181.61 226.02 180.08 235.68 181.61 238.18C182.72 240.02 193.2 244.58 200.12 243.82C201.98 243.62 204.95 243.04 204.79 241.29C204.68 240.12 200.16 237.9 200.19 237.37C200.24 236.48 204.23 237 208.98 235.59C211.96 234.71 215.48 233.45 218.64 230.11C219.01 229.72 218.61 229.4 218.32 229.4C216.89 229.43 212.56 229.74 212.57 229.14C212.57 228.79 215.47 228.14 218.15 226.85C221.65 225.15 225.57 222.59 226.05 221.22C226.12 221.04 226.23 220.6 225.52 220.63C224.21 220.68 221.01 220.18 220.98 219.68C220.94 219.18 224.06 218.05 226.56 216.29C228.54 214.91 230.2 213.21 231.31 212Z" fill="#FBFBFB" fill-opacity="1.000000" fill-rule="evenodd"/>
		<path id="Vector" d="M228.93 211.94C228.43 212.2 225.11 213.81 223.94 214.37C220.42 216.06 217 217.9 213.57 219.77C206.03 223.91 198.21 227.5 190.79 231.85C188.95 232.92 184.48 235.55 182.55 236.77C182.33 236.9 182.27 237.19 182.4 237.4C182.54 237.62 182.82 237.68 183.04 237.55C184.97 236.33 189.43 233.71 191.25 232.64C198.67 228.3 206.48 224.71 214.02 220.58C217.42 218.71 220.84 216.88 224.34 215.2C225.51 214.64 228.86 213.02 229.36 212.75C229.58 212.64 229.67 212.36 229.55 212.13C229.43 211.91 229.15 211.82 228.93 211.94Z" fill="#C6F432" fill-opacity="1.000000" fill-rule="evenodd"/>
		<path id="Vector" d="M216.42 210.95C214.98 211.87 214.15 212.63 213.4 213.31C210.48 215.94 208.36 219.03 207.41 222.87C207.35 223.12 207.5 223.37 207.74 223.43C207.99 223.49 208.24 223.34 208.3 223.1C209.21 219.44 211.24 216.5 214.02 213.99C214.74 213.34 215.54 212.61 216.92 211.72C217.14 211.59 217.2 211.3 217.06 211.09C216.92 210.87 216.64 210.81 216.42 210.95Z" fill="#C6F432" fill-opacity="1.000000" fill-rule="evenodd"/>
		<path id="Vector" d="M202.56 211.7C199.87 213.93 198.41 215.84 197.44 217.69C195.59 221.21 194.67 224.31 196.08 228.83C196.16 229.07 196.42 229.21 196.66 229.13C196.91 229.05 197.04 228.79 196.96 228.55C195.64 224.32 196.52 221.42 198.26 218.12C199.18 216.35 200.58 214.54 203.15 212.41C203.35 212.25 203.37 211.96 203.21 211.76C203.05 211.57 202.76 211.54 202.56 211.7Z" fill="#C6F432" fill-opacity="1.000000" fill-rule="evenodd"/>
		<path id="Vector" d="M187.34 220.76C187.1 221.55 186.52 223.22 186.33 224.03C185.86 226 185.19 228.86 184.86 231.35C184.63 233.07 184.57 234.61 184.82 235.59C184.88 235.84 185.13 235.99 185.38 235.92C185.63 235.86 185.78 235.61 185.71 235.36C185.48 234.46 185.56 233.05 185.77 231.47C186.1 229.02 186.76 226.19 187.23 224.25C187.42 223.45 187.98 221.81 188.22 221.03C188.3 220.78 188.16 220.52 187.92 220.45C187.67 220.37 187.42 220.51 187.34 220.76Z" fill="#C6F432" fill-opacity="1.000000" fill-rule="evenodd"/>
		<path id="Vector" d="M207.72 223.86C208.88 224.11 211.7 224.62 212.88 224.71C216.37 224.97 219.35 224.17 222.61 222.94C222.84 222.85 222.96 222.58 222.87 222.34C222.78 222.11 222.52 221.99 222.28 222.08C219.15 223.26 216.3 224.04 212.95 223.79C211.8 223.7 209.04 223.2 207.91 222.96C207.66 222.91 207.42 223.07 207.36 223.32C207.31 223.56 207.47 223.81 207.72 223.86Z" fill="#C6F432" fill-opacity="1.000000" fill-rule="evenodd"/>
		<path id="Vector" d="M196.43 229.5C197.76 230.59 199.72 231.45 200.94 231.75C208.25 233.55 210.92 232.4 214.22 231.88C214.47 231.84 214.64 231.6 214.6 231.35C214.56 231.1 214.33 230.93 214.08 230.97C210.86 231.47 208.27 232.6 201.16 230.85C200.04 230.58 198.24 229.79 197.02 228.79C196.82 228.63 196.53 228.66 196.37 228.85C196.21 229.05 196.24 229.34 196.43 229.5Z" fill="#C6F432" fill-opacity="1.000000" fill-rule="evenodd"/>
		<path id="Vector" d="M185.28 236.07C186.26 236.84 189.01 238.52 190.15 239.02C194.12 240.72 197.65 241.55 201.33 241.59C201.58 241.59 201.79 241.38 201.79 241.13C201.79 240.88 201.59 240.67 201.34 240.66C197.77 240.62 194.36 239.82 190.52 238.17C189.42 237.69 186.79 236.08 185.85 235.34C185.64 235.19 185.35 235.22 185.2 235.42C185.04 235.62 185.08 235.91 185.28 236.07Z" fill="#C6F432" fill-opacity="1.000000" fill-rule="evenodd"/>
		<path id="Vector" d="M160.04 65.5C159.8 65.35 154.59 69.71 154.09 70.1C149.49 73.7 135.74 84.28 136.02 84.78C136.26 85.22 147.97 91.21 151.78 93.3C154.77 94.94 163.98 99.53 164.06 99.26C164.35 98.28 163.79 92.59 163.54 90.99C162.42 83.87 161.83 72.49 160.04 65.5Z" fill="#FF6699" fill-opacity="1.000000" fill-rule="evenodd"/>
		<path id="Vector" d="M198.98 104.78C198.19 104.79 196.21 105.15 195.49 106.48C194.91 107.53 191.01 115.85 189.65 118.63C188.32 121.36 184.07 130.36 184.3 133.47C184.49 135.91 187.98 139.82 187.61 140.78C186.46 143.81 184.91 146.51 184.87 147.31C184.83 148.19 190.59 150.82 191.25 150.09C191.67 149.62 194.48 143.34 194.95 143.31C197.49 143.14 200.38 142.12 202.38 141.23C204.89 140.11 210.5 130.08 213.59 124.24C214.2 123.1 217.55 116.04 217.36 114.49C217.07 112.02 213.48 108.8 206.85 106.35C204.63 105.54 202.64 104.74 198.98 104.78Z" fill="#439184" fill-opacity="1.000000" fill-rule="evenodd"/>
		<path id="Vector" d="M184.94 147.02C183.53 150.68 181.58 155.96 183.58 157.87C184.17 158.44 185.09 158.16 186.34 157C187.51 155.92 190.76 151.45 191.43 149.87C191.46 149.79 188.39 149.55 184.94 147.02Z" fill="#FF6699" fill-opacity="1.000000" fill-rule="evenodd"/>
		<path id="Vector" d="M195.4 107.08C195.36 108.31 195.86 109.38 196.55 110.28C197.54 111.55 198.93 112.44 199.64 112.88C202.15 114.4 206.55 116.46 210.37 116.97C213.05 117.33 215.45 116.91 216.82 115.17C216.98 114.97 216.95 114.68 216.75 114.52C216.55 114.36 216.26 114.4 216.1 114.6C214.91 116.1 212.81 116.37 210.49 116.05C206.8 115.56 202.55 113.56 200.12 112.09C199.47 111.69 198.18 110.88 197.28 109.71C196.71 108.98 196.29 108.11 196.32 107.11C196.33 106.85 196.13 106.64 195.87 106.63C195.62 106.63 195.41 106.83 195.4 107.08Z" fill="#282828" fill-opacity="1.000000" fill-rule="evenodd"/>
		<path id="Vector" d="M194.34 140.96C192.88 138.74 190.4 135.96 189.28 134.77C186.1 131.39 177.21 125.63 179.99 121.18C181.47 118.82 186.9 120.95 189.13 122.6C193.98 126.18 199.25 130.62 205.73 130.36C213.18 130.07 217.29 114.92 217.36 114.91C217.97 114.78 222.29 115.66 224.14 117.61C227.54 121.16 226.39 127.86 226.78 132.79C227.15 137.52 230 140.43 232.07 144.5C235.23 150.7 241.02 157.05 245.37 162.39C250.57 168.77 255.55 173.78 260.65 180.25C262.67 182.82 271.28 191.86 272.1 194.7C273.02 197.95 252.35 213.75 247.18 212.76C245.42 212.42 235.87 196.07 232.59 190.75C227.66 182.73 214.07 160.62 211.13 156.91C209.83 155.27 202.06 152.72 199.79 150.74C196.69 148.05 196.09 143.63 194.34 140.96Z" fill="#FCC49A" fill-opacity="1.000000" fill-rule="evenodd"/>
		<path id="Vector" d="M193.23 111.15C191.23 110.49 186.81 110.43 185.37 111.98C184.16 113.28 183.34 115.25 182.69 116.87C181.45 119.9 178.68 128.41 178.94 131.51C179.13 133.8 183.28 136.18 183.94 134.85C184.95 132.8 187.72 124.87 188.51 122.73C189.83 119.12 191.41 115.72 193.23 111.15Z" fill="#FCC49A" fill-opacity="1.000000" fill-rule="evenodd"/>
		<path id="Vector" d="M180.19 126.41C181.14 127.49 183.17 129.95 184.54 131C184.74 131.16 185.03 131.12 185.18 130.92C185.34 130.72 185.3 130.42 185.1 130.27C183.77 129.25 181.81 126.85 180.88 125.8C180.71 125.61 180.42 125.59 180.23 125.76C180.04 125.92 180.02 126.22 180.19 126.41Z" fill="#292929" fill-opacity="1.000000" fill-rule="evenodd"/>
		<path id="Vector" d="M182.36 120.5C182.78 120.53 184.77 120.88 185.16 121.01C186.08 121.33 186.87 121.53 187.74 122.07C187.96 122.21 188.25 122.14 188.38 121.92C188.51 121.71 188.45 121.42 188.23 121.29C187.29 120.71 186.45 120.48 185.47 120.14C185.04 119.99 182.88 119.61 182.43 119.58C182.18 119.56 181.95 119.75 181.93 120.01C181.92 120.26 182.11 120.48 182.36 120.5Z" fill="#292929" fill-opacity="1.000000" fill-rule="evenodd"/>
		<path id="Vector" d="M181.07 125.25C181.68 126.22 182.64 126.66 183.54 126.6C184.46 126.55 185.34 125.99 185.73 124.91C185.94 124.36 185.89 123.8 185.69 123.26C185.41 122.54 184.85 121.87 184.3 121.39C184.11 121.22 183.82 121.23 183.65 121.42C183.48 121.61 183.5 121.91 183.69 122.08C184.06 122.41 184.45 122.84 184.7 123.31C184.91 123.72 185.03 124.16 184.87 124.59C184.62 125.28 184.07 125.65 183.49 125.68C182.89 125.72 182.26 125.4 181.85 124.76C181.71 124.54 181.43 124.48 181.21 124.61C181 124.75 180.93 125.04 181.07 125.25Z" fill="#292929" fill-opacity="1.000000" fill-rule="evenodd"/>
		<path id="Vector" d="M213.9 161.63C212.67 162.27 212.86 163.17 213.05 163.48C214.21 165.35 216.19 168.67 216.68 168.6C217.53 168.47 221.42 166.08 222.49 165.41C227.51 162.26 230.45 160.39 235.09 156.6C237.23 154.85 239.05 153.25 239.21 152.61C239.42 151.76 236.07 146.86 235.07 146.95C234.78 146.98 231.17 150.25 226.82 153.45C221.99 157 216.86 160.09 213.9 161.63Z" fill="#439184" fill-opacity="1.000000" fill-rule="evenodd"/>
		<path id="Vector" d="M217.63 165.61C217.67 165.42 217.65 165.19 217.59 164.93C217.52 164.67 217.4 164.36 217.3 164.06C217.26 163.91 217.22 163.75 217.21 163.61C217.21 163.49 217.23 163.38 217.34 163.3C217.44 163.22 217.55 163.25 217.67 163.28C217.91 163.36 218.16 163.5 218.42 163.63C219.16 164.01 219.92 164.24 220.6 163.54C220.82 163.32 220.97 163.03 221.07 162.71C221.2 162.31 221.25 161.84 221.32 161.39C221.36 161.07 221.41 160.77 221.52 160.51C221.59 160.33 221.7 160.18 221.88 160.1C222.05 160.02 222.23 160.04 222.41 160.09C222.67 160.17 222.93 160.31 223.2 160.44C223.94 160.8 224.69 161.03 225.47 160.47C226.28 159.89 226.42 158.88 226.53 157.87C226.57 157.47 226.61 157.07 226.73 156.73C226.82 156.46 226.97 156.22 227.23 156.07C227.47 155.93 227.72 155.97 227.96 156.05C228.19 156.13 228.43 156.25 228.67 156.36C229.45 156.72 230.25 156.99 231.1 156.41C231.93 155.84 232.12 154.96 232.23 154.02C232.31 153.32 232.33 152.58 232.82 152.06C233.16 151.71 233.53 151.68 233.88 151.75C234.19 151.81 234.5 151.94 234.79 152.05C235.29 152.22 235.76 152.32 236.16 152.18C236.57 152.04 236.97 151.67 237.22 150.75C237.28 150.5 237.14 150.25 236.89 150.18C236.65 150.11 236.39 150.26 236.33 150.51C236.2 150.98 236.07 151.24 235.86 151.31C235.63 151.39 235.38 151.28 235.1 151.18C234.16 150.84 233.11 150.43 232.16 151.43C231.52 152.09 231.42 153.01 231.31 153.91C231.23 154.58 231.17 155.24 230.58 155.64C230.22 155.89 229.88 155.84 229.55 155.73C229.25 155.62 228.96 155.47 228.67 155.34C228.03 155.06 227.4 154.91 226.77 155.27C225.9 155.77 225.72 156.75 225.61 157.78C225.57 158.19 225.53 158.6 225.42 158.97C225.33 159.27 225.19 159.53 224.93 159.72C224.63 159.94 224.34 159.9 224.05 159.8C223.78 159.71 223.51 159.57 223.25 159.44C222.66 159.16 222.07 158.99 221.5 159.25C220.89 159.53 220.62 160.11 220.48 160.81C220.4 161.22 220.36 161.67 220.28 162.09C220.22 162.4 220.14 162.7 219.94 162.9C219.73 163.12 219.49 163.09 219.25 163C219 162.91 218.75 162.76 218.5 162.64C217.89 162.33 217.3 162.19 216.8 162.55C216.3 162.9 216.22 163.42 216.34 164C216.4 164.3 216.52 164.63 216.62 164.92C216.68 165.11 216.75 165.27 216.72 165.4C216.67 165.65 216.83 165.9 217.07 165.96C217.32 166.01 217.57 165.85 217.63 165.61Z" fill="#83BEB6" fill-opacity="1.000000" fill-rule="evenodd"/>
		<path id="Vector" d="M244.45 214.57C242.96 211.54 245.56 209.75 246.84 209.12C248.54 208.3 251.86 206.44 253.27 205.55C258.3 202.37 261.71 199.82 266.1 195.81C267.94 194.13 271.91 189.13 273.54 190.71C275.29 192.41 283.2 205.78 284.6 208.16C287.99 213.95 291.42 220.04 295.49 225.36C297.84 228.42 301.76 229.66 303.49 233.29C303.78 233.89 305.2 235.63 304.16 241.78C303.05 248.36 304.45 256.66 304.22 257.13C303.92 257.73 260.03 258.35 258.59 257.29C258.27 257.06 259.22 245.8 257.56 240.31C256.63 237.26 254.97 233.36 253.21 230.78C249.63 225.51 247.31 220.38 244.45 214.57Z" fill="#00679D" fill-opacity="1.000000" fill-rule="evenodd"/>
		<mask id="mask580_3130" mask-type="alpha" maskUnits="userSpaceOnUse" x="244.008545" y="190.408203" width="60.529175" height="67.462891">
			<path id="Vector" d="M244.45 214.57C242.96 211.54 245.55 209.75 246.83 209.13C248.53 208.3 251.86 206.44 253.26 205.56C258.3 202.37 261.71 199.82 266.1 195.81C267.93 194.13 271.91 189.13 273.54 190.71C275.29 192.41 283.2 205.78 284.59 208.16C287.99 213.95 291.42 220.04 295.49 225.36C297.84 228.43 301.76 229.66 303.49 233.3C303.78 233.89 305.2 235.63 304.16 241.78C303.05 248.37 304.45 256.67 304.22 257.13C303.91 257.73 260.03 258.35 258.59 257.29C258.27 257.06 259.22 245.8 257.56 240.31C256.63 237.26 254.97 233.36 253.21 230.78C249.63 225.51 247.31 220.39 244.45 214.57Z" fill="#000000" fill-opacity="1.000000" fill-rule="nonzero"/>
		</mask>
		<g mask="url(#mask580_3130)">
			<path id="Vector" d="M266.56 194.1C272.62 197.6 271.74 204.37 274.59 208.85C276.37 211.64 279.14 211.48 281.8 210.15C282.63 209.74 285.39 207.38 285.49 207.7C285.85 208.79 290.65 215.54 290.43 216.03C290.05 216.86 288.04 217.09 287.4 216.95C284.62 216.36 282.29 215.49 279.38 215.43C276.7 215.37 269.77 216.64 267.71 215.11C263.82 212.2 266.95 206.56 266.05 202.65C265.73 201.24 262.88 197.85 262.88 197.56C262.87 196.94 265.88 194.71 266.56 194.1Z" fill="#FF6699" fill-opacity="1.000000" fill-rule="evenodd"/>
		</g>
		<mask id="mask580_3134" mask-type="alpha" maskUnits="userSpaceOnUse" x="244.008545" y="190.408203" width="60.529175" height="67.462891">
			<path id="Vector" d="M244.45 214.57C242.96 211.54 245.55 209.75 246.83 209.13C248.53 208.3 251.86 206.44 253.26 205.56C258.3 202.37 261.71 199.82 266.1 195.81C267.93 194.13 271.91 189.13 273.54 190.71C275.29 192.41 283.2 205.78 284.59 208.16C287.99 213.95 291.42 220.04 295.49 225.36C297.84 228.43 301.76 229.66 303.49 233.3C303.78 233.89 305.2 235.63 304.16 241.78C303.05 248.37 304.45 256.67 304.22 257.13C303.91 257.73 260.03 258.35 258.59 257.29C258.27 257.06 259.22 245.8 257.56 240.31C256.63 237.26 254.97 233.36 253.21 230.78C249.63 225.51 247.31 220.39 244.45 214.57Z" fill="#000000" fill-opacity="1.000000" fill-rule="nonzero"/>
		</mask>
		<g mask="url(#mask580_3134)">
			<path id="Vector" d="M253.54 204.02C253.76 203.98 254.84 206.24 254.89 206.39C255.63 208.55 254.47 210.6 254.98 212.7C255.49 214.77 260.84 216.74 259.22 219.21C258.6 220.16 257.15 219.93 256.22 219.77C253.66 219.31 251.16 218.56 248.57 218.29C248.12 218.24 245.19 217.7 245.08 218.42C244.91 219.46 247.78 224.1 248.52 224.67C248.66 224.78 251.66 224.66 252.68 224.68C255.03 224.72 259.34 226.2 261.39 225.49C264.5 224.41 266.62 218.86 264.25 216.3C262.97 214.92 260.53 214.61 259.85 212.68C258.75 209.57 260.96 207.13 258.84 203.73C258.63 203.39 257.87 201.66 257.38 201.72C256.32 201.83 254.41 203.4 253.54 204.02Z" fill="#FF6699" fill-opacity="1.000000" fill-rule="evenodd"/>
		</g>
		<mask id="mask580_3138" mask-type="alpha" maskUnits="userSpaceOnUse" x="244.008545" y="190.408203" width="60.529175" height="67.462891">
			<path id="Vector" d="M244.45 214.57C242.96 211.54 245.55 209.75 246.83 209.13C248.53 208.3 251.86 206.44 253.26 205.56C258.3 202.37 261.71 199.82 266.1 195.81C267.93 194.13 271.91 189.13 273.54 190.71C275.29 192.41 283.2 205.78 284.59 208.16C287.99 213.95 291.42 220.04 295.49 225.36C297.84 228.43 301.76 229.66 303.49 233.3C303.78 233.89 305.2 235.63 304.16 241.78C303.05 248.37 304.45 256.67 304.22 257.13C303.91 257.73 260.03 258.35 258.59 257.29C258.27 257.06 259.22 245.8 257.56 240.31C256.63 237.26 254.97 233.36 253.21 230.78C249.63 225.51 247.31 220.39 244.45 214.57Z" fill="#000000" fill-opacity="1.000000" fill-rule="nonzero"/>
		</mask>
		<g mask="url(#mask580_3138)">
			<path id="Vector" d="M250.81 228.14C250.69 228.13 253.39 228.75 254.16 228.94C256.51 229.53 258.73 229.62 261.09 228.98C263.27 228.39 265.25 227.35 267.16 226.16C270.29 224.2 274.62 220.06 278.57 222.88C279.89 223.82 281.83 229.08 282.1 230.74C282.51 233.34 280.1 235.95 279.5 238.41C278.63 241.95 279.91 245.5 279.53 249.08C279.33 250.9 278.39 252.41 277.55 253.99C277.24 254.58 277.04 257.36 276.51 257.75C276.22 257.97 272.12 257.69 272.07 257.46C271.99 257.11 273.66 252.79 273.77 252.07C274.18 249.23 273.16 246.44 273.55 243.58C274.19 238.93 278.23 236.55 274.76 231.76C272.3 228.35 267.21 234.25 264.25 234.84C262.01 235.27 259.88 234.15 257.65 234.3C255.66 234.43 254.75 235.29 254.22 234.92C253.85 234.66 251.51 229.1 250.81 228.14Z" fill="#FF6699" fill-opacity="1.000000" fill-rule="evenodd"/>
		</g>
		<mask id="mask580_3142" mask-type="alpha" maskUnits="userSpaceOnUse" x="244.008545" y="190.408203" width="60.529175" height="67.462891">
			<path id="Vector" d="M244.45 214.57C242.96 211.54 245.55 209.75 246.83 209.13C248.53 208.3 251.86 206.44 253.26 205.56C258.3 202.37 261.71 199.82 266.1 195.81C267.93 194.13 271.91 189.13 273.54 190.71C275.29 192.41 283.2 205.78 284.59 208.16C287.99 213.95 291.42 220.04 295.49 225.36C297.84 228.43 301.76 229.66 303.49 233.3C303.78 233.89 305.2 235.63 304.16 241.78C303.05 248.37 304.45 256.67 304.22 257.13C303.91 257.73 260.03 258.35 258.59 257.29C258.27 257.06 259.22 245.8 257.56 240.31C256.63 237.26 254.97 233.36 253.21 230.78C249.63 225.51 247.31 220.39 244.45 214.57Z" fill="#000000" fill-opacity="1.000000" fill-rule="nonzero"/>
		</mask>
		<g mask="url(#mask580_3142)">
			<path id="Vector" d="M294.97 222.35C293.65 223.06 292.24 224.36 291.21 225.42C290.08 226.58 289.03 227.79 288.18 229.17C284.71 234.73 287.46 238.87 287.14 244.49C286.96 247.59 283.48 251.93 285.46 254.93C286.24 256.11 287.7 257.15 288.78 258.05C289.57 258.7 301.81 258.08 301.81 257.64C301.8 252.45 295.08 254.06 292.71 251.77C290.84 249.96 291.78 246.06 291.4 243.74C290.99 241.28 289.46 239.24 289.28 236.69C289.05 233.45 290.46 232.25 292.5 229.69C294 227.81 295.97 227.27 297.25 225.86C298.01 225.02 295.78 223.28 294.97 222.35Z" fill="#FF6699" fill-opacity="1.000000" fill-rule="evenodd"/>
		</g>
		<mask id="mask580_3146" mask-type="alpha" maskUnits="userSpaceOnUse" x="244.008545" y="190.408203" width="60.529175" height="67.462891">
			<path id="Vector" d="M244.45 214.57C242.96 211.54 245.55 209.75 246.83 209.13C248.53 208.3 251.86 206.44 253.26 205.56C258.3 202.37 261.71 199.82 266.1 195.81C267.93 194.13 271.91 189.13 273.54 190.71C275.29 192.41 283.2 205.78 284.59 208.16C287.99 213.95 291.42 220.04 295.49 225.36C297.84 228.43 301.76 229.66 303.49 233.3C303.78 233.89 305.2 235.63 304.16 241.78C303.05 248.37 304.45 256.67 304.22 257.13C303.91 257.73 260.03 258.35 258.59 257.29C258.27 257.06 259.22 245.8 257.56 240.31C256.63 237.26 254.97 233.36 253.21 230.78C249.63 225.51 247.31 220.39 244.45 214.57Z" fill="#000000" fill-opacity="1.000000" fill-rule="nonzero"/>
		</mask>
		<g mask="url(#mask580_3146)">
			<path id="Vector" d="M296.2 233.16C297.45 233.66 298.34 234.68 298.9 235.9C299.78 237.79 299.89 240.15 299.32 241.92C299.25 242.16 299.38 242.42 299.62 242.5C299.87 242.57 300.13 242.44 300.2 242.2C300.83 240.23 300.71 237.61 299.74 235.52C299.08 234.08 298.02 232.89 296.54 232.3C296.31 232.21 296.04 232.32 295.94 232.56C295.85 232.79 295.96 233.06 296.2 233.16Z" fill="#282828" fill-opacity="1.000000" fill-rule="evenodd"/>
		</g>
		<path id="Vector" d="M114.41 43.17C113.58 41.79 113.24 40.52 113.1 39.24C112.69 35.61 113.28 33.16 115.69 30.84C119.63 27.03 127.85 26.95 131.62 31.32C132.72 32.59 133.35 34.69 133.49 36.5C133.69 39.09 133.25 41.93 131.71 44.17C128.89 48.25 121.52 48.56 117.87 46.4C116.36 45.51 115.53 45.02 114.41 43.17Z" fill="#010101" fill-opacity="1.000000" fill-rule="evenodd"/>
		<path id="Vector" d="M110.99 38.17C110.94 40.58 111.34 46.61 111.4 48.3C111.49 50.5 111.88 54.89 112.4 56.03C113.6 58.68 117.15 61.27 120.97 61.53C127.63 61.98 131.2 59.12 131.99 55.96C132.52 53.84 134.5 41.9 134.58 39.87C134.6 39.58 131.25 47.91 125.95 48.47C122.87 48.8 119.77 48.28 116.89 46.77C114.31 45.41 112.46 40.55 110.99 38.17Z" fill="#C6F432" fill-opacity="1.000000" fill-rule="evenodd"/>
		<path id="Vector" d="M112.62 44.21C111.65 42.59 111.26 41.12 111.09 39.64C110.62 35.42 111.31 32.58 114.1 29.87C118.66 25.45 128.19 25.36 132.56 30.43C133.83 31.91 134.57 34.35 134.73 36.45C134.97 39.46 134.46 42.77 132.66 45.37C129.4 50.1 120.86 50.46 116.62 47.96C114.87 46.92 113.91 46.35 112.62 44.21ZM117.81 45.91C116.39 45.05 114.14 43.33 113.46 38.77C113.04 35.95 113.56 33.48 115.83 31.26C119.54 27.64 127.29 27.56 130.84 31.73C131.88 32.94 132.37 35.07 132.5 36.79C132.69 39.26 132.38 41.67 130.92 43.8C128.26 47.69 121.26 47.96 117.81 45.91Z" fill="#C6F432" fill-opacity="1.000000" fill-rule="evenodd"/>
		<path id="Vector" d="M111.56 43.32C113.15 48.29 117.46 51 121.95 51.38C126.44 51.77 131.1 49.81 133.38 45.48C133.49 45.26 133.41 44.99 133.19 44.88C132.98 44.76 132.71 44.85 132.6 45.06C130.49 49.07 126.18 50.85 122.03 50.5C117.87 50.15 113.88 47.65 112.4 43.05C112.33 42.82 112.08 42.69 111.85 42.77C111.61 42.84 111.49 43.09 111.56 43.32Z" fill="#010101" fill-opacity="1.000000" fill-rule="evenodd"/>
		<path id="Vector" d="M291.58 144.66C291.21 144.66 290.04 144.64 289.67 144.65C288.55 144.68 287.42 144.58 286.35 144.22C283.04 143.09 281.75 139.9 279.07 137.99C278.1 137.3 276.98 136.79 275.85 136.42C275.74 136.38 274.14 135.93 274.15 135.89C274.36 135.25 280.49 134.51 281.27 134.51C287.61 134.48 292.85 137.92 292.98 138.48C293.31 139.91 292.08 143.4 291.58 144.66Z" fill="#000000" fill-opacity="1.000000" fill-rule="evenodd"/>
		<path id="Vector" d="M305.96 148.7C308.35 149.35 309.46 149.64 310.99 150.02C317.32 151.62 323.59 153.31 329.88 155.04C334.89 156.43 350.17 160.56 352.8 161.25C356.01 162.11 360.12 163.22 362.44 163.64C362.99 163.74 363.99 163.95 364.51 163.7C365.27 163.33 365.27 162.21 364.6 161.75C363.92 161.29 361.94 160.68 361.4 160.53C360.32 160.22 331.75 151.32 320.81 147.41C317.54 146.25 307.68 142.98 307.45 143C307.06 143.03 306.36 147.05 305.96 148.7Z" fill="#00679D" fill-opacity="1.000000" fill-rule="evenodd"/>
		<path id="Vector" d="M290.69 144.74C291.19 144.89 292.93 145.34 293.43 145.49C294.89 145.92 306 148.83 306.08 148.7C306.38 148.24 307.68 143.58 307.62 143.04C307.62 142.99 298.02 139.75 295.72 139.02C295.29 138.88 292.63 137.93 292.56 138.06C292.15 138.84 290.55 143.88 290.69 144.74Z" fill="#FBFBFB" fill-opacity="1.000000" fill-rule="evenodd"/>
		<path id="Vector" d="M304.7 147.74C304.85 147.34 305.17 146.38 305.29 145.97C305.63 144.83 305.88 143.98 305.97 142.98C306 142.74 305.82 142.52 305.57 142.5C305.33 142.47 305.11 142.65 305.09 142.9C305 143.84 304.76 144.64 304.44 145.72C304.33 146.11 304.01 147.05 303.87 147.43C303.79 147.66 303.9 147.91 304.13 148C304.36 148.08 304.62 147.97 304.7 147.74Z" fill="#00679D" fill-opacity="1.000000" fill-rule="evenodd"/>
		<path id="Vector" d="M302.48 147.19C302.76 146.58 303.08 145.35 303.11 145.24C303.57 143.68 303.63 143.19 303.7 142.21C303.71 141.96 303.53 141.75 303.28 141.73C303.04 141.72 302.83 141.9 302.81 142.14C302.75 143.06 302.69 143.53 302.26 144.98C302.23 145.09 301.94 146.25 301.67 146.82C301.57 147.04 301.67 147.31 301.89 147.41C302.11 147.51 302.38 147.41 302.48 147.19Z" fill="#00679D" fill-opacity="1.000000" fill-rule="evenodd"/>
		<path id="Vector" d="M325.68 184.86C328.74 184.36 330.16 184.11 332.1 183.76C340.14 182.29 348.18 180.97 356.26 179.68C362.69 178.66 382.27 175.44 385.63 174.87C389.75 174.17 395.01 173.32 397.87 172.58C398.54 172.41 399.79 172.13 400.23 171.57C400.87 170.75 400.23 169.45 399.2 169.27C398.17 169.1 395.6 169.43 394.9 169.53C393.5 169.74 356.21 174.4 341.65 175.61C337.29 175.97 324.32 177.36 324.07 177.5C323.64 177.74 325.18 182.74 325.68 184.86Z" fill="#FF6699" fill-opacity="1.000000" fill-rule="evenodd"/>
		<path id="Vector" d="M306.9 188.15C306.65 188.22 303.03 189.18 302.13 189.43C300.69 189.83 296.86 190.88 294.88 191.3C294.42 191.4 293.68 191.2 293.49 190.22C293.04 187.84 292.38 183.21 292.22 181.24C292.1 179.75 293.38 179.85 293.5 179.85C294.9 179.8 296.88 179.8 297.18 179.8C299.1 179.76 305.02 179.41 305.36 179.71C305.77 180.06 306.51 187.1 306.9 188.15Z" fill="#010101" fill-opacity="1.000000" fill-rule="evenodd"/>
		<path id="Vector" d="M306.21 188.27C306.86 188.19 309.08 187.8 309.73 187.71C311.62 187.44 325.8 185 325.82 184.81C325.88 184.11 324.66 178.06 324.28 177.46C324.24 177.4 311.58 178.68 308.57 179.04C308.01 179.1 304.46 179.39 304.46 179.58C304.44 180.69 305.55 187.35 306.21 188.27Z" fill="#FFFFFF" fill-opacity="1.000000" fill-rule="evenodd"/>
		<path id="Vector" d="M323.59 184.4C323.53 183.87 323.34 182.59 323.24 182.06C322.96 180.57 322.75 179.46 322.28 178.27C322.19 178.04 321.94 177.93 321.71 178.02C321.48 178.11 321.37 178.37 321.46 178.6C321.91 179.74 322.1 180.8 322.37 182.22C322.46 182.74 322.65 183.98 322.71 184.5C322.74 184.74 322.96 184.92 323.2 184.89C323.45 184.86 323.62 184.64 323.59 184.4Z" fill="#000000" fill-opacity="1.000000" fill-rule="evenodd"/>
		<path id="Vector" d="M320.77 184.92C320.74 184.07 320.39 182.49 320.36 182.35C319.98 180.32 319.76 179.73 319.28 178.57C319.18 178.35 318.92 178.24 318.7 178.33C318.47 178.43 318.37 178.69 318.46 178.91C318.92 180.02 319.13 180.58 319.49 182.51C319.51 182.65 319.85 184.15 319.89 184.95C319.9 185.2 320.1 185.39 320.35 185.38C320.59 185.37 320.78 185.16 320.77 184.92Z" fill="#000000" fill-opacity="1.000000" fill-rule="evenodd"/>
		<path id="Vector" d="M18.82 109.67C18.85 109.59 18.59 118.98 18.98 120.85C19.59 123.82 21.56 126.06 23.45 128.32C26.02 131.39 28.95 134.57 32.73 136.88C35.8 138.75 38.47 138.99 38.97 138.84C39.21 138.76 38.83 132.42 38.62 132.23C38.48 132.09 34.61 131.9 31.32 127.91C26.52 122.1 20.7 116.85 18.82 109.67Z" fill="#CBCBCB" fill-opacity="1.000000" fill-rule="evenodd"/>
		<path id="Vector" d="M98.41 86.08C98.57 87.23 98.46 91.55 98.45 91.99C98.36 94.85 98.42 96.15 96.63 98.41C92.99 103.01 77.96 112.71 75.44 114.86C70.37 119.18 64.97 123.13 59.49 126.91C58.04 127.91 48.63 135.7 43.43 138.06C41.51 138.93 38.82 138.97 38.82 138.88C38.78 138.25 38.4 132.79 38.75 132.06C39.34 130.86 76.24 106.24 86.19 98.55C90 95.6 95.68 89.36 98.41 86.08Z" fill="#272727" fill-opacity="1.000000" fill-rule="evenodd"/>
		<path id="Vector" d="M70.52 66.6C69.53 67.27 52.01 79.79 49.86 81.27C41.89 86.74 34.11 92.51 26.86 98.91C23.93 101.5 18.95 104.93 18.77 109.18C18.55 114.18 23.1 119.13 26.05 122.85C28.03 125.35 31.45 130.09 34.37 131.62C40.27 134.71 45.47 129.67 50.28 126.3C62.76 117.52 75.02 108.47 87.23 99.27C88.96 97.97 91.96 95.81 94.42 93.47C96.47 91.51 98.13 89.42 98.35 87.59C98.63 85.27 98.14 84.07 97.2 82.15C95.04 77.77 90.46 73.2 86.88 68.42C85.33 66.37 82.46 63.58 79.75 63.12C77.08 62.66 75.72 63.14 70.52 66.6Z" fill="#FFFFFF" fill-opacity="1.000000" fill-rule="evenodd"/>
		<path id="Vector" d="M77.06 78.39C74.89 78.43 73.09 76.63 73.05 74.36C73 72.1 74.72 70.23 76.9 70.18C79.07 70.14 80.87 71.94 80.91 74.2C80.96 76.47 79.23 78.34 77.06 78.39Z" fill="#FD9680" fill-opacity="1.000000" fill-rule="evenodd"/>
		<path id="Vector" d="M65.06 86.08C62.89 86.12 61.09 84.32 61.04 82.06C61 79.79 62.72 77.92 64.89 77.87C67.06 77.83 68.86 79.63 68.91 81.89C68.96 84.16 67.23 86.03 65.06 86.08Z" fill="#EF5D3F" fill-opacity="1.000000" fill-rule="evenodd"/>
		<path id="Vector" d="M53.23 94.62C51.06 94.67 49.26 92.87 49.21 90.6C49.17 88.34 50.89 86.46 53.06 86.42C55.23 86.37 57.03 88.18 57.08 90.44C57.13 92.7 55.4 94.58 53.23 94.62Z" fill="#FCA442" fill-opacity="1.000000" fill-rule="evenodd"/>
		<path id="Vector" d="M41.82 103.11C39.65 103.15 37.85 101.35 37.81 99.08C37.76 96.82 39.49 94.94 41.66 94.9C43.83 94.86 45.63 96.66 45.67 98.92C45.72 101.19 44 103.06 41.82 103.11Z" fill="#D47C1D" fill-opacity="1.000000" fill-rule="evenodd"/>
		<path id="Vector" d="M31.27 112.03C29.1 112.08 27.3 110.28 27.25 108.01C27.21 105.75 28.93 103.87 31.1 103.83C33.27 103.78 35.07 105.59 35.12 107.85C35.17 110.12 33.44 111.99 31.27 112.03Z" fill="#DDAC8F" fill-opacity="1.000000" fill-rule="evenodd"/>
		<path id="Vector" d="M41.42 117.64C43.6 117.59 45.41 119.38 45.47 121.64C45.53 123.9 43.82 125.79 41.65 125.85C39.48 125.91 37.67 124.12 37.6 121.85C37.54 119.59 39.25 117.7 41.42 117.64Z" fill="#C6F432" fill-opacity="1.000000" fill-rule="evenodd"/>
		<path id="Vector" d="M53.37 109.87C55.55 109.81 57.36 111.6 57.42 113.87C57.48 116.13 55.77 118.02 53.6 118.08C51.43 118.14 49.62 116.35 49.55 114.08C49.49 111.82 51.2 109.93 53.37 109.87Z" fill="#439184" fill-opacity="1.000000" fill-rule="evenodd"/>
		<path id="Vector" d="M65.15 101.24C67.32 101.18 69.13 102.97 69.19 105.24C69.25 107.5 67.54 109.39 65.37 109.45C63.2 109.51 61.39 107.72 61.33 105.45C61.26 103.19 62.98 101.3 65.15 101.24Z" fill="#83BEB6" fill-opacity="1.000000" fill-rule="evenodd"/>
		<path id="Vector" d="M76.49 92.68C78.66 92.62 80.48 94.41 80.54 96.68C80.6 98.94 78.89 100.83 76.72 100.89C74.55 100.95 72.73 99.16 72.67 96.89C72.61 94.63 74.32 92.74 76.49 92.68Z" fill="#FF6699" fill-opacity="1.000000" fill-rule="evenodd"/>
		<path id="Vector" d="M86.61 84.42C88.78 84.36 90.59 86.15 90.65 88.42C90.71 90.68 89 92.57 86.83 92.63C84.66 92.69 82.85 90.9 82.79 88.63C82.72 86.37 84.44 84.48 86.61 84.42Z" fill="#00679D" fill-opacity="1.000000" fill-rule="evenodd"/>
	</g>
</svg>
