<svg width="350.000000" height="254.000000" viewBox="0 0 350 254" fill="none" xmlns="http://www.w3.org/2000/svg" xmlns:xlink="http://www.w3.org/1999/xlink">
	<desc>
			Created with Pixso.
	</desc>
	<defs>
		<linearGradient x1="174.999985" y1="0.000000" x2="174.999985" y2="254.000000" id="paint_linear_580_1801_0" gradientUnits="userSpaceOnUse">
			<stop stop-color="#97CAFF"/>
			<stop offset="1.000000" stop-color="#D9EDFF"/>
		</linearGradient>
		<linearGradient x1="174.999985" y1="0.000000" x2="174.999985" y2="254.000000" id="paint_linear_580_1803_0" gradientUnits="userSpaceOnUse">
			<stop stop-color="#9DCDFF"/>
			<stop offset="1.000000" stop-color="#DAEDFF"/>
		</linearGradient>
		<linearGradient x1="464.283569" y1="97.430664" x2="-77.716415" y2="233.430725" id="paint_linear_580_1804_0" gradientUnits="userSpaceOnUse">
			<stop offset="0.204000" stop-color="#FF6699"/>
			<stop offset="0.771869" stop-color="#5EA1FF"/>
		</linearGradient>
	</defs>
	<rect id="Rectangle 152" width="350.000000" height="254.000000" fill="url(#paint_linear_580_1801_0)" fill-opacity="1.000000"/>
	<mask id="mask580_1803" mask-type="alpha" maskUnits="userSpaceOnUse" x="0.000000" y="0.000000" width="350.000000" height="254.000000">
		<rect id="Rectangle 153" width="350.000000" height="254.000000" fill="url(#paint_linear_580_1803_0)" fill-opacity="1.000000"/>
	</mask>
	<g mask="url(#mask580_1803)">
		<path id="Vector 2709" d="M408.21 278.19C392.22 234.92 345.02 136.18 284.16 87.42C208.07 26.47 197.94 62.68 229.09 144.11C260.24 225.54 228.99 298.18 174.24 229.89C119.5 161.59 44.51 113.64 56.2 176.84C67.89 240.03 -35.17 263.14 -77.45 227.42" stroke="url(#paint_linear_580_1804_0)" stroke-opacity="0.800000" stroke-width="75.607666" stroke-linecap="round"/>
	</g>
	<g mask="url(#mask580_1803)">
		<path id="Vector" d="M286.79 45.14C286.98 44.61 286.95 44.05 286.71 43.54C286.07 42.15 284.78 39.41 284.67 39.33C284.42 38.86 283.94 38.48 283.22 38.48C205.73 38.93 74.06 37.97 72.18 40.74C71.28 42.06 71.19 43.64 70.97 45.15C70.88 45.79 70.98 46.43 71.25 47.02C72.03 48.7 73.66 52.26 74.51 54.42C77.37 61.76 85.58 80.67 85.93 80.96C89.65 84.02 94.77 84.91 99.49 85.81C105.04 86.87 110.69 87.48 116.35 87.73C128.58 88.28 140.82 87.19 152.95 85.84C165.03 84.5 177.09 82.87 189.24 82.14C201.96 81.37 214.71 81.37 227.46 81.27C241.87 81.15 256.27 81.04 270.68 80.93C271.8 80.92 272.35 80.08 272.33 79.27C277.52 70.79 284.84 50.64 286.79 45.14Z" fill="#C6F432" fill-opacity="1.000000" fill-rule="nonzero"/>
		<path id="Vector" d="M75.48 45.68C101.9 45.28 128.32 44.96 154.74 44.7C181.16 44.45 207.59 44.26 234.01 44.16C248.89 44.1 263.77 44.06 278.65 44.04C279.14 44.04 279.15 43.27 278.65 43.27C252.22 43.3 225.8 43.4 199.38 43.57C172.95 43.74 146.53 43.99 120.11 44.31C105.23 44.48 90.35 44.69 75.48 44.91C74.98 44.92 74.98 45.69 75.48 45.68Z" fill="#2D0E0B" fill-opacity="1.000000" fill-rule="nonzero"/>
		<path id="Vector" d="M294.7 90.84C294.57 81.67 295.24 72.35 293.29 63.32C292.4 59.2 291.01 54.75 287.83 51.79C283.82 48.07 277.91 49 272.93 49.02C266.53 49.04 260.11 48.49 253.7 48.33C238.7 47.97 223.68 48.21 208.69 48.74C179.3 49.78 149.97 51.93 120.58 52.87C109.6 53.23 97.76 53.49 86.46 53.2C76.72 52.96 67.02 51.09 62.5 63.56C58.99 73.25 60.55 85.38 60.61 95.61C60.75 120.17 60.89 144.72 61.02 169.27C61.29 217.76 61.56 266.25 61.83 314.74C61.91 327.83 61.18 341.3 62.17 354.34C63.79 375.85 95.52 367.51 107.38 367.41C164.54 366.95 222.08 374.2 279.11 367.37C292.23 365.78 294.62 351.76 294.09 338.96C293.27 319.37 292.43 299.83 292.31 280.21C292.06 239.75 293.48 199.32 294.29 158.87C294.75 136.2 295.02 113.52 294.7 90.84Z" fill="#FAEEDB" fill-opacity="1.000000" fill-rule="nonzero"/>
		<path id="Vector" d="M287.9 159.92C288.12 178.16 287.76 196.4 286.82 214.62C286.79 215.11 287.56 215.11 287.59 214.62C288.53 196.4 288.89 178.16 288.67 159.92C288.67 159.43 287.9 159.43 287.9 159.92Z" fill="#2D0E0B" fill-opacity="1.000000" fill-rule="nonzero"/>
		<path id="Vector" d="M73.37 237.31C81.6 241.38 89.45 246.14 96.88 251.54C97.28 251.83 97.66 251.16 97.27 250.87C89.84 245.47 81.99 240.72 73.76 236.64C73.32 236.42 72.93 237.09 73.37 237.31Z" fill="#2D0E0B" fill-opacity="1.000000" fill-rule="nonzero"/>
		<path id="Vector" d="M88.49 270.89C81.6 272.22 74.9 274.26 68.43 276.98C67.98 277.17 68.18 277.91 68.64 277.72C75.11 275 81.81 272.97 88.7 271.63C89.18 271.53 88.98 270.79 88.49 270.89Z" fill="#2D0E0B" fill-opacity="1.000000" fill-rule="nonzero"/>
		<path id="Vector" d="M206.89 36.9C205.98 33.78 203.26 33.51 200.71 33.44C198.68 33.39 196.66 33.49 194.65 33.72C187.4 33.09 179.78 33.91 172.7 34.37C156.42 35.43 140.67 32.71 124.46 31.99C109.99 31.34 95.62 32.05 81.2 33.3C77.26 33.64 70.32 30.53 67.97 35.56C67.07 37.48 67.06 39.74 67.14 41.85C67.25 44.71 67.03 47.26 66.73 50.11C66.08 56.22 62.62 94.07 67.79 112.98C68.54 115.74 69.09 119.09 71.71 120.38C74.08 121.55 76.8 120.65 79.1 119.67C91.54 121.02 104.03 120.47 116.38 118.17C123.28 116.88 130.13 115.42 137.16 115.59C144.25 115.76 151.25 117.19 158.2 118.68C166.28 120.4 177.03 123.97 185.77 121.55C192.46 122.78 203.64 123.93 203.87 115.64C204.16 105.38 202.32 95.2 203.4 84.93C204.26 76.74 204.21 68.49 204.41 60.27C204.51 56.31 204.2 51.82 205.03 47.93C205.83 44.24 208.05 40.85 206.89 36.9Z" fill="#FF6699" fill-opacity="1.000000" fill-rule="nonzero"/>
		<path id="Vector" d="M142.88 63.58C139.27 60.18 134.64 58.44 129.95 57.1C124.45 55.54 118.84 53.95 113.09 53.87C112.6 53.87 112.6 54.64 113.09 54.64C118.58 54.72 123.9 56.21 129.14 57.68C133.92 59.01 138.66 60.67 142.33 64.13C142.69 64.47 143.24 63.92 142.88 63.58Z" fill="#2D0E0B" fill-opacity="1.000000" fill-rule="nonzero"/>
		<path id="Vector" d="M139.45 39.81C142.05 41.59 146.08 40.6 148.97 40.22C153.24 39.65 157.44 38.71 161.55 37.43C162.03 37.28 161.82 36.54 161.35 36.68C157.92 37.75 154.44 38.6 150.9 39.16C149.04 39.46 147.18 39.68 145.31 39.83C143.45 39.98 141.46 40.25 139.83 39.14C139.42 38.86 139.04 39.53 139.45 39.81Z" fill="#2D0E0B" fill-opacity="1.000000" fill-rule="nonzero"/>
		<path id="Vector" d="M288.59 82.84C280.22 80.35 270.64 80.37 261.96 79.38C252.21 78.27 242.45 76.8 233.13 73.84C226.74 71.8 219.3 68.01 212.32 69.43C202.89 71.35 204.34 86.3 202.65 92.88C200.19 102.42 196.46 111.63 193.68 121.09C191.48 128.58 186.27 140.7 192.33 147.63C194.95 150.62 199.12 152.07 203.19 152.87C212.88 154.79 222.71 156.32 232.25 158.87C243.13 161.77 252.78 167.03 264.01 169.1C270.24 170.25 274.75 171.2 278.32 165.81C284.11 157.06 285.08 145.21 286.78 135.29C287.8 129.28 288.65 123.06 290.51 117.24C292.57 110.81 294.55 102.47 297.03 96.16C299.84 89 296.08 85.06 288.59 82.84Z" fill="#C6F432" fill-opacity="1.000000" fill-rule="nonzero"/>
		<path id="Vector" d="M258.13 81.85C264.43 85.02 271.2 86.91 278.23 87.46C278.72 87.5 278.72 86.73 278.23 86.69C271.34 86.15 264.69 84.3 258.52 81.18C258.08 80.96 257.69 81.63 258.13 81.85Z" fill="#2D0E0B" fill-opacity="1.000000" fill-rule="nonzero"/>
		<path id="Vector" d="M288.02 122.1C285.58 128.21 283.15 134.32 280.71 140.42C280.52 140.88 281.27 141.08 281.45 140.63C283.89 134.52 286.32 128.42 288.76 122.31C288.95 121.85 288.2 121.65 288.02 122.1Z" fill="#2D0E0B" fill-opacity="1.000000" fill-rule="nonzero"/>
		<path id="Vector" d="M209.21 133.41C217 127.89 225.86 124.14 235.25 122.39C235.74 122.3 235.53 121.56 235.05 121.65C225.59 123.41 216.67 127.19 208.82 132.75C208.42 133.03 208.81 133.7 209.21 133.41Z" fill="#2D0E0B" fill-opacity="1.000000" fill-rule="nonzero"/>
		<path id="Vector" d="M220.25 138.36C229.07 137.1 238.01 137.1 246.84 138.36C247.32 138.43 247.53 137.68 247.04 137.61C238.07 136.34 229.02 136.34 220.04 137.62C219.55 137.69 219.76 138.43 220.25 138.36Z" fill="#2D0E0B" fill-opacity="1.000000" fill-rule="nonzero"/>
		<path id="Vector" d="M96.29 105.84C96.12 102.61 94.71 99.97 92.71 97.51C91.67 96.23 90.54 94.93 89.2 93.95C87.94 93.02 86.62 92.74 85.19 92.14C85.04 92.07 84.89 92.05 84.76 92.06C84.43 91.89 84.02 91.93 83.71 92.32C81.41 95.21 75.85 100.69 77.55 104.87C77.27 105.49 77.06 106.13 76.94 106.77C76.75 107.8 76.98 108.61 77.48 109.07C77.12 109.87 76.91 110.71 76.93 111.59C76.93 112.31 77.58 112.73 78.23 112.6C80.34 112.19 82.04 110.96 83.91 109.96C83.98 109.92 84.06 109.89 84.13 109.85C84.22 110.02 84.35 110.18 84.53 110.31C85.71 111.23 87.72 110.05 88.93 109.64C91.08 108.9 93.22 108.13 95.34 107.32C95.7 107.18 95.91 106.91 95.99 106.61C96.18 106.44 96.3 106.18 96.29 105.84Z" fill="#FCC49A" fill-opacity="1.000000" fill-rule="nonzero"/>
		<path id="Vector" d="M182.81 131.05C179.15 119.81 174.37 108.81 168.07 98.79C162.54 90 155.17 81.88 145.27 78.09C134.42 73.93 122.23 76.48 111.22 78.7C101.29 80.71 91.57 83.79 83.67 90.31C83.2 90.43 82.77 90.79 82.7 91.39C81.94 97.9 84.6 104.25 89.78 108.26C90.73 108.99 90.11 109.81 91.96 109.91C100.13 110.35 108.52 107.14 116.66 106.3C118.94 106.06 121.27 105.75 123.56 106.03C126.38 106.39 128.43 107.79 130.67 109.4C134.22 111.95 137.78 114.47 141.82 116.2C149.55 119.52 158.55 119.49 165.73 124.16C170.88 127.52 173.32 137.03 180.98 133.9C181.61 133.64 181.82 133.03 181.74 132.49C182.43 132.45 183.08 131.89 182.81 131.05Z" fill="#FFFFFF" fill-opacity="1.000000" fill-rule="nonzero"/>
		<path id="Vector" d="M203.18 118.79C200.9 116.66 198.07 115.05 195.27 113.96C192.4 112.85 189.61 111.68 188.43 108.56C187.55 106.21 187.62 103.67 187.72 101.2C188.02 93.66 187.24 86.83 181.61 81.23C176.9 76.54 170.41 74.68 163.96 75.38C163.28 75.45 162.59 75.38 161.93 75.18C158.25 74.07 154.13 73.18 150.27 73.17C147.95 73.17 145.6 73.57 143.48 74.53C141.01 75.65 139.83 77.52 138.06 79.46C135.33 82.44 131.01 82.48 127.79 84.82C118.32 91.7 122.06 106.82 131.64 111.85C132.24 112.17 132.69 112.69 133.05 113.26C133.25 113.58 133.58 113.81 134.05 113.85C137.53 114.15 142.08 113.74 145.41 114.82C150.44 116.44 148.32 122.63 148.47 126.53C148.67 131.8 151.21 134.37 155 137.67C156.51 138.99 157.37 140.16 158 141.54C160.67 147.42 167.67 149.92 173.29 146.76C173.39 146.7 173.49 146.65 173.58 146.59C174.03 146.33 174.51 146.18 175.02 146.1C179.54 145.44 183.21 142.48 187.5 141.17C189.69 140.49 190.15 141.97 192.37 142.66C196.58 143.97 202.1 143.49 204.96 139.74C207.81 136.01 208.87 130.73 207.74 126.18C207.03 123.28 205.35 120.81 203.18 118.79Z" fill="#693424" fill-opacity="1.000000" fill-rule="nonzero"/>
		<path id="Vector" d="M197.18 160.17C189.07 134.52 175.95 112.47 173.5 108.36C173.5 108.36 164.37 112.02 164.03 112.33C163.68 112.42 163.35 112.64 163.11 113.05C161.02 116.64 161.25 120.63 160.71 124.64C160.04 129.64 158.65 134.5 157.24 139.33C155.92 143.8 154.53 148.27 153.6 152.83C152.87 156.37 152.32 159.99 154.64 163.04C154.92 163.4 155.27 163.59 155.64 163.66C155.78 164.09 156.1 164.46 156.64 164.65C162.62 166.7 169.51 165 175.66 164.52C182.79 163.96 199.12 160.2 197.18 160.17Z" fill="#FFFFFF" fill-opacity="1.000000" fill-rule="nonzero"/>
		<path id="Vector" d="M305.49 343.68C305.21 346.2 303.57 347.93 300.99 348.17C299.11 348.34 297.55 347.6 296.2 346.5C296.01 346.6 295.79 346.66 295.53 346.67C292.53 346.8 292.4 343.38 289.48 342.95C286.7 342.54 283.15 344.73 280.68 345.66C274.33 348.06 267.88 350.16 261.34 351.96C248.36 355.52 235.04 357.87 221.62 359C206.78 360.25 191.24 359.14 176.09 360.03C165.75 361.73 155 363.38 145.44 367.87C136.83 371.91 129.53 378.1 121.51 383.11C114.71 387.36 106.43 391.25 98.2 390.69C91.67 390.25 82.97 372.03 81.93 359.42C81.87 358.8 81.84 358.19 81.82 357.6C81.81 356.82 81.82 356.06 81.88 355.33C82.48 347.48 84.24 334.82 86.08 323.45C86.16 322.91 86.25 322.37 86.33 321.84C87.33 315.7 88.34 310.02 89.17 305.81C91.65 293.25 94.17 280.68 95.92 268C96.48 263.98 97.05 259.89 97.46 255.76C97.51 255.25 97.56 254.73 97.6 254.21C97.85 251.53 98.03 248.86 98.08 246.18C93.57 237.6 87.73 229.76 81.41 222.38C81.4 222.37 81.39 222.36 81.38 222.34C81.03 221.94 80.68 221.53 80.32 221.1C75.76 215.71 70.28 208.79 64.96 202.38C64.59 201.92 64.22 201.48 63.85 201.04C60.5 197.04 57.24 193.3 54.33 190.34C53.97 189.96 53.6 189.6 53.24 189.25C50.62 186.66 48.33 184.82 46.6 184.12C41 181.88 47 173.85 48.97 168.63C49.87 166.22 50.82 163.82 51.65 161.38C52.65 158.43 54.59 155.88 57.23 154.22C61.03 151.84 65.18 149.94 68.95 148.25C80.12 143.24 91.85 139.68 103.9 137.56C104.63 137.43 105.2 137.76 105.54 138.23C114.29 140.22 118.57 149.57 127.1 152.36C136.36 155.38 146.34 150.14 155.89 151.31C155.98 150.96 156.17 150.63 156.53 150.38C165.19 144.22 177.88 141.64 188 140.61C197.56 139.63 204.61 140.23 214.21 142.87C215.48 143.22 216.73 143.63 217.96 144.07C218.66 144.34 219.36 144.62 220.05 144.91C230.31 149.28 238.79 157.18 245.44 166.22C245.77 166.65 246.07 167.08 246.38 167.51C249.02 171.25 251.37 175.15 253.4 179.06C255.78 183.66 256.83 188.82 257.88 193.86C257.98 194.38 258.09 194.89 258.2 195.4C258.22 195.46 258.22 195.51 258.24 195.57C259.69 202.41 261 209.27 262.22 216.15C263.28 222.1 264.26 228.06 265.2 234.02C265.28 234.54 265.36 235.05 265.44 235.56C266.28 240.96 267.09 246.36 267.88 251.76C268.3 254.71 274.28 256.12 276.41 257.46C277.71 258.27 278.97 259.18 280.22 260.13C280.82 260.59 281.43 261.06 282.03 261.54C283.6 262.79 285.16 264.06 286.7 265.24C293.18 270.21 300.11 276.04 302.19 284.31C304.16 292.12 304.21 300.61 304.2 308.98L304.2 310.61C304.2 314.49 304.21 318.32 304.42 322.03C304.53 323.9 304.71 325.8 304.9 327.72C305.44 333.05 306.07 338.47 305.49 343.68Z" fill="#FF6699" fill-opacity="1.000000" fill-rule="nonzero"/>
		<path id="Vector" d="M220.05 144.91C208.64 149.3 196.63 151.98 184.41 152.75C170.77 153.63 157.14 152.45 143.54 154.22C129.98 155.99 116.51 158.66 103.04 160.97C99.57 161.56 96.09 162.15 92.62 162.75C89.7 163.25 86.75 163.75 83.98 164.82C78.07 167.1 75.06 172.33 70.98 176.8C66.84 181.34 61.81 184.95 56.85 188.52C56.01 189.13 55.17 189.73 54.33 190.33C53.97 189.96 53.6 189.59 53.24 189.25C54.93 188.03 56.62 186.81 58.3 185.58C64.07 181.37 69.05 176.87 73.54 171.31C77.16 166.85 81.05 163.79 86.7 162.36C93.13 160.74 99.83 159.97 106.36 158.85C119.45 156.61 132.55 153.95 145.74 152.41C159.31 150.82 172.95 152.18 186.54 151.06C197.27 150.18 207.86 147.8 217.96 144.07C218.66 144.34 219.36 144.62 220.05 144.91Z" fill="#FFFFFF" fill-opacity="1.000000" fill-rule="nonzero"/>
		<path id="Vector" d="M258.2 195.4C257.35 195.42 256.5 195.44 255.65 195.47C246.93 195.75 238.14 196.39 229.42 196.26C226.74 196.22 223.91 195.87 221.67 194.28C219.11 192.48 217.76 189.64 214.94 188.06C209.13 184.81 201.58 185.24 195.17 185.81C180.16 187.15 166.02 192.64 152.32 198.63C146.02 201.38 139.57 204.11 132.68 204.89C128.95 205.31 125.27 204.81 121.53 204.84C117.62 204.87 114.15 206.07 110.77 207.96C104.59 211.41 98.84 215.36 92.35 218.25C88.77 219.83 85.12 221.21 81.41 222.38C81.4 222.37 81.39 222.36 81.38 222.35C81.03 221.94 80.68 221.53 80.32 221.1C85.58 219.5 90.71 217.45 95.64 215C99.22 213.2 102.65 211.17 106.03 209.03C109.04 207.13 112.11 205.21 115.53 204.16C119.06 203.08 122.65 203.29 126.28 203.48C130 203.66 133.62 203.39 137.25 202.52C144.45 200.78 151.11 197.4 157.91 194.54C171.32 188.91 185.49 184.36 200.15 183.98C205.89 183.84 212.32 184.16 217.16 187.65C219.77 189.54 221.2 192.79 224.32 193.95C227.62 195.18 231.47 194.7 234.91 194.59C242.57 194.35 250.22 194.1 257.88 193.86C257.99 194.38 258.09 194.89 258.2 195.4Z" fill="#FFFFFF" fill-opacity="1.000000" fill-rule="nonzero"/>
		<path id="Vector" d="M246.38 167.51C240.83 169.66 234.95 170.91 228.97 171.17C220.96 171.52 213.35 169.92 205.86 167.15C201.96 165.72 198.07 164.31 193.91 163.88C190.05 163.48 186.17 163.75 182.33 164.08C175.1 164.68 167.84 165.44 160.78 167.12C153.85 168.77 147.1 171.33 141.26 175.47C135.99 179.21 131.34 184.4 124.63 185.35C120.89 185.89 117.13 185.19 113.39 185.57C109.44 185.96 105.6 187.54 102.51 190.04C99.81 192.22 97.66 195.04 94.64 196.83C91.82 198.51 88.6 199.28 85.39 199.73C82.02 200.2 78.61 200.32 75.22 200.7C71.78 201.08 68.35 201.65 64.96 202.38C64.59 201.92 64.22 201.48 63.85 201.04C64.09 200.98 64.32 200.94 64.56 200.88C68.66 200.01 72.8 199.37 76.98 198.97C80.88 198.61 84.84 198.51 88.65 197.56C92.65 196.57 95.58 194.49 98.5 191.65C100.92 189.3 103.38 187.2 106.5 185.82C109.71 184.41 113.08 183.88 116.57 183.92C120.39 183.95 124.23 184.37 127.87 182.91C131.18 181.59 133.97 179.25 136.71 177.04C139.28 174.98 141.9 173.04 144.78 171.45C150.79 168.13 157.43 166.13 164.14 164.83C171.08 163.49 178.18 162.77 185.22 162.31C189.02 162.06 192.85 162.03 196.62 162.71C200.4 163.4 203.98 164.84 207.58 166.15C219.91 170.63 233.27 170.81 245.44 166.22C245.77 166.65 246.07 167.08 246.38 167.51Z" fill="#FFFFFF" fill-opacity="1.000000" fill-rule="nonzero"/>
		<path id="Vector" d="M282.03 261.54C273.86 262.1 265.77 263.74 257.99 266.41C250.01 269.16 242.41 273.01 235.5 277.85C228.56 282.72 222.25 288.62 213.5 289.79C204.61 290.98 195.68 288.15 186.79 289.58C179.05 290.81 172.13 294.69 165.66 298.93C159.09 303.24 152.83 308.06 145.89 311.78C138.66 315.66 130.77 317.85 122.69 319.14C110.6 321.05 98.11 321.18 86.08 323.44C86.16 322.9 86.25 322.37 86.33 321.83C100.29 319.31 114.81 319.56 128.69 316.43C137.01 314.56 144.53 311.16 151.67 306.55C158.25 302.3 164.47 297.47 171.33 293.66C178.19 289.85 185.51 287.48 193.41 287.63C202.87 287.81 212.48 290.29 221.35 285.74C225.15 283.79 228.5 281.13 231.91 278.58C235.25 276.07 238.72 273.76 242.36 271.73C249.48 267.74 257.14 264.71 265.04 262.71C270.03 261.44 275.11 260.57 280.23 260.13C280.83 260.59 281.43 261.06 282.03 261.54Z" fill="#FFFFFF" fill-opacity="1.000000" fill-rule="nonzero"/>
		<path id="Vector" d="M265.44 235.56C264.01 235.52 262.57 235.36 261.15 235.09C259.37 234.76 257.64 234.23 255.97 233.54C254.2 232.8 252.55 231.73 250.75 231.06C246.45 229.48 241.76 231.89 237.51 232.69C223.54 235.33 208.81 232.88 195.15 237.37C187.8 239.78 181.85 244.6 175.8 249.27C173.35 251.16 170.74 253.47 167.58 254.01C165.03 254.44 162.64 253.48 160.48 252.23C157.85 250.72 155.25 248.57 152.11 248.3C148.85 248.03 145.9 249.82 143.23 251.47C140.53 253.13 137.87 254.86 134.77 255.65C131.32 256.54 127.73 256.45 124.21 256.18C116.55 255.58 108.99 255.02 101.29 255.47C100.01 255.55 98.74 255.65 97.46 255.76C97.51 255.25 97.56 254.73 97.6 254.21C99.31 254.06 101.03 253.94 102.75 253.86C107.11 253.65 111.49 253.68 115.85 253.94C119.99 254.18 124.13 254.81 128.28 254.83C132.08 254.84 135.63 254.13 138.96 252.26C141.66 250.75 144.16 248.84 147.05 247.67C149.49 246.69 152.1 246.42 154.62 247.28C157.28 248.2 159.49 249.98 161.94 251.29C165.43 253.15 168.45 252.66 171.66 250.45C174.63 248.4 177.39 246.06 180.28 243.89C186.02 239.58 192.07 236.26 199.11 234.68C212.97 231.58 227.49 233.98 241.25 230.25C244.57 229.35 247.79 228.34 251.16 229.58C254.42 230.76 257.24 232.65 260.67 233.43C262.17 233.77 263.69 233.96 265.2 234.02C265.28 234.54 265.37 235.05 265.44 235.56Z" fill="#FFFFFF" fill-opacity="1.000000" fill-rule="nonzero"/>
		<path id="Vector" d="M304.2 308.98L304.2 310.61C303.93 310.5 303.67 310.41 303.39 310.33C301.77 309.83 300.13 309.95 298.48 309.67C295.16 309.1 291.93 306.93 288.49 307.04C286.49 307.1 284.34 308.38 282.5 309.13C280.32 310.01 278.15 310.91 275.98 311.81C271.67 313.6 267.37 315.42 263.05 317.19C255.54 320.26 247.95 323.19 240.19 325.57C231.98 328.08 223.61 329.66 215.18 331.2C197.57 334.39 179.92 337.31 162.23 339.97C153.2 341.33 144.16 342.62 135.1 343.85C126.53 345 117.86 345.81 109.35 347.44C101.12 349 93.52 351.94 86.42 356.4C84.9 357.36 83.4 358.37 81.92 359.42C81.87 358.8 81.84 358.19 81.82 357.6C83.88 356.16 86 354.8 88.18 353.54C96.42 348.78 105.31 346.37 114.67 345C132.88 342.34 151.15 340.16 169.35 337.34C187.88 334.47 206.41 331.41 224.82 327.85C241.57 324.62 257.31 317.95 272.98 311.41C277.1 309.68 281.23 307.97 285.38 306.32C288.28 305.17 290.6 305.6 293.53 306.56C295.08 307.07 296.62 307.68 298.22 308.04C299.7 308.37 301.21 308.26 302.69 308.56C303.21 308.67 303.71 308.81 304.2 308.98Z" fill="#FFFFFF" fill-opacity="1.000000" fill-rule="nonzero"/>
		<path id="Vector" d="M95.97 191.31C100.69 198.23 105.8 205.94 105.1 214.71C104.74 219.26 103.27 223.75 102.16 228.15C101.01 232.72 99.86 237.29 98.7 241.87C98.58 242.35 99.33 242.55 99.45 242.07C100.66 237.26 101.87 232.44 103.08 227.63C104.21 223.17 105.7 218.62 105.92 214C106.32 205.36 101.29 197.75 96.63 190.92C96.36 190.51 95.69 190.89 95.97 191.31Z" fill="#2D0E0B" fill-opacity="1.000000" fill-rule="nonzero"/>
		<path id="Vector" d="M251.22 234.37C253.94 237.97 255.29 242.4 258.08 245.96C261.03 249.7 265.55 252.36 269.74 254.47C270.19 254.69 270.57 254.03 270.13 253.81C265.92 251.68 261.36 249.02 258.48 245.2C255.85 241.72 254.52 237.46 251.89 233.98C251.6 233.59 250.93 233.97 251.22 234.37Z" fill="#2D0E0B" fill-opacity="1.000000" fill-rule="nonzero"/>
		<path id="Vector" d="M170.95 190.81C159.68 217.7 148.94 246.91 155.36 276.42C155.47 276.91 156.21 276.7 156.11 276.22C149.71 246.86 160.49 217.76 171.69 191.02C171.88 190.56 171.14 190.36 170.95 190.81Z" fill="#2D0E0B" fill-opacity="1.000000" fill-rule="nonzero"/>
		<path id="Vector" d="M171.11 227.53C170.06 233.97 169.01 240.4 167.95 246.84C167 252.64 165.68 258.55 165.71 264.46C165.73 269.61 167.18 274.31 170.37 278.38C174.08 283.11 178.84 287.11 183.14 291.28C188.48 296.46 193.82 301.64 199.15 306.82C199.51 307.16 200.06 306.62 199.7 306.27C194.09 300.83 188.48 295.39 182.87 289.94C180.09 287.25 177.27 284.58 174.54 281.84C172.11 279.41 169.77 276.8 168.31 273.66C165.03 266.61 166.82 258.44 168.02 251.13C169.3 243.33 170.58 235.54 171.86 227.74C171.94 227.26 171.19 227.05 171.11 227.53Z" fill="#2D0E0B" fill-opacity="1.000000" fill-rule="nonzero"/>
		<path id="Vector" d="M104.39 295.32C109.83 293.57 115.42 291.77 121.19 291.77C126.9 291.77 132.04 293.96 136.83 296.91C146.45 302.86 155.57 309.79 164.86 316.24C165.27 316.53 165.65 315.86 165.25 315.58C160.15 312.04 155.06 308.49 149.96 304.95C145.2 301.65 140.53 298.09 135.49 295.22C131.08 292.7 126.33 291 121.19 291C115.35 291 109.69 292.8 104.18 294.57C103.71 294.72 103.92 295.47 104.39 295.32Z" fill="#2D0E0B" fill-opacity="1.000000" fill-rule="nonzero"/>
		<path id="Vector" d="M141.27 364.62C129.77 367.31 118.55 371.06 107.74 375.81C107.29 376.01 107.68 376.68 108.13 376.48C118.88 371.75 130.04 368.03 141.47 365.36C141.96 365.25 141.75 364.5 141.27 364.62Z" fill="#2D0E0B" fill-opacity="1.000000" fill-rule="nonzero"/>
		<path id="Vector" d="M291.86 279.69C292.83 299.37 291.51 319.11 287.92 338.49C287.83 338.97 288.57 339.18 288.66 338.69C292.27 319.25 293.61 299.44 292.63 279.69C292.61 279.19 291.84 279.19 291.86 279.69Z" fill="#2D0E0B" fill-opacity="1.000000" fill-rule="nonzero"/>
		<path id="Vector" d="M168.44 359.6C194.03 352.83 219.2 344.57 243.83 334.87C244.29 334.69 244.09 333.95 243.62 334.13C219 343.83 193.82 352.09 168.24 358.86C167.76 358.98 167.96 359.73 168.44 359.6Z" fill="#2D0E0B" fill-opacity="1.000000" fill-rule="nonzero"/>
		<path id="Vector" d="M56.75 162.56C56.89 167.43 57.02 172.29 57.15 177.16C57.16 177.65 57.93 177.65 57.92 177.16C57.79 172.29 57.66 167.43 57.52 162.56C57.51 162.07 56.74 162.07 56.75 162.56Z" fill="#2D0E0B" fill-opacity="1.000000" fill-rule="nonzero"/>
		<path id="Vector" d="M198.94 154.11C207.65 166.25 214.49 179.6 219.25 193.76C219.4 194.23 220.15 194.03 219.99 193.56C215.21 179.34 208.35 165.91 199.61 153.72C199.32 153.33 198.65 153.71 198.94 154.11Z" fill="#2D0E0B" fill-opacity="1.000000" fill-rule="nonzero"/>
		<path id="Vector" d="M221.78 202.9C226.38 216.99 233.73 232.11 246.19 240.85C246.6 241.13 246.98 240.47 246.58 240.18C234.31 231.58 227.06 216.57 222.52 202.7C222.37 202.23 221.62 202.43 221.78 202.9Z" fill="#2D0E0B" fill-opacity="1.000000" fill-rule="nonzero"/>
		<path id="Vector" d="M127.2 141.86C129.38 145.18 131.57 148.5 133.76 151.81C134.03 152.22 134.7 151.84 134.43 151.42C132.24 148.11 130.05 144.79 127.86 141.47C127.59 141.06 126.92 141.45 127.2 141.86Z" fill="#2D0E0B" fill-opacity="1.000000" fill-rule="nonzero"/>
		<path id="Vector" d="M90.1 160C91.11 159.26 92.47 159.23 93.47 160.02C93.85 160.33 94.4 159.79 94.01 159.48C92.76 158.48 91.02 158.38 89.71 159.33C89.31 159.62 89.7 160.29 90.1 160Z" fill="#2D0E0B" fill-opacity="1.000000" fill-rule="nonzero"/>
		<path id="Vector" d="M177.84 94.09C176.78 79.06 153.75 74.38 143.5 81.82C137.36 86.28 135.15 93.57 132.99 100.52C131.18 106.34 128.59 115.27 133.66 120.28C136.29 122.89 140.49 123.56 143.94 124.3C153.51 126.33 159.97 123.35 165.36 115.17C166.62 113.26 167.43 111.07 168.71 109.18C172.15 104.1 178.33 101.07 177.84 94.09Z" fill="#FCC49A" fill-opacity="1.000000" fill-rule="nonzero"/>
		<path id="Vector" d="M154.56 78.07C153.54 76.53 150.39 77.15 149 77.52C146.47 78.22 143.75 79.19 141.63 80.78C139.38 82.46 137.39 84.58 135.36 86.52C134.24 87.59 133.12 88.67 132 89.75C130.97 90.76 129.56 91.78 128.8 93.02C128.01 94.31 128.53 95.4 129.69 96.26C132.81 98.55 137.69 97.82 140.17 94.93C142.29 92.47 142.12 89.33 143.21 86.45C144.69 82.54 148.7 80.86 152.57 80.32C152.64 80.34 152.72 80.35 152.82 80.31C152.84 80.3 152.87 80.29 152.89 80.28C153 80.27 153.12 80.25 153.23 80.24C153.42 80.22 153.54 80.09 153.6 79.95C154.36 79.53 155.11 78.89 154.56 78.07Z" fill="#693424" fill-opacity="1.000000" fill-rule="nonzero"/>
		<path id="Vector" d="M154.58 103.87C154.3 103.94 154.04 104.07 153.78 104.18C152.54 104.72 150.98 104.93 149.77 104.35C149.44 104.18 149.14 103.97 148.78 103.87C148.06 103.67 147.05 104.37 147.25 105.03C147.33 105.28 147.55 105.48 147.77 105.65C150.05 107.35 153.64 106.75 155.58 104.96C156.05 104.53 155.74 103.83 155.02 103.81C154.87 103.81 154.72 103.83 154.58 103.87Z" fill="#000000" fill-opacity="1.000000" fill-rule="nonzero"/>
		<path id="Vector" d="M137.74 101.57C137.03 101.61 136.29 101.65 135.6 101.41C134.9 101.16 134.51 100.55 133.81 100.29C133.46 100.17 133.24 100.44 133.25 100.72C133.16 100.82 133.17 100.94 133.17 101.1C133.15 102.45 134.17 103.24 135.35 103.68C136.16 103.99 137.21 103.91 137.94 103.38C138.71 102.82 139.19 101.5 137.74 101.57Z" fill="#000000" fill-opacity="1.000000" fill-rule="nonzero"/>
		<path id="Vector" d="M140.18 100.61C138.82 101.74 137.37 103.16 137.32 105.07C137.27 106.95 138.64 108.01 140.1 108.9C140.53 109.16 140.91 108.49 140.49 108.24C138.98 107.31 137.65 106.2 138.24 104.24C138.63 102.93 139.71 101.99 140.73 101.15C141.11 100.84 140.56 100.29 140.18 100.61Z" fill="#D16F4B" fill-opacity="1.000000" fill-rule="nonzero"/>
		<path id="Vector" d="M141.52 107.37C142.33 107.47 143.1 107.71 143.83 108.07C144.27 108.29 144.66 107.62 144.22 107.4C143.36 106.98 142.47 106.72 141.52 106.6C141.03 106.55 141.03 107.32 141.52 107.37Z" fill="#D16F4B" fill-opacity="1.000000" fill-rule="nonzero"/>
		<path id="Vector" d="M158.75 98.06C157.71 96.63 154.46 95.75 153.24 95.61C151.58 95.42 148.74 95.45 147.6 96.94C146.43 98.46 147.89 99.97 149.37 100.46C151.97 101.32 154.65 100.18 157.32 101.06C158.83 101.55 159.44 99.01 158.75 98.06Z" fill="#693424" fill-opacity="1.000000" fill-rule="nonzero"/>
		<path id="Vector" d="M144.64 112.02C143.26 112.26 141.84 112.56 140.44 112.36C139.03 112.17 138.02 111.19 136.69 110.78C136.46 110.71 136.2 110.93 136.13 111.16C136.05 111.4 136.18 111.66 136.32 111.87C137.21 113.22 138.58 114.42 140.26 114.47C141.88 114.52 144.13 114.03 145.1 112.63C145.33 112.3 144.96 111.96 144.64 112.02Z" fill="#BF5537" fill-opacity="1.000000" fill-rule="nonzero"/>
		<path id="Vector" d="M78.94 109.48C80.12 108.07 81.44 106.81 82.91 105.7C83.3 105.41 82.91 104.74 82.52 105.04C80.99 106.18 79.62 107.48 78.4 108.94C78.08 109.32 78.62 109.86 78.94 109.48Z" fill="#D16F4B" fill-opacity="1.000000" fill-rule="nonzero"/>
		<path id="Vector" d="M81.15 101.54C79.84 102.43 78.77 103.58 77.98 104.95C77.73 105.38 78.39 105.77 78.64 105.34C79.37 104.08 80.34 103.02 81.54 102.21C81.95 101.93 81.56 101.26 81.15 101.54Z" fill="#D16F4B" fill-opacity="1.000000" fill-rule="nonzero"/>
		<path id="Vector" d="M148.64 81.25C153.06 78.57 158.09 77.41 163.24 77.87C163.74 77.92 163.73 77.15 163.24 77.11C157.96 76.63 152.78 77.84 148.25 80.59C147.83 80.84 148.21 81.51 148.64 81.25Z" fill="#2D0E0B" fill-opacity="1.000000" fill-rule="nonzero"/>
		<path id="Vector" d="M134.63 85.86C132.34 86.87 129.08 88.38 127.77 90.68C126.52 92.85 127.67 95.38 128.81 97.32C129.06 97.75 129.73 97.36 129.48 96.94C128.1 94.61 127.19 92.02 129.44 89.92C131.02 88.45 133.07 87.39 135.02 86.53C135.47 86.33 135.08 85.66 134.63 85.86Z" fill="#451C10" fill-opacity="1.000000" fill-rule="nonzero"/>
		<path id="Vector" d="M122.68 120.93C122.67 120.83 122.64 120.73 122.62 120.64C122.97 120 122.89 119.18 122.01 118.75C115.75 115.67 110.44 108.96 102.52 111.42C102 111.58 101.68 111.89 101.53 112.26C101.13 112.5 100.83 112.89 100.81 113.44C100.72 115.21 101.16 117.25 100.65 118.96C100.18 120.53 98.84 121.9 97.83 123.18C95.62 126.01 95.98 126.4 93.86 129.29C88.44 136.7 86.63 146.44 86.58 155.25C86.57 157.32 86.71 159.51 87.94 161.25C89.53 163.5 92.6 164.47 95.5 164.69C99.56 165.01 103.57 164.77 107.63 165.28C111.65 165.78 115.65 166.13 119.03 163.64C122.49 161.1 124.59 157.1 125.66 153.2C128.61 142.45 123.64 131.61 122.68 120.93Z" fill="#8CAACF" fill-opacity="1.000000" fill-rule="nonzero"/>
		<path id="Vector" d="M141.6 140.14C141.68 138.61 140.82 137.07 140.09 135.46C139.21 133.54 138.14 131.7 137.13 129.85C135.15 126.22 133.23 122.37 133.34 118.12C133.43 114.54 134.68 111.06 133.92 107.46C133.22 104.11 131.25 101.24 129.23 98.56C128.59 97.71 127.37 98.06 127.04 98.77C122.55 101.69 124.78 106.81 125.68 111.09C127.22 118.37 121.37 125.25 124.38 132.47C125.92 136.16 129.7 142.85 133.86 144.11C136.05 144.78 138.78 144.39 140.44 142.64C141.22 141.81 141.55 140.98 141.6 140.14Z" fill="#8CAACF" fill-opacity="1.000000" fill-rule="nonzero"/>
		<path id="Vector" d="M95.08 160.04C95 159.76 94.89 159.61 94.73 159.64C94.69 159.56 94.66 159.48 94.62 159.4C94.61 159.38 94.59 159.37 94.58 159.36C94.55 159.28 94.51 159.22 94.42 159.17C89.64 156.41 85.25 165.28 83.9 168.51C82.57 171.65 81.53 175.06 81.02 178.44C80.71 180.5 80.12 184.59 81.92 186.2C83.65 187.75 87.22 187.2 89.24 186.68C91.42 186.11 93.35 185.23 93.79 182.85C94.45 179.31 94.34 175.48 94.59 171.89C94.73 169.88 94.93 167.71 95.06 165.64C95.09 165.02 95.43 161.29 95.08 160.04Z" fill="#8CAACF" fill-opacity="1.000000" fill-rule="nonzero"/>
		<path id="Vector" d="M123.12 168.51C122.06 166.05 121.51 163.19 119.8 161.07C119.02 160.11 117.26 158.56 116.18 159.48C116.14 159.49 116.1 159.49 116.07 159.52C114.02 160.79 114.24 163.56 114.13 165.68C113.93 169.37 113.85 173.07 114.31 176.74C114.56 178.77 114.96 180.98 117.08 181.78C118.54 182.34 120.45 182.34 121.99 182.46C123.22 182.56 124.96 182.94 126.15 182.47C130.44 180.78 124.1 170.79 123.12 168.51Z" fill="#8CAACF" fill-opacity="1.000000" fill-rule="nonzero"/>
		<path id="Vector" d="M101.27 117.26C100.32 117.29 99.38 117.34 98.43 117.4C91.31 117.88 84.08 119.53 77.66 122.72C75.18 123.95 73.72 125.87 73.17 128.32C72.75 130.22 72.36 133.63 73.73 135.33C75.15 137.08 77.67 136 79.31 135.15C82.99 133.25 86.12 131.39 90.19 130.1C93.14 129.16 96.64 128.23 98.85 126.14C99.94 125.11 105.91 118.83 104.3 117.53C103.88 117.19 103.29 117.19 102.75 117.21C102.26 117.22 101.76 117.24 101.27 117.26Z" fill="#8CAACF" fill-opacity="1.000000" fill-rule="nonzero"/>
		<path id="Vector" d="M123.57 121.4C127.48 116.85 131.3 110.64 131.25 104.48C131.22 99.01 126.76 95.29 121.93 93.64C116.59 91.81 110.99 92.86 107.15 97.12C102.89 101.85 102.39 108.22 103.24 114.25C102.55 114.73 115.58 122.92 122.02 122.21C122.32 122.32 122.66 122.3 122.97 122.06C123.31 121.93 123.5 121.69 123.57 121.4Z" fill="#8CAACF" fill-opacity="1.000000" fill-rule="nonzero"/>
		<path id="Vector" d="M113.16 71.1C110.65 68.47 98.71 61.21 98.57 69.15C98.52 72.47 101.58 74.93 103.74 77.11C108.5 81.92 107.26 86.59 106.66 92.58C106.48 94.43 105.85 99.54 108.38 100.48C110.77 101.37 112.87 98.05 113.9 96.48C115.2 94.52 115.58 92.2 115.99 89.95C116.4 87.76 116.86 85.61 117.02 83.38C117.33 78.9 116.38 74.49 113.16 71.1Z" fill="#8CAACF" fill-opacity="1.000000" fill-rule="nonzero"/>
		<path id="Vector" d="M114.57 92.58C111.81 93.13 109.39 94.57 107.59 96.75C107.28 97.12 107.82 97.67 108.14 97.29C109.86 95.21 112.13 93.85 114.77 93.32C115.26 93.22 115.05 92.48 114.57 92.58Z" fill="#2D0E0B" fill-opacity="1.000000" fill-rule="nonzero"/>
		<path id="Vector" d="M123.93 124.71C123.34 128.12 123.31 133.59 126.83 135.52C127.27 135.76 127.66 135.1 127.22 134.86C124.05 133.11 124.14 127.98 124.68 124.91C124.76 124.43 124.02 124.22 123.93 124.71Z" fill="#2D0E0B" fill-opacity="1.000000" fill-rule="nonzero"/>
		<path id="Vector" d="M128.91 105.77C130.72 112.39 126.09 117.95 120.6 120.96C120.17 121.2 120.56 121.86 120.99 121.62C126.79 118.45 131.55 112.51 129.66 105.56C129.52 105.09 128.78 105.29 128.91 105.77Z" fill="#2D0E0B" fill-opacity="1.000000" fill-rule="nonzero"/>
		<path id="Vector" d="M125.58 104.91C125.42 104.61 125.18 104.44 124.91 104.39C124.86 104.37 124.83 104.35 124.78 104.34C123.78 104.06 122.87 105.32 122.52 106.08C122.28 106.59 122.2 107.21 122.44 107.72C123.44 109.89 126.27 106.26 125.58 104.91Z" fill="#000000" fill-opacity="1.000000" fill-rule="nonzero"/>
		<path id="Vector" d="M115.44 99.2C115.29 98.89 115.04 98.72 114.77 98.67C114.73 98.65 114.69 98.63 114.65 98.62C113.64 98.34 112.74 99.6 112.39 100.36C112.15 100.88 112.07 101.49 112.3 102C113.3 104.18 116.13 100.54 115.44 99.2Z" fill="#000000" fill-opacity="1.000000" fill-rule="nonzero"/>
		<path id="Vector" d="M116.14 109.75C115.42 109.06 114.53 109.26 113.7 109.11C112.82 110.24 111.75 111.88 112.96 112.54C113.35 112.75 113.81 112.7 114.19 112.5C114.03 113.06 114.11 113.56 114.65 113.86C115.19 114.16 115.87 113.95 116.28 113.55C116.59 113.25 116.76 112.87 116.95 112.5C117.21 112.03 117.52 111.6 117.86 111.18C117.19 110.9 116.73 110.32 116.14 109.75Z" fill="#FFFFFF" fill-opacity="1.000000" fill-rule="nonzero"/>
		<path id="Vector" d="M119.24 107.94C119.13 107.38 118.39 106.98 117.95 106.71C117.52 106.44 115.96 105.61 115.77 106.5C115.7 106.85 115.55 109.84 116.37 109.46C117.01 109.17 117.75 109.34 118.4 109.1C118.87 108.92 119.35 108.49 119.24 107.94Z" fill="#000000" fill-opacity="1.000000" fill-rule="nonzero"/>
		<path id="Vector" d="M116.18 108.66C115.49 108.75 113.95 109.05 113.49 108.33C113.23 107.91 112.56 108.29 112.83 108.72C113.5 109.79 115.11 109.56 116.18 109.43C116.66 109.37 116.67 108.6 116.18 108.66Z" fill="#2D0E0B" fill-opacity="1.000000" fill-rule="nonzero"/>
		<path id="Vector" d="M115.77 109.51C116.29 110.65 117.37 111.37 118.6 111.5C119.09 111.56 119.09 110.79 118.6 110.73C117.63 110.63 116.84 110 116.44 109.12C116.23 108.67 115.57 109.06 115.77 109.51Z" fill="#2D0E0B" fill-opacity="1.000000" fill-rule="nonzero"/>
		<path id="Vector" d="M182.84 115.77C187.22 115.85 191.48 116.65 195.59 118.14C196.06 118.31 196.26 117.57 195.8 117.4C191.62 115.88 187.28 115.08 182.84 115C182.34 114.99 182.34 115.76 182.84 115.77Z" fill="#451C10" fill-opacity="1.000000" fill-rule="nonzero"/>
		<path id="Vector" d="M108.94 121.68C108.23 120.56 107.63 119.24 106.67 118.25C106.18 117.75 105.62 117.3 104.93 117.08C104.28 116.89 103.02 117.1 103.12 116.11C103.18 115.44 103.26 114.73 103.26 114.72C103.26 114.67 103.25 114.63 103.25 114.58C103.24 114.09 102.88 113.56 102.33 113.46C102.27 113.45 102.21 113.43 102.15 113.42C101.59 113.31 101.05 113.52 100.76 113.96C100.52 113.99 100.27 114.09 100.05 114.3C98.32 115.96 97.29 118.09 97.14 120.35C90.6 126.17 92.64 134.52 96.46 141.22C96 141.83 98.63 143.34 99.07 143.09C104.56 142.9 108.11 137.76 109.52 132.83C110.37 132.73 111.1 131.64 110.35 130.81C110.34 130.8 110.33 130.79 110.33 130.78C110.72 130.62 111.04 130.33 111.1 129.96C111.7 129.88 112.13 129.39 112.16 128.82C112.26 126.62 110.08 123.5 108.94 121.68Z" fill="#FCC49A" fill-opacity="1.000000" fill-rule="nonzero"/>
		<path id="Vector" d="M174.35 117.75C174.29 117.3 174.09 116.83 173.67 116.42C167.93 110.65 158.96 108.99 151.55 112.46C147.5 114.36 144.65 117.79 142.25 121.47C138.54 127.15 135.44 132.93 132.39 138.99C132.04 139.68 131.68 140.39 131.09 140.9C128.11 143.52 115.63 127.77 110.64 124.34C109.86 123.81 108.93 123.52 107.98 123.54C106.06 123.58 104.18 123.76 102.48 124.68C100.15 125.92 98.43 128.04 97.19 130.33C94.69 134.95 93.64 139.76 95.86 144.59C102.07 158.14 107.88 172.51 119.61 182.19C122.97 184.97 127.14 186.31 131.47 185.45C141.28 183.5 148.53 174.85 154.59 167.57C161 159.85 166.52 151.47 171.13 142.57C171.32 142.4 171.51 142.19 171.66 141.92C175.79 134.56 179.56 125.5 174.35 117.75Z" fill="#FFFFFF" fill-opacity="1.000000" fill-rule="nonzero"/>
		<path id="Vector" d="M183.54 109.71C181.09 104.1 183.09 99.16 182.22 92.96C181.49 87.77 175.47 82.18 170.47 79.07C168.15 77.63 165.4 77.02 162.73 76.61C161.67 76.45 152.1 75.18 151.32 76C147.01 80.53 146.92 86.22 149.88 89.87C150.59 90.74 151.53 91.39 152.42 92.07C153.92 93.2 155.34 94.46 156.4 96.01C159.65 100.79 155.74 103.62 156.28 108.43C157.09 115.58 166.05 119.19 171.82 121.25C176.91 123.07 176.98 130.96 180.11 135.22C183.14 139.35 188.31 140.74 193.47 140.74C194.32 140.74 185.82 114.95 183.54 109.71Z" fill="#693424" fill-opacity="1.000000" fill-rule="nonzero"/>
		<path id="Vector" d="M171.83 137.24C171.42 138.81 171.01 140.39 170.6 141.96C170.48 142.44 171.22 142.65 171.35 142.17C171.75 140.59 172.16 139.02 172.57 137.44C172.69 136.96 171.95 136.76 171.83 137.24Z" fill="#2D0E0B" fill-opacity="1.000000" fill-rule="nonzero"/>
		<path id="Vector" d="M162.62 81.12C168.84 82.21 172.03 88.1 170.82 94.01C170.29 96.61 169.31 99.16 169.24 101.83C169.17 104.25 170.12 106.52 171.3 108.59C173.81 112.97 177.71 116.41 181.89 119.15C185.47 121.5 189.78 122.69 193.15 125.34C198.14 129.25 197.91 137.53 191.75 140.22C191.29 140.42 191.68 141.08 192.14 140.88C196.36 139.04 198.43 134.03 197.12 129.66C195.8 125.25 191.58 123.25 187.72 121.44C182.42 118.96 177.42 115.58 173.8 110.91C171.74 108.27 169.83 104.98 170.02 101.53C170.2 98.25 171.66 95.2 171.9 91.93C172.32 86.38 168.27 81.34 162.82 80.38C162.34 80.29 162.13 81.04 162.62 81.12Z" fill="#451C10" fill-opacity="1.000000" fill-rule="nonzero"/>
		<path id="Vector" d="M175.51 91.96C176.95 96.19 175.38 100.33 173.78 104.26C173.59 104.72 174.33 104.92 174.52 104.46C176.18 100.4 177.74 96.12 176.25 91.76C176.09 91.29 175.35 91.49 175.51 91.96Z" fill="#451C10" fill-opacity="1.000000" fill-rule="nonzero"/>
	</g>
</svg>
