<svg width="350.000000" height="254.000000" viewBox="0 0 350 254" fill="none" xmlns="http://www.w3.org/2000/svg" xmlns:xlink="http://www.w3.org/1999/xlink">
	<desc>
			Created with Pixso.
	</desc>
	<defs>
		<linearGradient x1="174.999985" y1="0.000000" x2="174.999985" y2="254.000000" id="paint_linear_580_1937_0" gradientUnits="userSpaceOnUse">
			<stop stop-color="#97CAFF"/>
			<stop offset="1.000000" stop-color="#D9EDFF"/>
		</linearGradient>
		<linearGradient x1="174.999985" y1="0.000000" x2="174.999985" y2="254.000000" id="paint_linear_580_1939_0" gradientUnits="userSpaceOnUse">
			<stop stop-color="#9DCDFF"/>
			<stop offset="1.000000" stop-color="#DAEDFF"/>
		</linearGradient>
		<linearGradient x1="49.500076" y1="91.499969" x2="312.500000" y2="242.500092" id="paint_linear_580_1940_0" gradientUnits="userSpaceOnUse">
			<stop offset="0.204000" stop-color="#FF6699"/>
			<stop offset="0.771869" stop-color="#5EA1FF"/>
		</linearGradient>
	</defs>
	<rect id="Rectangle 152" width="350.000000" height="254.000000" fill="url(#paint_linear_580_1937_0)" fill-opacity="1.000000"/>
	<mask id="mask580_1939" mask-type="alpha" maskUnits="userSpaceOnUse" x="0.000000" y="0.000000" width="350.000000" height="254.000000">
		<rect id="Rectangle 153" width="350.000000" height="254.000000" fill="url(#paint_linear_580_1939_0)" fill-opacity="1.000000"/>
	</mask>
	<g mask="url(#mask580_1939)">
		<path id="Vector 2709" d="M258.87 421.13C274.19 377.62 300.89 271.49 285.18 195.1C265.53 99.61 234.61 121.02 206.6 203.58C178.59 286.14 108.16 322.1 109.62 234.58C111.09 147.07 83.98 62.29 52.63 118.39C21.29 174.5 -72.79 126.49 -82.53 72" stroke="url(#paint_linear_580_1940_0)" stroke-opacity="0.800000" stroke-width="75.607666" stroke-linecap="round"/>
	</g>
	<g mask="url(#mask580_1939)">
		<path id="Vector" d="M100.91 134.13C100.91 133.09 100.97 131.66 98.41 131.65C95.3 131.64 91 131.78 90.04 131.91C87.7 132.21 87.95 134.1 87.94 134.85C87.93 136.37 87.88 138.63 87.96 140.15C88.12 143.04 90.04 143.04 90.81 143.14C91.86 143.28 95.67 143.19 97.99 143.03C100.52 142.86 101.04 141.81 101.05 140.34C101.05 138.95 100.92 135.57 100.91 134.13Z" fill="#242424" fill-opacity="1.000000" fill-rule="evenodd"/>
		<path id="Vector" d="M83.34 173.21C83.6 172.77 86.08 168.72 86.69 167.34C88.36 163.5 89.45 159.37 90.26 155.34C90.83 152.51 90.97 148.64 91.03 148.72C91.33 149.06 94.59 167.34 94.57 168.5C94.56 169.93 91.7 175.59 91.37 175.69C90.97 175.81 84.6 173.62 83.34 173.21Z" fill="#C6F432" fill-opacity="1.000000" fill-rule="evenodd"/>
		<path id="Vector" d="M134.19 74.91C134.19 74.45 133.81 74.38 133.63 74.79C131.64 79.22 130.19 86.26 129.35 90.86C127.2 102.59 126.49 113.96 125.98 125.87C125.73 131.62 125.58 141.14 125.5 147.47C125.5 147.86 125.69 148.25 126 148.27C126.35 148.29 126.53 147.98 126.55 147.56C126.89 139.54 128.87 128.1 129.88 124.23C130.82 120.64 132.09 116.82 133.15 113.26C133.94 110.62 135 108.41 134.98 108.01C134.91 106.83 134.19 84.67 134.19 74.91Z" fill="#242424" fill-opacity="1.000000" fill-rule="evenodd"/>
		<path id="Vector" d="M90.85 138.93C90.85 138.93 90.82 147.05 90.95 149.59C91.49 159.95 92.69 168.62 95.85 178.57C96.72 181.31 97.7 184.03 99.07 186.56C99.2 186.8 100.38 188.81 100.63 188.76C100.8 188.71 100.31 182.97 101.23 177.08C101.44 175.68 101.73 173.14 102.05 171.77C102.12 171.46 101.02 168.06 100.3 164.05C99.45 159.27 98.83 154.16 98.63 149.31C98.53 146.73 98.58 138.78 98.43 138.77C97.9 138.74 92.35 138.76 90.85 138.93Z" fill="#C6F432" fill-opacity="1.000000" fill-rule="evenodd"/>
		<path id="Vector" d="M90.75 127.18C90.76 127.35 90.72 129.38 90.72 129.91C90.74 131.04 90.63 134.67 90.87 135.22C91.12 135.78 95.44 135.62 96.79 135.49C97.21 135.45 97.86 135.5 98.21 135.19C98.42 135 98.43 132.64 98.43 131.82C98.44 130.66 98.61 127.35 98.39 127.07C98.3 126.95 96.95 127.05 96.46 127.08C94.74 127.2 92.48 127.22 90.75 127.18Z" fill="#C6F432" fill-opacity="1.000000" fill-rule="evenodd"/>
		<path id="Vector" d="M145.82 43.06C144.89 41.39 142.58 38.97 141.83 38.36C134.34 32.22 119.41 32.79 110.88 38.07C105.36 41.49 102.1 50.3 98.93 59.98C93.79 75.65 90.37 94.49 89.11 103.06C88.59 106.6 86.71 118.5 87.86 124.54C88.53 128.02 91.56 127.66 93.66 127.74C97.43 127.9 99.63 127.82 100.86 126.82C102.41 125.55 102.13 123.24 102.57 119.97C105.02 102.03 109.01 85.5 115.12 67.52C117.15 61.53 123.1 48.4 123.71 48.98C125.38 50.54 126.53 52.39 127.18 53.71C129.29 57.97 130.03 61.09 130.34 61.93C130.36 61.99 127.58 64.85 124.25 72.22C122 77.19 120.12 83.24 118.71 88.5C115.67 99.93 113.84 113.07 112.47 124.79C112.05 128.34 110.62 137.53 110.4 138.36C110.23 138.97 107.44 139.81 106.12 144.77C105.06 148.76 106.77 151.46 106.63 152.08C106 154.9 95.21 185.98 102.02 200.3C107.95 212.79 123.57 216.54 136.49 218.25C136.97 218.32 157.85 219.9 175.4 218.48C187.43 217.51 197.74 215.11 198.75 215.03C206.94 214.36 226.76 214.97 230.31 214.62C235.51 214.1 240.96 213.49 245.61 210.89C258.3 203.81 250.27 149.51 249.23 138.63C246.26 107.51 236.46 70.37 210.49 64.28C165.73 53.78 143.44 79.25 131.57 115.71C127.53 128.12 127.01 141.94 126.32 146.55C126.22 147.17 125.65 147.31 125.66 146.48C125.68 144.56 125.82 140.29 125.89 136.82C126 131.24 126.2 120.98 126.91 113.05C127.71 103.97 129.93 83.02 136.11 69.01C140.56 58.94 144.56 46.49 145.82 43.06Z" fill="#00679D" fill-opacity="1.000000" fill-rule="evenodd"/>
		<path id="Vector" d="M157.75 122.47C157.24 123.39 157.13 124.45 157.29 125.43C157.33 125.64 159.54 125.42 161.65 125.31C163.55 125.21 165.36 125.23 165.37 125.13C165.66 122.2 163.56 119.71 159.95 120.72C158.57 121.11 158.13 121.81 157.75 122.47Z" fill="#FFFFFF" fill-opacity="1.000000" fill-rule="evenodd"/>
		<path id="Vector" d="M159.98 123.75C159.79 124.12 159.77 124.54 159.84 124.92C159.86 125 160.71 124.9 161.52 124.84C162.25 124.79 162.95 124.78 162.95 124.75C163.02 123.59 162.17 122.62 160.8 123.05C160.27 123.21 160.11 123.49 159.98 123.75Z" fill="#D6C3B0" fill-opacity="1.000000" fill-rule="evenodd"/>
		<path id="Vector" d="M131.02 62.22C131.83 61.48 133.96 59.86 134.82 59.18C135.07 58.98 135.11 58.63 134.91 58.39C134.72 58.14 134.37 58.1 134.12 58.3C133.25 59 131.09 60.64 130.26 61.39C130.03 61.6 130.02 61.96 130.22 62.19C130.43 62.41 130.79 62.43 131.02 62.22Z" fill="#242424" fill-opacity="1.000000" fill-rule="evenodd"/>
		<path id="Vector" d="M109.71 40.43C112.55 41.42 113.86 42.06 116 43.22C122.71 46.87 128.59 54.36 130.1 61.92C130.16 62.22 130.46 62.42 130.76 62.36C131.06 62.3 131.26 62 131.2 61.7C129.63 53.83 123.52 46.03 116.54 42.23C114.34 41.04 112.99 40.38 110.07 39.37C109.78 39.27 109.46 39.42 109.36 39.72C109.26 40.01 109.41 40.33 109.71 40.43Z" fill="#242424" fill-opacity="1.000000" fill-rule="evenodd"/>
		<path id="Vector" d="M156.49 46.34C156.41 46.35 156.3 33.76 156.45 33.69C156.58 33.63 159.95 31.24 160.73 31C161.22 30.86 174.38 32.7 180.05 33.54C192.22 35.35 204.17 36.99 216.21 39.42C222.15 40.61 231.21 42.19 231.09 42.54C230.71 43.65 225.37 71.79 225.1 72.8C225.03 73.03 221.25 68.11 209.76 64.27C206.75 63.26 203.55 62.81 200.54 61.84C185.67 57.08 170.77 52.59 156.49 46.34Z" fill="#FBFBFB" fill-opacity="1.000000" fill-rule="evenodd"/>
		<path id="Vector" d="M160.35 31.92C160.37 33.82 159.98 40.32 160.09 41.68C160.11 41.99 160.38 42.22 160.69 42.2C161 42.17 161.23 41.9 161.21 41.59C161.1 40.24 161.49 33.8 161.48 31.91C161.48 31.6 161.22 31.35 160.91 31.35C160.6 31.36 160.35 31.61 160.35 31.92Z" fill="#242424" fill-opacity="1.000000" fill-rule="evenodd"/>
		<path id="Vector" d="M254.05 148.28C252.15 145.94 247.5 145.84 246.51 145.75C243.5 145.51 240.48 145.5 237.47 145.6C230.03 145.84 214.66 145.77 208.91 150.96C204.6 154.85 204.12 160.52 204.21 165.89C204.42 178.46 204.74 186.28 205.41 200.53C205.67 206.01 205.57 213.31 210.67 216.53C216.1 219.97 223.75 218.82 229.81 218.36C235.62 217.93 240.72 217.47 246.47 216.56C249.1 216.15 252.18 215.53 254.55 214.07C259.24 211.18 258.59 205.31 258.63 201.78C258.74 192.48 258.24 183.3 257.79 174.02C257.51 168.27 257.49 162.5 256.88 156.78C256.59 153.98 255.89 150.53 254.05 148.28Z" fill="#FF6699" fill-opacity="1.000000" fill-rule="evenodd"/>
		<path id="Vector" d="M132.68 68.42C129.29 73.61 126.68 84.99 125.77 89.89C122.27 108.88 120.89 130.74 121.52 147.49C121.53 147.8 121.79 148.05 122.1 148.03C122.41 148.02 122.65 147.76 122.64 147.45C122.02 130.77 123.39 109 126.88 90.1C127.76 85.29 130.3 74.13 133.62 69.03C133.79 68.77 133.72 68.43 133.46 68.26C133.2 68.09 132.85 68.16 132.68 68.42Z" fill="#242424" fill-opacity="1.000000" fill-rule="evenodd"/>
		<path id="Vector" d="M175.3 65.19C160.68 73.08 156.25 77.71 150.84 84.61C137.33 101.86 129.71 126.71 129.02 148.91C129.01 149.22 129.25 149.47 129.56 149.48C129.87 149.49 130.13 149.25 130.14 148.94C130.83 126.97 138.35 102.38 151.73 85.3C157.05 78.5 161.42 73.95 175.83 66.17C176.11 66.03 176.21 65.69 176.06 65.41C175.91 65.14 175.57 65.04 175.3 65.19Z" fill="#242424" fill-opacity="1.000000" fill-rule="evenodd"/>
		<path id="Vector" d="M106.8 153.31C108.92 155.1 113.57 157.98 116.13 159.01C122.85 161.72 130.1 162.89 136.74 162.39C137.05 162.37 137.28 162.1 137.26 161.79C137.24 161.48 136.97 161.25 136.66 161.27C130.18 161.76 123.1 160.62 116.55 157.97C114.07 156.97 109.58 154.18 107.53 152.45C107.29 152.25 106.94 152.28 106.74 152.52C106.54 152.75 106.57 153.11 106.8 153.31Z" fill="#242424" fill-opacity="1.000000" fill-rule="evenodd"/>
		<path id="Vector" d="M110.02 139.9C114.29 144.71 116.44 145.66 118.56 146.73C126.24 150.61 131.17 150.26 138.05 150.06C138.36 150.05 138.6 149.79 138.59 149.48C138.58 149.17 138.33 148.93 138.02 148.94C131.33 149.14 126.53 149.5 119.07 145.73C117.03 144.7 114.97 143.78 110.86 139.15C110.65 138.92 110.29 138.9 110.06 139.11C109.83 139.31 109.81 139.67 110.02 139.9Z" fill="#242424" fill-opacity="1.000000" fill-rule="evenodd"/>
		<path id="Vector" d="M191.37 63.41C183.82 64.75 175.34 69.4 167.97 75.41C146.97 92.52 137.4 123.21 137.4 149.38C137.4 149.69 137.65 149.94 137.96 149.94C138.27 149.94 138.52 149.69 138.52 149.38C138.52 123.53 147.93 93.18 168.67 76.28C175.89 70.4 184.18 65.83 191.56 64.52C191.87 64.46 192.07 64.17 192.02 63.87C191.96 63.56 191.67 63.36 191.37 63.41Z" fill="#242424" fill-opacity="1.000000" fill-rule="evenodd"/>
		<path id="Vector" d="M170.87 124.25C165.19 124.47 151.07 124.66 140.37 125.84C137.01 126.21 135.03 127.55 134.54 129.93C134.11 132.06 136.23 134.24 137.25 135.76C139.88 139.66 144.03 146.86 146.02 150.79C146.5 151.74 143 166.73 143.12 184.79C143.24 203.01 145.57 212.29 147.58 217.03C150.32 223.52 154.93 224 160.33 224C171.62 223.99 180.85 223.3 186.65 222.86C191.43 222.5 196.52 220.76 198.84 217.22C202.25 212.03 201.45 198.54 201.28 192.56C201 182.32 200.91 168.79 199.15 158.88C198.85 157.17 194.92 153.41 194.84 152.62C194.66 150.98 194.36 148.39 193.29 144.83C192.1 140.83 190.77 136.35 188.71 132.75C187.09 129.93 185.67 126.39 183.53 125.12C181.82 124.1 178.5 123.96 170.87 124.25Z" fill="#C6F432" fill-opacity="1.000000" fill-rule="evenodd"/>
		<path id="Vector" d="M136.19 161.76C136.1 162.21 135.93 163.12 135.86 163.58C135.64 164.98 135.45 166.38 135.28 167.78C134.8 171.67 134.38 175.58 134.03 179.48C132.99 191.3 133.25 206.81 138.27 217.95C138.39 218.23 138.73 218.36 139.01 218.23C139.29 218.1 139.42 217.77 139.29 217.49C134.35 206.51 134.13 191.22 135.15 179.58C135.5 175.69 135.91 171.8 136.39 167.92C136.56 166.53 136.75 165.14 136.97 163.75C137.04 163.31 137.21 162.41 137.29 161.97C137.35 161.66 137.15 161.37 136.84 161.31C136.54 161.25 136.24 161.45 136.19 161.76Z" fill="#242424" fill-opacity="1.000000" fill-rule="evenodd"/>
		<path id="Vector" d="M146.89 155.05C148.2 158.82 151.85 160.74 154.53 161.44C154.83 161.52 155.14 161.34 155.22 161.04C155.3 160.74 155.12 160.44 154.82 160.36C152.42 159.73 149.12 158.06 147.95 154.68C147.85 154.39 147.53 154.24 147.23 154.34C146.94 154.44 146.78 154.76 146.89 155.05Z" fill="#242424" fill-opacity="1.000000" fill-rule="evenodd"/>
		<path id="Vector" d="M154.23 160.85C154.09 162.2 153.57 165.95 153.43 167.3C153 171.52 152.84 175.76 152.78 179.99C152.65 189.85 152.64 199.87 154.01 209.65C154.72 214.69 155.43 219.94 159.82 223.04C160.07 223.22 160.42 223.16 160.6 222.9C160.78 222.65 160.72 222.3 160.47 222.12C156.34 219.21 155.79 214.22 155.12 209.49C153.76 199.77 153.78 189.81 153.91 180.01C153.96 175.8 154.13 171.6 154.55 167.42C154.69 166.06 155.21 162.32 155.35 160.96C155.38 160.65 155.15 160.38 154.85 160.35C154.54 160.31 154.26 160.54 154.23 160.85Z" fill="#242424" fill-opacity="1.000000" fill-rule="evenodd"/>
		<path id="Vector" d="M255.97 152.72C255.05 150.97 252.66 149.88 249.52 149.32C245.09 148.52 239.15 148.67 234.22 148.89C228.07 149.17 219.44 149.48 214.47 153.61C212.7 155.08 211.86 157.09 211.48 159.3C211.11 161.41 211.17 163.7 211.17 165.85C211.18 174.3 211.4 182.96 211.9 191.39C212.13 195.19 212.07 201.95 213.09 207.74C213.79 211.73 215.02 215.26 217.12 217.14C218.61 218.48 220.12 218.61 221.93 219.12C222.23 219.2 222.54 219.02 222.63 218.73C222.71 218.43 222.53 218.12 222.24 218.03C220.6 217.58 219.21 217.51 217.87 216.31C215.92 214.56 214.84 211.25 214.19 207.55C213.19 201.8 213.25 195.09 213.02 191.32C212.52 182.91 212.31 174.27 212.29 165.84C212.29 163.76 212.23 161.54 212.59 159.49C212.92 157.55 213.63 155.77 215.19 154.48C219.99 150.49 228.34 150.29 234.27 150.02C239.12 149.8 244.96 149.64 249.32 150.42C250.73 150.67 251.98 151.03 252.98 151.51C253.89 151.96 254.59 152.52 254.97 153.24C255.11 153.51 255.45 153.62 255.73 153.48C256 153.33 256.11 152.99 255.97 152.72Z" fill="#242424" fill-opacity="1.000000" fill-rule="evenodd"/>
		<path id="Vector" d="M90.98 152.88C91.03 154.14 91.24 157.35 91.36 158.6C91.71 162.13 92.39 166.85 93.46 170.24C93.55 170.54 93.87 170.7 94.17 170.61C94.46 170.51 94.63 170.2 94.53 169.9C93.48 166.57 92.82 161.95 92.48 158.49C92.36 157.25 92.15 154.08 92.1 152.84C92.09 152.53 91.83 152.29 91.52 152.3C91.21 152.31 90.97 152.57 90.98 152.88Z" fill="#242424" fill-opacity="1.000000" fill-rule="evenodd"/>
		<path id="Vector" d="M193.83 131.06C194.27 131.25 195.15 131.62 195.61 131.76C195.91 131.84 196.22 131.67 196.31 131.38C196.4 131.08 196.23 130.77 195.93 130.68C195.5 130.55 194.68 130.2 194.27 130.02C193.99 129.9 193.65 130.03 193.53 130.32C193.41 130.6 193.54 130.93 193.83 131.06Z" fill="#242424" fill-opacity="1.000000" fill-rule="evenodd"/>
		<path id="Vector" d="M147.57 155.33C150.9 154.71 159.92 154.09 163.31 154.02C174.47 153.8 182.61 153.67 194.24 153.57C194.55 153.57 194.79 153.32 194.79 153C194.79 152.7 194.54 152.45 194.23 152.45C182.59 152.55 174.45 152.68 163.28 152.9C159.86 152.97 150.74 153.6 147.36 154.23C147.06 154.28 146.86 154.58 146.91 154.88C146.97 155.19 147.27 155.39 147.57 155.33Z" fill="#242424" fill-opacity="1.000000" fill-rule="evenodd"/>
		<path id="Vector" d="M137.52 149.76C138.73 151.16 138.89 153.98 138.84 154.81C138.69 157.77 137.86 160.08 136.43 161.29C136.19 161.49 136.16 161.85 136.36 162.08C136.56 162.32 136.92 162.35 137.15 162.15C138.77 160.78 139.79 158.2 139.97 154.87C140.02 153.9 139.77 150.65 138.37 149.02C138.17 148.79 137.81 148.76 137.58 148.97C137.34 149.17 137.32 149.52 137.52 149.76Z" fill="#242424" fill-opacity="1.000000" fill-rule="evenodd"/>
		<path id="Vector" d="M136.96 119.28C136.79 119.48 155.48 160.06 156.97 160.91C158.86 161.98 170.98 161.88 171.13 161.68C171.15 161.66 161.42 137.25 154.63 123.46C151.73 117.56 149.63 113.35 149.53 113.29C149.1 113.07 139.27 117.57 136.96 119.28Z" fill="#FF6699" fill-opacity="1.000000" fill-rule="evenodd"/>
		<path id="Vector" d="M155.7 157.66C156.55 157.32 158.76 156.35 159.55 155.9C159.82 155.75 159.91 155.41 159.76 155.14C159.6 154.87 159.26 154.77 158.99 154.93C158.23 155.36 156.11 156.29 155.29 156.61C155.01 156.72 154.86 157.05 154.98 157.34C155.09 157.63 155.42 157.77 155.7 157.66Z" fill="#242424" fill-opacity="1.000000" fill-rule="evenodd"/>
		<path id="Vector" d="M139.53 123.11C140.38 122.78 142.59 121.81 143.38 121.36C143.64 121.2 143.74 120.86 143.58 120.59C143.43 120.32 143.09 120.23 142.82 120.38C142.06 120.81 139.93 121.75 139.12 122.06C138.83 122.18 138.69 122.5 138.8 122.79C138.92 123.08 139.24 123.22 139.53 123.11Z" fill="#242424" fill-opacity="1.000000" fill-rule="evenodd"/>
		<path id="Vector" d="M142.77 129.99C143.61 129.66 145.82 128.69 146.61 128.24C146.88 128.08 146.97 127.74 146.82 127.47C146.67 127.2 146.32 127.11 146.05 127.26C145.3 127.7 143.17 128.63 142.36 128.94C142.07 129.06 141.93 129.38 142.04 129.67C142.15 129.96 142.48 130.1 142.77 129.99Z" fill="#242424" fill-opacity="1.000000" fill-rule="evenodd"/>
		<path id="Vector" d="M146 136.94C146.84 136.61 149.05 135.64 149.84 135.18C150.11 135.03 150.2 134.69 150.05 134.42C149.89 134.15 149.55 134.05 149.28 134.21C148.52 134.64 146.4 135.57 145.59 135.89C145.3 136 145.16 136.33 145.27 136.62C145.38 136.91 145.71 137.05 146 136.94Z" fill="#242424" fill-opacity="1.000000" fill-rule="evenodd"/>
		<path id="Vector" d="M149.26 143.77C150.1 143.44 152.31 142.47 153.1 142.02C153.37 141.86 153.46 141.52 153.31 141.25C153.16 140.98 152.81 140.89 152.54 141.04C151.78 141.47 149.66 142.41 148.85 142.72C148.56 142.84 148.42 143.16 148.53 143.45C148.64 143.74 148.97 143.88 149.26 143.77Z" fill="#242424" fill-opacity="1.000000" fill-rule="evenodd"/>
		<path id="Vector" d="M152.45 150.7C153.29 150.37 155.5 149.4 156.29 148.95C156.56 148.79 156.65 148.45 156.5 148.18C156.34 147.91 156 147.82 155.73 147.97C154.97 148.41 152.85 149.34 152.03 149.66C151.75 149.77 151.6 150.09 151.72 150.38C151.83 150.67 152.16 150.81 152.45 150.7Z" fill="#242424" fill-opacity="1.000000" fill-rule="evenodd"/>
		<path id="Vector" d="M215.71 165.37C215.4 165.37 215.16 165.63 215.16 165.94C215.19 167.86 215.36 173.27 215.48 175.52C215.52 176.17 215.57 176.59 215.6 176.67C215.64 176.77 215.73 176.93 215.97 177.02C216.08 177.06 216.35 177.1 216.77 177.12C220.5 177.25 238.89 176.42 244.93 176.01C246.55 175.9 250.95 175.75 252.74 175.58C253.16 175.54 253.46 175.49 253.58 175.45C253.75 175.39 253.84 175.3 253.89 175.24C253.91 175.21 254.02 175.04 254.02 174.71C254.01 173.78 253.73 169.29 253.53 166.48C253.45 165.26 253.38 164.36 253.36 164.19C253.33 163.93 253.2 163.82 253.19 163.81C253.14 163.77 253.06 163.71 252.93 163.67C252.83 163.64 252.45 163.62 251.82 163.63C246.49 163.72 220.7 165.29 215.71 165.37ZM252.28 164.75C252.42 166.53 252.83 172.68 252.89 174.43C251.36 174.61 246.56 174.77 244.86 174.89C239.5 175.25 224.43 175.95 218.53 176C217.68 176.01 217.03 176.01 216.64 175.99C216.63 175.84 216.62 175.65 216.6 175.45C216.49 173.4 216.34 168.73 216.29 166.48C222.41 166.31 246.68 164.84 251.84 164.75C252 164.75 252.15 164.75 252.28 164.75Z" fill="#242424" fill-opacity="1.000000" fill-rule="evenodd"/>
		<path id="Vector" d="M173.63 187.14C172.53 189.13 173.25 191.8 174.8 192.89C175.68 193.5 177.58 193.56 178.57 193.17C183.37 191.28 181.37 183.84 175.82 185.39C174.45 185.78 174 186.48 173.63 187.14Z" fill="#FFFFFF" fill-opacity="1.000000" fill-rule="evenodd"/>
		<path id="Vector" d="M176.05 188.27C175.38 188.85 175.42 189.82 175.85 190.42C176.1 190.75 176.64 190.95 177.06 190.93C179.09 190.86 179.41 187.79 177.15 187.84C176.84 187.84 176.28 188.08 176.05 188.27Z" fill="#D6C3B0" fill-opacity="1.000000" fill-rule="evenodd"/>
		<path id="Vector" d="M217.96 167.84C217.91 169.05 217.99 174.33 218.27 174.34C220.19 174.44 251.12 173.2 251.09 172.93C251.05 172.45 250.95 167.67 250.55 166.57C250.51 166.43 241.96 166.76 233.42 167.12C227.28 167.38 221.67 167.79 217.96 167.84Z" fill="#FFFFFF" fill-opacity="1.000000" fill-rule="evenodd"/>
		<path id="Vector" d="M133.46 41.63C133.34 46.52 133.62 53.9 133.64 55.22C133.81 67.88 134.15 107.21 134.45 107.43C135.02 107.84 140.4 84.98 163.36 70.47C172.36 64.78 181.8 61.9 195.06 62.26C204.12 62.5 208.37 63.88 208.37 63.83C208.37 63.71 208.72 59.96 208.96 56.42C209.28 51.76 209.64 46.65 209.3 45.97C209.09 45.56 199.84 40.95 199.04 40.72C197.83 40.36 194.11 40.41 188.73 40.41C171.33 40.41 155.92 40.35 133.46 41.63Z" fill="#FF6699" fill-opacity="1.000000" fill-rule="evenodd"/>
		<path id="Vector" d="M134.17 42.97C136.58 43.94 141.23 46.01 143.52 47.24C143.79 47.39 144.13 47.29 144.28 47.01C144.43 46.74 144.33 46.4 144.05 46.25C141.73 45 137.03 42.91 134.59 41.93C134.3 41.82 133.97 41.96 133.86 42.24C133.74 42.53 133.88 42.86 134.17 42.97Z" fill="#242424" fill-opacity="1.000000" fill-rule="evenodd"/>
		<path id="Vector" d="M143.25 46.99C143.22 48.04 143.27 50.53 143.25 51.58C143.19 54.53 143.15 57.49 143.13 60.44C143.05 69.03 143.63 78.12 143.94 86.7C143.95 87.01 144.21 87.25 144.52 87.24C144.83 87.23 145.07 86.97 145.06 86.66C144.75 78.1 144.17 69.02 144.25 60.45C144.28 57.5 144.32 54.55 144.38 51.6C144.4 50.55 144.34 48.06 144.37 47.02C144.38 46.71 144.13 46.45 143.82 46.45C143.51 46.44 143.25 46.68 143.25 46.99Z" fill="#242424" fill-opacity="1.000000" fill-rule="evenodd"/>
		<path id="Vector" d="M143.89 47.21C146.21 47.11 147.87 46.97 149.06 46.92C153.32 46.74 159.77 46.73 164.03 46.51C172.35 46.08 202.11 46.39 208.41 47.05C208.72 47.08 209 46.86 209.03 46.55C209.06 46.24 208.84 45.97 208.53 45.93C202.2 45.27 172.33 44.96 163.98 45.39C159.72 45.61 153.27 45.61 149.01 45.8C147.82 45.85 146.16 45.99 143.84 46.09C143.53 46.11 143.29 46.37 143.31 46.68C143.32 46.99 143.58 47.23 143.89 47.21Z" fill="#242424" fill-opacity="1.000000" fill-rule="evenodd"/>
		<path id="Vector" d="M138.1 53.43C139.28 53.43 140.24 54.63 140.24 56.11C140.24 57.59 139.28 58.79 138.1 58.79C136.92 58.79 135.96 57.59 135.96 56.11C135.96 54.63 136.92 53.43 138.1 53.43Z" fill="#242424" fill-opacity="1.000000" fill-rule="evenodd"/>
		<path id="Vector" d="M137.3 70.6C138.04 70.85 139.21 71.38 139.75 71.65C139.77 71.9 139.81 72.38 139.84 72.88C140.05 76.73 140.33 86.68 140.64 91.63C140.67 91.94 140.93 92.17 141.24 92.15C141.55 92.13 141.79 91.87 141.77 91.56C141.41 85.99 141.11 74.08 140.89 71.66C140.85 71.29 140.78 71.07 140.75 71.01C140.68 70.89 140.6 70.83 140.53 70.79C140.15 70.58 138.27 69.71 137.37 69.44C136.98 69.32 136.68 69.33 136.57 69.37C136.48 69.41 136.29 69.49 136.21 69.76C136.2 69.82 136.17 70.14 136.18 70.66C136.22 74.94 137.13 96.18 137.23 97.81C137.24 98.12 137.51 98.36 137.82 98.34C138.13 98.33 138.36 98.06 138.35 97.75C138.25 96.12 137.34 74.92 137.3 70.65L137.3 70.6Z" fill="#242424" fill-opacity="1.000000" fill-rule="evenodd"/>
		<path id="Vector" d="M218.96 171.4C220.17 171.29 223.57 171.13 228.26 170.93C234.09 170.69 241.91 170.4 250.02 170.1C250.17 170.1 250.29 169.97 250.29 169.81C250.28 169.66 250.15 169.54 250 169.54C241.89 169.84 234.07 170.13 228.24 170.37C223.53 170.57 220.12 170.73 218.91 170.85C218.76 170.86 218.64 171 218.66 171.15C218.67 171.31 218.81 171.42 218.96 171.4Z" fill="#D6C3B0" fill-opacity="1.000000" fill-rule="evenodd"/>
		<path id="Vector" d="M223.16 168.42L223.31 173.54C223.32 173.69 223.45 173.81 223.6 173.81C223.76 173.8 223.88 173.67 223.87 173.52L223.72 168.37C223.71 168.22 223.57 168.1 223.42 168.12C223.27 168.13 223.15 168.26 223.16 168.42Z" fill="#D6C3B0" fill-opacity="1.000000" fill-rule="evenodd"/>
		<path id="Vector" d="M229.05 168.16L229.2 173.28C229.21 173.44 229.34 173.56 229.49 173.55C229.65 173.54 229.77 173.41 229.76 173.26L229.61 168.12C229.6 167.96 229.46 167.85 229.31 167.86C229.15 167.87 229.04 168.01 229.05 168.16Z" fill="#D6C3B0" fill-opacity="1.000000" fill-rule="evenodd"/>
		<path id="Vector" d="M234.91 168.01L235.06 173.13C235.06 173.29 235.2 173.41 235.35 173.4C235.51 173.39 235.63 173.26 235.62 173.11L235.47 167.97C235.46 167.81 235.32 167.7 235.17 167.71C235.01 167.72 234.9 167.85 234.91 168.01Z" fill="#D6C3B0" fill-opacity="1.000000" fill-rule="evenodd"/>
		<path id="Vector" d="M240.77 167.45L240.89 172.81C240.9 172.97 241.03 173.09 241.18 173.08C241.34 173.08 241.46 172.95 241.46 172.79L241.33 167.41C241.32 167.25 241.18 167.14 241.03 167.15C240.87 167.16 240.76 167.29 240.77 167.45Z" fill="#D6C3B0" fill-opacity="1.000000" fill-rule="evenodd"/>
		<path id="Vector" d="M246.21 166.63C246.02 167.51 244.29 176.27 244.1 177.29C243.35 181.31 242.58 185.04 243.12 187.51C243.51 189.29 245.32 190.53 247.56 190.66C250.47 190.83 251.89 189.82 252.8 187.56C253.46 185.89 252.82 179.14 252.24 175.34C251.8 172.46 250.89 166.92 250.55 166.57C250.44 166.45 246.22 166.57 246.21 166.63ZM247.71 182.21C248.86 181.91 250.05 182.63 250.36 183.81C250.68 185 250 186.21 248.84 186.51C247.69 186.82 246.51 186.1 246.19 184.91C245.88 183.72 246.56 182.52 247.71 182.21Z" fill="#242424" fill-opacity="1.000000" fill-rule="evenodd"/>
		<path id="Vector" d="M248.16 167.47C248.02 168.98 247.89 170.57 247.88 171.76C247.88 172.07 248.13 172.32 248.44 172.33C248.75 172.33 249 172.08 249 171.77C249.01 170.61 249.14 169.05 249.28 167.57C249.3 167.26 249.08 166.99 248.77 166.96C248.46 166.93 248.18 167.16 248.16 167.47Z" fill="#595959" fill-opacity="1.000000" fill-rule="evenodd"/>
		<path id="Vector" d="M246 172.42C247.61 172.51 249.21 172.69 250.84 172.58C251.15 172.56 251.39 172.29 251.37 171.98C251.34 171.67 251.07 171.44 250.77 171.46C249.18 171.57 247.63 171.39 246.06 171.3C245.75 171.28 245.49 171.52 245.47 171.83C245.45 172.14 245.69 172.4 246 172.42Z" fill="#595959" fill-opacity="1.000000" fill-rule="evenodd"/>
		<path id="Vector" d="M160.41 101.88C160.11 101.87 159.86 102.1 159.84 102.4C159.68 104.47 159.42 110.31 159.42 112.74C159.42 113.27 159.43 113.64 159.46 113.81C159.48 113.94 159.52 114.03 159.54 114.08C159.58 114.15 159.66 114.27 159.84 114.34C159.95 114.39 160.44 114.46 161.26 114.5C168.36 114.87 203.54 115.09 215.13 115.02C218.23 115 226.65 115.1 230.08 115.03C230.8 115.01 231.31 114.98 231.52 114.95C231.69 114.93 231.79 114.88 231.83 114.85C231.89 114.81 232.08 114.68 232.12 114.34C232.19 113.8 232.18 111.18 232.14 108.57C232.1 105.98 232.04 103.4 232.01 102.9C231.98 102.52 231.75 102.38 231.73 102.37C231.69 102.35 231.58 102.29 231.39 102.27C231.16 102.25 230.54 102.22 229.61 102.2C219.4 101.98 169.95 102.1 160.41 101.88ZM230.9 103.37C230.97 105.26 231.1 112.01 231.03 113.86C230.78 113.88 230.43 113.89 230.05 113.9C226.63 113.98 218.22 113.87 215.12 113.89C203.55 113.96 168.41 113.75 161.32 113.38C161.03 113.36 160.75 113.34 160.55 113.32C160.55 113.15 160.54 112.94 160.54 112.74C160.54 110.51 160.77 105.4 160.92 103.01C171.64 103.22 219.55 103.1 229.58 103.32C230.12 103.34 230.59 103.36 230.9 103.37Z" fill="#242424" fill-opacity="1.000000" fill-rule="evenodd"/>
		<path id="Vector" d="M162.36 111.52C164.07 111.57 229.47 112.16 229.52 111.9C229.7 110.87 229.75 105.41 229.58 105C229.54 104.88 169.46 104.85 162.46 104.85C162.46 104.85 162.11 111.51 162.36 111.52Z" fill="#FFFFFF" fill-opacity="1.000000" fill-rule="evenodd"/>
		<path id="Vector" d="M162.89 108.61C164.4 108.54 169.43 108.52 176.11 108.55C193.65 108.6 222.56 108.88 229.06 108.81C229.22 108.81 229.34 108.69 229.34 108.53C229.34 108.38 229.21 108.25 229.05 108.25C222.55 108.32 193.65 108.04 176.12 107.98C169.42 107.96 164.37 107.97 162.87 108.05C162.71 108.06 162.59 108.19 162.6 108.34C162.61 108.5 162.74 108.62 162.89 108.61Z" fill="#D6C3B0" fill-opacity="1.000000" fill-rule="evenodd"/>
		<path id="Vector" d="M167.13 105.63L167.06 110.76C167.06 110.91 167.19 111.04 167.34 111.04C167.5 111.04 167.62 110.91 167.62 110.76L167.7 105.61C167.69 105.46 167.56 105.34 167.41 105.34C167.25 105.35 167.13 105.48 167.13 105.63Z" fill="#D6C3B0" fill-opacity="1.000000" fill-rule="evenodd"/>
		<path id="Vector" d="M172.84 105.76L172.77 110.88C172.77 111.03 172.89 111.16 173.05 111.16C173.2 111.16 173.33 111.03 173.33 110.88L173.4 105.73C173.4 105.58 173.27 105.46 173.11 105.46C172.96 105.47 172.84 105.6 172.84 105.76Z" fill="#D6C3B0" fill-opacity="1.000000" fill-rule="evenodd"/>
		<path id="Vector" d="M177.59 105.88L177.51 111C177.51 111.16 177.64 111.28 177.79 111.28C177.95 111.28 178.08 111.16 178.08 111L178.15 105.86C178.14 105.7 178.01 105.58 177.86 105.59C177.7 105.59 177.58 105.72 177.59 105.88Z" fill="#D6C3B0" fill-opacity="1.000000" fill-rule="evenodd"/>
		<path id="Vector" d="M183.55 105.76L183.44 111.12C183.44 111.28 183.56 111.41 183.72 111.41C183.87 111.41 184 111.28 184 111.13L184.11 105.74C184.1 105.59 183.97 105.47 183.82 105.47C183.67 105.47 183.54 105.6 183.55 105.76Z" fill="#D6C3B0" fill-opacity="1.000000" fill-rule="evenodd"/>
		<path id="Vector" d="M201.16 105.8L201.05 111.17C201.05 111.32 201.18 111.45 201.33 111.45C201.49 111.45 201.61 111.32 201.62 111.17L201.72 105.78C201.72 105.63 201.59 105.51 201.44 105.51C201.28 105.52 201.16 105.64 201.16 105.8Z" fill="#D6C3B0" fill-opacity="1.000000" fill-rule="evenodd"/>
		<path id="Vector" d="M189.67 105.6L189.58 111.09C189.58 111.24 189.7 111.37 189.86 111.37C190.01 111.37 190.14 111.25 190.14 111.09L190.23 105.58C190.22 105.42 190.09 105.3 189.94 105.31C189.78 105.31 189.66 105.44 189.67 105.6Z" fill="#D6C3B0" fill-opacity="1.000000" fill-rule="evenodd"/>
		<path id="Vector" d="M207.1 105.64L207.01 111.13C207.01 111.29 207.13 111.41 207.29 111.41C207.44 111.41 207.57 111.29 207.57 111.13L207.66 105.62C207.65 105.47 207.52 105.35 207.37 105.35C207.21 105.36 207.09 105.49 207.1 105.64Z" fill="#D6C3B0" fill-opacity="1.000000" fill-rule="evenodd"/>
		<path id="Vector" d="M218.74 105.71L218.65 111.2C218.65 111.35 218.77 111.48 218.93 111.48C219.08 111.48 219.21 111.35 219.21 111.2L219.3 105.69C219.29 105.53 219.16 105.41 219.01 105.42C218.85 105.42 218.73 105.55 218.74 105.71Z" fill="#D6C3B0" fill-opacity="1.000000" fill-rule="evenodd"/>
		<path id="Vector" d="M195.54 105.57L195.47 111.19C195.47 111.34 195.6 111.47 195.76 111.47C195.91 111.47 196.04 111.34 196.04 111.19L196.1 105.55C196.1 105.39 195.97 105.27 195.81 105.28C195.66 105.28 195.54 105.42 195.54 105.57Z" fill="#D6C3B0" fill-opacity="1.000000" fill-rule="evenodd"/>
		<path id="Vector" d="M212.6 105.61L212.53 111.22C212.53 111.38 212.66 111.51 212.81 111.51C212.97 111.51 213.09 111.38 213.09 111.22L213.16 105.59C213.16 105.43 213.02 105.31 212.87 105.32C212.71 105.32 212.59 105.45 212.6 105.61Z" fill="#D6C3B0" fill-opacity="1.000000" fill-rule="evenodd"/>
		<path id="Vector" d="M225.3 104.91C225.12 105.79 223.35 114.7 223.16 115.72C222.4 119.75 221.63 123.47 222.17 125.94C222.56 127.72 224.37 128.96 226.62 129.1C229.53 129.26 230.95 128.25 231.85 125.99C232.52 124.33 231.88 117.57 231.3 113.77C230.86 110.89 229.95 105.35 229.61 105C229.49 104.88 225.31 104.86 225.3 104.91ZM226.77 120.64C227.92 120.34 229.11 121.06 229.42 122.24C229.73 123.43 229.05 124.64 227.9 124.94C226.75 125.25 225.56 124.53 225.25 123.34C224.94 122.16 225.62 120.95 226.77 120.64Z" fill="#242424" fill-opacity="1.000000" fill-rule="evenodd"/>
		<path id="Vector" d="M227.21 105.9C227.08 107.41 226.94 109.01 226.94 110.19C226.93 110.5 227.18 110.76 227.5 110.76C227.81 110.76 228.06 110.51 228.06 110.2C228.07 109.04 228.2 107.48 228.33 106C228.36 105.69 228.13 105.42 227.82 105.39C227.51 105.36 227.24 105.59 227.21 105.9Z" fill="#595959" fill-opacity="1.000000" fill-rule="evenodd"/>
		<path id="Vector" d="M225.06 110.85C226.67 110.94 228.26 111.12 229.9 111.01C230.21 110.98 230.44 110.71 230.42 110.4C230.4 110.1 230.13 109.86 229.82 109.88C228.23 110 226.69 109.81 225.12 109.72C224.81 109.71 224.55 109.94 224.53 110.25C224.51 110.56 224.75 110.83 225.06 110.85Z" fill="#595959" fill-opacity="1.000000" fill-rule="evenodd"/>
		<path id="Vector" d="M194.47 127.03C194.14 127.09 193.31 130.11 193.22 130.35C193.14 130.54 192.21 130.1 191.75 130.54C191.38 130.89 189.61 136.17 188.7 138.93C186.62 145.26 181.61 161.23 181.96 161.39C182.53 161.66 187.94 161.37 188.19 161.12C188.35 160.96 189.82 155.64 190.07 154.92C190.73 152.93 192.9 145.78 193.38 144.2C194.22 141.42 197.26 132.78 197.32 132.19C197.36 131.71 196.26 131.52 196.31 131.29C196.4 130.86 197.47 128.57 197.4 127.97C197.34 127.45 194.93 126.94 194.47 127.03Z" fill="#FBFBFB" fill-opacity="1.000000" fill-rule="evenodd"/>
		<path id="Vector" d="M196.45 133.47C195.81 133.18 195.32 132.92 194.57 133.18C194.28 133.29 194.03 133.5 193.82 133.76C193.59 134.06 193.42 134.43 193.27 134.72C192.71 135.83 189.62 145.28 188.28 149.55C187.93 150.66 187.32 152.49 186.99 153.74C186.83 154.34 186.75 154.82 186.75 155.07C186.78 156.02 187.36 156.46 188.74 156.78C189.04 156.85 189.34 156.67 189.41 156.36C189.48 156.06 189.29 155.76 188.99 155.69C188.63 155.6 188.35 155.53 188.13 155.42C187.97 155.34 187.88 155.23 187.88 155.04C187.87 154.85 187.96 154.48 188.08 154.02C188.4 152.79 189.01 150.98 189.35 149.88C190.67 145.66 193.72 136.32 194.27 135.22C194.37 135.03 194.49 134.78 194.63 134.56C194.72 134.42 194.81 134.29 194.95 134.24C195.15 134.17 195.31 134.2 195.46 134.26C195.63 134.32 195.8 134.41 195.99 134.49C196.27 134.62 196.6 134.5 196.73 134.22C196.86 133.94 196.74 133.6 196.45 133.47Z" fill="#242424" fill-opacity="1.000000" fill-rule="evenodd"/>
		<path id="Vector" d="M177.08 136.59C176.68 137.5 176.4 138.38 176.22 139C175.7 140.69 175.45 142.5 175.17 144.25C174.49 148.56 172.67 161.18 172.77 161.28C172.87 161.37 177.07 161.73 177.22 161.59C177.5 161.32 177.84 160.03 177.94 159.66C178.45 157.77 181.96 145.64 182.75 141.59C182.93 140.62 183.17 138.09 183.08 138.02C182.91 137.89 178.4 136.59 177.08 136.59Z" fill="#FFB4CD" fill-opacity="1.000000" fill-rule="evenodd"/>
		<path id="Vector" d="M182.06 122.62C182.02 122.38 181.56 121.05 182.07 118.93C182.67 116.42 184.14 114.46 185.92 112.56C186.1 112.37 187.85 110.69 188.15 110.85C188.48 111.03 187.43 113.52 187.75 116.21C188 118.36 187.95 120.05 186.81 121.78C186.28 122.58 185.63 123.41 185.42 123.43C185.11 123.45 182.92 123 182.06 122.62Z" fill="#242424" fill-opacity="1.000000" fill-rule="evenodd"/>
		<path id="Vector" d="M182.06 122.62C181.39 124.28 179.36 130.03 178.58 132.22C177.61 134.93 176.99 136.58 177.06 136.67C177.21 136.85 180.34 137.91 182.22 138.09C182.73 138.14 183.06 138.15 183.09 138.1C183.18 137.97 185.52 123.45 185.48 123.4C185.36 123.28 182.78 122.72 182.06 122.62Z" fill="#FFFFFF" fill-opacity="1.000000" fill-rule="evenodd"/>
		<path id="Vector" d="M177.69 137.55C177.74 137.56 178.07 137.62 178.13 137.63C178.46 137.7 178.8 137.77 179.14 137.85C180.2 138.1 181.27 138.33 182.33 138.57C182.64 138.64 182.94 138.45 183 138.14C183.07 137.84 182.88 137.54 182.58 137.47C181.52 137.24 180.45 137.01 179.39 136.76C179.05 136.67 178.7 136.6 178.36 136.53C178.29 136.52 177.91 136.45 177.84 136.44C177.59 136.41 177.46 136.51 177.44 136.52C177.31 136.61 177.24 136.73 177.21 136.84C177.17 136.97 177.17 137.12 177.26 137.27C177.36 137.44 177.52 137.53 177.69 137.55Z" fill="#242424" fill-opacity="1.000000" fill-rule="evenodd"/>
		<path id="Vector" d="M162.82 161.5C162.91 161.78 168.89 161.78 168.86 161.56C168.54 158.74 168.3 155.77 168.26 155.74C168.09 155.6 163.67 156.15 161.46 156.48C161.44 156.48 162.35 159.91 162.82 161.5Z" fill="#FFB4CD" fill-opacity="1.000000" fill-rule="evenodd"/>
		<path id="Vector" d="M156.8 139.31C156.74 139.3 158.25 145.06 158.64 146.53C159.34 149.23 161.4 156.47 161.47 156.5C161.71 156.61 167.29 155.96 168.25 155.78C168.36 155.77 167.49 149.55 167.21 147.5C166.9 145.2 166.08 138.97 166.03 138.96C165.99 138.95 163.79 138.7 161.54 138.78C159.52 138.84 157.46 139.22 156.8 139.31Z" fill="#FFFFFF" fill-opacity="1.000000" fill-rule="evenodd"/>
		<path id="Vector" d="M162.23 156.96C162.62 156.92 163.53 156.83 163.92 156.8C165.13 156.69 166.66 156.49 167.88 156.34C168.19 156.31 168.41 156.03 168.37 155.72C168.33 155.41 168.05 155.19 167.74 155.23C166.54 155.38 165.02 155.57 163.82 155.67C163.43 155.71 162.53 155.81 162.14 155.84C161.83 155.86 161.6 156.13 161.62 156.44C161.65 156.75 161.92 156.98 162.23 156.96Z" fill="#242424" fill-opacity="1.000000" fill-rule="evenodd"/>
		<path id="Vector" d="M154.39 128.6C154.2 128.77 154.84 131.58 155.02 132.34C155.53 134.44 156.34 138.11 156.78 139.33C156.85 139.5 159.07 139.38 161.72 139.2C163.79 139.06 165.98 139.08 166.07 139.02C166.16 138.97 165.52 131.06 165.46 130.58C165.33 129.58 165.29 128.44 165.01 128.05C164.85 127.82 162.48 127.76 159.83 127.91C158.57 127.98 154.76 128.25 154.39 128.6Z" fill="#242424" fill-opacity="1.000000" fill-rule="evenodd"/>
		<path id="Vector" d="M156.37 129.24C156.46 129.8 156.64 131.04 156.73 131.6C157.08 133.98 157.57 136.39 158.05 138.59C158.12 138.89 158.42 139.09 158.72 139.02C159.03 138.95 159.22 138.65 159.15 138.35C158.68 136.17 158.19 133.78 157.84 131.43C157.75 130.87 157.57 129.62 157.48 129.06C157.43 128.75 157.14 128.54 156.83 128.59C156.53 128.64 156.32 128.93 156.37 129.24Z" fill="#595959" fill-opacity="1.000000" fill-rule="evenodd"/>
		<path id="Vector" d="M159.63 129.03C159.68 129.58 159.78 130.78 159.82 131.33C160.02 133.64 160.39 136.41 160.72 138.56C160.77 138.87 161.05 139.08 161.36 139.03C161.67 138.98 161.88 138.69 161.83 138.39C161.5 136.26 161.14 133.52 160.94 131.23C160.9 130.68 160.8 129.47 160.74 128.91C160.71 128.6 160.43 128.38 160.13 128.41C159.82 128.44 159.59 128.72 159.63 129.03Z" fill="#595959" fill-opacity="1.000000" fill-rule="evenodd"/>
		<path id="Vector" d="M162.58 129C162.61 129.55 162.64 130.74 162.66 131.28C162.73 133.58 163.04 136.2 163.27 138.35C163.31 138.66 163.59 138.88 163.89 138.85C164.2 138.81 164.43 138.54 164.39 138.23C164.16 136.1 163.86 133.52 163.78 131.25C163.76 130.7 163.73 129.49 163.7 128.94C163.68 128.63 163.42 128.39 163.11 128.41C162.8 128.43 162.56 128.69 162.58 129Z" fill="#595959" fill-opacity="1.000000" fill-rule="evenodd"/>
		<path id="Vector" d="M199.45 141.39C199.5 140.92 194.86 139.69 194.67 140.06C194.6 140.21 192.78 145.84 191.92 148.72C191.05 151.63 188.26 160.96 188.26 160.96L193.98 160.5C193.98 160.5 199.4 141.98 199.45 141.39Z" fill="#FFB4CD" fill-opacity="1.000000" fill-rule="evenodd"/>
		<path id="Vector" d="M194.63 140.38C194.77 139.85 195.04 139.15 195.27 138.45C195.61 137.45 195.94 136.46 196.02 136.29C196.16 135.98 198.07 136.52 198.32 136.6C199.4 136.94 200.43 137.28 200.59 137.58C200.68 137.75 200.25 139.12 200.04 139.71C199.85 140.24 199.34 141.91 199.33 141.93C199.25 142.02 195.58 140.74 194.63 140.38Z" fill="#FF6699" fill-opacity="1.000000" fill-rule="evenodd"/>
		<path id="Vector" d="M196.57 140.97C196.39 141.44 192.15 155.35 190.8 160.25C190.71 160.55 190.89 160.86 191.19 160.94C191.49 161.03 191.79 160.85 191.88 160.55C193.23 155.68 197.44 141.83 197.62 141.35C197.73 141.06 197.58 140.74 197.29 140.63C197 140.53 196.68 140.67 196.57 140.97Z" fill="#242424" fill-opacity="1.000000" fill-rule="evenodd"/>
		<path id="Vector" d="M195.14 141.01C196.59 141.47 197.67 141.85 198.52 142.1C198.81 142.19 199.13 142.02 199.21 141.72C199.3 141.42 199.13 141.11 198.84 141.02C197.99 140.77 196.92 140.39 195.48 139.94C195.19 139.84 194.87 140.01 194.78 140.3C194.68 140.6 194.85 140.91 195.14 141.01Z" fill="#242424" fill-opacity="1.000000" fill-rule="evenodd"/>
		<path id="Vector" d="M169.15 129.5C168.82 130.68 168.61 131.81 168.46 132.59C168.08 134.76 167.97 137.05 167.83 139.27C167.49 144.73 167.89 161.58 168.01 161.7C168.11 161.8 172.49 161.96 172.63 161.77C172.9 161.42 173.15 159.09 173.22 158.61C173.58 156.2 175.4 143.84 176.22 136.22C176.36 134.99 176.41 130.22 176.31 130.14C176.12 129.99 170.52 129.41 169.15 129.5Z" fill="#FF6699" fill-opacity="1.000000" fill-rule="evenodd"/>
		<path id="Vector" d="M172.46 115.85C172.36 115.51 171.51 113.64 171.68 110.41C171.89 106.58 173.28 103.38 175.09 100.2C175.27 99.88 177.07 97.04 177.48 97.22C177.92 97.42 177.16 101.31 178.12 105.2C178.9 108.31 179.19 110.83 178.15 113.61C177.67 114.9 177.05 116.26 176.79 116.33C176.41 116.43 173.6 116.23 172.46 115.85Z" fill="#242424" fill-opacity="1.000000" fill-rule="evenodd"/>
		<path id="Vector" d="M172.4 115.66C171.84 117.36 171.11 120.68 170.45 123.55C169.81 126.35 169.05 129.5 169.13 129.59C169.28 129.75 173.62 130.19 175.51 130.24C176.02 130.25 176.35 130.24 176.38 130.19C176.46 130.05 176.36 125.89 176.5 124.43C176.7 122.33 177.01 116.2 176.97 116.16C176.84 116.05 173.12 115.71 172.4 115.66Z" fill="#FFFFFF" fill-opacity="1.000000" fill-rule="evenodd"/>
		<path id="Vector" d="M169.75 130.39C170.25 130.44 171.32 130.53 171.82 130.57C173.22 130.67 173.99 130.73 175.41 130.77C175.72 130.78 175.98 130.54 175.99 130.23C176 129.92 175.75 129.66 175.44 129.65C174.04 129.61 173.29 129.55 171.9 129.45C171.41 129.41 170.36 129.33 169.87 129.27C169.56 129.24 169.28 129.47 169.25 129.77C169.22 130.08 169.44 130.36 169.75 130.39Z" fill="#242424" fill-opacity="1.000000" fill-rule="evenodd"/>
		<path id="Vector" d="M154.79 161.56C155.51 161.61 156.22 161.66 156.93 161.72C159.79 161.95 162.81 162.01 165.68 162.07C176.12 162.3 187.72 162.41 197.95 160.11C198.26 160.04 198.45 159.74 198.38 159.44C198.31 159.14 198.01 158.95 197.71 159.02C187.56 161.29 176.06 161.17 165.7 160.95C162.86 160.89 159.86 160.83 157.02 160.6C156.31 160.54 155.59 160.49 154.88 160.43C154.57 160.41 154.3 160.64 154.28 160.95C154.25 161.26 154.48 161.53 154.79 161.56Z" fill="#242424" fill-opacity="1.000000" fill-rule="evenodd"/>
	</g>
	<g mask="url(#mask580_1939)">
		<path id="Vector" d="M51.65 217.86L37.03 220.23L49.33 274.25L59.78 274.48C59.78 274.48 59.31 271.1 59.21 270.55C58.08 264.59 51.65 217.86 51.65 217.86Z" fill="#FF6699" fill-opacity="1.000000" fill-rule="evenodd"/>
		<path id="Vector" d="M51.65 217.99C51.72 214.31 50.37 207.52 49.95 201.51C49.74 198.42 49.71 195.65 48.91 193.85C46.37 188.14 43.1 181.14 43.01 181.08C42.67 180.88 33.32 182.1 33.32 182.12C33.3 182.22 32.09 192.08 31.76 195.79C31.54 198.3 32.27 201.3 32.9 203.75C34 207.93 36.96 220.29 37.08 220.34C37.4 220.48 50.2 218.32 51.65 217.99Z" fill="#FFFFFF" fill-opacity="1.000000" fill-rule="evenodd"/>
		<path id="Vector" d="M49.42 216.71C48.56 216.96 47.63 217.18 46.5 217.39C45.47 217.57 44.42 217.72 43.41 217.87C42.89 217.94 42.38 218.02 41.87 218.1L38.29 218.69C37.98 218.73 37.7 218.88 37.5 219.13C37.31 219.38 37.22 219.68 37.25 219.99C37.29 220.31 37.44 220.59 37.69 220.78C37.93 220.97 38.22 221.06 38.52 221.04L38.62 221.03C38.82 221.03 39.05 221.02 39.3 221C40 220.93 40.84 220.79 41.52 220.67C41.8 220.63 42.05 220.59 42.25 220.56C42.76 220.48 43.27 220.41 43.78 220.34C45.08 220.16 46.43 219.97 47.74 219.7C48.58 219.53 49.38 219.33 50.13 219.1C50.17 219.09 50.2 219.08 50.23 219.07C50.83 218.83 51.16 218.17 50.97 217.54C50.77 216.88 50.08 216.51 49.42 216.71Z" fill="#242424" fill-opacity="1.000000" fill-rule="nonzero"/>
		<path id="Vector" d="M45.81 188.2C45.54 188.03 45.23 187.97 44.92 188.03L33.62 189.6C33.31 189.63 33.03 189.76 32.83 189.99C32.62 190.22 32.51 190.53 32.53 190.84C32.54 191.16 32.68 191.45 32.91 191.66C33.15 191.87 33.45 191.98 33.77 191.97C34.35 191.94 38.56 191.56 41.92 191.06C43.46 190.84 44.75 190.58 45.42 190.41C45.48 190.4 45.54 190.38 45.6 190.36C45.84 190.26 46.04 190.1 46.18 189.88C46.36 189.6 46.41 189.27 46.34 188.96C46.27 188.64 46.08 188.37 45.81 188.2Z" fill="#242424" fill-opacity="1.000000" fill-rule="nonzero"/>
		<path id="Vector" d="M47.99 192.44C47.71 192.27 47.38 192.22 47.1 192.29C46.91 192.32 46.7 192.36 46.46 192.39C46.23 192.43 45.97 192.47 45.7 192.51C45.06 192.62 44.32 192.76 43.54 192.9C42.44 193.1 41.2 193.33 39.99 193.53C36.54 194.1 33.39 194.58 32.89 194.63C32.57 194.66 32.29 194.8 32.08 195.05C31.88 195.29 31.78 195.6 31.81 195.91C31.83 196.23 31.98 196.51 32.22 196.72C32.46 196.92 32.77 197.02 33.08 196.99C33.92 196.93 39.2 196.27 43.28 195.56C44.92 195.28 46.55 194.94 47.64 194.66C47.7 194.65 47.75 194.63 47.8 194.61C48.05 194.52 48.25 194.34 48.39 194.11C48.56 193.83 48.61 193.51 48.54 193.19C48.46 192.88 48.27 192.61 47.99 192.44Z" fill="#242424" fill-opacity="1.000000" fill-rule="nonzero"/>
		<path id="Vector" d="M33.33 182.75C33.01 182.2 31.77 180.26 31.47 179.7C30.51 177.91 29.57 176.1 29 174.14C27.45 168.85 30.76 165.72 30.72 158.76C30.7 156.45 30.8 153.79 32.64 153.54C33.68 153.4 35.18 154.91 37.33 157.65C39.3 160.15 40.93 162.63 42 165.61C43.49 169.75 43.77 180.92 43.01 181.5C42.57 181.85 35.23 182.44 33.33 182.75Z" fill="#242424" fill-opacity="1.000000" fill-rule="evenodd"/>
	</g>
	<g mask="url(#mask580_1939)">
		<path id="Vector" d="M286.92 172.26C286.27 172.14 293.75 177.53 295.38 178.74C300.19 182.28 330.95 203.82 341.76 210.73C342.49 211.2 352.77 218.1 353.51 217.89C354.41 217.63 359.47 207.45 361.04 204.15C361.09 204.04 342.32 192.1 341.47 191.34C341.16 191.07 343.34 189.17 342.74 188.74C339.79 186.6 303.85 161.58 301.49 160.57C301.05 160.38 298.82 163.85 298.56 163.67C297.42 162.9 296.13 161.99 294.97 161.35C294.54 161.11 293.61 162.95 293.38 162.78C292.33 162.02 287.12 158.23 286.2 158.01C285.72 157.9 281.52 164.06 281.13 164.9C280.91 165.4 285.78 168.74 287.91 170.31C288.13 170.48 287.31 171.06 286.92 172.26Z" fill="#C6F432" fill-opacity="1.000000" fill-rule="evenodd"/>
		<path id="Vector" d="M292.68 162.93C292.33 163.02 292.03 163.25 291.85 163.57C291.63 163.95 291.29 164.48 290.8 165.19C290.39 165.79 289.91 166.43 289.49 166.99C289.14 167.46 288.81 167.9 288.56 168.27C288.38 168.52 288.25 168.73 288.16 168.89C288.12 168.95 288.09 169 288.07 169.04C287.88 169.27 287.79 169.56 287.81 169.86C287.83 170.17 287.98 170.46 288.21 170.66C288.45 170.87 288.75 170.97 289.07 170.95C289.38 170.93 289.66 170.79 289.86 170.56C290.1 170.31 290.88 169.46 291.71 168.42C292.66 167.24 293.66 165.83 294.2 164.92C294.29 164.77 294.35 164.61 294.37 164.44C294.4 164.26 294.39 164.07 294.34 163.89C294.25 163.54 294.02 163.25 293.71 163.06C293.39 162.88 293.03 162.83 292.68 162.93Z" fill="#242424" fill-opacity="1.000000" fill-rule="nonzero"/>
		<path id="Vector" d="M296.29 164.97L293.1 169.38C292.69 169.85 292.72 170.57 293.19 171.01C293.42 171.22 293.72 171.33 294.03 171.32C294.34 171.31 294.63 171.18 294.84 170.96C295.09 170.72 295.71 170.08 296.41 169.2C296.84 168.65 297.26 168.06 297.63 167.53L326.63 188.18C327.62 188.89 328.99 189.92 330.44 191C332.14 192.28 333.9 193.6 335.46 194.71C336.17 195.22 336.92 195.73 337.75 196.28C338.01 196.46 338.33 196.52 338.64 196.47C338.95 196.41 339.21 196.23 339.39 195.97C339.43 195.91 339.46 195.85 339.49 195.79C339.51 195.77 339.53 195.76 339.54 195.74C339.92 195.33 340.64 194.42 341.06 193.76C341.24 193.49 341.35 193.26 341.4 193.13C341.47 193 341.52 192.86 341.54 192.72C341.61 192.22 341.38 191.69 340.91 191.43C340.31 191.09 339.55 191.29 339.2 191.87C339.18 191.89 339.16 191.91 339.13 191.94C339.06 192.03 338.97 192.14 338.88 192.27C338.63 192.61 338.3 193.1 338.01 193.54L328.04 186.2L298.19 164.73C298.1 164.67 298.01 164.63 297.93 164.59C297.36 164.29 296.65 164.45 296.29 164.97Z" fill="#242424" fill-opacity="1.000000" fill-rule="nonzero"/>
		<path id="Vector" d="M347.78 196.26C347.44 196.3 347.14 196.47 346.94 196.72C346.64 197.1 346.16 197.72 345.61 198.54C344.87 199.64 344.06 200.94 343.28 202.19C342.41 203.6 341.59 204.92 340.99 205.74C340.8 206 340.72 206.31 340.77 206.62C340.81 206.93 340.98 207.21 341.23 207.39C341.75 207.78 342.49 207.67 342.88 207.16C343.28 206.64 343.73 206.02 344.18 205.36C344.75 204.51 345.39 203.53 346.01 202.58C347.07 200.94 348.17 199.25 348.92 198.29C349.06 198.11 349.15 197.91 349.18 197.7C349.24 197.26 349.08 196.81 348.71 196.51C348.44 196.31 348.11 196.22 347.78 196.26Z" fill="#242424" fill-opacity="1.000000" fill-rule="nonzero"/>
	</g>
	<g mask="url(#mask580_1939)">
		<path id="Vector" d="M354.93 16.64C354.18 16.57 323.58 39.34 313.24 46.47C305.58 51.76 287.27 64.87 284.56 66.31C284.25 66.48 292.62 78.67 293.45 78.92C294.09 79.1 368.88 26.31 368.72 26.49L354.93 16.64Z" fill="#00679D" fill-opacity="1.000000" fill-rule="evenodd"/>
		<path id="Vector" d="M293.19 79.29C291.9 79.23 288.94 79.16 286.97 79.01C286.5 78.97 282.14 73.6 282.09 73.31C282.07 73.16 284.17 66.63 284.51 66.53C284.81 66.45 289.48 67.7 289.51 68.02C289.55 68.44 289.46 72.46 289.65 72.68C289.94 73.01 293.44 74.22 293.51 74.45C293.69 75.07 293.16 78.08 293.19 79.29Z" fill="#FFFFFF" fill-opacity="1.000000" fill-rule="evenodd"/>
		<path id="Vector" d="M288.86 71.85C288.78 72.19 288.84 72.54 289.03 72.84C289.41 73.45 290.22 73.64 290.83 73.26C294.82 70.76 299.35 67.68 304.71 63.83C308.93 60.8 313.25 57.58 317.43 54.47C324.03 49.57 330.26 44.93 336.16 40.92C340.1 38.24 346.31 33.85 351.62 30C355.84 26.94 359.44 24.25 361.75 22.44C362.26 22.04 362.35 21.3 361.95 20.79C361.8 20.6 361.62 20.47 361.41 20.4C361.04 20.27 360.62 20.33 360.29 20.58C356.98 23.16 351.59 27.05 347.65 29.87C342.75 33.37 337.82 36.82 334.78 38.87C328.79 42.92 322.48 47.58 315.81 52.51C311.66 55.58 307.38 58.74 303.2 61.73C297.77 65.61 293.4 68.57 289.44 71.03C289.14 71.22 288.94 71.51 288.86 71.85Z" fill="#242424" fill-opacity="1.000000" fill-rule="nonzero"/>
		<path id="Vector" d="M284.15 66.95C284.09 67.63 284.6 68.24 285.29 68.3C285.82 68.35 286.61 68.42 287.35 68.53C287.74 68.59 288.07 68.64 288.33 68.7C288.33 68.71 288.33 68.71 288.33 68.72C288.31 69.17 288.27 69.73 288.23 70.3C288.17 71.11 288.11 71.94 288.1 72.47C288.08 73 288.18 73.49 288.35 73.73C288.56 74.02 289.06 74.27 289.62 74.36C289.92 74.41 290.34 74.46 290.79 74.51C291.41 74.58 292.1 74.66 292.63 74.76C292.63 74.77 292.63 74.78 292.63 74.79L292.6 74.98C292.51 75.56 292.37 76.23 292.25 76.81C292.11 77.51 292.03 77.89 292.03 78.12C292.01 78.8 292.55 79.38 293.23 79.4C293.92 79.42 294.49 78.88 294.52 78.2C294.52 78.07 294.63 77.57 294.71 77.17C294.86 76.45 295.05 75.55 295.12 74.86C295.16 74.49 295.19 73.81 294.98 73.35C294.85 73.06 294.59 72.8 294.26 72.64C294.02 72.52 293.68 72.42 293.24 72.34C292.63 72.22 291.82 72.12 291.12 72.04C290.94 72.02 290.77 72 290.61 71.98C290.64 71.53 290.68 70.99 290.72 70.45C290.77 69.66 290.83 68.9 290.84 68.4C290.85 67.97 290.79 67.41 290.57 67.12C290.38 66.85 290 66.62 289.51 66.44C289.38 66.4 289.23 66.35 289.08 66.32C288.04 66.06 286.39 65.9 285.5 65.82C285.17 65.79 284.85 65.89 284.59 66.1C284.34 66.32 284.18 66.62 284.15 66.95Z" fill="#242424" fill-opacity="1.000000" fill-rule="nonzero"/>
		<path id="Vector" d="M287.39 79.05C286.93 77.53 282.86 72.15 282.44 72.14C282.38 72.14 280.57 76.92 279.96 78.53C279.73 79.14 279.88 79.51 280.6 79.47C283.09 79.32 285.72 79.26 287.39 79.05Z" fill="#242424" fill-opacity="1.000000" fill-rule="evenodd"/>
	</g>
</svg>
