<svg width="350.000000" height="254.000000" viewBox="0 0 350 254" fill="none" xmlns="http://www.w3.org/2000/svg" xmlns:xlink="http://www.w3.org/1999/xlink">
	<desc>
			Created with Pixso.
	</desc>
	<defs>
		<linearGradient x1="174.999985" y1="0.000000" x2="174.999985" y2="254.000000" id="paint_linear_580_2337_0" gradientUnits="userSpaceOnUse">
			<stop stop-color="#97CAFF"/>
			<stop offset="1.000000" stop-color="#D9EDFF"/>
		</linearGradient>
		<linearGradient x1="174.999985" y1="0.000000" x2="174.999985" y2="254.000000" id="paint_linear_580_2339_0" gradientUnits="userSpaceOnUse">
			<stop stop-color="#9DCDFF"/>
			<stop offset="1.000000" stop-color="#F6FBFF"/>
		</linearGradient>
		<linearGradient x1="318.500214" y1="12.078018" x2="87.500275" y2="194.078110" id="paint_linear_580_2340_0" gradientUnits="userSpaceOnUse">
			<stop offset="0.155991" stop-color="#FF6699"/>
			<stop offset="0.940507" stop-color="#5EA1FF"/>
		</linearGradient>
	</defs>
	<rect id="Rectangle 152" width="350.000000" height="254.000000" fill="url(#paint_linear_580_2337_0)" fill-opacity="1.000000"/>
	<mask id="mask580_2339" mask-type="alpha" maskUnits="userSpaceOnUse" x="0.000000" y="0.000000" width="350.000000" height="254.000000">
		<rect id="Rectangle 153" width="350.000000" height="254.000000" fill="url(#paint_linear_580_2339_0)" fill-opacity="1.000000"/>
	</mask>
	<g mask="url(#mask580_2339)">
		<path id="Vector 2710" d="M355.67 96.12C314.84 80.91 215.08 53.88 142.67 67.42C52.17 84.34 71.85 113.9 149.34 141.76C226.82 169.62 259.58 236.75 176.96 233.87C94.34 230.99 13.82 255.14 66.26 285.7C118.71 316.26 71.76 404.28 20.14 412.54" stroke="url(#paint_linear_580_2340_0)" stroke-opacity="0.800000" stroke-width="66.157158" stroke-linecap="round"/>
	</g>
	<g mask="url(#mask580_2339)">
		<path id="Vector" d="M286.74 227.57L286.56 228.59L286.52 228.79L286.17 230.77L285.61 233.88L277.99 233.17L278.2 230.54L278.33 228.8L278.91 221.47L286.74 227.57Z" fill="#EAE0B5" fill-opacity="1.000000" fill-rule="nonzero"/>
		<path id="Vector" d="M287.59 228.56L286.52 228.78L286.16 230.76L278.33 228.8L286.55 228.58L287.59 228.56Z" fill="#EAE0B5" fill-opacity="1.000000" fill-rule="nonzero"/>
		<path id="Vector" d="M278.12 232.37C278.12 232.37 272.96 234.19 270.24 235.51C268.86 236.17 269.02 238.33 270.21 238.33C270.21 238.33 282.52 238.33 284.84 238.33C288.16 238.33 285.86 232.37 285.86 232.37L278.12 232.37Z" fill="#1A1A1A" fill-opacity="1.000000" fill-rule="nonzero"/>
		<path id="Vector" d="M307.52 227.57L307.7 228.59L307.74 228.79L308.65 233.88L316.27 233.17L316.06 230.54L315.93 228.8L315.35 221.47L307.52 227.57Z" fill="#EAE0B5" fill-opacity="1.000000" fill-rule="nonzero"/>
		<path id="Vector" d="M306.66 228.55L307.74 228.78L308.05 230.51L315.93 228.8L307.7 228.58L306.66 228.55Z" fill="#EAE0B5" fill-opacity="1.000000" fill-rule="nonzero"/>
		<path id="Vector" d="M316.14 232.37C316.14 232.37 321.29 234.19 324.02 235.51C325.4 236.17 325.24 238.33 324.05 238.33C324.05 238.33 311.73 238.33 309.41 238.33C306.09 238.33 308.4 232.37 308.4 232.37L316.14 232.37Z" fill="#1A1A1A" fill-opacity="1.000000" fill-rule="nonzero"/>
		<path id="Vector" d="M273.92 228.82L290.22 228.82L296.6 164.96L303.6 228.84C303.72 228.84 320.24 228.84 320.24 228.84L310.29 139.15C302.62 138.14 288.44 142.47 280.85 143.47L273.92 228.82Z" fill="#C6F432" fill-opacity="1.000000" fill-rule="nonzero"/>
		<path id="Vector" d="M292.59 75.6C295.73 74.49 300.92 73.66 304.72 78.59C312.86 78.76 313.79 96.9 302.18 98.5C300.02 100.24 286.52 96.55 289.85 95.12C289.41 94.31 289.31 90.16 288.18 89.42C285.05 87.36 285.35 78.14 292.59 75.6Z" fill="#1A1A1A" fill-opacity="1.000000" fill-rule="nonzero"/>
		<path id="Vector" d="M305.98 93.92C305.59 95.81 304.39 96.43 303.43 95.94C303.38 96.22 303.15 96.78 302.81 97.39C302.86 97.4 303.59 104.13 303.59 104.13C301.77 110.42 291.56 104.69 291.56 104.69L291.86 102.6L292.28 100.64C292.28 100.64 291.98 100.5 291.98 100.5C291.98 100.5 291.52 100.25 291.34 100.14C289.27 98.87 288.24 96.87 287.72 94.84C287.68 94.68 287.64 94.53 287.61 94.37C287.58 94.24 287.56 94.12 287.54 93.99C287.49 93.75 287.46 93.5 287.42 93.26C287.36 92.8 287.32 92.34 287.31 91.9C287.3 91.71 287.29 91.53 287.29 91.36C287.29 91.23 287.29 91.12 287.29 91C287.29 90.79 287.3 90.59 287.31 90.39C287.4 88.17 287.54 87.45 287.84 86.52C288.72 83.7 291 83.18 293.24 83.41C295.09 83.61 297.35 83.71 299.39 85.25C301.73 87.02 302.37 88.85 302.38 91.24C302.38 91.86 302.6 92.16 302.9 92.18C303.11 92.19 303.36 92.08 303.62 91.86C303.78 91.73 303.96 91.58 304.18 91.42C305.26 90.62 306.49 91.42 305.98 93.92Z" fill="#FCC49A" fill-opacity="1.000000" fill-rule="nonzero"/>
		<path id="Vector" d="M290.91 90.12C290.88 90.63 290.51 91.02 290.07 90.99C289.64 90.97 289.31 90.54 289.34 90.04C289.36 89.54 289.74 89.15 290.17 89.17C290.6 89.19 290.94 89.62 290.91 90.12Z" fill="#1A1A1A" fill-opacity="1.000000" fill-rule="nonzero"/>
		<path id="Vector" d="M297.65 90.66C297.62 91.16 297.25 91.55 296.81 91.53C296.38 91.5 296.05 91.08 296.07 90.57C296.1 90.07 296.48 89.68 296.91 89.7C297.34 89.73 297.67 90.15 297.65 90.66Z" fill="#1A1A1A" fill-opacity="1.000000" fill-rule="nonzero"/>
		<path id="Vector" d="M300.72 93.66C300.67 94.52 299.89 95.18 298.97 95.13C298.06 95.08 297.35 94.34 297.4 93.47C297.45 92.6 298.23 91.94 299.15 91.99C300.06 92.04 300.77 92.79 300.72 93.66Z" fill="#DD7F60" fill-opacity="1.000000" fill-rule="nonzero"/>
		<path id="Vector" d="M287.29 91.36C287.29 91.54 287.3 91.72 287.31 91.9C287.32 92.35 287.36 92.81 287.42 93.27C287.45 93.51 287.49 93.75 287.54 94C287.56 94.12 287.58 94.25 287.61 94.38C287.68 94.39 287.74 94.4 287.81 94.4C288.72 94.45 289.5 93.79 289.55 92.92C289.6 92.06 288.9 91.31 287.98 91.26C287.74 91.25 287.51 91.28 287.29 91.36Z" fill="#DD7F60" fill-opacity="1.000000" fill-rule="nonzero"/>
		<path id="Vector" d="M303.87 96.57C304.03 96.59 304.19 96.59 304.35 96.56C304.48 96.54 304.56 96.42 304.54 96.3C304.52 96.17 304.4 96.09 304.28 96.11C303.87 96.18 303.46 96.01 303.21 95.66C303.13 95.56 302.99 95.53 302.89 95.61C302.78 95.68 302.76 95.83 302.84 95.93C303.09 96.28 303.47 96.5 303.87 96.57Z" fill="#1A1A1A" fill-opacity="1.000000" fill-rule="nonzero"/>
		<path id="Vector" d="M288.28 88.33C288.38 88.36 288.48 88.33 288.54 88.25C288.57 88.21 289.27 87.31 290.94 88.04C291.06 88.09 291.19 88.03 291.24 87.92C291.29 87.8 291.24 87.67 291.12 87.62C289.1 86.74 288.21 87.93 288.17 87.98C288.1 88.08 288.12 88.23 288.22 88.3C288.24 88.31 288.26 88.32 288.28 88.33Z" fill="#1A1A1A" fill-opacity="1.000000" fill-rule="nonzero"/>
		<path id="Vector" d="M299.03 89.05C299.1 89.06 299.18 89.04 299.23 88.98C299.32 88.89 299.32 88.75 299.23 88.66C297.93 87.36 296.07 87.73 296 87.75C295.87 87.78 295.79 87.9 295.82 88.02C295.85 88.15 295.97 88.23 296.09 88.2C296.12 88.2 297.79 87.87 298.91 88.98C298.94 89.02 298.99 89.04 299.03 89.05Z" fill="#1A1A1A" fill-opacity="1.000000" fill-rule="nonzero"/>
		<path id="Vector" d="M293.05 93.56C293.44 93.62 293.79 93.53 293.82 93.53C293.94 93.5 294.02 93.37 293.99 93.25C293.96 93.13 293.84 93.05 293.71 93.08C293.71 93.08 292.94 93.25 292.66 92.86C292.36 92.44 292.5 92.11 293.08 90.92L293.11 90.86C293.17 90.75 293.12 90.61 293.01 90.55C292.89 90.5 292.76 90.55 292.7 90.66L292.67 90.72C292.1 91.88 291.82 92.47 292.29 93.13C292.48 93.4 292.78 93.51 293.05 93.56Z" fill="#1A1A1A" fill-opacity="1.000000" fill-rule="nonzero"/>
		<path id="Vector" d="M296.86 100.96C295.59 101.26 292.95 102.31 291.85 102.6L292.27 100.64C293.92 101.31 295.45 101.22 296.86 100.96Z" fill="#1A1A1A" fill-opacity="1.000000" fill-rule="nonzero"/>
		<path id="Vector" d="M304.95 79.45C304.95 79.45 304.94 79.45 304.94 79.45C304.83 79.46 304.74 79.38 304.73 79.28C304.68 78.68 304.82 78.08 305.14 77.61C305.49 77.06 306.04 76.71 306.71 76.6C306.81 76.58 306.91 76.65 306.93 76.75C306.95 76.86 306.88 76.96 306.77 76.98C305.52 77.2 305.03 78.31 305.11 79.24C305.12 79.34 305.05 79.43 304.95 79.45Z" fill="#1A1A1A" fill-opacity="1.000000" fill-rule="nonzero"/>
		<path id="Vector" d="M304.71 79.19C304.63 79.21 304.54 79.16 304.5 79.08C304.48 79.03 303.97 77.79 304.7 76.62C304.76 76.53 304.88 76.5 304.97 76.55C305.06 76.61 305.09 76.73 305.03 76.82C304.4 77.82 304.85 78.92 304.86 78.93C304.9 79.03 304.85 79.14 304.76 79.18C304.74 79.19 304.73 79.19 304.71 79.19Z" fill="#1A1A1A" fill-opacity="1.000000" fill-rule="nonzero"/>
		<path id="Vector" d="M295.22 94.68C295.22 94.96 294.77 96.49 293.09 96.45C291.56 96.42 290.99 94.41 291.43 94.57C291.66 94.66 292.52 94.89 293.03 94.89C294.44 94.9 295.22 94.43 295.22 94.68Z" fill="#EADED5" fill-opacity="1.000000" fill-rule="nonzero"/>
		<path id="Vector" d="M258.96 109.09C258.47 106.94 265.61 103.59 267.74 105.35C268.81 107 260.01 111.49 258.96 109.09Z" fill="#1A1A1A" fill-opacity="1.000000" fill-rule="nonzero"/>
		<path id="Vector" d="M274.31 117.79C274.31 117.79 269.83 108.96 268.5 106.3C268.03 105.36 267.61 104.35 267.54 104.06C267.53 103.99 268.19 101.24 268.1 100.3C268 99.31 267.27 97.99 266.93 96.66C266.75 95.93 266.53 95.73 266.26 95.8C265.91 95.89 265.63 96.48 265.67 96.97C265.71 97.55 265.81 98.3 265.87 98.86C265.92 99.2 265.87 99.49 265.79 99.66L263.54 93.69C263.23 93.06 262.86 92.87 262.59 92.98C262.34 93.09 262.07 93.47 262.23 93.98C262.6 95.09 263.4 97.3 263.24 97.33C263.21 97.33 263.29 97.39 263.27 97.34C262.98 96.67 261.31 93.09 261.31 93.09C261.04 92.6 260.65 92.46 260.4 92.61C260.09 92.79 260.01 93.17 260.13 93.55C260.28 93.99 261.78 97.23 261.87 97.83C261.88 97.89 261.96 97.97 261.92 97.92C261.53 97.46 259.83 94.13 259.83 94.13C259.53 93.52 259.2 93.5 258.94 93.63C258.68 93.75 258.57 94.24 258.78 94.76C259.26 95.96 260.79 98.69 260.66 98.76C260.64 98.77 260.7 98.71 260.66 98.67C260.35 98.42 259.65 96.82 259.32 96.19C259.07 95.72 258.63 95.56 258.37 95.69C258.12 95.81 258.01 96.2 258.23 96.69C258.6 97.58 259.02 98.87 259.35 99.68C259.47 99.97 259.45 100.3 259.51 100.6C260.09 103.45 261.32 105.06 262.31 106.54C262.6 106.97 265.07 116.28 266.84 120.58C267.74 122.78 275.13 120.56 274.31 117.79Z" fill="#FCC49A" fill-opacity="1.000000" fill-rule="nonzero"/>
		<path id="Vector" d="M264.34 103.7C264.26 103.7 264.18 103.65 264.14 103.57C263.54 102.12 264.69 100.43 264.74 100.36C264.81 100.27 264.94 100.24 265.04 100.31C265.13 100.38 265.16 100.51 265.09 100.61C265.08 100.62 264.03 102.17 264.54 103.41C264.59 103.52 264.53 103.64 264.42 103.69C264.4 103.7 264.37 103.7 264.34 103.7Z" fill="#1A1A1A" fill-opacity="1.000000" fill-rule="nonzero"/>
		<path id="Vector" d="M258.96 109.09C259.63 110.92 264.46 126 266.2 130.13C267.86 134.1 270.87 137.47 276.29 137.47C276.64 137.47 277 137.45 277.37 137.43C277.9 137.39 278.68 137.35 279.61 137.28C282.02 137.11 285.42 136.83 287.94 136.41C292.03 135.73 279.57 123.06 279.57 123.06C277.25 119.34 269.02 106.65 267.62 104.37C269.54 107.48 259.73 110.91 258.96 109.09Z" fill="#FBFBFB" fill-opacity="1.000000" fill-rule="nonzero"/>
		<path id="Vector" d="M276.01 128.53C276.07 128.53 280.87 129.2 280.87 129.2C280.9 129.2 278.2 148.22 278.2 148.22C278.54 148.77 301.17 149.37 314.19 147.66C314.19 147.66 313.33 137.23 312.89 133.73C314.58 133.82 323.32 136.27 323.54 133.29C323.67 131.42 322.14 121.43 319.91 115.71C317.48 109.48 315.98 102.94 303.43 102.67C301.16 104.4 294.42 104.33 291.87 102.6C278.92 102.6 277.01 110.14 270.07 122.8C269.64 123.57 276.01 128.53 276.01 128.53Z" fill="#FBFBFB" fill-opacity="1.000000" fill-rule="nonzero"/>
		<path id="Vector" d="M320.97 157.73C320.38 160.17 310.47 159.07 310.65 156.72C312.79 152.99 321.7 153.76 320.97 157.73Z" fill="#1A1A1A" fill-opacity="1.000000" fill-rule="nonzero"/>
		<path id="Vector" d="M310.44 157.08C309.26 158.19 308.58 159.1 308.42 160.68C308.32 161.63 308.24 162.84 307.67 164.11C307.39 164.76 307.37 165.3 307.83 165.52C308.29 165.74 308.55 165.42 308.88 165.02C309.39 164.43 310.28 162.63 310.32 162.56C310.44 162.68 310.01 164.81 310.01 164.81L309.17 168.3C309.04 168.66 309.17 169.14 309.72 169.31C309.9 169.36 310.08 169.36 310.24 169.29C310.24 169.29 310 169.94 310.63 170.25C311.37 170.6 311.83 169.35 311.86 169.29C311.69 169.63 311.76 170.07 312.1 170.25C312.42 170.41 312.77 170.27 313.01 170C313.2 169.79 313.64 168.97 313.82 168.67C313.78 168.9 313.89 169.1 314.07 169.24C314.31 169.44 314.79 169.42 314.99 169.1C315.68 167.96 316.25 166.12 316.42 164.95C316.78 162.63 316.69 158.52 316.69 158.52L318.54 149.08L311.45 142.44C311.45 142.44 310.92 156.63 310.44 157.08Z" fill="#FCC49A" fill-opacity="1.000000" fill-rule="nonzero"/>
		<path id="Vector" d="M313.82 168.77C313.8 168.77 313.78 168.77 313.76 168.76C313.66 168.72 313.61 168.6 313.65 168.5C313.98 167.66 314.39 166.52 314.59 165.12C314.6 165.01 314.71 164.93 314.82 164.95C314.93 164.97 315 165.07 314.99 165.18C314.78 166.61 314.36 167.79 314.02 168.65C313.99 168.73 313.91 168.78 313.82 168.77Z" fill="#1A1A1A" fill-opacity="1.000000" fill-rule="nonzero"/>
		<path id="Vector" d="M311.79 169.63C311.76 169.63 311.73 169.62 311.71 169.61C311.61 169.56 311.57 169.43 311.63 169.34C312.32 168.06 313.12 164.94 313.13 164.91C313.16 164.8 313.27 164.74 313.38 164.76C313.48 164.79 313.55 164.9 313.52 165.01C313.49 165.14 312.7 168.21 311.98 169.53C311.94 169.6 311.87 169.64 311.79 169.63Z" fill="#1A1A1A" fill-opacity="1.000000" fill-rule="nonzero"/>
		<path id="Vector" d="M310.23 169.36C310.2 169.35 310.18 169.35 310.15 169.34C310.05 169.29 310.01 169.17 310.05 169.07C311.03 166.96 311.53 164.6 311.54 164.58C311.56 164.47 311.67 164.4 311.78 164.42C311.88 164.44 311.95 164.55 311.93 164.66C311.93 164.68 311.41 167.08 310.42 169.24C310.38 169.32 310.31 169.36 310.23 169.36Z" fill="#1A1A1A" fill-opacity="1.000000" fill-rule="nonzero"/>
		<path id="Vector" d="M323.56 131.32C323.72 135.27 323.23 145.66 320.97 157.73C321.4 155.16 311.13 154.91 310.57 156.61C310.58 155.96 309.62 139.15 307.94 131.17C307.94 131.17 305.89 121.64 302.3 116.64C297.69 110.22 309.96 100.98 315.68 107.23C320.27 112.23 323.38 126.51 323.56 131.32Z" fill="#FBFBFB" fill-opacity="1.000000" fill-rule="nonzero"/>
		<path id="Vector" d="M309.93 149.98C309.82 149.97 309.73 149.88 309.72 149.77C309.58 146.22 309.19 136.88 309 136.17C308.77 135.29 305.69 125.25 305.66 125.15C305.63 125.04 305.69 124.91 305.81 124.88C305.93 124.84 306.05 124.91 306.09 125.02C306.21 125.44 309.2 135.17 309.43 136.06C309.66 136.96 310.14 149.23 310.16 149.75C310.17 149.87 310.07 149.97 309.95 149.98C309.94 149.98 309.94 149.98 309.93 149.98Z" fill="#1A1A1A" fill-opacity="1.000000" fill-rule="nonzero"/>
		<path id="Vector" d="M277.14 119.06C277.06 119.06 276.98 119.02 276.94 118.95L274.24 114.75C274.17 114.64 274.21 114.49 274.32 114.42C274.43 114.35 274.57 114.38 274.65 114.49L277.34 118.69C277.41 118.8 277.38 118.95 277.27 119.02C277.23 119.05 277.18 119.06 277.14 119.06Z" fill="#1A1A1A" fill-opacity="1.000000" fill-rule="nonzero"/>
		<path id="Vector" d="M144.77 62.63C128.79 57.49 81.78 39.31 81.78 39.31L75.46 36.96C70.84 35.25 66.73 35.82 61.88 37.75C60.75 38.2 59.62 38.26 58.21 38.52C55.93 38.93 54.86 39.69 54.19 41C53.49 42.38 53.8 44.14 54.8 46.16C57.57 51.76 59.43 53 64.5 54.88C64.5 54.88 118.49 73.34 136.75 78.61C146.56 81.44 147.63 80.53 160.57 78.61C168.92 77.37 170.78 76.76 171.4 75.21C172.12 73.39 172.1 71.88 161.5 68.09C157.17 66.55 154.07 65.62 144.77 62.63Z" fill="#D9DDFF" fill-opacity="1.000000" fill-rule="nonzero"/>
		<path id="Vector" d="M150.34 71.05L163.37 77.51L173 56.92C168.04 54.86 167.38 54.39 164.71 56.84C160.84 60.4 150.34 71.05 150.34 71.05Z" fill="#D9DDFF" fill-opacity="1.000000" fill-rule="nonzero"/>
		<path id="Vector" d="M165.82 48.22C138.35 49.55 76.13 52.45 76.13 52.45L113.75 63.87C113.75 63.87 145.43 56.64 167.8 50.72C170.68 49.96 171.27 49.67 171.85 47.33C172.19 45.98 172.88 42.94 172.88 42.94L171.85 43.23C171.85 43.23 171.28 45.14 170.68 46.45C169.95 48.06 169.07 48.06 165.82 48.22Z" fill="#D9DDFF" fill-opacity="1.000000" fill-rule="nonzero"/>
		<path id="Vector" d="M72.89 69.53C97.84 61.31 120.98 51.39 120.98 51.39L137.68 58.81C137.68 58.81 93.95 70.06 71.98 72.44C69.15 72.75 68.53 72.69 67.21 70.8C66.44 69.71 64.79 67.24 64.79 67.24L65.8 67.15C65.8 67.15 66.97 68.65 67.95 69.62C69.15 70.8 69.94 70.5 72.89 69.53Z" fill="#D9DDFF" fill-opacity="1.000000" fill-rule="nonzero"/>
		<path id="Vector" d="M99.17 73.82L87.76 70.05C83.45 68.63 87.07 57.66 91.38 59.08L102.79 62.84C105.5 63.74 101.88 74.71 99.17 73.82Z" fill="#D9DDFF" fill-opacity="1.000000" fill-rule="nonzero"/>
		<path id="Vector" d="M139.38 65.47L127.97 61.7C123.66 60.28 127.28 49.31 131.59 50.73L143 54.5C145.71 55.39 142.09 66.36 139.38 65.47Z" fill="#D9DDFF" fill-opacity="1.000000" fill-rule="nonzero"/>
		<path id="Vector" d="M235.85 184.4C235.96 184.4 236.05 184.31 236.05 184.2L236.05 -4.12C236.05 -4.23 235.96 -4.32 235.85 -4.32C235.73 -4.32 235.64 -4.23 235.64 -4.12L235.64 184.2C235.64 184.31 235.73 184.4 235.85 184.4Z" fill="#FBFBFB" fill-opacity="1.000000" fill-rule="nonzero"/>
		<path id="Vector" d="M236.05 184.2L236.05 -4.12C236.05 -4.23 235.96 -4.32 235.85 -4.32C235.73 -4.32 235.64 -4.23 235.64 -4.12L235.64 184.2C235.64 184.31 235.73 184.4 235.85 184.4C235.96 184.4 236.05 184.31 236.05 184.2Z" stroke="#FBFBFB" stroke-opacity="1.000000" stroke-width="1.000000"/>
		<path id="Vector" d="M114.15 184.4C114.26 184.4 114.35 184.31 114.35 184.2L114.35 -4.12C114.35 -4.23 114.26 -4.32 114.15 -4.32C114.03 -4.32 113.94 -4.23 113.94 -4.12L113.94 184.2C113.94 184.31 114.03 184.4 114.15 184.4Z" fill="#FBFBFB" fill-opacity="1.000000" fill-rule="nonzero"/>
		<path id="Vector" d="M114.35 184.2L114.35 -4.12C114.35 -4.23 114.26 -4.32 114.15 -4.32C114.03 -4.32 113.94 -4.23 113.94 -4.12L113.94 184.2C113.94 184.31 114.03 184.4 114.15 184.4C114.26 184.4 114.35 184.31 114.35 184.2Z" stroke="#FBFBFB" stroke-opacity="1.000000" stroke-width="1.000000"/>
		<path id="Vector" d="M0 51.26L0 76.4C14.75 76.67 34.99 77.17 41.92 77.17C47.21 77.17 46.56 69.52 39.57 67.27C33.67 65.36 35.69 60.71 31.67 58.07C26.36 54.58 22.71 60 15.66 52.95C13.41 50.7 7.53 44.28 0 51.26Z" fill="#FFFFFF" fill-opacity="1.000000" fill-rule="nonzero"/>
		<path id="Vector" d="M195.46 134.2C195.73 137.72 206.3 138.4 207.25 135.83C208.47 132.98 197.31 125.73 195.46 134.2Z" fill="#1A1A1A" fill-opacity="1.000000" fill-rule="nonzero"/>
		<path id="Vector" d="M200.88 113.6C200.88 113.6 195.96 131.61 195.46 134.2C195.44 134.29 194.19 136.39 193.7 137.59C193.18 138.85 193.06 141.68 193.05 142.82C193.02 144.9 194.92 144.23 195.19 143.01C195.36 142.23 201.93 142.85 202.1 142.46C203.46 139.35 202.89 137.71 202.64 135.28C202.57 134.57 208.38 124.63 209.01 117.26C209.21 114.93 202.13 106.6 200.88 113.6Z" fill="#FCC49A" fill-opacity="1.000000" fill-rule="nonzero"/>
		<path id="Vector" d="M206.47 141.22L192.86 141.22C191.21 141.22 189.88 142.56 189.88 144.2L189.88 170.39L190.37 170.39L190.37 144.2C190.37 142.83 191.48 141.71 192.86 141.71L206.47 141.71C207.84 141.71 208.96 142.83 208.96 144.2L208.96 170.39L209.44 170.39L209.44 144.2C209.44 142.56 208.11 141.22 206.47 141.22Z" fill="#1A1A1A" fill-opacity="1.000000" fill-rule="nonzero"/>
		<path id="Vector" d="M206.05 142.44L193.17 142.44C192.68 142.44 192.29 142.05 192.29 141.56L192.29 141.28C192.29 140.8 192.68 140.41 193.17 140.41L206.05 140.41C206.53 140.41 206.93 140.8 206.93 141.28L206.93 141.56C206.93 142.05 206.53 142.44 206.05 142.44Z" fill="#C6F432" fill-opacity="1.000000" fill-rule="nonzero"/>
		<path id="Vector" d="M198.8 136.57C198.89 136.6 198.94 136.7 198.91 136.79C198.91 136.81 198.2 139.12 195.6 139.18C195.5 139.19 195.42 139.11 195.42 139.01C195.41 138.91 195.49 138.82 195.59 138.82C197.93 138.76 198.56 136.71 198.57 136.69C198.59 136.59 198.69 136.53 198.79 136.56C198.79 136.56 198.8 136.57 198.8 136.57Z" fill="#1A1A1A" fill-opacity="1.000000" fill-rule="nonzero"/>
		<path id="Vector" d="M201.48 140.59C201.09 140.58 200.66 141.11 200.6 141.44C200.59 141.46 200.52 141.6 200.51 141.54C200.67 140.81 200.92 139.78 200.23 139.55C199.84 139.43 199.28 139.44 199.1 140.02C199.03 140.25 199.06 140.23 198.99 140.47C199 140.27 198.99 140.08 198.98 139.91C198.95 139.49 198.75 139.17 198.45 139.04C198.36 139 198.26 138.98 198.15 138.97C197.77 138.92 197.31 139.06 197.18 139.94C197.15 140.14 197.09 140.81 197.09 140.81C197.18 140.7 197.04 140.42 196.98 140.35C196.88 140.21 196.75 140.11 196.6 140.04C196.53 140.01 196.44 139.98 196.36 139.97C196.06 139.93 195.64 139.99 195.39 140.55C195.38 140.58 195.37 140.62 195.35 140.65C195.2 141.06 195.08 142.76 195.08 142.77C194.92 143.68 196.27 144.09 196.71 143.43C196.95 144.09 198.17 144.36 198.58 143.68C198.61 143.62 198.46 143.53 198.5 143.59C198.98 144.22 199.93 144.22 200.47 143.41C200.55 143.3 200.34 143.41 200.34 143.41C200.34 143.41 201.42 143.82 201.96 142.73C202.18 142.31 202.15 141.72 202.15 141.67C202.19 141 201.86 140.59 201.48 140.59Z" fill="#FCC49A" fill-opacity="1.000000" fill-rule="nonzero"/>
		<path id="Vector" d="M202.01 140.62C202.63 141.13 202.26 142.53 202.24 142.6C202.21 142.71 202.1 142.77 201.99 142.74C201.88 142.71 201.82 142.6 201.85 142.49C201.95 142.12 202.13 141.01 201.62 140.86C201.46 140.81 201.32 140.83 201.2 140.91C200.83 141.13 200.62 141.81 200.57 142.06C200.57 142.07 200.57 142.07 200.57 142.07C200.54 142.18 200.44 142.25 200.33 142.23C200.22 142.21 200.15 142.11 200.17 142C200.17 141.99 200.17 141.99 200.17 141.99C200.18 141.93 200.27 141.48 200.35 140.93C200.5 139.99 200.31 139.75 199.98 139.68C199.76 139.62 199.31 139.74 199.07 140.51C199.04 140.61 198.94 140.67 198.84 140.65C198.78 140.64 198.67 140.6 198.67 140.4C198.69 139.85 198.59 139.19 198.06 139.17C197.95 139.16 197.62 139.15 197.42 139.74C197.27 140.19 197.27 140.52 197.27 140.53C197.26 140.63 197.19 140.71 197.1 140.72C197 140.74 196.9 140.68 196.87 140.59C196.85 140.53 196.65 140.03 196.19 140.14C195.41 140.32 195.27 142.29 195.28 142.96C195.28 143.07 195.19 143.17 195.08 143.17C194.97 143.17 194.88 143.08 194.87 142.97C194.87 142.67 194.86 140.04 196.1 139.74C196.46 139.65 196.74 139.78 196.94 139.97C196.96 139.86 196.99 139.74 197.04 139.61C197.28 138.89 197.73 138.75 198.07 138.76C198.67 138.78 198.92 139.25 199.02 139.71C199.37 139.27 199.81 139.22 200.08 139.28C200.82 139.45 200.85 140.2 200.79 140.71C200.85 140.65 200.92 140.6 200.98 140.56C201.21 140.42 201.47 140.39 201.73 140.47C201.84 140.5 201.94 140.55 202.01 140.62Z" fill="#1A1A1A" fill-opacity="1.000000" fill-rule="nonzero"/>
		<path id="Vector" d="M207.02 81.89C204.99 86.23 202.78 98.69 202.1 105.2C202.1 105.2 196.46 130.11 195.46 134.2C196.11 131.56 207.93 133.12 207.25 135.83C207.25 135.83 217.64 114.36 218.05 113.76L225.46 73.08C222.61 73.22 211.17 73.05 207.02 81.89Z" fill="#FF6699" fill-opacity="1.000000" fill-rule="nonzero"/>
		<path id="Vector" d="M216.39 234.97C217.38 235.95 217.38 237.55 216.39 238.53C215.41 239.52 213.81 239.52 212.83 238.53C211.85 237.55 211.85 235.95 212.83 234.97C213.81 233.99 215.41 233.99 216.39 234.97Z" fill="#1A1A1A" fill-opacity="1.000000" fill-rule="evenodd"/>
		<path id="Vector" d="M190.68 236.35C190.9 237.72 189.97 239.01 188.59 239.23C187.22 239.46 185.93 238.52 185.7 237.15C185.48 235.78 186.41 234.48 187.79 234.26C189.16 234.04 190.45 234.97 190.68 236.35Z" fill="#1A1A1A" fill-opacity="1.000000" fill-rule="evenodd"/>
		<path id="Vector" d="M184.77 234.42C186.05 234.95 186.66 236.43 186.13 237.71C185.6 239 184.12 239.61 182.84 239.08C181.55 238.54 180.94 237.07 181.48 235.79C182.01 234.5 183.48 233.89 184.77 234.42Z" fill="#1A1A1A" fill-opacity="1.000000" fill-rule="evenodd"/>
		<path id="Vector" d="M177.86 234.4L207.39 234.4C211.78 234.4 215.35 230.83 215.35 226.44L221.04 178.32C221.04 173.93 217.48 170.23 213.08 170.23L177.86 170.23C173.46 170.23 169.9 173.93 169.9 178.32L169.9 226.44C169.9 230.83 173.46 234.4 177.86 234.4Z" fill="#77941B" fill-opacity="1.000000" fill-rule="nonzero"/>
		<path id="Vector" d="M173.72 179.91L173.72 224.85C173.72 227.48 174.74 229.96 176.58 231.85C178.44 233.75 180.9 234.8 183.5 234.8L188.18 234.8C188.32 234.8 188.43 234.69 188.43 234.56C188.43 234.42 188.32 234.31 188.18 234.31L183.5 234.31C181.03 234.31 178.7 233.32 176.93 231.51C175.17 229.71 174.21 227.35 174.21 224.85L174.21 179.91C174.21 177.41 175.17 175.05 176.93 173.25C178.7 171.44 181.03 170.45 183.5 170.45L214.94 170.45C215.07 170.45 215.18 170.34 215.18 170.2C215.18 170.07 215.07 169.96 214.94 169.96L183.5 169.96C180.9 169.96 178.44 171.01 176.58 172.91C174.74 174.8 173.72 177.28 173.72 179.91Z" fill="#1A1A1A" fill-opacity="1.000000" fill-rule="nonzero"/>
		<path id="Vector" d="M186.96 234.4L216.49 234.4C220.88 234.4 224.45 230.84 224.45 226.44L224.45 178.33C224.45 174.01 220.94 170.51 216.63 170.51L186.96 170.51C182.56 170.51 179 174.07 179 178.46L179 226.44C179 230.84 182.56 234.4 186.96 234.4Z" fill="#C6F432" fill-opacity="1.000000" fill-rule="nonzero"/>
		<path id="Vector" d="M172.36 184.86C172.47 184.86 172.56 184.8 172.6 184.69L174.06 180.14C174.1 180.01 174.03 179.88 173.9 179.84C173.77 179.79 173.64 179.87 173.59 179.99L172.13 184.54C172.09 184.67 172.16 184.81 172.29 184.85C172.31 184.86 172.34 184.86 172.36 184.86Z" fill="#1A1A1A" fill-opacity="1.000000" fill-rule="nonzero"/>
		<path id="Vector" d="M204.24 239.29L222.47 239.34C223.67 239.34 224.66 238.64 224.66 237.44C224.67 236.51 224.49 235.49 224.33 234.55C224.29 234.28 224.62 231.37 225.14 226.93C225.14 226.93 225.14 226.93 225.14 226.93C226.32 216.9 228.5 199.06 229.62 186.41L214.85 186.95L215.35 225.48L215.4 229.6L215.43 231.67C215.43 232.17 215.11 232.62 214.64 232.78C213.43 233.19 211.22 233.81 209.1 234.43C207.35 234.95 205.66 235.46 204.63 235.87C201.63 237.06 203.27 239.29 204.24 239.29Z" fill="#FCC49A" fill-opacity="1.000000" fill-rule="nonzero"/>
		<path id="Vector" d="M204.24 239.29L222.47 239.34C223.67 239.34 224.66 238.64 224.66 237.44C224.67 236.51 224.49 235.49 224.33 234.55C223.66 234.39 222.87 234.38 221.95 234.62C218.54 235.52 214.7 236.44 213.74 236.35C212.21 236.21 210.29 234.96 209.1 234.43C207.35 234.94 205.66 235.46 204.63 235.87C201.63 237.06 203.27 239.29 204.24 239.29Z" fill="#1A1A1A" fill-opacity="1.000000" fill-rule="nonzero"/>
		<path id="Vector" d="M269.22 239.29L250.99 239.34C249.79 239.34 248.8 238.64 248.8 237.44C248.79 236.51 248.97 235.49 249.13 234.55C249.17 234.28 248.84 231.37 248.32 226.93C248.32 226.93 248.32 226.93 248.32 226.93C247.14 216.9 244.96 199.06 243.84 186.41L258.61 186.95L258.11 225.48L258.06 229.6L258.03 231.67C258.03 232.17 258.35 232.62 258.82 232.78C260.03 233.19 262.24 233.81 264.36 234.43C266.11 234.95 267.8 235.46 268.83 235.87C271.83 237.06 270.19 239.29 269.22 239.29Z" fill="#FCC49A" fill-opacity="1.000000" fill-rule="nonzero"/>
		<path id="Vector" d="M269.22 239.29L250.99 239.34C249.79 239.34 248.8 238.64 248.8 237.44C248.79 236.51 248.97 235.49 249.13 234.55C249.8 234.39 250.59 234.38 251.51 234.62C254.92 235.52 258.76 236.44 259.72 236.35C261.25 236.21 263.17 234.96 264.36 234.43C266.11 234.94 267.8 235.46 268.83 235.87C271.83 237.06 270.19 239.29 269.22 239.29Z" fill="#1A1A1A" fill-opacity="1.000000" fill-rule="nonzero"/>
		<path id="Vector" d="M209.6 226.98L230.77 226.98L232.56 162.89L233.83 146.34C233.83 146.34 258.52 163.31 258.52 146.66C257.44 132.84 250.86 123.48 247.2 117.61C241.78 108.89 225.57 114.51 215.49 115.85C213.46 121.81 208.7 137.72 208.2 148.51C207.39 166.26 209.6 226.98 209.6 226.98Z" fill="#00679D" fill-opacity="1.000000" fill-rule="nonzero"/>
		<path id="Vector" d="M258.39 145.3C261.5 182.3 263.78 227.02 263.78 227.02L242.77 227.02L231.93 138.21L258.39 145.3Z" fill="#00679D" fill-opacity="1.000000" fill-rule="nonzero"/>
		<path id="Vector" d="M240.94 43.32C247.53 41.43 250.64 48.98 249.84 57.62C249.08 65.89 244.99 71.6 238.04 71.34C238.04 71.34 232.86 68.46 226.7 67.58C212.08 61.65 215.31 40.71 227.93 39.78C232.68 39.43 238.78 36.66 240.94 43.32Z" fill="#1A1A1A" fill-opacity="1.000000" fill-rule="nonzero"/>
		<path id="Vector" d="M226 67.92L224.91 73.07L233.03 71.14L232.9 69.65L226 67.92Z" fill="#1A1A1A" fill-opacity="1.000000" fill-rule="nonzero"/>
		<path id="Vector" d="M222.4 61.42C222.41 61.69 222.44 61.97 222.47 62.25C222.51 62.57 222.56 62.9 222.62 63.22C223.03 65.47 223.96 67.71 225.95 69.21C226.01 69.25 226.07 69.29 226.13 69.34C227.49 70.29 229.64 71.04 232.65 70.38L224.91 73.07C224.91 73.07 223.36 78.13 223.83 78.36C225.99 79.42 233.45 78.57 239.01 74.43C239.01 74.43 238.55 67.12 238.58 67.07C238.98 66.21 239.25 65.35 239.37 64.84C240.65 65.29 241.97 64.12 242.5 61.98C243.19 59.14 241.56 58.17 240.37 59.06C240.13 59.23 239.92 59.4 239.75 59.54C239.46 59.78 239.2 59.9 238.98 59.88C238.65 59.85 238.53 59.51 238.48 58.8C237.86 50.93 234.41 48.49 231.53 47.6C226.09 45.92 223.3 50.92 223.24 53.75C223.21 54.87 222.67 55.62 222.44 58.15C222.43 58.37 222.41 58.6 222.39 58.84C222.37 59.17 222.36 59.51 222.35 59.86C222.35 60.37 222.36 60.89 222.4 61.42Z" fill="#FCC49A" fill-opacity="1.000000" fill-rule="nonzero"/>
		<path id="Vector" d="M225.25 54.15C226.47 54.05 227.45 54.64 227.46 54.65C227.55 54.71 227.58 54.82 227.52 54.91C227.47 55 227.35 55.03 227.26 54.98C227.18 54.93 225.35 53.83 223.68 55.17C223.6 55.23 223.48 55.22 223.41 55.14C223.35 55.06 223.36 54.94 223.44 54.87C224.05 54.39 224.68 54.19 225.25 54.15Z" fill="#1A1A1A" fill-opacity="1.000000" fill-rule="nonzero"/>
		<path id="Vector" d="M234.8 55.02C233.65 54.62 232.55 54.94 232.53 54.95C232.43 54.98 232.38 55.08 232.41 55.19C232.44 55.29 232.54 55.34 232.64 55.31C232.73 55.29 234.78 54.69 236.06 56.41C236.12 56.49 236.24 56.51 236.32 56.45C236.41 56.38 236.43 56.26 236.36 56.18C235.9 55.56 235.34 55.21 234.8 55.02Z" fill="#1A1A1A" fill-opacity="1.000000" fill-rule="nonzero"/>
		<path id="Vector" d="M226.26 57.34C226.21 57.91 225.77 58.34 225.27 58.29C224.78 58.25 224.42 57.75 224.47 57.17C224.53 56.6 224.97 56.17 225.46 56.21C225.96 56.26 226.32 56.76 226.26 57.34Z" fill="#1A1A1A" fill-opacity="1.000000" fill-rule="nonzero"/>
		<path id="Vector" d="M234.39 58.18C234.33 58.76 233.89 59.19 233.4 59.14C232.9 59.09 232.54 58.59 232.6 58.02C232.65 57.44 233.09 57.02 233.59 57.06C234.08 57.11 234.44 57.61 234.39 58.18Z" fill="#1A1A1A" fill-opacity="1.000000" fill-rule="nonzero"/>
		<path id="Vector" d="M228.98 61.87C228.57 61.8 228.2 61.6 227.95 61.31C227.68 60.98 227.61 60.59 227.76 60.23C228.04 59.55 228.28 58.92 228.48 58.39C228.6 58.12 228.95 58.27 228.83 58.54C228.63 59.07 228.39 59.7 228.11 60.37C228.02 60.6 228.07 60.85 228.25 61.07C228.48 61.35 229 61.62 229.7 61.48C229.81 61.46 229.91 61.52 229.93 61.62C229.95 61.73 229.89 61.83 229.78 61.85C229.51 61.91 229.24 61.91 228.98 61.87Z" fill="#1A1A1A" fill-opacity="1.000000" fill-rule="nonzero"/>
		<path id="Vector" d="M237.31 62.25C237.21 63.24 236.29 63.96 235.25 63.87C234.21 63.77 233.44 62.89 233.53 61.9C233.62 60.91 234.54 60.19 235.59 60.29C236.63 60.39 237.4 61.27 237.31 62.25Z" fill="#DD7F60" fill-opacity="1.000000" fill-rule="nonzero"/>
		<path id="Vector" d="M222.39 58.83C222.37 59.17 222.36 59.51 222.36 59.86C222.35 60.36 222.36 60.89 222.4 61.41C222.42 61.69 222.44 61.97 222.47 62.24C222.6 62.28 222.73 62.31 222.87 62.32C223.91 62.42 224.83 61.7 224.92 60.71C225.01 59.72 224.24 58.84 223.2 58.74C222.92 58.72 222.64 58.75 222.39 58.83Z" fill="#DD7F60" fill-opacity="1.000000" fill-rule="nonzero"/>
		<path id="Vector" d="M230.94 63.41C231.28 63.35 230.58 65.58 228.68 65.35C226.78 65.12 226.55 62.67 227 62.94C228.11 63.87 229.68 63.94 230.94 63.41Z" fill="#EADED5" fill-opacity="1.000000" fill-rule="nonzero"/>
		<path id="Vector" d="M233.94 57.66C233.98 57.66 234.02 57.65 234.06 57.62C234.15 57.56 234.17 57.44 234.11 57.35C234.08 57.29 233.74 56.84 232.7 56.99C232.58 57 232.51 57.1 232.52 57.21C232.54 57.33 232.64 57.4 232.75 57.39C233.54 57.28 233.77 57.57 233.78 57.58C233.82 57.63 233.88 57.66 233.94 57.66Z" fill="#1A1A1A" fill-opacity="1.000000" fill-rule="nonzero"/>
		<path id="Vector" d="M225.95 56.97C226 56.97 226.06 56.95 226.1 56.91C226.18 56.83 226.18 56.7 226.1 56.62C226.08 56.61 226.07 56.59 226.06 56.57C225.91 56.38 225.63 56.02 224.57 56.15C224.46 56.17 224.38 56.27 224.4 56.38C224.41 56.49 224.51 56.57 224.62 56.56C225.45 56.46 225.63 56.69 225.74 56.82C225.76 56.86 225.79 56.88 225.81 56.91C225.85 56.95 225.9 56.97 225.95 56.97Z" fill="#1A1A1A" fill-opacity="1.000000" fill-rule="nonzero"/>
		<path id="Vector" d="M239.85 65.32C239.38 65.32 239.04 65.14 238.8 64.78C238.75 64.7 238.77 64.58 238.85 64.53C238.94 64.47 239.05 64.49 239.11 64.58C239.34 64.93 239.68 65.03 240.27 64.91C240.37 64.89 240.47 64.96 240.49 65.05C240.51 65.15 240.44 65.25 240.34 65.27C240.17 65.3 240 65.32 239.85 65.32Z" fill="#1A1A1A" fill-opacity="1.000000" fill-rule="nonzero"/>
		<path id="Vector" d="M214.62 118.38C214.62 118.38 215.2 110.69 215.7 110.62C216.19 110.56 247.79 113.12 247.79 113.12L248.05 118.89C241.81 120.14 226.31 120.75 214.62 118.38Z" fill="#1A1A1A" fill-opacity="1.000000" fill-rule="nonzero"/>
		<path id="Vector" d="M245.98 93.49L249.78 115.99C247.94 116.17 233.54 117.75 213.49 115.31L216.65 95.68L215.73 110.6L201.47 113.19C202.15 104.65 203.33 88.98 206.98 81.83C210.5 74.92 219.09 73.48 224.91 73.08C228.73 75.7 235.85 75.29 238.97 72.98C242.21 73.7 250.48 74.96 255.22 80.21C259.26 84.68 262.25 88.61 267.26 106.64C268.21 110.07 252.02 119.48 247.72 113.1C244.75 108.67 245.98 93.49 245.98 93.49Z" fill="#FF6699" fill-opacity="1.000000" fill-rule="nonzero"/>
		<path id="Vector" d="M222.64 116.61C222.63 116.61 222.62 116.61 222.62 116.61C219.78 116.36 214.8 115.87 213.42 115.52C213.32 115.5 213.25 115.4 213.27 115.29L216.65 95.91C216.67 95.8 216.78 95.73 216.89 95.75C217 95.77 217.07 95.87 217.06 95.98L213.7 115.17C214.88 115.42 218.1 115.8 222.65 116.21C222.76 116.22 222.85 116.32 222.84 116.43C222.83 116.54 222.74 116.61 222.64 116.61Z" fill="#1A1A1A" fill-opacity="1.000000" fill-rule="nonzero"/>
		<path id="Vector" d="M244.81 116.75C244.71 116.75 244.62 116.67 244.61 116.57C244.59 116.46 244.67 116.36 244.79 116.35L249.32 115.83L246.29 96.7C246.27 96.59 246.35 96.49 246.46 96.47C246.57 96.45 246.67 96.53 246.69 96.64L249.75 115.97C249.76 116.03 249.75 116.08 249.71 116.13C249.68 116.17 249.63 116.2 249.57 116.21L244.83 116.75C244.82 116.75 244.82 116.75 244.81 116.75Z" fill="#1A1A1A" fill-opacity="1.000000" fill-rule="nonzero"/>
		<path id="Vector" d="M238.95 89.38C239.72 86.82 243.83 82.2 246.4 78.78L247.95 80.56L236.04 72.93L239.11 68.16C239.11 68.16 247.93 70.69 252.63 74.28C255.68 76.61 254.47 79.59 253.58 84.58C252.71 89.46 250.87 97.87 250.87 97.87C250.87 97.87 239.34 93.13 238.95 89.38Z" fill="#FBFBFB" fill-opacity="1.000000" fill-rule="nonzero"/>
		<path id="Vector" d="M217.7 141.79L221.06 137.37L215.73 136.03L212.61 141.79L217.7 141.79Z" fill="#FCC49A" fill-opacity="1.000000" fill-rule="nonzero"/>
		<path id="Vector" d="M212.61 141.79C212.61 141.79 209.22 142.99 207.43 143.85C206.52 144.29 206.63 145.71 207.41 145.71C207.41 145.71 215.51 145.71 217.03 145.71C219.21 145.71 217.7 141.79 217.7 141.79L212.61 141.79Z" fill="#1A1A1A" fill-opacity="1.000000" fill-rule="nonzero"/>
		<path id="Vector" d="M252.23 109.93L234.47 111.15L232.7 116.5C232.7 116.5 228.74 117.69 227.02 118.06C221.97 119.14 220.84 120.12 218.7 125.38C216.86 129.86 212.7 138.77 212.7 138.77L219.21 141.51L231.06 128.58C235.38 128.52 238.54 128.09 243.96 127.95C251.21 127.77 252.23 123.07 252.23 115.89C252.23 114.4 252.23 109.93 252.23 109.93Z" fill="#C6F432" fill-opacity="1.000000" fill-rule="nonzero"/>
		<path id="Vector" d="M253.4 67.49C253.4 67.49 258.08 68.31 255.53 73.71C254.71 75.46 256.12 77.74 252.46 79.55C250.67 80.44 252.32 83.48 246.36 83.03C244.06 82.85 240.93 82.31 240.61 81.83C239.44 80.1 237.34 80.25 236.83 75.5C236.59 73.29 233.56 72.08 235.55 69.2C237.17 66.83 236.87 63.66 240.45 63.26C241.82 63.11 242.41 59.7 247.5 62.81C249.07 63.77 252.75 62.07 253.4 67.49Z" fill="#1A1A1A" fill-opacity="1.000000" fill-rule="nonzero"/>
		<path id="Vector" d="M235.73 74.66C235.71 74.81 235.7 74.98 235.68 75.14C235.67 75.23 235.66 75.33 235.66 75.43C235.65 75.57 235.64 75.71 235.63 75.86C235.62 76.21 235.62 76.58 235.64 76.95C235.64 77.14 235.66 77.34 235.68 77.53C235.69 77.64 235.7 77.74 235.71 77.84C235.73 77.97 235.75 78.09 235.77 78.22C236.05 79.86 236.73 81.52 238.3 82.67C239.3 83.4 240.91 84.02 243.18 83.7L240.38 83L239.66 86.03C239.66 86.03 242.81 90.55 248.32 87.12C248.32 87.12 247.63 81.24 247.59 81.24C247.9 80.77 248.12 80.34 248.18 80.12C248.9 80.57 249.9 80.16 250.33 78.68C250.9 76.73 249.98 76.02 249.06 76.58C248.88 76.7 248.73 76.8 248.59 76.89C248.37 77.05 248.17 77.12 248 77.1C247.76 77.06 247.61 76.81 247.65 76.32C247.79 74.42 247.85 72.18 245.66 71.37C242.21 70.09 242.83 68.79 241.07 68.33C239.33 67.88 237.29 69.44 236.41 71.62C236.11 72.34 235.95 72.9 235.73 74.66Z" fill="#FCC49A" fill-opacity="1.000000" fill-rule="nonzero"/>
		<path id="Vector" d="M238.61 74.68C238.56 75.08 238.23 75.36 237.89 75.32C237.55 75.27 237.31 74.91 237.37 74.51C237.42 74.11 237.75 73.83 238.09 73.87C238.43 73.92 238.67 74.28 238.61 74.68Z" fill="#1A1A1A" fill-opacity="1.000000" fill-rule="nonzero"/>
		<path id="Vector" d="M243.93 75.55C243.87 75.95 243.55 76.23 243.21 76.19C242.86 76.14 242.63 75.78 242.68 75.38C242.74 74.98 243.06 74.7 243.4 74.74C243.75 74.79 243.98 75.15 243.93 75.55Z" fill="#1A1A1A" fill-opacity="1.000000" fill-rule="nonzero"/>
		<path id="Vector" d="M246.17 78.14C246.08 78.82 245.41 79.3 244.69 79.2C243.96 79.1 243.45 78.46 243.55 77.77C243.64 77.09 244.31 76.61 245.03 76.71C245.76 76.81 246.27 77.45 246.17 78.14Z" fill="#DD7F60" fill-opacity="1.000000" fill-rule="nonzero"/>
		<path id="Vector" d="M235.66 75.43C235.65 75.57 235.64 75.72 235.63 75.86C235.62 76.22 235.62 76.58 235.64 76.95C235.65 77.15 235.66 77.34 235.68 77.54C235.69 77.64 235.7 77.75 235.71 77.85C235.76 77.86 235.81 77.87 235.87 77.88C236.59 77.98 237.25 77.5 237.35 76.82C237.44 76.13 236.93 75.5 236.21 75.4C236.02 75.37 235.83 75.38 235.66 75.43Z" fill="#DD7F60" fill-opacity="1.000000" fill-rule="nonzero"/>
		<path id="Vector" d="M248.49 80.65C248.61 80.67 248.74 80.69 248.87 80.67C248.97 80.66 249.04 80.58 249.04 80.48C249.03 80.37 248.94 80.3 248.84 80.31C248.51 80.34 248.2 80.17 248.02 79.88C247.96 79.79 247.85 79.77 247.77 79.82C247.68 79.87 247.65 79.99 247.71 80.07C247.89 80.37 248.17 80.57 248.49 80.65Z" fill="#1A1A1A" fill-opacity="1.000000" fill-rule="nonzero"/>
		<path id="Vector" d="M236.8 73.29C236.88 73.31 236.96 73.28 237 73.21C237.02 73.18 237.51 72.41 238.89 72.87C238.99 72.9 239.09 72.85 239.12 72.75C239.15 72.66 239.1 72.55 239 72.52C237.34 71.97 236.71 72.98 236.69 73.02C236.64 73.11 236.67 73.22 236.75 73.27C236.77 73.28 236.79 73.29 236.8 73.29Z" fill="#1A1A1A" fill-opacity="1.000000" fill-rule="nonzero"/>
		<path id="Vector" d="M245.13 74.36C245.19 74.37 245.25 74.36 245.29 74.32C245.37 74.25 245.38 74.14 245.31 74.06C244.36 72.95 242.87 73.12 242.81 73.13C242.71 73.14 242.63 73.23 242.65 73.33C242.66 73.43 242.75 73.5 242.85 73.49C242.87 73.49 244.22 73.34 245.04 74.3C245.06 74.33 245.1 74.35 245.13 74.36Z" fill="#1A1A1A" fill-opacity="1.000000" fill-rule="nonzero"/>
		<path id="Vector" d="M240.31 77.57C240.61 77.64 240.9 77.6 240.92 77.59C241.02 77.58 241.09 77.49 241.07 77.39C241.06 77.29 240.97 77.22 240.87 77.23C240.86 77.23 240.24 77.32 240.05 76.99C239.83 76.63 239.97 76.38 240.51 75.48L240.53 75.43C240.59 75.34 240.56 75.23 240.47 75.18C240.38 75.13 240.27 75.16 240.22 75.24L240.19 75.29C239.66 76.17 239.4 76.62 239.73 77.18C239.87 77.41 240.09 77.52 240.31 77.57Z" fill="#1A1A1A" fill-opacity="1.000000" fill-rule="nonzero"/>
		<path id="Vector" d="M240.07 79.35C240.45 79.44 240.94 79.42 241.52 79.13C241.61 79.09 241.64 78.98 241.6 78.89C241.55 78.8 241.44 78.76 241.35 78.8C240.15 79.41 239.46 78.61 239.43 78.58C239.37 78.5 239.25 78.49 239.17 78.55C239.1 78.62 239.08 78.73 239.15 78.81C239.15 78.82 239.48 79.21 240.07 79.35Z" fill="#1A1A1A" fill-opacity="1.000000" fill-rule="nonzero"/>
		<path id="Vector" d="M221.41 89.04C221.18 88.07 221 87.53 220.25 86.92C219.79 86.56 219.2 86.11 218.74 85.39C218.5 85.03 218.23 84.84 217.96 85C217.69 85.16 217.77 85.4 217.86 85.71C218 86.16 218.63 87.22 218.65 87.27C218.54 87.29 217.03 85.97 217.03 85.97L215.98 84.79C215.84 84.6 215.58 84.56 215.39 84.7C215.3 84.77 215.24 84.87 215.22 84.97C215.22 84.97 214.97 84.63 214.6 84.85C214.17 85.11 214.66 85.76 214.68 85.8C214.56 85.6 214.31 85.49 214.11 85.61C213.92 85.71 213.88 85.94 213.93 86.15C213.98 86.32 214.25 86.82 214.34 87.01C214.24 86.91 214.1 86.9 213.97 86.95C213.78 87.01 213.64 87.26 213.73 87.47C214.08 88.2 214.49 88.92 214.94 89.49C215.83 90.6 218.59 91.7 218.59 91.7L222.81 95.99L228.59 94.59C228.59 94.59 221.62 89.96 221.41 89.04Z" fill="#FCC49A" fill-opacity="1.000000" fill-rule="nonzero"/>
		<path id="Vector" d="M240.16 84.86C237.96 86.37 234.8 91.67 232.3 95.16L234.47 96.1L222.29 88.74L218.67 93.11C222.27 96.51 229.48 104.25 232.6 104.65C236.64 105.18 238.82 101.74 243.55 98.54C247.51 95.87 243.86 84.1 240.16 84.86Z" fill="#FBFBFB" fill-opacity="1.000000" fill-rule="nonzero"/>
		<path id="Vector" d="M238.13 86.35C240.03 83.91 246 81.54 247.8 82.64C255.8 87.52 252.22 111.01 252.22 111.01L233.93 111.29C233.93 111.29 231.98 94.26 238.13 86.35Z" fill="#FBFBFB" fill-opacity="1.000000" fill-rule="nonzero"/>
		<path id="Vector" d="M237.85 82.31C239.27 83.57 241.17 84.01 243.25 83.83C245.25 83.65 247.12 82.47 248.01 80.54C248.07 80.4 237.85 82.31 237.85 82.31Z" fill="#FCC49A" fill-opacity="1.000000" fill-rule="nonzero"/>
		<path id="Vector" d="M233.66 105.05C235.62 105.05 238.37 103.39 241.85 100.1C241.92 100.03 241.92 99.91 241.86 99.84C241.79 99.77 241.67 99.76 241.6 99.83C238.03 103.2 235.18 104.87 233.34 104.66C233.24 104.65 233.15 104.72 233.14 104.83C233.13 104.93 233.2 105.02 233.3 105.03C233.42 105.04 233.53 105.05 233.66 105.05Z" fill="#1A1A1A" fill-opacity="1.000000" fill-rule="nonzero"/>
		<path id="Vector" d="M252.16 90.8C252.17 90.8 252.19 90.8 252.2 90.79C252.3 90.77 252.36 90.67 252.34 90.57C251.97 89.05 251.44 87.72 250.82 86.72C250.77 86.64 250.66 86.61 250.57 86.66C250.48 86.72 250.46 86.83 250.51 86.92C251.11 87.88 251.62 89.17 251.98 90.66C252 90.74 252.08 90.8 252.16 90.8Z" fill="#1A1A1A" fill-opacity="1.000000" fill-rule="nonzero"/>
		<path id="Vector" d="M237.58 122.62C236.27 123.96 238.8 134.95 242.46 134C245.98 131.83 243.95 118.42 237.58 122.62Z" fill="#1A1A1A" fill-opacity="1.000000" fill-rule="nonzero"/>
		<path id="Vector" d="M228.77 119.21C227.85 118.85 227.51 118.98 227.41 119.35C227.28 119.89 227.96 120.57 228.23 120.84C229.9 122.51 231.54 122.95 231.58 123.11C231.58 123.14 237.31 123.28 237.31 123.28C236.63 122.2 235.82 121.52 234.46 120.98C233.34 120.53 232.16 120.57 228.77 119.21Z" fill="#FCC49A" fill-opacity="1.000000" fill-rule="nonzero"/>
		<path id="Vector" d="M243.27 119.48C253.71 111.35 237.74 122.65 237.58 122.6C237.47 122.56 230.71 121.41 230.14 121.33C230.14 121.33 227.5 120.51 225.42 119.73C224.39 119.35 223.27 119.16 223.06 119.61C222.81 120.16 223.37 120.64 223.76 120.84C223.67 120.81 223.47 120.74 223.35 120.7C222.49 120.46 222.03 120.42 221.86 120.84C221.59 121.52 222.79 122.28 222.94 122.33C222.89 122.31 221.97 122.23 221.91 122.95C221.86 123.55 222.4 123.82 223.62 124.5C224.06 124.74 224.83 125.17 224.83 125.17C224.3 125.04 223.99 125.16 223.89 125.44C223.76 125.85 224.03 126.53 224.98 126.94C226.37 127.53 228.56 128.51 229.82 129.03C232.1 129.98 234.6 129.92 236.63 130.05C240.68 130.32 248.29 128.29 248.29 128.29C250.9 128.52 245.45 119.85 243.27 119.48Z" fill="#FCC49A" fill-opacity="1.000000" fill-rule="nonzero"/>
		<path id="Vector" d="M229.78 127C229.73 127.1 229.6 127.15 229.48 127.11C227.81 126.49 225.38 125.51 225.36 125.5C225.23 125.45 225.16 125.32 225.21 125.21C225.25 125.1 225.39 125.06 225.51 125.11C225.54 125.12 227.96 126.1 229.62 126.7C229.75 126.75 229.82 126.88 229.78 126.99C229.78 126.99 229.78 127 229.78 127Z" fill="#1A1A1A" fill-opacity="1.000000" fill-rule="nonzero"/>
		<path id="Vector" d="M229.78 123.3C229.73 123.39 229.62 123.43 229.51 123.4C227.98 123 224.06 121.24 223.89 121.17C223.77 121.11 223.71 120.98 223.76 120.87C223.81 120.76 223.95 120.72 224.07 120.78C224.11 120.8 227.43 122.29 229.6 122.99C229.73 123.03 229.81 123.14 229.79 123.26C229.79 123.27 229.78 123.29 229.78 123.3Z" fill="#1A1A1A" fill-opacity="1.000000" fill-rule="nonzero"/>
		<path id="Vector" d="M229.04 124.93C229 125.01 228.89 125.06 228.78 125.03C227.24 124.63 223.33 122.87 223.16 122.79C223.04 122.73 222.98 122.6 223.02 122.5C223.07 122.39 223.21 122.35 223.34 122.4C223.38 122.42 226.7 123.91 228.86 124.61C228.99 124.65 229.08 124.77 229.06 124.88C229.05 124.9 229.05 124.91 229.04 124.93Z" fill="#1A1A1A" fill-opacity="1.000000" fill-rule="nonzero"/>
		<path id="Vector" d="M266.85 105.01C269.7 114.36 266.58 119.1 262.38 122.08C255.36 127.06 242.46 134.01 242.46 134.01C244.22 133.06 241.72 121.91 237.58 122.63L254.25 108.8C254.25 108.8 265.46 100.44 266.85 105.01Z" fill="#FF6699" fill-opacity="1.000000" fill-rule="nonzero"/>
		<path id="Vector" d="M237.92 124.79C238.03 124.79 238.12 124.7 238.12 124.59C238.12 123.71 237.29 122.74 237.26 122.7C237.19 122.61 237.06 122.6 236.97 122.67C236.89 122.75 236.88 122.87 236.95 122.96C236.96 122.97 237.71 123.86 237.71 124.59C237.71 124.7 237.81 124.79 237.92 124.79Z" fill="#1A1A1A" fill-opacity="1.000000" fill-rule="nonzero"/>
		<path id="Vector" d="M49.05 231.14L48.92 231.92L48.89 232.07L48.19 235.96L42.37 235.42L42.52 233.41L42.63 232.08L43.07 226.47L49.05 231.14Z" fill="#FCC49A" fill-opacity="1.000000" fill-rule="nonzero"/>
		<path id="Vector" d="M42.46 234.81C42.46 234.81 38.52 236.2 36.44 237.21C35.39 237.72 35.51 239.37 36.42 239.37C36.42 239.37 45.83 239.37 47.61 239.37C50.14 239.37 48.38 234.81 48.38 234.81L42.46 234.81Z" fill="#1A1A1A" fill-opacity="1.000000" fill-rule="nonzero"/>
		<path id="Vector" d="M64.94 231.14L65.08 231.92L65.11 232.07L65.8 235.96L71.63 235.42L71.47 233.41L71.37 232.08L70.93 226.47L64.94 231.14Z" fill="#FCC49A" fill-opacity="1.000000" fill-rule="nonzero"/>
		<path id="Vector" d="M71.53 234.81C71.53 234.81 75.47 236.2 77.56 237.21C78.61 237.72 78.49 239.37 77.58 239.37C77.58 239.37 68.16 239.37 66.39 239.37C63.85 239.37 65.62 234.81 65.62 234.81L71.53 234.81Z" fill="#1A1A1A" fill-opacity="1.000000" fill-rule="nonzero"/>
		<path id="Vector" d="M39.25 232.1L51.71 232.1L55.39 203.82L56.45 195.67L56.46 195.72L61.94 232.11C62.04 232.11 74.67 232.11 74.67 232.11C74.67 232.11 73.07 197.14 71.77 187.04C71.1 181.83 69.2 173.62 69.2 173.62C63.34 172.85 49.66 172.72 43.86 173.49C43.86 173.49 42.34 179.43 41.29 185.63C40.14 192.35 39.25 232.1 39.25 232.1Z" fill="#FF6699" fill-opacity="1.000000" fill-rule="nonzero"/>
		<path id="Vector" d="M94.51 149.59C95.43 148.58 93.47 144.63 89.67 143.88C88.12 144.68 92.4 151.24 94.51 149.59Z" fill="#1A1A1A" fill-opacity="1.000000" fill-rule="nonzero"/>
		<path id="Vector" d="M89.67 143.88C89.67 142.64 90.24 141.73 91.19 140.97C91.77 140.51 92.51 139.94 93.09 139.04C93.38 138.59 93.72 138.35 94.06 138.55C94.4 138.76 94.3 139.06 94.18 139.44C94.02 140.02 93.23 141.35 93.2 141.4C93.33 141.42 95.23 139.77 95.23 139.77L96.54 138.28C96.72 138.05 97.06 138 97.29 138.18C97.41 138.26 97.47 138.39 97.5 138.52C97.5 138.52 97.82 138.09 98.28 138.37C98.82 138.69 98.21 139.51 98.18 139.56C98.33 139.3 98.64 139.17 98.9 139.31C99.14 139.45 99.19 139.73 99.12 140C99.06 140.21 98.72 140.84 98.61 141.08C98.74 140.96 98.91 140.94 99.08 141C99.31 141.08 99.49 141.39 99.37 141.65C98.93 142.57 98.42 143.48 97.85 144.19C96.74 145.58 93.27 146.96 93.27 146.96L87.97 152.35L80.73 150.59L89.67 143.88Z" fill="#FCC49A" fill-opacity="1.000000" fill-rule="nonzero"/>
		<path id="Vector" d="M80.71 160.61C84.48 157.97 93.04 151.15 94.51 149.59C93.13 150.65 88.42 144.66 89.67 143.88C89.29 144.09 80.98 148 76.38 149.9C76.38 149.9 66.62 147.46 64.86 147.33C59.6 146.92 58.54 161.42 63.23 161.56C72.85 161.83 78 162.5 80.71 160.61Z" fill="#FBFBFB" fill-opacity="1.000000" fill-rule="nonzero"/>
		<path id="Vector" d="M16.72 149.6C15.8 148.59 17.84 144.67 21.64 143.92C23.18 144.72 18.83 151.25 16.72 149.6Z" fill="#1A1A1A" fill-opacity="1.000000" fill-rule="nonzero"/>
		<path id="Vector" d="M21.5 143.75C21.5 142.51 20.91 141.6 19.96 140.83C19.39 140.37 18.64 139.81 18.06 138.91C17.77 138.45 17.43 138.21 17.09 138.42C16.75 138.62 16.86 138.92 16.97 139.31C17.14 139.88 17.92 141.21 17.95 141.27C17.82 141.29 15.93 139.64 15.93 139.64L14.61 138.15C14.43 137.91 14.1 137.87 13.86 138.04C13.75 138.13 13.68 138.25 13.66 138.38C13.66 138.38 13.34 137.96 12.87 138.23C12.33 138.56 12.95 139.38 12.97 139.42C12.83 139.17 12.51 139.03 12.26 139.18C12.02 139.31 11.96 139.6 12.03 139.86C12.09 140.07 12.43 140.7 12.55 140.95C12.42 140.82 12.25 140.81 12.08 140.86C11.85 140.94 11.66 141.25 11.79 141.52C12.23 142.44 12.74 143.35 13.3 144.05C14.42 145.45 17.88 146.83 17.88 146.83L23.18 152.22L30.43 150.45C30.43 150.45 21.5 143.88 21.5 143.75Z" fill="#FCC49A" fill-opacity="1.000000" fill-rule="nonzero"/>
		<path id="Vector" d="M30.52 160.62C26.75 157.98 18.19 151.16 16.72 149.6C18.1 150.66 22.89 144.66 21.64 143.88C22.02 144.09 30.25 148.01 34.85 149.91C34.85 149.91 44.61 147.47 46.37 147.34C51.63 146.93 52.69 161.43 48 161.57C38.38 161.84 33.23 162.51 30.52 160.62Z" fill="#FBFBFB" fill-opacity="1.000000" fill-rule="nonzero"/>
		<path id="Vector" d="M70.68 174.43C66.48 176.06 51.03 177.14 42.09 174.43C42.09 174.43 43.85 160.69 44.12 153.97C44.24 151.02 43.39 149.25 43.59 147.81C45.9 147.68 48.1 146.6 51.01 146.15C51.98 147.19 55.91 148.68 59.44 146.38C62.96 146.92 65.01 147.35 67.16 147.73C68.68 148.01 66.63 157.63 67.43 154.37C67.45 154.32 70.68 174.43 70.68 174.43Z" fill="#FBFBFB" fill-opacity="1.000000" fill-rule="nonzero"/>
		<path id="Vector" d="M64.51 176.85L47.66 176.85C47.38 176.85 47.15 176.63 47.15 176.35C47.14 174.2 47.66 165.16 48.01 159.39C48.47 151.85 63.51 151.73 64.02 159.39C64.33 164.07 65.02 174.21 65.02 176.35C65.01 176.63 64.79 176.85 64.51 176.85Z" fill="#C6F432" fill-opacity="1.000000" fill-rule="nonzero"/>
		<path id="Vector" d="M51.21 173.27C51.22 173.29 51.24 173.3 51.26 173.3L60.77 173.3C60.79 173.3 60.81 173.29 60.82 173.27C60.84 173.26 60.85 173.24 60.85 173.21L60.74 165.51C60.74 165.46 60.7 165.43 60.66 165.43L51.43 165.43C51.38 165.43 51.35 165.46 51.35 165.51L51.18 173.21C51.18 173.24 51.19 173.26 51.21 173.27Z" stroke="#1A1A1A" stroke-opacity="1.000000" stroke-width="0.406567" stroke-linejoin="round"/>
		<path id="Vector" d="M62.09 155.81C62.17 155.81 62.25 155.76 62.28 155.68L65.8 147.55C65.85 147.45 65.8 147.33 65.7 147.28C65.59 147.24 65.47 147.29 65.43 147.39L61.91 155.52C61.86 155.62 61.91 155.74 62.01 155.79C62.04 155.8 62.07 155.81 62.09 155.81Z" fill="#1A1A1A" fill-opacity="1.000000" fill-rule="nonzero"/>
		<path id="Vector" d="M50.03 155.81C50.06 155.81 50.09 155.8 50.11 155.79C50.21 155.74 50.26 155.62 50.22 155.52L46.69 147.39C46.65 147.29 46.53 147.24 46.43 147.28C46.32 147.33 46.28 147.45 46.32 147.55L49.84 155.68C49.88 155.76 49.95 155.81 50.03 155.81Z" fill="#1A1A1A" fill-opacity="1.000000" fill-rule="nonzero"/>
		<path id="Vector" d="M52.29 157.91L59.26 157.91C59.37 157.91 59.46 157.81 59.46 157.7C59.46 157.59 59.37 157.5 59.26 157.5L52.29 157.5C52.18 157.5 52.08 157.59 52.08 157.7C52.08 157.81 52.18 157.91 52.29 157.91Z" fill="#1A1A1A" fill-opacity="1.000000" fill-rule="nonzero"/>
		<path id="Vector" d="M53.62 158.99C53.69 158.99 53.75 158.96 53.79 158.9L54.51 157.81C54.57 157.72 54.55 157.6 54.45 157.53C54.36 157.47 54.23 157.5 54.17 157.59L53.45 158.68C53.39 158.77 53.42 158.89 53.51 158.96C53.54 158.98 53.58 158.99 53.62 158.99Z" fill="#1A1A1A" fill-opacity="1.000000" fill-rule="nonzero"/>
		<path id="Vector" d="M52.45 141.94C52.54 142.17 52.84 142.61 53.23 143.07C53.19 143.09 61.19 144.77 61.19 144.77C61.24 144.76 61.28 144.74 61.33 144.72C62.24 144.39 62.95 143.92 63.47 143.44C65.01 142 65.54 140.12 65.64 138.3C65.64 138.16 65.65 138.02 65.65 137.89C65.65 137.77 65.65 137.66 65.65 137.55C65.64 137.33 65.63 137.12 65.62 136.91C65.59 136.5 65.54 136.11 65.48 135.72C65.46 135.57 65.43 135.41 65.4 135.26C65.38 135.16 65.36 135.06 65.34 134.96C65.3 134.78 65.26 134.61 65.22 134.44C64.76 132.57 64.51 131.98 64.1 131.24C62.87 128.99 60.46 127.57 58.64 128.28C56.79 129 57.63 130.33 54.05 132.15C51.79 133.31 51.85 135.28 51.92 137.62C51.94 138.16 51.72 142.52 52.45 141.94Z" fill="#FCC49A" fill-opacity="1.000000" fill-rule="nonzero"/>
		<path id="Vector" d="M51.48 128.06C51.36 125.65 48.72 121.4 44.14 121.46L42.04 127.56C45.51 126.41 48.56 127.46 50.18 129.08L51.48 128.06Z" fill="#1A1A1A" fill-opacity="1.000000" fill-rule="nonzero"/>
		<path id="Vector" d="M43.56 141.09C44.34 139.01 44.96 136.45 44.99 133.29C44.93 130.79 45.53 128.74 47.25 127.8C47.97 127.41 48.57 126.84 49.08 126.19C51.04 123.65 55.04 122.89 57.54 123.24C64.14 124.16 66.67 128.26 64.19 131.28C63.58 132.02 62.61 134.08 64.19 137.38C65.69 141.45 68.26 143.21 66.22 148.49L43.51 148.68C41.68 146.03 42.55 143.78 43.56 141.09Z" fill="#1A1A1A" fill-opacity="1.000000" fill-rule="nonzero"/>
		<path id="Vector" d="M51.22 126.36C51.25 126.36 51.28 126.37 51.31 126.38C51.41 126.43 51.46 126.55 51.41 126.65C51.1 127.34 50.38 128.18 49.48 128.54C49.37 128.58 49.26 128.53 49.22 128.42C49.17 128.32 49.23 128.2 49.33 128.16C50.12 127.85 50.77 127.07 51.04 126.48C51.07 126.41 51.15 126.36 51.22 126.36Z" fill="#DD7F60" fill-opacity="1.000000" fill-rule="nonzero"/>
		<path id="Vector" d="M96.44 134.96C94.97 134.64 89.65 140.57 91.71 142.61C93.77 144.5 98.82 136.23 96.44 134.96Z" fill="#1A1A1A" fill-opacity="1.000000" fill-rule="nonzero"/>
		<path id="Vector" d="M95.97 134.61C95.59 134.27 95.27 132.64 94.1 131.49C93.51 130.91 92.41 130.34 91.56 129.64C91.09 129.25 90.66 129.03 90.32 129.31C89.99 129.6 90.15 129.92 90.33 130.34C90.6 130.96 91.67 132.33 91.71 132.39C91.57 132.44 89.24 130.88 89.24 130.88L87.57 129.41C87.34 129.18 86.97 129.18 86.74 129.42C86.63 129.53 86.57 129.68 86.57 129.83C86.57 129.83 86.16 129.4 85.69 129.79C85.16 130.24 85.95 131.07 85.99 131.12C85.79 130.85 85.43 130.75 85.17 130.95C84.93 131.15 84.92 131.48 85.03 131.76C85.13 131.99 85.6 132.64 85.76 132.9C85.6 132.78 85.41 132.79 85.24 132.89C85 133.01 84.84 133.39 85.02 133.67C85.65 134.63 86.34 135.58 87.07 136.28C88.51 137.67 90.97 138.81 90.97 138.81L99.79 146.54L106.74 141.38C106.74 141.38 96.08 134.71 95.97 134.61Z" fill="#FCC49A" fill-opacity="1.000000" fill-rule="nonzero"/>
		<path id="Vector" d="M110.82 140.16L96.45 134.97C98.22 135.72 93.63 144.19 91.71 142.62C91.98 142.78 102.46 149.27 107.69 152.2C111.65 154.43 115.14 154.65 119.78 152.66C122.18 151.63 127.69 149.92 127.69 149.92C130.22 155.34 126.49 134.13 121.42 135.99C118.12 137.19 116.34 137.99 110.82 140.16Z" fill="#C6F432" fill-opacity="1.000000" fill-rule="nonzero"/>
		<path id="Vector" d="M93 133.62C92.94 133.62 92.88 133.59 92.83 133.54C92.47 133.1 91.38 132.47 91 132.26C90.89 132.21 90.84 132.07 90.9 131.95C90.95 131.84 91.09 131.79 91.2 131.85C91.26 131.88 92.68 132.64 93.18 133.24C93.26 133.34 93.24 133.48 93.15 133.57C93.11 133.6 93.06 133.62 93 133.62Z" fill="#1A1A1A" fill-opacity="1.000000" fill-rule="nonzero"/>
		<path id="Vector" d="M128.87 229.99L128.72 230.88L128.69 231.05L127.92 235.49L121.5 234.87L121.68 232.58L121.79 231.07L122.28 224.68L128.87 229.99Z" fill="#FCC49A" fill-opacity="1.000000" fill-rule="nonzero"/>
		<path id="Vector" d="M129.59 230.85L128.69 231.04L121.68 232.57L121.79 231.06L128.72 230.87L129.59 230.85Z" fill="#1A1A1A" fill-opacity="1.000000" fill-rule="nonzero"/>
		<path id="Vector" d="M121.61 234.17C121.61 234.17 117.27 235.75 114.98 236.9C113.82 237.48 113.95 239.36 114.95 239.36C114.95 239.36 125.32 239.36 127.28 239.36C130.07 239.36 128.13 234.17 128.13 234.17L121.61 234.17Z" fill="#1A1A1A" fill-opacity="1.000000" fill-rule="nonzero"/>
		<path id="Vector" d="M146.37 229.99L146.53 230.88L146.56 231.05L147.32 235.49L153.74 234.87L153.56 232.58L153.45 231.07L152.96 224.68L146.37 229.99Z" fill="#FCC49A" fill-opacity="1.000000" fill-rule="nonzero"/>
		<path id="Vector" d="M145.65 230.85L146.56 231.04L153.57 232.57L153.45 231.06L146.53 230.87L145.65 230.85Z" fill="#1A1A1A" fill-opacity="1.000000" fill-rule="nonzero"/>
		<path id="Vector" d="M153.63 234.17C153.63 234.17 157.97 235.75 160.26 236.9C161.42 237.48 161.29 239.36 160.29 239.36C160.29 239.36 149.92 239.36 147.97 239.36C145.17 239.36 147.11 234.17 147.11 234.17L153.63 234.17Z" fill="#1A1A1A" fill-opacity="1.000000" fill-rule="nonzero"/>
		<path id="Vector" d="M118.08 231.09L131.8 231.09L135.85 198.87L137.02 189.58L137.03 189.64L143.07 231.1C143.17 231.1 157.08 231.1 157.08 231.1L151.06 164.46C144.6 163.58 129.09 163.43 122.7 164.3L118.08 231.09Z" fill="#FBFBFB" fill-opacity="1.000000" fill-rule="nonzero"/>
		<path id="Vector" d="M134.5 188.17L135.85 198.87L137.02 189.58L137.03 189.64L137.03 189.56L134.5 188.17Z" fill="#1A1A1A" fill-opacity="1.000000" fill-rule="nonzero"/>
		<path id="Vector" d="M178.94 137.06C179.95 135.9 177.79 131.41 173.61 130.56C171.9 131.47 176.61 138.94 178.94 137.06Z" fill="#1A1A1A" fill-opacity="1.000000" fill-rule="nonzero"/>
		<path id="Vector" d="M173.61 130.58C173.61 129.17 174.24 128.13 175.28 127.26C175.91 126.73 176.73 126.09 177.37 125.06C177.7 124.55 178.07 124.27 178.44 124.51C178.81 124.74 178.7 125.08 178.58 125.52C178.39 126.17 177.53 127.69 177.49 127.75C177.64 127.78 179.73 125.9 179.73 125.9L181.18 124.2C181.37 123.93 181.74 123.88 182 124.08C182.13 124.18 182.2 124.32 182.23 124.46C182.23 124.46 182.58 123.98 183.09 124.3C183.68 124.67 183.09 125.58 183.06 125.64C183.22 125.35 183.49 125.21 183.77 125.37C184.03 125.53 184.09 125.85 184.01 126.15C183.95 126.39 183.57 127.11 183.45 127.39C183.59 127.24 183.78 127.23 183.97 127.29C184.22 127.38 184.42 127.74 184.29 128.03C183.8 129.08 183.24 130.12 182.62 130.93C181.39 132.51 177.57 134.09 177.57 134.09L171.74 140.23L163.75 138.22L173.61 130.58Z" fill="#FCC49A" fill-opacity="1.000000" fill-rule="nonzero"/>
		<path id="Vector" d="M177.49 127.98C177.46 127.98 177.42 127.97 177.39 127.95C177.28 127.9 177.24 127.76 177.29 127.65C177.3 127.64 177.32 127.59 177.36 127.52C177.92 126.5 178.26 125.8 178.36 125.45L178.37 125.4C178.5 124.95 178.51 124.82 178.32 124.7C178.1 124.56 177.85 124.73 177.56 125.19C177.49 125.29 177.35 125.32 177.25 125.26C177.14 125.19 177.12 125.04 177.18 124.93C177.77 124 178.29 124.14 178.56 124.31C179.06 124.62 178.92 125.11 178.8 125.54L178.79 125.58C178.62 126.17 177.96 127.36 177.75 127.75C177.72 127.81 177.7 127.84 177.69 127.85C177.65 127.93 177.57 127.98 177.49 127.98Z" fill="#1A1A1A" fill-opacity="1.000000" fill-rule="nonzero"/>
		<path id="Vector" d="M167.69 147.7C172.06 143.79 177.8 138.31 178.94 137.06C177.42 138.27 172.23 131.44 173.61 130.56C173.19 130.79 164.7 135.19 159.63 137.35C159.63 137.35 148.22 134.64 146.28 134.48C140.48 134.02 139.38 151.41 144.55 151.56C144.55 151.56 155.3 152.02 159.63 151.56C163.19 151.18 164.4 150.63 167.69 147.7Z" fill="#C6F432" fill-opacity="1.000000" fill-rule="nonzero"/>
		<path id="Vector" d="M180.74 127.02C180.7 127.02 180.65 127 180.6 126.97C180.51 126.89 180.49 126.74 180.57 126.64C181.49 125.45 181.99 124.64 182.01 124.47C182.01 124.34 182.11 124.24 182.24 124.24C182.36 124.24 182.46 124.34 182.46 124.47C182.46 124.78 181.94 125.61 180.92 126.93C180.88 126.99 180.81 127.02 180.74 127.02Z" fill="#1A1A1A" fill-opacity="1.000000" fill-rule="nonzero"/>
		<path id="Vector" d="M181.64 128.1C181.59 128.1 181.55 128.08 181.51 128.05C181.41 127.97 181.39 127.83 181.46 127.72L181.75 127.33C182.37 126.48 182.95 125.69 183.07 125.32C183.11 125.2 183.24 125.13 183.35 125.17C183.47 125.21 183.53 125.34 183.5 125.47C183.35 125.91 182.8 126.66 182.11 127.61L181.82 128C181.78 128.06 181.71 128.1 181.64 128.1Z" fill="#1A1A1A" fill-opacity="1.000000" fill-rule="nonzero"/>
		<path id="Vector" d="M182.39 129.17C182.35 129.17 182.3 129.16 182.27 129.14C182.16 129.06 182.14 128.92 182.2 128.81L183.4 126.96C183.47 126.85 183.61 126.83 183.71 126.9C183.81 126.97 183.84 127.11 183.77 127.22L182.58 129.07C182.53 129.14 182.46 129.17 182.39 129.17Z" fill="#1A1A1A" fill-opacity="1.000000" fill-rule="nonzero"/>
		<path id="Vector" d="M145.3 120.37C147.39 126.86 143.51 132.11 135.82 132.57C130.76 132.88 129.18 127.87 129.18 122.07C129.18 116.27 132.17 111.05 137.24 110.8C146.49 110.33 144.3 117.26 145.3 120.37Z" fill="#FCC49A" fill-opacity="1.000000" fill-rule="nonzero"/>
		<path id="Vector" d="M130.52 124.55L130.08 133.5L131.22 139.29L141.2 139.29L141.42 133.5L140.82 123.77L130.52 124.55Z" fill="#FCC49A" fill-opacity="1.000000" fill-rule="nonzero"/>
		<path id="Vector" d="M128.03 110.03C128.03 110.03 128.04 110.03 128.05 110.04C128.15 110.05 128.25 109.97 128.26 109.86C128.35 109.25 128.23 108.63 127.95 108.11C127.62 107.53 127.1 107.14 126.43 106.98C126.33 106.95 126.22 107.02 126.2 107.13C126.17 107.24 126.24 107.34 126.34 107.37C127.58 107.67 128.01 108.84 127.88 109.81C127.87 109.91 127.93 110.01 128.03 110.03Z" fill="#1A1A1A" fill-opacity="1.000000" fill-rule="nonzero"/>
		<path id="Vector" d="M128.28 109.81C128.36 109.83 128.45 109.79 128.5 109.7C128.52 109.65 129.1 108.4 128.43 107.14C128.38 107.04 128.26 107.01 128.17 107.06C128.07 107.12 128.04 107.24 128.09 107.33C128.66 108.41 128.15 109.52 128.15 109.53C128.1 109.63 128.14 109.75 128.24 109.79C128.25 109.8 128.26 109.81 128.28 109.81Z" fill="#1A1A1A" fill-opacity="1.000000" fill-rule="nonzero"/>
		<path id="Vector" d="M139.93 106.36C136.85 105.04 132.55 103.52 128.48 108.41C120.32 108.12 118.74 120.41 126.79 127.63C129.03 129.64 132.08 131.16 136.04 130.72C144.4 129.79 143.51 119.6 143.95 118.52C145.44 114.94 147.03 109.41 139.93 106.36Z" fill="#1A1A1A" fill-opacity="1.000000" fill-rule="nonzero"/>
		<path id="Vector" d="M152.84 171.08C148.22 172.93 130.75 174.17 120.9 171.08C120.9 171.08 123.14 149.7 123.44 142.05C123.57 138.69 118.36 138.68 118.58 137.04C123.06 135.03 130.07 133.49 130.07 133.49C131.14 134.67 138.28 135.03 141.42 133.49C147.98 134.42 152.91 135.96 159.03 137.35C160.7 137.73 148.22 146.22 149.11 142.51C149.13 142.45 152.84 171.08 152.84 171.08Z" fill="#C6F432" fill-opacity="1.000000" fill-rule="nonzero"/>
		<path id="Vector" d="M145.89 168.14L127.33 168.14C127.02 168.14 126.77 167.89 126.77 167.57C126.76 165.12 127.33 154.81 127.72 148.24C128.23 139.65 144.79 139.51 145.35 148.24C145.69 153.58 146.46 165.13 146.45 167.57C146.45 167.89 146.2 168.14 145.89 168.14Z" fill="#FCC49A" fill-opacity="1.000000" fill-rule="nonzero"/>
		<path id="Vector" d="M131.24 164.06C131.26 164.08 131.28 164.09 131.31 164.09L141.77 164.09C141.79 164.09 141.82 164.08 141.83 164.06C141.85 164.05 141.86 164.02 141.86 164L141.74 155.21C141.74 155.16 141.7 155.12 141.65 155.12L131.49 155.12C131.44 155.12 131.4 155.16 131.4 155.21L131.22 164C131.22 164.02 131.23 164.04 131.24 164.06Z" stroke="#1A1A1A" stroke-opacity="1.000000" stroke-width="2.776635" stroke-linejoin="round"/>
		<path id="Vector" d="M132.43 146.56L140.11 146.56C140.23 146.56 140.33 146.45 140.33 146.33C140.33 146.2 140.23 146.1 140.11 146.1L132.43 146.1C132.31 146.1 132.21 146.2 132.21 146.33C132.21 146.45 132.31 146.56 132.43 146.56Z" fill="#1A1A1A" fill-opacity="1.000000" fill-rule="nonzero"/>
		<path id="Vector" d="M133.9 147.8C133.98 147.8 134.05 147.76 134.09 147.69L134.88 146.45C134.95 146.35 134.92 146.2 134.82 146.13C134.72 146.06 134.58 146.09 134.51 146.2L133.72 147.44C133.65 147.54 133.68 147.69 133.78 147.76C133.82 147.78 133.86 147.8 133.9 147.8Z" fill="#1A1A1A" fill-opacity="1.000000" fill-rule="nonzero"/>
		<path id="Vector" d="M129.49 144.52C129.42 144.52 129.35 144.49 129.3 144.42L123.4 135.4C123.33 135.29 123.35 135.15 123.46 135.08C123.56 135 123.7 135.03 123.77 135.14L129.67 144.16C129.74 144.27 129.72 144.41 129.61 144.48C129.58 144.51 129.53 144.52 129.49 144.52Z" fill="#1A1A1A" fill-opacity="1.000000" fill-rule="nonzero"/>
		<path id="Vector" d="M143.28 144.52C143.24 144.52 143.19 144.51 143.16 144.48C143.05 144.42 143.02 144.27 143.08 144.17L148.71 134.75C148.77 134.64 148.91 134.61 149.01 134.68C149.12 134.75 149.15 134.89 149.09 135L143.47 144.41C143.42 144.48 143.35 144.52 143.28 144.52Z" fill="#1A1A1A" fill-opacity="1.000000" fill-rule="nonzero"/>
		<path id="Vector" d="M97.15 215.82C97.15 204.7 97.37 199.78 105.36 189.96C114.91 178.23 110.44 174.66 112.16 163.62C114.16 150.74 123.36 151.27 122.58 135.28C122.54 134.39 123.94 134.4 124.6 134.98C127.08 137.18 130.52 141.23 136.19 141.23C143.06 141.23 145.28 136.9 147.8 134.7C148.35 134.22 149.62 133.87 149.77 134.59C152.6 147.79 156.23 150.49 164.85 157.44C179.58 169.32 170.16 180.53 186.79 191.88C197.23 199 201.87 206.4 201.84 216.59C201.84 216.59 97.15 215.83 97.15 215.82Z" fill="#00679D" fill-opacity="1.000000" fill-rule="nonzero"/>
		<path id="Vector" d="M122.39 135.84C122.36 135.84 122.33 135.84 122.3 135.82C122.19 135.78 122.13 135.64 122.18 135.52C122.19 135.49 122.46 134.8 123.14 134.55C123.61 134.38 124.13 134.46 124.71 134.79C124.81 134.85 124.85 134.99 124.79 135.11C124.73 135.22 124.6 135.26 124.49 135.2C124.03 134.93 123.63 134.86 123.29 134.99C122.8 135.17 122.6 135.69 122.59 135.7C122.56 135.79 122.47 135.84 122.39 135.84Z" fill="#1A1A1A" fill-opacity="1.000000" fill-rule="nonzero"/>
		<path id="Vector" d="M149.97 135.38C149.88 135.38 149.8 135.32 149.76 135.23C149.76 135.22 149.55 134.7 149.06 134.52C148.72 134.4 148.32 134.47 147.87 134.73C147.76 134.79 147.62 134.75 147.56 134.64C147.5 134.53 147.54 134.39 147.65 134.33C148.22 134 148.75 133.92 149.22 134.09C149.89 134.34 150.17 135.03 150.18 135.06C150.23 135.18 150.17 135.31 150.05 135.36C150.03 135.37 150 135.38 149.97 135.38Z" fill="#1A1A1A" fill-opacity="1.000000" fill-rule="nonzero"/>
	</g>
</svg>
