<svg width="350.000000" height="254.000000" viewBox="0 0 350 254" fill="none" xmlns="http://www.w3.org/2000/svg" xmlns:xlink="http://www.w3.org/1999/xlink">
	<desc>
			Created with Pixso.
	</desc>
	<defs>
		<clipPath id="clip580_206">
			<rect id="_Layer_" rx="-0.513043" width="234.973907" height="565.373962" transform="translate(150.513046 24.513044)" fill="white" fill-opacity="0"/>
		</clipPath>
		<linearGradient x1="174.999985" y1="0.000000" x2="174.999985" y2="254.000000" id="paint_linear_580_201_0" gradientUnits="userSpaceOnUse">
			<stop stop-color="#97CAFF"/>
			<stop offset="1.000000" stop-color="#D9EDFF"/>
		</linearGradient>
		<linearGradient x1="174.999985" y1="0.000000" x2="174.999985" y2="254.000000" id="paint_linear_580_203_0" gradientUnits="userSpaceOnUse">
			<stop stop-color="#9DCDFF"/>
			<stop offset="1.000000" stop-color="#F6FBFF"/>
		</linearGradient>
		<linearGradient x1="387.861328" y1="157.125732" x2="5.487442" y2="301.475403" id="paint_linear_580_204_0" gradientUnits="userSpaceOnUse">
			<stop stop-color="#FF6699"/>
			<stop offset="1.000000" stop-color="#5EA1FF"/>
		</linearGradient>
	</defs>
	<rect id="Rectangle 152" width="350.000000" height="254.000000" fill="url(#paint_linear_580_201_0)" fill-opacity="1.000000"/>
	<mask id="mask580_203" mask-type="alpha" maskUnits="userSpaceOnUse" x="0.000000" y="0.000000" width="350.000000" height="254.000000">
		<rect id="Rectangle 153" width="350.000000" height="254.000000" fill="url(#paint_linear_580_203_0)" fill-opacity="1.000000"/>
	</mask>
	<g mask="url(#mask580_203)">
		<path id="Vector 2709" d="M373.09 321.13C362.52 276.23 327.79 172.46 273.35 116.6C205.32 46.78 190.82 81.48 211.76 166.11C232.69 250.75 192.77 319.01 146.81 244.52C100.85 170.03 32.3 113.25 36.16 177.4C40.01 241.56 -65.1 251.86 -102.69 211.22" stroke="url(#paint_linear_580_204_0)" stroke-opacity="0.800000" stroke-width="75.607666" stroke-linecap="round"/>
	</g>
	<g mask="url(#mask580_203)">
		<rect id="_Layer_" rx="-0.513043" width="234.973907" height="565.373962" transform="translate(150.513046 24.513044)" fill="#FFFFFF" fill-opacity="0"/>
		<g clip-path="url(#clip580_206)">
			<path id="Vector" d="M274.76 59.62C274.74 59.51 274.74 59.41 274.72 59.31C273.09 46.57 230.74 14.31 212.28 38.98C212.28 38.98 211.05 40.43 209.38 43.38C207.04 45.65 203.06 50.08 201.34 55.34C199.74 60.24 201.2 63.02 202.46 64.41C201.61 73.33 203.13 81.86 204.57 84.31C206.47 87.56 210.66 87.71 210.66 87.71C210.66 87.71 214.99 95.1 222.33 97.27C229.65 99.43 240.51 101.33 247.84 99.98C255.17 98.62 258.84 94.69 258.84 94.69C258.84 94.69 261.42 95.1 266.57 90.76C268.3 89.31 269.95 86.74 271.35 83.49C273.55 83.11 276.2 80.63 276.57 72.15C276.79 67.17 275.89 62.93 274.75 59.62L274.76 59.62Z" fill="#1A1A1A" fill-opacity="1.000000" fill-rule="nonzero"/>
			<path id="Vector" d="M252.16 102.48C249.64 102.05 250.47 91.99 249.4 88.32C247.61 82.2 224.51 90.36 224.51 90.36C224.51 90.36 220.09 108.16 216.32 111.06C213.53 112.15 210.78 113.36 208.12 114.74C209.31 116.04 210.57 117.27 211.97 118.39C214.8 120.65 218.05 122.52 221.39 123.94C234 129.28 249.45 127.24 260.77 119.75C263.79 117.75 266.55 115.38 269.12 112.84C271.05 110.91 265.86 106.69 267.56 104.52C259.09 104.25 256.84 104.33 252.18 102.48L252.16 102.48Z" fill="#FCC49A" fill-opacity="1.000000" fill-rule="nonzero"/>
			<path id="Vector" d="M250.11 98.4L222.11 92.68C219.94 112.93 242.78 120.37 250.11 98.4Z" fill="#1A1A1A" fill-opacity="1.000000" fill-rule="nonzero"/>
			<path id="Vector" d="M219.38 40.15C221.69 35.28 226.87 28.02 244.36 31.14C261.84 34.26 268.48 45.29 269.42 52.32C270.36 59.35 268 65.5 268 65.5L267.81 66.24C267.81 66.24 267.79 66.24 267.76 66.24C264.29 76.69 257.08 92.49 250.76 98.07C243.74 104.28 233.65 107.59 221.87 99.43C210.36 91.47 212.34 64.6 213.82 58.72C214.07 57.74 214.35 56.64 214.63 55.49C215.22 51.64 217.29 44.55 219.38 40.16L219.38 40.15Z" fill="#FCC49A" fill-opacity="1.000000" fill-rule="nonzero"/>
			<path id="Vector" d="M263.64 72.57C263.64 72.57 268.71 72.06 269.37 77.58C270.04 83.1 261.88 92.78 256.84 91.5C251.93 90.27 263.65 72.56 263.65 72.56L263.64 72.57Z" fill="#FCC49A" fill-opacity="1.000000" fill-rule="nonzero"/>
			<g opacity="0.600000">
				<path id="Vector" d="M232.66 77.49C232.93 76.81 233.74 76.45 234.42 76.73C235.09 77 235.75 77.28 236.42 77.55C237.1 77.83 237.45 78.63 237.18 79.31C236.91 79.98 236.1 80.34 235.42 80.06C234.75 79.79 234.08 79.52 233.41 79.24C232.74 78.97 232.39 78.17 232.66 77.49Z" fill="#C8513A" fill-opacity="1.000000" fill-rule="nonzero"/>
			</g>
			<path id="Vector" d="M228.82 57.21C229.33 56.99 229.71 56.52 229.75 55.99C229.82 55.26 229.22 54.67 228.41 54.69C228.22 54.69 223.69 54.79 219.32 56.85C218.57 57.2 218.22 58.01 218.53 58.66C218.84 59.3 219.7 59.57 220.45 59.19C224.17 57.46 228.13 57.36 228.17 57.36C228.4 57.36 228.62 57.3 228.82 57.22L228.82 57.21Z" fill="#1A1A1A" fill-opacity="1.000000" fill-rule="nonzero"/>
			<path id="Vector" d="M252.39 64.7C252.05 64.25 251.95 63.67 252.16 63.18C252.46 62.5 253.27 62.29 253.96 62.69C254.13 62.79 258.04 65.09 260.83 69.03C261.31 69.7 261.22 70.58 260.63 70.99C260.04 71.4 259.16 71.21 258.7 70.51C256.31 67.18 252.9 65.15 252.87 65.13C252.67 65.02 252.51 64.87 252.38 64.69L252.39 64.7Z" fill="#1A1A1A" fill-opacity="1.000000" fill-rule="nonzero"/>
			<g opacity="0.710000">
				<path id="Vector" d="M262.86 78.62C263.7 78.83 263.9 81.55 263.7 82.39C263.48 83.24 260.33 85.12 260.33 85.12C260.33 85.12 262.03 78.41 262.87 78.62L262.86 78.62Z" fill="#D76A3C" fill-opacity="1.000000" fill-rule="nonzero"/>
			</g>
			<path id="Vector" d="M215.28 60.12C215.28 60.12 211.07 57.27 207.85 61.81C204.64 66.36 207.2 77.87 212.24 79.14C217.15 80.38 215.28 60.12 215.28 60.12Z" fill="#FCC49A" fill-opacity="1.000000" fill-rule="nonzero"/>
			<g opacity="0.710000">
				<path id="Vector" d="M213.11 65.81C212.26 65.6 210.79 67.91 210.58 68.74C210.36 69.58 212.25 72.74 212.25 72.74C212.25 72.74 213.94 66.03 213.11 65.81Z" fill="#D76A3C" fill-opacity="1.000000" fill-rule="nonzero"/>
			</g>
			<path id="Vector" d="M251.93 76.21C252.95 77.08 254.83 76.68 255.04 75.48C255.27 74.13 253.54 72.24 252.33 71.49C250.5 70.35 248.24 69.79 247.09 70.03C245.09 70.44 244.36 72.26 245.52 72.51C250.29 73.56 251.21 75.57 251.93 76.21Z" fill="#1A1A1A" fill-opacity="1.000000" fill-rule="nonzero"/>
			<path id="Vector" d="M221.69 68.33C220.36 68.51 219.02 67.12 219.52 65.98C220.1 64.7 222.6 64.06 224.03 64.09C226.18 64.14 228.39 64.92 229.2 65.75C230.64 67.22 230.21 69.17 229.11 68.75C224.55 66.99 222.66 68.19 221.69 68.33L221.69 68.33Z" fill="#1A1A1A" fill-opacity="1.000000" fill-rule="nonzero"/>
			<path id="Vector" d="M227.22 84.25L243.78 88.04C243.78 88.04 239.98 94.27 234 94.54C228.03 94.81 227.22 84.24 227.22 84.24L227.22 84.25Z" fill="#FFFFFF" fill-opacity="1.000000" fill-rule="nonzero"/>
			<path id="Vector" d="M265.63 36.81C265.63 36.81 268.75 37.62 259.39 29.9C250.02 22.17 235.36 22.99 231.69 26.92C231.69 26.92 225.04 22.44 216.36 30.04C210.08 35.52 204.41 45.49 210.11 42.51C210.11 42.51 208.49 64.19 213.91 59.45C213.91 59.45 216.77 56.6 221.38 49.69C225.02 44.24 228.82 37.35 230.67 34.62C233.41 43.01 236.78 51.48 244.2 56.81C244.9 57.32 245.98 56.94 246.39 56.24C246.86 55.44 246.52 54.56 245.82 54.06C240.22 50.04 237.23 43.78 234.96 37.41C238.79 42.6 245.08 51.37 249.07 54.43C254.9 58.91 255.72 56.33 255.72 56.33C255.72 56.33 259.52 61.34 260.87 64.87C262.23 68.39 260.73 78.01 264.13 75.44C267.53 72.86 273.22 66.76 275.4 61.48C277.57 56.2 276.62 44.41 265.62 36.82L265.63 36.81Z" fill="#1A1A1A" fill-opacity="1.000000" fill-rule="nonzero"/>
			<path id="Vector" d="M386 584.43C386 587.72 333.17 590.4 268 590.4C202.82 590.4 150 587.72 150 584.43C150 581.13 203.23 581.72 268.4 581.72C333.57 581.72 386 581.13 386 584.43Z" fill="#6A516B" fill-opacity="1.000000" fill-rule="nonzero"/>
			<path id="Vector" d="M325.28 489.52C325.28 489.52 338.42 543.87 340.16 550.19C341.12 553.67 343.13 561.94 341.67 568.79C340.47 574.39 335.87 578.66 335.56 581.84C334.86 588.89 368.03 585.18 376.41 584.43C384.79 583.7 379.2 567.34 374.66 558.06C370.12 548.77 359.14 484.7 357.05 468.72C354.95 452.74 325.28 489.52 325.28 489.52Z" fill="#FCC49A" fill-opacity="1.000000" fill-rule="nonzero"/>
			<path id="Vector" d="M372.88 553.09C371.41 554.92 369.77 555.6 368.34 555.02C365.91 554.06 366.82 554.06 364.1 548.58C361.37 543.1 351.98 541.81 348.35 547.61C344.71 553.41 343.81 557.61 341.38 554.7C341.1 554.37 340.8 554.26 340.48 554.33C340.32 558.19 341.55 563.38 340.49 568.32C339.33 573.69 335.87 578.77 335.57 581.84C334.87 588.89 368.03 585.18 376.42 584.43C384.79 583.7 379.21 567.34 374.67 558.06C374.06 556.8 373.46 555.1 372.89 553.1L372.88 553.09Z" fill="#6168AC" fill-opacity="1.000000" fill-rule="nonzero"/>
			<path id="Vector" d="M199.1 500.03C199.1 500.03 191.34 543.97 189.8 550.34C188.26 556.72 194.49 574.79 195.42 581.82C196.34 588.86 168 586.13 159.6 585.65C151.21 585.17 151.33 568.73 155.57 559.3C159.81 549.87 165.1 496.28 166.67 480.25C168.26 464.21 199.1 500.03 199.1 500.03Z" fill="#FCC49A" fill-opacity="1.000000" fill-rule="nonzero"/>
			<path id="Vector" d="M157.2 554.29C158.73 556.07 160.39 556.69 161.8 556.08C164.19 555.03 163.28 555.06 165.84 549.5C168.39 543.94 181.11 543.21 184.92 548.89C188.74 554.58 187.02 558.13 189.63 554.5C190 559.56 191.9 566.78 193.45 572.89C194.35 576.47 201.59 576.42 199.46 582.1C196.96 588.74 168.02 586.13 159.62 585.65C151.22 585.17 151.35 568.73 155.58 559.3C156.16 558.03 156.7 556.31 157.21 554.28L157.2 554.29Z" fill="#6168AC" fill-opacity="1.000000" fill-rule="nonzero"/>
			<path id="Vector" d="M194.39 256.86C193.68 258.99 163.8 492.72 163.8 492.72C163.8 492.72 168.78 501.24 193.68 502.66C218.58 504.08 226.4 501.95 226.4 501.95C226.4 501.95 247.75 351.35 252.73 327.91C252.73 327.91 296.83 495.56 301.81 500.53C306.79 505.5 354.46 496.98 361.57 493.43C368.69 489.88 316.75 320.09 313.91 298.07C311.06 276.05 309.64 259 302.53 234.14C295.41 209.28 194.38 256.87 194.38 256.87L194.39 256.86Z" fill="#EA4550" fill-opacity="1.000000" fill-rule="nonzero"/>
			<path id="Vector" d="M246.41 315.09C243.76 331.38 241.12 347.68 238.47 363.97C235.82 380.26 233.17 396.56 230.53 412.84C229.04 422 227.55 431.16 226.06 440.33C225.9 441.33 227.43 441.76 227.6 440.75C230.25 424.46 232.89 408.16 235.54 391.88C238.19 375.58 240.84 359.29 243.48 343L247.95 315.51C248.11 314.51 246.58 314.08 246.41 315.09Z" fill="#C22327" fill-opacity="1.000000" fill-rule="nonzero"/>
			<path id="Vector" d="M228.92 484.35C226.4 484.63 223.88 484.83 221.35 484.95C222.56 475.6 223.58 466.22 224.36 456.83C224.45 455.81 222.85 455.81 222.77 456.83C221.98 466.24 220.97 475.64 219.74 485.01C206.4 485.43 193 483.61 180.27 479.56C175.45 478.03 170.75 476.17 166.2 474.01C166.12 474.57 166.06 475.12 165.98 475.66C175.83 480.26 186.31 483.46 197.04 485.16C204.48 486.34 212.02 486.82 219.55 486.6C219.04 490.43 218.5 494.26 217.92 498.07C217.76 499.07 219.3 499.51 219.46 498.5C220.07 494.52 220.62 490.53 221.15 486.54C223.67 486.43 226.18 486.24 228.69 485.97C228.77 485.44 228.85 484.91 228.92 484.36L228.92 484.35Z" fill="#C22327" fill-opacity="1.000000" fill-rule="nonzero"/>
			<path id="Vector" d="M359.12 471.47C359.01 470.96 358.89 470.44 358.77 469.91C354.46 471.25 350.12 472.48 345.74 473.58C332.84 476.83 319.68 479.05 306.43 480.19C302.58 480.52 298.73 480.77 294.88 480.91C295.04 481.44 295.2 481.97 295.35 482.48C304.97 482.08 314.56 481.13 324.07 479.63C335.93 477.75 347.65 475.02 359.12 471.47Z" fill="#C22327" fill-opacity="1.000000" fill-rule="nonzero"/>
			<path id="Vector" d="M256.7 342.39C254.05 331.44 247.77 306.97 245.11 296.01C244.63 294.02 241.56 294.86 242.04 296.86C244.69 307.82 250.97 332.29 253.63 343.24C254.11 345.23 257.18 344.39 256.7 342.39Z" fill="#FFFFFF" fill-opacity="1.000000" fill-rule="nonzero"/>
			<path id="Vector" d="M340.3 398.33C339.71 398.26 339.12 398.19 338.53 398.11C336.7 397.87 334.69 397.8 332.9 397.28C331.36 396.83 331.11 394.4 330.69 393.09C328.32 385.6 325.94 378.11 323.57 370.61C322.31 366.59 321.03 362.58 319.76 358.56C320.49 358.41 321.22 358.24 321.95 358.09C324.24 357.63 326.54 357.18 328.84 356.72C328.63 355.94 328.41 355.17 328.2 354.41L324.92 355.06C322.85 355.48 320.76 355.89 318.69 356.31C318.35 356.37 317.72 356.61 317.48 356.41C317.23 356.2 317.16 355.53 317.06 355.24C316.74 354.21 316.42 353.19 316.12 352.15C314.96 348.21 313.94 344.24 313.08 340.22C312.64 338.19 312.24 336.14 311.88 334.09C311.72 333.24 311.49 332.26 312.18 331.57C312.7 331.04 313.5 330.78 314.19 330.57C316.5 329.85 318.84 329.16 321.17 328.48C320.96 327.69 320.76 326.92 320.55 326.16C318.2 326.84 315.85 327.55 313.52 328.29C311.91 328.8 310.17 329.58 309.56 331.29C309.19 332.31 309.33 333.4 309.51 334.44C309.71 335.69 309.96 336.93 310.2 338.17C311.12 342.75 312.23 347.29 313.52 351.78C313.83 352.87 314.16 353.96 314.49 355.05C314.79 356.01 315.01 357.18 315.67 357.99C316.12 358.54 316.7 358.81 317.35 358.87C319.83 366.68 322.3 374.48 324.77 382.29C326.02 386.26 327.28 390.22 328.53 394.19C329.04 395.79 329.39 397.78 330.8 398.88C332.16 399.93 334.24 399.92 335.88 400.15C337.58 400.38 339.27 400.6 340.96 400.8C340.74 399.97 340.51 399.15 340.29 398.32L340.3 398.33Z" fill="#C22327" fill-opacity="1.000000" fill-rule="nonzero"/>
			<path id="Vector" d="M188.27 335.54C188.74 335.6 190 335.59 190.36 335.96C190.69 336.29 190.4 337.37 190.35 337.76C189.85 341.56 189.33 345.36 188.8 349.15C188.55 350.97 188.3 352.79 188.04 354.61C187.9 355.59 187.77 356.56 187.63 357.54C187.56 357.99 187.5 358.44 187.44 358.9C187.39 359.2 187.42 359.9 187.24 360.16C187.11 360.34 187.1 360.28 186.75 360.2C186.28 360.11 185.76 360.11 185.29 360.09C184.43 360.06 183.58 360.06 182.72 360.11C182.08 360.15 181.44 360.22 180.8 360.31C180.7 361.12 180.59 361.94 180.48 362.76C181.28 362.63 182.09 362.53 182.9 362.49C183.46 362.47 184.03 362.46 184.59 362.47C183.89 368.9 182.95 375.31 181.75 381.68C181.14 384.93 180.47 388.18 179.73 391.4C179.41 392.78 179.19 394.29 178.53 395.55C177.96 396.65 176.98 397.27 175.95 397.88C175.82 398.91 175.69 399.93 175.56 400.95C175.93 400.71 176.29 400.45 176.68 400.23C177.84 399.55 179.03 398.88 179.89 397.81C180.81 396.67 181.26 395.28 181.6 393.87C183.22 387.22 184.48 380.46 185.52 373.68C186.07 370.01 186.55 366.32 186.95 362.62C187.19 362.62 187.43 362.62 187.66 362.58C189.17 362.33 189.53 361.04 189.71 359.73C189.96 357.98 190.21 356.23 190.46 354.47C190.94 351.03 191.42 347.58 191.89 344.14C192.12 342.41 192.36 340.67 192.59 338.94C192.76 337.62 193.18 336.06 192.47 334.83C191.65 333.43 189.89 333.35 188.46 333.19C187.08 333.03 185.71 332.95 184.33 332.94C184.23 333.74 184.13 334.53 184.03 335.33C185.44 335.32 186.86 335.39 188.27 335.55L188.27 335.54Z" fill="#C22327" fill-opacity="1.000000" fill-rule="nonzero"/>
			<path id="Vector" d="M312.84 289.59C312.7 288.48 312.57 287.37 312.43 286.27C306.85 285.2 301.27 284.12 295.69 283.04C294.38 282.79 293.08 282.54 291.78 282.29C291.13 282.16 290.47 282.04 289.82 281.91C289.41 281.83 288.99 281.83 288.74 281.54C288.49 281.24 288.45 280.47 288.34 280.07C288.16 279.43 288 278.8 287.82 278.17L286.68 273.97C285.25 268.76 283.83 263.55 282.41 258.33L277.62 240.8C277.08 238.82 274 239.66 274.54 241.64C277.49 252.45 280.44 263.25 283.39 274.06C284.12 276.72 284.8 279.41 285.58 282.06C285.91 283.19 286.42 284.12 287.55 284.6C288.82 285.14 290.37 285.25 291.71 285.5C297.19 286.56 302.66 287.62 308.14 288.68C309.71 288.97 311.27 289.28 312.84 289.58L312.84 289.59Z" fill="#C22327" fill-opacity="1.000000" fill-rule="nonzero"/>
			<path id="Vector" d="M202.63 275.29C202.27 277.41 201.9 279.53 201.51 281.64C201.19 283.41 201.01 285.38 200.07 286.95C199.18 288.46 197.49 289.36 196.08 290.3L190.83 293.78C190.32 294.12 189.8 294.46 189.29 294.81C189.11 296.17 188.93 297.57 188.74 298.99L197.04 293.48C198.63 292.43 200.4 291.43 201.72 290.02C203.08 288.57 203.76 286.74 204.16 284.82C204.6 282.71 204.94 280.57 205.32 278.44C206.09 274.01 206.8 269.58 207.45 265.14C208.19 260.17 208.85 255.19 209.44 250.2C209.44 250.19 209.44 250.18 209.44 250.17C208.26 250.67 207.14 251.16 206.07 251.62C205.11 259.53 203.97 267.42 202.63 275.28L202.63 275.29Z" fill="#C22327" fill-opacity="1.000000" fill-rule="nonzero"/>
			<path id="Vector" d="M235.39 273.83C234.38 273.37 233.36 272.91 232.34 272.45C231.61 272.11 230.87 271.79 230.14 271.44C229.54 271.16 229.53 270.88 229.33 270.25C228.3 267.03 227.29 263.81 226.26 260.58C224.64 255.46 223.02 250.34 221.4 245.23C220.4 245.63 219.41 246.03 218.44 246.43C220.14 251.81 221.85 257.18 223.55 262.57C224.09 264.27 224.63 265.98 225.17 267.69C225.68 269.28 226.04 271.05 226.78 272.54C227.5 273.97 229.03 274.42 230.39 275.05C232.01 275.79 233.63 276.52 235.24 277.26C235.66 277.45 236.11 277.49 236.52 277.38C236.98 278.78 237.43 280.18 237.9 281.58C238.54 283.51 241.62 282.68 240.97 280.73C236.73 267.96 232.89 255.08 229.43 242.09C228.42 242.47 227.43 242.86 226.45 243.24C229.19 253.51 232.16 263.72 235.39 273.85L235.39 273.83Z" fill="#C22327" fill-opacity="1.000000" fill-rule="nonzero"/>
			<path id="Vector" d="M194.1 161.24C194.1 161.24 191.24 246.83 191.24 253.74C191.24 260.66 275.95 267.78 310.15 248.66C313.98 246.52 293.86 200.68 291.01 160.02C288.16 119.36 194.09 161.24 194.09 161.24L194.1 161.24Z" fill="#4D4D4D" fill-opacity="1.000000" fill-rule="nonzero"/>
			<path id="Vector" d="M306.9 122.6C301.88 111.33 278.25 107.74 267.72 104.29C265.55 108.13 262.91 111.69 259.6 114.7C254.24 119.6 247.49 122.76 240.29 123.81C233.55 124.79 226.55 124.06 220.34 121.18C216.58 119.45 213.05 116.86 210.36 113.62C203.51 116.89 190.7 123.41 186.36 129.51C177.4 142.11 170.93 168.55 170.93 168.55L273.79 176.15L276.5 152.52L309.81 162.58C309.81 162.58 313.44 137.28 306.9 122.6L306.9 122.6Z" fill="#4D4D4D" fill-opacity="1.000000" fill-rule="nonzero"/>
			<path id="Vector" d="M273.68 131.79C273.13 133.8 272.92 135.94 272.59 138C272.28 140.01 271.97 142.03 271.67 144.05C271.05 148.1 270.52 152.17 269.99 156.24C269.86 157.24 271.58 157.48 271.77 156.48C272.53 152.42 273.28 148.35 273.94 144.27C274.27 142.25 274.6 140.25 274.92 138.23C275.24 136.2 275.68 134.13 275.78 132.07C275.84 130.86 273.99 130.64 273.67 131.79L273.68 131.79Z" fill="#414141" fill-opacity="1.000000" fill-rule="nonzero"/>
			<path id="Vector" d="M245.56 238.11C243.81 237.89 242.19 236.88 240.01 236.12C241.78 235.38 243.13 234.66 243.79 234.12C246.06 232.24 212.64 218.84 212.64 218.84C212.64 218.84 199.71 208.79 196.95 206.37C194.18 203.95 203.27 171.48 203.27 171.48C203.27 171.48 175.97 158.03 170.77 168.4C170.77 168.4 161.43 195.69 163.16 216.42C164.81 236.18 196.69 238.96 205.09 239.18L205.09 239.19C205.09 239.19 214.91 239.83 222.72 239.86C225.87 240.92 232.62 243.07 235.57 242.92C239.49 242.72 243.29 242.64 246.82 241.86C250.35 241.07 250.25 238.69 245.55 238.11L245.56 238.11Z" fill="#FCC49A" fill-opacity="1.000000" fill-rule="nonzero"/>
			<path id="Vector" d="M225.24 139.05C225.24 139.05 224.09 135.05 218.91 133.52C213.74 132.01 203.4 147.5 201.26 149.33C199.13 151.15 204.31 155.1 208.57 155.1C212.83 155.1 214.86 145.3 216.99 145.3C219.11 145.3 223.93 146.82 224.54 145C225.15 143.18 225.24 139.05 225.24 139.05L225.24 139.05Z" fill="#F6F1F0" fill-opacity="1.000000" fill-rule="nonzero"/>
			<path id="Vector" d="M224.64 143.21C224.64 143.21 216.77 166.79 218.39 176.01C220.02 185.23 220.02 186.85 217.04 193.08C214.05 199.32 212.01 199.05 212.01 199.05C212.01 199.05 211.33 192 205.09 189.01C198.85 186.03 195.04 204.74 195.04 204.74C195.04 204.74 190.43 197.69 186.9 199.32C183.37 200.94 186.09 207.99 188.53 214.23C190.97 220.46 190.16 228.32 195.04 228.87C199.93 229.41 203.73 228.32 206.45 230.22C209.16 232.12 197.48 254.34 212.96 262.48C223.41 267.97 231.02 266.66 234.85 265.23C235.49 264.99 235.3 264.02 234.61 264.06C230.8 264.23 223.26 263.22 219.24 261.03C213.27 257.78 210.79 253.81 211.33 245.67C211.87 237.54 216.49 231.58 217.3 231.58C218.12 231.58 227.62 236.45 233.86 236.99C233.86 236.99 233.05 241.87 240.1 241.06C247.16 240.25 256.12 234.01 261.82 227.77C267.52 221.54 256.94 220.19 253.68 222.08C253.68 222.08 257.09 215.27 258.02 208.53C259.11 200.67 250.69 203.11 248.79 202.03C246.89 200.94 250.42 182.24 255.57 178.72C260.73 175.19 263.44 165.97 263.44 165.97C263.44 165.97 263.17 172.21 265.34 173.56C267.51 174.92 269.14 172.48 272.4 163.8C275.65 155.12 274.57 151.33 271.58 148.89C268.6 146.45 265.34 148.08 263.71 148.08C262.08 148.08 263.71 143.47 266.43 136.14C269.14 128.83 252.04 124.49 252.04 124.49C252.04 124.49 234.12 141.29 224.61 143.19L224.64 143.21Z" fill="#F6F1F0" fill-opacity="1.000000" fill-rule="nonzero"/>
			<path id="Vector" d="M305.2 158.03C305.2 158.03 309.73 160.43 309.8 162.59C309.87 164.75 301.59 165.3 298.07 163.81C294.54 162.31 305.2 158.03 305.2 158.03Z" fill="#000000" fill-opacity="1.000000" fill-rule="nonzero"/>
			<path id="Vector" d="M241.59 156.71C241.59 156.71 236.86 151.21 234.11 142.57C231.36 133.93 229 131.57 226.64 133.93C224.28 136.28 225.46 144.53 223.49 145.31C221.53 146.1 218.38 144.92 216.41 145.31C214.45 145.71 208.54 157.49 211.69 160.63C214.84 163.78 211.29 169.67 216.02 172.02C220.74 174.38 217.98 177.13 220.74 178.7C223.5 180.28 225.85 179.1 231.36 180.28C236.87 181.45 268.63 202.02 278.85 202.81C289.07 203.59 297.73 189.46 300.49 179.24C303.24 169.03 305.21 158.03 305.21 158.03C305.21 158.03 276.67 140.44 273.77 152.64C272.23 159.17 272.17 162.35 270.59 165.11C269.01 167.85 241.59 156.72 241.59 156.72L241.59 156.71Z" fill="#FCC49A" fill-opacity="1.000000" fill-rule="nonzero"/>
			<path id="Vector" d="M273.91 152.05C273.91 152.05 274.79 155.3 274.46 159.8C273.97 166.57 271.77 175.39 268.79 175.55C260.87 176.02 263.72 163.51 264.13 159.03C264.54 154.56 273.91 152.05 273.91 152.05Z" fill="#F6F1F0" fill-opacity="1.000000" fill-rule="nonzero"/>
			<path id="Vector" d="M264.24 157.38C264.22 156.82 263.79 156.34 263.21 156.34C262.6 156.34 262.24 156.82 262.17 157.38C262.01 158.75 262 160.14 261.97 161.52C261.94 162.9 261.92 164.28 261.98 165.67C262 166.16 262.39 166.57 262.89 166.57C263.43 166.57 263.74 166.16 263.8 165.67C263.97 164.29 264.04 162.9 264.12 161.52C264.2 160.14 264.29 158.76 264.23 157.38L264.24 157.38Z" fill="#DCC2A9" fill-opacity="1.000000" fill-rule="nonzero"/>
			<path id="Vector" d="M219.9 139.52C219.52 139.36 218.95 139.47 218.78 139.88C218.65 140.17 218.56 140.41 218.46 140.62C218.35 140.87 218.24 141.11 218.12 141.35C217.9 141.83 217.7 142.31 217.46 142.77C216.99 143.73 216.46 144.66 215.86 145.53C215.59 145.93 215.78 146.57 216.19 146.79C216.68 147.05 217.16 146.88 217.46 146.47C218.7 144.8 219.89 142.72 220.43 140.58C220.54 140.14 220.32 139.69 219.91 139.52L219.9 139.52Z" fill="#DCC2A9" fill-opacity="1.000000" fill-rule="nonzero"/>
			<path id="Vector" d="M258.34 226.26C258.34 226.26 258.34 226.24 258.34 226.24C258.34 226.12 258.34 226 258.31 225.88C258.23 225.61 258.06 225.36 257.87 225.15C257.63 224.89 257.27 224.68 256.93 224.6C256.28 224.45 255.52 224.57 254.96 224.96C254.65 225.19 254.35 225.45 254.18 225.81C253.97 226.23 253.86 226.71 253.9 227.17C253.95 227.7 254.09 228.18 254.35 228.65C254.55 229.03 254.83 229.39 255.13 229.69C255.41 229.98 255.94 230.16 256.33 230.01C256.69 229.87 256.94 229.73 257.23 229.47C257.42 229.31 257.58 229.09 257.72 228.87C257.95 228.51 258.11 228.08 258.23 227.67C258.31 227.4 258.37 227.13 258.39 226.85C258.42 226.65 258.39 226.45 258.35 226.25L258.34 226.26Z" fill="#EA7674" fill-opacity="1.000000" fill-rule="nonzero"/>
			<path id="Vector" d="M254.58 219.65C251.85 220.14 249.25 221.43 246.83 222.76C245.64 223.41 244.49 224.11 243.37 224.88C242.22 225.67 240.93 226.52 239.99 227.56C239.26 228.37 240.18 229.69 241.17 229.1C242.33 228.42 243.37 227.52 244.47 226.77C245.6 226.02 246.75 225.31 247.93 224.66C250.29 223.35 252.81 222.4 255.21 221.17C256.1 220.72 255.45 219.51 254.57 219.66L254.58 219.65Z" fill="#4D4D4D" fill-opacity="1.000000" fill-rule="nonzero"/>
			<path id="Vector" d="M198.1 212.43C197.83 211.35 197.55 210.27 197.27 209.18C196.73 207.05 196.16 204.94 195.48 202.85C195.14 201.8 193.66 202.23 193.85 203.29C194.24 205.46 194.74 207.59 195.28 209.73L196.07 212.86C196.33 213.91 196.5 215.12 197.02 216.07C197.47 216.9 198.76 216.5 198.76 215.6C198.76 214.56 198.35 213.45 198.09 212.44L198.1 212.43Z" fill="#DCC2A9" fill-opacity="1.000000" fill-rule="nonzero"/>
			<path id="Vector" d="M189.34 208.95C189.26 208.32 189.09 207.72 188.73 207.2C188.57 206.95 188.38 206.7 188.15 206.5C187.87 206.26 187.5 205.97 187.14 205.87C186.83 205.79 186.53 205.81 186.24 205.91C186.18 205.93 186.11 205.93 186.04 205.96C185.71 206.1 185.52 206.41 185.49 206.75C185.46 206.88 185.42 207.02 185.41 207.16C185.35 207.7 185.51 208.24 185.9 208.62C185.95 208.68 186.01 208.7 186.06 208.74C186.33 209.44 186.64 210.13 187.04 210.78C187.25 211.12 187.62 211.34 188.02 211.34C188.38 211.34 188.85 211.14 189.01 210.78C189.26 210.19 189.4 209.58 189.32 208.95L189.34 208.95Z" fill="#EA7674" fill-opacity="1.000000" fill-rule="nonzero"/>
			<path id="Vector" d="M189.62 202.71L189.66 202.99C189.64 202.77 189.63 202.58 189.5 202.38C189.45 202.31 189.39 202.25 189.34 202.18C189.26 202.08 189.15 202.01 189.02 201.97C188.94 201.93 188.86 201.91 188.77 201.91C188.64 201.88 188.51 201.89 188.38 201.92C188.29 201.96 188.18 202 188.1 202.05C187.93 202.15 187.82 202.28 187.71 202.44C187.76 202.37 187.82 202.3 187.87 202.23C187.85 202.25 187.85 202.26 187.83 202.27C187.73 202.36 187.66 202.48 187.61 202.61C187.58 202.68 187.55 202.75 187.52 202.82C187.5 202.88 187.48 202.93 187.46 202.99C187.41 203.12 187.36 203.24 187.33 203.37C187.3 203.49 187.27 203.62 187.23 203.75C187.19 203.88 187.18 204 187.16 204.14C187.11 204.27 187.11 204.41 187.14 204.55C187.14 204.68 187.19 204.81 187.27 204.93C187.32 204.99 187.38 205.07 187.43 205.13C187.52 205.23 187.63 205.3 187.76 205.34C187.84 205.39 187.93 205.41 188.02 205.42C188.16 205.45 188.29 205.44 188.43 205.4C188.68 205.32 188.91 205.17 189.04 204.93C189.2 204.63 189.32 204.31 189.45 203.99C189.49 203.86 189.53 203.74 189.56 203.62C189.58 203.56 189.59 203.5 189.61 203.44C189.62 203.41 189.62 203.38 189.63 203.35C189.68 203.12 189.69 202.96 189.63 202.73L189.62 202.71Z" fill="#EA7674" fill-opacity="1.000000" fill-rule="nonzero"/>
			<path id="Vector" d="M186.43 203.91C186.4 203.82 186.38 203.73 186.36 203.64C186.36 203.56 186.34 203.49 186.32 203.41C186.31 203.35 186.29 203.29 186.29 203.23C186.29 203.28 186.3 203.31 186.3 203.36C186.3 203.25 186.28 203.15 186.23 203.06C186.2 202.95 186.14 202.86 186.06 202.78C186 202.74 185.94 202.69 185.88 202.65C185.79 202.58 185.68 202.55 185.56 202.55C185.49 202.52 185.41 202.52 185.33 202.55C185.21 202.55 185.11 202.58 185.01 202.65C184.95 202.69 184.89 202.74 184.83 202.78C184.72 202.89 184.65 203.02 184.61 203.16C184.59 203.23 184.58 203.29 184.56 203.35C184.54 203.46 184.52 203.57 184.52 203.68C184.51 203.78 184.54 203.9 184.56 204.01C184.58 204.08 184.6 204.14 184.62 204.2C184.67 204.33 184.72 204.47 184.8 204.59C184.85 204.69 184.93 204.77 185.02 204.84C185.11 204.92 185.21 204.97 185.32 205C185.41 205.01 185.48 205.02 185.56 205.03C185.68 205.03 185.79 205.01 185.9 204.96C185.98 204.93 186.04 204.9 186.1 204.84C186.2 204.77 186.28 204.69 186.33 204.59C186.36 204.52 186.39 204.45 186.42 204.38C186.46 204.22 186.46 204.06 186.42 203.91L186.43 203.91Z" fill="#EA7674" fill-opacity="1.000000" fill-rule="nonzero"/>
			<path id="Vector" d="M258.17 222.03C258.15 221.91 258.09 221.8 258.01 221.71C257.94 221.61 257.85 221.53 257.73 221.46C257.59 221.37 257.43 221.33 257.25 221.33C257.13 221.33 257.02 221.33 256.88 221.37C256.86 221.37 256.85 221.38 256.82 221.39L256.75 221.39C256.66 221.43 256.58 221.47 256.5 221.51C256.42 221.56 256.35 221.62 256.28 221.67C256.26 221.69 256.25 221.7 256.23 221.72C256.2 221.75 256.18 221.78 256.15 221.81L255.99 222.02C255.92 222.14 255.87 222.26 255.86 222.4C255.84 222.49 255.84 222.58 255.86 222.67C255.86 222.81 255.91 222.93 255.99 223.05C256.04 223.12 256.1 223.19 256.15 223.26C256.22 223.31 256.29 223.37 256.35 223.42C256.47 223.49 256.6 223.53 256.74 223.54C256.88 223.57 257.01 223.56 257.15 223.53C257.16 223.53 257.18 223.52 257.2 223.51C257.31 223.48 257.39 223.44 257.5 223.39C257.52 223.38 257.54 223.37 257.56 223.37C257.56 223.37 257.57 223.37 257.57 223.37C257.59 223.37 257.79 223.21 257.79 223.2C257.83 223.17 257.86 223.13 257.88 223.09C257.88 223.09 257.88 223.08 257.88 223.07C257.94 223.02 257.99 222.96 258.04 222.88C258.09 222.79 258.13 222.66 258.17 222.55C258.21 222.39 258.21 222.22 258.17 222.04L258.17 222.03Z" fill="#EA7674" fill-opacity="1.000000" fill-rule="nonzero"/>
			<path id="Vector" d="M261.81 223.3C261.72 223.15 261.59 223.03 261.45 222.94C261.42 222.93 261.39 222.92 261.37 222.9C261.32 222.88 261.27 222.86 261.21 222.84C261.16 222.82 261.12 222.79 261.06 222.78C260.97 222.77 260.87 222.75 260.78 222.74C260.66 222.74 260.54 222.77 260.41 222.79C260.38 222.79 260.35 222.81 260.32 222.82C260.26 222.84 260.2 222.86 260.14 222.88C260.03 222.93 259.92 222.97 259.82 223.02C259.71 223.07 259.63 223.15 259.53 223.23C259.6 223.18 259.67 223.12 259.75 223.07C259.7 223.1 259.66 223.12 259.61 223.15C259.53 223.21 259.42 223.29 259.36 223.34C259.3 223.41 259.25 223.48 259.19 223.56C259.16 223.61 259.12 223.64 259.1 223.69C259.08 223.72 259.07 223.75 259.06 223.79C259.04 223.82 259.01 223.84 259 223.87C258.95 223.97 258.92 224.08 258.93 224.21C258.94 224.29 258.95 224.36 258.96 224.44C258.99 224.55 259.04 224.65 259.11 224.74C259.15 224.8 259.2 224.85 259.27 224.89C259.35 224.96 259.45 225.02 259.56 225.04C259.63 225.05 259.72 225.06 259.79 225.07C259.86 225.07 259.93 225.06 259.99 225.04C260.02 225.04 260.05 225.04 260.08 225.03C260.23 225.02 260.38 224.98 260.51 224.96C260.43 224.97 260.33 224.98 260.24 224.99C260.38 224.98 260.52 224.96 260.66 224.93C260.7 224.92 260.73 224.91 260.77 224.91C260.98 224.89 261.16 224.87 261.34 224.75C261.37 224.73 261.4 224.71 261.44 224.68C261.74 224.49 261.94 224.18 261.94 223.82C261.94 223.64 261.89 223.47 261.8 223.31L261.81 223.3Z" fill="#EA7674" fill-opacity="1.000000" fill-rule="nonzero"/>
			<path id="Vector" d="M262.5 225.67C262.4 225.51 262.27 225.38 262.1 225.28C262.09 225.27 262.08 225.26 262.07 225.26C261.98 225.22 261.89 225.18 261.8 225.14C261.8 225.14 261.78 225.14 261.78 225.14L261.48 225.09C261.48 225.09 261.45 225.09 261.44 225.09C261.42 225.09 261.41 225.09 261.4 225.09C261.33 225.09 261.27 225.09 261.2 225.09C261.05 225.09 260.9 225.13 260.75 225.15C260.72 225.15 260.68 225.17 260.65 225.17C260.62 225.17 260.59 225.19 260.55 225.2L260.58 225.18C260.54 225.19 260.49 225.2 260.44 225.2C260.41 225.2 260.38 225.23 260.35 225.24C260.3 225.26 260.26 225.28 260.21 225.29C260.19 225.29 260.18 225.3 260.16 225.31C260.14 225.31 260.13 225.32 260.11 225.32C260.09 225.33 260.07 225.34 260.04 225.35C260.01 225.36 259.97 225.38 259.94 225.4C259.82 225.46 259.74 225.54 259.67 225.64C259.61 225.7 259.58 225.77 259.55 225.85C259.49 225.96 259.46 226.08 259.47 226.21C259.48 226.3 259.49 226.38 259.5 226.46C259.53 226.54 259.57 226.61 259.6 226.69C259.69 226.85 259.84 226.97 260.01 227.05C260.05 227.08 260.1 227.1 260.14 227.12C260.14 227.12 260.16 227.12 260.16 227.12C260.17 227.12 260.18 227.13 260.2 227.14C260.25 227.16 260.3 227.18 260.35 227.2C260.38 227.2 260.41 227.22 260.43 227.22C260.47 227.22 260.52 227.23 260.57 227.24C260.56 227.24 260.55 227.24 260.54 227.23C260.57 227.24 260.6 227.25 260.63 227.26C260.66 227.26 260.7 227.28 260.73 227.28C260.88 227.31 261.04 227.34 261.19 227.34C261.25 227.34 261.31 227.34 261.37 227.34C261.45 227.34 261.53 227.33 261.61 227.32C261.79 227.3 261.74 227.31 261.92 227.23C262.01 227.2 262.03 227.2 262.08 227.15C262.25 227.06 262.38 226.93 262.48 226.76C262.58 226.59 262.63 226.4 262.63 226.21C262.63 226.01 262.58 225.83 262.48 225.66L262.5 225.67Z" fill="#EA7674" fill-opacity="1.000000" fill-rule="nonzero"/>
			<path id="Vector" d="M261.09 229.13C261.09 229.13 261.09 229.11 261.09 229.11C261.08 229.06 261.07 229.04 261.04 228.97C261.03 228.92 261.01 228.88 260.98 228.84C260.97 228.83 260.96 228.81 260.95 228.79C260.95 228.79 260.95 228.78 260.94 228.78C260.87 228.66 260.77 228.57 260.67 228.49C260.66 228.48 260.65 228.47 260.65 228.46C260.65 228.45 260.63 228.43 260.62 228.41C260.57 228.3 260.48 228.21 260.38 228.14C260.32 228.08 260.24 228.04 260.16 228.02C260.04 227.96 259.92 227.93 259.79 227.94L259.53 227.97C259.45 228 259.38 228.04 259.3 228.07C259.19 228.13 259.09 228.21 259.03 228.32C258.94 228.41 258.88 228.52 258.85 228.65C258.84 228.75 258.81 228.89 258.81 229C258.81 229.03 258.82 229.06 258.83 229.09C258.83 229.22 258.75 229.01 258.86 229.39C258.89 229.49 258.94 229.58 258.98 229.66C259 229.69 259 229.72 259.02 229.74C259.08 229.83 259.15 229.92 259.22 230.01C259.24 230.03 259.26 230.05 259.28 230.07C259.36 230.13 259.42 230.18 259.5 230.24C259.62 230.32 259.75 230.35 259.89 230.36C259.9 230.36 259.91 230.36 259.92 230.36C260.07 230.39 260.24 230.4 260.38 230.35C260.46 230.32 260.54 230.29 260.62 230.25C260.62 230.25 260.63 230.25 260.64 230.25C260.65 230.25 260.65 230.24 260.66 230.24C260.73 230.18 260.79 230.13 260.85 230.09C260.95 230 261.01 229.9 261.05 229.78C261.09 229.71 261.12 229.63 261.12 229.54C261.15 229.42 261.14 229.28 261.1 229.16L261.09 229.13Z" fill="#EA7674" fill-opacity="1.000000" fill-rule="nonzero"/>
			<path id="Vector" d="M288.36 97.4C284.17 93.82 270.69 103.99 266.79 102.49C262.9 100.99 256.6 96.2 253.31 95.31C250.02 94.41 249.72 81.55 244.63 79.46C239.54 77.36 240.49 95.3 238.34 96.5C235.15 98.29 232.17 104.22 230.69 109.33C229.71 110.72 228.16 111.36 227.64 112.83C227.06 114.52 227.79 115.33 227.79 115.33C227.79 115.33 228.68 116.22 229.12 118.2C229.31 119.07 229.48 120.02 229.6 120.8C229.05 123.2 227.9 125.05 226.95 127.32C226.95 127.32 224.77 129.92 231.15 137.49C238.55 146.27 244.17 139.36 247.16 140.86C250.15 142.36 253.31 140.79 264.7 134.81C276.08 128.82 275.18 124.04 277.27 119.25C279.37 114.47 292.55 101.01 288.35 97.42L288.36 97.4Z" fill="#F6F1F0" fill-opacity="1.000000" fill-rule="nonzero"/>
			<path id="Vector" d="M236.5 128.64C236.3 127.69 235.51 127.08 234.64 126.77C234.26 126.63 232.38 126.38 231.85 126.35C230.94 126.3 230 126.3 229.08 126.42C228.29 126.52 227.8 127.08 227.96 127.89C227.96 127.89 228.28 130.1 229.67 131.87C230.42 132.81 231.38 132.8 232.34 132.5C233.14 132.26 236.02 130.71 236.28 130.23C236.55 129.74 236.61 129.19 236.5 128.65L236.5 128.64Z" fill="#EA7674" fill-opacity="1.000000" fill-rule="nonzero"/>
			<path id="Vector" d="M232.15 114.98C231.81 114.39 231.23 113.98 230.59 113.76C230.35 113.68 230.08 113.65 229.81 113.65C229.73 113.65 229.66 113.65 229.58 113.66C229.49 113.67 229.4 113.69 229.32 113.71C229.1 113.76 228.88 113.84 228.7 113.96C227.94 114.46 227.64 115.3 227.67 116.18C227.69 116.87 227.81 117.59 228.07 118.23C228.21 118.58 228.35 118.94 228.55 119.26C228.9 119.78 229.42 120.14 230.07 120.14C230.95 120.14 231.49 119.42 231.74 118.65C231.81 118.55 231.88 118.44 231.94 118.32C232.12 117.97 232.29 117.61 232.38 117.24C232.57 116.49 232.55 115.65 232.15 114.97L232.15 114.98Z" fill="#343434" fill-opacity="1.000000" fill-rule="nonzero"/>
			<path id="Vector" d="M257.3 120.45C256.85 119.48 255.69 118.92 254.64 118.99C252.57 119.11 251 120.95 250.24 122.74C249.99 123.34 249.87 123.91 249.98 124.57C250.08 125.16 250.5 125.73 251.03 126.02C251.92 126.5 252.95 126.29 253.82 125.86C254.15 125.79 254.46 125.66 254.75 125.5C255.18 125.27 255.56 124.95 255.95 124.65C256.33 124.35 256.66 124.01 256.97 123.61C257.64 122.69 257.78 121.48 257.29 120.45L257.3 120.45Z" fill="#343434" fill-opacity="1.000000" fill-rule="nonzero"/>
			<path id="Vector" d="M248.28 135.37C245.52 137.32 242.66 139.67 239.05 139.24C238.3 139.15 237.55 138.93 236.89 138.57C236.2 138.18 235.66 137.54 234.92 137.24C234.34 136.99 233.71 136.96 233.09 136.97C232.46 136.97 231.64 137.15 231.16 136.64C230.47 135.89 229.8 136.53 230.44 137.29C231.56 138.62 232.75 138.26 234.15 138.77C234.95 139.06 235.58 139.89 236.36 140.29C237.17 140.69 238.03 140.93 238.92 141.04C242.85 141.53 246.6 139.35 249.46 136.89C250.28 136.17 249.18 134.73 248.28 135.37Z" fill="#DCC2A9" fill-opacity="1.000000" fill-rule="nonzero"/>
			<path id="Vector" d="M245.96 92.9C244.63 93.07 243.29 93.54 242.05 94.04C240.79 94.55 239.56 95.14 238.4 95.84C237.39 96.45 238.3 98.01 239.32 97.42C240.38 96.8 241.47 96.26 242.6 95.82C243.18 95.6 243.76 95.4 244.36 95.21C244.97 95.02 245.6 94.9 246.21 94.7C246.64 94.56 246.94 94.15 246.87 93.69C246.81 93.29 246.42 92.83 245.96 92.89L245.96 92.9Z" fill="#DCC2A9" fill-opacity="1.000000" fill-rule="nonzero"/>
			<path id="Vector" d="M285.97 101.59C285.55 100.86 284.04 101.63 283.31 102.09C279.45 104.52 276.21 106.07 272.62 108.89C271.96 109.41 272.05 110.61 272.62 111.14C273.4 111.87 273.96 112.54 274.49 113.41C274.93 114.14 275.92 114.42 276.67 113.98C277.41 113.55 277.69 112.54 277.24 111.8C276.91 111.24 276.53 110.71 276.11 110.2C279.1 107.92 280.83 106.1 284.02 104.1C284.75 103.64 286.41 102.35 285.96 101.59L285.97 101.59Z" fill="#DCC2A9" fill-opacity="1.000000" fill-rule="nonzero"/>
			<path id="Vector" d="M217.31 231.58C217.31 231.58 220.04 229.36 222.98 224.96C225.92 220.56 229.34 226.39 227.85 228.94C223.81 235.87 228.35 235.54 228.35 235.54C228.35 235.54 212.67 239.65 217.31 231.58Z" fill="#FCC49A" fill-opacity="1.000000" fill-rule="nonzero"/>
			<path id="Vector" d="M204.36 158.64C203.34 161.55 202.64 164.58 201.96 167.58C201.29 170.51 200.47 173.58 200.33 176.59C200.29 177.56 201.65 177.65 201.94 176.81C202.94 173.98 203.4 170.91 204.09 167.99C204.77 165.04 205.54 162.11 206.1 159.13C206.31 157.99 204.75 157.54 204.36 158.65L204.36 158.64Z" fill="#FCC49A" fill-opacity="1.000000" fill-rule="nonzero"/>
			<path id="Vector" d="M194.48 572.32C188.95 571.51 183.37 571.33 177.81 571.88C176.3 572.02 176.28 574.41 177.81 574.26C183.15 573.75 188.54 573.84 193.85 574.63C194.49 574.72 195.12 574.47 195.32 573.79C195.48 573.23 195.12 572.42 194.48 572.32L194.48 572.32Z" fill="#333A74" fill-opacity="1.000000" fill-rule="nonzero"/>
		</g>
		<path id="Vector" d="M144.22 118.31C144.22 118.31 155.43 105.29 140.59 89.3C132.62 80.72 85.68 71 85.68 71C85.68 71 81.33 72.62 76.29 78.49C72.46 81.37 69.17 84.96 66.59 89.01C64.67 92.03 63.16 95.33 62.12 98.75C61.61 100.42 61.22 102.13 60.96 103.87C60.68 105.66 60.86 107.87 59.7 109.37C59.15 110.08 58.46 110.68 57.86 111.34C57.22 112.04 56.62 112.77 56.04 113.52C54.98 114.91 54.04 116.39 53.24 117.94C51.61 121.07 50.48 124.47 49.93 127.96C49.36 131.51 49.35 135.09 49.93 138.63C50.21 140.35 50.63 142.05 51.22 143.7C51.86 145.52 52.9 147.22 52.93 149.18C52.98 151.73 52.72 154.28 52.78 156.83C52.83 159.28 53.05 161.74 53.58 164.14C54.5 168.44 56.51 172.61 59.8 175.59C61.08 176.75 63 174.85 61.71 173.68C55.5 168.06 55.23 159.14 55.56 151.37C55.65 149.26 55.61 147.39 54.79 145.41C54.11 143.8 53.48 142.19 53.05 140.48C52.23 137.24 52.01 133.88 52.3 130.56C52.89 123.83 55.76 117.35 60.47 112.5C61.91 111.02 62.92 109.61 63.21 107.52C63.45 105.76 63.6 104 63.98 102.25C64.7 98.98 65.87 95.82 67.45 92.86C67.86 92.11 68.29 91.37 68.75 90.64C62.9 103.83 65.89 112.21 65.89 112.21C65.89 112.21 55.83 119.96 55.66 130.68C55.5 141.39 58.8 146.17 58.8 146.17C58.8 146.17 52.4 166.31 74.13 176.01C91.12 183.59 108.1 173.86 108.1 173.86C108.1 173.86 118.87 179.6 128.88 175.02C142.56 168.75 142.07 150.79 142.07 150.79C142.07 150.79 149.32 146.84 151.1 136.78C153.62 122.58 144.21 118.32 144.21 118.32L144.22 118.31Z" fill="#F1404C" fill-opacity="1.000000" fill-rule="nonzero"/>
		<path id="Vector" d="M172.92 262.07C173.64 264.21 197.12 326.11 202.82 345.32C208.51 364.54 187.16 444.23 187.16 444.23C187.16 444.23 190.03 452.58 196.43 466.81C202.84 481.04 172.94 488.86 170.1 482.46C167.25 476.06 166.78 453.08 167.97 445.21C172.19 417.56 166.21 376.8 172.09 363.77C173.04 361.68 150.86 338.2 145.17 303.34C139.47 268.47 172.93 262.07 172.93 262.07L172.92 262.07Z" fill="#FCC49A" fill-opacity="1.000000" fill-rule="nonzero"/>
		<path id="Vector" d="M187.16 444.22C187.16 444.22 190.3 432.51 193.85 417C190.78 417.82 187.59 418.22 184.38 418.08C180.19 417.89 175.94 416.86 172.09 415.19C171.25 414.83 170.42 414.41 169.61 413.94C169.67 424.81 169.42 435.77 167.99 445.21C166.79 453.08 167.26 476.06 170.11 482.46C172.96 488.87 202.85 481.04 196.45 466.81C190.04 452.58 187.17 444.23 187.17 444.23L187.16 444.22Z" fill="#E3EBF4" fill-opacity="1.000000" fill-rule="nonzero"/>
		<path id="Vector" d="M196.43 466.8C190.03 452.57 187.16 444.22 187.16 444.22C187.16 444.22 187.59 446.61 187.89 449.67C186.43 447.01 184.97 446.04 183.09 445.92C180.48 445.76 173.14 444.29 172.49 450.16C172.09 453.78 170.94 454.24 170.12 454.06C169.26 449.88 168.53 445.61 168.2 443.54C168.13 444.1 168.06 444.66 167.97 445.21C166.78 453.07 167.25 476.05 170.1 482.46C172.95 488.86 202.84 481.03 196.43 466.8Z" fill="#882229" fill-opacity="1.000000" fill-rule="nonzero"/>
		<path id="Vector" d="M92.71 300.06C103.29 379.39 119.97 472.31 120.46 475.74C120.95 479.18 115.21 488.74 111.29 495.11C107.36 501.48 108.9 502.93 125.61 502.99C145.72 503.06 146.25 502.3 145.97 497.31C145.81 494.53 143.25 485.34 141.55 472.43C140.3 462.95 141.26 451.11 140.85 441.16C139.87 417.62 141.18 392.06 134.2 375.21C134.2 375.21 133.22 309.99 125.87 295.77C118.51 281.54 91.42 290.31 92.73 300.06L92.71 300.06Z" fill="#FCC49A" fill-opacity="1.000000" fill-rule="nonzero"/>
		<path id="Vector" d="M141.55 472.43C140.57 465.04 140.94 456.21 140.96 447.94C140.85 448 140.74 448.06 140.64 448.11C134.86 450.88 128.14 451.88 121.78 451.48C119.91 451.37 118.03 451.13 116.16 450.74C118.67 465.39 120.31 474.7 120.46 475.74C120.95 479.18 115.22 488.74 111.29 495.11C107.37 501.48 108.91 502.93 125.62 502.99C145.73 503.06 146.25 502.3 145.98 497.31C145.82 494.53 143.25 485.34 141.56 472.43L141.55 472.43Z" fill="#E3EBF4" fill-opacity="1.000000" fill-rule="nonzero"/>
		<path id="Vector" d="M145.97 497.32C145.83 494.85 143.81 487.35 142.15 476.67C141.31 478.12 140.5 480.01 139.16 481.76C138.84 482.19 138.38 482.67 137.83 483.18C135.7 484.24 135.26 478.44 134.96 477.24C134.63 475.93 130.72 474.79 125.98 475.61C122.27 476.25 120.89 477.05 120.48 477.37C120.48 477.36 120.48 477.35 120.48 477.35L120.37 477.46C120.33 477.49 120.31 477.51 120.31 477.51C119.38 481.78 114.67 489.63 111.29 495.11C107.36 501.48 108.9 502.93 125.61 502.99C145.72 503.06 146.25 502.3 145.97 497.31L145.97 497.32Z" fill="#882229" fill-opacity="1.000000" fill-rule="nonzero"/>
		<path id="Vector" d="M177.36 238.27C172.2 228.31 167.88 218.48 165.4 212.9C165.4 212.88 165.41 212.87 165.41 212.85C164.49 210.33 163.74 205.69 166.61 207.2C168.68 208.29 170.19 210.68 177.93 213.07C189.89 216.77 195.58 208.03 196.95 200.93C198.33 193.83 194.66 180.99 185.95 172.75C178.65 165.83 167.79 156.65 164.49 153.88C157.4 145.65 149.64 137.81 145.35 137.17C130.82 135.03 120.82 133.42 120.82 133.42L86.21 140.41C86.21 140.41 70.4 148.74 65.76 151.66C61.63 154.26 43.68 188.12 39.76 195.58C39.64 195.69 39.55 195.8 39.5 195.89C37.67 199.32 34.46 204.37 31.25 208.95C28.04 213.53 21.27 236 25.17 246.76C29.07 257.53 37.67 260.27 47.53 255.45C57.38 250.64 62.88 237.12 62.88 237.12C62.88 237.12 71.78 219.75 78.27 219.43C80.18 224.59 81.86 231.29 82.78 239.9C85.85 268.72 80.34 346.83 80.34 346.83C80.34 346.83 102.42 357.25 139.83 351.73C177.24 346.22 207.16 326.98 217.59 324.52C217.59 324.52 188.08 258.97 177.37 238.27L177.36 238.27Z" fill="#FF6699" fill-opacity="1.000000" fill-rule="nonzero"/>
		<path id="Vector" d="M137.17 342.78C163.08 338.95 185.4 328.58 200.16 321.72C205.85 319.08 210.49 316.92 213.69 315.92C213.51 315.52 213.33 315.12 213.13 314.7C209.85 315.74 205.24 317.88 199.59 320.5C184.9 327.33 162.69 337.65 136.97 341.45C108.04 345.72 88.18 340.32 80.92 337.79C80.89 338.26 80.86 338.73 80.84 339.18C86.45 341.1 98.55 344.38 115.82 344.38C122.24 344.38 129.38 343.93 137.17 342.78Z" fill="#3E1A62" fill-opacity="1.000000" fill-rule="nonzero"/>
		<path id="Vector" d="M72.53 206.89C68.92 202.46 63.59 199.41 57.93 198.6C51.93 197.75 45.7 199.26 40.81 202.86C40.22 203.29 39.93 204.02 40.33 204.7C40.66 205.28 41.58 205.61 42.17 205.18C46.54 201.98 52.09 200.45 57.48 201.24C62.64 202 67.34 204.76 70.63 208.8C71.09 209.36 72.06 209.27 72.54 208.8C73.09 208.24 73 207.46 72.54 206.89L72.53 206.89Z" fill="#3E1A62" fill-opacity="1.000000" fill-rule="nonzero"/>
		<path id="Vector" d="M75.98 177.46C75.95 175.73 73.26 175.73 73.29 177.46C73.42 187.72 73.76 197.98 74.3 208.23C74.39 209.95 77.08 209.96 76.99 208.23C76.45 197.98 76.11 187.72 75.98 177.46Z" fill="#3E1A62" fill-opacity="1.000000" fill-rule="nonzero"/>
		<path id="Vector" d="M146.82 137.61C146.3 137.39 145.81 137.24 145.35 137.17C143.77 138.74 142.24 140.38 140.78 142.06C138.81 144.36 136.96 146.75 135.22 149.22C134.72 149.94 135.89 150.61 136.38 149.9C139.47 145.49 142.98 141.38 146.82 137.61L146.82 137.61Z" fill="#3E1A62" fill-opacity="1.000000" fill-rule="nonzero"/>
		<path id="Vector" d="M81.31 162.82C82.08 163.21 82.77 162.05 81.99 161.66C76.29 158.83 70.8 155.12 65 152.3C64.74 152.58 64.44 152.92 64.11 153.33C70 156.15 75.57 159.97 81.31 162.82Z" fill="#3E1A62" fill-opacity="1.000000" fill-rule="nonzero"/>
		<path id="Vector" d="M93.73 149.55C89.53 148.07 85.2 146.04 82.56 142.34C82.18 142.54 81.79 142.75 81.37 142.97C84.2 146.97 88.71 149.21 93.26 150.81C94.07 151.1 94.55 149.84 93.73 149.55L93.73 149.55Z" fill="#3E1A62" fill-opacity="1.000000" fill-rule="nonzero"/>
		<path id="Vector" d="M124.59 134.02C123.42 138.16 120.8 141.76 117.38 144.4C115.44 145.91 113.25 147.1 110.98 148.01C108.55 148.98 105.85 149.84 103.21 149.77C102.35 149.75 102.3 151.1 103.17 151.12C105.93 151.19 108.69 150.34 111.24 149.35C113.68 148.39 115.99 147.14 118.09 145.55C121.82 142.73 124.72 138.75 125.93 134.23C125.46 134.15 125.01 134.08 124.6 134.02L124.59 134.02Z" fill="#3E1A62" fill-opacity="1.000000" fill-rule="nonzero"/>
		<path id="Vector" d="M91.37 144.73C98.03 147.6 106.17 146.85 112.44 143.38C116.12 141.35 119.45 138.33 120.63 134.18C120.7 133.93 120.77 133.68 120.83 133.42C119.84 133.17 118.84 132.85 117.68 132.39C115.33 131.98 116.11 122.66 115.11 119.24C113.45 113.57 88.51 120.72 88.51 120.72C88.51 120.72 91.72 136.88 86.25 140.42C87.03 142.16 89.8 144.06 91.36 144.73L91.37 144.73Z" fill="#FCC49A" fill-opacity="1.000000" fill-rule="nonzero"/>
		<path id="Vector" d="M115.78 128.6L89.81 123.29C87.8 142.09 108.98 149 115.78 128.6Z" fill="#1A1A1A" fill-opacity="1.000000" fill-rule="nonzero"/>
		<path id="Vector" d="M87.28 74.52C89.43 70.01 94.22 63.26 110.44 66.16C126.65 69.06 132.81 79.29 133.68 85.82C134.55 92.35 132.36 98.05 132.36 98.05L132.18 98.74C132.18 98.74 132.16 98.74 132.13 98.74C128.92 108.44 122.23 123.1 116.37 128.29C109.86 134.05 100.51 137.12 89.58 129.55C78.91 122.16 80.74 97.21 82.11 91.76C82.34 90.84 82.6 89.82 82.87 88.75C83.41 85.18 85.34 78.61 87.27 74.52L87.28 74.52Z" fill="#FCC49A" fill-opacity="1.000000" fill-rule="nonzero"/>
		<path id="Vector" d="M128.32 104.62C128.32 104.62 133.02 104.15 133.64 109.27C134.26 114.39 126.69 123.38 122.02 122.2C117.46 121.05 128.33 104.61 128.33 104.61L128.32 104.62Z" fill="#FCC49A" fill-opacity="1.000000" fill-rule="nonzero"/>
		<g opacity="0.600000">
			<path id="Vector" d="M104.56 111.5C104.69 111.12 105.04 110.85 105.42 110.76C106.08 110.6 106.74 110.45 107.4 110.29C107.7 110.22 108.04 110.25 108.31 110.42C109.39 111.12 108.94 112.5 107.98 112.73C107.33 112.88 106.68 113.03 106.03 113.19C105.14 113.4 104.18 112.57 104.56 111.49L104.56 111.5Z" fill="#C8513A" fill-opacity="1.000000" fill-rule="nonzero"/>
		</g>
		<path id="Vector" d="M99.7 93.79C100.17 93.58 100.53 93.15 100.57 92.65C100.63 91.97 100.08 91.43 99.33 91.44C99.16 91.44 94.95 91.53 90.9 93.45C90.2 93.78 89.87 94.53 90.17 95.13C90.46 95.73 91.25 95.97 91.94 95.62C95.39 94.01 99.06 93.92 99.1 93.92C99.31 93.92 99.51 93.87 99.69 93.79L99.7 93.79Z" fill="#F1404C" fill-opacity="1.000000" fill-rule="nonzero"/>
		<path id="Vector" d="M120.22 98.17C119.91 97.76 119.8 97.21 120.01 96.76C120.29 96.14 121.04 95.94 121.69 96.31C121.84 96.4 125.46 98.54 128.05 102.19C128.49 102.81 128.41 103.63 127.86 104.01C127.32 104.39 126.51 104.22 126.07 103.57C123.86 100.48 120.7 98.59 120.67 98.57C120.49 98.47 120.34 98.33 120.22 98.17Z" fill="#F1404C" fill-opacity="1.000000" fill-rule="nonzero"/>
		<g opacity="0.710000">
			<path id="Vector" d="M127.6 110.23C128.38 110.42 128.56 112.96 128.37 113.74C128.18 114.52 125.25 116.27 125.25 116.27C125.25 116.27 126.82 110.04 127.6 110.23L127.6 110.23Z" fill="#D76A3C" fill-opacity="1.000000" fill-rule="nonzero"/>
		</g>
		<path id="Vector" d="M83.49 93.06C83.49 93.06 79.57 90.42 76.6 94.64C73.62 98.86 76 109.55 80.67 110.72C85.22 111.87 83.49 93.06 83.49 93.06Z" fill="#FCC49A" fill-opacity="1.000000" fill-rule="nonzero"/>
		<g opacity="0.710000">
			<path id="Vector" d="M81.46 98.34C80.68 98.15 79.31 100.29 79.12 101.07C78.92 101.85 80.67 104.77 80.67 104.77C80.67 104.77 82.24 98.54 81.46 98.34L81.46 98.34Z" fill="#D76A3C" fill-opacity="1.000000" fill-rule="nonzero"/>
		</g>
		<path id="Vector" d="M97.98 117.01L113.34 120.53C113.34 120.53 109.81 126.32 104.27 126.58C98.74 126.83 97.98 117.02 97.98 117.02L97.98 117.01Z" fill="#FFFFFF" fill-opacity="1.000000" fill-rule="nonzero"/>
		<path id="Vector" d="M99.39 102.23C99.39 102.17 99.37 102.11 99.35 102.06C99.35 102.05 99.35 102.04 99.34 102.02C99.34 102.01 99.34 102 99.33 101.99C99.29 101.88 99.25 101.78 99.2 101.67C99.19 101.63 99.17 101.59 99.15 101.54C99.06 101.38 98.96 101.24 98.83 101.12C98.6 100.9 98.38 100.78 98.08 100.68C97.64 100.53 97.12 100.63 96.72 100.85C96.57 100.93 96.43 101.04 96.31 101.18C96.11 101.41 95.99 101.61 95.89 101.9C95.89 101.91 95.88 101.92 95.88 101.93C95.85 102.05 95.83 102.2 95.82 102.32C95.82 102.39 95.82 102.47 95.83 102.55C95.74 102.76 95.7 102.94 95.69 103.19C95.69 103.2 95.69 103.22 95.69 103.22C95.7 103.32 95.73 103.49 95.74 103.6C95.77 103.73 95.86 103.9 95.9 103.99C95.97 104.14 96.08 104.27 96.18 104.38C96.2 104.41 96.23 104.42 96.25 104.44C96.35 104.53 96.46 104.62 96.58 104.7C96.73 104.78 96.89 104.85 97.05 104.89C97.18 104.93 97.33 104.94 97.47 104.95C97.51 104.95 97.55 104.95 97.58 104.95C97.91 104.93 98.09 104.88 98.39 104.73C98.54 104.65 98.68 104.54 98.81 104.42C98.83 104.39 98.86 104.37 98.88 104.34C98.96 104.23 99.06 104.13 99.12 104.01C99.22 103.86 99.28 103.68 99.34 103.51C99.39 103.34 99.4 103.14 99.43 102.97C99.43 102.9 99.44 102.83 99.44 102.75C99.44 102.57 99.4 102.39 99.37 102.22L99.39 102.23Z" fill="#1A1A1A" fill-opacity="1.000000" fill-rule="nonzero"/>
		<path id="Vector" d="M120.77 106.83C120.77 106.8 120.75 106.75 120.74 106.71C120.72 106.66 120.72 106.61 120.7 106.57C120.65 106.41 120.57 106.24 120.51 106.09C120.48 106.03 120.45 105.96 120.42 105.91C120.25 105.65 120.1 105.5 119.85 105.33C119.64 105.18 119.32 105.09 119.05 105.09C118.74 105.09 118.55 105.16 118.27 105.29C118.24 105.3 118.22 105.31 118.2 105.33C118.1 105.39 117.99 105.48 117.91 105.55C117.89 105.56 117.87 105.58 117.86 105.59C117.74 105.71 117.63 105.84 117.56 105.99C117.52 106.05 117.49 106.14 117.46 106.2C117.43 106.28 117.39 106.36 117.37 106.44C117.32 106.61 117.31 106.79 117.29 106.95C117.28 107.07 117.3 107.18 117.31 107.3C117.31 107.34 117.32 107.38 117.33 107.42C117.33 107.45 117.33 107.48 117.33 107.5C117.34 107.67 117.36 107.87 117.42 108.04C117.47 108.16 117.51 108.3 117.58 108.41C117.64 108.52 117.78 108.68 117.82 108.72C117.92 108.85 118.06 108.94 118.19 109.03C118.46 109.22 118.78 109.28 119.1 109.31C119.38 109.34 119.75 109.24 119.99 109.08C120.23 108.92 120.41 108.75 120.56 108.51C120.63 108.39 120.67 108.25 120.72 108.13C120.73 108.09 120.74 108.06 120.75 108.02C120.78 107.85 120.8 107.68 120.81 107.51C120.81 107.44 120.81 107.37 120.81 107.3C120.81 107.29 120.81 107.29 120.81 107.28C120.81 107.13 120.8 106.97 120.77 106.82L120.77 106.83Z" fill="#1A1A1A" fill-opacity="1.000000" fill-rule="nonzero"/>
		<path id="Vector" d="M73.49 98.36C73.49 98.36 78.76 100.02 87.01 92.27C95.25 84.52 94.59 77.6 96.9 77.93C99.21 78.26 100.2 88.48 107.95 90.62C115.7 92.76 118.83 91.62 118.83 91.62C118.83 91.62 123.12 97.88 128.72 99.36C128.72 99.36 129.06 109.09 133.34 112.88C137.63 116.67 142.24 100.35 140.75 90.3C139.27 80.24 133.5 71.01 122.62 65.74C111.73 60.46 100.69 64.42 100.69 64.42C100.69 64.42 93.25 62.7 87.82 65.74C74.3 73.32 73.48 98.37 73.48 98.37L73.49 98.36Z" fill="#F1404C" fill-opacity="1.000000" fill-rule="nonzero"/>
		<path id="Vector" d="M106.28 151.67C106.28 151.67 83.12 162.42 78.45 165.23C73.78 168.03 67.01 186.93 63.27 190.2C59.53 193.47 69.11 196.04 74.01 192.3C78.91 188.56 82.65 176.66 84.52 175.96C86.39 175.26 96.64 174.96 101.78 170.99C106.92 167.02 106.28 151.67 106.28 151.67L106.28 151.67Z" fill="#5E6466" fill-opacity="1.000000" fill-rule="nonzero"/>
		<path id="Vector" d="M93.71 173.76C93.29 173.05 92.79 172.39 92.29 171.74C92.03 171.39 91.77 171.05 91.51 170.7C91.25 170.35 90.99 169.78 90.66 169.5C90.31 169.21 89.81 169.44 89.41 169.09C88.89 168.64 88.82 167.59 88.96 166.96C89.25 165.66 90.46 164.83 91.18 163.75C89.92 163.5 88.66 163.23 87.47 162.75C87.07 162.6 86.93 162.24 87.1 161.85C87.35 161.28 87.69 160.78 88.08 160.3C83.81 162.37 80.05 164.27 78.45 165.22C73.78 168.02 67.01 186.93 63.27 190.2C59.53 193.46 69.11 196.03 74.01 192.3C78.91 188.56 82.65 176.66 84.51 175.96C85.63 175.54 89.75 175.26 93.98 174.26C93.89 174.09 93.8 173.92 93.7 173.76L93.71 173.76Z" fill="#2A2D2E" fill-opacity="1.000000" fill-rule="nonzero"/>
		<path id="Vector" d="M157.46 198.74C151.19 198.08 154.31 199.98 152.36 180.62C150.41 161.26 151.13 149.4 156.18 138.24C161.22 127.08 162.77 138.77 165.12 131.51C166.11 128.45 166.4 125.51 166.15 122.73C168.58 116.25 174.36 104.69 169.19 103.96C165.06 103.38 157.79 106.56 154.22 108.29C149.28 107.21 143.14 106.9 138.28 107.18C136.18 102.56 132.82 98.7 130.84 102C129.1 104.91 127.16 108.62 125.87 111.01C123.76 112.63 122.41 114.46 120.6 115.87C116.95 118.7 118.1 122.78 119.36 128.04C120.62 133.29 121.24 138.01 119.2 142.11C119.2 142.11 115.91 142.74 106.28 151.67C96.64 160.6 92.77 168.13 94.38 180.27C95.29 187.1 98.01 197.08 100.37 205.73C90.42 202.05 96.57 218.17 94.15 217.71C92.58 217.42 90.9 217.64 89.09 218.22C84.5 219.68 83.67 226.68 84.74 228.9C85.81 231.13 88.95 228.59 91.23 233.56C93.51 238.52 98.55 256.35 103.94 259.28C109.34 262.21 110.22 254.04 115.27 249.92C120.32 245.81 121.83 249.39 127.41 248.48C132.98 247.57 125.94 272.71 123.46 279.12C120.98 285.54 117.64 307 120.44 318.85C123.24 330.72 128.63 330.13 131.02 332.75C133.41 335.38 136.65 327.15 137.89 322.02C139.13 316.88 140.52 315.94 139.13 306.16C137.74 296.38 135.57 278.18 137.75 267.4C139.93 256.61 141.83 251.67 141.83 251.67C141.83 251.67 145.12 256.69 150.46 249.89C155.8 243.11 161.27 226.44 162.55 224.32C163.82 222.21 163.27 223.19 163.27 223.19C163.27 223.19 166.01 221.97 166.22 217.46C166.35 214.79 164.37 212.89 162.14 211.98C160.61 211.35 163.73 199.41 157.45 198.75L157.46 198.74Z" fill="#5E6466" fill-opacity="1.000000" fill-rule="nonzero"/>
		<path id="Vector" d="M137.76 267.39C139.19 260.29 140.51 255.73 141.24 253.45C139.82 252.68 137.8 251.86 136.79 253.52C136.46 254.07 135.7 254.04 135.37 253.52C134.76 252.58 134.11 251.61 133.26 250.86C132.87 250.52 132.33 250.1 131.78 250.19C131.12 250.29 130.64 251 130.33 251.51C130 252.04 129.74 252.59 129.5 253.16C129.3 260.56 125.24 274.57 123.48 279.13C121 285.55 117.65 307 120.45 318.86C123.25 330.72 128.64 330.14 131.03 332.76C133.42 335.39 136.66 327.16 137.9 322.03C139.14 316.89 140.53 315.95 139.14 306.17C137.75 296.39 135.58 278.19 137.76 267.4L137.76 267.39Z" fill="#2A2D2E" fill-opacity="1.000000" fill-rule="nonzero"/>
		<path id="Vector" d="M169.2 103.96C165.07 103.38 157.8 106.56 154.23 108.3C149.29 107.21 143.16 106.91 138.29 107.19C136.19 102.57 132.83 98.71 130.85 102.01C129.11 104.91 127.17 108.63 125.88 111.02C123.77 112.64 122.42 114.46 120.61 115.87C116.97 118.71 118.11 122.79 119.37 128.05C120.63 133.3 121.25 138.02 119.22 142.11C119.22 142.11 115.92 142.74 106.29 151.67C96.66 160.61 92.79 168.14 94.39 180.27C95.3 187.1 98.02 197.09 100.38 205.74C90.44 202.05 96.58 218.18 94.16 217.72C92.6 217.43 90.91 217.65 89.11 218.22C84.51 219.69 83.69 226.68 84.76 228.91C85.83 231.14 88.96 228.6 91.24 233.57C93.52 238.53 98.56 256.35 103.95 259.29C109.35 262.22 110.23 254.05 115.29 249.93C120.34 245.81 121.84 249.4 127.42 248.49C128.56 248.3 129.17 249.21 129.41 250.83C129.9 249.89 130.57 249.12 131.54 248.89C133.4 248.43 135 250.22 136.11 251.73C137.56 250.32 139.71 250.71 141.82 251.76C141.84 251.71 141.85 251.68 141.85 251.68C141.85 251.68 141.89 251.75 141.97 251.85C142.83 252.29 143.68 252.83 144.46 253.41C145.93 253.68 147.99 253.08 150.48 249.91C155.82 243.12 161.29 226.45 162.57 224.34C163.84 222.22 163.29 223.2 163.29 223.2C163.29 223.2 166.03 221.98 166.24 217.47C166.36 214.8 164.39 212.91 162.16 211.99C160.63 211.37 163.75 199.43 157.47 198.76C151.2 198.1 154.31 200 152.37 180.64C150.42 161.28 149.98 163.93 155.02 152.77C160.07 141.61 162.78 138.79 165.13 131.53C166.12 128.47 166.41 125.53 166.16 122.75C168.59 116.27 174.37 104.71 169.2 103.98L169.2 103.96Z" fill="#5E6466" fill-opacity="1.000000" fill-rule="nonzero"/>
		<path id="Vector" d="M138.95 304.83C138.55 304.93 138.14 305.01 137.7 305.06C133.92 305.44 130.53 303.15 128.01 300.53C126.27 301.91 124.35 300.87 122.94 299.35C122.03 300.25 120.8 300.83 119.69 300.13C119.18 306.84 119.24 313.75 120.45 318.85C123.25 330.72 128.64 330.13 131.03 332.75C133.42 335.38 136.65 327.15 137.89 322.02C139.14 316.88 140.53 315.94 139.13 306.16C139.07 305.74 139.01 305.29 138.95 304.84L138.95 304.83Z" fill="#1A1A1A" fill-opacity="1.000000" fill-rule="nonzero"/>
		<path id="Vector" d="M124.55 147.37C124.55 147.37 133.19 148.81 140.73 151.65C147.57 154.23 151.42 156.87 151.75 156.98C152.08 157.09 157.9 162.11 158.67 173.55C159.44 184.99 145.79 177.4 140.72 171.24C135.66 165.08 131.04 161.22 128.73 160.9C126.42 160.57 121.03 147.04 124.55 147.37L124.55 147.37Z" fill="#2A2D2E" fill-opacity="1.000000" fill-rule="nonzero"/>
		<path id="Vector" d="M122.78 136.24C122.78 136.24 118.12 127.22 118.27 121.5C118.42 115.79 123.23 111.88 127.29 110.68C131.35 109.48 132.55 114.44 135.56 114.74C138.56 115.04 140.82 111.59 146.68 112.64C152.55 113.69 152.55 126.61 150.44 131.58C148.34 136.54 130.14 145.86 122.77 136.24L122.78 136.24Z" fill="#2A2D2E" fill-opacity="1.000000" fill-rule="nonzero"/>
		<path id="Vector" d="M124.33 124.07C124.33 124.07 119.48 120.27 120.86 118.58C122.24 116.9 130.31 118.69 132.25 120.33C134.19 121.97 124.34 124.07 124.34 124.07L124.33 124.07Z" fill="#1A1A1A" fill-opacity="1.000000" fill-rule="nonzero"/>
		<path id="Vector" d="M126.17 113.06C126.04 112.9 125.85 112.81 125.66 112.73C125.61 112.72 125.56 112.7 125.5 112.69C125.39 112.67 125.29 112.66 125.18 112.66C124.95 112.68 124.73 112.74 124.54 112.86C124.22 113.07 123.99 113.38 123.8 113.7C123.71 113.86 123.62 114.03 123.58 114.21C123.51 114.53 123.57 114.85 123.8 115.09C124.21 115.5 124.84 115.33 125.29 115.09C125.46 115 125.62 114.89 125.76 114.76C125.78 114.75 125.8 114.75 125.82 114.74C126.19 114.57 126.44 114.18 126.45 113.77C126.45 113.5 126.34 113.27 126.17 113.07L126.17 113.06Z" fill="#2C4A5F" fill-opacity="1.000000" fill-rule="nonzero"/>
		<path id="Vector" d="M147.16 117.24C147.07 116.77 146.55 116.45 146.12 116.33C145.72 116.22 145.31 116.26 144.93 116.4C144.74 116.38 144.56 116.43 144.4 116.57C144.14 116.83 143.87 117.11 143.7 117.45C143.51 117.84 143.44 118.27 143.57 118.68C143.71 119.11 144.02 119.48 144.47 119.6C144.94 119.71 145.42 119.54 145.83 119.31C146.13 119.14 146.42 118.9 146.64 118.62C146.94 118.24 147.26 117.75 147.16 117.24L147.16 117.24Z" fill="#2C4A5F" fill-opacity="1.000000" fill-rule="nonzero"/>
		<path id="Vector" d="M169.2 103.96C165.07 103.38 157.8 106.56 154.23 108.3C158.94 114.25 168.1 107.88 168.32 108.63C168.98 110.86 166.23 123.52 166.16 122.74C168.59 116.25 174.37 104.7 169.2 103.96Z" fill="#2A2D2E" fill-opacity="1.000000" fill-rule="nonzero"/>
		<path id="Vector" d="M162.54 111.26C162.09 110.56 160.32 111.89 160.77 112.6C162.81 115.8 164.88 119.11 165.46 122.94C165.58 123.76 166.82 123.41 166.7 122.59C166.12 118.67 164.63 114.55 162.54 111.26Z" fill="#1A1A1A" fill-opacity="1.000000" fill-rule="nonzero"/>
		<path id="Vector" d="M130.85 102C129.44 104.35 127.91 107.22 126.7 109.5C127.38 109.24 128.81 107.26 129.24 106.6C133.8 99.7 133.24 107.82 135 107.56C136.93 107.29 138.29 107.18 138.29 107.18C136.19 102.56 132.83 98.7 130.85 101.99L130.85 102Z" fill="#2A2D2E" fill-opacity="1.000000" fill-rule="nonzero"/>
		<path id="Vector" d="M142.17 106.66C137.93 106.18 134.89 105.83 130.78 106.99C129.98 107.21 129.68 108.77 130.48 108.54C134.49 107.41 138.65 107.08 142.78 107.54C143.6 107.64 142.99 106.75 142.17 106.66Z" fill="#1A1A1A" fill-opacity="1.000000" fill-rule="nonzero"/>
		<path id="Vector" d="M99.35 160.12C95.04 165.3 92.92 172.12 93.69 178.84C93.83 180.06 94.74 180.15 94.6 178.91C93.89 172.72 96.72 166.29 100.72 161.5C101.52 160.54 100.15 159.16 99.35 160.12L99.35 160.12Z" fill="#1A1A1A" fill-opacity="1.000000" fill-rule="nonzero"/>
		<path id="Vector" d="M135.74 245.56C135.69 245.4 135.61 245.26 135.49 245.14L134.48 244.17C134.39 244.07 134.29 244 134.17 243.97C134.05 243.91 133.92 243.88 133.79 243.88C133.66 243.88 133.53 243.91 133.42 243.97C133.3 244 133.19 244.08 133.1 244.17C132.93 244.35 132.81 244.6 132.82 244.85C132.83 244.93 132.84 245.02 132.85 245.11C132.9 245.27 132.98 245.42 133.1 245.54C133.44 245.86 133.78 246.19 134.11 246.51C134.2 246.6 134.31 246.67 134.43 246.71C134.54 246.77 134.67 246.8 134.8 246.79C134.93 246.79 135.06 246.77 135.18 246.71C135.3 246.67 135.4 246.6 135.49 246.51C135.66 246.32 135.79 246.08 135.78 245.82C135.76 245.74 135.75 245.65 135.74 245.56Z" fill="#1A1A1A" fill-opacity="1.000000" fill-rule="nonzero"/>
		<path id="Vector" d="M157.79 211.53C154.9 212.41 153.74 215.7 153.74 215.7C153.74 215.7 153.77 215.04 153.79 213.85C152.44 216.35 150.92 219.49 148.95 223.16C143.27 233.71 139.14 244.51 141.78 251.85C141.82 251.74 141.84 251.67 141.84 251.67C141.84 251.67 145.13 256.68 150.47 249.89C155.81 243.1 161.28 226.44 162.56 224.32C163.83 222.2 163.28 223.18 163.28 223.18C163.28 223.18 166.03 221.97 166.23 217.46C166.44 212.94 160.68 210.66 157.79 211.53Z" fill="#2A2D2E" fill-opacity="1.000000" fill-rule="nonzero"/>
		<path id="Vector" d="M109.18 258.01C109.16 256.58 108.81 254.88 107.98 252.82C103.46 241.52 100.93 233.61 101.5 227.96C101.97 223.17 99.1 219.46 95.41 218.07C93.5 217.34 91.4 217.49 89.11 218.22C84.51 219.69 83.69 226.68 84.76 228.91C85.83 231.14 88.96 228.6 91.24 233.57C93.52 238.53 98.56 256.35 103.95 259.29C106.33 260.57 107.82 259.72 109.19 258.01L109.18 258.01Z" fill="#2A2D2E" fill-opacity="1.000000" fill-rule="nonzero"/>
		<path id="Vector" d="M153.18 214.12C149.18 220.5 144.16 227.19 142.03 234.47C141.68 235.67 144.2 236.04 144.7 234.9C147.71 228.08 150.36 221.02 154.28 214.76C154.95 213.71 153.85 213.06 153.18 214.12Z" fill="#1A1A1A" fill-opacity="1.000000" fill-rule="nonzero"/>
		<path id="Vector" d="M95.3 225.23C95.06 224.81 94.39 224.56 93.98 224.88C93.63 225.14 93.33 225.42 93.06 225.77C92.79 226.12 92.69 226.3 92.42 226.57C92.26 226.74 92.25 226.75 92.11 226.82C92.09 226.83 92.09 226.83 92.08 226.84C92.05 226.84 92.02 226.85 92 226.86C91.93 226.87 91.9 226.88 91.88 226.88C91.87 226.88 91.83 226.88 91.79 226.88C91.37 226.91 90.95 226.84 90.53 226.87C89.98 226.92 89.48 227.08 89.05 227.45C88.71 227.75 88.5 228.17 88.27 228.56C88.11 228.84 87.93 229.05 87.65 229.21C87.56 229.27 87.46 229.31 87.3 229.34C87.3 229.34 87.2 229.34 87.15 229.34C87.19 229.33 86.99 229.3 87.09 229.34C86.6 229.13 86.04 229.19 85.76 229.69C85.52 230.1 85.6 230.22 86.09 230.42C87.15 230.87 88.22 231.26 89.11 230.54C89.5 230.22 89.79 229.82 90.03 229.38C90.12 229.22 90.22 229.02 90.3 228.94C90.38 228.85 90.46 228.81 90.59 228.8C90.96 228.76 91.48 228.85 91.89 228.82C92.45 228.78 92.94 228.62 93.38 228.29C93.75 228 94.03 227.65 94.32 227.28C94.46 227.09 94.48 227.05 94.61 226.9C94.67 226.83 94.73 226.76 94.79 226.7C94.81 226.68 95.03 226.48 94.94 226.55C95.36 226.24 95.57 225.71 95.29 225.23L95.3 225.23Z" fill="#1A1A1A" fill-opacity="1.000000" fill-rule="nonzero"/>
		<path id="Vector" d="M161.99 222.01C161.94 221.56 161.77 221.15 161.43 220.85C161.52 220.59 161.51 220.29 161.36 220.06C161.06 219.59 160.52 219.46 160.04 219.71C159.44 220.01 158.89 220.39 158.4 220.84C157.92 221.27 157.45 221.79 157.14 222.35C156.9 222.78 156.78 223.28 156.94 223.75C157.08 224.17 157.41 224.51 157.82 224.69C158.49 225 159.23 225.17 159.93 225.39C160.42 225.54 160.91 225.72 161.4 225.46C161.94 225.17 162 224.6 162.01 224.07C162.01 223.71 162.01 223.36 162.01 223C162.01 222.67 162.04 222.33 162 222L161.99 222.01Z" fill="#1A1A1A" fill-opacity="1.000000" fill-rule="nonzero"/>
		<path id="Vector" d="M165.35 219.74C165.28 219.67 165.2 219.61 165.11 219.55C165.06 219.53 165 219.51 164.96 219.49C164.92 219.47 164.86 219.44 164.81 219.43C164.8 219.43 164.79 219.43 164.77 219.43C164.68 219.41 164.58 219.4 164.49 219.39C164.47 219.39 164.44 219.39 164.42 219.39C164.16 219.41 164.04 219.44 163.8 219.56C163.79 219.56 163.78 219.57 163.76 219.58C163.76 219.58 163.75 219.58 163.75 219.59C163.68 219.64 163.6 219.69 163.54 219.75C163.46 219.81 163.39 219.91 163.34 219.99C163.32 220.03 163.3 220.08 163.28 220.12C163.27 220.14 163.24 220.15 163.22 220.18C163.14 220.27 163.08 220.38 163.05 220.51C163.04 220.59 163.03 220.68 163.01 220.77C163.01 220.94 163.06 221.11 163.15 221.26C163.19 221.33 163.25 221.39 163.3 221.45C163.42 221.57 163.56 221.66 163.73 221.7C163.76 221.71 163.79 221.72 163.83 221.72C163.93 221.74 164.03 221.75 164.13 221.76C164.14 221.76 164.17 221.76 164.19 221.76C164.3 221.76 164.42 221.74 164.54 221.72C164.57 221.71 164.61 221.7 164.65 221.69C164.76 221.65 164.86 221.61 164.96 221.56C165.03 221.52 165.09 221.47 165.15 221.42C165.21 221.38 165.27 221.33 165.32 221.28C165.4 221.19 165.47 221.1 165.53 221C165.79 220.6 165.66 220.06 165.33 219.73L165.35 219.74Z" fill="#1A1A1A" fill-opacity="1.000000" fill-rule="nonzero"/>
		<path id="Vector" d="M164.6 216.92C164.57 216.8 164.51 216.69 164.42 216.59C164.36 216.49 164.27 216.4 164.15 216.34C164.07 216.31 163.99 216.28 163.92 216.25C163.88 216.23 163.85 216.23 163.81 216.23C163.8 216.23 163.79 216.23 163.79 216.22C163.62 216.17 163.44 216.17 163.27 216.22C163.19 216.25 163.12 216.29 163.04 216.32C162.9 216.4 162.78 216.52 162.69 216.67C162.58 216.84 162.48 217 162.37 217.17C162.3 217.28 162.26 217.4 162.26 217.53C162.23 217.66 162.23 217.79 162.28 217.92C162.31 218.05 162.37 218.16 162.45 218.25C162.52 218.36 162.61 218.44 162.72 218.5L162.95 218.6C163.05 218.62 163.15 218.63 163.25 218.63C163.35 218.63 163.46 218.63 163.57 218.6C163.65 218.57 163.73 218.54 163.8 218.51C163.95 218.42 164.06 218.31 164.15 218.16C164.27 217.99 164.39 217.84 164.51 217.67C164.58 217.56 164.62 217.44 164.62 217.31C164.65 217.18 164.65 217.05 164.6 216.92L164.6 216.92Z" fill="#1A1A1A" fill-opacity="1.000000" fill-rule="nonzero"/>
		<path id="Vector" d="M161.85 216.69C161.84 216.59 161.83 216.49 161.81 216.4C161.81 216.37 161.8 216.34 161.8 216.31C161.77 216.18 161.71 216.08 161.62 215.98C161.55 215.88 161.46 215.79 161.35 215.73C161.24 215.66 161.12 215.62 160.99 215.62C160.86 215.59 160.73 215.59 160.6 215.64C160.52 215.67 160.44 215.7 160.37 215.73C160.27 215.79 160.19 215.87 160.12 215.96C160.08 215.99 160.05 216.01 160.02 216.03C159.97 216.1 159.92 216.17 159.87 216.23C159.78 216.38 159.73 216.54 159.73 216.72C159.75 216.86 159.76 217 159.78 217.14C159.79 217.23 159.8 217.31 159.81 217.4L159.91 217.63L160.06 217.82C160.15 217.92 160.25 217.99 160.37 218.02C160.45 218.07 160.53 218.09 160.62 218.09C160.7 218.11 160.79 218.11 160.88 218.09C160.96 218.09 161.05 218.07 161.12 218.02C161.24 217.99 161.34 217.92 161.43 217.82C161.49 217.75 161.55 217.68 161.6 217.6C161.61 217.59 161.62 217.58 161.63 217.56C161.64 217.54 161.66 217.52 161.66 217.49C161.72 217.38 161.78 217.24 161.81 217.12C161.81 217.1 161.81 217.09 161.81 217.08C161.83 216.98 161.85 216.89 161.85 216.79C161.85 216.77 161.85 216.74 161.85 216.71C161.85 216.7 161.85 216.69 161.85 216.67L161.85 216.69Z" fill="#1A1A1A" fill-opacity="1.000000" fill-rule="nonzero"/>
		<path id="Vector" d="M159.41 217.44C159.38 217.32 159.3 217.22 159.21 217.13C159.12 217.03 159.02 216.97 158.9 216.93C158.78 216.87 158.66 216.84 158.52 216.85C158.44 216.86 158.35 216.87 158.26 216.88C158.1 216.93 157.95 217.01 157.83 217.13C157.78 217.2 157.73 217.26 157.68 217.32C157.59 217.47 157.55 217.64 157.55 217.81L157.55 218.7C157.55 218.83 157.57 218.96 157.63 219.08C157.67 219.2 157.74 219.3 157.83 219.39C157.92 219.49 158.03 219.55 158.15 219.59C158.26 219.65 158.39 219.68 158.52 219.68C158.61 219.66 158.69 219.65 158.78 219.64C158.95 219.59 159.09 219.51 159.21 219.39C159.26 219.32 159.32 219.26 159.36 219.2C159.46 219.05 159.5 218.88 159.5 218.71L159.5 217.82C159.5 217.69 159.47 217.56 159.41 217.44Z" fill="#1A1A1A" fill-opacity="1.000000" fill-rule="nonzero"/>
		<path id="Vector" d="M163.26 200.17C164.71 202.84 176.9 211.87 185.82 209.64C194.73 207.41 196.89 193.76 189.69 182.69C184.79 175.17 163.26 200.17 163.26 200.17Z" fill="#1A1A1A" fill-opacity="1.000000" fill-rule="nonzero"/>
		<path id="Vector" d="M176.73 170.32C176.73 170.32 144.02 160.75 138.23 157.74C132.44 154.72 129.51 144.81 128.48 144.12C125.73 142.28 124.56 149.29 124.24 152.97C123.95 156.33 111.56 148.94 108.03 148.94C104.5 148.94 105.51 152.71 108.79 154.72C112.06 156.74 117.84 158 116.08 159C114.32 160 103 156.23 99.72 157.49C96.45 158.75 97.96 162.02 100.73 163.28C103.5 164.53 113.31 166.55 113.31 168.05C113.31 169.56 103.5 166.54 101.49 168.05C99.47 169.57 101.99 172.08 108.53 173.34C108.53 173.34 105.51 176.11 110.05 177.37C114.58 178.63 125.39 179.38 133.2 179.63C141 179.88 155.75 200.96 176.73 205.29C199.27 209.94 195.36 178.37 176.73 170.32L176.73 170.32Z" fill="#FCC49A" fill-opacity="1.000000" fill-rule="nonzero"/>
		<path id="Vector" d="M125.04 147.37C125.04 147.37 120.72 145.13 114.32 150.48C111.23 153.07 110.22 165.7 108.42 171C107.7 172.08 106.45 173.91 105.95 174.56C105.22 175.5 105.85 177.8 107.1 178C108.35 178.21 107.41 179.67 109.39 180.09C111.38 180.51 112 179.25 113.15 179.88C114.3 180.51 117.43 181.03 118.78 177.48C118.84 177.31 118.87 177.16 118.88 176.99C120.69 174.13 120.71 169.19 122.47 164.73C125.14 157.92 125.04 147.37 125.04 147.37Z" fill="#2A2D2E" fill-opacity="1.000000" fill-rule="nonzero"/>
		<path id="Vector" d="M43.96 210.26C42.81 210.89 25.16 222.36 28.67 242.1C32.18 261.84 55.11 251.65 61.17 236.37C67.22 221.08 49.7 207.07 43.97 210.25L43.96 210.26Z" fill="#1A1A1A" fill-opacity="1.000000" fill-rule="nonzero"/>
		<path id="Vector" d="M114.03 204.56C114.03 204.56 117.31 207.02 112.92 208.72C108.53 210.42 97.84 212.23 90.1 213.25C82.37 214.27 71.88 238.57 49.31 243.08C26.74 247.59 28.12 218.13 45.86 208.28C45.86 208.28 77.47 195.55 82.94 191.97C88.4 188.4 94.38 180.7 97.58 179.88C100.79 179.06 99.69 183.62 97.75 185.25C95.15 187.41 108.62 180.58 112.12 180.23C115.63 179.89 114.99 183.74 111.94 186.06C108.88 188.39 103.25 190.21 105.1 191.04C106.95 191.87 116.56 184.95 119.94 185.88C123.33 186.81 121.92 190 119.28 191.52C119.28 191.52 120.53 193.72 119.28 195.55C118.04 197.38 106.17 202.8 105.58 203.9C104.99 205 111.62 203.33 114.03 204.57L114.03 204.56Z" fill="#FCC49A" fill-opacity="1.000000" fill-rule="nonzero"/>
	</g>
</svg>
