<svg width="350.000000" height="254.000000" viewBox="0 0 350 254" fill="none" xmlns="http://www.w3.org/2000/svg" xmlns:xlink="http://www.w3.org/1999/xlink">
	<desc>
			Created with Pixso.
	</desc>
	<defs>
		<clipPath id="clip580_1378">
			<rect id="Frame" rx="-0.064750" width="349.520416" height="258.870453" transform="translate(0.064750 -4.935250)" fill="white" fill-opacity="0"/>
		</clipPath>
		<linearGradient x1="174.999985" y1="0.000000" x2="174.999985" y2="254.000000" id="paint_linear_580_1374_0" gradientUnits="userSpaceOnUse">
			<stop stop-color="#97CAFF"/>
			<stop offset="1.000000" stop-color="#D9EDFF"/>
		</linearGradient>
		<linearGradient x1="174.999985" y1="0.000000" x2="174.999985" y2="254.000000" id="paint_linear_580_1376_0" gradientUnits="userSpaceOnUse">
			<stop stop-color="#9DCDFF"/>
			<stop offset="1.000000" stop-color="#DAEDFF"/>
		</linearGradient>
	</defs>
	<rect id="Rectangle 152" width="350.000000" height="254.000000" fill="url(#paint_linear_580_1374_0)" fill-opacity="1.000000"/>
	<mask id="mask580_1376" mask-type="alpha" maskUnits="userSpaceOnUse" x="0.000000" y="0.000000" width="350.000000" height="254.000000">
		<rect id="Rectangle 153" width="350.000000" height="254.000000" fill="url(#paint_linear_580_1376_0)" fill-opacity="1.000000"/>
	</mask>
	<g mask="url(#mask580_1376)">
		<rect id="Frame" rx="-0.064750" width="349.520416" height="258.870453" transform="translate(0.064750 -4.935250)" fill="#FFFFFF" fill-opacity="0"/>
		<g clip-path="url(#clip580_1378)">
			<path id="Vector" d="M304 63.8C304 74.51 281.66 83.54 171.61 87.49C124.51 89.18 98.52 95.72 98.52 107.56C98.52 117.04 122.74 125.94 173.34 140.45C212.83 151.77 260.04 167.66 259.89 212.03C259.84 224.6 250.55 247.37 226.58 262.69L0 262.69L0 208.25C25.12 215.91 52.13 217.68 73.55 215.02C130.91 207.9 143.67 173.84 89.65 147.34C57.22 131.42 39.01 121.17 42.94 105.85C47.59 87.72 81.39 78.34 171.31 76.34C218.93 75.27 245.86 75.24 267.12 68.24C292.21 59.97 299.17 46.82 241.5 49.11C241.5 49.11 246.37 48.98 258.56 49.11C275.46 49.3 304 49.15 304 63.8Z" fill="#FF6699" fill-opacity="1.000000" fill-rule="nonzero"/>
			<path id="Vector" d="M236 65.19C236 67.51 236.17 69.78 236.51 72L326.48 72C326.82 69.78 327 67.51 327 65.19C327 40.23 306.62 20 281.5 20C256.37 20 236 40.23 236 65.19Z" fill="#FCC49A" fill-opacity="1.000000" fill-rule="nonzero"/>
			<path id="Vector" d="M177.61 180.58C174.5 182.32 177.27 194.7 177.62 197.59C177.67 198.59 178.11 199 179.06 199.34C179.82 199.61 181.03 197.88 181.15 197.03C181.3 194.57 181.86 189.3 181.62 184.17L177.61 180.58L177.61 180.58Z" fill="#FCC49A" fill-opacity="1.000000" fill-rule="nonzero"/>
			<path id="Vector" d="M178.1 200.02C176.59 199.29 177.5 197.53 177.64 197.57C179.77 198.32 181.11 197 181.15 197.02C182.38 197.61 183.52 198.04 184.27 198.43C185.09 198.87 184.79 199.98 183.19 200.12C182.27 200.21 181.23 200.11 180.16 200.11C179.46 200.11 178.71 200.32 178.1 200.02L178.1 200.02Z" fill="#012869" fill-opacity="1.000000" fill-rule="nonzero"/>
			<path id="Vector" d="M170.15 179.43C167.51 184.02 167.8 190.69 168.42 196.53C168.34 197.53 168.72 198 169.62 198.46C170.34 198.83 171.76 197.36 171.99 196.53C172.46 194.12 173.77 186.09 173.94 182.87L170.15 179.43L170.15 179.43Z" fill="#FCC49A" fill-opacity="1.000000" fill-rule="nonzero"/>
			<path id="Vector" d="M168.8 199.09C167.32 198.31 168.29 196.48 168.43 196.53C170.54 197.34 171.96 196.52 171.99 196.53C173.2 197.16 173.71 197.27 174.44 197.68C175.26 198.14 175.49 199.23 173.88 199.33C172.96 199.39 171.92 199.27 170.86 199.23C170.16 199.21 169.4 199.4 168.8 199.09L168.8 199.09Z" fill="#012869" fill-opacity="1.000000" fill-rule="nonzero"/>
			<path id="Vector" d="M181.34 163.36C180.32 161.97 169.52 161.53 169.52 161.53C169.52 161.53 166.72 166.58 166.53 170.48C166.31 175.3 166.42 183.1 167.57 183.56C169.09 184.17 172.96 184.48 174.34 183.33C174.53 183.18 174.68 182.7 174.81 181.99C174.91 183.2 175.5 183.66 175.66 183.79C177.12 184.99 181.63 185.25 183.06 184.02C183.86 183.33 183.88 166.84 181.34 163.36Z" fill="#E8E2E4" fill-opacity="1.000000" fill-rule="nonzero"/>
			<path id="Vector" d="M174.84 182.21C174.75 182.21 174.66 182.14 174.65 182.04L173.87 175.11L172.67 174.13C172.58 174.06 172.57 173.94 172.64 173.86C172.71 173.77 172.83 173.76 172.91 173.83L174.17 174.86C174.21 174.9 174.24 174.94 174.24 174.99L175.03 181.99C175.05 182.1 174.97 182.2 174.86 182.21C174.86 182.21 174.85 182.21 174.84 182.21L174.84 182.21Z" fill="#FF6699" fill-opacity="1.000000" fill-rule="nonzero"/>
			<path id="Vector" d="" fill="#FCC49A" fill-opacity="1.000000" fill-rule="nonzero"/>
			<path id="Vector" d="M178.28 138.44C177.86 137.64 177.83 135.44 176.46 134.75C176.46 134.75 171.86 136.92 170.76 141C170.76 141 171.66 142.84 172.28 144.38L170.91 144.62L170.6 149.15L176.96 148.67L176.71 146.52C177.52 146.31 178.25 146.02 178.61 145.7C180.74 143.85 178.71 139.28 178.28 138.44Z" fill="#FCC49A" fill-opacity="1.000000" fill-rule="nonzero"/>
			<path id="Vector" d="M169.42 134.66C171.26 130.08 175.37 131.29 174.55 134.34C174.51 134.49 173.48 134.33 173.6 134.23C175.47 132.66 177.74 131.9 179.05 132.87C180.63 134.02 179.25 136.08 178.4 136.6C178.36 136.06 181.02 136.21 181.27 138.15C181.49 139.87 179.85 140.78 178.04 141.34C176.28 141.88 177.08 143.27 175.59 145.11C174.61 146.32 172.84 146.48 170.64 146.09C167.06 145.46 168.19 141.41 168.19 141.41C165.26 139.49 165.42 135.33 169.42 134.66L169.42 134.66Z" fill="#012869" fill-opacity="1.000000" fill-rule="nonzero"/>
			<path id="Vector" d="M170.01 142.54C170.01 142.54 170 142.54 169.99 142.54C169.01 142.49 168.09 141.59 168.05 141.55C167.98 141.47 167.98 141.35 168.05 141.27C168.13 141.2 168.25 141.2 168.33 141.27C168.33 141.28 169.18 142.11 170.02 142.16C170.12 142.16 170.2 142.25 170.2 142.36C170.19 142.46 170.11 142.54 170.01 142.54L170.01 142.54Z" fill="#00679D" fill-opacity="1.000000" fill-rule="nonzero"/>
			<path id="Vector" d="M174.16 139.46C173.67 139.46 173.28 139.38 173.07 139.32C172.96 139.3 172.9 139.19 172.93 139.09C172.95 138.98 173.06 138.92 173.16 138.95C173.87 139.13 175.67 139.37 177.01 137.69C177.08 137.61 177.2 137.59 177.29 137.66C177.37 137.73 177.38 137.85 177.32 137.93C176.32 139.18 175.08 139.46 174.16 139.46L174.16 139.46Z" fill="#00679D" fill-opacity="1.000000" fill-rule="nonzero"/>
			<path id="Vector" d="M168.66 160.61C169.16 162.39 166.7 168.81 166.47 168.42C164.95 165.78 164.13 163.43 163.73 161.75C163.73 161.75 167.21 160.95 168.66 160.61Z" fill="#FCC49A" fill-opacity="1.000000" fill-rule="nonzero"/>
			<path id="Vector" d="M180.98 150.85C179.93 149.53 177.96 147.87 175.43 147.29C173.85 146.93 170.84 146.72 168.43 148.21C163.15 151.48 162.76 161.17 163.15 161.75C163.38 162.1 164.07 162.44 164.78 162.55C164.8 165.86 165.19 168.69 165.33 169.91C165.6 172.21 185.15 171.2 185.53 168.75C185.76 167.33 185.38 164.82 184.86 162.39C185.3 162.21 186.26 162.07 186.57 161.75C186.96 161.33 184.37 155.08 180.98 150.85L180.98 150.85Z" fill="#00679D" fill-opacity="1.000000" fill-rule="nonzero"/>
			<path id="Vector" d="M185.03 162.1C185.53 163.88 186.08 169.69 186.26 169.9C187.07 170.82 187.23 171.06 187.64 171.74C188.1 172.5 188.39 174.2 188.1 174.49C187.87 174.72 187.76 174.49 187.76 174.49C187.64 174.84 187.24 174.94 187.1 174.62C187.04 174.69 186.94 174.77 186.82 174.78C186.63 174.78 186.48 174.62 186.4 174.5C186.34 174.54 186.27 174.61 186.16 174.59C185.69 174.49 185.46 173.14 185.46 173.14C185.33 172.6 184.97 172.63 184.62 172.28C184.34 172 184.15 171.76 184.01 171.21C183.95 170.95 183.57 170.42 183.35 170.03C182.16 167.95 181.19 164.58 180.78 162.9C180.78 162.9 183.58 162.44 185.03 162.1Z" fill="#FCC49A" fill-opacity="1.000000" fill-rule="nonzero"/>
			<path id="Vector" d="M178.57 148.67C184.54 152.46 186.91 161.28 186.59 161.77C186.15 162.44 181.44 163.59 179.38 163.59L178.57 148.67L178.57 148.67Z" fill="#00679D" fill-opacity="1.000000" fill-rule="nonzero"/>
			<path id="Vector" d="M164.78 162.75C164.78 162.75 164.78 162.75 164.77 162.75C164.67 162.74 164.58 162.65 164.59 162.54C164.85 157.6 165.24 155.26 165.24 155.24C165.26 155.13 165.36 155.06 165.46 155.08C165.57 155.1 165.64 155.19 165.62 155.3C165.62 155.32 165.24 157.64 164.98 162.56C164.97 162.67 164.89 162.75 164.78 162.75Z" fill="#012869" fill-opacity="1.000000" fill-rule="nonzero"/>
			<path id="Vector" d="M179.55 163.88C179.21 163.88 178.97 163.81 178.84 163.67C177.65 162.48 177.19 155.13 177.17 154.82C177.17 154.71 177.25 154.62 177.36 154.62C177.47 154.61 177.56 154.69 177.56 154.8C177.69 156.88 178.21 162.49 179.11 163.39C179.19 163.48 179.55 163.62 181.11 163.23C181.22 163.2 181.32 163.27 181.35 163.37C181.37 163.47 181.31 163.58 181.21 163.61C180.49 163.78 179.95 163.88 179.55 163.88L179.55 163.88Z" fill="#012869" fill-opacity="1.000000" fill-rule="nonzero"/>
			<path id="Vector" d="M148.3 154.61C148.99 160.32 149.87 195.9 149.9 195.91C149.92 196.14 152.83 196.78 152.68 196.74C153.48 196.93 154.92 199.28 148.09 198.72C144.5 198.42 145.31 196.54 145.49 196.18C143.06 189.71 136.55 176.38 135.67 164.66C132.42 154 147.32 146.5 148.3 154.61Z" fill="#FCC49A" fill-opacity="1.000000" fill-rule="nonzero"/>
			<path id="Vector" d="M123.43 189.13C123.43 189.13 134.45 174.34 139.37 169.66C139.37 169.66 135.96 153.86 134.61 145.76C133.66 140.05 153.48 133.18 153.48 138.77C153.48 165.93 152.96 171.17 147.73 175.67C143.26 179.51 126.37 192.82 126.37 192.82C126.36 192.83 126.36 192.83 126.35 192.83C126.26 193.09 126.82 196.07 126.78 195.92C127.04 196.73 125.72 199.16 122.55 192.82C120.72 189.14 123.43 189.13 123.43 189.13L123.43 189.13Z" fill="#FCC49A" fill-opacity="1.000000" fill-rule="nonzero"/>
			<path id="Vector" d="M123.43 189.13C123.48 189.01 123.19 188.85 121.73 189.16C120.13 189.5 119.74 190.54 120.39 192.04C120.97 193.39 122.51 195.02 123.28 196.18C124.59 198.15 125.04 199.18 126.16 200.16C126.98 200.87 128.25 200.42 127.77 198.79C127.47 197.8 126.65 195.13 126.65 195.13C126.65 195.13 124.7 193.01 123.57 190.95C122.7 189.38 123.12 189.23 123.43 189.13Z" fill="#012869" fill-opacity="1.000000" fill-rule="nonzero"/>
			<path id="Vector" d="M145.48 196.2C145.34 196.08 144.18 197.57 144.45 198.84C144.63 199.67 145.2 199.97 145.98 199.99C147.4 200.04 149.89 199.86 151.24 199.8C153.53 199.7 154.34 199.84 155.44 199.69C156.39 199.57 156.83 198.93 156.82 198.42C156.81 197.96 156.38 197.57 155.31 197.29C154.08 196.97 153.2 196.85 152.68 196.74C152.83 196.78 153.16 197.21 152.62 197.38C151.75 197.65 148.56 197.55 146.97 197.32C145.25 197.07 145.41 196.5 145.48 196.2Z" fill="#012869" fill-opacity="1.000000" fill-rule="nonzero"/>
			<path id="Vector" d="M140.15 181.97C140.07 181.97 139.99 181.93 139.94 181.87C139.85 181.75 139.87 181.59 139.99 181.5C149.52 174.19 152.03 171.93 152.35 163.44C152.35 163.3 152.47 163.19 152.62 163.19C152.76 163.2 152.87 163.32 152.87 163.46C152.54 172.18 149.99 174.49 140.3 181.91C140.26 181.95 140.2 181.97 140.15 181.97Z" fill="#FF6699" fill-opacity="1.000000" fill-rule="nonzero"/>
			<path id="Vector" d="M117.1 132.86C117 133.02 116.13 134.4 115.63 134.85C115.25 135.2 113.16 136.4 112.67 136.84C112.2 137.26 111.66 137.69 111.22 138.53C110.68 139.55 110.22 141.02 110.76 140.9C111.26 140.79 112.03 139.95 112.67 139.36C113.28 138.79 114.06 138.51 114.82 137.95C114.67 138.7 113.15 140.19 113.73 140.88C113.94 141.13 114.58 140.26 115.42 139.61C115.82 139.31 117.16 138.69 117.86 137.87C118.61 136.99 118.78 136.6 118.98 135.71C119.13 135.09 120.08 133.87 120.33 133.17L117.1 132.85L117.1 132.86Z" fill="#FCC49A" fill-opacity="1.000000" fill-rule="nonzero"/>
			<path id="Vector" d="M148.5 92.08C148.3 91.74 147.6 91.16 147.2 90.19C146.82 89.27 147 86.83 145.55 85.94C145.55 85.94 140.26 87.88 138.64 92.28C138.64 92.28 141.22 102.65 143.2 100.52C144.89 98.71 146.29 98.6 146.85 98.24C148.46 97.21 148.08 93.9 148.28 93.44C148.32 93.33 148.83 92.62 148.5 92.08L148.5 92.08Z" fill="#FCC49A" fill-opacity="1.000000" fill-rule="nonzero"/>
			<path id="Vector" d="M145.32 92.15C146.08 92.33 146.55 93.09 146.37 93.86C146.19 94.62 145.43 95.09 144.67 94.91C143.91 94.73 143.44 93.97 143.62 93.21C143.8 92.44 144.56 91.97 145.32 92.15Z" fill="#ED715D" fill-opacity="1.000000" fill-rule="evenodd"/>
			<path id="Vector" d="M123.48 172.91C119.68 168.46 123.06 161.18 122 153.76C120.7 144.65 127.16 136.19 128.45 130.88C130.39 122.91 127.13 119.57 132.17 107.53C133.72 102.48 142.01 102.5 142.09 102.49C145.3 102.26 149.35 103.35 150.19 108.11C147.1 117.7 152.83 113.55 151.53 126.56C150.93 132.55 155.83 134.24 154.37 147.58C153.64 154.24 159.82 159.97 156.32 164.66C151.38 171.28 144.9 165.34 137.25 171.87C132.28 176.11 125.97 175.8 123.48 172.91L123.48 172.91Z" fill="#C6F432" fill-opacity="1.000000" fill-rule="nonzero"/>
			<path id="Vector" d="M137.21 102.49C137.21 102.49 127.12 100.19 124.52 106.86C122.58 111.84 121.62 115.74 119.34 119.8C117.76 122.62 117.19 128.3 114.92 134.01C114.34 135.25 119.16 137.83 119.78 137.32C122.71 134.07 126.32 130.47 128.43 126.24C131.52 120.06 134.45 121.36 134.77 111.43C134.88 108.26 138.24 102.29 137.21 102.49L137.21 102.49Z" fill="#C6F432" fill-opacity="1.000000" fill-rule="nonzero"/>
			<path id="Vector" d="M171.15 138.96C171.22 138.8 171.14 138.57 170.63 138.4C170.9 138.41 171.1 138.23 171.07 138.02C171 137.6 169.31 137.07 168.68 136.72C168.17 136.43 167.49 136.05 167.46 135.77C167.66 135.2 170.07 135.68 170.03 134.96C170.02 134.74 169.42 134.58 168.37 134.44C167.48 134.32 166.87 134.06 166.26 133.93C165.57 133.78 164.84 133.93 164.39 134.09C163.66 134.34 162.86 135.41 163.06 136.39C163.25 137.26 165.6 138.9 167.04 139.51C167.36 139.65 169.83 140.56 170.1 140.03C170.16 139.91 170.11 139.77 169.89 139.63C170.44 139.75 170.67 139.71 170.77 139.5C170.82 139.39 170.75 139.26 170.62 139.15C170.83 139.19 171.05 139.17 171.15 138.96L171.15 138.96Z" fill="#FCC49A" fill-opacity="1.000000" fill-rule="nonzero"/>
			<path id="Vector" d="M142.47 102.61C145.47 102.39 149.61 103.21 151.84 108.93C153.36 112.81 155.23 117.2 156.08 119.4C157.45 122.96 161.35 127.21 165.6 133.22C165.99 134.37 162.95 137.61 162.11 137.11C156.63 133.88 152.99 133.94 150.79 131.45C148.15 129.39 145.17 124.11 145.05 121.01C145.01 119.88 141.43 102.68 142.47 102.61L142.47 102.61Z" fill="#C6F432" fill-opacity="1.000000" fill-rule="nonzero"/>
			<path id="Vector" d="M143.41 84.15C141.42 84.41 138.56 82.22 134.5 84.35C132.41 85.45 130.82 87.78 129.51 90.65C128.48 92.92 124.08 95.28 126.26 99.29C128.01 102.54 122.04 104.77 127.46 109.39C129.21 110.88 126.55 115.4 135.32 113.62C137.84 113.1 139.17 115.25 141.67 114.6C144.36 113.91 143.57 112.24 146.49 108.86C151.8 102.71 143.85 101.91 144.95 98.76C146.42 94.56 143.59 94.37 143.92 91.41C144.08 89.98 145.75 88.86 146.03 86.49C146.21 85 145.57 83.88 143.41 84.15L143.41 84.15Z" fill="#012869" fill-opacity="1.000000" fill-rule="nonzero"/>
			<path id="Vector" d="M152.69 133.31C152.66 133.31 152.64 133.31 152.61 133.29C152.44 133.22 148.49 131.35 146.05 125.21C145.17 122.99 144.08 119.38 144.07 119.34C144.04 119.24 144.1 119.13 144.2 119.1C144.3 119.07 144.41 119.13 144.44 119.23C144.45 119.26 145.54 122.86 146.41 125.06C148.79 131.05 152.73 132.92 152.77 132.94C152.87 132.98 152.91 133.1 152.87 133.2C152.83 133.27 152.76 133.31 152.69 133.31Z" fill="#00679D" fill-opacity="1.000000" fill-rule="nonzero"/>
			<path id="Vector" d="M129.16 125.74C129.06 125.74 128.98 125.66 128.97 125.56L128.51 120.39C128.5 120.29 128.58 120.19 128.68 120.18C128.79 120.17 128.88 120.25 128.89 120.36L129.35 125.52C129.36 125.63 129.28 125.72 129.18 125.74C129.17 125.74 129.17 125.74 129.16 125.74L129.16 125.74Z" fill="#00679D" fill-opacity="1.000000" fill-rule="nonzero"/>
		</g>
	</g>
</svg>
