<svg width="350.000000" height="254.000000" viewBox="0 0 350 254" fill="none" xmlns="http://www.w3.org/2000/svg" xmlns:xlink="http://www.w3.org/1999/xlink">
	<desc>
			Created with Pixso.
	</desc>
	<defs>
		<linearGradient x1="174.999985" y1="0.000000" x2="174.999985" y2="254.000000" id="paint_linear_580_2070_0" gradientUnits="userSpaceOnUse">
			<stop stop-color="#97CAFF"/>
			<stop offset="1.000000" stop-color="#D9EDFF"/>
		</linearGradient>
		<linearGradient x1="174.999985" y1="0.000000" x2="174.999985" y2="254.000000" id="paint_linear_580_2072_0" gradientUnits="userSpaceOnUse">
			<stop stop-color="#9DCDFF"/>
			<stop offset="1.000000" stop-color="#DAEDFF"/>
		</linearGradient>
		<linearGradient x1="20.143265" y1="253.341705" x2="266.403503" y2="76.350449" id="paint_linear_580_2073_0" gradientUnits="userSpaceOnUse">
			<stop offset="0.204000" stop-color="#FF6699"/>
			<stop offset="0.771869" stop-color="#5EA1FF"/>
		</linearGradient>
	</defs>
	<rect id="Rectangle 152" width="350.000000" height="254.000000" fill="url(#paint_linear_580_2070_0)" fill-opacity="1.000000"/>
	<mask id="mask580_2072" mask-type="alpha" maskUnits="userSpaceOnUse" x="0.000000" y="0.000000" width="350.000000" height="254.000000">
		<rect id="Rectangle 153" width="350.000000" height="254.000000" fill="url(#paint_linear_580_2072_0)" fill-opacity="1.000000"/>
	</mask>
	<g mask="url(#mask580_2072)">
		<path id="Vector 2709" d="M406.85 199.06C373.57 167.11 288 98.9 211.95 81.62C116.89 60.01 123.59 97.01 187.17 156.66C250.75 216.31 254.36 295.31 175.28 257.78C96.21 220.25 7.81 209.86 45.92 261.6C84.04 313.35 1.42 379.14 -52.22 365.47" stroke="url(#paint_linear_580_2073_0)" stroke-opacity="0.800000" stroke-width="75.607666" stroke-linecap="round"/>
	</g>
	<g mask="url(#mask580_2072)">
		<path id="Vector" d="M62.99 186.48C62.23 189.98 61.51 193.86 60.87 196.61C60.8 196.89 60.74 197.16 60.67 197.41C60.62 197.6 60.58 197.78 60.53 197.94C60.49 198.09 60.45 198.22 60.41 198.35C60.41 198.35 60.42 198.36 60.41 198.37C60.37 198.46 60.34 198.56 60.32 198.65C60.31 198.72 60.28 198.78 60.26 198.85C60.07 199.43 59.89 199.84 59.7 200.03C59.26 200.5 58.54 200.67 57.73 200.63C57.4 200.61 57.05 200.56 56.69 200.48C56.68 200.47 56.68 200.47 56.68 200.47C56.29 200.4 55.88 200.27 55.5 200.12C54.24 199.65 53.07 198.92 52.53 198.2C52.4 198.02 52.3 197.85 52.25 197.68C52.22 197.57 52.2 197.42 52.17 197.23C52.16 197.14 52.16 197.05 52.14 196.95C52.13 196.82 52.12 196.65 52.12 196.48C52.11 196.42 52.11 196.35 52.11 196.28C52.11 196.26 52.11 196.24 52.12 196.22C52.12 196.16 52.11 196.11 52.11 196.06C52.04 193.64 52.25 189.13 52.44 184.8L63 186.48L62.99 186.48Z" fill="#FCC49A" fill-opacity="1.000000" fill-rule="nonzero"/>
		<path id="Vector" d="M60.86 206.65C60.83 207.24 60.74 207.65 60.61 207.79C59.72 208.67 50.17 208.19 49.24 207.79C48.7 207.56 48.7 206.98 48.84 206.32C48.95 205.84 49.13 205.33 49.24 204.85L49.24 204.84C49.28 204.66 49.41 204.25 49.59 203.7C49.66 203.49 49.74 203.27 49.82 203.03L49.82 203.02C49.88 202.85 49.94 202.67 50 202.49C50.09 202.26 50.16 202.02 50.25 201.75C50.78 200.24 51.42 198.43 51.96 196.9C52.01 196.76 52.06 196.62 52.12 196.48C52.16 196.34 52.21 196.2 52.25 196.06C52.76 194.66 53.12 193.66 53.12 193.66L60.01 194.67C60.01 194.67 60.11 195.44 60.23 196.61C60.27 197.01 60.32 197.44 60.36 197.93C60.38 198.07 60.4 198.21 60.4 198.35C60.4 198.35 60.41 198.36 60.4 198.36C60.51 199.39 60.61 200.52 60.7 201.63C60.72 202.01 60.75 202.37 60.77 202.72C60.78 202.86 60.79 202.99 60.8 203.13C60.82 203.5 60.84 203.86 60.85 204.21C60.86 204.52 60.88 204.82 60.88 205.11C60.89 205.69 60.89 206.22 60.86 206.65L60.86 206.65Z" fill="#FCC49A" fill-opacity="1.000000" fill-rule="nonzero"/>
		<path id="Vector" d="M49.1 206.8C48.82 206.86 48.7 206.77 48.61 207.43C48.54 207.93 48.28 209.48 48.75 209.62C49.76 209.9 53.05 210.22 56.25 210.24C57.85 210.25 60.03 210.41 60.66 210.01C60.9 209.86 60.88 208.17 60.83 207.58C60.78 207.03 59.74 207.27 59.45 207.27C58.84 207.27 58.23 207.26 57.62 207.25C56.29 207.24 54.95 207.22 53.62 207.18C53.29 207.17 52.96 207.16 52.62 207.14C52 207.1 49.61 206.68 49.1 206.8L49.1 206.8Z" fill="#9C4630" fill-opacity="1.000000" fill-rule="nonzero"/>
		<path id="Vector" d="M60.86 206.65C59.87 205.79 58.71 205.17 57.15 204.93C54.2 204.47 51.35 204.87 48.84 206.31C48.94 205.84 49.13 205.33 49.24 204.85L49.24 204.84C51.52 203.42 54.82 203.33 57.3 203.73C58.48 203.93 59.76 204.4 60.88 205.11C60.89 205.69 60.89 206.22 60.86 206.65L60.86 206.65Z" fill="#9C4630" fill-opacity="1.000000" fill-rule="nonzero"/>
		<path id="Vector" d="M60.85 204.21C57.5 202.29 53.46 202.17 49.59 203.7C49.65 203.5 49.73 203.27 49.82 203.03L49.82 203.02C49.87 202.85 49.94 202.67 50 202.49C52.06 201.56 54.49 201.27 56.84 201.58C56.84 201.58 56.85 201.58 56.85 201.58C57.23 201.62 57.6 201.69 57.97 201.78C58.95 201.98 59.9 202.3 60.77 202.73C60.78 202.87 60.79 203 60.8 203.14C60.82 203.51 60.83 203.87 60.85 204.21L60.85 204.21Z" fill="#9C4630" fill-opacity="1.000000" fill-rule="nonzero"/>
		<path id="Vector" d="M60.87 196.6C60.8 196.88 60.74 197.15 60.67 197.41C60.62 197.59 60.58 197.77 60.53 197.94C60.48 197.94 60.42 197.94 60.37 197.93C59.31 197.9 58.24 197.79 57.28 197.72C55.57 197.59 53.8 197.42 52.13 196.95C52.07 196.94 52.02 196.92 51.96 196.9C52.01 196.76 52.1 196.24 52.11 196.22C52.11 196.16 52.1 196.11 52.1 196.06C52.15 196.05 52.2 196.06 52.25 196.07C54.05 196.22 55.85 196.54 57.65 196.64C58.48 196.69 59.36 196.65 60.23 196.61C60.45 196.61 60.65 196.6 60.87 196.6L60.87 196.6Z" fill="#9C4630" fill-opacity="1.000000" fill-rule="nonzero"/>
		<path id="Vector" d="M106.43 195.17C106.44 195.79 106.4 196.23 106.29 196.47C105.91 197.29 104.83 197.74 103.59 197.88C103.19 197.93 102.76 197.94 102.34 197.93C100.99 197.9 99.65 197.58 98.91 197.08C98.72 196.95 98.58 196.81 98.47 196.67C98.41 196.58 98.34 196.44 98.26 196.27C98.15 196.04 98.03 195.74 97.89 195.39C97.88 195.38 97.87 195.35 97.87 195.33C97.02 193.11 95.72 188.67 94.47 184.43L105 182.58C105.46 186.51 106.13 190.86 106.36 193.67C106.4 194.14 106.42 194.58 106.43 194.96C106.44 195.03 106.44 195.1 106.44 195.17L106.43 195.17Z" fill="#FCC49A" fill-opacity="1.000000" fill-rule="nonzero"/>
		<path id="Vector" d="M112.91 113.78C112.54 115.48 112.23 119.19 111.35 120.69C110.35 122.4 108.89 124.07 106.65 123.52C105.95 123.36 105.18 122.98 104.32 122.3C102.1 120.58 99.34 120.47 96.68 119.49C94.15 118.56 92.33 115.85 91.08 113.36C90.67 112.55 90.4 111.63 89.89 110.88C89.27 109.97 88.42 109.53 87.53 108.96C84.95 107.31 84.15 104.26 83.86 101.38C83.36 96.2 80.72 85.4 86.89 83.89C86.93 83.96 88.31 83.12 91.46 84.7C93.61 85.78 95.36 86.93 96.85 88.83C98.31 90.7 99.47 92.77 100.65 94.82C102.17 97.48 103.7 100.6 106.24 102.43C107.81 103.58 109.42 104.66 110.95 105.84C111.53 106.28 112.3 106.75 112.84 107.34C113.07 107.62 113.26 107.91 113.37 108.23C113.87 109.78 113.25 112.23 112.91 113.76L112.91 113.78Z" fill="#00679D" fill-opacity="1.000000" fill-rule="nonzero"/>
		<path id="Vector" d="M97.86 96.74C97.45 93.92 96.78 90.91 95.03 88.53C93.59 86.58 91.5 85.4 89.22 84.53C88.67 83.76 87.6 83.74 86.74 84.22C86.24 84.51 85.96 85 85.5 85.31C84.6 85.93 83.85 85.87 82.91 86.19C82.06 86.47 81.33 86.95 80.69 87.55C77 90.98 75.08 96.45 73.64 101C71.82 106.74 70.4 112.61 69.11 118.46C67.92 123.91 66.67 129.44 66.1 134.98C65.93 136.71 65.46 139.39 66.98 140.77C68.66 142.29 88.98 141.14 91.44 140.25C96.58 138.39 93.72 130.72 94.95 126.79C95.65 124.56 96.8 123.57 97.46 121.35C98.21 118.77 97.94 112.62 98.13 109.95C98.58 103.61 98.79 103.03 97.86 96.74L97.86 96.74Z" fill="#00679D" fill-opacity="1.000000" fill-rule="nonzero"/>
		<path id="Vector" d="M107 186.9C106.92 187.75 105.64 188.47 103.6 189.02C102.73 189.27 101.73 189.47 100.63 189.64C98 190.06 94.8 190.28 91.49 190.25C90.89 190.24 90.29 190.21 89.7 190.15C88.49 190.02 87.35 189.79 86.32 189.51C83.8 188.81 81.92 187.82 81.43 187.37C80.65 186.66 80.49 174.18 79.6 169.26C79.28 167.49 78.76 166.28 78.22 165.23C77.26 163.36 76.26 162.02 76.26 158.94C76.26 158.56 76.24 158.19 76.2 157.81C76.18 157.62 76.16 157.43 76.13 157.23C75.52 152.99 72.83 148.52 71.06 141.3C70.26 138.02 70.43 134.75 71 131.87C71.85 127.6 73.55 124.21 74.2 122.93C74.53 122.29 75.95 121.71 77.75 121.21C78.11 121.11 78.47 121.02 78.85 120.93C79.96 120.66 81.16 120.42 82.32 120.22C83.08 120.09 83.82 119.97 84.51 119.86C86.65 119.54 88.28 119.35 88.28 119.35C88.28 119.35 94.65 133.9 99.81 153.66C102.89 165.45 107.13 185.69 107.01 186.9L107 186.9Z" fill="#FF6699" fill-opacity="1.000000" fill-rule="nonzero"/>
		<path id="Vector" d="M79.3 134.95C79.3 134.95 79.14 135.57 78.9 136.65L78.9 136.66C78.38 139.05 77.52 143.7 77.3 149.08C77.12 153.57 76.67 156.12 76.13 158.33L76.13 158.34C75.72 159.97 75.27 161.42 74.85 163.34C73.84 167.83 70.4 190.82 69.73 191.34C69.41 191.58 68.24 192.23 66.47 192.79C65.34 193.14 63.98 193.45 62.42 193.59C61.14 193.7 59.74 193.71 58.25 193.52C55.38 193.16 52.49 192.38 50.23 191.47C49.07 191.01 48.09 190.52 47.35 190.03C46.47 189.44 45.96 188.87 46 188.39C46.11 186.71 47.78 174.26 49.11 169.89C50.46 165.52 53.79 148.08 55.02 140.25C56.25 132.41 58.91 127.76 58.91 127.76L70.06 131.7L70.39 131.81L71 132.02L71 132.03L78.53 134.68L79.31 134.95L79.3 134.95Z" fill="#FF6699" fill-opacity="1.000000" fill-rule="nonzero"/>
		<path id="Vector" d="M103.59 189.02C102.73 189.27 101.73 189.47 100.62 189.64C99.12 184.94 98.64 179.98 97.85 175.1C97.36 172.05 96.6 169.11 95.75 166.13C94.91 163.27 94.5 160.41 94.11 157.46C93.24 150.72 90.35 144.51 88.06 138.17C85.93 132.28 83.85 126.3 82.32 120.22C82.26 120 82.21 119.79 82.15 119.57C82.08 119.59 82.02 119.6 81.92 119.63C81.47 119.76 81.27 119.05 81.72 118.92C81.81 118.89 81.89 118.87 81.97 118.84C81.94 118.71 81.91 118.57 81.88 118.43C81.81 118.18 82.18 118.08 82.27 118.33C82.31 118.46 82.35 118.58 82.4 118.71C82.8 118.59 83.2 118.48 83.59 118.36C83.8 118.3 83.98 118.43 84.05 118.62C84.2 119.04 84.35 119.45 84.51 119.86C89.13 132.44 93.08 145.26 96.35 158.26C98.04 164.97 99.54 171.72 100.86 178.52C101.48 181.71 102.11 184.87 103.22 187.92C103.35 188.28 103.49 188.65 103.59 189.03L103.59 189.02Z" fill="#FBFBFB" fill-opacity="1.000000" fill-rule="nonzero"/>
		<path id="Vector" d="M89.7 190.15C88.49 190.02 87.35 189.79 86.32 189.51C86.06 186.84 86.08 184.06 85.8 181.44C85.07 174.24 84.4 166.69 81.92 159.84C80.82 156.81 79.9 154 80.12 150.73C80.23 149.05 80.54 147.37 80.58 145.67C80.63 143.7 80.23 141.81 79.73 139.91C79.43 138.73 79.15 137.54 78.9 136.34L78.9 136.33C78.77 135.7 78.65 135.06 78.53 134.43C77.74 130.07 77.37 125.63 77.75 121.21C77.76 121.02 77.79 120.83 77.81 120.64C77.48 120.32 77.08 120.12 76.54 120.07C76.08 120.04 76.09 119.32 76.54 119.36C77.08 119.42 77.51 119.58 77.88 119.81C77.89 119.72 77.89 119.63 77.91 119.54C77.95 119.31 78.29 119.29 78.29 119.54L78.29 120.15C78.52 120.38 78.71 120.64 78.84 120.93C79.22 121.64 79.38 122.5 79.39 123.39C79.42 126.94 79.25 130.21 80.28 133.7C81.23 136.95 82.16 139.91 82.18 143.32C82.2 146.45 81.79 149.58 82 152.71C82.14 154.6 82.51 156.47 83.35 158.19C83.92 159.39 84.73 160.47 85.23 161.71C86.56 164.94 86.7 168.93 87.22 172.37C88.1 178.28 88.9 184.22 89.69 190.15L89.7 190.15Z" fill="#FBFBFB" fill-opacity="1.000000" fill-rule="nonzero"/>
		<path id="Vector" d="M70.45 131.66C70.42 131.71 70.4 131.77 70.39 131.81C69.51 133.68 69.05 135.57 68.8 137.5C70.22 140.46 69.95 144.01 69.44 147.33C68.96 150.47 68.73 153.46 68.78 156.64C68.82 159.28 68.56 161.72 68 164.29C66.87 169.58 66.83 174.83 66.67 180.21C66.54 184.34 66.67 188.61 66.46 192.79C65.33 193.14 63.97 193.45 62.42 193.59C62.46 193.41 62.49 193.23 62.53 193.07C62.92 190.92 63.43 188.79 63.81 186.63C64.27 184.05 63.8 181.57 63.68 178.99C63.56 176.46 63.69 173.92 63.96 171.4C64.46 166.65 65.47 161.99 66.32 157.29C67.22 152.28 67.69 147.35 67.73 142.26C67.74 140.69 67.77 139.04 67.98 137.43C67.68 136.86 67.31 136.31 66.84 135.8C66.54 135.46 67.02 134.94 67.33 135.28C67.65 135.63 67.91 135.98 68.15 136.35C68.47 134.67 69.03 133.07 70.05 131.69C70.1 131.62 70.16 131.54 70.21 131.47C70.32 131.32 70.52 131.51 70.44 131.66L70.45 131.66Z" fill="#FBFBFB" fill-opacity="1.000000" fill-rule="nonzero"/>
		<path id="Vector" d="M60.24 134.53C59.89 136.13 59.5 137.71 59.09 139.3C59.97 141.37 59.93 144.03 59.53 146.07C58.99 148.74 57.85 151.23 57.19 153.87C56.46 156.77 56.17 159.75 55.93 162.74C55.48 168.21 54.8 173.39 53.27 178.67C52.03 182.92 50.72 187.1 50.23 191.47C49.07 191.01 48.08 190.52 47.35 190.03C48.58 182.36 51.74 174.82 53 167.32C53.47 164.53 53.4 161.7 53.83 158.92C54.29 155.96 55.76 153.41 56.08 150.39C56.45 146.67 57.23 143.13 58.21 139.59C57.77 138.66 57.15 137.75 56.25 136.91C56.03 136.7 56.31 136.41 56.53 136.52C57.41 136.93 58.07 137.55 58.56 138.3C58.93 137 59.34 135.7 59.76 134.4C59.86 134.08 60.32 134.21 60.25 134.53L60.24 134.53Z" fill="#FBFBFB" fill-opacity="1.000000" fill-rule="nonzero"/>
		<path id="Vector" d="M108.82 70.39C108.35 68.77 106.78 67.68 106.38 65.98C106.22 65.33 106.29 64.66 106.13 64C105.92 63.15 105.54 62.36 105.3 61.52C104.91 60.16 105.24 58.7 104.55 57.41C103.94 56.28 102.92 55.77 102.1 54.84C101.36 54.01 101.35 53.02 100.86 52.08C100.35 51.09 99.44 50.39 98.48 49.87C97.81 49.52 97.09 49.26 96.36 49.08C95.75 48.92 94.83 49 94.27 48.75C91.21 47.38 86.61 47.96 84.5 49.86C84.28 50.06 82.83 49.56 82.51 49.53C81.55 49.43 80.58 49.45 79.62 49.57C78.13 49.75 76.68 50.19 75.55 51.19C74.86 51.79 74.3 52.5 73.67 53.15C73.03 53.83 72.29 54.4 71.72 55.15C71.32 55.7 71.15 56.35 70.91 56.98C70.53 57.9 69.94 58.59 69.35 59.36C68.44 60.54 68.23 62.17 68.24 63.63C68.25 64.9 68.22 65.98 67.32 66.98C66.64 67.72 65.99 68.21 65.62 69.2C65.26 70.18 65.37 71.02 65.55 72C65.65 72.24 65.76 72.47 65.89 72.69C66.34 73.47 65.72 73.85 65.3 74.41C64.36 75.66 64.93 76.86 65.93 77.68C66.17 77.88 66.44 78.05 66.72 78.2C67 78.35 67.31 78.48 67.6 78.58C67.63 78.6 67.66 78.61 67.69 78.63C69.09 79.2 70.53 78.45 71.95 79.27C73.28 80.03 74.19 79.6 75.68 79.73C76.31 79.79 76.92 79.83 77.55 79.82C77.64 79.82 77.72 79.81 77.81 79.83C77.92 79.86 78.01 79.92 78.12 79.97C80.15 81.05 82.41 80.78 84.61 80.61C86.58 80.45 88.52 80.07 90.48 80.5C91.88 80.8 93.2 81.38 94.64 81.45C95.89 81.51 96.9 81.11 98.01 80.62C99.15 80.11 100.08 79.7 101.34 79.66C102.25 79.63 103.15 79.8 104.05 79.64C104.7 79.53 105.79 79.41 106.74 79.13C107.13 79.02 107.49 78.89 107.79 78.73C108.27 78.46 108.6 78.11 108.63 77.63C108.67 76.76 108.03 75.36 108.07 74.56C108.11 73.76 108.6 72.83 108.85 72.04C109 71.5 108.98 70.94 108.81 70.39L108.82 70.39Z" fill="#9C4630" fill-opacity="1.000000" fill-rule="nonzero"/>
		<path id="Vector" d="M90.67 80.75L88.93 86.37L88.1 89.03L78.22 85.66L81.23 77.23L83.41 78.04L90.67 80.75Z" fill="#FCC49A" fill-opacity="1.000000" fill-rule="nonzero"/>
		<path id="Vector" d="M83.41 78.04C83.3 80.3 83.94 82.95 85.37 84.65C86.19 85.62 87.61 86.43 88.92 86.37L90.67 80.74L83.41 78.04Z" fill="#EB7D5C" fill-opacity="1.000000" fill-rule="nonzero"/>
		<path id="Vector" d="M75.91 66.87C75.69 73.74 78.59 77.93 84.74 81.18C90.2 84.08 98.23 84.06 101.53 78.97C104.61 74.22 103.61 67.75 102.11 62.49C101.48 60.29 101.21 59.25 99.4 57.76C97.37 56.1 94.53 55.73 92.02 55.39C88.17 54.87 84.86 55.27 81.37 57.26C77.65 59.37 76.03 62.94 75.91 66.87L75.91 66.87Z" fill="#FCC49A" fill-opacity="1.000000" fill-rule="nonzero"/>
		<path id="Vector" d="M88.31 66.61C88.54 66.17 88.97 65.93 89.55 66.35C89.87 66.58 90.05 66.95 90.18 67.32C90.31 67.64 90.4 67.98 90.38 68.32C90.35 68.66 90.18 69.01 89.89 69.18C89.48 69.4 88.94 69.22 88.63 68.87C88.32 68.52 88.21 68.05 88.14 67.59C88.1 67.27 88.16 66.9 88.31 66.62L88.31 66.61Z" fill="#211E33" fill-opacity="1.000000" fill-rule="nonzero"/>
		<path id="Vector" d="M98.71 65.57C98.93 65.16 99.34 64.93 99.88 65.32C100.18 65.54 100.35 65.89 100.48 66.24C100.6 66.54 100.69 66.86 100.66 67.18C100.64 67.5 100.49 67.83 100.2 67.99C99.82 68.2 99.31 68.03 99.02 67.7C98.73 67.37 98.62 66.92 98.56 66.49C98.52 66.19 98.57 65.84 98.71 65.57Z" fill="#211E33" fill-opacity="1.000000" fill-rule="nonzero"/>
		<path id="Vector" d="M97.15 68.46C96.84 67.99 96.37 67.43 95.85 67.2C95.41 67 95.04 67.39 95.23 67.82C95.4 68.22 95.72 68.54 95.99 68.88C96.3 69.28 96.32 69.68 96.4 70.17C96.49 70.68 97.23 70.6 97.37 70.17C97.54 69.6 97.49 68.96 97.15 68.46L97.15 68.46Z" fill="#EB7D5C" fill-opacity="1.000000" fill-rule="nonzero"/>
		<path id="Vector" d="M97.8 72.41C97.6 72.39 97.37 72.51 97.17 72.6C96.65 72.83 96.04 72.82 95.49 72.66C94.94 72.5 94.44 72.21 93.97 71.89C93.76 71.74 93.47 71.59 93.28 71.75C93.09 71.9 93.15 72.19 93.25 72.39C93.92 73.76 95.89 74.18 97.24 73.74C97.57 73.63 97.89 73.43 98.05 73.12C98.16 72.92 98.17 72.62 97.99 72.48C97.93 72.44 97.87 72.41 97.8 72.41L97.8 72.41Z" fill="#EB7D5C" fill-opacity="1.000000" fill-rule="nonzero"/>
		<path id="Vector" d="M89.1 62.29C88.42 62.27 87.68 62.48 87.21 62.71C86.55 63.03 85.99 63.67 85.95 64.4C85.93 64.82 86.15 65.31 86.57 65.35C86.76 65.37 86.95 65.29 87.13 65.22C87.65 65.02 88.21 64.9 88.77 64.86C89.25 64.82 89.75 64.84 90.15 64.59C90.59 64.3 90.79 63.7 90.62 63.21C90.4 62.54 89.78 62.29 89.1 62.28L89.1 62.29Z" fill="#9C4630" fill-opacity="1.000000" fill-rule="nonzero"/>
		<path id="Vector" d="M98.01 61.25C98.66 61.12 99.4 61.2 99.9 61.34C100.6 61.53 101.25 62.05 101.41 62.76C101.51 63.16 101.37 63.67 100.98 63.78C100.79 63.83 100.6 63.79 100.41 63.75C99.87 63.65 99.31 63.62 98.76 63.69C98.3 63.73 97.81 63.84 97.38 63.66C96.91 63.46 96.61 62.91 96.69 62.41C96.79 61.72 97.35 61.38 98.01 61.25Z" fill="#9C4630" fill-opacity="1.000000" fill-rule="nonzero"/>
		<path id="Vector" d="M99.74 56.18C97.51 54.23 94.77 53.28 91.84 53.18C88.63 53.08 85.45 53.83 82.5 55.05C79.95 56.11 77.06 57.38 75.86 60.04C74.49 63.08 74.37 66.36 74.5 69.63C74.56 71.09 74.66 72.56 74.97 73.99C75.37 75.84 76.65 77.64 76.48 79.56C76.45 79.87 78.58 79.24 78.81 79.13C80.23 78.43 79.13 80.78 80.45 80.68C81.81 80.59 82.19 79.3 82.01 78.13C81.8 76.82 81.32 75.57 81.38 74.23C81.42 73.41 81.66 72.65 81.99 71.91C82.67 70.39 82.94 69.27 82.85 67.55C82.79 66.19 83.46 62.13 83.43 61.99C83.79 62.2 85.59 62.18 86.06 62.05C86.56 61.91 86.93 61.48 87.38 61.25C88.32 60.77 89.29 60.77 90.27 61.09C90.49 61.16 90.82 61.05 90.92 60.83C91.53 59.51 91.35 58.32 90.87 57.19C90.9 57.21 90.93 57.25 90.96 57.28C91.54 57.97 91.78 58.85 92.32 59.53C92.69 60 93.1 60.23 93.71 60.16C94.81 60.02 94.62 59.52 96.16 59.67C96.76 59.73 97.2 59.96 97.81 59.83C98.24 59.74 98.57 59.54 99.03 59.5C99.37 59.47 100.78 59.71 101.07 59.64C103.04 59.15 100.56 56.9 99.74 56.19L99.74 56.18Z" fill="#9C4630" fill-opacity="1.000000" fill-rule="nonzero"/>
		<path id="Vector" d="M99.98 54.4C99.16 53.18 97.94 52 96.52 51.56C96.16 51.45 95.91 51.92 96.16 52.18C97.09 53.15 98.19 53.85 98.94 55.01C99.74 56.23 99.62 57.56 100.16 58.83C100.28 59.1 100.68 59.06 100.81 58.83C101.58 57.52 100.75 55.55 99.98 54.4Z" fill="#692715" fill-opacity="1.000000" fill-rule="nonzero"/>
		<path id="Vector" d="M98.63 56.06C98.25 55.33 97.75 54.71 97.16 54.15C96.91 53.91 96.46 54.22 96.67 54.53C97.08 55.13 97.44 55.76 97.76 56.42C98.07 57.06 98.19 57.84 98.61 58.42C98.83 58.74 99.27 58.61 99.31 58.23C99.4 57.49 98.97 56.7 98.63 56.06Z" fill="#692715" fill-opacity="1.000000" fill-rule="nonzero"/>
		<path id="Vector" d="M84.36 58.73C84.31 57.36 84.11 56.03 83.78 54.7C83.71 54.4 83.21 54.46 83.24 54.77C83.42 56.73 83.96 59.55 83.04 61.37C82.77 61.9 83.48 62.29 83.82 61.83C84.48 60.93 84.4 59.79 84.36 58.73Z" fill="#692715" fill-opacity="1.000000" fill-rule="nonzero"/>
		<path id="Vector" d="M70.75 66.15C69.9 68.08 68.39 69.01 69.05 71.34C69.39 72.51 69.73 73.28 68.99 74.41C68.26 75.54 67.01 76.29 66.76 77.74C66.74 77.89 66.73 78.04 66.73 78.2C66.45 78.05 66.18 77.88 65.94 77.68C65.88 77.06 65.99 76.45 66.48 75.74C67.22 74.68 67.81 74.56 68.09 73.18C68.35 71.88 67.92 71.69 67.78 70.53C67.62 69.2 68.39 68.13 69.15 67.13C69.94 66.07 70.35 65.18 70.47 63.82C70.54 62.99 70.55 62.3 70.85 61.51C70.92 61.33 71.23 61.33 71.21 61.56C71.05 63.09 71.39 64.72 70.76 66.16L70.75 66.15Z" fill="#692715" fill-opacity="1.000000" fill-rule="nonzero"/>
		<path id="Vector" d="M74.67 57.37C73.09 58.34 72.26 59.85 72.41 61.72C72.47 62.48 72.73 63.13 72.71 63.91C72.68 64.88 72.39 65.39 71.96 66.23C71.51 67.08 71.07 67.65 71.19 68.63C71.22 68.89 71.63 69.11 71.77 68.79C72.36 67.39 73.57 65.98 73.77 64.45C73.86 63.78 73.68 63.17 73.57 62.52C73.23 60.61 73.49 59.13 74.97 57.76C75.17 57.56 74.9 57.22 74.67 57.37Z" fill="#692715" fill-opacity="1.000000" fill-rule="nonzero"/>
		<path id="Vector" d="M107.8 78.73C107.5 78.89 107.14 79.02 106.75 79.13C106.68 79 106.59 78.86 106.5 78.73C105.98 77.99 105.52 77.33 105.37 76.43C105.18 75.27 105.59 74.4 105.91 73.31C106.49 71.41 105.73 69.84 104.93 68.14C104.81 67.88 105.13 67.7 105.3 67.92C106.11 69 106.89 70.16 107.05 71.54C107.25 73.21 106.07 74.63 106.41 76.29C106.6 77.27 107.26 77.96 107.8 78.73Z" fill="#692715" fill-opacity="1.000000" fill-rule="nonzero"/>
		<path id="Vector" d="M79.45 82.72C79.45 82.72 81.6 85.58 84.46 86.08C87.31 86.58 89.25 85.29 89.26 85.29C89.93 85.05 91.57 89.12 91.78 89.59C93.35 93.06 94.89 97.95 94.25 101.81C93.42 106.84 89.48 121.37 88.41 122.04C87.34 122.71 65.65 121.78 63.86 120.44C62.08 119.1 74.04 86.15 74.89 84.67C75.75 83.2 79.45 82.72 79.45 82.72L79.45 82.72Z" fill="#FFFFFF" fill-opacity="1.000000" fill-rule="nonzero"/>
		<path id="Vector" d="M79.45 82.21C73.09 81.33 66.87 83.81 63.97 89.64C62.12 93.36 62.02 97.59 61.51 101.63C61.18 104.28 60.7 106.92 60.08 109.52C58.77 112.31 57.43 115.09 56.07 117.87C54.29 121.49 53.55 125.24 52.82 129.18C52.34 131.79 50.62 135.84 52.95 137.97C55.06 139.91 58.72 140.55 61.43 140.91C64.93 141.38 69.17 141.38 72.52 140.07C75.41 138.94 75.65 134.71 76.07 132.06C77.33 123.97 77.18 115.67 78.17 107.52C78.76 102.64 80.68 97.25 81.33 92.38C81.64 90.07 81.59 87.91 81.02 85.65C80.62 84.03 79.51 82.21 79.45 82.21L79.45 82.21Z" fill="#00679D" fill-opacity="1.000000" fill-rule="nonzero"/>
		<path id="Vector" d="M91.58 115.01C91.06 116.67 89.8 121.18 88.79 122.61C88.05 123.65 87.2 123.91 86.24 123.76C85.25 123.6 84.12 123.02 82.88 122.41C80.35 121.18 75.69 119.73 73.12 118.53C70.69 117.38 70.89 115.27 69.86 112.68C69.52 111.83 69.34 110.89 68.9 110.1C68.36 109.14 67.56 108.63 66.72 107.98C64.29 106.12 63.76 103 63.73 100.1C63.69 94.91 66.75 85.82 73.03 84.87C73.01 84.82 72.97 84.77 72.95 84.72C73.54 85.07 74.1 85.5 74.66 85.92C75.82 88.16 75.66 86.77 76.7 89.05C78.6 93.17 82.52 100.19 85.93 103.14C87.4 104.42 88.9 105.64 90.32 106.95C90.92 107.49 91.75 108.1 92.2 108.83L92.21 108.83C92.36 109.06 92.46 109.3 92.52 109.54C92.88 111.14 92.04 113.51 91.58 115.02L91.58 115.01Z" fill="#00679D" fill-opacity="1.000000" fill-rule="nonzero"/>
		<path id="Vector" d="M113.37 108.25C113.26 107.92 113.07 107.63 112.84 107.36C110.88 107.95 108.79 111.51 108.13 112.76C107.74 113.51 107.34 114.41 107 115.38C106.1 117.94 105.59 121 106.51 123.22C106.55 123.33 106.59 123.43 106.65 123.52C108.89 124.07 110.36 122.4 111.35 120.69C111.82 119.89 112.13 118.47 112.37 117.05C112.59 115.81 112.74 114.57 112.92 113.77C113.25 112.24 113.87 109.79 113.37 108.24L113.37 108.25Z" fill="#211E33" fill-opacity="1.000000" fill-rule="nonzero"/>
		<path id="Vector" d="M121.99 110.56L117.72 117.22C117.72 117.22 114.18 116.68 111.15 116.17C109.18 115.84 107.44 115.53 107 115.39C107.34 114.41 107.73 113.51 108.13 112.76C108.27 112.51 108.47 112.14 108.71 111.73C109.65 110.17 111.29 107.82 112.84 107.36L121.99 110.56L121.99 110.56Z" fill="#FCC49A" fill-opacity="1.000000" fill-rule="nonzero"/>
		<path id="Vector" d="M111.21 112.89C110.65 112.19 109.72 111.88 108.71 111.73C108.47 112.14 108.27 112.5 108.13 112.76C107.73 113.52 107.34 114.42 107 115.39C107.44 115.53 109.19 115.84 111.15 116.17C111.94 115.22 112.09 113.98 111.21 112.89Z" fill="#EB7D5C" fill-opacity="1.000000" fill-rule="nonzero"/>
		<path id="Vector" d="M132.47 112.7C132.67 112.51 132.81 112.26 132.85 111.99C132.88 111.71 132.76 111.32 132.55 111.04C132.44 110.83 132.26 110.67 131.99 110.63C131.95 110.63 131.91 110.63 131.87 110.63C131.84 110.43 131.71 110.24 131.42 110.07C130.78 109.69 129.83 110.34 129.19 110.52C128.82 110.62 128.46 110.7 128.09 110.75C128.22 110.63 128.34 110.49 128.42 110.31C128.72 109.64 128.38 109.12 127.65 108.98C126.87 108.82 126.13 109.26 125.41 109.46C124.4 109.74 123.43 109.51 122.42 109.67C121.42 109.84 120.7 110.42 120.14 111.17C119.22 111.86 118.79 112.88 118.58 113.99C118.42 114.88 117.25 114.84 117.66 115.7C117.61 115.7 117.34 117.12 117.53 117.16C119.04 117.56 130.91 118.77 130.76 115.68C131.44 115.42 132.12 114.84 132.45 114.37C132.75 113.96 132.93 113.37 132.64 112.9C132.6 112.82 132.54 112.76 132.48 112.7L132.47 112.7Z" fill="#FCC49A" fill-opacity="1.000000" fill-rule="nonzero"/>
		<path id="Vector" d="M127.57 110.79C126.6 110.63 125.41 110.95 124.56 111.41C124.19 111.62 123.93 111.91 123.66 112.23C123.07 112.96 122.63 113.22 121.76 113.58C121.37 113.74 121.37 114.4 121.88 114.38C122.81 114.32 123.58 113.8 124.17 113.1C124.71 112.47 125.14 112.11 125.95 111.86C126.53 111.67 127.11 111.54 127.62 111.19C127.76 111.1 127.78 110.82 127.57 110.78L127.57 110.79Z" fill="#EB7D5C" fill-opacity="1.000000" fill-rule="nonzero"/>
		<path id="Vector" d="M131.88 110.55C131.07 110.66 130.32 111.06 129.55 111.31C128.85 111.54 128.1 111.5 127.43 111.75C127.2 111.83 127.11 112.17 127.36 112.3C128.71 113.05 131.1 111.82 132.05 110.83C132.17 110.69 132.04 110.52 131.88 110.54L131.88 110.55Z" fill="#EB7D5C" fill-opacity="1.000000" fill-rule="nonzero"/>
		<path id="Vector" d="M131.63 112.94C130.72 112.85 129.76 113.21 128.85 113.26C127.97 113.31 126.99 113.21 126.2 113.62C125.93 113.76 126.03 114.12 126.27 114.22C127.22 114.58 128.61 114.33 129.61 114.22C130.39 114.13 131.2 113.89 131.81 113.39C132 113.23 131.83 112.96 131.63 112.94Z" fill="#EB7D5C" fill-opacity="1.000000" fill-rule="nonzero"/>
		<path id="Vector" d="M130.33 115.23C129.62 114.97 128.75 115.35 128.01 115.4C127.25 115.45 126.45 115.29 125.7 115.47C125.47 115.52 125.48 115.8 125.64 115.92C126.32 116.42 127.36 116.45 128.17 116.42C128.92 116.4 129.98 116.4 130.48 115.79C130.65 115.59 130.59 115.31 130.33 115.22L130.33 115.23Z" fill="#EB7D5C" fill-opacity="1.000000" fill-rule="nonzero"/>
		<path id="Vector" d="M92.52 109.54C92.46 109.29 92.36 109.06 92.21 108.83L92.2 108.82C89.75 108.63 87.71 111.32 86.7 113.64C86.39 114.34 86.05 115.29 85.76 116.34C85.06 118.89 84.72 122.06 86.23 123.75C87.19 123.9 88.05 123.64 88.78 122.6C89.4 121.72 90.12 119.67 90.7 117.85C91.06 116.7 91.37 115.64 91.57 115C92.04 113.5 92.87 111.13 92.51 109.53L92.52 109.54Z" fill="#211E33" fill-opacity="1.000000" fill-rule="nonzero"/>
		<path id="Vector" d="M101.01 113.25L95.97 119.36C95.97 119.36 93.33 118.63 90.7 117.86C88.61 117.26 86.53 116.64 85.76 116.35C86.05 115.29 86.39 114.35 86.7 113.65C87.71 111.32 89.74 108.63 92.2 108.82L92.21 108.83L101.01 113.26L101.01 113.25Z" fill="#FCC49A" fill-opacity="1.000000" fill-rule="nonzero"/>
		<path id="Vector" d="M111.79 119.81C111.27 118.96 108.69 117.75 107.88 117.3C107.2 116.92 106.61 116.46 106.03 115.97C107.29 116.12 108.71 115.94 109.56 115.16C110.15 114.63 110.23 113.89 109.5 113.41C108.98 113.06 108.08 113.19 107.52 113.09C106.29 112.88 105.17 112.29 103.93 112.1C102.61 111.91 101.15 112.07 100.02 112.81C99.93 112.8 99.83 112.8 99.73 112.84C98 113.58 94.34 114.28 93.67 116.3C92.99 118.35 95.98 119.36 95.98 119.36C97.73 119.95 99.13 120.83 100.5 122.06C101.7 123.14 103.34 124.53 105 124.77C105.57 124.85 106.41 124.75 106.56 124.09C106.57 124.04 106.56 124 106.57 123.95C106.96 124.01 107.33 124.06 107.65 124.05C108.45 124.04 109.7 123.72 109.81 123.01C110.24 122.91 110.65 122.75 110.99 122.52C111.39 122.26 111.63 121.75 111.4 121.32C111.96 121.03 112.12 120.36 111.79 119.81L111.79 119.81Z" fill="#FCC49A" fill-opacity="1.000000" fill-rule="nonzero"/>
		<path id="Vector" d="M109.02 120.33C107.78 119.87 106.69 119.15 105.52 118.56C105.22 118.41 104.98 118.75 105.18 119C105.91 119.91 106.9 120.56 107.95 121.05C108.7 121.4 109.84 122.08 110.67 121.85C110.79 121.82 110.9 121.69 110.88 121.57C110.79 120.64 109.75 120.62 109.02 120.34L109.02 120.33Z" fill="#EB7D5C" fill-opacity="1.000000" fill-rule="nonzero"/>
		<path id="Vector" d="M109.05 122.32C108.17 122.03 107.31 121.85 106.47 121.44C105.7 121.06 105 120.57 104.28 120.13C104.04 119.98 103.71 120.28 103.88 120.52C104.95 122.04 107.07 123.19 108.93 123.22C109.46 123.22 109.53 122.48 109.05 122.32Z" fill="#EB7D5C" fill-opacity="1.000000" fill-rule="nonzero"/>
		<path id="Vector" d="M105.98 123.67C105.65 123.14 104.89 122.98 104.35 122.7C103.73 122.37 103.04 121.99 102.59 121.44C102.37 121.17 101.93 121.52 102.11 121.81C102.54 122.5 102.99 123.03 103.67 123.46C104.23 123.81 105.08 124.36 105.76 124.21C105.99 124.16 106.1 123.87 105.98 123.68L105.98 123.67Z" fill="#EB7D5C" fill-opacity="1.000000" fill-rule="nonzero"/>
		<path id="Vector" d="M77.26 119.64C76.01 118.49 74.33 118.47 73.28 117.02C72.51 115.96 71.96 115.05 70.84 114.29C69.41 113.31 67.78 112.69 66.45 111.56C65.13 110.45 64.03 109.03 63.27 107.48C63.14 107.23 62.7 107.41 62.81 107.68C63.97 110.57 65.84 112.6 68.54 114.15C69.29 114.57 70.03 114.98 70.7 115.52C71.57 116.23 71.98 117.16 72.63 118.03C73.63 119.34 75.27 119.41 76.51 120.38C77.03 120.79 77.77 120.11 77.26 119.64L77.26 119.64Z" fill="#211E33" fill-opacity="1.000000" fill-rule="nonzero"/>
		<path id="Vector" d="M80.61 93.96C79.04 90.28 75.3 87.24 72.12 85C71.83 84.79 71.45 85.27 71.73 85.51C73.26 86.83 74.7 88.3 76.05 89.79C77.41 91.3 78.47 93.08 79.87 94.53C80.27 94.94 80.8 94.42 80.61 93.96L80.61 93.96Z" fill="#211E33" fill-opacity="1.000000" fill-rule="nonzero"/>
		<path id="Vector" d="M98.31 93.44C98.02 93 97.37 93.28 97.47 93.79C98 96.42 98.37 98.73 98.27 101.44C98.16 104.21 97.79 106.98 97.78 109.75C97.78 110.09 98.29 110.17 98.38 109.83C99.15 106.9 99.33 103.72 99.45 100.7C99.55 98.38 99.65 95.46 98.31 93.44Z" fill="#211E33" fill-opacity="1.000000" fill-rule="nonzero"/>
		<path id="Vector" d="M115.76 204.48C115.62 204.81 114.03 204.97 111.9 205.01C111.53 205.03 111.13 205.03 110.73 205.03C110.08 205.04 109.38 205.04 108.68 205.03C108.45 205.02 108.22 205.01 107.99 205.01C106.76 204.98 105.52 204.93 104.38 204.88L104.38 204.87C104.01 204.85 103.65 204.83 103.3 204.81C101.3 204.67 99.76 204.48 99.43 204.29C98.79 203.91 98.67 200.74 98.42 198.39C98.37 197.96 98.32 197.56 98.27 197.21C98.21 196.88 98.15 196.59 98.11 196.34C98 195.84 97.9 195.52 97.88 195.4C97.87 195.36 97.86 195.34 97.86 195.34L101.72 195.11L101.73 195.11L105.92 194.85C105.94 194.86 106.04 194.92 106.2 195.03C106.26 195.07 106.33 195.13 106.42 195.18C107.34 195.81 109.35 197.21 111.18 198.49C111.51 198.72 111.82 198.94 112.13 199.16L112.14 199.16C112.53 199.43 112.9 199.69 113.23 199.92C113.57 200.15 113.88 200.37 114.13 200.54C114.32 200.67 114.48 200.79 114.61 200.87C116.29 202 116.22 203.48 115.75 204.49L115.76 204.48Z" fill="#FCC49A" fill-opacity="1.000000" fill-rule="nonzero"/>
		<path id="Vector" d="M99.43 204.01C99.05 204.08 99.01 204.17 99.02 204.61C99.04 205.11 99.2 206.65 99.85 206.79C101.96 207.21 115.23 206.96 115.67 206.76C115.99 206.61 115.88 205.39 115.81 204.8C115.74 204.24 114.29 204.48 113.89 204.48C113.04 204.48 112.19 204.48 111.34 204.47C109.48 204.46 107.61 204.44 105.76 204.4C105.29 204.39 104.83 204.37 104.36 204.35C103.49 204.32 100.16 203.9 99.44 204.02L99.43 204.01Z" fill="#9C4630" fill-opacity="1.000000" fill-rule="nonzero"/>
		<path id="Vector" d="M114.14 200.54C113.39 201.09 112.85 201.9 112.47 202.77C112.17 203.45 112.11 204.28 111.9 205.01C111.82 205.31 111.72 205.59 111.55 205.85C111.42 206.05 111.12 206.06 110.99 205.85C110.84 205.6 110.76 205.33 110.73 205.03C110.6 203.86 111.27 202.41 111.8 201.53C112.18 200.93 112.65 200.32 113.23 199.91C113.58 200.14 113.88 200.36 114.14 200.54Z" fill="#9C4630" fill-opacity="1.000000" fill-rule="nonzero"/>
		<path id="Vector" d="M112.14 199.15C111.4 199.9 110.55 200.53 109.98 201.51C109.34 202.61 109.21 203.89 108.68 205.03C108.63 205.16 108.56 205.29 108.49 205.42C108.39 205.59 108.07 205.57 108.03 205.35C108.01 205.24 107.99 205.13 107.99 205.02C107.74 202.84 109.12 199.7 111.18 198.48C111.51 198.71 111.82 198.93 112.14 199.15L112.14 199.15Z" fill="#9C4630" fill-opacity="1.000000" fill-rule="nonzero"/>
		<path id="Vector" d="M103.47 195.78C103.33 195.82 103.19 195.87 103.05 195.91C103.26 196.54 103.43 197.2 103.59 197.88C104.11 200.17 104.33 202.71 104.38 204.87L104.38 204.88C104.39 204.94 104.39 205.02 104.39 205.08C104.41 205.66 103.49 205.8 103.39 205.22C103.36 205.08 103.33 204.94 103.3 204.81C102.89 202.64 102.48 200.23 102.33 197.93C102.29 197.33 102.27 196.73 102.27 196.15C101.16 196.49 100.03 196.83 98.9 197.08C98.69 197.13 98.48 197.16 98.27 197.21C98.21 196.88 98.16 196.58 98.11 196.33C98.15 196.32 98.2 196.3 98.25 196.27C99.38 195.81 100.55 195.46 101.72 195.1L101.73 195.1C102.09 194.99 102.43 194.88 102.79 194.78C103.95 194.41 105.14 193.98 106.35 193.67C106.39 194.14 106.41 194.57 106.42 194.95C106.35 194.98 106.28 195 106.2 195.02C105.3 195.29 104.36 195.51 103.46 195.78L103.47 195.78Z" fill="#9C4630" fill-opacity="1.000000" fill-rule="nonzero"/>
		<path id="Vector" d="M79.3 158.34C78.88 160.07 78.52 162.68 78.22 165.23C77.26 163.37 76.26 162.02 76.26 158.94C76.26 158.56 76.23 158.19 76.2 157.81C76.48 155.61 77.61 147.16 78.17 145.5C78.81 143.59 80.39 153.81 79.3 158.34Z" fill="#93294C" fill-opacity="1.000000" fill-rule="nonzero"/>
		<path id="Vector" d="M174.22 36.94C174.16 42.18 172.02 47.26 168.52 51.03C165.13 54.69 160.49 57.12 155.25 57.31C154.71 57.34 154.17 57.33 153.62 57.3C153.56 57.3 153.5 57.29 153.44 57.29C147.26 56.92 141.09 53.88 137 49.15C134.99 46.82 133.48 44.07 132.72 41.04C132.62 40.63 132.53 40.21 132.47 39.8C132 37.2 132.12 34.53 132.77 31.97C133.49 29.13 134.81 26.52 136.57 24.28C139.85 20.11 144.65 17.18 149.96 16.29C150.72 16.15 151.5 16.06 152.27 16.02C155.8 15.83 159.26 16.63 162.33 18.16C167.86 20.92 172.21 26.07 173.68 32.2C173.79 32.67 173.89 33.14 173.97 33.63C174.15 34.73 174.23 35.84 174.21 36.94L174.22 36.94Z" fill="#FBFBFB" fill-opacity="1.000000" fill-rule="nonzero"/>
		<path id="Vector" d="M147.33 24.7C147.22 24.7 147.12 24.71 147.02 24.72C143.87 23.05 139.99 23.04 136.58 24.28C134.82 26.52 133.5 29.13 132.78 31.97C132.13 34.53 132.01 37.2 132.48 39.8C132.62 37.18 133.16 35.41 134.15 33.56C135.35 31.32 136.9 29.35 139.1 27.99C141.28 26.64 144.29 25.67 146.84 25.23C146.87 25.24 146.88 25.25 146.91 25.25C147.01 25.28 147.1 25.25 147.16 25.18L147.33 25.15C147.6 25.11 147.63 24.69 147.33 24.7Z" fill="#00679D" fill-opacity="1.000000" fill-rule="nonzero"/>
		<path id="Vector" d="M152.28 16.03C151.5 16.07 150.73 16.16 149.97 16.29C147.88 18.79 146.68 22.09 147 25.19C147.03 25.45 147.36 25.47 147.44 25.24C147.5 25.37 147.7 25.4 147.77 25.22C148.49 23.17 151.06 21.47 152.8 20.31C154.94 18.87 157.27 18.34 159.83 18.21C160.68 18.17 161.51 18.15 162.35 18.17C159.27 16.64 155.82 15.84 152.29 16.03L152.28 16.03Z" fill="#FF6699" fill-opacity="1.000000" fill-rule="nonzero"/>
		<path id="Vector" d="M173.98 33.63C173.9 33.15 173.8 32.68 173.69 32.2C173.56 32.02 173.43 31.85 173.29 31.67C167.62 24.37 156.26 21.78 147.83 25.53C147.8 25.54 147.8 25.56 147.77 25.59C147.66 25.56 147.54 25.53 147.42 25.51C147.16 25.47 147.05 25.82 147.31 25.91C153.45 28.24 158.89 31.15 162.96 36.5C166.22 40.79 168.03 45.79 168.53 51.03C172.03 47.26 174.17 42.18 174.23 36.94C174.25 35.84 174.17 34.73 173.99 33.63L173.98 33.63Z" fill="#00679D" fill-opacity="1.000000" fill-rule="nonzero"/>
		<path id="Vector" d="M146.32 47.77C143.97 41 144.75 32.58 148.03 25.89C148.16 25.63 147.82 25.39 147.63 25.56C146.42 26.19 145.3 27.19 144.3 28.3C143.29 29.43 142.4 30.66 141.63 31.77C140 34.1 138.72 36.69 137.89 39.41C136.99 42.39 136.59 45.86 137.01 49.15C141.1 53.88 147.26 56.93 153.45 57.3C153.51 57.3 153.57 57.31 153.63 57.31C149.63 54.6 147.56 51.33 146.33 47.78L146.32 47.77Z" fill="#FF6699" fill-opacity="1.000000" fill-rule="nonzero"/>
		<path id="Vector" d="M149.5 24.39C149.15 23.74 148.15 23.61 147.42 23.89C146.83 24.12 146.3 24.58 146.06 25.17C145.12 27.52 147.97 27.15 149.04 26.09C149.45 25.7 149.75 25.11 149.58 24.57C149.56 24.51 149.53 24.44 149.5 24.39L149.5 24.39Z" fill="#FFFFFF" fill-opacity="1.000000" fill-rule="nonzero"/>
		<path id="Vector" d="M232.52 226.47C232.55 227.08 232.54 227.53 232.44 227.77C232.11 228.61 231.05 229.11 229.82 229.32C229.42 229.39 229 229.43 228.57 229.43C227.23 229.47 225.87 229.23 225.1 228.77C224.91 228.64 224.76 228.52 224.65 228.38C224.58 228.29 224.5 228.16 224.41 228C224.29 227.77 224.15 227.48 224 227.14C223.99 227.12 223.98 227.1 223.98 227.08C223.01 224.91 221.48 220.54 220.01 216.37L230.43 213.97C231.1 217.88 232 222.19 232.37 224.98C232.43 225.46 232.48 225.89 232.51 226.27C232.52 226.34 232.52 226.41 232.53 226.48L232.52 226.47Z" fill="#FCC49A" fill-opacity="1.000000" fill-rule="nonzero"/>
		<path id="Vector" d="M181.35 228.36C181.07 228.9 180.81 229.28 180.6 229.43C179.87 229.97 178.71 229.84 177.55 229.36C177.18 229.21 176.8 229.02 176.43 228.8C175.27 228.12 174.25 227.2 173.84 226.4C173.74 226.19 173.68 226.01 173.65 225.83C173.64 225.72 173.64 225.56 173.65 225.38C173.67 225.12 173.71 224.8 173.75 224.43C173.75 224.41 173.76 224.38 173.77 224.37C174.1 222.01 175.09 217.5 176.05 213.17L186.17 216.64C184.67 220.3 183.16 224.44 182 227.01C181.81 227.44 181.62 227.84 181.45 228.17C181.42 228.24 181.38 228.3 181.35 228.36L181.35 228.36Z" fill="#FCC49A" fill-opacity="1.000000" fill-rule="nonzero"/>
		<path id="Vector" d="M235.61 215.66C235.33 215.04 235.14 214.46 235.02 213.87C234.94 213.49 234.89 213.1 234.89 212.67C234.89 212.53 234.89 212.37 234.89 212.22C234.93 211.21 235.14 210.26 234.97 209.25C234.63 207.2 233.15 205.56 232.6 203.56C231.95 201.21 232.01 197.12 231.78 194.7C231.58 192.5 231.19 190.31 230.71 188.16C229.65 183.41 228.11 178.8 226.96 174.07C226.01 170.17 225.85 165.9 224.34 162.16C223.04 158.92 220.54 156.87 217.15 156.43C213.87 156 208.9 156.47 206.05 158.3C202.79 160.39 201.09 164.93 200.92 168.72C200.8 171.36 201.41 173.99 202.64 176.27C203.47 179.48 204.55 182.65 205.5 185.79C205.66 186.3 205.81 186.81 205.97 187.32L205.97 187.33C207.02 190.71 208.14 194.08 209.64 197.28C209.84 197.71 210.35 198.97 211.03 200.72C213.37 206.63 217.77 219.64 219.37 222.47C219.71 223.09 221.74 222.98 222.41 223.03C223.46 223.09 224.49 223.11 225.53 223.06C227.72 222.98 229.95 222.73 232.02 222C234.92 220.99 236.98 218.82 235.6 215.67L235.61 215.66Z" fill="#FF6699" fill-opacity="1.000000" fill-rule="nonzero"/>
		<path id="Vector" d="M223.76 163.48C223.61 163.13 222.98 163.12 223.02 163.58C223.17 165 223.55 166.39 223.88 167.77C224.14 168.88 224.61 170.23 223.72 171.28C223.02 172.09 221.8 172.24 220.82 172.39C218.99 172.66 216.8 173.26 215.59 171.37C214.86 170.23 214.51 168.45 213.95 167.2C213.81 166.86 213.32 167.11 213.39 167.43C213.77 169.1 214.04 172.1 215.5 173.26C216.94 174.4 219.76 173.75 221.37 173.48C223.09 173.2 224.95 172.46 225.34 170.57C225.77 168.48 224.52 165.37 223.76 163.48Z" fill="#93294C" fill-opacity="1.000000" fill-rule="nonzero"/>
		<path id="Vector" d="M209.98 158.76C207.38 155.74 203.8 156.23 200.22 156.45C196.74 156.66 192.62 156.34 189.2 157.5C189.23 157.37 189.26 157.25 189.28 157.13C189.34 156.8 188.88 156.66 188.79 156.98C188.7 157.24 188.63 157.49 188.55 157.74C188.31 157.84 188.07 157.95 187.84 158.06C187.28 158.34 187.62 159.12 188.14 159.14C186.05 166.22 184.42 173.48 182.72 180.67C180.91 188.25 179.09 195.83 177.33 203.43C176.49 207.09 175.71 210.76 175.22 214.49C175.08 215.56 174.49 217.56 174.92 218.63C175.13 219.16 175.67 219.53 176.2 219.84C176.4 219.96 176.62 220.07 176.8 220.17C176.97 220.27 177.14 220.35 177.3 220.42C178.81 221.16 180.4 221.54 181.99 222.05C184.43 222.81 187.01 223.49 189.58 223.52C192.18 223.55 193.74 221.65 194.25 219.21C194.57 217.68 194.41 216.12 194.46 214.58C194.56 211.84 195.81 210.46 197.29 208.36C199.33 205.46 199.73 201.92 200.67 198.64C201.66 195.15 204.22 192.39 205.37 188.96C205.91 187.35 206.75 185.68 207.14 184.04C207.68 181.76 209.2 180.25 210.56 178.44C212.8 175.47 212.11 172.27 212.34 168.57C212.56 165.18 212.3 161.45 209.99 158.77L209.98 158.76Z" fill="#FF6699" fill-opacity="1.000000" fill-rule="nonzero"/>
		<path id="Vector" d="M207.07 165.12C206.76 167.02 206.37 168.9 205.71 170.71C205.13 172.3 204.47 172.77 202.65 172.88C201.67 172.94 200.63 172.69 199.67 172.47C197.55 171.96 196.01 171.97 195.78 169.48C195.6 167.45 196.22 165.36 196.04 163.31C196.01 163.06 195.66 162.98 195.59 163.25C195.16 164.77 195.02 166.36 194.85 167.93C194.74 168.93 194.41 170.27 194.84 171.25C195.68 173.16 198.29 173.33 200.07 173.67C201.77 174 204.39 174.54 205.73 173.09C207.43 171.24 207.82 167.62 208.04 165.25C208.1 164.7 207.16 164.56 207.07 165.12L207.07 165.12Z" fill="#93294C" fill-opacity="1.000000" fill-rule="nonzero"/>
		<path id="Vector" d="M192.85 159.77C190.36 164.92 188.94 170.46 187.65 176.01C187.04 178.65 186.43 181.29 185.69 183.89C184.93 186.55 183.92 189.14 183.39 191.86C182.26 197.66 182.29 203.32 180.09 208.9C179.03 211.59 177.7 214.08 177.44 217.02C177.34 218.13 177.36 219.28 177.3 220.42C177.14 220.34 176.97 220.26 176.8 220.16C176.61 220.06 176.4 219.96 176.2 219.84C176.28 218.61 176.37 217.39 176.53 216.17C176.92 213.25 178.42 210.72 179.45 208C181.58 202.43 181.45 196.62 182.73 190.88C183.36 188.09 184.36 185.4 185.08 182.63C185.76 180.01 186.33 177.36 186.96 174.73C188.2 169.45 189.64 164.22 192.4 159.52C192.58 159.22 193 159.48 192.86 159.78L192.85 159.77Z" fill="#93294C" fill-opacity="1.000000" fill-rule="nonzero"/>
		<path id="Vector" d="M185.49 162.72C187.01 162.62 190.06 164.88 191.42 165.52C194.27 166.87 197.27 167.92 200.34 168.68C204.33 169.65 208.44 170.1 212.54 170.02C214.99 169.96 221.45 170.24 223.05 167.81C224.86 165.06 224.86 159.98 224.86 159.98C224.86 159.98 185.67 162.71 185.5 162.72L185.49 162.72Z" fill="#FFFFFF" fill-opacity="1.000000" fill-rule="nonzero"/>
		<path id="Vector" d="M167.74 122.2C167.42 121.53 166.95 121.01 166.43 120.5C165.78 119.88 165.22 119.06 164.57 118.48C164.02 118.01 163.17 117.77 162.79 118.61C162.31 119.65 163.48 121.01 164.18 122.12C162.64 121.66 161.05 121.36 159.45 121.18C158.44 121.07 156.5 120.59 155.68 121.5C154.83 122.45 155.4 123.13 156.39 123.58C155.52 123.62 154.31 123.78 153.78 124.55C153.26 125.3 153.52 125.81 154.11 126.17C153.6 126.63 153.59 127.31 154.48 127.97C155.06 128.4 155.76 128.6 156.46 128.72C156.71 129.25 157.25 129.6 157.95 129.91C159.48 130.58 161.6 131.24 163.3 131.01C164.68 130.82 166.35 129.75 167.32 128.77C167.73 128.34 167.92 127.87 167.96 127.38C168.01 127.34 168.06 127.28 168.08 127.19C168.35 125.55 168.48 123.75 167.74 122.2L167.74 122.2Z" fill="#FCC49A" fill-opacity="1.000000" fill-rule="nonzero"/>
		<path id="Vector" d="M160.64 123.96C160 123.73 159.26 123.71 158.59 123.64C158 123.58 157.34 123.4 156.81 123.7C156.68 123.77 156.65 123.97 156.76 124.07C157.2 124.48 157.88 124.48 158.46 124.56C159.13 124.66 159.85 124.84 160.53 124.8C161.02 124.77 161.1 124.12 160.64 123.96L160.64 123.96Z" fill="#EB7D5C" fill-opacity="1.000000" fill-rule="nonzero"/>
		<path id="Vector" d="M159.73 126.13C158.79 126.06 157.85 126.08 156.9 126.01C156.11 125.96 155.36 125.77 154.58 125.68C154.24 125.64 154.15 126.14 154.41 126.29C155.98 127.17 157.99 127.12 159.73 127.15C160.4 127.16 160.38 126.18 159.73 126.13Z" fill="#EB7D5C" fill-opacity="1.000000" fill-rule="nonzero"/>
		<path id="Vector" d="M163.62 126.62L164.77 125.82C165.93 125.01 167.48 125.04 168.61 125.89C169.87 126.85 171.52 128.12 172.8 129.14C174.35 130.39 175.72 131.52 176.03 131.87C175.26 132.55 174.48 133.14 173.75 133.6C173.51 133.76 173.16 133.98 172.75 134.21C171.16 135.12 168.59 136.35 167.01 135.99L163.03 131.47C161.74 130 162.01 127.74 163.62 126.62L163.62 126.62Z" fill="#FCC49A" fill-opacity="1.000000" fill-rule="nonzero"/>
		<path id="Vector" d="M210.15 85.03C207.2 82.1 204.01 80.81 200.03 80.3C197.44 79.97 194.98 78.84 192.52 79.95C190.32 80.94 189.29 82.63 188.08 84.66C186.57 87.15 185.02 90 184.12 92.92C183.83 93.83 183.61 94.75 183.48 95.67C183.19 97.52 183.26 99.38 183.83 101.18C185.76 107.13 194.57 108.4 200.8 106.98C207.8 105.4 211.37 102.96 213 96.07C213.93 92.12 213.27 88.13 210.15 85.03Z" fill="#FCC49A" fill-opacity="1.000000" fill-rule="nonzero"/>
		<path id="Vector" d="M194.83 107.42L195.83 114.31L206.98 113.66L204.37 102.61L194.83 107.42Z" fill="#FCC49A" fill-opacity="1.000000" fill-rule="nonzero"/>
		<path id="Vector" d="M186.84 88.58C186.79 88.56 186.73 88.54 186.68 88.54C185.84 88.41 184.95 88.63 184.29 89.15C183.9 89.46 183.56 89.89 183.55 90.38C183.5 91.48 184.39 93.05 185.58 93.2C185.46 92.08 185.52 90.95 185.75 89.85C185.76 89.81 185.77 89.77 185.8 89.75C185.83 89.71 185.89 89.72 185.94 89.72C186.41 89.73 186.92 89.46 187.01 89C187.04 88.87 187.02 88.71 186.92 88.63C186.9 88.61 186.87 88.6 186.85 88.58L186.84 88.58Z" fill="#FCC49A" fill-opacity="1.000000" fill-rule="nonzero"/>
		<path id="Vector" d="M188.76 86.92C189.24 86.84 189.7 87.03 189.72 87.74C189.74 88.13 189.56 88.5 189.35 88.84C189.17 89.13 188.96 89.42 188.68 89.61C188.4 89.8 188.02 89.88 187.7 89.74C187.28 89.56 187.09 89.02 187.17 88.57C187.26 88.1 187.56 87.72 187.88 87.39C188.11 87.16 188.44 86.98 188.76 86.92L188.76 86.92Z" fill="#211E33" fill-opacity="1.000000" fill-rule="nonzero"/>
		<path id="Vector" d="M186.24 93.06C185.84 92.84 185.22 92.94 184.78 92.93C184.56 92.92 184.34 92.92 184.12 92.92C183.83 93.82 183.61 94.75 183.48 95.66C184.37 95.74 185.32 95.41 185.98 94.71C186.38 94.29 187 93.47 186.24 93.06Z" fill="#FFFFFF" fill-opacity="1.000000" fill-rule="nonzero"/>
		<path id="Vector" d="M192.64 85.01C192.23 84.22 191.56 83.47 190.63 83.42C190.24 83.4 189.83 83.51 189.54 83.77C189.23 84.05 189.09 84.49 189.16 84.91C189.23 85.32 189.5 85.69 189.86 85.89C190.16 86.06 190.51 86.12 190.83 86.23C191.17 86.36 191.5 86.55 191.77 86.79C191.98 86.99 192.2 87.23 192.49 87.23C193.48 87.23 193.03 85.89 192.81 85.37C192.76 85.25 192.71 85.13 192.64 85.01L192.64 85.01Z" fill="#1A1A1A" fill-opacity="1.000000" fill-rule="nonzero"/>
		<path id="Vector" d="M218.43 87.58C219.8 84.11 217.05 80.65 213.39 79.91C212.8 74.55 207.31 74.54 204.3 75.46C201.22 72.88 197.87 74.27 196.8 76.49C195.27 75.93 193.53 76.78 192.53 77.94C191.29 79.37 191.29 81.46 192.38 83C192.97 83.82 193.91 84.45 194.94 84.78C194 86.79 193.73 89.04 195.44 90.62C194.72 92.64 194.73 95.37 196.85 95.93C196.54 96.83 196.6 97.83 197.06 98.73C197.46 99.51 198.16 100.16 198.96 100.53C199.17 100.62 199.49 100.68 199.84 100.72C200.58 101.52 200.85 102.56 201.26 103.64C202.23 106.15 204.25 106.11 205.24 105.82C206.53 105.43 208 106.43 209.35 106.43C210.28 106.31 211.13 105.84 211.77 105.16C212.2 104.7 212.34 104.06 212.72 103.6C213.3 102.92 214.16 102.83 214.94 102.6C216.9 102.04 218.39 101.46 218.79 99.45C218.99 98.46 219.06 97.29 218.82 96.26C221.56 94.71 220.86 89.72 218.43 87.58L218.43 87.58Z" fill="#1A1A1A" fill-opacity="1.000000" fill-rule="nonzero"/>
		<path id="Vector" d="M198.97 91.92C198.22 89.87 195.92 88.9 194.1 90.25C193.85 90.43 194.14 90.79 194.4 90.67C193.02 91.6 192.08 93.93 191.99 95.21C191.83 97.55 194.03 99.09 196.2 98.24C198.5 97.35 199.8 94.2 198.97 91.92Z" fill="#FCC49A" fill-opacity="1.000000" fill-rule="nonzero"/>
		<path id="Vector" d="M196.01 94.1C195.96 93.61 195.67 93.21 195.6 92.73C195.57 92.53 195.63 92.17 195.36 92.1C195.34 92.1 195.32 92.09 195.29 92.09C195.11 92.04 194.92 92.12 194.83 92.28C194.45 92.89 194.77 93.35 194.89 93.97C195.03 94.63 194.5 95.1 194.65 95.71C194.69 95.86 194.87 96.03 195.05 96.01C195.88 95.91 196.08 94.81 196.01 94.1L196.01 94.1Z" fill="#EB7D5C" fill-opacity="1.000000" fill-rule="nonzero"/>
		<path id="Vector" d="M204.84 79.53C203.48 77 200.04 76.59 198.2 79.01C197.94 79.35 198.48 79.72 198.76 79.45C200.67 77.66 203.15 78.09 204.31 80.43C204.43 80.68 204.81 80.72 204.99 80.52C206 79.41 207.62 79.8 208.53 80.72C209.13 81.33 209.39 81.84 209.51 82.69C209.59 83.2 210.36 82.99 210.29 82.48C209.92 79.93 207.05 78.01 204.84 79.53Z" fill="#626262" fill-opacity="1.000000" fill-rule="nonzero"/>
		<path id="Vector" d="M207.67 84.2C206.74 83.69 205.86 83.61 204.85 83.87C204.61 83.93 204.67 84.29 204.91 84.3C205.71 84.32 206.64 84.61 207.31 85.05C208.04 85.52 208.34 86.18 208.86 86.82C209.15 87.18 209.6 86.77 209.55 86.41C209.43 85.48 208.46 84.63 207.67 84.19L207.67 84.2Z" fill="#626262" fill-opacity="1.000000" fill-rule="nonzero"/>
		<path id="Vector" d="M207.91 100.87C207.5 101.5 207.1 101.92 206.34 102.1C205.65 102.27 204.63 102.29 204.23 101.59C204.08 101.33 203.61 101.51 203.73 101.81C204.55 103.83 208.19 103.19 208.64 101.18C208.74 100.73 208.16 100.48 207.91 100.87L207.91 100.87Z" fill="#626262" fill-opacity="1.000000" fill-rule="nonzero"/>
		<path id="Vector" d="M225.32 145.68C224.7 142.93 224.37 140.97 224.28 138.19C224.21 136.35 223.85 134.64 223.24 132.98C223.19 131.85 223.18 130.72 223.2 129.59C223.42 127.87 223.56 126.14 223.76 124.45C224.05 121.83 224.79 120.31 224.42 117.67C223.79 113.2 217.73 111.23 215.51 111.47C215.3 110.74 214.97 110.05 214.46 109.43C213.7 108.51 212.61 107.32 211.44 106.93C209.12 106.14 205.96 106.86 203.54 107.03C201.43 107.19 199.34 107.58 197.28 108.02C191.59 109.24 191.98 111.51 191.98 111.51L191.97 111.52L191.96 111.52C191.64 111.65 186.34 113.88 184.83 115.03C182.75 116.61 180.61 119.45 180.79 121.92C181.01 125.12 182.13 128.26 182.99 131.33C183.52 133.24 183.98 135.21 184.55 137.14C184.39 138.86 184.35 140.58 184.64 142.31C184.91 143.98 183.81 143.23 184.22 144.85C184.45 145.79 184.17 146.46 183.79 147.12C183.54 147.54 183.25 147.96 183.02 148.43C182.86 148.76 182.74 149.12 182.66 149.53C182.65 149.62 182.63 149.74 182.63 149.89C182.43 152.4 183.06 161.84 184.38 163.1C185.52 164.18 189.66 164.42 191.34 164.2C192.98 164.31 194.65 163.99 196.26 163.79C199.4 163.41 202.54 162.98 205.69 162.63C208.83 162.28 211.97 162 215.12 161.88C216.7 161.82 218.27 161.79 219.85 161.82C221.22 161.84 222.83 161.85 224.17 162C227.01 162.32 227.16 158.23 227.3 156.9C227.55 154.49 225.83 147.94 225.33 145.68L225.32 145.68Z" fill="#6252BC" fill-opacity="1.000000" fill-rule="nonzero"/>
		<path id="Vector" d="M188.41 121.97C187.47 119.93 192.58 111.51 192.36 111.51C192.23 111.51 192.11 111.51 191.97 111.52L191.96 111.52C189.52 111.6 187.13 112.56 185.1 113.89C184.04 114.57 182.99 115.38 182.13 116.32C181.23 117.31 180.59 118.55 179.85 119.67C179.03 120.92 178.21 122.17 177.39 123.42C176.65 124.55 175.9 125.68 175.13 126.8C174.74 127.37 174.33 128.19 173.76 128.63C173.75 128.64 173.68 128.73 173.64 128.71C173.15 128.36 172.65 128.03 172.15 127.69C171.43 127.2 170.69 126.53 169.77 126.56C167.84 126.62 165.81 128.27 164.99 129.71C163.98 131.49 163.24 135.22 163.48 137.31C163.61 138.44 164.14 139.36 164.86 140.13C165.67 143.92 169.5 146.74 173.34 147.07C174.99 147.21 176.05 147.66 177.52 148.26C178.66 148.72 179.91 148.9 181.14 148.8C181.45 148.78 181.74 148.74 182.02 148.68C182.36 148.62 182.68 148.53 183 148.42C184.1 148.03 185.05 147.39 185.94 146.6C186.41 146.18 186.86 145.72 187.32 145.23C189.34 143.08 190.89 141.44 191.36 138.42C191.78 135.79 191.51 133.04 191.06 130.44C190.54 127.51 189.64 124.66 188.39 121.96L188.41 121.97Z" fill="#6252BC" fill-opacity="1.000000" fill-rule="nonzero"/>
		<path id="Vector" d="M237.2 129.52C236.99 129.2 236.8 128.87 236.61 128.54C235.52 126.61 234.67 124.63 233.23 122.91C229.31 118.22 222.4 109.99 215.14 111.75C214.83 111.83 214.96 112.3 215.28 112.24C216.12 112.1 216.94 112.07 217.73 112.14C217.74 115.84 218.75 119.41 219.34 123.04C220.01 127.13 220.32 131.24 220.38 135.38C220.44 139 219.53 150.81 225.85 149.41C225.99 149.38 226.13 149.34 226.27 149.29C226.81 149.14 227.31 148.9 227.84 148.72C228.78 148.39 229.72 148.39 230.68 148.2C231.03 148.12 231.36 148.04 231.69 147.91C234.84 146.82 237.15 143.77 238.56 140.89C240.55 136.75 239.56 133.32 237.21 129.52L237.2 129.52Z" fill="#6252BC" fill-opacity="1.000000" fill-rule="nonzero"/>
		<path id="Vector" d="M160.56 128.42C159.98 128.26 159.34 128.3 158.74 128.26C158.1 128.22 157.47 128.11 156.83 128.13C156.58 128.14 156.48 128.47 156.7 128.6C157.72 129.21 159.38 129.61 160.56 129.37C161.04 129.27 161.01 128.54 160.56 128.42L160.56 128.42Z" fill="#EB7D5C" fill-opacity="1.000000" fill-rule="nonzero"/>
		<path id="Vector" d="M211.6 193.32C212.28 196.24 211.77 198.83 211.04 200.71C210.35 198.97 209.85 197.71 209.64 197.27C208.15 194.08 207.02 190.71 205.98 187.33L205.98 187.32C205.98 187.32 207.92 182.47 208.85 181.54C209.78 180.6 213.46 178.52 214 181.54C214.54 184.55 210.25 187.56 211.6 193.32L211.6 193.32Z" fill="#93294C" fill-opacity="1.000000" fill-rule="nonzero"/>
		<path id="Vector" d="M235.02 213.87C231.54 213.95 228.03 213.34 225 211.84C224.65 211.66 224.96 211.17 225.3 211.32C228.51 212.69 231.66 212.77 234.89 212.67C234.89 213.09 234.94 213.49 235.02 213.87Z" fill="#93294C" fill-opacity="1.000000" fill-rule="nonzero"/>
		<path id="Vector" d="M173.16 128.46C172.21 129.02 171.44 129.94 170.81 130.99C170.07 131.18 169.36 131.73 168.79 132.16C168.18 132.63 166.94 133.4 167 134.26C167.02 134.44 167.15 134.61 167.34 134.6C168.13 134.56 168.78 133.52 169.37 133.03C169.56 132.86 169.79 132.7 170.02 132.55C169.61 133.49 169.31 134.47 169.12 135.34C168.96 136.06 170.01 136.35 170.22 135.64C170.61 134.37 171.03 133.13 171.67 131.96C172.26 130.9 173.06 129.95 173.56 128.85C173.67 128.61 173.43 128.3 173.16 128.46L173.16 128.46Z" fill="#34277D" fill-opacity="1.000000" fill-rule="nonzero"/>
		<path id="Vector" d="M216.33 111.61C216.15 111.06 215.25 111.13 215.27 111.76C215.41 114.53 215.87 118.44 211.81 118.04C209.56 117.82 207.26 117.09 205.1 116.44C200.68 115.13 196.59 113.15 192.32 111.48C191.93 111.33 191.74 111.91 192.05 112.12C197.15 115.6 203.69 117.64 209.67 118.95C211.59 119.38 213.76 119.82 215.34 118.3C217.08 116.61 217.01 113.75 216.33 111.61Z" fill="#34277D" fill-opacity="1.000000" fill-rule="nonzero"/>
		<path id="Vector" d="M231.17 137.22C230.31 135.62 229.41 134.2 228.88 132.43C228.35 130.68 228.08 128.85 227.79 127.05C227.72 126.56 227.06 126.58 226.83 126.92C225.98 128.24 225.82 129.62 225.89 131.17C226 133.6 226 135.61 225.45 138.01C224.58 141.7 225.45 145.6 226.26 149.29C226.8 149.13 227.31 148.9 227.84 148.71C228.78 148.39 229.71 148.39 230.68 148.19C231.02 148.12 231.36 148.03 231.69 147.9C231.61 147.05 231.65 146.25 231.82 145.32C232.36 142.37 232.66 139.98 231.17 137.23L231.17 137.22Z" fill="#34277D" fill-opacity="1.000000" fill-rule="nonzero"/>
		<path id="Vector" d="M190.07 139.54C189.06 142.14 187.69 144.52 185.95 146.61C184.96 147.8 183.85 148.89 182.62 149.88C182.63 149.74 182.38 148.63 182.04 148.69C182.65 148.2 183.23 147.67 183.79 147.12C186.08 144.83 187.98 142.11 189.68 139.37C189.8 139.18 190.16 139.31 190.07 139.54Z" fill="#34277D" fill-opacity="1.000000" fill-rule="nonzero"/>
		<path id="Vector" d="M181.83 232.41C181.89 231.27 182.63 228.47 181.77 227.54C181.05 226.76 179.54 226.92 178.61 226.44C177.25 225.72 175.9 224.56 174.38 224.22C173.79 224.09 173.21 224.24 172.71 224.56C172 225.01 171.5 225.74 171.01 226.41C170.98 226.45 170.96 226.48 170.93 226.51C170.71 226.81 170.41 227.07 170.07 227.3C169.34 227.8 168.41 228.2 167.75 228.58C166.67 229.21 165.6 229.86 164.52 230.49C163.39 231.15 162.4 231.74 162.07 233.11C162 233.39 161.97 233.65 161.97 233.94C161.96 234.31 162.02 234.68 162.13 235.03C162.3 235.61 162.6 236.15 163.03 236.56C163.98 237.48 166.82 237.26 167.99 237.33C170.66 237.49 180.17 237.6 181.27 236.6C181.65 236.25 181.82 235.79 181.88 235.28C181.94 234.88 181.93 234.46 181.9 234.04C181.86 233.45 181.8 232.89 181.83 232.41L181.83 232.41Z" fill="#C6F432" fill-opacity="1.000000" fill-rule="nonzero"/>
		<path id="Vector" d="M173.07 226.46C172.42 227.08 171.96 227.82 171.13 228.24C170.39 228.63 169.66 229.19 168.88 229.49C168.3 229.7 168.42 230.46 169.01 230.53C169.55 230.59 169.94 230.32 170.38 230.03C170.85 229.72 171.37 229.51 171.87 229.24C172.85 228.72 173.48 227.9 173.72 226.83C173.8 226.45 173.36 226.18 173.07 226.45L173.07 226.46Z" fill="#000000" fill-opacity="1.000000" fill-rule="nonzero"/>
		<path id="Vector" d="M181.89 235.28C178.97 235.45 176.02 235.48 173.1 235.46C169.65 235.45 165.68 235.7 162.13 235.03C162.02 234.68 161.96 234.31 161.97 233.94C163.43 233.92 164.9 234.07 166.34 234.12C168.59 234.2 170.85 234.27 173.1 234.27C176.04 234.28 178.97 234.17 181.9 234.04C181.94 234.46 181.94 234.89 181.89 235.28Z" fill="#211E33" fill-opacity="1.000000" fill-rule="nonzero"/>
		<path id="Vector" d="M235.62 235.59C235.6 235.24 235.54 234.83 235.46 234.39C234.91 231.03 233.2 225.72 233.06 225.56C232.66 225.11 232.01 225.08 231.42 225.06C229.31 225.01 224.02 225.9 223.91 226.07C223.53 226.64 223.67 232.1 223.56 234.96C223.55 235.12 223.54 235.26 223.53 235.4C223.52 235.56 223.52 235.7 223.52 235.86C223.52 236.19 223.55 236.52 223.64 236.81C223.72 237.07 223.86 237.31 224.07 237.49C224.44 237.8 224.95 237.85 225.44 237.89C227.53 238.02 229.35 237.85 231.45 237.88C232.77 237.89 234.44 238.06 235.45 237C235.64 236.8 235.68 236.29 235.63 235.59L235.62 235.59Z" fill="#C6F432" fill-opacity="1.000000" fill-rule="nonzero"/>
		<path id="Vector" d="M235.62 235.59C233.5 236.49 230.96 236.56 228.72 236.5C226.94 236.46 225.14 236.43 223.51 235.85C223.51 235.7 223.52 235.55 223.53 235.4C223.54 235.26 223.54 235.12 223.55 234.95C225.3 235.47 227.3 235.38 229.05 235.41C231.37 235.44 233.38 235.14 235.46 234.38C235.54 234.82 235.59 235.23 235.62 235.58L235.62 235.59Z" fill="#211E33" fill-opacity="1.000000" fill-rule="nonzero"/>
		<path id="Vector" d="M266.95 163.08C266.95 165.56 265.98 170.13 264.88 174.65C264.45 176.43 264 178.22 263.57 179.85C262.57 183.7 261.9 186.62 261.29 187.82C261.18 188.03 261.08 188.18 260.98 188.29C259.57 189.73 255.6 189.14 254.37 187.8C254.21 187.64 254.11 187.47 254.04 187.29C253.63 186.09 253.84 179.23 253.96 173.39C254.01 171.03 254.05 168.83 254.02 167.23C253.94 161.68 254.52 153.14 254.52 153.14L260.83 150.24L266.95 151.12C266.95 151.12 266.96 156.92 266.95 163.08L266.95 163.08Z" fill="#FCC49A" fill-opacity="1.000000" fill-rule="nonzero"/>
		<path id="Vector" d="M299.32 187.8C299 189.49 294.51 191.04 292.77 189.69C291.59 188.79 288.56 180.48 286.46 173.35C285.43 169.89 284.63 166.71 284.34 164.79C283.5 158.87 281.31 151.92 281.31 151.92L287.09 150.24L293.56 152.18C293.56 152.18 296.08 160.21 296.77 165.56C296.95 166.99 297.23 169.11 297.55 171.5C298.43 178.05 299.55 186.55 299.32 187.8L299.32 187.8Z" fill="#FCC49A" fill-opacity="1.000000" fill-rule="nonzero"/>
		<path id="Vector" d="M260.05 174.37C258 174.17 255.98 173.77 253.96 173.39C253.84 179.23 253.63 186.09 254.04 187.29C254.1 187.47 254.21 187.64 254.36 187.8C255.08 188.24 255.9 188.57 256.79 188.76C258.42 189.11 259.97 188.68 261.28 187.82C261.89 186.62 262.57 183.7 263.57 179.85C263.99 178.21 264.44 176.43 264.88 174.65C263.27 174.62 261.66 174.53 260.05 174.37Z" fill="#FBFBFB" fill-opacity="1.000000" fill-rule="nonzero"/>
		<path id="Vector" d="M264.07 176.29C262.41 176.32 260.81 176.71 259.14 176.62C257.49 176.54 255.91 176.05 254.27 175.95C253.89 175.93 253.79 176.45 254.09 176.63C256.71 178.3 261.51 178.45 264.32 177.19C264.76 176.99 264.52 176.29 264.07 176.29Z" fill="#5577D9" fill-opacity="1.000000" fill-rule="nonzero"/>
		<path id="Vector" d="M254.3 173.77C254.29 173.62 254.18 173.52 254.06 173.48C254.08 173.46 254.08 173.43 254.04 173.43C254.02 173.43 254.01 173.45 254.01 173.47C253.88 173.44 253.74 173.51 253.7 173.68C253.1 176.83 253.28 180.32 253.34 183.51C253.35 184.02 254.13 184.02 254.14 183.51C254.21 180.31 254.58 176.95 254.3 173.77Z" fill="#FBFBFB" fill-opacity="1.000000" fill-rule="nonzero"/>
		<path id="Vector" d="M264.63 174.88C263.65 178.34 262.39 181.98 261.91 185.55C261.87 185.87 262.28 185.99 262.4 185.68C263.77 182.36 264.5 178.57 265.37 175.08C265.49 174.61 264.77 174.4 264.63 174.88L264.63 174.88Z" fill="#FBFBFB" fill-opacity="1.000000" fill-rule="nonzero"/>
		<path id="Vector" d="M297.56 171.5C296.07 172.2 294.59 172.75 292.95 173.05C290.79 173.45 288.63 173.44 286.46 173.35C288.56 180.48 291.6 188.79 292.77 189.69C294.51 191.04 299 189.49 299.32 187.8C299.56 186.55 298.44 178.05 297.56 171.5Z" fill="#FBFBFB" fill-opacity="1.000000" fill-rule="nonzero"/>
		<path id="Vector" d="M297.68 174.19C295.98 174.71 294.51 175.59 292.72 175.87C291.24 176.09 288.88 176.35 287.48 175.65C287.25 175.54 286.9 175.79 287.08 176.05C288.11 177.5 290.56 177.34 292.14 177.2C294.16 177.01 296.65 176.44 298.14 174.97C298.46 174.65 298.14 174.04 297.68 174.19Z" fill="#5577D9" fill-opacity="1.000000" fill-rule="nonzero"/>
		<path id="Vector" d="M298.85 177.44C298.71 175.63 298.7 173.67 298.1 171.94C298 171.65 297.63 171.72 297.6 172C297.38 173.91 297.79 175.91 297.94 177.82C298.1 179.76 298.16 181.72 298.34 183.65C298.39 184.2 299.2 184.22 299.2 183.65C299.2 181.58 299.02 179.5 298.85 177.43L298.85 177.44Z" fill="#FBFBFB" fill-opacity="1.000000" fill-rule="nonzero"/>
		<path id="Vector" d="M291.2 185.46C290.51 183.35 289.64 181.3 288.9 179.22C288.26 177.41 287.9 175.19 286.76 173.64C286.67 173.51 286.45 173.55 286.45 173.72C286.4 175.74 287.5 177.92 288.17 179.8C288.87 181.81 289.56 183.84 290.46 185.76C290.66 186.17 291.33 185.88 291.19 185.46L291.2 185.46Z" fill="#FBFBFB" fill-opacity="1.000000" fill-rule="nonzero"/>
		<path id="Vector" d="M300.49 156.07C300.08 153.48 299.35 150.89 298.47 148.42C297.55 145.83 296.53 143.57 296.23 140.8C296.01 138.66 295.77 136.65 294.77 134.72C293.62 132.5 292.26 128.25 291.66 125.69C291.19 123.69 290.11 120.93 288.88 119.28C287.94 118.03 286.97 121.04 285.48 121.23C283.03 121.53 280.55 122.49 278.16 123.13C274.32 124.16 269.53 124.85 266.93 128.36C264.14 132.14 266.39 136.17 268.1 139.9C269.8 143.6 271.09 146.16 274.04 148.86C274.84 152 276.46 156.16 277.3 159.3C277.74 160.93 277.83 162.26 279.56 162.57C281.61 162.96 287.4 163.04 289.43 162.73C291.6 162.39 296.34 161.19 298.68 160.08C299.15 159.85 299.52 159.63 299.76 159.42C299.77 159.4 299.8 159.39 299.82 159.37C300.76 158.5 300.68 157.3 300.48 156.07L300.49 156.07Z" fill="#C6F432" fill-opacity="1.000000" fill-rule="nonzero"/>
		<path id="Vector" d="M299.82 159.37C299.82 159.37 299.78 159.4 299.76 159.42C299.52 159.63 299.16 159.85 298.69 160.07C298.43 158.69 298.13 157.31 297.75 155.96C296.67 152.24 294.51 149.01 293.29 145.35C291.98 141.45 292.59 137.3 290.93 133.49C289.71 130.69 287.88 127.98 287.95 124.79C287.95 124.53 288.29 124.53 288.36 124.75C289.4 128.31 291.52 131.26 292.69 134.74C293.92 138.37 293.39 142.27 294.79 145.91C296.07 149.22 297.95 152.24 298.94 155.69C299.3 156.89 299.58 158.12 299.82 159.37L299.82 159.37Z" fill="#65810A" fill-opacity="1.000000" fill-rule="nonzero"/>
		<path id="Vector" d="M294.74 138.1C294.48 138.44 292.73 140.2 292.21 140.84C292.09 140.99 291.87 140.99 291.75 140.83C291.38 140.32 290.97 139.84 290.54 139.4C289.65 138.46 288.64 137.65 287.5 137.02C285.77 136.06 283.81 135.93 282.09 135.03C279.39 133.61 277.36 129.56 276.66 126.62C276.58 126.32 277.02 126.11 277.14 126.4C277.34 126.88 277.57 127.34 277.82 127.79C278.81 126.8 280.45 127.4 281.44 128.37C282.5 129.4 283.01 130.92 284.3 131.72C285.59 132.52 287.25 132.56 288.64 133.09C290.54 133.8 292.27 134.99 293.63 136.56C293.8 136.76 293.97 136.97 294.14 137.19C294.4 137.53 294.59 137.82 294.73 138.1L294.74 138.1Z" fill="#FF6699" fill-opacity="1.000000" fill-rule="nonzero"/>
		<path id="Vector" d="M293.5 135.72C293.34 135.52 293.17 135.33 293.01 135.14C292.58 135.43 292.18 135.77 291.8 136.1C291.22 136.59 290.55 137.14 290.02 137.76C290.44 138.17 290.83 138.61 291.19 139.08C291.31 139.22 291.52 139.22 291.64 139.09C292.13 138.5 293.82 136.87 294.07 136.57C293.94 136.32 293.75 136.04 293.5 135.73L293.5 135.72Z" fill="#FFFFFF" fill-opacity="1.000000" fill-rule="nonzero"/>
		<path id="Vector" d="M274.05 148.87C274.06 148.42 274.09 147.96 274.14 147.5C274.54 143.77 275.02 140.43 273.92 136.74C272.85 133.17 270.92 129.89 270.97 126.05C270.97 125.69 270.72 125.45 270.4 125.4C265.16 124.67 259.91 124.22 254.64 124.06C254.68 123.1 254.73 122.15 254.78 121.19C254.8 120.65 254.08 120.66 253.99 121.16C252.78 128.74 252.59 135.32 252.24 142.94C252.07 146.71 252.23 151.37 252.11 155.14C252.06 156.88 251.16 160.31 251.88 161.28C252.59 162.25 259.71 163.23 262.51 163.5C265.67 163.79 269.16 163.89 272.26 163.15C274.6 162.59 274.52 160.48 274.53 158.34L274.53 158.05C274.57 155.03 273.96 151.89 274.05 148.87L274.05 148.87Z" fill="#C6F432" fill-opacity="1.000000" fill-rule="nonzero"/>
		<path id="Vector" d="M295.49 123.99C294.41 118.97 293.06 114.03 291.96 109.02C291.75 108.13 291.56 107.24 291.38 106.35C290.8 103.51 290.57 100.58 289.95 97.77C289.31 94.95 288.36 92.24 287.98 89.36C287.42 85.06 286.56 78.77 281.86 76.61C279.21 75.4 276.63 74.69 273.88 75.03C270.12 75.5 266.1 75.91 262.45 77.01C257.64 76.59 257.84 76.72 254.91 76.88C250.2 77.15 248.21 80.74 248.43 84.3C248.76 89.47 249.66 107.81 249.89 109.34C249.97 109.85 250.04 110.37 250.1 110.87C250.26 112.09 250.39 113.3 250.51 114.53C250.7 116.5 251.26 123.02 251.25 124.33C251.24 124.92 251.14 125.56 251.43 126.1C251.69 126.58 253.34 127.09 253.96 127.33C253.97 127.34 253.97 127.35 253.98 127.35C260.06 129.93 267.76 130.92 274.31 130.13C277.99 129.68 281.66 129.26 285.33 128.78C287.43 128.51 289.53 128.28 291.6 127.81C292.62 127.57 293.65 127.29 294.62 126.87C295.35 126.54 295.64 126.18 295.71 125.71C295.78 125.26 295.65 124.71 295.49 123.99L295.49 123.99Z" fill="#FBFBFB" fill-opacity="1.000000" fill-rule="nonzero"/>
		<path id="Vector" d="M259.83 89.25C259.83 89.25 257.75 98.15 259.83 100.02C261.91 101.9 263.74 90.45 263.74 90.45L262.04 86.57L259.83 89.25Z" fill="#211E33" fill-opacity="1.000000" fill-rule="nonzero"/>
		<path id="Vector" d="M275.95 47.76C275.95 47.76 275.92 47.73 275.91 47.71C275.8 47.57 275.75 47.4 275.71 47.22C275.49 46.35 275.4 45.35 274.71 44.77C274.29 44.42 273.71 44.29 273.3 43.93C272.88 43.56 272.7 43 272.45 42.49C271.81 41.21 270.62 40.22 269.25 39.82C267.88 39.41 266.34 39.6 265.11 40.33C264.2 39.2 262.71 38.54 261.25 38.65C259.8 38.76 258.42 39.62 257.69 40.88C255.38 39.92 252.41 41.22 251.55 43.56C251.35 44.1 251.26 44.68 251.05 45.22C250.65 46.27 249.86 47.16 249.55 48.24C248.96 50.25 250.52 52.61 252.61 52.86C252.88 52.89 253.16 52.89 253.4 52.78C253.63 52.67 253.8 52.48 253.99 52.32C254.8 51.65 255.99 51.58 256.97 51.96C257.95 52.35 258.72 53.14 259.27 54.03C260.43 55.89 260.72 58.13 261.13 60.29C261.52 62.3 262.11 64.61 263.71 66.03C265.38 67.51 268.25 68.18 270.41 68.5C271.72 68.69 273.09 68.74 274.33 68.28C275.63 67.81 275.01 68.75 276 67.78C280.67 63.22 281.87 56.86 280.19 52.38C279.56 50.7 278.17 48.93 276.56 48.14C276.35 48.03 276.12 47.94 275.96 47.76L275.95 47.76Z" fill="#4A2B2A" fill-opacity="1.000000" fill-rule="nonzero"/>
		<path id="Vector" d="M261.63 72.5L263.38 78.12L264.2 80.78L274.09 77.42L271.07 68.98L268.89 69.79L261.63 72.5Z" fill="#FCC49A" fill-opacity="1.000000" fill-rule="nonzero"/>
		<path id="Vector" d="M261.63 72.5L263.38 78.12C264.7 78.18 266.11 77.38 266.93 76.41C268.36 74.71 269 72.05 268.89 69.79L261.63 72.5Z" fill="#D16847" fill-opacity="1.000000" fill-rule="nonzero"/>
		<path id="Vector" d="M271.86 49.61C268.37 47.62 265.06 47.21 261.21 47.74C258.7 48.08 255.86 48.44 253.83 50.11C252.02 51.59 251.75 52.63 251.12 54.83C249.62 60.1 248.81 66.4 251.89 71.15C255.2 76.23 263.03 76.42 268.49 73.53C274.64 70.27 277.54 66.08 277.32 59.22C277.2 55.3 275.57 51.72 271.86 49.61L271.86 49.61Z" fill="#FCC49A" fill-opacity="1.000000" fill-rule="nonzero"/>
		<path id="Vector" d="M264.17 58.96C263.94 58.52 263.51 58.28 262.93 58.7C262.61 58.93 262.43 59.3 262.29 59.66C262.17 59.99 262.08 60.32 262.1 60.66C262.13 61.01 262.29 61.35 262.59 61.52C263 61.74 263.54 61.57 263.84 61.22C264.16 60.87 264.27 60.4 264.34 59.94C264.38 59.62 264.32 59.24 264.17 58.96L264.17 58.96Z" fill="#211E33" fill-opacity="1.000000" fill-rule="nonzero"/>
		<path id="Vector" d="M254.22 58.19C254 57.78 253.6 57.55 253.05 57.95C252.75 58.16 252.58 58.51 252.45 58.86C252.33 59.16 252.24 59.48 252.27 59.81C252.29 60.13 252.44 60.46 252.73 60.61C253.11 60.82 253.62 60.65 253.91 60.33C254.2 59.99 254.31 59.54 254.37 59.12C254.41 58.81 254.36 58.46 254.22 58.19Z" fill="#211E33" fill-opacity="1.000000" fill-rule="nonzero"/>
		<path id="Vector" d="M257.84 60.05C257.79 59.91 257.68 59.85 257.53 59.88C256.81 59.98 256.31 61.04 256.04 61.64C255.76 62.25 255.72 63.01 256.24 63.51C256.6 63.85 257.37 63.51 257.15 62.98C256.68 61.87 258.22 61.13 257.84 60.06L257.84 60.05Z" fill="#D16847" fill-opacity="1.000000" fill-rule="nonzero"/>
		<path id="Vector" d="M266.66 55.94C266.57 55.74 266.44 55.55 266.28 55.4C265.96 55.08 265.55 54.87 265.14 54.7C264.62 54.49 264.07 54.32 263.5 54.37C262.94 54.41 262.38 54.68 262.1 55.17C261.13 56.9 263.76 57.04 264.69 57.31C265.14 57.45 265.58 57.7 266.04 57.59C266.47 57.48 266.77 57.04 266.8 56.59C266.81 56.37 266.75 56.14 266.66 55.94L266.66 55.94Z" fill="#4A2B2A" fill-opacity="1.000000" fill-rule="nonzero"/>
		<path id="Vector" d="M252.3 53.88C252.45 53.72 252.65 53.6 252.84 53.5C253.25 53.32 253.71 53.26 254.15 53.24C254.71 53.22 255.29 53.25 255.81 53.48C256.32 53.71 256.76 54.16 256.85 54.71C257.16 56.67 254.65 55.89 253.68 55.84C253.22 55.82 252.71 55.9 252.32 55.64C251.95 55.4 251.82 54.88 251.95 54.45C252.02 54.23 252.15 54.04 252.31 53.88L252.3 53.88Z" fill="#4A2B2A" fill-opacity="1.000000" fill-rule="nonzero"/>
		<path id="Vector" d="M260.09 65.24C259.71 64.88 255.69 64.88 255.43 64.82C255.23 64.78 255.04 64.91 255.04 65.12C255.04 66.2 255.29 67.06 256.2 67.66C257.1 68.25 258.32 68.08 259.17 67.48C259.77 67.05 260.86 65.98 260.09 65.24Z" fill="#FFFFFF" fill-opacity="1.000000" fill-rule="nonzero"/>
		<path id="Vector" d="M271.2 48.05C268.3 46.56 265.06 46.67 261.89 46.89C259.08 47.08 255.86 47.32 253.64 49.22C253.52 49.32 253.56 49.47 253.64 49.56C253.59 49.58 253.54 49.59 253.49 49.61C253.22 49.69 253.33 50.09 253.6 50.03C257.09 49.29 260.53 49.31 263.99 50.23C265.57 50.66 267.23 51.19 268.68 51.96C270.95 53.18 270.93 54.96 271.03 57.18C271.06 58.13 271.26 59.06 271.66 59.92C272.04 60.76 272.63 61.52 272.84 62.43C273.11 63.61 272.72 64.75 272.5 65.89C272.35 66.74 272.49 70.95 272.49 70.95C272.49 70.95 275.42 68.54 275.84 67.99C278.16 64.93 277.78 62.77 278.08 60.12C278.69 54.67 276.02 50.51 271.2 48.04L271.2 48.05Z" fill="#4A2B2A" fill-opacity="1.000000" fill-rule="nonzero"/>
		<path id="Vector" d="M273.03 58.48C271.66 58.41 269.73 60.09 269.78 62C269.4 63.9 269.44 66.34 271.25 66.81C273 67.25 275.01 65.2 275.35 63.1C275.66 61.15 274.79 58.57 273.03 58.48Z" fill="#FCC49A" fill-opacity="1.000000" fill-rule="nonzero"/>
		<path id="Vector" d="M272.15 63.74C272.04 63.43 272.17 63.3 272.34 63.03C272.58 62.64 272.75 62.25 272.57 61.79C272.45 61.48 271.94 61.4 271.85 61.79C271.73 62.39 271.2 62.79 271.1 63.38C271.02 63.85 271.33 64.42 271.62 64.78C271.93 65.17 272.46 64.74 272.38 64.35C272.34 64.12 272.22 63.96 272.15 63.74L272.15 63.74Z" fill="#D16847" fill-opacity="1.000000" fill-rule="nonzero"/>
		<path id="Vector" d="M275.68 48.12C274.64 47.9 273.2 48.46 272.24 48.79C271.07 49.2 270.46 49.85 269.55 50.63C269.29 50.87 269.57 51.3 269.89 51.21C270.78 50.95 271.46 50.28 272.35 49.97C272.87 49.79 273.4 49.65 273.93 49.53C274.13 49.48 275.16 49.15 275.3 49.23C275.66 49.44 276.09 49.17 276.11 48.77L276.11 48.68C276.12 48.44 275.92 48.17 275.68 48.12L275.68 48.12Z" fill="#2B1616" fill-opacity="1.000000" fill-rule="nonzero"/>
		<path id="Vector" d="M258.87 47.66C258.62 46.7 258.02 45.89 257.96 44.87C257.91 43.81 258.36 42.83 258.41 41.79C258.43 41.49 258.04 41.43 257.89 41.64C256.6 43.48 256.69 46.36 258.3 47.98C258.54 48.22 258.95 47.98 258.87 47.66L258.87 47.66Z" fill="#2B1616" fill-opacity="1.000000" fill-rule="nonzero"/>
		<path id="Vector" d="M259.85 46.22C259.53 45.3 259.71 44.16 259.7 43.19C259.7 42.88 259.26 42.83 259.17 43.12C258.82 44.2 258.58 45.53 258.94 46.64C259.25 47.58 259.95 48.79 260.91 49.14C261.15 49.23 261.35 48.97 261.3 48.75C261.07 47.79 260.17 47.17 259.85 46.23L259.85 46.22Z" fill="#2B1616" fill-opacity="1.000000" fill-rule="nonzero"/>
		<path id="Vector" d="M254.38 48.58C254.1 48.02 253.84 47.69 253.84 47.01C253.84 46.39 254.17 45.86 254.18 45.26C254.18 44.98 253.82 44.71 253.57 44.9C252.85 45.46 252.77 46.65 252.92 47.49C253.02 48.11 253.42 49.16 254.24 48.94C254.4 48.89 254.45 48.72 254.38 48.58Z" fill="#2B1616" fill-opacity="1.000000" fill-rule="nonzero"/>
		<path id="Vector" d="M265.29 62.54C265.13 62.34 264.88 62.22 264.64 62.37C264.47 62.47 264.38 62.59 264.34 62.75C264.27 62.89 264.25 63.07 264.32 63.23C264.45 63.55 264.77 63.63 265.09 63.57C265.23 63.55 265.39 63.39 265.42 63.25C265.46 62.99 265.45 62.75 265.29 62.54Z" fill="#D16847" fill-opacity="1.000000" fill-rule="nonzero"/>
		<path id="Vector" d="M267.83 62.82C267.83 62.82 267.83 62.81 267.83 62.81C267.83 62.77 267.83 62.72 267.83 62.67C267.8 62.38 267.56 62.16 267.26 62.24C266.72 62.37 266.56 63.12 267.13 63.33C267.23 63.37 267.31 63.37 267.38 63.37C267.41 63.37 267.44 63.36 267.47 63.35C267.5 63.35 267.52 63.34 267.55 63.32C267.58 63.31 267.61 63.3 267.64 63.28C267.65 63.27 267.66 63.25 267.68 63.24C267.71 63.21 267.74 63.18 267.76 63.14C267.76 63.13 267.77 63.11 267.78 63.1C267.78 63.08 267.8 63.06 267.8 63.04C267.8 63.03 267.8 63.02 267.8 63.01C267.82 62.97 267.82 62.92 267.82 62.88C267.82 62.86 267.82 62.83 267.83 62.81L267.83 62.82Z" fill="#D16847" fill-opacity="1.000000" fill-rule="nonzero"/>
		<path id="Vector" d="M266.45 64.42C266.19 64.18 265.64 64.24 265.58 64.65C265.56 64.68 265.55 64.7 265.54 64.73C265.47 64.91 265.48 65.04 265.54 65.22C265.6 65.43 265.8 65.61 266.03 65.6C266.66 65.56 266.93 64.86 266.45 64.42L266.45 64.42Z" fill="#D16847" fill-opacity="1.000000" fill-rule="nonzero"/>
		<path id="Vector" d="M250.78 60.9C250.7 60.89 250.6 60.93 250.52 60.98C250.51 60.99 250.5 60.99 250.49 61C250.23 61.16 250.12 61.53 250.33 61.81C250.57 62.14 251.1 62.15 251.31 61.78C251.56 61.34 251.21 60.95 250.78 60.9L250.78 60.9Z" fill="#D16847" fill-opacity="1.000000" fill-rule="nonzero"/>
		<path id="Vector" d="M252.35 62.01C252.31 62.08 252.27 62.16 252.24 62.26C252.13 62.62 252.57 63.01 252.91 62.77C253.09 62.65 253.16 62.55 253.23 62.36C253.43 61.82 252.56 61.54 252.35 62.01Z" fill="#D16847" fill-opacity="1.000000" fill-rule="nonzero"/>
		<path id="Vector" d="M251.39 63.39C251.39 63.5 251.35 63.6 251.28 63.68C250.85 64.2 250.04 63.55 250.46 63.02C250.63 62.81 250.99 62.77 251.2 62.95C251.33 63.05 251.39 63.22 251.39 63.39Z" fill="#D16847" fill-opacity="1.000000" fill-rule="nonzero"/>
		<path id="Vector" d="M275.52 77.35C275.55 77.25 275.54 77.14 275.48 77.03C275.46 76.99 275.44 76.96 275.42 76.92C275.34 76.67 276.03 76.62 275.86 76.43C275.44 75.65 274.48 74.4 273.88 73.95C273.35 73.55 273.11 73.62 272.89 74.08C272.58 74.78 271.91 75.3 271.29 75.71C270.19 76.42 268.93 76.9 267.65 77.16C264.82 77.74 263.61 76.78 262.73 76.25C262.28 75.99 261.79 76.39 261.64 76.89C261.29 78.11 260.79 80.21 261.28 81C263.12 83.96 269.76 82.93 272.25 81.96C273.61 81.43 274.97 80.87 275.39 79.35C275.54 78.8 275.63 78.03 275.52 77.35L275.52 77.35Z" fill="#FBFBFB" fill-opacity="1.000000" fill-rule="nonzero"/>
		<path id="Vector" d="M256.41 97.31C256.13 93.42 253.57 89.64 254.51 85.78C255.2 82.99 257.72 77.25 257.65 76.97C257.28 75.39 251.67 78 251.1 78.29C247.55 80.07 237.47 84.11 237.47 84.11C237.47 84.11 238.07 99.45 238.81 102.97C238.95 103.71 239.09 104.5 239.49 105.14C239.8 105.63 240.26 105.96 240.76 106.2C240.91 106.27 241.07 106.35 241.23 106.4C242.09 106.74 242.9 106.72 243.81 106.67C244.3 106.64 244.8 106.61 245.27 106.46C245.83 106.28 246.38 106.04 246.94 105.88C248.37 105.46 251.6 105.75 252.95 106.35C255.26 107.37 257.1 107.41 258.9 105.37C260.83 103.19 256.62 100.13 256.4 97.31L256.41 97.31Z" fill="#FBFBFB" fill-opacity="1.000000" fill-rule="nonzero"/>
		<path id="Vector" d="M242.13 102.25C242.2 104.2 241.97 105.75 240.76 106.2C240.27 105.96 239.81 105.63 239.5 105.14C239.1 104.5 238.49 102.75 238.34 102.02C238.11 100.89 237.6 97.96 237.4 95.29C237 89.65 237.47 84.11 237.47 84.11C237.47 84.12 237.48 84.12 237.48 84.12C237.61 84.49 239.91 90.94 241.41 96.22C242.12 98.72 242.08 101.03 242.13 102.25Z" fill="#211E33" fill-opacity="1.000000" fill-rule="nonzero"/>
		<path id="Vector" d="M240.25 71.39C240.25 71.39 249.46 82.72 252.98 85.68C256.5 88.64 263.74 90.46 263.74 90.46L264.91 82.22C265.06 81.17 264.52 80.14 263.57 79.68C261.43 78.64 257.78 76.85 256.54 76.25C254.76 75.37 245.47 67.52 245.47 67.52L240.25 71.4L240.25 71.39Z" fill="#FCC49A" fill-opacity="1.000000" fill-rule="nonzero"/>
		<path id="Vector" d="M241.16 95.37C240.91 95.43 240.64 95.49 240.36 95.56C239.62 95.72 238.88 95.85 238.16 95.93L238.13 95.93C233.07 96.48 230.48 95.19 227.58 90.82C224.79 86.63 219.8 74.71 219.8 74.71L224.85 71.21L235.2 84.82L237.48 84.11C237.48 84.11 239.76 90.45 241.16 95.37Z" fill="#FCC49A" fill-opacity="1.000000" fill-rule="nonzero"/>
		<path id="Vector" d="M225.87 69.47C225.73 68.56 225.55 67.66 225.38 66.75C225.28 66.18 225.31 65.04 224.9 64.59C224.57 64.23 224.25 64.25 223.86 64.5C222.76 65.2 223.3 66.6 223.03 67.64C221.62 65.78 220.62 62.76 218.05 62.53C217.79 62.5 217.6 62.76 217.59 62.99C217.57 63.55 217.84 64.03 218.18 64.49C217.92 64.37 217.66 64.27 217.4 64.2C216.67 63.98 215.51 63.68 214.94 64.35C214.59 64.76 214.65 65.14 214.88 65.46C214.49 65.69 214.25 66.11 214.34 66.6C214.48 67.39 215.37 67.88 215.88 68.42C216.24 68.81 216.54 69.23 216.84 69.66C216.33 69.39 215.75 69.29 215.16 69.46C215 69.51 214.83 69.65 214.8 69.83C214.6 71.03 216.04 71.82 216.81 72.57C217.8 73.51 218.71 75.35 220.14 75.69C221.38 75.99 223.72 74.79 224.67 73.34C224.67 73.47 224.67 73.6 224.67 73.73C224.69 74.08 225.26 74.2 225.33 73.82C225.6 72.28 226.11 71.06 225.87 69.47L225.87 69.47Z" fill="#FCC49A" fill-opacity="1.000000" fill-rule="nonzero"/>
		<path id="Vector" d="M222.71 69.86C222.97 69.31 223.42 68.6 222.86 68.12C222.79 68.05 222.67 68.04 222.6 68.12C222.27 68.47 222.12 68.95 221.9 69.38C221.65 69.85 221.39 70.32 221.24 70.83C221.01 71.61 221 72.69 221.69 73.22C222 73.46 222.52 73.26 222.39 72.82C222.25 72.32 222.06 71.9 222.15 71.36C222.24 70.83 222.49 70.34 222.71 69.86L222.71 69.86Z" fill="#D16847" fill-opacity="1.000000" fill-rule="nonzero"/>
		<path id="Vector" d="M220.58 67.01C220.48 66.43 220.01 65.89 219.65 65.45C219.37 65.11 218.89 64.5 218.39 64.52C218.28 64.52 218.19 64.6 218.15 64.7C218.01 65.15 218.55 65.63 218.81 65.95C219.18 66.41 219.44 67.01 219.87 67.42C220.19 67.74 220.66 67.41 220.58 67.01Z" fill="#D16847" fill-opacity="1.000000" fill-rule="nonzero"/>
		<path id="Vector" d="M219.16 68.23C219.01 67.43 218.21 66.61 217.61 66.1C217.05 65.62 216.16 64.9 215.38 64.97C215.11 65 214.97 65.3 215.16 65.51C215.64 66.06 216.49 66.31 217.04 66.82C217.63 67.35 217.96 68.07 218.51 68.61C218.8 68.9 219.22 68.6 219.16 68.23Z" fill="#D16847" fill-opacity="1.000000" fill-rule="nonzero"/>
		<path id="Vector" d="M217.36 69.61C216.98 69.52 216.71 69.98 216.98 70.26C217.11 70.39 217.26 70.51 217.38 70.65C217.51 70.8 217.59 70.95 217.77 71.04C218.05 71.16 218.36 71.01 218.38 70.69C218.4 70.19 217.81 69.72 217.36 69.61Z" fill="#D16847" fill-opacity="1.000000" fill-rule="nonzero"/>
		<path id="Vector" d="M245.93 66.08C245.88 65.31 245.94 63.25 245.44 61.96C245.39 61.62 245.3 61.28 245.22 60.94C245.04 60.16 244.45 59.43 243.58 59.79C243.44 59.08 243.01 58.32 242.35 57.96C241.89 57.72 241.32 57.71 240.93 58.09C240.87 58.04 240.82 57.98 240.75 57.94C240.24 57.61 239.6 57.58 239.14 58.02C239.02 58.13 238.94 58.26 238.88 58.39C238.38 58.17 237.8 58.22 237.51 58.75C237.27 59.19 237.51 59.84 237.56 60.3C237.65 61.04 237.74 61.78 237.85 62.52C237.9 62.83 237.93 63.5 238.02 64.15C237.74 63.84 237.43 63.59 237.13 63.48C236.19 63.17 235.82 64.09 236.01 64.84C236.27 65.9 236.87 67 237.27 68.01C237.6 68.83 237.91 69.7 238.39 70.44C239.02 71.39 239.99 72.07 241.11 71.84C242.19 72.54 243.62 72.49 244.69 71.61C246.25 70.33 246.04 67.87 245.93 66.08L245.93 66.08Z" fill="#FCC49A" fill-opacity="1.000000" fill-rule="nonzero"/>
		<path id="Vector" d="M240.69 66.94C240.07 66.56 239.77 66.25 239.38 65.61C239.06 65.07 238.75 64.51 238.26 64.11C238.13 64.01 237.85 64.06 237.88 64.27C238 65.21 238.58 66.35 239.22 67.04C239.53 67.38 239.94 67.55 240.33 67.8C240.85 68.14 241.07 68.63 241.49 69.04C241.66 69.2 242.02 69.16 242.06 68.89C242.19 67.99 241.39 67.36 240.69 66.93L240.69 66.94Z" fill="#D16847" fill-opacity="1.000000" fill-rule="nonzero"/>
		<path id="Vector" d="M240.04 60.8C239.9 60.11 239.8 59 239.09 58.66C238.98 58.6 238.85 58.65 238.82 58.77C238.61 59.42 238.95 60.22 239.08 60.87C239.26 61.8 239.26 62.84 239.6 63.71C239.72 64.01 240.23 64.1 240.31 63.71C240.49 62.79 240.22 61.71 240.04 60.79L240.04 60.8Z" fill="#D16847" fill-opacity="1.000000" fill-rule="nonzero"/>
		<path id="Vector" d="M242.42 61.27C242.15 60.21 241.81 59.12 241.09 58.28C240.96 58.13 240.65 58.25 240.67 58.46C240.8 59.51 241.22 60.5 241.48 61.53C241.73 62.56 241.73 63.68 242.16 64.65C242.28 64.93 242.73 64.84 242.79 64.57C243.04 63.53 242.68 62.29 242.42 61.27L242.42 61.27Z" fill="#D16847" fill-opacity="1.000000" fill-rule="nonzero"/>
		<path id="Vector" d="M244.39 62.04C244.29 61.42 244.17 60.5 243.54 60.21C243.46 60.17 243.35 60.18 243.31 60.27C243.03 60.8 243.3 61.48 243.39 62.04C243.51 62.74 243.38 63.57 243.7 64.21C243.83 64.46 244.2 64.44 244.33 64.21C244.7 63.58 244.51 62.72 244.39 62.04Z" fill="#D16847" fill-opacity="1.000000" fill-rule="nonzero"/>
		<path id="Vector" d="M281.2 80.58C279.7 78.64 276.94 78.58 274.7 78.67C271.54 78.79 268.15 78.76 265.07 79.54C264.73 79.62 264.85 80.06 265.14 80.09C270.31 80.78 275.94 78.47 280.64 81.32C281.13 81.62 281.51 80.98 281.21 80.59L281.2 80.58Z" fill="#424242" fill-opacity="1.000000" fill-rule="nonzero"/>
		<path id="Vector" d="M281.49 104.26C277.95 105.06 275.56 101.9 272.17 101.63C268.51 101.34 264.85 101.67 261.5 99.82C261.36 99.74 261.25 99.89 261.3 100.02C261.9 101.39 263.6 101.8 264.94 102.15C267.03 102.7 269.06 102.72 271.19 102.75C271.74 102.76 272.25 102.84 272.73 102.95C272.82 103.5 273.18 104.11 273.4 104.47C273.93 105.35 274.73 106.61 275.82 106.77C276.03 106.81 276.28 106.64 276.2 106.39C275.95 105.66 275.33 105.23 274.84 104.65C274.52 104.26 274.07 103.77 273.74 103.25C275.02 103.73 276.17 104.44 277.55 105.03C278.98 105.63 280.46 105.85 281.85 105.12C282.34 104.87 281.99 104.15 281.49 104.26Z" fill="#424242" fill-opacity="1.000000" fill-rule="nonzero"/>
		<path id="Vector" d="M249.97 104.63C249.63 103.33 249.55 102.04 249.33 100.72C249.13 99.49 248.55 98.38 248.3 97.17C247.98 95.65 248.47 94.13 248.22 92.62C248.01 91.35 247.15 90.36 247 89.06C246.94 88.58 246.22 88.39 246.09 88.94C245.8 90.08 246.29 90.65 246.7 91.68C247.42 93.47 246.81 95.07 247.08 96.88C247.28 98.3 248 99.6 248.28 101.01C248.56 102.37 248.56 103.69 249.34 104.9C249.55 105.22 250.08 105.02 249.97 104.63L249.97 104.63Z" fill="#424242" fill-opacity="1.000000" fill-rule="nonzero"/>
		<path id="Vector" d="M274.53 158.05L274.53 158.34C273.31 157.06 271.29 154.49 271.92 151.97C272.81 148.4 270.76 148.11 269.16 143.52C267.56 138.94 270.76 137.49 271.18 140.46C271.59 143.45 274.05 148.83 274.05 148.83L274.05 148.87C273.97 151.89 274.57 155.03 274.53 158.05Z" fill="#65810A" fill-opacity="1.000000" fill-rule="nonzero"/>
		<path id="Vector" d="M262.51 191.7C262.5 192.22 262.45 192.75 262.36 193.26C262.35 193.37 262.33 193.47 262.31 193.57C262.06 194.89 261.96 195.21 260.71 195.49C259.37 195.77 258.01 195.99 256.64 196.15C253.91 196.45 251.14 196.5 248.4 196.26C246.94 196.12 244.69 195.72 244.71 194.06C244.71 193.69 244.79 193.31 244.86 192.93C244.93 192.52 245.02 192.12 245.18 191.75C245.34 191.33 245.57 190.95 245.91 190.65C246.67 189.97 247.67 189.34 248.66 188.7C249.15 188.4 249.63 188.1 250.08 187.79C250.47 187.53 250.85 187.27 251.19 186.98C251.39 186.83 251.58 186.67 251.76 186.5C251.76 186.32 251.77 186.14 251.79 185.96C251.8 185.64 251.85 185.32 251.93 185.02C252.2 184.06 253.11 183.68 254.02 183.62C255.65 183.51 257.81 183.94 258.32 185.45C259.14 185.58 259.91 185.63 260.8 185.6C261.44 185.59 262.25 185.71 262.41 186.44C262.57 187.1 262.47 187.07 262.36 187.73C262.33 187.86 262.31 188 262.28 188.13C262.45 189.31 262.56 190.51 262.51 191.71L262.51 191.7Z" fill="#9F99BA" fill-opacity="1.000000" fill-rule="nonzero"/>
		<path id="Vector" d="M304.14 192.78C304.14 192.78 304.13 192.75 304.12 192.74C303.96 192.3 303.75 191.87 303.52 191.44C303.13 190.67 300.1 186.89 299.81 185.55C299.64 184.77 299.57 183.86 298.9 183.41C298.42 183.09 297.78 183.15 297.2 183.21C296.5 183.3 295.79 183.39 295.08 183.48C294.38 183.56 293.67 183.64 293.04 183.97C292.4 184.28 291.86 184.87 291.82 185.58C291.52 185.33 291.03 185.55 290.88 185.9C290.72 186.26 290.79 186.66 290.85 187.05C291.16 188.73 291.32 190.45 291.32 192.17C291.34 192.4 291.34 192.63 291.34 192.85C291.34 193.08 291.32 193.28 291.34 193.48C291.37 194.33 291.54 195.1 292.25 195.67C293.22 196.45 294.45 196.88 295.66 197.11C297.96 197.53 300.45 197.46 302.69 196.75C303.47 196.49 304.07 196.24 304.32 195.4C304.44 194.99 304.47 194.6 304.45 194.22C304.43 193.72 304.31 193.24 304.13 192.78L304.14 192.78Z" fill="#9F99BA" fill-opacity="1.000000" fill-rule="nonzero"/>
		<path id="Vector" d="M295.49 123.99C294.41 118.97 293.06 114.03 291.96 109.02C290.66 109.13 289.39 109.48 288.23 110.1C285.75 111.4 284.15 114.28 281.37 114.97C278.48 115.67 275.66 113.61 273.04 112.74C270.78 111.98 268.69 112.09 266.64 113.35C263.92 115.01 261.79 117.32 258.57 115.09C256.39 113.57 254.78 111.64 252.06 111.06C251.41 110.93 250.75 110.86 250.1 110.87C250.26 112.08 250.39 113.29 250.51 114.52C250.7 116.5 251.26 123.01 251.25 124.32C251.24 124.91 251.14 125.55 251.43 126.09C251.69 126.57 253.34 127.09 253.96 127.33C253.97 127.34 253.97 127.34 253.98 127.34C260.06 129.93 267.76 130.92 274.31 130.12C277.99 129.68 281.66 129.25 285.33 128.78C287.43 128.5 289.53 128.27 291.6 127.8C292.62 127.57 293.65 127.29 294.62 126.86C295.35 126.53 295.64 126.17 295.71 125.71C295.78 125.26 295.65 124.71 295.49 123.99Z" fill="#00679D" fill-opacity="1.000000" fill-rule="nonzero"/>
		<path id="Vector" d="M262.51 191.7C262.5 192.22 262.45 192.75 262.36 193.26C258.52 194.62 253.61 194.5 249.99 194.26C248.3 194.15 246.24 194.03 244.86 192.93C244.93 192.52 245.02 192.12 245.18 191.75C247.18 193.6 251.89 193.2 254.37 193.13C257.31 193.03 259.86 192.52 262.51 191.71L262.51 191.7Z" fill="#706891" fill-opacity="1.000000" fill-rule="nonzero"/>
		<path id="Vector" d="M304.46 194.23C302.94 195.21 300.7 195.61 299.24 195.62C297 195.65 294.82 195.06 292.78 194.18C292.3 193.97 291.8 193.76 291.35 193.48C291.34 193.28 291.34 193.07 291.34 192.86C291.34 192.64 291.34 192.4 291.33 192.17C291.67 192.43 292.03 192.65 292.45 192.83C293.69 193.36 295.01 193.84 296.33 194.12C298.96 194.68 302.25 194.66 304.14 192.78C304.31 193.24 304.43 193.72 304.46 194.22L304.46 194.23Z" fill="#706891" fill-opacity="1.000000" fill-rule="nonzero"/>
		<path id="Vector" d="M299.82 185.64C298.58 184.16 294.07 184.99 293.33 186.69C293.23 186.93 293.35 187.21 293.64 187.22C294.49 187.25 295.24 186.68 296.06 186.48C297.01 186.24 298.23 186.08 299.14 186.52C299.72 186.81 300.24 186.13 299.82 185.64L299.82 185.64Z" fill="#FFFFFF" fill-opacity="1.000000" fill-rule="nonzero"/>
		<path id="Vector" d="M300.72 187.99C299.48 186.51 294.98 187.34 294.24 189.04C294.13 189.28 294.25 189.56 294.54 189.57C295.39 189.6 296.14 189.03 296.96 188.83C297.91 188.59 299.13 188.43 300.04 188.88C300.63 189.16 301.14 188.48 300.72 187.99L300.72 187.99Z" fill="#FFFFFF" fill-opacity="1.000000" fill-rule="nonzero"/>
		<path id="Vector" d="M255.91 188.67C254.89 188.58 254.11 187.75 253.12 187.44C252.51 187.23 251.85 187.11 251.19 186.98C251.39 186.82 251.58 186.67 251.76 186.5C251.76 186.32 251.77 186.14 251.79 185.96C252.43 185.97 253.06 186.05 253.69 186.26C254.62 186.56 255.85 187.07 256.31 187.97C256.46 188.25 256.28 188.71 255.91 188.67Z" fill="#FFFFFF" fill-opacity="1.000000" fill-rule="nonzero"/>
		<path id="Vector" d="M253.96 190.49C252.94 190.39 252.15 189.57 251.17 189.26C250.36 189.01 249.51 188.86 248.66 188.7C249.15 188.39 249.63 188.1 250.08 187.78C250.63 187.82 251.19 187.9 251.73 188.08C252.66 188.38 253.89 188.9 254.35 189.8C254.51 190.08 254.33 190.52 253.96 190.49Z" fill="#FFFFFF" fill-opacity="1.000000" fill-rule="nonzero"/>
		<path id="Vector" d="M215.82 36.13C211.62 30.86 204.97 27.34 198.68 25.23C192.1 23.03 185.29 22.55 178.45 23.62C178.14 23.67 178.21 24.22 178.53 24.18C185.06 23.44 191.83 24.23 198.06 26.29C204.71 28.48 209.96 32.31 215.38 36.58C215.7 36.84 216.08 36.46 215.83 36.13L215.82 36.13Z" fill="#FBFBFB" fill-opacity="1.000000" fill-rule="nonzero"/>
		<path id="Vector" d="M225.25 60.57C223.78 57.37 221.54 54.36 219.46 51.52C217.54 48.9 215.47 46.39 213.16 44.1C208.71 39.65 203.54 36.29 197.46 34.56C197.1 34.45 196.96 35 197.31 35.12C203.32 37.18 208.67 41.09 213.03 45.65C215.3 48.03 217.35 50.61 219.26 53.29C221.08 55.84 222.62 58.65 224.57 61.09C224.9 61.5 225.45 60.98 225.25 60.57Z" fill="#FBFBFB" fill-opacity="1.000000" fill-rule="nonzero"/>
	</g>
</svg>
