<svg width="350.000000" height="254.000000" viewBox="0 0 350 254" fill="none" xmlns="http://www.w3.org/2000/svg" xmlns:xlink="http://www.w3.org/1999/xlink">
	<desc>
			Created with Pixso.
	</desc>
	<defs>
		<linearGradient x1="174.999985" y1="0.000000" x2="174.999985" y2="254.000000" id="paint_linear_580_2277_0" gradientUnits="userSpaceOnUse">
			<stop stop-color="#97CAFF"/>
			<stop offset="1.000000" stop-color="#D9EDFF"/>
		</linearGradient>
		<linearGradient x1="174.999985" y1="0.000000" x2="174.999985" y2="254.000000" id="paint_linear_580_2279_0" gradientUnits="userSpaceOnUse">
			<stop stop-color="#9DCDFF"/>
			<stop offset="1.000000" stop-color="#DAEDFF"/>
		</linearGradient>
		<linearGradient x1="316.999969" y1="131.999054" x2="116.999939" y2="281.998993" id="paint_linear_580_2280_0" gradientUnits="userSpaceOnUse">
			<stop offset="0.034837" stop-color="#FF6699"/>
			<stop offset="0.890790" stop-color="#5EA1FF"/>
		</linearGradient>
	</defs>
	<rect id="Rectangle 152" width="350.000000" height="254.000000" fill="url(#paint_linear_580_2277_0)" fill-opacity="1.000000"/>
	<mask id="mask580_2279" mask-type="alpha" maskUnits="userSpaceOnUse" x="0.000000" y="0.000000" width="350.000000" height="254.000000">
		<rect id="Rectangle 153" width="350.000000" height="254.000000" fill="url(#paint_linear_580_2279_0)" fill-opacity="1.000000"/>
	</mask>
	<g mask="url(#mask580_2279)">
		<path id="Vector 2709" d="M400.21 280.18C384.22 236.91 337.02 138.18 276.16 89.42C200.07 28.47 189.94 64.68 221.09 146.11C252.24 227.54 220.99 300.18 166.24 231.89C111.5 163.59 36.51 115.64 48.2 178.84C59.89 242.03 -43.17 265.14 -85.45 229.42" stroke="url(#paint_linear_580_2280_0)" stroke-opacity="0.800000" stroke-width="75.607666" stroke-linecap="round"/>
	</g>
	<g mask="url(#mask580_2279)">
		<path id="Vector" d="M144 175.52C142.74 175.93 141.46 176.37 140.19 176.83C138.61 177.39 135.48 178.58 135.48 178.58C135.48 178.58 135.16 178.89 134.8 178.84C134.8 178.84 134.8 178.84 134.79 178.84C131.83 180 128.98 181.17 126.44 182.24C117.77 185.87 136.07 188.66 139.66 189.17C140.37 189.18 146.54 186.59 152.41 183.46L152.41 183.46C152.57 183.38 152.73 183.29 152.88 183.21C153.91 182.65 154.93 182.08 155.9 181.5C157.82 180.36 159.56 179.21 160.87 178.12C162.93 176.42 163.63 174.78 162.95 173.8C160.82 170.76 152.5 172.74 144 175.52Z" fill="#FCC49A" fill-opacity="1.000000" fill-rule="nonzero"/>
		<path id="Vector" d="M130.12 173.36C128.66 173.52 116.83 175.28 114.82 175.63C105.56 177.25 118.39 185.15 121.78 186.44C122.41 186.6 135.23 181.56 136.8 181.05C138 180.66 139.16 180.25 140.22 179.82C143.83 178.35 146.43 176.61 145.77 174.91C144.55 171.81 138.27 172.47 130.12 173.36Z" fill="#FCC49A" fill-opacity="1.000000" fill-rule="nonzero"/>
		<path id="Vector" d="M139.19 185.14C130.48 188.68 145.96 193.7 149.54 194.26C150.19 194.27 155.2 192.35 160.44 189.77C160.51 189.74 160.4 189.55 160.47 189.52C160.62 189.44 160.95 189.52 161.1 189.44C162.61 188.69 164.12 187.88 165.55 187.06C166.64 186.42 167.69 185.78 168.63 185.13C171.85 182.93 173.25 180.98 173.02 179.17C171.94 170.79 141.08 184.38 139.19 185.14Z" fill="#FCC49A" fill-opacity="1.000000" fill-rule="nonzero"/>
		<path id="Vector" d="M171.46 140.55C167.08 136.65 161.13 134.99 155.41 135.84C155.38 135.84 155.35 135.82 155.36 135.78C156.44 130.11 155.04 124.1 151.32 119.55C142.86 109.19 126 110.91 116.73 122.39C101.55 141.19 108.36 173.64 109.58 178.86C109.69 179.31 110.01 179.65 110.46 179.78C115.63 181.22 147.58 190.29 167.18 174.99C178.81 165.91 181.46 149.44 171.46 140.55Z" fill="#C6F432" fill-opacity="1.000000" fill-rule="nonzero"/>
		<path id="Vector" d="M129.76 123.03C129.71 123.02 129.66 122.98 129.62 122.93C129.52 122.8 129.54 122.6 129.68 122.5C129.84 122.38 133.77 119.44 138.83 120.81C139 120.85 139.09 121.02 139.05 121.18C139 121.35 138.84 121.44 138.67 121.4C133.91 120.11 130.09 122.96 130.05 122.99C129.96 123.05 129.85 123.07 129.76 123.03Z" fill="#2D0E0B" fill-opacity="1.000000" fill-rule="nonzero"/>
		<path id="Vector" d="M174.33 187.78C173.64 188.09 172.27 188.56 170.46 189.11C170.11 189.22 169.75 189.32 169.38 189.43C168.72 189.62 167.29 190.02 167.29 190.02C167.29 190.02 166.99 189.91 166.76 190.16C162.81 191.22 157.94 192.32 153.5 192.97C153.49 192.97 153.48 192.97 153.48 192.97C153.42 192.98 153.37 192.99 153.31 192.99C153.31 193 153.3 193 153.29 193C153.24 193.02 153.18 193.03 153.12 193.04C152.61 193.14 151.88 193.13 151.61 193.63C151.58 193.68 151.56 193.73 151.54 193.78C151.54 193.79 151.54 193.79 151.54 193.79C147.12 196.17 140.55 202.02 136 203.13C131.35 204.27 113.01 203.71 105.28 202.56C101.07 201.93 74.62 199.52 59.54 202.59C56.1 203.29 23.74 214.54 -0.01 220.5L-0.01 166.99C18.94 167.04 44.82 162.35 48.13 161.18C58.9 157.38 66.99 151.5 81.43 148.2C81.58 148.16 81.73 148.13 81.88 148.1C93.79 145.53 95.4 156.82 97.41 160.2C99.25 163.29 101.14 165.21 103.18 166.66C103.36 166.78 103.55 166.91 103.73 167.03C104.75 167.7 105.81 168.27 106.93 168.82C108.5 169.6 115.29 172.22 121.29 174.52C126.07 176.35 130.54 177.61 130.96 177.72C131.12 177.76 131.39 177.87 131.75 178C132.1 178.13 132.55 178.28 133.06 178.4C133.51 178.51 133.93 178.86 134.44 178.98C135.95 179.34 137.61 179.73 138.74 180C138.82 180.02 138.89 180.04 138.97 180.06C139.05 180.08 139.12 180.1 139.2 180.11C139.25 180.13 139.31 180.14 139.36 180.15C139.85 180.27 140.15 180.35 140.15 180.37C143.12 180.9 145.7 181.25 147.11 181.43C147.24 181.45 147.36 181.46 147.48 181.48C147.54 181.49 147.59 181.5 147.65 181.5C147.81 181.52 147.96 181.54 148.11 181.56C148.63 181.62 149.11 181.67 149.55 181.7C149.92 181.73 150.26 181.74 150.55 181.74C150.75 181.74 150.96 181.74 151.2 181.73C151.2 181.73 151.2 181.73 151.21 181.73C152.44 181.7 154.21 181.58 156 181.44C159.46 181.16 163.01 180.81 163.06 180.81C163.06 180.81 163.08 180.8 163.09 180.8C163.32 180.79 163.56 180.77 163.8 180.75C164.49 180.71 165.17 180.69 165.84 180.68L165.84 180.68C167.37 180.68 168.82 180.77 170.11 180.95L170.15 180.95C170.16 180.96 170.18 180.96 170.19 180.96C170.47 181 170.73 181.04 170.99 181.08L171 181.08C171.54 181.18 172.04 181.29 172.5 181.41C172.78 181.49 173.05 181.57 173.3 181.65C173.42 181.69 173.53 181.73 173.64 181.78C173.67 181.79 173.69 181.8 173.72 181.81C173.76 181.82 173.8 181.84 173.85 181.86C173.98 181.92 174.1 181.98 174.22 182.05C174.23 182.05 174.25 182.06 174.26 182.07C174.32 182.1 174.38 182.14 174.44 182.17C176.71 183.56 177.15 186.52 174.33 187.78Z" fill="#FCC49A" fill-opacity="1.000000" fill-rule="nonzero"/>
		<path id="Vector" d="M119.76 191.99C119.75 192.08 119.79 192.16 119.84 192.22C119.9 192.28 119.98 192.32 120.07 192.33C120.26 192.34 139.21 193.33 146.3 193.8C147.65 193.89 149.61 193.9 151.54 193.79C151.54 193.79 151.54 193.79 151.54 193.79C152.18 193.44 152.77 193.17 153.31 192.99C153.37 192.99 153.42 192.98 153.48 192.97C151.04 193.25 148.14 193.27 146.34 193.15C139.25 192.68 120.29 191.69 120.1 191.68C119.92 191.67 119.77 191.81 119.76 191.99Z" fill="#2D0E0B" fill-opacity="1.000000" fill-rule="nonzero"/>
		<path id="Vector" d="M175.61 185.09C175.36 185.09 169.64 185 167.5 187.44C167.1 187.89 166.85 188.41 166.76 188.98C166.7 189.35 166.7 189.73 166.76 190.13C166.76 190.14 166.76 190.15 166.76 190.16C166.94 190.11 167.12 190.07 167.29 190.02C167.16 189.15 167.36 188.42 167.91 187.79C169.88 185.55 175.54 185.63 175.6 185.64C175.75 185.64 175.87 185.52 175.87 185.37C175.88 185.22 175.76 185.1 175.61 185.09Z" fill="#2D0E0B" fill-opacity="1.000000" fill-rule="nonzero"/>
		<path id="Vector" d="M141.23 150.63C136.07 150.63 129.61 150.22 125.17 149.82C120.87 149.44 116.77 148.19 108.26 147.3C76.57 143.98 71.02 153.35 50.06 161.67C42.63 164.62 109.01 180.74 108.72 180.5C101.3 174.8 98.18 170.39 100.05 168.75C106.83 162.8 117.91 164.63 127.37 164.37C136.1 164.13 148.56 161.63 148.96 155.57C149.14 152.98 146.02 150.64 141.23 150.63Z" fill="#FCC49A" fill-opacity="1.000000" fill-rule="nonzero"/>
		<path id="Vector" d="M142.08 150.83C140.45 150.94 138.62 151.31 137.47 152.31C136.95 152.77 136.61 153.31 136.45 153.95C136.38 154.21 136.35 154.48 136.35 154.77C136.33 156.06 136.77 157.1 137.66 157.85C140.17 159.96 145.41 159 145.63 158.96C145.81 158.93 145.92 158.76 145.89 158.58C145.86 158.39 145.69 158.28 145.5 158.31C145.45 158.32 140.36 159.25 138.09 157.34C137.35 156.71 137 155.88 137.01 154.78C137.02 153.97 137.32 153.33 137.91 152.81C138.93 151.92 140.66 151.59 142.2 151.49C142.71 151.39 142.58 150.73 142.08 150.83Z" fill="#2D0E0B" fill-opacity="1.000000" fill-rule="nonzero"/>
		<path id="Vector" d="M136.86 179.74C140.32 180.66 143.62 181.33 146.32 181.54C151.75 181.95 156.78 181.63 161.21 181.35C166.98 180.98 171.55 180.69 174.46 182.16C174.58 182.22 174.73 182.18 174.79 182.06C174.85 181.93 174.8 181.79 174.68 181.73C171.65 180.19 167.03 180.48 161.18 180.86C156.76 181.14 151.76 181.46 146.36 181.05C139.26 180.5 128.01 176.74 120.54 173.68C120.42 173.62 120.27 173.68 120.22 173.81C120.17 173.93 120.23 174.08 120.36 174.13C125.03 176.04 131.17 178.23 136.86 179.74Z" fill="#2D0E0B" fill-opacity="1.000000" fill-rule="nonzero"/>
		<path id="Vector" d="M287.38 129.85C282.39 136.4 261.51 143.45 257.5 144.39C248.1 146.61 208.04 148.75 206.85 140.33C206.82 140.13 206.86 139.93 206.83 139.69C206.56 139.48 206.48 139.71 206.31 139.71C200.64 139.89 196.75 137.94 195.24 135.74C194.87 135.21 194.64 134.67 194.57 134.14C194.48 133.57 194.56 133.02 194.83 132.51C194.88 132.41 194.94 132.31 195.01 132.22C194.83 132.21 194.65 132.19 194.48 132.18C188.2 131.59 186.64 125.96 191.39 124.06C192.62 123.57 195.27 123.03 196.4 122.77L196.39 122.77C195.94 122.72 195.53 122.61 195.16 122.47C191.77 121.15 191.88 116.55 196.81 114.92C205.39 112.09 232.61 109.16 264.94 85.85C265.69 83.72 297.54 116.52 287.38 129.85Z" fill="#FCC49A" fill-opacity="1.000000" fill-rule="nonzero"/>
		<path id="Vector" d="M226.96 125.63C226.82 125.72 223.58 127.96 211.98 128.89C204.9 129.46 196.74 130.38 194.83 132.51C194.88 132.41 194.85 132.37 194.92 132.27C194.74 132.26 194.65 132.19 194.48 132.17C196.12 130.39 201.52 129.24 211.94 128.4C223.35 127.49 226.64 125.25 226.67 125.23C226.78 125.15 226.93 125.17 227.01 125.28C227.09 125.39 227.07 125.55 226.96 125.63Z" fill="#2D0E0B" fill-opacity="1.000000" fill-rule="nonzero"/>
		<path id="Vector" d="M219.07 118.72C218.94 118.81 215.69 121.05 204.09 121.98C201.55 122.19 198.87 122.44 196.39 122.77C195.94 122.71 195.55 122.66 195.16 122.46C197.58 122.1 200.53 121.78 204.05 121.5C215.47 120.58 218.75 118.35 218.78 118.32C218.89 118.24 219.05 118.27 219.13 118.38C219.2 118.49 219.18 118.64 219.07 118.72Z" fill="#2D0E0B" fill-opacity="1.000000" fill-rule="nonzero"/>
		<path id="Vector" d="M350 36L350 99.31C328.05 108.12 306.08 116.46 304.28 117.87C296.95 123.64 290.95 128.13 285.6 131.69C282.16 133.98 279 135.88 275.93 137.49C275.93 137.5 275.92 137.5 275.92 137.5C269.98 140.63 264.41 142.66 257.93 144.28C257.89 144.3 257.85 144.3 257.81 144.31C257.74 144.33 257.67 144.35 257.6 144.37C257.57 144.38 257.54 144.38 257.5 144.39C253.52 127.49 252.49 112.24 252.23 106.22C252.23 106.04 252.22 105.88 252.21 105.72C252.15 104.27 252.15 103.48 252.15 103.48C251.26 103.28 250.45 102.94 249.74 102.48C247.79 101.25 246.52 99.17 246.02 96.74C244.75 90.56 248.46 82.06 258.77 79.08C268.09 76.39 274.2 75.25 279.53 74.37C283.01 73.8 286.15 73.33 289.64 72.61C293.63 71.79 321.66 54.47 350 36Z" fill="#FCC49A" fill-opacity="1.000000" fill-rule="nonzero"/>
		<path id="Vector" d="M213.83 102.33C214 102.28 214 102.3 214.15 102.24C214.2 102.22 214.41 102.1 214.46 102.08C218.55 100.43 221.27 98.78 226.86 95.34C238.89 87.93 244.79 82.27 253.65 78.71C265.66 73.88 278.85 75.16 291.91 73.16C291.91 73.16 259.79 81.39 247.66 106.29C246.88 102.32 236.93 105.65 232.52 108.01C228.9 109.95 221.32 112.31 216.78 112.85C210.8 113.56 206.58 111.75 204.98 108.29C203.93 106.04 211.58 103.03 213.83 102.33Z" fill="#FCC49A" fill-opacity="1.000000" fill-rule="nonzero"/>
		<path id="Vector" d="M214.46 102.08C214.51 102.39 214.53 102.68 214.53 102.97C214.52 104.07 214.18 105.02 213.51 105.81C211.77 107.85 208.22 108.36 205.76 108.45C205.25 108.41 205.33 107.79 205.66 107.78C208.02 107.7 211.43 107.24 213.01 105.37C213.69 104.57 213.97 103.55 213.83 102.33C214.04 102.25 214.26 102.17 214.46 102.08Z" fill="#2D0E0B" fill-opacity="1.000000" fill-rule="nonzero"/>
		<path id="Vector" d="M229.57 109.38C229.61 109.39 229.66 109.38 229.71 109.37L230.21 109.16C234.43 107.44 240.22 105.08 247.97 105.86C254.52 106.51 259.37 106.65 263.27 105.33C267.1 104.04 269.93 101.39 272.76 96.46C272.83 96.35 272.79 96.2 272.67 96.13C272.55 96.06 272.41 96.1 272.34 96.22C269.57 101.03 266.82 103.62 263.12 104.87C259.3 106.16 254.51 106.02 248.02 105.37C240.15 104.58 234.29 106.97 230.02 108.71L229.52 108.91C229.4 108.96 229.34 109.11 229.39 109.23C229.42 109.31 229.49 109.36 229.57 109.38Z" fill="#2D0E0B" fill-opacity="1.000000" fill-rule="nonzero"/>
		<path id="Vector" d="M214.96 137.02C214.96 137.02 207.7 137.84 206.96 140.02C206.21 142.21 211.06 144.1 212.68 144.5C214.29 144.91 214.96 137.02 214.96 137.02Z" fill="#FCC49A" fill-opacity="1.000000" fill-rule="nonzero"/>
		<path id="Vector" d="M207.72 142.75C207.8 142.77 207.89 142.75 207.95 142.68C208.04 142.59 208.04 142.43 207.94 142.34C207.07 141.47 206.75 140.71 206.98 140.07C207.91 137.55 216.82 136.52 224.48 135.9C236.08 134.97 239.32 132.74 239.45 132.64C239.56 132.56 239.59 132.41 239.51 132.3C239.43 132.19 239.28 132.16 239.17 132.24C239.13 132.27 235.85 134.5 224.44 135.42C212.69 136.36 207.33 137.7 206.52 139.9C206.22 140.74 206.58 141.68 207.6 142.69C207.63 142.72 207.68 142.74 207.72 142.75Z" fill="#2D0E0B" fill-opacity="1.000000" fill-rule="nonzero"/>
	</g>
</svg>
