<svg width="10.366455" height="17.647949" viewBox="0 0 10.3665 17.6479" fill="none" xmlns="http://www.w3.org/2000/svg" xmlns:xlink="http://www.w3.org/1999/xlink">
	<desc>
			Created with Pixso.
	</desc>
	<defs/>
	<path id="Vector" d="M10.08 9.51L2.23 17.36C2.05 17.54 1.8 17.64 1.54 17.64C1.29 17.64 1.04 17.54 0.86 17.36L0.29 16.78C-0.09 16.41 -0.09 15.79 0.29 15.42L6.88 8.82L0.28 2.22C0.1 2.04 0 1.8 0 1.54C0 1.28 0.1 1.04 0.28 0.86L0.86 0.28C1.04 0.1 1.28 0 1.54 0C1.8 0 2.04 0.1 2.22 0.28L10.08 8.14C10.26 8.32 10.36 8.56 10.36 8.82C10.36 9.08 10.26 9.32 10.08 9.51Z" fill="#010101" fill-opacity="1.000000" fill-rule="nonzero"/>
</svg>
