<svg width="55.000000" height="55.000000" viewBox="0 0 55 55" fill="none" xmlns="http://www.w3.org/2000/svg" xmlns:xlink="http://www.w3.org/1999/xlink">
	<desc>
			Created with Pixso.
	</desc>
	<defs/>
	<circle id="Ellipse 177" cx="27.500000" cy="27.500000" r="27.499996" transform="rotate(3.05176e-05 27.5 27.5)" fill="#00679D" fill-opacity="1.000000"/>
	<path id="Vector" d="M34.41 28.33L24.84 37.91C24.61 38.13 24.32 38.26 24 38.26C23.69 38.26 23.39 38.13 23.17 37.91L22.47 37.21C22.01 36.75 22.01 36 22.47 35.54L30.51 27.5L22.46 19.45C22.23 19.23 22.11 18.93 22.11 18.62C22.11 18.3 22.23 18 22.46 17.78L23.16 17.08C23.39 16.86 23.68 16.73 23.99 16.73C24.31 16.73 24.61 16.86 24.82 17.08L34.41 26.66C34.64 26.89 34.76 27.18 34.75 27.5C34.76 27.81 34.64 28.11 34.41 28.33Z" fill="#FBFBFB" fill-opacity="1.000000" fill-rule="nonzero"/>
</svg>
