<svg width="16.799561" height="14.000000" viewBox="0 0 16.7996 14" fill="none" xmlns="http://www.w3.org/2000/svg" xmlns:xlink="http://www.w3.org/1999/xlink">
	<desc>
			Created with Pixso.
	</desc>
	<defs/>
	<path id="Vector" d="M16.59 7.49L10.29 13.79C10.16 13.92 9.98 14 9.79 14C9.61 14 9.43 13.92 9.3 13.79C9.17 13.66 9.09 13.48 9.09 13.29C9.09 13.11 9.17 12.93 9.3 12.8L14.4 7.7L0.69 7.7C0.51 7.7 0.33 7.62 0.2 7.49C0.07 7.36 0 7.18 0 7C0 6.81 0.07 6.63 0.2 6.5C0.33 6.37 0.51 6.29 0.69 6.29L14.4 6.29L9.3 1.19C9.17 1.06 9.09 0.88 9.09 0.7C9.09 0.51 9.17 0.33 9.3 0.2C9.43 0.07 9.61 0 9.79 0C9.98 0 10.16 0.07 10.29 0.2L16.59 6.5C16.65 6.56 16.71 6.64 16.74 6.73C16.78 6.81 16.79 6.9 16.79 7C16.79 7.09 16.78 7.18 16.74 7.26C16.71 7.35 16.65 7.43 16.59 7.49Z" fill="#000000" fill-opacity="1.000000" fill-rule="nonzero"/>
	<path id="Vector" d="M10.29 13.79C10.16 13.92 9.98 14 9.79 14C9.61 14 9.43 13.92 9.3 13.79C9.17 13.66 9.09 13.48 9.09 13.29C9.09 13.11 9.17 12.93 9.3 12.8L14.4 7.7L0.69 7.7C0.51 7.7 0.33 7.62 0.2 7.49C0.07 7.36 0 7.18 0 7C0 6.81 0.07 6.63 0.2 6.5C0.33 6.37 0.51 6.29 0.69 6.29L14.4 6.29L9.3 1.19C9.17 1.06 9.09 0.88 9.09 0.7C9.09 0.51 9.17 0.33 9.3 0.2C9.43 0.07 9.61 0 9.79 0C9.98 0 10.16 0.07 10.29 0.2L16.59 6.5C16.65 6.56 16.71 6.64 16.74 6.73C16.78 6.81 16.79 6.9 16.79 7C16.79 7.09 16.78 7.18 16.74 7.26C16.71 7.35 16.65 7.43 16.59 7.49L10.29 13.79Z" stroke="#000000" stroke-opacity="0" stroke-width="1.000000"/>
</svg>
