<svg width="40.000000" height="40.000000" viewBox="0 0 40 40" fill="none" xmlns="http://www.w3.org/2000/svg" xmlns:xlink="http://www.w3.org/1999/xlink">
	<desc>
			Created with Pixso.
	</desc>
	<defs/>
	<circle id="Ellipse 22" r="20.000000" transform="matrix(-1 -8.74228e-08 8.74228e-08 -1 20 20)" fill="#FFFFFF" fill-opacity="1.000000"/>
	<path id="Arrow 4" d="M30.2 19.02L30.22 19C30.78 19 31.22 19.43 31.22 20C31.22 20.56 30.78 21 30.22 21L30.2 20.98L30.2 19.02ZM12.39 20L17.34 24.94C17.74 25.34 17.74 25.96 17.34 26.36C16.95 26.75 16.33 26.75 15.93 26.36L10.27 20.7C9.88 20.31 9.88 19.68 10.27 19.29L15.93 13.63C16.33 13.24 16.95 13.24 17.34 13.63C17.74 14.03 17.74 14.65 17.34 15.05L12.39 20Z" fill="#FFFFFF" fill-opacity="1.000000" fill-rule="nonzero"/>
	<path id="Arrow 4" d="M13.39 21L17.34 24.94C17.74 25.34 17.74 25.96 17.34 26.36C16.95 26.75 16.33 26.75 15.93 26.36L10.27 20.7C9.88 20.31 9.88 19.68 10.27 19.29L15.93 13.63C16.33 13.24 16.95 13.24 17.34 13.63C17.74 14.03 17.74 14.65 17.34 15.05L13.39 19L30.22 19C30.78 19 31.22 19.43 31.22 20C31.22 20.56 30.78 21 30.22 21L13.39 21Z" fill="#00679D" fill-opacity="1.000000" fill-rule="evenodd"/>
</svg>
