<svg width="12.641968" height="21.521973" viewBox="0 0 12.642 21.522" fill="none" xmlns="http://www.w3.org/2000/svg" xmlns:xlink="http://www.w3.org/1999/xlink">
	<desc>
			Created with Pixso.
	</desc>
	<defs/>
	<path id="Vector" d="M12.3 11.6L2.72 21.17C2.5 21.39 2.2 21.52 1.88 21.52C1.57 21.52 1.27 21.39 1.05 21.17L0.35 20.47C-0.11 20.01 -0.11 19.26 0.35 18.81L8.39 10.76L0.34 2.71C0.12 2.49 0 2.19 0 1.88C0 1.56 0.12 1.26 0.34 1.05L1.04 0.34C1.27 0.12 1.56 0 1.88 0C2.19 0 2.49 0.12 2.71 0.34L12.3 9.93C12.52 10.15 12.64 10.45 12.64 10.76C12.64 11.08 12.52 11.37 12.3 11.6Z" fill="#FBFBFB" fill-opacity="1.000000" fill-rule="nonzero"/>
</svg>
