<svg width="40.000000" height="40.000000" viewBox="0 0 40 40" fill="none" xmlns="http://www.w3.org/2000/svg" xmlns:xlink="http://www.w3.org/1999/xlink">
	<desc>
			Created with Pixso.
	</desc>
	<defs/>
	<circle id="Ellipse 82" r="20.000002" transform="matrix(1 0 0 1 20 20)" fill="#FF6699" fill-opacity="1.000000"/>
	<path id="Vector" d="M24.9 9.7C22.75 9.7 20.91 11.59 19.9 14.48C18.89 11.59 17.04 9.7 14.9 9.7C11.63 9.7 9.06 14.09 9.06 19.7C9.06 25.31 11.63 29.7 14.9 29.7C17.04 29.7 18.89 27.81 19.9 24.93C20.91 27.81 22.75 29.7 24.9 29.7C28.17 29.7 30.73 25.31 30.73 19.7C30.73 14.09 28.17 9.7 24.9 9.7ZM17.7 25.78C16.92 27.21 15.9 28.04 14.9 28.04C13.9 28.04 12.87 27.21 12.09 25.78C11.59 24.83 11.23 23.8 11.03 22.74C11.53 22.97 12.09 23.07 12.65 23.03C13.2 22.98 13.74 22.8 14.21 22.5C14.68 22.2 15.06 21.79 15.33 21.3C15.59 20.81 15.73 20.26 15.73 19.7C15.73 19.14 15.59 18.6 15.33 18.11C15.06 17.62 14.68 17.2 14.21 16.9C13.74 16.6 13.2 16.42 12.65 16.38C12.09 16.34 11.53 16.43 11.03 16.66C11.23 15.6 11.59 14.58 12.09 13.62C12.87 12.19 13.9 11.37 14.9 11.37C15.9 11.37 16.92 12.19 17.7 13.62C18.58 15.23 19.06 17.39 19.06 19.7C19.06 22.01 18.58 24.17 17.7 25.78ZM27.7 25.78C26.92 27.21 25.9 28.04 24.9 28.04C23.9 28.04 22.87 27.21 22.09 25.78C21.59 24.83 21.23 23.8 21.03 22.74C21.53 22.97 22.09 23.07 22.65 23.03C23.2 22.98 23.74 22.8 24.21 22.5C24.68 22.2 25.06 21.79 25.33 21.3C25.59 20.81 25.73 20.26 25.73 19.7C25.73 19.14 25.59 18.6 25.33 18.11C25.06 17.62 24.68 17.2 24.21 16.9C23.74 16.6 23.2 16.42 22.65 16.38C22.09 16.34 21.53 16.43 21.03 16.66C21.23 15.6 21.59 14.58 22.09 13.62C22.87 12.19 23.9 11.37 24.9 11.37C25.9 11.37 26.92 12.19 27.7 13.62C28.58 15.23 29.06 17.39 29.06 19.7C29.06 22.01 28.58 24.17 27.7 25.78Z" fill="#000000" fill-opacity="1.000000" fill-rule="nonzero"/>
</svg>
