<svg width="50.163940" height="34.000000" viewBox="0 0 50.1639 34" fill="none" xmlns="http://www.w3.org/2000/svg" xmlns:xlink="http://www.w3.org/1999/xlink">
	<desc>
			Created with Pixso.
	</desc>
	<defs/>
	<mask id="mask537_238" mask-type="alpha" maskUnits="userSpaceOnUse" x="0.000000" y="0.000000" width="50.163940" height="34.000000">
		<path id="Vector" d="M0 0L50.16 0L50.16 34L0 34L0 0Z" fill="#000000" fill-opacity="1.000000" fill-rule="evenodd"/>
	</mask>
	<g mask="url(#mask537_238)">
		<path id="Vector" d="M8.83 21.23L7 18.36L2.65 11.83C2.18 11.15 1.73 10.5 1.33 9.86C0.93 9.22 0.61 8.55 0.36 7.85C0.12 7.15 0 6.37 0 5.51C0 3.78 0.45 2.44 1.36 1.47C2.27 0.51 3.63 0.02 5.45 0.02C6.78 0.02 7.86 0.29 8.68 0.83C9.5 1.36 10.1 2.1 10.48 3.04C10.85 3.98 11.04 5.07 11.04 6.31L11.04 7.24L7.47 7.24L7.47 6.37C7.47 5.77 7.41 5.21 7.31 4.71C7.19 4.21 6.98 3.8 6.66 3.49C6.35 3.18 5.91 3.03 5.35 3.03C4.76 3.03 4.32 3.23 4.04 3.65C3.76 4.06 3.62 4.66 3.62 5.44C3.62 6.13 3.73 6.76 3.95 7.34C4.17 7.92 4.45 8.47 4.79 9.01C5.13 9.54 5.49 10.1 5.88 10.69L11.12 18.69L12.8 21.23L8.83 21.23Z" fill="#FFFFFF" fill-opacity="1.000000" fill-rule="nonzero"/>
		<path id="Vector" d="M7.04 32.13L7.04 24.07L9.87 24.07L9.87 24.66L7.78 24.66L7.78 32.13L7.04 32.13Z" fill="#FFFFFF" fill-opacity="1.000000" fill-rule="nonzero"/>
		<path id="Vector" d="M12.48 32.25C11.95 32.25 11.53 32.13 11.23 31.9C10.94 31.67 10.73 31.33 10.61 30.87C10.49 30.42 10.44 29.86 10.44 29.19L10.44 27.02C10.44 26.35 10.5 25.79 10.61 25.33C10.73 24.88 10.94 24.54 11.23 24.3C11.53 24.07 11.95 23.96 12.48 23.96C13.03 23.96 13.45 24.07 13.75 24.3C14.04 24.54 14.25 24.88 14.37 25.33C14.49 25.78 14.54 26.34 14.54 27.02L14.54 29.19C14.54 29.86 14.48 30.42 14.37 30.87C14.25 31.33 14.04 31.67 13.75 31.9C13.45 32.14 13.03 32.25 12.48 32.25ZM12.48 31.7C12.88 31.7 13.17 31.6 13.36 31.4C13.55 31.2 13.67 30.92 13.72 30.54C13.77 30.17 13.8 29.73 13.8 29.22L13.8 26.99C13.8 26.46 13.77 26.02 13.72 25.65C13.67 25.28 13.55 25 13.36 24.8C13.17 24.6 12.88 24.5 12.48 24.5C12.09 24.5 11.8 24.6 11.61 24.8C11.43 25 11.31 25.28 11.26 25.65C11.2 26.02 11.18 26.46 11.18 26.99L11.18 29.22C11.18 29.73 11.2 30.17 11.26 30.54C11.31 30.91 11.43 31.2 11.61 31.4C11.8 31.6 12.09 31.7 12.48 31.7Z" fill="#FFFFFF" fill-opacity="1.000000" fill-rule="nonzero"/>
		<path id="Vector" d="M14.81 34L14.81 31.61C15.04 31.49 15.23 31.32 15.4 31.1C15.57 30.89 15.71 30.59 15.82 30.21C15.94 29.82 16.04 29.33 16.13 28.72C16.21 28.11 16.29 27.35 16.36 26.46L16.54 24.07L19.77 24.07L19.77 31.58L20.5 31.58L20.5 34L19.9 34L19.85 32.13L15.47 32.13L15.4 34L14.81 34ZM15.66 31.58L19.04 31.58L19.04 24.63L17.16 24.63L16.98 26.6C16.91 27.43 16.84 28.13 16.76 28.7C16.69 29.27 16.62 29.74 16.53 30.12C16.44 30.5 16.33 30.8 16.19 31.03C16.05 31.26 15.87 31.45 15.66 31.58Z" fill="#FFFFFF" fill-opacity="1.000000" fill-rule="nonzero"/>
		<path id="Vector" d="M25.01 32.25C24.4 32.25 23.95 32.11 23.65 31.83C23.36 31.55 23.17 31.17 23.08 30.69C22.99 30.22 22.94 29.69 22.94 29.1L22.94 27.21C22.94 26.42 23 25.78 23.12 25.31C23.24 24.83 23.46 24.48 23.76 24.27C24.06 24.06 24.47 23.95 25 23.95C25.57 23.95 25.99 24.06 26.28 24.29C26.57 24.52 26.76 24.83 26.85 25.22C26.94 25.62 26.99 26.06 26.99 26.55L26.99 26.88L26.28 26.88L26.28 26.55C26.28 26.01 26.23 25.58 26.15 25.29C26.06 25 25.92 24.8 25.73 24.68C25.55 24.56 25.3 24.51 25 24.51C24.63 24.51 24.35 24.59 24.16 24.77C23.97 24.94 23.85 25.21 23.78 25.6C23.71 25.98 23.68 26.49 23.68 27.13L23.68 29.22C23.68 30.09 23.77 30.73 23.94 31.12C24.11 31.51 24.47 31.7 25 31.7C25.37 31.7 25.65 31.62 25.83 31.47C26.01 31.31 26.13 31.06 26.19 30.73C26.24 30.39 26.27 29.96 26.27 29.43L26.27 29.13L26.98 29.13L26.98 29.42C26.98 29.96 26.94 30.44 26.86 30.87C26.77 31.29 26.59 31.63 26.31 31.88C26.04 32.13 25.61 32.25 25.01 32.25Z" fill="#FFFFFF" fill-opacity="1.000000" fill-rule="nonzero"/>
		<path id="Vector" d="M29.93 32.25C29.49 32.25 29.12 32.17 28.81 32C28.5 31.82 28.26 31.51 28.09 31.07C27.93 30.62 27.85 29.98 27.85 29.15L27.85 27C27.85 26.16 27.93 25.52 28.1 25.08C28.27 24.65 28.51 24.35 28.83 24.19C29.14 24.03 29.51 23.96 29.94 23.96C30.45 23.96 30.85 24.06 31.14 24.28C31.43 24.49 31.64 24.83 31.76 25.3C31.88 25.77 31.94 26.39 31.94 27.16L31.94 27.92L28.59 27.92L28.59 29.2C28.59 29.84 28.64 30.35 28.73 30.71C28.82 31.07 28.96 31.33 29.16 31.47C29.36 31.63 29.6 31.7 29.92 31.7C30.12 31.7 30.31 31.67 30.51 31.6C30.71 31.53 30.88 31.38 31.01 31.14C31.14 30.89 31.21 30.52 31.21 30.01L31.21 29.41L31.95 29.41L31.95 29.94C31.95 30.62 31.81 31.18 31.52 31.61C31.22 32.04 30.69 32.25 29.93 32.25ZM28.59 27.47L31.2 27.47L31.2 26.85C31.2 26.37 31.18 25.95 31.12 25.6C31.07 25.25 30.96 24.98 30.77 24.79C30.59 24.6 30.31 24.51 29.93 24.51C29.62 24.51 29.37 24.58 29.17 24.69C28.97 24.82 28.82 25.05 28.73 25.39C28.63 25.73 28.59 26.23 28.59 26.87L28.59 27.47L28.59 27.47Z" fill="#FFFFFF" fill-opacity="1.000000" fill-rule="nonzero"/>
		<path id="Vector" d="M32.88 32.13L32.95 24.07L33.52 24.07L35.49 29.97L37.45 24.07L38.06 24.07L38.11 32.13L37.46 32.13L37.44 25.95L35.62 31.28L35.38 31.28L33.57 25.98L33.54 32.13L32.88 32.13Z" fill="#FFFFFF" fill-opacity="1.000000" fill-rule="nonzero"/>
		<path id="Vector" d="M39.18 32.13L39.18 24.07L39.93 24.07L39.93 27.31L40.09 27.31L40.57 27.31C41.13 27.31 41.58 27.38 41.92 27.53C42.26 27.67 42.52 27.86 42.7 28.09C42.88 28.32 43.01 28.58 43.08 28.87C43.14 29.16 43.18 29.45 43.18 29.74C43.18 30.03 43.14 30.32 43.07 30.6C43 30.89 42.87 31.14 42.69 31.37C42.51 31.6 42.24 31.78 41.89 31.91C41.54 32.05 41.09 32.13 40.53 32.13L39.18 32.13ZM39.93 31.62L40.53 31.62C41.09 31.62 41.5 31.54 41.78 31.36C42.05 31.18 42.23 30.95 42.33 30.67C42.42 30.38 42.47 30.07 42.47 29.74C42.47 29.42 42.42 29.11 42.33 28.82C42.25 28.53 42.07 28.28 41.8 28.09C41.53 27.9 41.12 27.81 40.56 27.81L40.33 27.81L39.93 27.81L39.93 31.62Z" fill="#FFFFFF" fill-opacity="1.000000" fill-rule="nonzero"/>
		<path id="Vector" d="M44.14 32.13L44.14 24.07L44.79 24.07L44.79 30.75L47.66 24.07L48.29 24.07L48.29 32.13L47.64 32.13L47.64 25.51L44.77 32.13L44.14 32.13Z" fill="#FFFFFF" fill-opacity="1.000000" fill-rule="nonzero"/>
		<path id="Vector" d="M8.83 21.23L7.3 18.83L12.64 10.69C13.02 10.1 13.38 9.54 13.73 9.01C14.07 8.47 14.35 7.92 14.56 7.34C14.78 6.76 14.89 6.12 14.89 5.44C14.89 4.66 14.75 4.06 14.47 3.65C14.19 3.23 13.75 3.03 13.16 3.03C12.6 3.03 12.16 3.18 11.85 3.49C11.53 3.8 11.32 4.21 11.2 4.71C11.09 5.21 11.04 5.76 11.04 6.37L11.04 7.24L7.47 7.24L7.47 6.31C7.47 5.07 7.66 3.98 8.03 3.04C8.41 2.1 9.01 1.36 9.83 0.83C10.66 0.29 11.73 0.02 13.06 0.02C14.88 0.02 16.24 0.5 17.15 1.47C18.06 2.44 18.51 3.78 18.51 5.51C18.51 6.38 18.39 7.16 18.15 7.86C17.9 8.56 17.58 9.22 17.18 9.87C16.78 10.51 16.34 11.16 15.87 11.83L11.51 18.36L17.97 18.36L17.97 21.23L8.83 21.23Z" fill="#FFFFFF" fill-opacity="1.000000" fill-rule="nonzero"/>
		<path id="Vector" d="M23.69 21.54C22.45 21.54 21.42 21.28 20.61 20.76C19.79 20.24 19.18 19.52 18.78 18.61C18.37 17.69 18.16 16.64 18.16 15.45L18.16 6.15C18.16 4.93 18.35 3.86 18.75 2.93C19.14 2.01 19.75 1.29 20.56 0.77C21.37 0.25 22.41 0 23.69 0C24.97 0 26.01 0.25 26.83 0.77C27.65 1.29 28.25 2.02 28.64 2.93C29.04 3.86 29.23 4.93 29.23 6.15L29.23 15.45C29.23 16.64 29.02 17.7 28.61 18.61C28.21 19.52 27.59 20.24 26.78 20.76C25.96 21.28 24.93 21.54 23.69 21.54ZM23.69 18.45C24.23 18.45 24.64 18.29 24.9 17.96C25.16 17.63 25.33 17.23 25.42 16.77C25.5 16.3 25.55 15.85 25.55 15.4L25.55 6.21C25.55 5.73 25.51 5.24 25.43 4.77C25.35 4.29 25.18 3.89 24.92 3.57C24.66 3.24 24.25 3.07 23.69 3.07C23.13 3.07 22.72 3.24 22.46 3.57C22.2 3.9 22.03 4.29 21.95 4.77C21.87 5.24 21.83 5.72 21.83 6.21L21.83 15.4C21.83 15.85 21.88 16.3 21.98 16.77C22.07 17.24 22.25 17.64 22.51 17.96C22.77 18.3 23.16 18.45 23.69 18.45Z" fill="#FFFFFF" fill-opacity="1.000000" fill-rule="nonzero"/>
		<path id="Vector" d="M28.98 21.23L28.98 18.69L34.23 10.69C34.62 10.1 34.98 9.54 35.32 9.01C35.67 8.47 35.95 7.92 36.16 7.34C36.38 6.76 36.49 6.12 36.49 5.44C36.49 4.66 36.35 4.06 36.07 3.65C35.79 3.23 35.35 3.03 34.76 3.03C34.19 3.03 33.76 3.18 33.44 3.49C33.13 3.8 32.92 4.21 32.8 4.71C32.69 5.21 32.64 5.76 32.64 6.37L32.64 7.24L29.07 7.24L29.07 6.31C29.07 5.07 29.26 3.98 29.63 3.04C30.01 2.09 30.61 1.36 31.43 0.83C32.25 0.29 33.33 0.02 34.66 0.02C36.47 0.02 37.84 0.5 38.75 1.47C39.66 2.44 40.11 3.78 40.11 5.51C40.11 6.38 39.99 7.16 39.75 7.86C39.5 8.56 39.18 9.22 38.78 9.87C38.37 10.51 37.94 11.16 37.46 11.83L33.1 18.36L39.56 18.36L39.56 21.23L28.98 21.23Z" fill="#FFFFFF" fill-opacity="1.000000" fill-rule="nonzero"/>
		<path id="Vector" d="M44.85 21.23L44.85 16.08L38.5 16.08L38.5 13.02L44.03 0.25L48.25 0.25L48.25 13.23L50.16 13.23L50.16 16.07L48.26 16.07L48.26 21.22L44.85 21.22L44.85 21.23ZM41.54 13.23L44.85 13.23L44.85 4.12L41.54 13.23Z" fill="#FFFFFF" fill-opacity="1.000000" fill-rule="nonzero"/>
	</g>
</svg>
